G04*
G04 #@! TF.GenerationSoftware,Altium Limited,Altium Designer,20.0.14 (345)*
G04*
G04 Layer_Color=8388736*
%FSLAX25Y25*%
%MOIN*%
G70*
G01*
G75*
%ADD57C,0.00500*%
D57*
X94280Y117186D02*
G03*
X94280Y117186I0J-880D01*
G01*
X96643Y119063D02*
G03*
X96643Y119063I0J-394D01*
G01*
X123021Y143669D02*
Y145047D01*
X121643D01*
X123021Y117487D02*
Y118865D01*
Y117487D02*
X121643D01*
X96839Y145047D02*
X95461D01*
Y143669D02*
Y145047D01*
X96839Y117487D02*
X95461D01*
Y118865D01*
X12627Y117076D02*
G03*
X12627Y117076I0J-880D01*
G01*
X14990Y118953D02*
G03*
X14990Y118953I0J-394D01*
G01*
X41368Y143559D02*
Y144937D01*
X39990D01*
X41368Y117377D02*
Y118755D01*
Y117377D02*
X39990D01*
X15186Y144937D02*
X13808D01*
Y143559D02*
Y144937D01*
X15186Y117377D02*
X13808D01*
Y118755D01*
X12003Y20158D02*
G03*
X12003Y20158I0J-880D01*
G01*
X14366Y22035D02*
G03*
X14366Y22035I0J-394D01*
G01*
X40744Y46641D02*
Y48019D01*
X39366D01*
X40744Y20459D02*
Y21837D01*
Y20459D02*
X39366D01*
X14562Y48019D02*
X13184D01*
Y46641D02*
Y48019D01*
X14562Y20459D02*
X13184D01*
Y21837D01*
X94072Y20410D02*
G03*
X94072Y20410I0J-880D01*
G01*
X96435Y22287D02*
G03*
X96435Y22287I0J-394D01*
G01*
X122813Y46893D02*
Y48271D01*
X121435D01*
X122813Y20711D02*
Y22089D01*
Y20711D02*
X121435D01*
X96631Y48271D02*
X95253D01*
Y46893D02*
Y48271D01*
X96631Y20711D02*
X95253D01*
Y22089D01*
M02*
