G04*
G04 #@! TF.GenerationSoftware,Altium Limited,Altium Designer,20.0.14 (345)*
G04*
G04 Layer_Physical_Order=4*
G04 Layer_Color=16711680*
%FSLAX25Y25*%
%MOIN*%
G70*
G01*
G75*
%ADD18C,0.01000*%
%ADD19C,0.01500*%
%ADD20C,0.02500*%
%ADD21C,0.02000*%
%ADD22C,0.03000*%
%ADD23C,0.06000*%
%ADD28C,0.01575*%
%ADD29C,0.06200*%
%ADD30C,0.03347*%
%ADD31R,0.03347X0.03347*%
%ADD32C,0.02165*%
%ADD33C,0.02362*%
%ADD34R,0.03347X0.03347*%
%ADD35C,0.06102*%
%ADD36R,0.06102X0.06102*%
%ADD37C,0.06496*%
%ADD38R,0.06496X0.06496*%
%ADD39R,0.05150X0.05150*%
%ADD40C,0.20079*%
%ADD41C,0.05150*%
%ADD42C,0.06299*%
%ADD43R,0.06299X0.06299*%
%ADD44C,0.07087*%
%ADD45R,0.07087X0.07087*%
%ADD46O,0.12992X0.05906*%
%ADD47O,0.10630X0.05906*%
%ADD48C,0.07677*%
%ADD49R,0.07677X0.07677*%
%ADD50C,0.07000*%
%ADD51R,0.05512X0.05512*%
%ADD52C,0.05512*%
%ADD53C,0.33465*%
%ADD56C,0.04000*%
G36*
X332133Y618697D02*
X332104Y618639D01*
X332078Y618565D01*
X332056Y618474D01*
X332037Y618367D01*
X332010Y618104D01*
X331996Y617776D01*
X331994Y617588D01*
X329994D01*
X329993Y617776D01*
X329951Y618367D01*
X329932Y618474D01*
X329910Y618565D01*
X329885Y618639D01*
X329855Y618697D01*
X329823Y618739D01*
X332165D01*
X332133Y618697D01*
D02*
G37*
G36*
X343688Y618573D02*
X343644Y618531D01*
X343605Y618474D01*
X343570Y618400D01*
X343540Y618310D01*
X343515Y618204D01*
X343494Y618082D01*
X343466Y617789D01*
X343459Y617617D01*
X343457Y617430D01*
X341457Y617826D01*
X341456Y618016D01*
X341404Y618853D01*
X341389Y618902D01*
X341373Y618933D01*
X343688Y618573D01*
D02*
G37*
G36*
X339751D02*
X339707Y618531D01*
X339668Y618474D01*
X339633Y618400D01*
X339603Y618310D01*
X339578Y618204D01*
X339557Y618082D01*
X339529Y617789D01*
X339522Y617617D01*
X339520Y617430D01*
X337520Y617826D01*
X337519Y618016D01*
X337466Y618853D01*
X337452Y618902D01*
X337436Y618933D01*
X339751Y618573D01*
D02*
G37*
G36*
X335905D02*
X335861Y618531D01*
X335821Y618474D01*
X335787Y618400D01*
X335757Y618310D01*
X335731Y618204D01*
X335711Y618082D01*
X335683Y617789D01*
X335676Y617617D01*
X335673Y617430D01*
X333674Y617826D01*
X333673Y618016D01*
X333620Y618853D01*
X333606Y618902D01*
X333590Y618933D01*
X335905Y618573D01*
D02*
G37*
G36*
X13811Y596982D02*
X13618Y596772D01*
X13441Y596546D01*
X13280Y596304D01*
X13136Y596045D01*
X13007Y595770D01*
X12896Y595479D01*
X12800Y595172D01*
X12721Y594848D01*
X12659Y594508D01*
X12612Y594152D01*
X9785Y597714D01*
X10121Y597683D01*
X10445Y597679D01*
X10756Y597700D01*
X11054Y597747D01*
X11338Y597820D01*
X11610Y597918D01*
X11869Y598042D01*
X12115Y598191D01*
X12348Y598366D01*
X12568Y598567D01*
X13811Y596982D01*
D02*
G37*
G36*
X21421Y597055D02*
X22038Y596737D01*
X22340Y596608D01*
X22931Y596409D01*
X23220Y596340D01*
X23505Y596290D01*
X23785Y596260D01*
X24061Y596250D01*
X24570Y594250D01*
X24268Y594236D01*
X23979Y594193D01*
X23704Y594122D01*
X23444Y594022D01*
X23196Y593893D01*
X22963Y593736D01*
X22744Y593551D01*
X22538Y593336D01*
X22347Y593094D01*
X22169Y592823D01*
X21105Y597244D01*
X21421Y597055D01*
D02*
G37*
G36*
X13652Y587347D02*
X13455Y587131D01*
X13279Y586901D01*
X13123Y586656D01*
X12989Y586396D01*
X12877Y586121D01*
X12785Y585831D01*
X12714Y585526D01*
X12665Y585207D01*
X12637Y584872D01*
X12630Y584523D01*
X9414Y587738D01*
X9764Y587745D01*
X10098Y587774D01*
X10418Y587823D01*
X10722Y587893D01*
X11012Y587985D01*
X11287Y588098D01*
X11547Y588232D01*
X11792Y588387D01*
X12022Y588563D01*
X12238Y588761D01*
X13652Y587347D01*
D02*
G37*
G36*
X21953Y586522D02*
X22210Y586306D01*
X22471Y586115D01*
X22736Y585949D01*
X23006Y585809D01*
X23280Y585694D01*
X23558Y585605D01*
X23842Y585541D01*
X24129Y585503D01*
X24421Y585491D01*
Y583491D01*
X24129Y583478D01*
X23842Y583440D01*
X23558Y583376D01*
X23280Y583287D01*
X23006Y583172D01*
X22736Y583032D01*
X22471Y582866D01*
X22210Y582676D01*
X21953Y582459D01*
X21701Y582217D01*
Y586764D01*
X21953Y586522D01*
D02*
G37*
G36*
X13923Y576607D02*
X13734Y576404D01*
X13557Y576184D01*
X13392Y575946D01*
X13238Y575692D01*
X13095Y575421D01*
X12964Y575132D01*
X12845Y574827D01*
X12642Y574164D01*
X12557Y573808D01*
X10128Y577652D01*
X10448Y577590D01*
X10758Y577557D01*
X11056Y577554D01*
X11344Y577580D01*
X11621Y577636D01*
X11888Y577722D01*
X12143Y577837D01*
X12388Y577981D01*
X12622Y578155D01*
X12846Y578358D01*
X13923Y576607D01*
D02*
G37*
G36*
X21421Y577055D02*
X22038Y576737D01*
X22340Y576608D01*
X22931Y576409D01*
X23220Y576340D01*
X23505Y576290D01*
X23785Y576260D01*
X24061Y576250D01*
X24570Y574250D01*
X24268Y574236D01*
X23979Y574193D01*
X23704Y574122D01*
X23444Y574022D01*
X23196Y573893D01*
X22963Y573736D01*
X22744Y573551D01*
X22538Y573337D01*
X22347Y573094D01*
X22169Y572823D01*
X21105Y577244D01*
X21421Y577055D01*
D02*
G37*
G36*
X13935Y566555D02*
X13747Y566353D01*
X13570Y566133D01*
X13403Y565897D01*
X13248Y565644D01*
X13104Y565373D01*
X12971Y565085D01*
X12737Y564458D01*
X12637Y564119D01*
X12547Y563763D01*
X10173Y567641D01*
X10491Y567575D01*
X10798Y567539D01*
X11095Y567532D01*
X11381Y567556D01*
X11657Y567610D01*
X11922Y567694D01*
X12178Y567808D01*
X12422Y567951D01*
X12657Y568125D01*
X12880Y568329D01*
X13935Y566555D01*
D02*
G37*
G36*
X21953Y566522D02*
X22210Y566306D01*
X22471Y566115D01*
X22736Y565949D01*
X23006Y565809D01*
X23280Y565694D01*
X23558Y565605D01*
X23842Y565542D01*
X24129Y565503D01*
X24421Y565491D01*
Y563491D01*
X24129Y563478D01*
X23842Y563440D01*
X23558Y563376D01*
X23280Y563287D01*
X23006Y563172D01*
X22736Y563032D01*
X22471Y562866D01*
X22210Y562676D01*
X21953Y562459D01*
X21701Y562217D01*
Y566764D01*
X21953Y566522D01*
D02*
G37*
G36*
X410424Y558839D02*
X410380Y558865D01*
X410303Y558888D01*
X410191Y558908D01*
X410047Y558926D01*
X409409Y558963D01*
X408467Y558975D01*
Y562975D01*
X408815Y562976D01*
X410303Y563062D01*
X410380Y563085D01*
X410424Y563111D01*
Y558839D01*
D02*
G37*
G36*
X13652Y557347D02*
X13455Y557131D01*
X13279Y556901D01*
X13123Y556656D01*
X12989Y556395D01*
X12877Y556121D01*
X12785Y555831D01*
X12714Y555526D01*
X12665Y555207D01*
X12637Y554872D01*
X12630Y554523D01*
X9414Y557738D01*
X9764Y557745D01*
X10098Y557774D01*
X10418Y557823D01*
X10722Y557894D01*
X11012Y557985D01*
X11287Y558098D01*
X11547Y558232D01*
X11792Y558387D01*
X12022Y558563D01*
X12238Y558761D01*
X13652Y557347D01*
D02*
G37*
G36*
X21963Y556510D02*
X22218Y556293D01*
X22478Y556101D01*
X22742Y555935D01*
X23011Y555794D01*
X23285Y555679D01*
X23563Y555590D01*
X23846Y555526D01*
X24134Y555488D01*
X24426Y555475D01*
X24416Y553475D01*
X24124Y553462D01*
X23837Y553424D01*
X23553Y553361D01*
X23275Y553272D01*
X23000Y553158D01*
X22729Y553018D01*
X22463Y552853D01*
X22201Y552663D01*
X21944Y552447D01*
X21690Y552206D01*
X21712Y556753D01*
X21963Y556510D01*
D02*
G37*
G36*
X13652Y547347D02*
X13455Y547131D01*
X13279Y546901D01*
X13123Y546656D01*
X12989Y546395D01*
X12877Y546121D01*
X12785Y545831D01*
X12714Y545526D01*
X12665Y545207D01*
X12637Y544872D01*
X12630Y544523D01*
X9414Y547738D01*
X9764Y547745D01*
X10098Y547774D01*
X10418Y547823D01*
X10722Y547893D01*
X11012Y547985D01*
X11287Y548098D01*
X11547Y548232D01*
X11792Y548387D01*
X12022Y548563D01*
X12238Y548761D01*
X13652Y547347D01*
D02*
G37*
G36*
X21963Y546510D02*
X22218Y546293D01*
X22478Y546101D01*
X22742Y545935D01*
X23011Y545794D01*
X23285Y545679D01*
X23563Y545590D01*
X23846Y545526D01*
X24134Y545488D01*
X24426Y545475D01*
X24416Y543475D01*
X24124Y543462D01*
X23837Y543424D01*
X23553Y543361D01*
X23275Y543272D01*
X23000Y543157D01*
X22729Y543018D01*
X22463Y542853D01*
X22201Y542663D01*
X21944Y542447D01*
X21690Y542206D01*
X21712Y546753D01*
X21963Y546510D01*
D02*
G37*
G36*
X13153Y538064D02*
X12949Y537840D01*
X12776Y537605D01*
X12633Y537361D01*
X12522Y537107D01*
X12441Y536844D01*
X12392Y536571D01*
X12374Y536288D01*
X12387Y535996D01*
X12430Y535694D01*
X12505Y535382D01*
X8553Y537631D01*
X8908Y537732D01*
X9567Y537962D01*
X9870Y538091D01*
X10425Y538378D01*
X10676Y538536D01*
X10910Y538703D01*
X11128Y538880D01*
X11327Y539067D01*
X13153Y538064D01*
D02*
G37*
G36*
X21963Y536510D02*
X22218Y536293D01*
X22478Y536101D01*
X22742Y535935D01*
X23011Y535794D01*
X23285Y535679D01*
X23563Y535590D01*
X23846Y535526D01*
X24134Y535488D01*
X24426Y535475D01*
X24416Y533475D01*
X24124Y533462D01*
X23837Y533424D01*
X23553Y533361D01*
X23275Y533272D01*
X23000Y533157D01*
X22729Y533018D01*
X22463Y532853D01*
X22201Y532663D01*
X21944Y532447D01*
X21690Y532206D01*
X21712Y536753D01*
X21963Y536510D01*
D02*
G37*
G36*
X13652Y527347D02*
X13455Y527131D01*
X13279Y526901D01*
X13123Y526656D01*
X12989Y526396D01*
X12877Y526121D01*
X12785Y525831D01*
X12714Y525526D01*
X12665Y525207D01*
X12637Y524872D01*
X12630Y524523D01*
X9414Y527738D01*
X9764Y527745D01*
X10098Y527774D01*
X10418Y527823D01*
X10722Y527893D01*
X11012Y527985D01*
X11287Y528098D01*
X11547Y528232D01*
X11792Y528387D01*
X12022Y528563D01*
X12238Y528761D01*
X13652Y527347D01*
D02*
G37*
G36*
X21963Y526510D02*
X22218Y526293D01*
X22478Y526101D01*
X22742Y525935D01*
X23011Y525794D01*
X23285Y525679D01*
X23563Y525590D01*
X23846Y525526D01*
X24134Y525488D01*
X24426Y525475D01*
X24416Y523475D01*
X24124Y523462D01*
X23837Y523424D01*
X23553Y523361D01*
X23275Y523272D01*
X23000Y523158D01*
X22729Y523018D01*
X22463Y522853D01*
X22201Y522663D01*
X21944Y522447D01*
X21690Y522206D01*
X21712Y526753D01*
X21963Y526510D01*
D02*
G37*
G36*
X352833Y515076D02*
X352560Y514797D01*
X351914Y514056D01*
X351757Y513842D01*
X351628Y513643D01*
X351528Y513460D01*
X351458Y513294D01*
X351415Y513144D01*
X351402Y513010D01*
X347937Y516475D01*
X348072Y516488D01*
X348222Y516530D01*
X348388Y516601D01*
X348571Y516701D01*
X348769Y516829D01*
X348984Y516987D01*
X349462Y517388D01*
X350004Y517905D01*
X352833Y515076D01*
D02*
G37*
G36*
X106575Y501219D02*
X106318Y501212D01*
X106069Y501186D01*
X105826Y501140D01*
X105590Y501076D01*
X105362Y500991D01*
X105140Y500888D01*
X104926Y500766D01*
X104718Y500624D01*
X104518Y500463D01*
X104324Y500283D01*
X102910Y501697D01*
X103091Y501890D01*
X103252Y502091D01*
X103393Y502298D01*
X103516Y502513D01*
X103619Y502734D01*
X103703Y502963D01*
X103768Y503198D01*
X103813Y503441D01*
X103840Y503691D01*
X103847Y503947D01*
X106575Y501219D01*
D02*
G37*
G36*
X95741D02*
X95485Y501212D01*
X95235Y501186D01*
X94993Y501140D01*
X94757Y501076D01*
X94528Y500991D01*
X94307Y500888D01*
X94092Y500766D01*
X93885Y500624D01*
X93685Y500463D01*
X93491Y500283D01*
X92077Y501697D01*
X92257Y501890D01*
X92418Y502091D01*
X92560Y502298D01*
X92682Y502513D01*
X92786Y502734D01*
X92870Y502963D01*
X92935Y503198D01*
X92980Y503441D01*
X93006Y503691D01*
X93013Y503947D01*
X95741Y501219D01*
D02*
G37*
G36*
X84908D02*
X84651Y501212D01*
X84402Y501186D01*
X84159Y501140D01*
X83924Y501076D01*
X83695Y500991D01*
X83474Y500888D01*
X83259Y500766D01*
X83052Y500624D01*
X82851Y500463D01*
X82658Y500283D01*
X81243Y501697D01*
X81424Y501890D01*
X81585Y502091D01*
X81727Y502298D01*
X81849Y502513D01*
X81952Y502734D01*
X82036Y502963D01*
X82101Y503198D01*
X82147Y503441D01*
X82173Y503691D01*
X82180Y503947D01*
X84908Y501219D01*
D02*
G37*
G36*
X74075D02*
X73818Y501212D01*
X73569Y501186D01*
X73326Y501140D01*
X73090Y501076D01*
X72862Y500991D01*
X72640Y500888D01*
X72426Y500766D01*
X72218Y500624D01*
X72018Y500463D01*
X71824Y500283D01*
X70410Y501697D01*
X70591Y501890D01*
X70752Y502091D01*
X70893Y502298D01*
X71016Y502513D01*
X71119Y502734D01*
X71203Y502963D01*
X71268Y503198D01*
X71313Y503441D01*
X71340Y503691D01*
X71347Y503947D01*
X74075Y501219D01*
D02*
G37*
G36*
X528866Y462912D02*
X528824Y462944D01*
X528766Y462973D01*
X528692Y462999D01*
X528602Y463022D01*
X528495Y463040D01*
X528232Y463068D01*
X527904Y463081D01*
X527716Y463083D01*
Y465083D01*
X527904Y465085D01*
X528495Y465126D01*
X528602Y465145D01*
X528692Y465167D01*
X528766Y465193D01*
X528824Y465222D01*
X528866Y465254D01*
Y462912D01*
D02*
G37*
G36*
X528700Y459173D02*
X528659Y459217D01*
X528602Y459256D01*
X528528Y459291D01*
X528438Y459321D01*
X528332Y459346D01*
X528209Y459367D01*
X527916Y459395D01*
X527745Y459401D01*
X527558Y459404D01*
X527953Y461404D01*
X528144Y461405D01*
X528981Y461457D01*
X529030Y461472D01*
X529061Y461487D01*
X528700Y459173D01*
D02*
G37*
G36*
Y455326D02*
X528659Y455370D01*
X528602Y455409D01*
X528528Y455444D01*
X528438Y455474D01*
X528332Y455500D01*
X528209Y455520D01*
X527916Y455548D01*
X527745Y455555D01*
X527558Y455557D01*
X527953Y457557D01*
X528144Y457558D01*
X528981Y457611D01*
X529030Y457625D01*
X529061Y457641D01*
X528700Y455326D01*
D02*
G37*
G36*
X528866Y451191D02*
X528824Y451224D01*
X528766Y451253D01*
X528692Y451279D01*
X528602Y451301D01*
X528495Y451320D01*
X528232Y451347D01*
X527904Y451361D01*
X527716Y451363D01*
Y453363D01*
X527904Y453364D01*
X528495Y453406D01*
X528602Y453424D01*
X528692Y453447D01*
X528766Y453472D01*
X528824Y453501D01*
X528866Y453534D01*
Y451191D01*
D02*
G37*
G36*
X531093Y449751D02*
X531142Y449737D01*
X531208Y449724D01*
X531292Y449713D01*
X531514Y449697D01*
X532169Y449683D01*
X532565Y447683D01*
X532377Y447681D01*
X531913Y447646D01*
X531790Y447625D01*
X531684Y447600D01*
X531594Y447570D01*
X531521Y447536D01*
X531463Y447496D01*
X531422Y447452D01*
X531061Y449767D01*
X531093Y449751D01*
D02*
G37*
G36*
X531328Y445594D02*
X531386Y445563D01*
X531461Y445535D01*
X531552Y445512D01*
X531659Y445491D01*
X531782Y445475D01*
X532078Y445453D01*
X532438Y445446D01*
X532373Y443446D01*
X532185Y443444D01*
X531594Y443406D01*
X531488Y443389D01*
X531398Y443368D01*
X531324Y443344D01*
X531266Y443317D01*
X531225Y443287D01*
X531286Y445629D01*
X531328Y445594D01*
D02*
G37*
G36*
X531298Y441690D02*
X531356Y441661D01*
X531430Y441636D01*
X531521Y441613D01*
X531628Y441594D01*
X531890Y441567D01*
X532218Y441553D01*
X532407Y441552D01*
Y439552D01*
X532218Y439550D01*
X531628Y439509D01*
X531521Y439490D01*
X531430Y439468D01*
X531356Y439442D01*
X531298Y439413D01*
X531256Y439380D01*
Y441723D01*
X531298Y441690D01*
D02*
G37*
G36*
Y437753D02*
X531356Y437724D01*
X531430Y437699D01*
X531521Y437676D01*
X531628Y437657D01*
X531890Y437630D01*
X532218Y437616D01*
X532407Y437615D01*
Y435615D01*
X532218Y435613D01*
X531628Y435572D01*
X531521Y435553D01*
X531430Y435531D01*
X531356Y435505D01*
X531298Y435476D01*
X531256Y435443D01*
Y437786D01*
X531298Y437753D01*
D02*
G37*
G36*
X178034Y433384D02*
X176751Y432123D01*
X175640Y434185D01*
X175700Y434175D01*
X175768Y434181D01*
X175845Y434203D01*
X175929Y434240D01*
X176022Y434293D01*
X176123Y434361D01*
X176233Y434445D01*
X176476Y434659D01*
X176610Y434789D01*
X178034Y433384D01*
D02*
G37*
G36*
Y429447D02*
X176751Y428186D01*
X175640Y430248D01*
X175700Y430238D01*
X175768Y430244D01*
X175845Y430266D01*
X175929Y430303D01*
X176022Y430356D01*
X176123Y430424D01*
X176233Y430508D01*
X176476Y430722D01*
X176610Y430852D01*
X178034Y429447D01*
D02*
G37*
G36*
X178064Y425541D02*
X176732Y424275D01*
X175704Y426380D01*
X175763Y426369D01*
X175830Y426373D01*
X175906Y426393D01*
X175990Y426429D01*
X176082Y426480D01*
X176183Y426547D01*
X176292Y426630D01*
X176535Y426844D01*
X176670Y426974D01*
X178064Y425541D01*
D02*
G37*
G36*
X178034Y421663D02*
X176751Y420403D01*
X175640Y422465D01*
X175700Y422455D01*
X175768Y422461D01*
X175845Y422482D01*
X175929Y422520D01*
X176022Y422572D01*
X176123Y422640D01*
X176233Y422724D01*
X176476Y422938D01*
X176610Y423069D01*
X178034Y421663D01*
D02*
G37*
G36*
X375212Y267173D02*
X375254Y266583D01*
X375272Y266476D01*
X375295Y266385D01*
X375320Y266311D01*
X375349Y266253D01*
X375382Y266211D01*
X373040D01*
X373072Y266253D01*
X373101Y266311D01*
X373127Y266385D01*
X373149Y266476D01*
X373168Y266583D01*
X373195Y266845D01*
X373209Y267173D01*
X373211Y267362D01*
X375211D01*
X375212Y267173D01*
D02*
G37*
G36*
X371018Y267332D02*
X371053Y266868D01*
X371074Y266745D01*
X371099Y266639D01*
X371129Y266549D01*
X371164Y266476D01*
X371203Y266418D01*
X371247Y266377D01*
X368932Y266017D01*
X368948Y266048D01*
X368963Y266097D01*
X368975Y266163D01*
X368986Y266248D01*
X369003Y266469D01*
X369016Y267124D01*
X371016Y267520D01*
X371018Y267332D01*
D02*
G37*
G36*
X363235D02*
X363270Y266868D01*
X363290Y266745D01*
X363316Y266639D01*
X363346Y266549D01*
X363380Y266476D01*
X363420Y266418D01*
X363464Y266377D01*
X361149Y266017D01*
X361165Y266048D01*
X361179Y266097D01*
X361192Y266163D01*
X361203Y266248D01*
X361219Y266469D01*
X361233Y267124D01*
X363233Y267520D01*
X363235Y267332D01*
D02*
G37*
G36*
X366757Y267474D02*
X366796Y267018D01*
X366820Y266901D01*
X366849Y266802D01*
X366884Y266721D01*
X366923Y266657D01*
X366968Y266610D01*
X367019Y266581D01*
X364877Y265645D01*
X364754Y267552D01*
X366754Y267661D01*
X366757Y267474D01*
D02*
G37*
G36*
X359692Y263779D02*
X359663Y263721D01*
X359637Y263647D01*
X359615Y263557D01*
X359596Y263450D01*
X359569Y263187D01*
X359555Y262859D01*
X359553Y262671D01*
X357553D01*
X357552Y262859D01*
X357510Y263450D01*
X357492Y263557D01*
X357469Y263647D01*
X357444Y263721D01*
X357415Y263779D01*
X357382Y263821D01*
X359724D01*
X359692Y263779D01*
D02*
G37*
G36*
X355755D02*
X355726Y263721D01*
X355700Y263647D01*
X355678Y263557D01*
X355659Y263450D01*
X355632Y263187D01*
X355618Y262859D01*
X355616Y262671D01*
X353616D01*
X353614Y262859D01*
X353573Y263450D01*
X353555Y263557D01*
X353532Y263647D01*
X353507Y263721D01*
X353478Y263779D01*
X353445Y263821D01*
X355787D01*
X355755Y263779D01*
D02*
G37*
G36*
X351818D02*
X351789Y263721D01*
X351763Y263647D01*
X351741Y263557D01*
X351722Y263450D01*
X351695Y263187D01*
X351681Y262859D01*
X351679Y262671D01*
X349679D01*
X349677Y262859D01*
X349636Y263450D01*
X349618Y263557D01*
X349595Y263647D01*
X349570Y263721D01*
X349540Y263779D01*
X349508Y263821D01*
X351851D01*
X351818Y263779D01*
D02*
G37*
G36*
X347881D02*
X347852Y263721D01*
X347826Y263647D01*
X347804Y263557D01*
X347785Y263450D01*
X347758Y263187D01*
X347744Y262859D01*
X347742Y262671D01*
X345742D01*
X345741Y262859D01*
X345699Y263450D01*
X345681Y263557D01*
X345658Y263647D01*
X345633Y263721D01*
X345603Y263779D01*
X345571Y263821D01*
X347914D01*
X347881Y263779D01*
D02*
G37*
G36*
X442525Y165630D02*
X442554Y165564D01*
X442601Y165484D01*
X442667Y165390D01*
X442855Y165158D01*
X443117Y164870D01*
X443453Y164526D01*
X442100Y163051D01*
X441920Y163227D01*
X441227Y163828D01*
X441129Y163892D01*
X441045Y163936D01*
X440974Y163962D01*
X440916Y163970D01*
X442515Y165682D01*
X442525Y165630D01*
D02*
G37*
G36*
X430670Y164973D02*
X430680Y164899D01*
X430711Y164813D01*
X430762Y164713D01*
X430834Y164599D01*
X430927Y164473D01*
X431174Y164181D01*
X431504Y163836D01*
X430049Y162462D01*
X428561Y164065D01*
X430681Y165033D01*
X430670Y164973D01*
D02*
G37*
G36*
X414833Y164795D02*
X414839Y164726D01*
X414866Y164644D01*
X414915Y164548D01*
X414984Y164438D01*
X415075Y164314D01*
X415320Y164025D01*
X415651Y163680D01*
X414112Y162390D01*
X412707Y164106D01*
X414848Y164850D01*
X414833Y164795D01*
D02*
G37*
G36*
X438280Y164664D02*
X438285Y164601D01*
X438311Y164524D01*
X438358Y164432D01*
X438427Y164325D01*
X438518Y164204D01*
X438763Y163918D01*
X439093Y163573D01*
X437488Y162350D01*
X436157Y164145D01*
X438297Y164713D01*
X438280Y164664D01*
D02*
G37*
G36*
X267928Y154070D02*
X268078Y153823D01*
X268264Y153605D01*
X268485Y153417D01*
X268741Y153257D01*
X269033Y153127D01*
X269360Y153025D01*
X269723Y152952D01*
X270120Y152909D01*
X270553Y152894D01*
X270254Y150894D01*
X269694Y150889D01*
X267749Y150749D01*
X267336Y150685D01*
X266598Y150522D01*
X266273Y150423D01*
X265978Y150312D01*
X267813Y154345D01*
X267928Y154070D01*
D02*
G37*
G36*
X300158Y142659D02*
X299854Y142341D01*
X299335Y141714D01*
X299121Y141406D01*
X298938Y141101D01*
X298785Y140799D01*
X298662Y140501D01*
X298570Y140206D01*
X298508Y139914D01*
X298476Y139626D01*
X295485Y143051D01*
X295771Y143046D01*
X296061Y143076D01*
X296354Y143140D01*
X296652Y143239D01*
X296953Y143372D01*
X297259Y143540D01*
X297568Y143742D01*
X297882Y143979D01*
X298199Y144251D01*
X298520Y144557D01*
X300158Y142659D01*
D02*
G37*
G36*
X311355Y145474D02*
X311414Y145457D01*
X311503Y145440D01*
X311767Y145404D01*
X312939Y145305D01*
X309741Y142107D01*
X309557Y143722D01*
X311324Y145490D01*
X311355Y145474D01*
D02*
G37*
G36*
X267569Y144968D02*
X267806Y144733D01*
X268066Y144526D01*
X268350Y144346D01*
X268656Y144193D01*
X268986Y144069D01*
X269339Y143972D01*
X269714Y143903D01*
X270114Y143862D01*
X270536Y143848D01*
X270231Y141848D01*
X269825Y141837D01*
X269430Y141803D01*
X269047Y141747D01*
X268677Y141669D01*
X268318Y141568D01*
X267971Y141446D01*
X267637Y141300D01*
X267314Y141133D01*
X267003Y140943D01*
X266704Y140730D01*
X267355Y145231D01*
X267569Y144968D01*
D02*
G37*
G36*
X254701Y130065D02*
X254347Y130053D01*
X253999Y130011D01*
X253657Y129939D01*
X253320Y129836D01*
X252989Y129703D01*
X252663Y129540D01*
X252344Y129346D01*
X252029Y129122D01*
X251721Y128868D01*
X251418Y128583D01*
X250004Y129997D01*
X250289Y130300D01*
X250543Y130608D01*
X250767Y130922D01*
X250961Y131242D01*
X251124Y131568D01*
X251257Y131899D01*
X251360Y132236D01*
X251432Y132578D01*
X251474Y132926D01*
X251486Y133280D01*
X254701Y130065D01*
D02*
G37*
G36*
X267993Y132926D02*
X268035Y132578D01*
X268108Y132236D01*
X268210Y131899D01*
X268343Y131568D01*
X268506Y131242D01*
X268700Y130922D01*
X268924Y130608D01*
X269179Y130300D01*
X269463Y129997D01*
X268049Y128583D01*
X267746Y128868D01*
X267438Y129122D01*
X267124Y129346D01*
X266804Y129540D01*
X266479Y129703D01*
X266147Y129836D01*
X265811Y129939D01*
X265468Y130011D01*
X265120Y130053D01*
X264766Y130065D01*
X267982Y133280D01*
X267993Y132926D01*
D02*
G37*
G36*
X292940Y124535D02*
X293238Y124279D01*
X293545Y124045D01*
X293859Y123831D01*
X294181Y123639D01*
X294511Y123467D01*
X294849Y123317D01*
X295194Y123187D01*
X295548Y123078D01*
X295909Y122989D01*
X292071Y120551D01*
X292128Y120876D01*
X292146Y121200D01*
X292126Y121522D01*
X292067Y121842D01*
X291969Y122161D01*
X291833Y122478D01*
X291658Y122793D01*
X291444Y123107D01*
X291193Y123419D01*
X290902Y123730D01*
X292650Y124811D01*
X292940Y124535D01*
D02*
G37*
G36*
X267747Y124617D02*
X267949Y124373D01*
X268179Y124157D01*
X268437Y123970D01*
X268724Y123812D01*
X269038Y123682D01*
X269381Y123582D01*
X269751Y123510D01*
X270150Y123467D01*
X270577Y123452D01*
X269995Y121452D01*
X269598Y121443D01*
X268828Y121367D01*
X268454Y121301D01*
X268088Y121215D01*
X267729Y121111D01*
X267377Y120988D01*
X267033Y120846D01*
X266697Y120686D01*
X266368Y120506D01*
X267573Y124890D01*
X267747Y124617D01*
D02*
G37*
G36*
X302221Y124257D02*
X302530Y124003D01*
X302844Y123779D01*
X303163Y123585D01*
X303489Y123422D01*
X303820Y123289D01*
X304157Y123186D01*
X304499Y123114D01*
X304847Y123072D01*
X305201Y123060D01*
X301986Y119845D01*
X301974Y120199D01*
X301932Y120547D01*
X301860Y120889D01*
X301757Y121226D01*
X301624Y121557D01*
X301461Y121883D01*
X301267Y122203D01*
X301043Y122517D01*
X300789Y122825D01*
X300504Y123128D01*
X301918Y124542D01*
X302221Y124257D01*
D02*
G37*
G36*
X257993Y122926D02*
X258035Y122578D01*
X258107Y122236D01*
X258210Y121899D01*
X258343Y121567D01*
X258506Y121242D01*
X258700Y120922D01*
X258924Y120608D01*
X259179Y120300D01*
X259463Y119997D01*
X258049Y118583D01*
X257746Y118868D01*
X257438Y119122D01*
X257124Y119346D01*
X256804Y119540D01*
X256479Y119703D01*
X256148Y119836D01*
X255811Y119939D01*
X255468Y120011D01*
X255120Y120053D01*
X254766Y120065D01*
X257982Y123280D01*
X257993Y122926D01*
D02*
G37*
G36*
X302221Y104257D02*
X302530Y104003D01*
X302844Y103779D01*
X303163Y103585D01*
X303489Y103422D01*
X303820Y103289D01*
X304157Y103186D01*
X304499Y103114D01*
X304847Y103072D01*
X305201Y103060D01*
X301986Y99845D01*
X301974Y100199D01*
X301932Y100547D01*
X301860Y100889D01*
X301757Y101226D01*
X301624Y101557D01*
X301461Y101883D01*
X301267Y102202D01*
X301043Y102517D01*
X300789Y102825D01*
X300504Y103128D01*
X301918Y104542D01*
X302221Y104257D01*
D02*
G37*
G36*
X291371Y103610D02*
X291684Y103359D01*
X291995Y103150D01*
X292305Y102984D01*
X292614Y102859D01*
X292922Y102778D01*
X293229Y102738D01*
X293535Y102740D01*
X293839Y102785D01*
X294142Y102872D01*
X292153Y98782D01*
X292025Y99138D01*
X291722Y99824D01*
X291547Y100155D01*
X291149Y100792D01*
X290926Y101098D01*
X290434Y101686D01*
X290164Y101968D01*
X291057Y103903D01*
X291371Y103610D01*
D02*
G37*
G36*
X605221Y94127D02*
X605529Y93873D01*
X605844Y93649D01*
X606163Y93455D01*
X606489Y93292D01*
X606820Y93159D01*
X607157Y93056D01*
X607499Y92984D01*
X607847Y92942D01*
X608201Y92930D01*
X604986Y89715D01*
X604974Y90069D01*
X604932Y90417D01*
X604860Y90759D01*
X604757Y91096D01*
X604624Y91427D01*
X604461Y91753D01*
X604267Y92073D01*
X604043Y92387D01*
X603789Y92695D01*
X603504Y92998D01*
X604918Y94412D01*
X605221Y94127D01*
D02*
G37*
G36*
X595221D02*
X595530Y93873D01*
X595844Y93649D01*
X596163Y93455D01*
X596489Y93292D01*
X596820Y93159D01*
X597157Y93056D01*
X597499Y92984D01*
X597847Y92942D01*
X598201Y92930D01*
X594986Y89715D01*
X594974Y90069D01*
X594932Y90417D01*
X594860Y90759D01*
X594757Y91096D01*
X594624Y91427D01*
X594461Y91753D01*
X594267Y92073D01*
X594043Y92387D01*
X593789Y92695D01*
X593504Y92998D01*
X594918Y94412D01*
X595221Y94127D01*
D02*
G37*
G36*
X292442Y84364D02*
X292748Y84109D01*
X293061Y83881D01*
X293380Y83681D01*
X293706Y83508D01*
X294038Y83363D01*
X294377Y83245D01*
X294723Y83154D01*
X295075Y83090D01*
X295434Y83054D01*
X291997Y80077D01*
X292008Y80424D01*
X291987Y80766D01*
X291933Y81103D01*
X291845Y81436D01*
X291724Y81765D01*
X291570Y82089D01*
X291383Y82408D01*
X291162Y82723D01*
X290909Y83033D01*
X290622Y83339D01*
X292143Y84646D01*
X292442Y84364D01*
D02*
G37*
G36*
X302221Y84257D02*
X302530Y84003D01*
X302844Y83779D01*
X303163Y83585D01*
X303489Y83422D01*
X303820Y83289D01*
X304157Y83186D01*
X304499Y83114D01*
X304847Y83072D01*
X305201Y83060D01*
X301986Y79845D01*
X301974Y80199D01*
X301932Y80547D01*
X301860Y80889D01*
X301757Y81226D01*
X301624Y81557D01*
X301461Y81883D01*
X301267Y82203D01*
X301043Y82517D01*
X300789Y82825D01*
X300504Y83128D01*
X301918Y84542D01*
X302221Y84257D01*
D02*
G37*
G36*
X605221Y84127D02*
X605529Y83873D01*
X605844Y83649D01*
X606163Y83455D01*
X606489Y83292D01*
X606820Y83159D01*
X607157Y83056D01*
X607499Y82984D01*
X607847Y82942D01*
X608201Y82930D01*
X604986Y79715D01*
X604974Y80069D01*
X604932Y80417D01*
X604860Y80760D01*
X604757Y81096D01*
X604624Y81427D01*
X604461Y81753D01*
X604267Y82073D01*
X604043Y82387D01*
X603789Y82695D01*
X603504Y82998D01*
X604918Y84412D01*
X605221Y84127D01*
D02*
G37*
G36*
X281834Y72999D02*
X281556Y72703D01*
X281307Y72403D01*
X281087Y72098D01*
X280897Y71789D01*
X280737Y71476D01*
X280607Y71158D01*
X280507Y70836D01*
X280436Y70510D01*
X280395Y70179D01*
X280383Y69844D01*
X277265Y72962D01*
X277600Y72973D01*
X277931Y73014D01*
X278258Y73085D01*
X278580Y73186D01*
X278897Y73316D01*
X279211Y73476D01*
X279520Y73666D01*
X279824Y73885D01*
X280124Y74134D01*
X280420Y74413D01*
X281834Y72999D01*
D02*
G37*
G36*
X605221Y74127D02*
X605529Y73873D01*
X605844Y73649D01*
X606163Y73455D01*
X606489Y73292D01*
X606820Y73159D01*
X607157Y73056D01*
X607499Y72984D01*
X607847Y72942D01*
X608201Y72930D01*
X604986Y69715D01*
X604974Y70069D01*
X604932Y70417D01*
X604860Y70759D01*
X604757Y71096D01*
X604624Y71427D01*
X604461Y71753D01*
X604267Y72073D01*
X604043Y72387D01*
X603789Y72695D01*
X603504Y72998D01*
X604918Y74412D01*
X605221Y74127D01*
D02*
G37*
G36*
X267763Y76061D02*
X267982Y76280D01*
X267993Y75926D01*
X268035Y75578D01*
X268108Y75235D01*
X268184Y74983D01*
X268366Y74666D01*
X268722Y74136D01*
X269156Y73558D01*
X270262Y72262D01*
X271684Y70777D01*
X270269Y69363D01*
X269503Y70113D01*
X266911Y72325D01*
X266380Y72680D01*
X266063Y72862D01*
X265811Y72939D01*
X265468Y73011D01*
X265120Y73053D01*
X264766Y73065D01*
X264985Y73283D01*
X264732Y73312D01*
X267734Y76314D01*
X267763Y76061D01*
D02*
G37*
G36*
X178948Y70426D02*
X179032Y70278D01*
X179138Y70148D01*
X179268Y70034D01*
X179419Y69939D01*
X179593Y69861D01*
X179790Y69800D01*
X180009Y69756D01*
X180250Y69730D01*
X180514Y69722D01*
Y68721D01*
X180222Y68714D01*
X179951Y68690D01*
X179699Y68651D01*
X179468Y68596D01*
X179256Y68525D01*
X179065Y68438D01*
X178894Y68336D01*
X178743Y68218D01*
X178612Y68085D01*
X178501Y67935D01*
X178886Y70591D01*
X178948Y70426D01*
D02*
G37*
G36*
X274985Y67608D02*
X274739Y67837D01*
X274476Y68041D01*
X274195Y68222D01*
X273897Y68379D01*
X273580Y68511D01*
X273245Y68620D01*
X272892Y68704D01*
X272522Y68764D01*
X272134Y68800D01*
X271727Y68812D01*
Y70812D01*
X272134Y70824D01*
X272522Y70861D01*
X272892Y70921D01*
X273245Y71005D01*
X273580Y71114D01*
X273897Y71246D01*
X274195Y71403D01*
X274476Y71583D01*
X274739Y71788D01*
X274985Y72017D01*
Y67608D01*
D02*
G37*
G36*
X188434Y71624D02*
X188782Y71323D01*
X189130Y71057D01*
X189478Y70826D01*
X189827Y70631D01*
X190176Y70471D01*
X190525Y70347D01*
X190875Y70258D01*
X191224Y70205D01*
X191574Y70188D01*
Y69188D01*
X191224Y69170D01*
X190875Y69117D01*
X190525Y69028D01*
X190176Y68904D01*
X189827Y68744D01*
X189478Y68549D01*
X189130Y68318D01*
X188782Y68053D01*
X188434Y67751D01*
X188086Y67414D01*
Y71961D01*
X188434Y71624D01*
D02*
G37*
G36*
X596554Y66902D02*
X596244Y67077D01*
X595924Y67234D01*
X595592Y67371D01*
X595250Y67491D01*
X594898Y67592D01*
X594534Y67675D01*
X594160Y67739D01*
X593379Y67813D01*
X592973Y67822D01*
X592546Y69822D01*
X592949Y69836D01*
X593324Y69878D01*
X593673Y69947D01*
X593996Y70045D01*
X594291Y70170D01*
X594560Y70323D01*
X594803Y70504D01*
X595018Y70713D01*
X595208Y70950D01*
X595370Y71215D01*
X596554Y66902D01*
D02*
G37*
G36*
X302221Y64257D02*
X302530Y64003D01*
X302844Y63779D01*
X303163Y63585D01*
X303489Y63422D01*
X303820Y63289D01*
X304157Y63186D01*
X304499Y63114D01*
X304847Y63072D01*
X305201Y63060D01*
X301986Y59845D01*
X301974Y60199D01*
X301932Y60547D01*
X301860Y60889D01*
X301757Y61226D01*
X301624Y61557D01*
X301461Y61883D01*
X301267Y62203D01*
X301043Y62517D01*
X300789Y62825D01*
X300504Y63128D01*
X301918Y64542D01*
X302221Y64257D01*
D02*
G37*
G36*
X605221Y64127D02*
X605529Y63873D01*
X605844Y63649D01*
X606163Y63455D01*
X606489Y63292D01*
X606820Y63159D01*
X607157Y63056D01*
X607499Y62984D01*
X607847Y62942D01*
X608201Y62930D01*
X604986Y59715D01*
X604974Y60069D01*
X604932Y60417D01*
X604860Y60760D01*
X604757Y61096D01*
X604624Y61427D01*
X604461Y61753D01*
X604267Y62073D01*
X604043Y62387D01*
X603789Y62695D01*
X603504Y62998D01*
X604918Y64412D01*
X605221Y64127D01*
D02*
G37*
G36*
X292914Y57539D02*
X292656Y57781D01*
X292380Y57997D01*
X292087Y58188D01*
X291776Y58354D01*
X291448Y58494D01*
X291102Y58609D01*
X290739Y58698D01*
X290358Y58762D01*
X289961Y58800D01*
X289545Y58812D01*
Y60812D01*
X289961Y60825D01*
X290358Y60863D01*
X290739Y60927D01*
X291102Y61016D01*
X291448Y61131D01*
X291776Y61271D01*
X292087Y61436D01*
X292380Y61628D01*
X292656Y61844D01*
X292914Y62086D01*
Y57539D01*
D02*
G37*
G36*
X595914Y57409D02*
X595656Y57651D01*
X595380Y57867D01*
X595087Y58058D01*
X594776Y58224D01*
X594448Y58364D01*
X594102Y58479D01*
X593739Y58568D01*
X593358Y58632D01*
X592961Y58670D01*
X592545Y58683D01*
Y60682D01*
X592961Y60695D01*
X593358Y60733D01*
X593739Y60797D01*
X594102Y60886D01*
X594448Y61001D01*
X594776Y61141D01*
X595087Y61307D01*
X595380Y61498D01*
X595656Y61714D01*
X595914Y61956D01*
Y57409D01*
D02*
G37*
G36*
X269463Y49628D02*
X269179Y49325D01*
X268924Y49017D01*
X268700Y48702D01*
X268507Y48383D01*
X268343Y48057D01*
X268210Y47726D01*
X268108Y47389D01*
X268035Y47047D01*
X267993Y46699D01*
X267982Y46345D01*
X264766Y49560D01*
X265120Y49572D01*
X265468Y49614D01*
X265811Y49686D01*
X266147Y49789D01*
X266479Y49922D01*
X266804Y50085D01*
X267124Y50279D01*
X267438Y50503D01*
X267746Y50757D01*
X268049Y51042D01*
X269463Y49628D01*
D02*
G37*
G36*
X378291Y44897D02*
X378381Y44642D01*
X378532Y44418D01*
X378743Y44223D01*
X379014Y44058D01*
X379345Y43922D01*
X379737Y43817D01*
X380189Y43742D01*
X380701Y43698D01*
X381273Y43683D01*
Y40683D01*
X380701Y40668D01*
X380189Y40622D01*
X379737Y40547D01*
X379345Y40442D01*
X379014Y40308D01*
X378743Y40143D01*
X378532Y39948D01*
X378381Y39722D01*
X378291Y39467D01*
X378261Y39182D01*
Y45182D01*
X378291Y44897D01*
D02*
G37*
G36*
X269463Y39628D02*
X269179Y39325D01*
X268924Y39017D01*
X268700Y38702D01*
X268507Y38383D01*
X268343Y38057D01*
X268210Y37726D01*
X268108Y37389D01*
X268035Y37047D01*
X267993Y36699D01*
X267982Y36345D01*
X264766Y39560D01*
X265120Y39572D01*
X265468Y39614D01*
X265811Y39686D01*
X266147Y39789D01*
X266479Y39922D01*
X266804Y40085D01*
X267124Y40279D01*
X267438Y40503D01*
X267746Y40757D01*
X268049Y41042D01*
X269463Y39628D01*
D02*
G37*
G36*
X222045Y33259D02*
X221930Y33140D01*
X221737Y32910D01*
X221659Y32800D01*
X221593Y32693D01*
X221540Y32590D01*
X221498Y32489D01*
X221469Y32391D01*
X221452Y32297D01*
X221447Y32205D01*
X220284Y33369D01*
X220375Y33373D01*
X220470Y33390D01*
X220567Y33419D01*
X220668Y33461D01*
X220772Y33515D01*
X220879Y33580D01*
X220989Y33658D01*
X221102Y33749D01*
X221338Y33966D01*
X222045Y33259D01*
D02*
G37*
G36*
X259463Y29628D02*
X259179Y29325D01*
X258924Y29017D01*
X258700Y28703D01*
X258506Y28383D01*
X258343Y28057D01*
X258210Y27726D01*
X258107Y27389D01*
X258035Y27047D01*
X257993Y26699D01*
X257982Y26345D01*
X254766Y29560D01*
X255120Y29572D01*
X255468Y29614D01*
X255811Y29686D01*
X256148Y29789D01*
X256479Y29922D01*
X256804Y30085D01*
X257124Y30279D01*
X257438Y30503D01*
X257746Y30757D01*
X258049Y31042D01*
X259463Y29628D01*
D02*
G37*
G36*
Y19628D02*
X259179Y19325D01*
X258924Y19017D01*
X258700Y18702D01*
X258506Y18383D01*
X258343Y18057D01*
X258210Y17726D01*
X258107Y17389D01*
X258035Y17047D01*
X257993Y16699D01*
X257982Y16345D01*
X254766Y19560D01*
X255120Y19572D01*
X255468Y19614D01*
X255811Y19686D01*
X256148Y19789D01*
X256479Y19922D01*
X256804Y20085D01*
X257124Y20279D01*
X257438Y20503D01*
X257746Y20757D01*
X258049Y21042D01*
X259463Y19628D01*
D02*
G37*
D18*
X440741Y110803D02*
X440819Y110724D01*
X436882D02*
Y111082D01*
X425071Y110724D02*
Y111359D01*
X417288Y110724D02*
X417737Y111173D01*
X511731Y58233D02*
X512180Y58683D01*
X504396Y58048D02*
Y58683D01*
X492585Y58324D02*
Y58683D01*
X488648D02*
X488727Y58604D01*
X524241Y110803D02*
X524319Y110724D01*
X520382D02*
Y111082D01*
X508571Y110724D02*
Y111359D01*
X500788Y110724D02*
X501237Y111173D01*
X428231Y58192D02*
X428680Y58641D01*
X420896Y58006D02*
Y58641D01*
X409085Y58283D02*
Y58641D01*
X405148D02*
X405227Y58562D01*
X215958Y59664D02*
X200458D01*
X220471Y55151D02*
X215958Y59664D01*
X200458D02*
X191730Y68392D01*
X216495Y60959D02*
X200995D01*
X221766Y55688D02*
X216495Y60959D01*
X200995D02*
X192266Y69688D01*
X220471Y35892D02*
Y55151D01*
X218418Y33971D02*
X218050D01*
X218418D02*
X219064Y34617D01*
X219196D02*
X219064D01*
X219196D02*
X220471Y35892D01*
X220266Y32188D02*
X221766Y33688D01*
Y55688D01*
X192266Y69688D02*
X185766D01*
X191730Y68392D02*
X190266D01*
X176232Y69222D02*
X175766Y69688D01*
X180514Y69222D02*
X176232D01*
X184091Y65644D02*
X180514Y69222D01*
X187518Y65644D02*
X184091D01*
X187518D02*
X190266Y68392D01*
D19*
X413552Y165316D02*
Y165641D01*
X421072Y165288D02*
X421426Y165641D01*
X417489Y165316D02*
Y165641D01*
X425009Y165288D02*
X425363Y165641D01*
X433117Y165521D02*
X433237Y165641D01*
X496231Y3765D02*
X496351Y3885D01*
X504105Y3765D02*
X504458Y4118D01*
X511979Y3765D02*
Y4090D01*
X508042Y3765D02*
X508395Y4118D01*
X515916Y3765D02*
Y4090D01*
X497052Y165316D02*
Y165641D01*
X504572Y165288D02*
X504926Y165641D01*
X500989Y165316D02*
Y165641D01*
X508509Y165288D02*
X508863Y165641D01*
X516617Y165521D02*
X516737Y165641D01*
X412731Y3724D02*
X412851Y3844D01*
X420605Y3724D02*
X420958Y4077D01*
X428479Y3724D02*
Y4049D01*
X424542Y3724D02*
X424895Y4077D01*
X432416Y3724D02*
Y4049D01*
X504283Y3765D02*
Y3943D01*
X428657Y3724D02*
Y4106D01*
D20*
X295234Y139812D02*
X295544D01*
X300337Y144606D02*
X295544Y139812D01*
X300337Y144606D02*
X310440D01*
X312734Y142312D01*
D21*
X551734Y143183D02*
X588143Y106773D01*
X552980Y145773D02*
X590734Y108019D01*
X553851Y148566D02*
X593395Y109021D01*
X554924Y151156D02*
X591236Y114844D01*
X413552Y165316D02*
Y165463D01*
Y164365D02*
Y165316D01*
X588143Y91716D02*
Y106773D01*
X503999Y143183D02*
X551734D01*
X590734Y92789D02*
Y108019D01*
X505072Y145773D02*
X552980D01*
X505943Y148566D02*
X553851D01*
X591236Y114844D02*
X599915D01*
X593395Y94521D02*
Y109021D01*
X507016Y151156D02*
X554924D01*
X557636Y159787D02*
X561407Y156016D01*
Y148702D02*
Y156016D01*
X561310Y148606D02*
X561407Y148702D01*
X555781Y157196D02*
X558734Y154244D01*
Y151682D02*
Y154244D01*
X558709Y162377D02*
X564234Y156853D01*
Y145683D02*
Y156853D01*
X510197Y159787D02*
X557636D01*
X509124Y157196D02*
X555781D01*
X507648Y154188D02*
X555009D01*
X497547Y164289D02*
X507648Y154188D01*
X511270Y162377D02*
X558709D01*
X508090Y157683D02*
X508637D01*
X509437Y160273D02*
X509710D01*
X508637Y157683D02*
X509124Y157196D01*
X505421Y164289D02*
X509437Y160273D01*
X509710D02*
X510197Y159787D01*
X501484Y164289D02*
X508090Y157683D01*
X509358Y164289D02*
X511270Y162377D01*
X509358Y164289D02*
Y164604D01*
X508684Y165277D02*
X509358Y164604D01*
X599915Y114844D02*
X603072Y111687D01*
X601233Y105840D02*
X603072Y107678D01*
X601233Y104183D02*
X603072Y102344D01*
X603072Y107678D02*
Y111687D01*
X601233Y104183D02*
Y105840D01*
X499316Y9411D02*
X503610Y5117D01*
X443570Y9411D02*
X499316D01*
X443487Y9328D02*
X443570Y9411D01*
X426188Y9651D02*
X429985D01*
X430307Y9328D01*
X443487D01*
X500662Y12001D02*
X507547Y5117D01*
X442414Y11919D02*
X442497Y12001D01*
X431234Y12183D02*
X434453D01*
X442497Y12001D02*
X500662D01*
X434453Y12183D02*
X434717Y11919D01*
X442414D01*
X435734Y14683D02*
X438953D01*
X439126Y14509D02*
X441341D01*
X438953Y14683D02*
X439126Y14509D01*
X441424Y14592D02*
X502009D01*
X511484Y5117D01*
X441341Y14509D02*
X441424Y14592D01*
X432299Y19856D02*
X504346D01*
X428626Y16183D02*
X432299Y19856D01*
X504346D02*
X516019Y8183D01*
X440234Y17183D02*
X503355D01*
X515421Y5117D01*
X503610Y4803D02*
Y5117D01*
Y4803D02*
X504283Y4129D01*
X405799Y5076D02*
X422405Y21682D01*
X422588D02*
X428533Y27627D01*
X422405Y21682D02*
X422588D01*
X428533Y27627D02*
X507565D01*
X518010Y17183D01*
X405125Y3724D02*
Y4088D01*
X405799Y4761D01*
Y5076D01*
X430953Y22446D02*
X505419D01*
X412909Y3724D02*
Y4088D01*
X413582Y4761D01*
Y5076D01*
X430953Y22446D01*
X409645Y4671D02*
Y5076D01*
X425252Y20683D01*
X425252D02*
X429606Y25037D01*
X506492D01*
X425252Y20683D02*
X425252D01*
X409062Y4088D02*
X409645Y4671D01*
X409062Y3724D02*
Y4088D01*
X428626Y16183D02*
X428626D01*
X417519Y5076D02*
X428626Y16183D01*
X518010Y17183D02*
X537243D01*
X594582Y74521D01*
X517346Y14183D02*
X537907D01*
X592546Y68822D01*
X538570Y11182D02*
X591909Y64521D01*
X516682Y11182D02*
X538570D01*
X506492Y25037D02*
X517346Y14183D01*
X505419Y22446D02*
X516682Y11182D01*
X516019Y8183D02*
X539234D01*
X590734Y59683D01*
X598234D01*
X446882Y159683D02*
X498490D01*
X429795Y164131D02*
X442015Y151911D01*
X437163Y164090D02*
X444161Y157092D01*
X434572Y163017D02*
X443088Y154501D01*
X496344D01*
X442015Y151911D02*
X495271D01*
X498490Y159683D02*
X507016Y151156D01*
X495271Y151911D02*
X503999Y143183D01*
X444161Y157092D02*
X497417D01*
X505943Y148566D01*
X496344Y154501D02*
X505072Y145773D01*
X440923Y165641D02*
X446882Y159683D01*
X497547Y164289D02*
Y164604D01*
X440842Y165641D02*
X440923D01*
X434572Y163017D02*
Y163358D01*
X433641Y164289D02*
X434572Y163358D01*
X433641Y164289D02*
Y164694D01*
X433059Y165277D02*
X433641Y164694D01*
X433059Y165277D02*
Y165641D01*
X588143Y91716D02*
X590360Y89500D01*
X603072Y94844D02*
X608234Y89683D01*
X603072Y94844D02*
Y102344D01*
X417519Y4761D02*
Y5076D01*
X416846Y4088D02*
X417519Y4761D01*
X416846Y3724D02*
Y4088D01*
X413552Y164365D02*
X417234Y160682D01*
X419896Y162377D02*
X424147Y158126D01*
Y158040D02*
Y158126D01*
X436905Y165641D02*
X437163Y165384D01*
Y164090D02*
Y165384D01*
X429795Y164131D02*
Y164604D01*
X437396Y152521D02*
X437624D01*
X425184Y165277D02*
Y165463D01*
X425858Y164058D02*
X437396Y152521D01*
X593395Y94521D02*
X598234Y89683D01*
X592950Y88123D02*
X596552Y84521D01*
X592950Y88123D02*
Y90573D01*
X590360Y87050D02*
Y89500D01*
X590734Y92789D02*
X592950Y90573D01*
X425254Y160713D02*
X430702Y155265D01*
Y155214D02*
Y155265D01*
X421921Y164016D02*
X425223Y160713D01*
X425254D01*
X417984Y164289D02*
X419896Y162377D01*
X417984Y164289D02*
Y164604D01*
X419896Y162377D02*
X419896D01*
X417489Y165099D02*
X417984Y164604D01*
X417489Y165099D02*
Y165463D01*
X425858Y164058D02*
Y164604D01*
X425184Y165277D02*
X425858Y164604D01*
X421921Y164016D02*
Y164604D01*
X425184Y165463D02*
Y165641D01*
X421247Y165463D02*
Y165641D01*
Y165277D02*
Y165463D01*
Y165277D02*
X421921Y164604D01*
X417310Y165641D02*
X417489Y165463D01*
X413374Y165641D02*
X413552Y165463D01*
X504283Y4090D02*
Y4129D01*
X511484Y4803D02*
X512157Y4129D01*
X508220Y3943D02*
Y4129D01*
X507547Y4803D02*
Y5117D01*
X512157Y3765D02*
Y4129D01*
X511484Y4803D02*
Y5117D01*
X507547Y4803D02*
X508220Y4129D01*
X516094Y3765D02*
Y4129D01*
X515421Y4803D02*
Y5117D01*
Y4803D02*
X516094Y4129D01*
X508684Y165463D02*
Y165641D01*
Y165277D02*
Y165463D01*
X504747D02*
Y165641D01*
Y165277D02*
Y165463D01*
Y165277D02*
X505421Y164604D01*
Y164289D02*
Y164604D01*
X500810Y165277D02*
Y165641D01*
Y165277D02*
X501484Y164604D01*
Y164289D02*
Y164604D01*
X496874Y165277D02*
Y165641D01*
Y165277D02*
X497547Y164604D01*
X590360Y87050D02*
X597727Y79682D01*
X598234D01*
X429121Y165277D02*
X429795Y164604D01*
X429121Y165277D02*
Y165641D01*
X596552Y84521D02*
X603395D01*
X608234Y79682D01*
X591909Y64521D02*
X603395D01*
X594582Y74521D02*
X603395D01*
X592546Y68822D02*
X597373D01*
X598234Y69683D01*
X508220Y3765D02*
Y3943D01*
X603395Y74521D02*
X608234Y69683D01*
X603395Y64521D02*
X608234Y59683D01*
X250190Y109484D02*
X251362Y108312D01*
X250190Y128769D02*
Y109484D01*
X276734Y108312D02*
X280789Y104257D01*
X251362Y108312D02*
X276734D01*
X280789Y104257D02*
X280920D01*
X270180Y118367D02*
X287734Y100812D01*
X259680Y118367D02*
X270180D01*
X254734Y123312D02*
X259680Y118367D01*
X287734Y90887D02*
X294015Y84606D01*
X287734Y100812D02*
Y90887D01*
X284072Y101105D02*
X285234Y99943D01*
Y90141D01*
X295234Y80141D01*
X284072Y101105D02*
Y101105D01*
X280920Y104257D02*
X284072Y101105D01*
X295234Y80141D02*
Y79812D01*
X294015Y84606D02*
X300440D01*
X305234Y79812D01*
X282690Y75269D02*
X307116D01*
X282690D02*
X277234Y69812D01*
X271234D02*
X278234D01*
X271094Y122452D02*
X292873Y100673D01*
X265594Y122452D02*
X271094D01*
X292873Y100673D02*
X294373D01*
X264734Y123312D02*
X265594Y122452D01*
X307159Y75312D02*
X309777D01*
X307159D02*
X307116Y75269D01*
X310949Y69812D02*
X312734D01*
X264734Y76312D02*
X271234Y69812D01*
X309777Y70984D02*
X310949Y69812D01*
X292777Y105269D02*
X299777D01*
X264734Y133312D02*
Y133312D01*
X292777Y105269D01*
X296277Y135269D02*
X300234Y131312D01*
X267368Y151894D02*
X276727D01*
X300234Y131312D02*
Y124812D01*
X293352Y135269D02*
X296277D01*
X300234Y124812D02*
X305234Y119812D01*
X276727Y151894D02*
X293352Y135269D01*
X294373Y100673D02*
X295234Y99812D01*
X273198Y142848D02*
X295234Y120812D01*
X265198Y142848D02*
X273198D01*
X295234Y120812D02*
Y119812D01*
X265950Y153312D02*
X267368Y151894D01*
X264734Y153312D02*
X265950D01*
X260190Y21769D02*
X266690D01*
X273234Y28312D02*
X290308D01*
X273234D02*
X266690Y21769D01*
X290308Y28312D02*
X293352Y25269D01*
X259277Y30856D02*
X291814D01*
X259277D02*
X254734Y26312D01*
X291997Y30673D02*
X294373D01*
X291814Y30856D02*
X291997Y30673D01*
X294373D02*
X295234Y29812D01*
X301659D02*
X305234D01*
X293352Y25269D02*
X297116D01*
X301659Y29812D02*
X297116Y25269D01*
X260190Y21769D02*
X254734Y16312D01*
X273659Y62312D02*
X291308D01*
X271234Y59887D02*
Y52812D01*
X273659Y62312D02*
X271234Y59887D01*
X293352Y64356D02*
X291308Y62312D01*
X273734Y45312D02*
X264734Y36312D01*
X273734Y58641D02*
Y45312D01*
X274905Y59812D02*
X273734Y58641D01*
X274905Y59812D02*
X295234D01*
X264734Y143312D02*
X265198Y142848D01*
X293352Y64356D02*
X300690D01*
X305234Y59812D01*
X271234Y52812D02*
X264734Y46312D01*
X254734Y133312D02*
X250190Y128769D01*
X299777Y105269D02*
X305234Y99812D01*
X18797Y534475D02*
X149439D01*
X185512Y498402D01*
X9382Y594491D02*
X9906D01*
X14890Y599475D02*
X9906Y594491D01*
X84102Y608975D02*
X105102D01*
X134189Y638061D02*
X105102Y608975D01*
X74602Y602975D02*
X103102D01*
X135102Y634975D02*
X103102Y602975D01*
X155439Y554475D02*
X201012Y508902D01*
X154102Y559475D02*
X203602Y509975D01*
X14366Y559475D02*
X154102D01*
X19398Y554475D02*
X155439D01*
X201012Y508902D02*
Y346902D01*
X203602Y509975D02*
Y347975D01*
X14221Y549329D02*
X156921D01*
X198421Y507829D02*
Y345829D01*
X19398Y544475D02*
X158112D01*
X156921Y549329D02*
X198421Y507829D01*
X195602Y506984D02*
Y344984D01*
X158112Y544475D02*
X195602Y506984D01*
X148102Y539475D02*
X188102Y499475D01*
Y433146D01*
X185512Y498402D02*
Y434402D01*
X14366Y529475D02*
X150775D01*
X182921Y497329D01*
X19398Y524475D02*
X152112D01*
X180331Y496256D02*
Y437095D01*
X152112Y524475D02*
X180331Y496256D01*
X182921Y497329D02*
Y435749D01*
X12660Y539475D02*
X148102D01*
X180447Y597656D02*
X412249D01*
X179374Y600246D02*
X158780Y579652D01*
X179374Y600246D02*
X413322D01*
X181520Y595065D02*
X411175D01*
X182593Y592475D02*
X154609Y564491D01*
X19575Y575250D02*
X158042D01*
X181520Y595065D02*
X156107Y569652D01*
X180447Y597656D02*
X158042Y575250D01*
X182593Y592475D02*
X410102D01*
X15618Y569652D02*
X156107D01*
X15554Y579652D02*
X158780D01*
X18943Y564491D02*
X154609D01*
X19575Y575250D02*
X18815Y574491D01*
X9382Y564491D02*
X10456D01*
X15554Y579652D02*
X10392Y574491D01*
X15618Y569652D02*
X10456Y564491D01*
X9382Y574491D02*
X10392D01*
X413322Y600246D02*
X518602Y494966D01*
X167956Y610156D02*
X153051Y595250D01*
X19382Y584491D02*
X149618D01*
X166883Y612746D02*
X327374D01*
X14890Y599475D02*
X153612D01*
X166883Y612746D02*
X153612Y599475D01*
X167956Y610156D02*
X328447D01*
X169029Y607565D02*
X150793Y589329D01*
X18127Y595250D02*
X153051D01*
X14221Y589329D02*
X150793D01*
X170102Y604975D02*
X149618Y584491D01*
X18127Y595250D02*
X17367Y594491D01*
X170102Y604975D02*
X330593D01*
X169029Y607565D02*
X329520D01*
X69602Y499475D02*
Y483475D01*
X87602Y465475D02*
X132102D01*
X69602Y483475D02*
X87602Y465475D01*
X80102Y499142D02*
Y482975D01*
X95012Y468065D02*
X133176D01*
X80102Y482975D02*
X95012Y468065D01*
X100421Y470656D02*
X134248D01*
X90602Y480475D02*
X100421Y470656D01*
X90602Y498808D02*
Y480475D01*
X101102Y478475D02*
X106331Y473246D01*
X101102Y498475D02*
Y478475D01*
X106331Y473246D02*
X135331D01*
X74102Y503975D02*
X69602Y499475D01*
X84936Y503975D02*
X80102Y499142D01*
X95769Y503975D02*
X90602Y498808D01*
X106602Y503975D02*
X101102Y498475D01*
X157602Y448475D02*
Y294975D01*
Y450975D02*
Y448475D01*
X154461Y450444D02*
Y444475D01*
X149102Y448475D02*
Y436475D01*
X151693Y449548D02*
Y443462D01*
X134248Y470656D02*
X154461Y450444D01*
X133176Y468065D02*
X151693Y449548D01*
X132102Y465475D02*
X149102Y448475D01*
X135331Y473246D02*
X157602Y450975D01*
X149102Y436475D02*
Y291975D01*
X154461Y444475D02*
Y441633D01*
X151693Y443462D02*
X151807Y443348D01*
Y440507D01*
X346742Y265016D02*
Y248146D01*
X354616Y265016D02*
Y248693D01*
X347717Y241794D01*
X268883Y271703D02*
X359883D01*
X530104Y444446D02*
X539737D01*
X530140Y448683D02*
X540311D01*
X543602Y451975D02*
X540311Y448683D01*
X546421Y451130D02*
X539737Y444446D01*
X530061Y440552D02*
X539506D01*
X549276Y450321D02*
X539506Y440552D01*
X527215Y452363D02*
X530061D01*
X350679Y248420D02*
X346644Y244384D01*
X350679Y265016D02*
Y248420D01*
X358553Y265016D02*
Y248967D01*
X348790Y239203D01*
X201874D02*
X348790D01*
X203456Y241794D02*
X347717D01*
X359883Y271703D02*
X362233Y269354D01*
Y265274D01*
X362490Y265016D01*
X14221Y589329D02*
X9382Y584491D01*
X98847Y621475D02*
X111102D01*
X129122Y643495D02*
X113102Y627475D01*
X109102D02*
X113102D01*
X130449Y640821D02*
X111102Y621475D01*
X129122Y643495D02*
X358083D01*
X130449Y640821D02*
X354449D01*
X135102Y634975D02*
X346602D01*
X134189Y638061D02*
X350516D01*
X19382Y554491D02*
X19398Y554475D01*
X176181Y421540D02*
X175483Y420842D01*
X182921Y435749D02*
X176496Y429323D01*
X176181Y421540D02*
X176496D01*
X176181Y429323D02*
X175483Y428625D01*
X188102Y433146D02*
X176496Y421540D01*
X176181Y429323D02*
X176496D01*
X14366Y529475D02*
X9382Y524491D01*
Y535707D02*
Y534491D01*
X12660Y538985D02*
X9382Y535707D01*
X12660Y539475D02*
Y538985D01*
X14221Y549329D02*
X9382Y544491D01*
X14366Y559475D02*
X9382Y554491D01*
X19382Y524491D02*
X19398Y524475D01*
X19382Y544491D02*
X19398Y544475D01*
X412249Y597656D02*
X516012Y493893D01*
X338520Y619934D02*
Y616565D01*
X151807Y440507D02*
X151839Y440475D01*
X157602Y294975D02*
X205602Y246975D01*
X154512Y441582D02*
Y294402D01*
X204529Y244384D01*
X154461Y441633D02*
X154512Y441582D01*
X151839Y293411D02*
X203456Y241794D01*
X151839Y440475D02*
Y293411D01*
X149102Y291975D02*
X201874Y239203D01*
X346602Y634975D02*
X389612D01*
X390275Y637975D02*
X546421Y481829D01*
X350516Y638061D02*
X350561D01*
X350647Y637975D01*
X390275D01*
X389612Y634975D02*
X543602Y480984D01*
X346742Y248146D02*
X345571Y246975D01*
X205602D02*
X345571D01*
X204529Y244384D02*
X346644D01*
X530061Y436615D02*
X539233D01*
X552102Y449484D02*
X539233Y436615D01*
X552102Y483475D02*
Y449484D01*
X392102Y643475D02*
X552102Y483475D01*
X358102Y643475D02*
X392102D01*
X358083Y643495D02*
X358102Y643475D01*
X549276Y482638D02*
Y450321D01*
X391112Y640802D02*
X549276Y482638D01*
X354469Y640802D02*
X391112D01*
X354449Y640821D02*
X354469Y640802D01*
X546421Y481829D02*
Y451130D01*
X543602Y480984D02*
Y451975D01*
X342715Y619934D02*
X342457Y619676D01*
Y616839D01*
X334931Y619934D02*
X334674Y619676D01*
Y616382D01*
X271029Y276884D02*
X362029D01*
X198421Y345829D02*
X269956Y274294D01*
X201012Y346902D02*
X271029Y276884D01*
X203602Y347975D02*
X272102Y279475D01*
X363102D01*
X195602Y344984D02*
X268883Y271703D01*
X269956Y274294D02*
X360956D01*
X176091Y425386D02*
X175508Y424803D01*
X176091Y425386D02*
X176496D01*
X185512Y434402D02*
X176496Y425386D01*
X175144Y424803D02*
X175508D01*
X180331Y437095D02*
X176496Y433260D01*
X362029Y276884D02*
X370016Y268898D01*
X360956Y274294D02*
X365754Y269496D01*
X363102Y279475D02*
X374211Y268367D01*
Y265016D01*
X370016Y268898D02*
Y265274D01*
X365754Y269496D02*
Y266054D01*
X370016Y265274D02*
X370274Y265016D01*
X516012Y470893D02*
X526501Y460404D01*
X518602Y471966D02*
X526485Y464083D01*
X510831Y491747D02*
Y468747D01*
X527215Y452363D01*
X513421Y469819D02*
X526684Y456557D01*
X513421Y492819D02*
Y469819D01*
X518602Y494966D02*
Y471966D01*
X410102Y592475D02*
X510831Y491747D01*
X411175Y595065D02*
X513421Y492819D01*
X516012Y493893D02*
Y470893D01*
X526485Y464083D02*
X530061D01*
X526501Y460404D02*
X529804D01*
Y456557D02*
X529886Y456475D01*
X526684Y456557D02*
X529804D01*
Y460404D02*
X530061Y460146D01*
X330994Y616366D02*
X327374Y612746D01*
X342457Y616839D02*
X330593Y604975D01*
X338520Y616565D02*
X329520Y607565D01*
X334674Y616382D02*
X328447Y610156D01*
X330994Y619934D02*
Y616366D01*
X175144Y432587D02*
X175508D01*
X176181Y433260D02*
X175508Y432587D01*
X176181Y433260D02*
X176496D01*
D22*
X375234Y42182D02*
X411234D01*
X420896Y51845D01*
Y58006D02*
Y58641D01*
Y51845D02*
Y58006D01*
X475210Y413036D02*
X476596D01*
X366163Y620200D02*
X366337Y620027D01*
Y619934D01*
X342805Y265016D02*
Y264922D01*
X338868Y265016D02*
X338802Y264950D01*
X334931Y265016D02*
X334998Y264950D01*
X530234Y424977D02*
X530061Y424804D01*
X530234Y428914D02*
X530061Y428741D01*
X370100Y620107D02*
X370274Y619934D01*
X229967Y471980D02*
X230061D01*
X229794Y472153D02*
X229967Y471980D01*
X323164Y319867D02*
Y318481D01*
D23*
X312734Y142312D02*
Y75312D01*
Y71694D01*
Y70984D02*
Y69812D01*
Y71694D02*
Y70984D01*
X254829Y90218D02*
X264639Y80407D01*
Y76407D02*
X264734Y76312D01*
X254734Y93312D02*
X254829Y93217D01*
Y90218D01*
X264639Y80407D02*
Y76407D01*
D28*
X246000Y10917D02*
D03*
Y7571D02*
D03*
Y4224D02*
D03*
Y878D02*
D03*
Y168201D02*
D03*
Y164854D02*
D03*
Y161508D02*
D03*
Y158161D02*
D03*
Y154815D02*
D03*
Y151469D02*
D03*
Y148122D02*
D03*
Y144776D02*
D03*
Y141429D02*
D03*
Y138083D02*
D03*
Y134736D02*
D03*
D03*
D03*
Y131390D02*
D03*
Y128043D02*
D03*
Y74500D02*
D03*
Y77846D02*
D03*
Y81193D02*
D03*
Y84539D02*
D03*
Y87886D02*
D03*
Y91232D02*
D03*
Y94579D02*
D03*
Y97925D02*
D03*
Y101272D02*
D03*
Y104618D02*
D03*
Y107965D02*
D03*
Y111311D02*
D03*
Y114657D02*
D03*
Y118004D02*
D03*
Y121350D02*
D03*
Y124697D02*
D03*
Y30996D02*
D03*
Y27650D02*
D03*
Y24303D02*
D03*
Y20957D02*
D03*
Y17610D02*
D03*
Y14264D02*
D03*
Y10917D02*
D03*
Y34343D02*
D03*
Y37689D02*
D03*
Y41035D02*
D03*
D03*
D03*
Y44382D02*
D03*
Y47728D02*
D03*
Y51075D02*
D03*
Y54421D02*
D03*
Y57768D02*
D03*
Y61114D02*
D03*
Y64461D02*
D03*
Y67807D02*
D03*
Y71153D02*
D03*
Y74500D02*
D03*
D29*
X515988Y184734D02*
D03*
X450188D02*
D03*
X412588D02*
D03*
X544188D02*
D03*
X506588D02*
D03*
X478388D02*
D03*
X544188Y175334D02*
D03*
X403188Y184734D02*
D03*
X440788D02*
D03*
X431388D02*
D03*
X421988D02*
D03*
X468988D02*
D03*
X459588D02*
D03*
X497188D02*
D03*
X487788D02*
D03*
X534788D02*
D03*
X525388D02*
D03*
X403188Y175334D02*
D03*
D30*
X86241Y166513D02*
D03*
Y162576D02*
D03*
Y158593D02*
D03*
Y154656D02*
D03*
Y150719D02*
D03*
Y146782D02*
D03*
Y138908D02*
D03*
Y142845D02*
D03*
Y103566D02*
D03*
Y107503D02*
D03*
Y111440D02*
D03*
Y115377D02*
D03*
Y119314D02*
D03*
Y123251D02*
D03*
Y127188D02*
D03*
Y131125D02*
D03*
Y135062D02*
D03*
X141158Y150742D02*
D03*
Y154679D02*
D03*
Y115400D02*
D03*
Y119336D02*
D03*
Y123274D02*
D03*
Y127210D02*
D03*
Y131148D02*
D03*
Y135084D02*
D03*
Y139022D02*
D03*
Y142959D02*
D03*
Y146896D02*
D03*
X4588Y166403D02*
D03*
Y162467D02*
D03*
Y158484D02*
D03*
Y154547D02*
D03*
Y150610D02*
D03*
Y146673D02*
D03*
Y138799D02*
D03*
Y142736D02*
D03*
Y103457D02*
D03*
Y107394D02*
D03*
Y111331D02*
D03*
Y115268D02*
D03*
Y119205D02*
D03*
Y123142D02*
D03*
Y127079D02*
D03*
Y131016D02*
D03*
Y134953D02*
D03*
X59505Y150633D02*
D03*
Y154570D02*
D03*
Y115290D02*
D03*
Y119227D02*
D03*
Y123164D02*
D03*
Y127101D02*
D03*
Y131038D02*
D03*
Y134975D02*
D03*
Y138912D02*
D03*
Y142849D02*
D03*
Y146786D02*
D03*
X3964Y69485D02*
D03*
Y65548D02*
D03*
Y61566D02*
D03*
Y57628D02*
D03*
Y53691D02*
D03*
Y49754D02*
D03*
Y41880D02*
D03*
Y45817D02*
D03*
Y6538D02*
D03*
Y10475D02*
D03*
Y14412D02*
D03*
Y18349D02*
D03*
Y22286D02*
D03*
Y26223D02*
D03*
Y30160D02*
D03*
Y34097D02*
D03*
Y38034D02*
D03*
X58881Y53714D02*
D03*
Y57651D02*
D03*
Y18372D02*
D03*
Y22309D02*
D03*
Y26246D02*
D03*
Y30183D02*
D03*
Y34120D02*
D03*
Y38057D02*
D03*
Y41994D02*
D03*
Y45931D02*
D03*
Y49868D02*
D03*
X452676Y110724D02*
D03*
X448739D02*
D03*
X444756D02*
D03*
X440819D02*
D03*
X436882D02*
D03*
X432945D02*
D03*
X425071D02*
D03*
X429008D02*
D03*
X389729D02*
D03*
X393666D02*
D03*
X397603D02*
D03*
X401540D02*
D03*
X405477D02*
D03*
X409414D02*
D03*
X413351D02*
D03*
X417288D02*
D03*
X421225D02*
D03*
X436905Y165641D02*
D03*
X440842D02*
D03*
X401562D02*
D03*
X405500D02*
D03*
X409437D02*
D03*
X413374D02*
D03*
X417310D02*
D03*
X421247D02*
D03*
X425184D02*
D03*
X429121D02*
D03*
X433059D02*
D03*
X496409Y3765D02*
D03*
X500346D02*
D03*
X504283D02*
D03*
X508220D02*
D03*
X512157D02*
D03*
X516094D02*
D03*
X520031D02*
D03*
X523968D02*
D03*
X527905D02*
D03*
X488625D02*
D03*
X492562D02*
D03*
X508243Y58683D02*
D03*
X512180D02*
D03*
X516117D02*
D03*
X520054D02*
D03*
X523991D02*
D03*
X527928D02*
D03*
X531865D02*
D03*
X535802D02*
D03*
X539739D02*
D03*
X500459D02*
D03*
X504396D02*
D03*
X496522D02*
D03*
X492585D02*
D03*
X488648D02*
D03*
X484711D02*
D03*
X480729D02*
D03*
X476792D02*
D03*
X536176Y110724D02*
D03*
X532239D02*
D03*
X528256D02*
D03*
X524319D02*
D03*
X520382D02*
D03*
X516445D02*
D03*
X508571D02*
D03*
X512508D02*
D03*
X473229D02*
D03*
X477166D02*
D03*
X481103D02*
D03*
X485040D02*
D03*
X488977D02*
D03*
X492914D02*
D03*
X496851D02*
D03*
X500788D02*
D03*
X504725D02*
D03*
X520405Y165641D02*
D03*
X524342D02*
D03*
X485063D02*
D03*
X489000D02*
D03*
X492937D02*
D03*
X496874D02*
D03*
X500810D02*
D03*
X504747D02*
D03*
X508684D02*
D03*
X512621D02*
D03*
X516559D02*
D03*
X412909Y3724D02*
D03*
X416846D02*
D03*
X420783D02*
D03*
X424720D02*
D03*
X428657D02*
D03*
X432594D02*
D03*
X436531D02*
D03*
X440468D02*
D03*
X444405D02*
D03*
X405125D02*
D03*
X409062D02*
D03*
X424743Y58641D02*
D03*
X428680D02*
D03*
X432617D02*
D03*
X436554D02*
D03*
X440491D02*
D03*
X444428D02*
D03*
X448365D02*
D03*
X452302D02*
D03*
X456239D02*
D03*
X416959D02*
D03*
X420896D02*
D03*
X413022D02*
D03*
X409085D02*
D03*
X405148D02*
D03*
X401211D02*
D03*
X397229D02*
D03*
X393292D02*
D03*
X319161Y565016D02*
D03*
X323097D02*
D03*
X327080D02*
D03*
X331017D02*
D03*
X334954D02*
D03*
X338891D02*
D03*
X346765D02*
D03*
X342828D02*
D03*
X382107D02*
D03*
X378170D02*
D03*
X374233D02*
D03*
X370296D02*
D03*
X366359D02*
D03*
X362422D02*
D03*
X358485D02*
D03*
X354548D02*
D03*
X350611D02*
D03*
X334931Y619934D02*
D03*
X330994D02*
D03*
X370274D02*
D03*
X366337D02*
D03*
X362400D02*
D03*
X358463D02*
D03*
X354526D02*
D03*
X350589D02*
D03*
X346652D02*
D03*
X342715D02*
D03*
X338778D02*
D03*
X175144Y428650D02*
D03*
Y432587D02*
D03*
Y436524D02*
D03*
Y440461D02*
D03*
Y444398D02*
D03*
Y448335D02*
D03*
Y452272D02*
D03*
Y456209D02*
D03*
Y460146D02*
D03*
Y420866D02*
D03*
Y424803D02*
D03*
X230061Y440484D02*
D03*
Y444421D02*
D03*
Y448358D02*
D03*
Y452295D02*
D03*
Y456232D02*
D03*
Y460169D02*
D03*
Y464106D02*
D03*
Y468043D02*
D03*
Y471980D02*
D03*
Y432700D02*
D03*
Y436637D02*
D03*
Y428763D02*
D03*
Y424826D02*
D03*
Y420889D02*
D03*
Y416952D02*
D03*
Y412970D02*
D03*
Y409033D02*
D03*
X475144Y475917D02*
D03*
Y471980D02*
D03*
Y467998D02*
D03*
Y464060D02*
D03*
Y460123D02*
D03*
Y456186D02*
D03*
Y448312D02*
D03*
Y452249D02*
D03*
Y412970D02*
D03*
Y416907D02*
D03*
Y420844D02*
D03*
Y424781D02*
D03*
Y428718D02*
D03*
Y432655D02*
D03*
Y436592D02*
D03*
Y440529D02*
D03*
Y444466D02*
D03*
X530061Y460146D02*
D03*
Y464083D02*
D03*
Y424804D02*
D03*
Y428741D02*
D03*
Y432678D02*
D03*
Y436615D02*
D03*
Y440552D02*
D03*
Y444489D02*
D03*
Y448426D02*
D03*
Y452363D02*
D03*
Y456300D02*
D03*
X366427Y265016D02*
D03*
X362490D02*
D03*
X358553D02*
D03*
X354616D02*
D03*
X350679D02*
D03*
X346742D02*
D03*
X342805D02*
D03*
X338868D02*
D03*
X334931D02*
D03*
X374211D02*
D03*
X370274D02*
D03*
X354594Y319934D02*
D03*
X350657D02*
D03*
X346720D02*
D03*
X342783D02*
D03*
X338846D02*
D03*
X334909D02*
D03*
X330972D02*
D03*
X327034D02*
D03*
X323097D02*
D03*
X362377D02*
D03*
X358440D02*
D03*
X366314D02*
D03*
X370251D02*
D03*
X374188D02*
D03*
X378125D02*
D03*
X382107D02*
D03*
X386044D02*
D03*
X86033Y69737D02*
D03*
Y65800D02*
D03*
Y61818D02*
D03*
Y57881D02*
D03*
Y53944D02*
D03*
Y50007D02*
D03*
Y42133D02*
D03*
Y46070D02*
D03*
Y6790D02*
D03*
Y10727D02*
D03*
Y14664D02*
D03*
Y18601D02*
D03*
Y22538D02*
D03*
Y26475D02*
D03*
Y30412D02*
D03*
Y34349D02*
D03*
Y38286D02*
D03*
X140950Y53966D02*
D03*
Y57903D02*
D03*
Y18624D02*
D03*
Y22561D02*
D03*
Y26498D02*
D03*
Y30435D02*
D03*
Y34372D02*
D03*
Y38309D02*
D03*
Y42246D02*
D03*
Y46183D02*
D03*
Y50120D02*
D03*
D31*
X86241Y99629D02*
D03*
X141158Y111462D02*
D03*
X4588Y99520D02*
D03*
X59505Y111353D02*
D03*
X3964Y2601D02*
D03*
X58881Y14435D02*
D03*
X175144Y464083D02*
D03*
X230061Y475917D02*
D03*
X475144Y409033D02*
D03*
X530061Y420867D02*
D03*
X86033Y2853D02*
D03*
X140950Y14687D02*
D03*
D32*
X105241Y155078D02*
D03*
X109241Y162578D02*
D03*
X123241Y113078D02*
D03*
X116044Y150381D02*
D03*
X105098Y113318D02*
D03*
X96741Y99235D02*
D03*
X111886Y104723D02*
D03*
X107272Y101047D02*
D03*
X121741Y109578D02*
D03*
X127741Y122078D02*
D03*
X123217Y144243D02*
D03*
X23588Y154968D02*
D03*
X27588Y162468D02*
D03*
X41588Y112968D02*
D03*
X34391Y150272D02*
D03*
X23446Y113209D02*
D03*
X15088Y99126D02*
D03*
X30234Y104614D02*
D03*
X25619Y100937D02*
D03*
X40088Y109468D02*
D03*
X46088Y121968D02*
D03*
X41564Y144133D02*
D03*
X22964Y58050D02*
D03*
X26964Y65550D02*
D03*
X40964Y16050D02*
D03*
X33767Y53353D02*
D03*
X22822Y16290D02*
D03*
X14464Y2207D02*
D03*
X29610Y7695D02*
D03*
X24995Y4019D02*
D03*
X39464Y12550D02*
D03*
X45464Y25050D02*
D03*
X40940Y47215D02*
D03*
X569234Y118683D02*
D03*
X564915Y106226D02*
D03*
X553734Y79682D02*
D03*
X559324Y93273D02*
D03*
X520031Y47885D02*
D03*
X523968Y41948D02*
D03*
X527905Y35511D02*
D03*
X532126Y29574D02*
D03*
X558734Y151682D02*
D03*
X564234Y145683D02*
D03*
X561310Y148606D02*
D03*
X555009Y154188D02*
D03*
X409734Y148182D02*
D03*
X420734Y142527D02*
D03*
X431234Y136894D02*
D03*
X442234Y131183D02*
D03*
X481007Y148409D02*
D03*
X489005Y137001D02*
D03*
X485236Y142684D02*
D03*
X493110Y131307D02*
D03*
X435734Y14683D02*
D03*
X440234Y17183D02*
D03*
X431234Y12183D02*
D03*
X426188Y9651D02*
D03*
X417234Y160682D02*
D03*
X424147Y158040D02*
D03*
X437624Y152521D02*
D03*
X430702Y155214D02*
D03*
X118102Y349975D02*
D03*
X130102Y329975D02*
D03*
X141102Y310475D02*
D03*
X84102Y608975D02*
D03*
X74602Y602975D02*
D03*
X138102Y452272D02*
D03*
X133102Y455975D02*
D03*
X121602Y459975D02*
D03*
X335102Y211975D02*
D03*
X339102Y222475D02*
D03*
X342602Y233975D02*
D03*
X583463Y424979D02*
D03*
X572308Y428335D02*
D03*
X561102Y432475D02*
D03*
X366102Y661475D02*
D03*
X366193Y657975D02*
D03*
X370104Y669475D02*
D03*
X362644Y648389D02*
D03*
X362602Y651475D02*
D03*
X189602Y648975D02*
D03*
X180602Y670475D02*
D03*
X185102Y659475D02*
D03*
X136921Y650794D02*
D03*
X138113Y671971D02*
D03*
X137602Y661475D02*
D03*
X141305Y452272D02*
D03*
X118602Y459975D02*
D03*
X354449Y640821D02*
D03*
X98847Y621475D02*
D03*
X109102Y627475D02*
D03*
X154461Y444475D02*
D03*
X157602Y448475D02*
D03*
X151839Y440475D02*
D03*
X149102Y436475D02*
D03*
X129602Y455975D02*
D03*
X346602Y634975D02*
D03*
X350516Y638061D02*
D03*
X358102Y643475D02*
D03*
X342619Y231137D02*
D03*
X586102Y424975D02*
D03*
X575102Y428975D02*
D03*
X334890Y208763D02*
D03*
X339102Y219975D02*
D03*
X135102Y661384D02*
D03*
X134421Y650794D02*
D03*
X135102Y671975D02*
D03*
X183148D02*
D03*
X187535Y661384D02*
D03*
X191921Y650794D02*
D03*
X564102Y432475D02*
D03*
X370102Y672475D02*
D03*
X105033Y58302D02*
D03*
X109033Y65802D02*
D03*
X123033Y16302D02*
D03*
X115836Y53605D02*
D03*
X104891Y16542D02*
D03*
X96533Y2459D02*
D03*
X111678Y7948D02*
D03*
X107064Y4271D02*
D03*
X121533Y12802D02*
D03*
X127533Y25302D02*
D03*
X123009Y47467D02*
D03*
D33*
X96241Y117078D02*
D03*
X127741Y118078D02*
D03*
X14588Y116968D02*
D03*
X46088Y117968D02*
D03*
X13964Y20050D02*
D03*
X45464Y21050D02*
D03*
X174766Y2688D02*
D03*
Y5688D02*
D03*
X215766Y130188D02*
D03*
X220766Y142688D02*
D03*
X221266Y135688D02*
D03*
X212766Y53188D02*
D03*
X214266Y57688D02*
D03*
X180266Y105707D02*
D03*
X225266Y28688D02*
D03*
X223266Y30688D02*
D03*
X220266Y32188D02*
D03*
X218050Y33971D02*
D03*
X228766Y51688D02*
D03*
X230266Y47688D02*
D03*
X216266Y135688D02*
D03*
X96033Y20302D02*
D03*
X127533Y21302D02*
D03*
D34*
X385792Y110724D02*
D03*
X397625Y165641D02*
D03*
X531842Y3765D02*
D03*
X543676Y58683D02*
D03*
X469292Y110724D02*
D03*
X481125Y165641D02*
D03*
X448342Y3724D02*
D03*
X460176Y58641D02*
D03*
X386044Y565016D02*
D03*
X374211Y619934D02*
D03*
X330994Y265016D02*
D03*
X319161Y319934D02*
D03*
D35*
X375234Y128182D02*
D03*
Y52183D02*
D03*
X401602Y580975D02*
D03*
X412602Y560975D02*
D03*
D36*
X375234Y118183D02*
D03*
Y42182D02*
D03*
X401602Y570975D02*
D03*
X412602D02*
D03*
D37*
X598234Y39682D02*
D03*
X608234D02*
D03*
X598234Y49683D02*
D03*
X608234D02*
D03*
X598234Y69683D02*
D03*
X608234D02*
D03*
X598234Y89683D02*
D03*
X608234D02*
D03*
X598234Y119683D02*
D03*
X608234D02*
D03*
X598234Y129683D02*
D03*
X608234D02*
D03*
X598234Y149682D02*
D03*
X608234Y139682D02*
D03*
X598234D02*
D03*
X608234Y109683D02*
D03*
X598234D02*
D03*
X608234Y99682D02*
D03*
X598234D02*
D03*
X608234Y79682D02*
D03*
X598234D02*
D03*
X608234Y59683D02*
D03*
X598234D02*
D03*
X608234Y29682D02*
D03*
Y19682D02*
D03*
X598234Y29682D02*
D03*
Y19682D02*
D03*
X254734Y76312D02*
D03*
Y66312D02*
D03*
X264734Y76312D02*
D03*
Y66312D02*
D03*
X254734Y36312D02*
D03*
X264734D02*
D03*
X254734Y26312D02*
D03*
X264734D02*
D03*
X254734Y6312D02*
D03*
X264734Y16312D02*
D03*
X254734D02*
D03*
X264734Y46312D02*
D03*
X254734D02*
D03*
X264734Y56312D02*
D03*
X254734D02*
D03*
X305234Y39812D02*
D03*
X295234D02*
D03*
X305234Y49812D02*
D03*
X295234D02*
D03*
X305234Y69812D02*
D03*
X295234D02*
D03*
X305234Y89812D02*
D03*
X295234D02*
D03*
X305234Y119812D02*
D03*
X295234D02*
D03*
X305234Y129812D02*
D03*
X295234D02*
D03*
X305234Y149812D02*
D03*
X295234Y139812D02*
D03*
X305234D02*
D03*
X295234Y109812D02*
D03*
X305234D02*
D03*
X295234Y99812D02*
D03*
X305234D02*
D03*
X295234Y79812D02*
D03*
X305234D02*
D03*
X295234Y59812D02*
D03*
X305234D02*
D03*
X295234Y29812D02*
D03*
Y19812D02*
D03*
X305234Y29812D02*
D03*
Y19812D02*
D03*
X264734Y113312D02*
D03*
X254734D02*
D03*
X264734Y123312D02*
D03*
X254734D02*
D03*
X264734Y153312D02*
D03*
X254734D02*
D03*
X264734Y163312D02*
D03*
X254734Y143312D02*
D03*
X264734D02*
D03*
X254734Y133312D02*
D03*
X264734D02*
D03*
X254734Y103312D02*
D03*
Y93312D02*
D03*
X264734Y103312D02*
D03*
Y93312D02*
D03*
X175766Y129688D02*
D03*
X185766D02*
D03*
X175766Y119688D02*
D03*
X185766D02*
D03*
X175766Y99688D02*
D03*
X185766D02*
D03*
X175766Y79688D02*
D03*
X185766D02*
D03*
X175766Y49688D02*
D03*
X185766D02*
D03*
X175766Y39688D02*
D03*
X185766D02*
D03*
X175766Y19688D02*
D03*
X185766Y29688D02*
D03*
X175766D02*
D03*
X185766Y59688D02*
D03*
X175766D02*
D03*
X185766Y69688D02*
D03*
X175766D02*
D03*
X185766Y89688D02*
D03*
X175766D02*
D03*
X185766Y109688D02*
D03*
X175766D02*
D03*
X185766Y139688D02*
D03*
Y149688D02*
D03*
X175766Y139688D02*
D03*
Y149688D02*
D03*
X19382Y524491D02*
D03*
X9382D02*
D03*
X19382Y534491D02*
D03*
X9382D02*
D03*
X19382Y554491D02*
D03*
X9382D02*
D03*
X19382Y574491D02*
D03*
X9382D02*
D03*
X19382Y604491D02*
D03*
X9382D02*
D03*
X19382Y614491D02*
D03*
X9382D02*
D03*
X19382Y634491D02*
D03*
X9382Y624491D02*
D03*
X19382D02*
D03*
X9382Y594491D02*
D03*
X19382D02*
D03*
X9382Y584491D02*
D03*
X19382D02*
D03*
X9382Y564491D02*
D03*
X19382D02*
D03*
X9382Y544491D02*
D03*
X19382D02*
D03*
X9382Y514491D02*
D03*
Y504491D02*
D03*
X19382Y514491D02*
D03*
Y504491D02*
D03*
D38*
X608234Y149682D02*
D03*
X264734Y6312D02*
D03*
X295234Y149812D02*
D03*
X254734Y163312D02*
D03*
X185766Y19688D02*
D03*
X9382Y634491D02*
D03*
D39*
X547234Y73432D02*
D03*
Y88433D02*
D03*
D40*
X578730Y84683D02*
D03*
X350738D02*
D03*
D41*
X537234Y73432D02*
D03*
X527234D02*
D03*
X517234D02*
D03*
X507234D02*
D03*
X497234D02*
D03*
X487234D02*
D03*
X477234D02*
D03*
X467234D02*
D03*
X457234D02*
D03*
X447234D02*
D03*
X437234D02*
D03*
X427234D02*
D03*
X417234D02*
D03*
X407234D02*
D03*
X397234D02*
D03*
X387234D02*
D03*
X542234Y80932D02*
D03*
X532234D02*
D03*
X522234D02*
D03*
X512234D02*
D03*
X502234D02*
D03*
X492234D02*
D03*
X482234D02*
D03*
X472234D02*
D03*
X462234D02*
D03*
X452234D02*
D03*
X442234D02*
D03*
X432234D02*
D03*
X422234D02*
D03*
X412234D02*
D03*
X402234D02*
D03*
X392234D02*
D03*
X382234D02*
D03*
X537234Y88433D02*
D03*
X527234D02*
D03*
X517234D02*
D03*
X507234D02*
D03*
X497234D02*
D03*
X487234D02*
D03*
X477234D02*
D03*
X467234D02*
D03*
X457234D02*
D03*
X447234D02*
D03*
X437234D02*
D03*
X427234D02*
D03*
X417234D02*
D03*
X407234D02*
D03*
X397234D02*
D03*
X387234D02*
D03*
X542234Y95933D02*
D03*
X532234D02*
D03*
X522234D02*
D03*
X512234D02*
D03*
X502234D02*
D03*
X492234D02*
D03*
X482234D02*
D03*
X472234D02*
D03*
X462234D02*
D03*
X452234D02*
D03*
X442234D02*
D03*
X432234D02*
D03*
X422234D02*
D03*
X412234D02*
D03*
X402234D02*
D03*
X392234D02*
D03*
X382234D02*
D03*
D42*
X277234Y69812D02*
D03*
Y79812D02*
D03*
Y89812D02*
D03*
D43*
Y99812D02*
D03*
D44*
X239266Y85688D02*
D03*
X229266D02*
D03*
X219266D02*
D03*
D45*
X209266D02*
D03*
D46*
X207802Y11144D02*
D03*
Y68231D02*
D03*
Y101144D02*
D03*
Y158231D02*
D03*
D47*
X231266Y11144D02*
D03*
Y68231D02*
D03*
Y101144D02*
D03*
Y158231D02*
D03*
D48*
X33102Y290790D02*
D03*
Y330160D02*
D03*
Y310475D02*
D03*
D49*
Y349845D02*
D03*
D50*
X282102Y418975D02*
D03*
Y381375D02*
D03*
X376102Y512975D02*
D03*
X413702D02*
D03*
X282102D02*
D03*
Y475375D02*
D03*
Y447175D02*
D03*
X319702Y512975D02*
D03*
X347902D02*
D03*
X423102Y418975D02*
D03*
Y381375D02*
D03*
Y512975D02*
D03*
Y475375D02*
D03*
Y447175D02*
D03*
X385502Y512975D02*
D03*
X394902D02*
D03*
X404302D02*
D03*
X357302D02*
D03*
X366702D02*
D03*
X329102D02*
D03*
X338502D02*
D03*
X291502D02*
D03*
X300902D02*
D03*
X310302D02*
D03*
X376102Y371975D02*
D03*
X413702D02*
D03*
X282102D02*
D03*
X319702D02*
D03*
X347902D02*
D03*
X282102Y409575D02*
D03*
Y400175D02*
D03*
Y390775D02*
D03*
Y437775D02*
D03*
Y428375D02*
D03*
Y465975D02*
D03*
Y456575D02*
D03*
Y503575D02*
D03*
Y494175D02*
D03*
Y484775D02*
D03*
X423102Y371975D02*
D03*
X385502D02*
D03*
X394902D02*
D03*
X404302D02*
D03*
X357302D02*
D03*
X366702D02*
D03*
X329102D02*
D03*
X338502D02*
D03*
X291502D02*
D03*
X300902D02*
D03*
X310302D02*
D03*
X423102Y409575D02*
D03*
Y400175D02*
D03*
Y390775D02*
D03*
Y437775D02*
D03*
Y428375D02*
D03*
Y465975D02*
D03*
Y456575D02*
D03*
Y503575D02*
D03*
Y494175D02*
D03*
Y484775D02*
D03*
D51*
X74102Y513975D02*
D03*
X84936D02*
D03*
X95769D02*
D03*
X106602D02*
D03*
D52*
X74102Y503975D02*
D03*
Y493975D02*
D03*
X84936Y503975D02*
D03*
Y493975D02*
D03*
X95769Y503975D02*
D03*
Y493975D02*
D03*
X106602Y503975D02*
D03*
Y493975D02*
D03*
D53*
X572724Y209648D02*
D03*
X67512D02*
D03*
Y442719D02*
D03*
Y675790D02*
D03*
X572724D02*
D03*
D56*
X395902Y560975D02*
X347902Y512975D01*
X395902Y560975D02*
X412602D01*
M02*
