G04*
G04 #@! TF.GenerationSoftware,Altium Limited,Altium Designer,20.0.14 (345)*
G04*
G04 Layer_Color=16711935*
%FSLAX25Y25*%
%MOIN*%
G70*
G01*
G75*
%ADD104C,0.00000*%
D104*
X202487Y11144D02*
G03*
X204258Y9373I1772J0D01*
G01*
Y12916D02*
G03*
X202487Y11144I0J-1772D01*
G01*
X213117D02*
G03*
X211345Y12916I-1772J0D01*
G01*
Y9373D02*
G03*
X213117Y11144I0J1772D01*
G01*
X202487Y68231D02*
G03*
X204258Y66459I1772J0D01*
G01*
Y70003D02*
G03*
X202487Y68231I0J-1772D01*
G01*
X213117D02*
G03*
X211345Y70003I-1772J0D01*
G01*
Y66459D02*
G03*
X213117Y68231I0J1772D01*
G01*
X227132Y11144D02*
G03*
X228904Y9373I1772J0D01*
G01*
Y12916D02*
G03*
X227132Y11144I0J-1772D01*
G01*
X235400D02*
G03*
X233629Y12916I-1772J0D01*
G01*
Y9373D02*
G03*
X235400Y11144I0J1772D01*
G01*
X227132Y68231D02*
G03*
X228904Y66459I1772J0D01*
G01*
Y70003D02*
G03*
X227132Y68231I0J-1772D01*
G01*
X235400D02*
G03*
X233629Y70003I-1772J0D01*
G01*
Y66459D02*
G03*
X235400Y68231I0J1772D01*
G01*
X202487Y101144D02*
G03*
X204258Y99373I1772J0D01*
G01*
Y102916D02*
G03*
X202487Y101144I0J-1772D01*
G01*
X213117D02*
G03*
X211345Y102916I-1772J0D01*
G01*
Y99373D02*
G03*
X213117Y101144I0J1772D01*
G01*
X202487Y158231D02*
G03*
X204258Y156459I1772J0D01*
G01*
Y160003D02*
G03*
X202487Y158231I0J-1772D01*
G01*
X213117D02*
G03*
X211345Y160003I-1772J0D01*
G01*
Y156459D02*
G03*
X213117Y158231I0J1772D01*
G01*
X227132Y101144D02*
G03*
X228904Y99373I1772J0D01*
G01*
Y102916D02*
G03*
X227132Y101144I0J-1772D01*
G01*
X235400D02*
G03*
X233629Y102916I-1772J0D01*
G01*
Y99373D02*
G03*
X235400Y101144I0J1772D01*
G01*
X227132Y158231D02*
G03*
X228904Y156459I1772J0D01*
G01*
Y160003D02*
G03*
X227132Y158231I0J-1772D01*
G01*
X235400D02*
G03*
X233629Y160003I-1772J0D01*
G01*
Y156459D02*
G03*
X235400Y158231I0J1772D01*
G01*
X211345Y12916D02*
X204258D01*
X211345Y9373D02*
X204258D01*
X211345Y70003D02*
X204258D01*
X211345Y66459D02*
X204258D01*
X233629Y12916D02*
X228904D01*
X233629Y9373D02*
X228904D01*
X233629Y70003D02*
X228904D01*
X233629Y66459D02*
X228904D01*
X211345Y102916D02*
X204258D01*
X211345Y99373D02*
X204258D01*
X211345Y160003D02*
X204258D01*
X211345Y156459D02*
X204258D01*
X233629Y102916D02*
X228904D01*
X233629Y99373D02*
X228904D01*
X233629Y160003D02*
X228904D01*
X233629Y156459D02*
X228904D01*
M02*
