G04*
G04 #@! TF.GenerationSoftware,Altium Limited,Altium Designer,20.0.14 (345)*
G04*
G04 Layer_Color=32768*
%FSLAX25Y25*%
%MOIN*%
G70*
G01*
G75*
%ADD107C,0.00394*%
D107*
X454691Y108224D02*
Y113224D01*
X383823Y108224D02*
X454691D01*
X383823Y113224D02*
X454691D01*
X383823Y108224D02*
Y113224D01*
X442901Y163141D02*
Y168141D01*
X395657Y163141D02*
X442901D01*
X395657Y168141D02*
X442901D01*
X395657Y163141D02*
Y168141D01*
X533811Y1265D02*
Y6265D01*
X486566Y1265D02*
X533811D01*
X486566Y6265D02*
X533811D01*
X486566Y1265D02*
Y6265D01*
X545644Y56182D02*
Y61182D01*
X474776Y56182D02*
X545644D01*
X474776Y61182D02*
X545644D01*
X474776Y56182D02*
Y61182D01*
X538191Y108224D02*
Y113224D01*
X467323Y108224D02*
X538191D01*
X467323Y113224D02*
X538191D01*
X467323Y108224D02*
Y113224D01*
X526401Y163141D02*
Y168141D01*
X479157Y163141D02*
X526401D01*
X479157Y168141D02*
X526401D01*
X479157Y163141D02*
Y168141D01*
X450311Y1224D02*
Y6224D01*
X403066Y1224D02*
X450311D01*
X403066Y6224D02*
X450311D01*
X403066Y1224D02*
Y6224D01*
X462144Y56141D02*
Y61141D01*
X391276Y56141D02*
X462144D01*
X391276Y61141D02*
X462144D01*
X391276Y56141D02*
Y61141D01*
M02*
