G04*
G04 #@! TF.GenerationSoftware,Altium Limited,Altium Designer,20.0.14 (345)*
G04*
G04 Layer_Color=32768*
%FSLAX25Y25*%
%MOIN*%
G70*
G01*
G75*
%ADD57C,0.00500*%
%ADD105C,0.00780*%
%ADD106C,0.00197*%
D57*
X764Y695500D02*
X615000D01*
X615000Y-500D01*
X500Y695500D02*
X500Y-500D01*
X614736D01*
X144741Y169578D02*
X82741D01*
X144741Y96578D02*
Y169578D01*
X82741Y96578D02*
Y169578D01*
X144741Y96578D02*
X82741D01*
X63088Y169468D02*
X1088D01*
X63088Y96468D02*
Y169468D01*
X1088Y96468D02*
Y169468D01*
X63088Y96468D02*
X1088D01*
X62464Y72550D02*
X464D01*
X62464Y-450D02*
Y72550D01*
X464Y-450D02*
Y72550D01*
X62464Y-450D02*
X464D01*
X144533Y72802D02*
X82533D01*
X144533Y-198D02*
Y72802D01*
X82533Y-198D02*
Y72802D01*
X144533Y-198D02*
X82533D01*
D105*
X614734Y-317D02*
Y169683D01*
X337234D02*
X614734D01*
X337234Y-317D02*
Y169683D01*
Y-317D02*
X614734D01*
X247234Y169812D02*
X316734D01*
Y-188D01*
X247234D02*
X316734D01*
X164766Y-312D02*
Y169688D01*
X248766D02*
X164766D01*
X248766Y-312D02*
X164766D01*
X287602Y377475D02*
X417602D01*
X287602Y507475D02*
X417602D01*
Y377475D01*
X287602Y507475D02*
Y377475D01*
X602Y189475D02*
X614602D01*
X602Y695475D02*
Y189475D01*
Y695475D02*
X614602D01*
Y189975D01*
D106*
X316164Y561532D02*
X388997D01*
X316164Y568500D02*
Y561532D01*
Y568500D02*
X388997D01*
Y561532D01*
X327951Y623418D02*
Y616449D01*
X377164D01*
X327951Y623418D02*
Y616449D01*
Y623418D02*
X377164D01*
Y616449D01*
X171660Y467036D02*
X178628D01*
X171660D02*
Y417823D01*
X178628D01*
Y467036D02*
Y417823D01*
X171660D02*
X178628D01*
X226577Y478869D02*
X233545D01*
X226577D02*
Y406037D01*
X233545D01*
Y478869D02*
Y406037D01*
X471660Y478913D02*
Y406080D01*
Y478913D02*
X478628D01*
Y406080D01*
X471660D02*
X478628D01*
X526577Y467126D02*
X533545D01*
X526577D02*
Y417914D01*
Y467126D02*
X533545D01*
Y417914D01*
X526577D02*
X533545D01*
X328041Y268500D02*
Y261532D01*
X377254D01*
Y268500D02*
Y261532D01*
X328041Y268500D02*
X377254D01*
Y261532D01*
X316208Y323418D02*
Y316449D01*
X389040D01*
Y323418D02*
Y316449D01*
X316208Y323418D02*
X389040D01*
M02*
