G04*
G04 #@! TF.GenerationSoftware,Altium Limited,Altium Designer,20.0.14 (345)*
G04*
G04 Layer_Color=32896*
%FSLAX25Y25*%
%MOIN*%
G70*
G01*
G75*
%ADD57C,0.00500*%
%ADD58C,0.00787*%
%ADD59C,0.00600*%
%ADD60C,0.00984*%
D57*
X382741Y169224D02*
X455741D01*
X382741Y107224D02*
Y169224D01*
Y107224D02*
X455741D01*
Y169224D01*
X473727Y183D02*
Y62182D01*
X546727D01*
Y183D02*
Y62182D01*
X473727Y183D02*
X546727D01*
X466241Y169224D02*
X539241D01*
X466241Y107224D02*
Y169224D01*
Y107224D02*
X539241D01*
Y169224D01*
X390227Y141D02*
Y62141D01*
X463227D01*
Y141D02*
Y62141D01*
X390227Y141D02*
X463227D01*
X354330Y3182D02*
X351831D01*
X351331Y3682D01*
Y4682D01*
X351831Y5182D01*
X354330D01*
X351331Y6182D02*
X354330D01*
X351331Y8181D01*
X354330D01*
Y9181D02*
Y10180D01*
Y9680D01*
X351331D01*
Y9181D01*
Y10180D01*
X354330Y11680D02*
Y13679D01*
Y12679D01*
X351331D01*
X354330Y17678D02*
X352331D01*
X351331Y18677D01*
X352331Y19677D01*
X354330D01*
X351331Y22176D02*
X354330D01*
X352830Y20677D01*
Y22676D01*
X348531Y5182D02*
X349031Y4682D01*
Y3682D01*
X348531Y3182D01*
X346532D01*
X346032Y3682D01*
Y4682D01*
X346532Y5182D01*
X347532D01*
Y4182D01*
X346032Y6182D02*
X346532D01*
Y6681D01*
X346032D01*
Y6182D01*
X349031Y13179D02*
Y12180D01*
X348531Y11680D01*
X346532D01*
X346032Y12180D01*
Y13179D01*
X346532Y13679D01*
X348531D01*
X349031Y13179D01*
X349531Y15179D02*
X348531D01*
X348032Y14679D01*
X349031Y16678D02*
X346032D01*
Y18677D01*
Y21177D02*
Y20177D01*
X346532Y19677D01*
X347532D01*
X348032Y20177D01*
Y21177D01*
X347532Y21677D01*
X347032D01*
Y19677D01*
X348032Y23176D02*
Y24176D01*
X347532Y24676D01*
X346032D01*
Y23176D01*
X346532Y22676D01*
X347032Y23176D01*
Y24676D01*
X348032Y25675D02*
X346032D01*
X347032D01*
X347532Y26175D01*
X348032Y26675D01*
Y27175D01*
Y28674D02*
X346532D01*
X346032Y29174D01*
Y30674D01*
X345532D01*
X345033Y30174D01*
Y29674D01*
X346032Y30674D02*
X348032D01*
X340234Y3182D02*
X343233D01*
X340234Y5182D01*
X343233D01*
X340234Y8181D02*
Y6182D01*
X342233Y8181D01*
X342733D01*
X343233Y7681D01*
Y6681D01*
X342733Y6182D01*
X343233Y9181D02*
X340234D01*
Y10680D01*
X340734Y11180D01*
X341233D01*
X341733Y10680D01*
Y9181D01*
Y10680D01*
X342233Y11180D01*
X342733D01*
X343233Y10680D01*
Y9181D01*
Y12180D02*
X340234D01*
Y14179D01*
Y20177D02*
Y18178D01*
X342233Y20177D01*
X342733D01*
X343233Y19677D01*
Y18677D01*
X342733Y18178D01*
Y21177D02*
X343233Y21677D01*
Y22676D01*
X342733Y23176D01*
X340734D01*
X340234Y22676D01*
Y21677D01*
X340734Y21177D01*
X342733D01*
X340234Y26175D02*
Y24176D01*
X342233Y26175D01*
X342733D01*
X343233Y25675D01*
Y24676D01*
X342733Y24176D01*
Y27175D02*
X343233Y27675D01*
Y28674D01*
X342733Y29174D01*
X340734D01*
X340234Y28674D01*
Y27675D01*
X340734Y27175D01*
X342733D01*
X388233Y59682D02*
X385234D01*
X386234Y58682D01*
X385234Y57682D01*
X388233D01*
X385734Y56683D02*
X385234Y56183D01*
Y55183D01*
X385734Y54683D01*
X386234D01*
X386734Y55183D01*
Y55683D01*
Y55183D01*
X387233Y54683D01*
X387733D01*
X388233Y55183D01*
Y56183D01*
X387733Y56683D01*
X544234Y109683D02*
X547233D01*
X546234Y110683D01*
X547233Y111682D01*
X544234D01*
Y112682D02*
Y113682D01*
Y113182D01*
X547233D01*
X546733Y112682D01*
X364984Y38685D02*
X367983D01*
Y40185D01*
X367483Y40685D01*
X366484D01*
X365984Y40185D01*
Y38685D01*
X364484Y41684D02*
Y43684D01*
X367983Y44683D02*
X365984D01*
X364984Y45683D01*
X365984Y46683D01*
X367983D01*
X364984Y47682D02*
X367983D01*
Y49182D01*
X367483Y49682D01*
X366484D01*
X365984Y49182D01*
Y47682D01*
Y48682D02*
X364984Y49682D01*
X367983Y52681D02*
Y50681D01*
X364984D01*
Y52681D01*
X366484Y50681D02*
Y51681D01*
X367983Y55680D02*
Y53680D01*
X366484D01*
Y54680D01*
Y53680D01*
X364984D01*
X364984Y108687D02*
X367983D01*
Y110187D01*
X367483Y110687D01*
X366484D01*
X365984Y110187D01*
Y108687D01*
X364484Y111686D02*
Y113686D01*
X367983Y114685D02*
X365984D01*
X364984Y115685D01*
X365984Y116685D01*
X367983D01*
X364984Y117684D02*
X367983D01*
Y119184D01*
X367483Y119684D01*
X366484D01*
X365984Y119184D01*
Y117684D01*
Y118684D02*
X364984Y119684D01*
X367983Y122683D02*
Y120683D01*
X364984D01*
Y122683D01*
X366484Y120683D02*
Y121683D01*
X367983Y125682D02*
Y123682D01*
X366484D01*
Y124682D01*
Y123682D01*
X364984D01*
X364484Y126681D02*
Y128681D01*
X367483Y131680D02*
X367983Y131180D01*
Y130180D01*
X367483Y129680D01*
X365484D01*
X364984Y130180D01*
Y131180D01*
X365484Y131680D01*
X366484D01*
Y130680D01*
X364984Y132679D02*
X367983D01*
X364984Y134679D01*
X367983D01*
Y135679D02*
X364984D01*
Y137178D01*
X365484Y137678D01*
X367483D01*
X367983Y137178D01*
Y135679D01*
X553233Y56683D02*
Y59682D01*
X552233Y58682D01*
X551234Y59682D01*
Y56683D01*
X548235D02*
X550234D01*
X548235Y58682D01*
Y59182D01*
X548734Y59682D01*
X549734D01*
X550234Y59182D01*
X460483Y110432D02*
X463482D01*
X462483Y111431D01*
X463482Y112431D01*
X460483D01*
Y114930D02*
X463482D01*
X461983Y113431D01*
Y115430D01*
X607482Y164932D02*
X608482D01*
X607982D01*
Y162433D01*
X608482Y161933D01*
X608982D01*
X609481Y162433D01*
X606483Y161433D02*
X604483D01*
X603483Y164932D02*
Y161933D01*
X601984D01*
X601484Y162433D01*
Y164432D01*
X601984Y164932D01*
X603483D01*
X600484D02*
X599485D01*
X599985D01*
Y161933D01*
X600484D01*
X599485D01*
X595986Y164432D02*
X596486Y164932D01*
X597485D01*
X597985Y164432D01*
Y162433D01*
X597485Y161933D01*
X596486D01*
X595986Y162433D01*
Y163432D01*
X596986D01*
D58*
X383823Y113775D02*
X454691D01*
X383823Y107673D02*
X454691D01*
X395657Y168692D02*
X442901D01*
X395657Y162590D02*
X442901D01*
X486566Y6816D02*
X533811D01*
X486566Y714D02*
X533811D01*
X474776Y61734D02*
X545644D01*
X474776Y55631D02*
X545644D01*
X467323Y113775D02*
X538191D01*
X467323Y107673D02*
X538191D01*
X479157Y168692D02*
X526401D01*
X479157Y162590D02*
X526401D01*
X403066Y6775D02*
X450311D01*
X403066Y673D02*
X450311D01*
X391276Y61692D02*
X462144D01*
X391276Y55590D02*
X462144D01*
X370234Y133183D02*
X380234D01*
X370234Y113182D02*
Y133183D01*
Y113182D02*
X380234D01*
Y133183D01*
X370234Y57183D02*
X380234D01*
X370234Y37183D02*
Y57183D01*
Y37183D02*
X380234D01*
Y57183D01*
X592938Y14092D02*
X613529D01*
X592938D02*
Y155273D01*
X613529Y14092D02*
Y155273D01*
X592938D02*
X613529D01*
D59*
X599690Y10206D02*
Y12871D01*
X597025Y10206D01*
X596358D01*
X595692Y10872D01*
Y12205D01*
X596358Y12871D01*
Y8873D02*
X595692Y8206D01*
Y6873D01*
X596358Y6207D01*
X597025D01*
X597691Y6873D01*
X598357Y6207D01*
X599024D01*
X599690Y6873D01*
Y8206D01*
X599024Y8873D01*
X598357D01*
X597691Y8206D01*
X597025Y8873D01*
X596358D01*
X597691Y8206D02*
Y6873D01*
X610320Y10206D02*
Y12871D01*
X607654Y10206D01*
X606988D01*
X606322Y10872D01*
Y12205D01*
X606988Y12871D01*
X606322Y8873D02*
Y6207D01*
X606988D01*
X609654Y8873D01*
X610320D01*
X599690Y156584D02*
Y159249D01*
X597025Y156584D01*
X596358D01*
X595692Y157250D01*
Y158583D01*
X596358Y159249D01*
X610320Y158068D02*
Y156735D01*
Y157402D01*
X606322D01*
X606988Y158068D01*
D60*
X383285Y118183D02*
G03*
X383285Y118183I-492J0D01*
G01*
Y42182D02*
G03*
X383285Y42182I-492J0D01*
G01*
M02*
