G04*
G04 #@! TF.GenerationSoftware,Altium Limited,Altium Designer,20.0.14 (345)*
G04*
G04 Layer_Physical_Order=2*
G04 Layer_Color=36540*
%FSLAX25Y25*%
%MOIN*%
G70*
G01*
G75*
%ADD18C,0.01000*%
%ADD20C,0.02500*%
%ADD21C,0.02000*%
%ADD22C,0.03000*%
%ADD23C,0.06000*%
%ADD25C,0.05000*%
%ADD27C,0.08000*%
%ADD30C,0.03347*%
%ADD31R,0.03347X0.03347*%
%ADD32C,0.02165*%
%ADD33C,0.02362*%
%ADD34R,0.03347X0.03347*%
%ADD35C,0.06102*%
%ADD37C,0.06496*%
%ADD38R,0.06496X0.06496*%
%ADD40C,0.20079*%
%ADD41C,0.05150*%
%ADD42C,0.06299*%
%ADD44C,0.07087*%
%ADD54C,0.10000*%
G36*
X257855Y163040D02*
X257815Y162853D01*
X257838Y162630D01*
X257922Y162372D01*
X258069Y162079D01*
X258278Y161749D01*
X258549Y161384D01*
X258883Y160984D01*
X259737Y160076D01*
X257970Y158309D01*
X257498Y158767D01*
X256662Y159497D01*
X256297Y159768D01*
X255967Y159977D01*
X255674Y160124D01*
X255416Y160208D01*
X255193Y160231D01*
X255007Y160191D01*
X254855Y160088D01*
X257958Y163191D01*
X257855Y163040D01*
D02*
G37*
G36*
X276469Y160822D02*
X276137Y160767D01*
X275777Y160654D01*
X275386Y160483D01*
X274966Y160252D01*
X274517Y159963D01*
X274037Y159615D01*
X272990Y158742D01*
X271824Y157635D01*
X270057Y159403D01*
X270640Y160001D01*
X272036Y161616D01*
X272384Y162095D01*
X272674Y162545D01*
X272904Y162965D01*
X273076Y163355D01*
X273189Y163716D01*
X273243Y164048D01*
X276469Y160822D01*
D02*
G37*
G36*
X254701Y150065D02*
X254347Y150053D01*
X253999Y150011D01*
X253657Y149939D01*
X253320Y149836D01*
X252989Y149703D01*
X252663Y149540D01*
X252344Y149346D01*
X252029Y149122D01*
X251721Y148868D01*
X251418Y148583D01*
X250004Y149997D01*
X250289Y150300D01*
X250543Y150608D01*
X250767Y150922D01*
X250961Y151242D01*
X251124Y151567D01*
X251257Y151899D01*
X251360Y152235D01*
X251432Y152578D01*
X251474Y152926D01*
X251486Y153280D01*
X254701Y150065D01*
D02*
G37*
G36*
X221953Y142583D02*
X221970Y142487D01*
X221999Y142388D01*
X222041Y142287D01*
X222094Y142182D01*
X222160Y142075D01*
X222238Y141964D01*
X222328Y141851D01*
X222545Y141616D01*
X221837Y140909D01*
X221719Y141024D01*
X221489Y141216D01*
X221379Y141294D01*
X221272Y141359D01*
X221167Y141413D01*
X221066Y141455D01*
X220967Y141484D01*
X220871Y141501D01*
X220778Y141507D01*
X221947Y142676D01*
X221953Y142583D01*
D02*
G37*
G36*
X315579Y149812D02*
X309579Y140812D01*
X309535Y141952D01*
X309405Y142972D01*
X309188Y143872D01*
X308883Y144652D01*
X308492Y145312D01*
X308014Y145852D01*
X307450Y146272D01*
X306798Y146572D01*
X306059Y146752D01*
X305234Y146812D01*
Y152812D01*
X306059Y152872D01*
X306798Y153052D01*
X307450Y153352D01*
X308014Y153772D01*
X308492Y154312D01*
X308883Y154972D01*
X309188Y155752D01*
X309405Y156652D01*
X309535Y157672D01*
X309579Y158812D01*
X315579Y149812D01*
D02*
G37*
G36*
X257999Y143626D02*
X258108Y143273D01*
X258238Y142927D01*
X258388Y142590D01*
X258560Y142260D01*
X258753Y141938D01*
X258966Y141623D01*
X259201Y141317D01*
X259456Y141019D01*
X259732Y140728D01*
X258651Y138981D01*
X258341Y139271D01*
X258028Y139523D01*
X257714Y139737D01*
X257399Y139911D01*
X257082Y140048D01*
X256763Y140145D01*
X256443Y140204D01*
X256121Y140225D01*
X255798Y140206D01*
X255472Y140149D01*
X257911Y143988D01*
X257999Y143626D01*
D02*
G37*
G36*
X222452Y135579D02*
X222469Y135484D01*
X222498Y135386D01*
X222540Y135286D01*
X222593Y135182D01*
X222659Y135075D01*
X222737Y134965D01*
X222827Y134852D01*
X223045Y134616D01*
X222338Y133909D01*
X222218Y134024D01*
X221989Y134217D01*
X221879Y134295D01*
X221772Y134361D01*
X221668Y134414D01*
X221568Y134456D01*
X221470Y134485D01*
X221375Y134502D01*
X221284Y134507D01*
X222447Y135670D01*
X222452Y135579D01*
D02*
G37*
G36*
X217452D02*
X217469Y135484D01*
X217498Y135386D01*
X217540Y135286D01*
X217593Y135182D01*
X217659Y135075D01*
X217737Y134965D01*
X217827Y134852D01*
X218045Y134616D01*
X217337Y133909D01*
X217218Y134024D01*
X216989Y134217D01*
X216879Y134295D01*
X216772Y134361D01*
X216668Y134414D01*
X216567Y134456D01*
X216470Y134485D01*
X216375Y134502D01*
X216284Y134507D01*
X217447Y135670D01*
X217452Y135579D01*
D02*
G37*
G36*
X216531Y129275D02*
X216475Y129195D01*
X216426Y129104D01*
X216384Y129003D01*
X216348Y128891D01*
X216319Y128769D01*
X216296Y128636D01*
X216279Y128492D01*
X216266Y128173D01*
X215266D01*
X215263Y128338D01*
X215237Y128636D01*
X215214Y128769D01*
X215185Y128891D01*
X215149Y129003D01*
X215106Y129104D01*
X215057Y129195D01*
X215002Y129275D01*
X214939Y129344D01*
X216593D01*
X216531Y129275D01*
D02*
G37*
G36*
X375235Y125682D02*
X375128Y125647D01*
X374958Y125542D01*
X374864Y125471D01*
X375203Y125131D01*
X375018Y125117D01*
X374818Y125070D01*
X374603Y124990D01*
X374374Y124877D01*
X374130Y124732D01*
X373871Y124555D01*
X373598Y124344D01*
X373570Y124320D01*
X371345Y122172D01*
X369223Y124293D01*
X371875Y127233D01*
X371929Y127322D01*
X372041Y127552D01*
X372121Y127767D01*
X372168Y127967D01*
X372183Y128152D01*
X372457Y127877D01*
X372734Y128184D01*
X375235Y125682D01*
D02*
G37*
G36*
X131241Y114514D02*
X126804Y110078D01*
X123153Y110078D01*
X123137Y110156D01*
X122810Y110647D01*
X122319Y110974D01*
X121741Y111089D01*
X121627Y111067D01*
X121241Y111384D01*
X121241Y142578D01*
X108241Y142578D01*
Y149078D01*
X96241Y161078D01*
Y168574D01*
X131241D01*
Y114514D01*
D02*
G37*
G36*
X49588Y114405D02*
X45151Y109968D01*
X41500Y109968D01*
X41485Y110047D01*
X41157Y110537D01*
X40667Y110865D01*
X40088Y110980D01*
X39975Y110958D01*
X39588Y111275D01*
X39588Y142468D01*
X26588Y142468D01*
Y148968D01*
X14588Y160968D01*
Y168465D01*
X49588D01*
Y114405D01*
D02*
G37*
G36*
X178612Y111291D02*
X178743Y111157D01*
X178894Y111039D01*
X179065Y110937D01*
X179256Y110850D01*
X179468Y110780D01*
X179699Y110724D01*
X179951Y110685D01*
X180222Y110662D01*
X180514Y110654D01*
Y109654D01*
X180250Y109645D01*
X180009Y109619D01*
X179790Y109575D01*
X179593Y109515D01*
X179419Y109436D01*
X179268Y109341D01*
X179138Y109228D01*
X179032Y109097D01*
X178948Y108949D01*
X178886Y108784D01*
X178501Y111440D01*
X178612Y111291D01*
D02*
G37*
G36*
X135513Y117023D02*
X135741Y116543D01*
Y110586D01*
X127884Y102729D01*
X109741D01*
Y114078D01*
X116741D01*
X120472Y110347D01*
X120344Y110156D01*
X120229Y109578D01*
X120344Y108999D01*
X120672Y108509D01*
X121162Y108181D01*
X121741Y108066D01*
X122319Y108181D01*
X122810Y108509D01*
X123137Y108999D01*
X123153Y109078D01*
X127241D01*
X135201Y117038D01*
X135513Y117023D01*
D02*
G37*
G36*
X53861Y116914D02*
X54088Y116434D01*
Y110477D01*
X46231Y102620D01*
X28088D01*
Y113968D01*
X35088D01*
X38819Y110238D01*
X38691Y110047D01*
X38576Y109468D01*
X38691Y108890D01*
X39019Y108399D01*
X39509Y108072D01*
X40088Y107957D01*
X40667Y108072D01*
X41157Y108399D01*
X41485Y108890D01*
X41500Y108968D01*
X45588D01*
X53548Y116929D01*
X53861Y116914D01*
D02*
G37*
G36*
X188434Y111624D02*
X188782Y111323D01*
X189130Y111057D01*
X189478Y110826D01*
X189827Y110631D01*
X190176Y110471D01*
X190525Y110347D01*
X190875Y110258D01*
X191224Y110205D01*
X191574Y110188D01*
Y109188D01*
X191224Y109170D01*
X190875Y109117D01*
X190525Y109028D01*
X190176Y108904D01*
X189827Y108744D01*
X189478Y108549D01*
X189130Y108318D01*
X188782Y108053D01*
X188434Y107751D01*
X188086Y107414D01*
Y111961D01*
X188434Y111624D01*
D02*
G37*
G36*
X190226Y103441D02*
X189992Y103181D01*
X189782Y102896D01*
X189598Y102586D01*
X189439Y102252D01*
X189305Y101892D01*
X189196Y101507D01*
X189113Y101098D01*
X189055Y100664D01*
X189022Y100204D01*
X189014Y99720D01*
X185799Y102935D01*
X186283Y102943D01*
X186742Y102976D01*
X187177Y103034D01*
X187586Y103118D01*
X187971Y103226D01*
X188330Y103360D01*
X188665Y103519D01*
X188975Y103703D01*
X189260Y103913D01*
X189519Y104148D01*
X190226Y103441D01*
D02*
G37*
G36*
X178612Y101291D02*
X178743Y101157D01*
X178894Y101039D01*
X179065Y100937D01*
X179256Y100850D01*
X179468Y100779D01*
X179699Y100724D01*
X179951Y100685D01*
X180222Y100662D01*
X180514Y100654D01*
Y99654D01*
X180250Y99645D01*
X180009Y99619D01*
X179790Y99575D01*
X179593Y99515D01*
X179419Y99436D01*
X179268Y99341D01*
X179138Y99228D01*
X179032Y99097D01*
X178948Y98949D01*
X178886Y98784D01*
X178501Y101440D01*
X178612Y101291D01*
D02*
G37*
G36*
X109308Y102729D02*
X109435Y102423D01*
X109741Y102296D01*
Y101578D01*
X126741D01*
X127459Y102296D01*
X127884D01*
X128190Y102423D01*
X136047Y110280D01*
X136174Y110586D01*
Y111011D01*
X136241Y111078D01*
X138741D01*
Y97581D01*
X104741D01*
Y111512D01*
X105098Y111806D01*
X105677Y111921D01*
X106167Y112249D01*
X106495Y112739D01*
X106610Y113318D01*
X106559Y113578D01*
X106930Y114078D01*
X109308D01*
Y102729D01*
D02*
G37*
G36*
X27655Y102620D02*
X27782Y102314D01*
X28088Y102187D01*
Y101468D01*
X45088D01*
X45806Y102187D01*
X46231D01*
X46537Y102314D01*
X54394Y110171D01*
X54521Y110477D01*
Y110901D01*
X54588Y110968D01*
X57088D01*
Y97472D01*
X23088D01*
Y111403D01*
X23446Y111697D01*
X24024Y111812D01*
X24515Y112140D01*
X24843Y112630D01*
X24958Y113209D01*
X24906Y113468D01*
X25277Y113968D01*
X27655D01*
Y102620D01*
D02*
G37*
G36*
X352293Y101566D02*
X352459Y100491D01*
X352735Y99414D01*
X353122Y98337D01*
X353620Y97258D01*
X354228Y96179D01*
X354946Y95099D01*
X355775Y94017D01*
X356715Y92935D01*
X357765Y91852D01*
X343710D01*
X344760Y92935D01*
X345700Y94017D01*
X346529Y95099D01*
X347248Y96179D01*
X347856Y97258D01*
X348353Y98337D01*
X348740Y99414D01*
X349017Y100491D01*
X349182Y101566D01*
X349238Y102641D01*
X352238D01*
X352293Y101566D01*
D02*
G37*
G36*
X383979Y94017D02*
X383927Y93906D01*
X383882Y93761D01*
X383843Y93581D01*
X383809Y93367D01*
X383761Y92835D01*
X383737Y92166D01*
X383734Y91780D01*
X380734D01*
X380731Y92166D01*
X380658Y93367D01*
X380625Y93581D01*
X380586Y93761D01*
X380540Y93906D01*
X380489Y94017D01*
X380431Y94094D01*
X384036D01*
X383979Y94017D01*
D02*
G37*
G36*
X575473Y94179D02*
X570926Y90999D01*
X570941Y91065D01*
X570909Y91169D01*
X570830Y91312D01*
X570704Y91493D01*
X570531Y91712D01*
X570045Y92265D01*
X568966Y93383D01*
X572502Y96919D01*
X575473Y94179D01*
D02*
G37*
G36*
X292308Y94301D02*
X292615Y94047D01*
X292929Y93821D01*
X293248Y93625D01*
X293574Y93458D01*
X293906Y93320D01*
X294244Y93211D01*
X294588Y93132D01*
X294938Y93081D01*
X295294Y93060D01*
X291988Y89938D01*
X291986Y90289D01*
X291952Y90635D01*
X291887Y90975D01*
X291791Y91311D01*
X291663Y91641D01*
X291503Y91966D01*
X291312Y92286D01*
X291089Y92600D01*
X290835Y92909D01*
X290549Y93213D01*
X292006Y94585D01*
X292308Y94301D01*
D02*
G37*
G36*
X302221Y94257D02*
X302530Y94003D01*
X302844Y93779D01*
X303163Y93585D01*
X303489Y93422D01*
X303820Y93289D01*
X304157Y93186D01*
X304499Y93114D01*
X304847Y93072D01*
X305201Y93060D01*
X301986Y89845D01*
X301974Y90199D01*
X301932Y90547D01*
X301860Y90889D01*
X301757Y91226D01*
X301624Y91557D01*
X301461Y91883D01*
X301267Y92203D01*
X301043Y92517D01*
X300789Y92825D01*
X300504Y93128D01*
X301918Y94542D01*
X302221Y94257D01*
D02*
G37*
G36*
X171446Y100798D02*
X171521Y99778D01*
X171646Y98878D01*
X171821Y98098D01*
X172046Y97438D01*
X172321Y96898D01*
X172646Y96478D01*
X173021Y96178D01*
X173196Y96104D01*
X174146Y96016D01*
X176050Y95946D01*
X177149Y95938D01*
Y93438D01*
X176050Y93429D01*
X173148Y93251D01*
X173021Y93198D01*
X172646Y92898D01*
X172321Y92478D01*
X172046Y91938D01*
X171821Y91278D01*
X171646Y90498D01*
X171446Y88578D01*
X171421Y87438D01*
X165421Y94688D01*
X171421Y101938D01*
X171446Y100798D01*
D02*
G37*
G36*
X216143Y90596D02*
X216485Y90307D01*
X216827Y90051D01*
X217169Y89831D01*
X217512Y89644D01*
X217855Y89493D01*
X218199Y89376D01*
X218542Y89293D01*
X218886Y89245D01*
X219231Y89231D01*
X215723Y85723D01*
X215709Y86067D01*
X215661Y86411D01*
X215578Y86755D01*
X215461Y87099D01*
X215309Y87442D01*
X215123Y87784D01*
X214902Y88127D01*
X214647Y88469D01*
X214358Y88811D01*
X214034Y89152D01*
X215801Y90920D01*
X216143Y90596D01*
D02*
G37*
G36*
X280396Y89511D02*
X280441Y89237D01*
X280518Y88958D01*
X280626Y88674D01*
X280767Y88385D01*
X280939Y88091D01*
X281142Y87793D01*
X281378Y87490D01*
X281645Y87183D01*
X281943Y86870D01*
X280176Y85103D01*
X279863Y85401D01*
X279253Y85904D01*
X278955Y86108D01*
X278661Y86280D01*
X278373Y86420D01*
X278089Y86528D01*
X277809Y86605D01*
X277535Y86650D01*
X277265Y86663D01*
X280383Y89781D01*
X280396Y89511D01*
D02*
G37*
G36*
X577024Y82855D02*
X576908Y82917D01*
X576700Y82973D01*
X576400Y83022D01*
X576009Y83065D01*
X574284Y83153D01*
X571734Y83183D01*
Y86182D01*
X572676Y86186D01*
X576908Y86448D01*
X577024Y86510D01*
Y82855D01*
D02*
G37*
G36*
X383737Y84699D02*
X383809Y83498D01*
X383843Y83284D01*
X383882Y83104D01*
X383927Y82959D01*
X383979Y82848D01*
X384036Y82771D01*
X380431D01*
X380489Y82848D01*
X380540Y82959D01*
X380586Y83104D01*
X380625Y83284D01*
X380658Y83498D01*
X380707Y84030D01*
X380731Y84699D01*
X380734Y85085D01*
X383734D01*
X383737Y84699D01*
D02*
G37*
G36*
X380395Y79130D02*
X380318Y79188D01*
X380207Y79239D01*
X380062Y79284D01*
X379883Y79324D01*
X379668Y79357D01*
X379137Y79405D01*
X378467Y79430D01*
X378081Y79432D01*
Y82433D01*
X378467Y82436D01*
X379668Y82508D01*
X379883Y82541D01*
X380062Y82581D01*
X380207Y82626D01*
X380318Y82677D01*
X380395Y82735D01*
Y79130D01*
D02*
G37*
G36*
X360553Y87366D02*
X361162Y86331D01*
X361841Y85417D01*
X362590Y84625D01*
X363409Y83955D01*
X364298Y83407D01*
X365257Y82981D01*
X366286Y82676D01*
X367385Y82493D01*
X368553Y82433D01*
X367326Y79432D01*
X366483Y79394D01*
X365553Y79278D01*
X364534Y79084D01*
X362232Y78466D01*
X360950Y78040D01*
X356574Y76300D01*
X354940Y75565D01*
X360013Y88523D01*
X360553Y87366D01*
D02*
G37*
G36*
X575473Y75186D02*
X575412Y75169D01*
X575299Y75095D01*
X575133Y74964D01*
X574644Y74531D01*
X572502Y72446D01*
X568966Y75982D01*
X569373Y76393D01*
X570830Y78053D01*
X570909Y78196D01*
X570941Y78300D01*
X570926Y78366D01*
X575473Y75186D01*
D02*
G37*
G36*
X302221Y74257D02*
X302530Y74003D01*
X302844Y73779D01*
X303163Y73585D01*
X303489Y73422D01*
X303820Y73289D01*
X304157Y73186D01*
X304499Y73114D01*
X304847Y73072D01*
X305201Y73060D01*
X301986Y69845D01*
X301974Y70199D01*
X301932Y70547D01*
X301860Y70889D01*
X301757Y71226D01*
X301624Y71557D01*
X301461Y71883D01*
X301267Y72202D01*
X301043Y72517D01*
X300789Y72825D01*
X300504Y73128D01*
X301918Y74542D01*
X302221Y74257D01*
D02*
G37*
G36*
X292303Y68413D02*
X292266Y68457D01*
X292198Y68496D01*
X292100Y68531D01*
X291972Y68561D01*
X291813Y68586D01*
X291405Y68624D01*
X290876Y68642D01*
X290566Y68644D01*
Y70644D01*
X290855Y70647D01*
X291726Y70709D01*
X291873Y70737D01*
X291991Y70771D01*
X292080Y70809D01*
X292141Y70853D01*
X292174Y70902D01*
X292303Y68413D01*
D02*
G37*
G36*
X187613Y62426D02*
X189424Y61757D01*
X189810Y61650D01*
X190502Y61507D01*
X190808Y61471D01*
X191087Y61459D01*
X191520Y60459D01*
X191139Y60440D01*
X190782Y60381D01*
X190450Y60283D01*
X190141Y60146D01*
X189856Y59970D01*
X189595Y59755D01*
X189358Y59501D01*
X189145Y59208D01*
X188956Y58875D01*
X188791Y58504D01*
X187093Y62652D01*
X187613Y62426D01*
D02*
G37*
G36*
X178948Y60426D02*
X179032Y60278D01*
X179138Y60148D01*
X179268Y60035D01*
X179419Y59939D01*
X179593Y59861D01*
X179790Y59800D01*
X180009Y59756D01*
X180250Y59730D01*
X180514Y59721D01*
Y58722D01*
X180222Y58714D01*
X179951Y58690D01*
X179699Y58651D01*
X179468Y58596D01*
X179256Y58525D01*
X179065Y58438D01*
X178894Y58336D01*
X178743Y58218D01*
X178612Y58084D01*
X178501Y57935D01*
X178886Y60591D01*
X178948Y60426D01*
D02*
G37*
G36*
X215448Y57549D02*
X215464Y57463D01*
X215492Y57373D01*
X215532Y57278D01*
X215586Y57179D01*
X215652Y57075D01*
X215731Y56967D01*
X215823Y56855D01*
X216045Y56616D01*
X215337Y55909D01*
X215216Y56027D01*
X214987Y56223D01*
X214879Y56302D01*
X214775Y56368D01*
X214676Y56421D01*
X214581Y56462D01*
X214491Y56490D01*
X214405Y56505D01*
X214324Y56508D01*
X215446Y57630D01*
X215448Y57549D01*
D02*
G37*
G36*
X213531Y52275D02*
X213475Y52195D01*
X213426Y52104D01*
X213384Y52003D01*
X213348Y51891D01*
X213319Y51769D01*
X213296Y51636D01*
X213279Y51492D01*
X213266Y51173D01*
X212266D01*
X212263Y51338D01*
X212237Y51636D01*
X212214Y51769D01*
X212185Y51891D01*
X212149Y52003D01*
X212106Y52104D01*
X212057Y52195D01*
X212002Y52275D01*
X211940Y52344D01*
X213593D01*
X213531Y52275D01*
D02*
G37*
G36*
X478708Y45702D02*
X478561Y45793D01*
X478369Y45875D01*
X478132Y45947D01*
X477851Y46009D01*
X477525Y46062D01*
X476738Y46139D01*
X475772Y46178D01*
X475221Y46183D01*
Y49183D01*
X475772Y49187D01*
X477525Y49303D01*
X477851Y49356D01*
X478132Y49418D01*
X478369Y49490D01*
X478561Y49572D01*
X478708Y49663D01*
Y45702D01*
D02*
G37*
G36*
X478213Y39698D02*
X478065Y39790D01*
X477875Y39873D01*
X477641Y39945D01*
X477365Y40008D01*
X477047Y40062D01*
X476281Y40139D01*
X475344Y40178D01*
X474812Y40183D01*
Y43183D01*
X475344Y43187D01*
X477047Y43303D01*
X477365Y43357D01*
X477641Y43420D01*
X477875Y43492D01*
X478065Y43575D01*
X478213Y43667D01*
Y39698D01*
D02*
G37*
G36*
X179064Y39835D02*
X179485Y38449D01*
X179644Y38053D01*
X179814Y37690D01*
X179993Y37361D01*
X180182Y37065D01*
X180381Y36801D01*
X180589Y36572D01*
X180042Y35705D01*
X179766Y35953D01*
X179474Y36165D01*
X179163Y36339D01*
X178836Y36476D01*
X178491Y36577D01*
X178128Y36640D01*
X177749Y36667D01*
X177351Y36656D01*
X176937Y36609D01*
X176505Y36525D01*
X178943Y40363D01*
X179064Y39835D01*
D02*
G37*
G36*
X189022Y39171D02*
X189055Y38712D01*
X189113Y38277D01*
X189196Y37868D01*
X189305Y37483D01*
X189439Y37124D01*
X189598Y36789D01*
X189782Y36479D01*
X189992Y36194D01*
X190226Y35934D01*
X189519Y35227D01*
X189260Y35462D01*
X188975Y35672D01*
X188665Y35856D01*
X188330Y36015D01*
X187971Y36149D01*
X187586Y36258D01*
X187177Y36341D01*
X186742Y36399D01*
X186283Y36432D01*
X185799Y36440D01*
X189014Y39655D01*
X189022Y39171D01*
D02*
G37*
G36*
X225045Y31759D02*
X224930Y31640D01*
X224738Y31411D01*
X224660Y31300D01*
X224594Y31193D01*
X224541Y31089D01*
X224499Y30987D01*
X224470Y30888D01*
X224452Y30792D01*
X224447Y30699D01*
X223278Y31869D01*
X223371Y31874D01*
X223467Y31891D01*
X223566Y31920D01*
X223667Y31962D01*
X223772Y32016D01*
X223879Y32081D01*
X223989Y32159D01*
X224102Y32249D01*
X224338Y32466D01*
X225045Y31759D01*
D02*
G37*
G36*
X226915Y29629D02*
X226813Y29527D01*
X226438Y29104D01*
X226414Y29065D01*
X226402Y29037D01*
X226401Y29017D01*
X225595Y29822D01*
X225615Y29823D01*
X225644Y29835D01*
X225682Y29859D01*
X225730Y29894D01*
X225852Y29996D01*
X226105Y30235D01*
X226208Y30336D01*
X226915Y29629D01*
D02*
G37*
G36*
X476220Y27693D02*
X476072Y27786D01*
X475884Y27869D01*
X475657Y27942D01*
X475391Y28006D01*
X475085Y28060D01*
X474356Y28138D01*
X473469Y28178D01*
X472967Y28183D01*
Y31183D01*
X473469Y31187D01*
X475085Y31305D01*
X475391Y31359D01*
X475657Y31422D01*
X475884Y31496D01*
X476072Y31579D01*
X476220Y31672D01*
Y27693D01*
D02*
G37*
G36*
X269463Y29628D02*
X269179Y29325D01*
X268924Y29017D01*
X268700Y28703D01*
X268507Y28383D01*
X268343Y28057D01*
X268210Y27726D01*
X268108Y27389D01*
X268035Y27047D01*
X267993Y26699D01*
X267982Y26345D01*
X264766Y29560D01*
X265120Y29572D01*
X265468Y29614D01*
X265811Y29686D01*
X266147Y29789D01*
X266479Y29922D01*
X266804Y30085D01*
X267124Y30279D01*
X267438Y30503D01*
X267746Y30757D01*
X268049Y31042D01*
X269463Y29628D01*
D02*
G37*
G36*
X269279Y19943D02*
X268991Y19636D01*
X268738Y19325D01*
X268519Y19011D01*
X268335Y18692D01*
X268186Y18369D01*
X268071Y18043D01*
X267991Y17712D01*
X267946Y17378D01*
X267935Y17040D01*
X267959Y16698D01*
X264412Y19545D01*
X264773Y19594D01*
X265126Y19668D01*
X265473Y19769D01*
X265812Y19895D01*
X266145Y20048D01*
X266470Y20225D01*
X266789Y20429D01*
X267100Y20659D01*
X267404Y20914D01*
X267702Y21195D01*
X269279Y19943D01*
D02*
G37*
G36*
X131033Y17739D02*
X126596Y13302D01*
X122945Y13302D01*
X122929Y13381D01*
X122602Y13871D01*
X122111Y14199D01*
X121533Y14314D01*
X121419Y14291D01*
X121033Y14608D01*
X121033Y45802D01*
X108033Y45802D01*
Y52302D01*
X96033Y64302D01*
Y71799D01*
X131033D01*
Y17739D01*
D02*
G37*
G36*
X48964Y17486D02*
X44527Y13050D01*
X40876Y13050D01*
X40861Y13128D01*
X40533Y13619D01*
X40042Y13946D01*
X39464Y14061D01*
X39351Y14039D01*
X38964Y14356D01*
X38964Y45550D01*
X25964Y45550D01*
Y52050D01*
X13964Y64050D01*
Y71546D01*
X48964D01*
Y17486D01*
D02*
G37*
G36*
X135305Y20248D02*
X135533Y19768D01*
Y13811D01*
X127676Y5953D01*
X109533D01*
Y17302D01*
X116533D01*
X120264Y13571D01*
X120136Y13381D01*
X120021Y12802D01*
X120136Y12224D01*
X120464Y11733D01*
X120954Y11405D01*
X121533Y11290D01*
X122111Y11405D01*
X122602Y11733D01*
X122929Y12224D01*
X122945Y12302D01*
X127033D01*
X134993Y20262D01*
X135305Y20248D01*
D02*
G37*
G36*
X53237Y19995D02*
X53464Y19515D01*
Y13558D01*
X45607Y5701D01*
X27464D01*
Y17050D01*
X34464D01*
X38195Y13319D01*
X38067Y13128D01*
X37952Y12550D01*
X38067Y11971D01*
X38395Y11481D01*
X38885Y11153D01*
X39464Y11038D01*
X40042Y11153D01*
X40533Y11481D01*
X40861Y11971D01*
X40876Y12050D01*
X44964D01*
X52924Y20010D01*
X53237Y19995D01*
D02*
G37*
G36*
X171465Y27548D02*
X171595Y26528D01*
X171812Y25628D01*
X172117Y24848D01*
X172508Y24188D01*
X172985Y23648D01*
X173550Y23228D01*
X174202Y22928D01*
X174941Y22748D01*
X175766Y22688D01*
Y16688D01*
X174941Y16628D01*
X174202Y16448D01*
X173550Y16148D01*
X172985Y15728D01*
X172508Y15188D01*
X172117Y14528D01*
X171812Y13748D01*
X171595Y12848D01*
X171465Y11828D01*
X171421Y10688D01*
X165421Y19688D01*
X171421Y28688D01*
X171465Y27548D01*
D02*
G37*
G36*
X310459Y4190D02*
X310235Y4356D01*
X309915Y4504D01*
X309497Y4635D01*
X308982Y4748D01*
X308370Y4844D01*
X306854Y4984D01*
X304949Y5054D01*
X303852Y5062D01*
Y7562D01*
X304949Y7571D01*
X308370Y7781D01*
X308982Y7877D01*
X309497Y7990D01*
X309915Y8121D01*
X310235Y8269D01*
X310459Y8435D01*
Y4190D01*
D02*
G37*
G36*
X267983Y8575D02*
X268058Y8362D01*
X268184Y8175D01*
X268360Y8012D01*
X268586Y7875D01*
X268862Y7762D01*
X269189Y7675D01*
X269565Y7612D01*
X269992Y7575D01*
X270470Y7562D01*
Y5062D01*
X269992Y5050D01*
X269565Y5012D01*
X269189Y4950D01*
X268862Y4862D01*
X268586Y4750D01*
X268360Y4612D01*
X268184Y4450D01*
X268058Y4262D01*
X267983Y4050D01*
X267958Y3812D01*
Y8812D01*
X267983Y8575D01*
D02*
G37*
G36*
X452125Y6719D02*
X451517Y6090D01*
X450565Y4969D01*
X450220Y4477D01*
X449963Y4030D01*
X449794Y3628D01*
X449712Y3272D01*
X449717Y2961D01*
X449811Y2696D01*
X449991Y2476D01*
X446681Y5385D01*
X446687Y5417D01*
X446760Y5512D01*
X446900Y5672D01*
X449127Y7963D01*
X449730Y8567D01*
X452125Y6719D01*
D02*
G37*
G36*
X173923Y1861D02*
X173853Y1923D01*
X173774Y1979D01*
X173683Y2028D01*
X173582Y2070D01*
X173470Y2106D01*
X173347Y2135D01*
X173214Y2158D01*
X173071Y2175D01*
X172751Y2188D01*
Y3188D01*
X172916Y3191D01*
X173214Y3217D01*
X173347Y3240D01*
X173470Y3269D01*
X173582Y3305D01*
X173683Y3348D01*
X173774Y3397D01*
X173853Y3452D01*
X173923Y3514D01*
Y1861D01*
D02*
G37*
G36*
X109100Y5953D02*
X109227Y5647D01*
X109533Y5520D01*
Y4802D01*
X126533D01*
X127251Y5520D01*
X127676D01*
X127982Y5647D01*
X135839Y13504D01*
X135966Y13811D01*
Y14235D01*
X136033Y14302D01*
X138533D01*
Y806D01*
X104533D01*
Y14737D01*
X104891Y15031D01*
X105469Y15146D01*
X105959Y15473D01*
X106287Y15964D01*
X106402Y16542D01*
X106351Y16802D01*
X106722Y17302D01*
X109100D01*
Y5953D01*
D02*
G37*
G36*
X27031Y5701D02*
X27158Y5395D01*
X27464Y5268D01*
Y4550D01*
X44464D01*
X45182Y5268D01*
X45607D01*
X45913Y5395D01*
X53770Y13252D01*
X53897Y13558D01*
Y13983D01*
X53964Y14050D01*
X56464D01*
Y553D01*
X22464D01*
Y14484D01*
X22822Y14778D01*
X23400Y14893D01*
X23891Y15221D01*
X24218Y15711D01*
X24333Y16290D01*
X24282Y16550D01*
X24653Y17050D01*
X27031D01*
Y5701D01*
D02*
G37*
%LPC*%
G36*
X109241Y164089D02*
X108662Y163974D01*
X108172Y163647D01*
X107844Y163156D01*
X107729Y162578D01*
X107844Y161999D01*
X108172Y161509D01*
X108662Y161181D01*
X109241Y161066D01*
X109819Y161181D01*
X110310Y161509D01*
X110637Y161999D01*
X110752Y162578D01*
X110637Y163156D01*
X110310Y163647D01*
X109819Y163974D01*
X109241Y164089D01*
D02*
G37*
G36*
X105388Y156453D02*
Y155225D01*
X106616D01*
X106539Y155615D01*
X106234Y156071D01*
X105778Y156376D01*
X105388Y156453D01*
D02*
G37*
G36*
X105093D02*
X104703Y156376D01*
X104247Y156071D01*
X103943Y155615D01*
X103865Y155225D01*
X105093D01*
Y156453D01*
D02*
G37*
G36*
X106616Y154930D02*
X105388D01*
Y153702D01*
X105778Y153780D01*
X106234Y154084D01*
X106539Y154540D01*
X106616Y154930D01*
D02*
G37*
G36*
X105093D02*
X103865D01*
X103943Y154540D01*
X104247Y154084D01*
X104703Y153780D01*
X105093Y153702D01*
Y154930D01*
D02*
G37*
G36*
X116044Y151892D02*
X115465Y151778D01*
X114975Y151450D01*
X114647Y150959D01*
X114532Y150381D01*
X114647Y149802D01*
X114975Y149312D01*
X115465Y148984D01*
X116044Y148869D01*
X116622Y148984D01*
X117113Y149312D01*
X117440Y149802D01*
X117556Y150381D01*
X117440Y150959D01*
X117113Y151450D01*
X116622Y151778D01*
X116044Y151892D01*
D02*
G37*
G36*
X123364Y145618D02*
Y144390D01*
X124592D01*
X124515Y144780D01*
X124210Y145236D01*
X123754Y145541D01*
X123364Y145618D01*
D02*
G37*
G36*
X123069D02*
X122679Y145541D01*
X122223Y145236D01*
X121919Y144780D01*
X121841Y144390D01*
X123069D01*
Y145618D01*
D02*
G37*
G36*
X124592Y144095D02*
X123364D01*
Y142867D01*
X123754Y142945D01*
X124210Y143249D01*
X124515Y143705D01*
X124592Y144095D01*
D02*
G37*
G36*
X123069D02*
X121841D01*
X121919Y143705D01*
X122223Y143249D01*
X122679Y142945D01*
X123069Y142867D01*
Y144095D01*
D02*
G37*
G36*
X127741Y123589D02*
X127162Y123474D01*
X126672Y123147D01*
X126344Y122656D01*
X126229Y122078D01*
X126344Y121499D01*
X126672Y121009D01*
X127162Y120681D01*
X127741Y120566D01*
X128319Y120681D01*
X128810Y121009D01*
X129137Y121499D01*
X129253Y122078D01*
X129137Y122656D01*
X128810Y123147D01*
X128319Y123474D01*
X127741Y123589D01*
D02*
G37*
G36*
Y119690D02*
X127124Y119567D01*
X126601Y119218D01*
X126251Y118695D01*
X126129Y118078D01*
X126251Y117461D01*
X126601Y116938D01*
X127124Y116588D01*
X127741Y116466D01*
X128358Y116588D01*
X128881Y116938D01*
X129230Y117461D01*
X129353Y118078D01*
X129230Y118695D01*
X128881Y119218D01*
X128358Y119567D01*
X127741Y119690D01*
D02*
G37*
G36*
X123388Y114453D02*
Y113225D01*
X124616D01*
X124539Y113615D01*
X124234Y114071D01*
X123778Y114376D01*
X123388Y114453D01*
D02*
G37*
G36*
X123093D02*
X122703Y114376D01*
X122247Y114071D01*
X121943Y113615D01*
X121865Y113225D01*
X123093D01*
Y114453D01*
D02*
G37*
G36*
X124616Y112930D02*
X123388D01*
Y111702D01*
X123778Y111780D01*
X124234Y112084D01*
X124539Y112540D01*
X124616Y112930D01*
D02*
G37*
G36*
X123093D02*
X121865D01*
X121943Y112540D01*
X122247Y112084D01*
X122703Y111780D01*
X123093Y111702D01*
Y112930D01*
D02*
G37*
G36*
X27588Y163980D02*
X27009Y163865D01*
X26519Y163537D01*
X26191Y163047D01*
X26076Y162468D01*
X26191Y161890D01*
X26519Y161399D01*
X27009Y161072D01*
X27588Y160957D01*
X28167Y161072D01*
X28657Y161399D01*
X28985Y161890D01*
X29100Y162468D01*
X28985Y163047D01*
X28657Y163537D01*
X28167Y163865D01*
X27588Y163980D01*
D02*
G37*
G36*
X23736Y156344D02*
Y155116D01*
X24964D01*
X24886Y155506D01*
X24581Y155962D01*
X24126Y156266D01*
X23736Y156344D01*
D02*
G37*
G36*
X23440D02*
X23050Y156266D01*
X22595Y155962D01*
X22290Y155506D01*
X22212Y155116D01*
X23440D01*
Y156344D01*
D02*
G37*
G36*
X24964Y154821D02*
X23736D01*
Y153593D01*
X24126Y153670D01*
X24581Y153975D01*
X24886Y154431D01*
X24964Y154821D01*
D02*
G37*
G36*
X23440D02*
X22212D01*
X22290Y154431D01*
X22595Y153975D01*
X23050Y153670D01*
X23440Y153593D01*
Y154821D01*
D02*
G37*
G36*
X34391Y151783D02*
X33813Y151668D01*
X33322Y151340D01*
X32994Y150850D01*
X32879Y150272D01*
X32994Y149693D01*
X33322Y149203D01*
X33813Y148875D01*
X34391Y148760D01*
X34970Y148875D01*
X35460Y149203D01*
X35788Y149693D01*
X35903Y150272D01*
X35788Y150850D01*
X35460Y151340D01*
X34970Y151668D01*
X34391Y151783D01*
D02*
G37*
G36*
X41712Y145509D02*
Y144281D01*
X42940D01*
X42862Y144671D01*
X42557Y145127D01*
X42102Y145431D01*
X41712Y145509D01*
D02*
G37*
G36*
X41416D02*
X41026Y145431D01*
X40571Y145127D01*
X40266Y144671D01*
X40189Y144281D01*
X41416D01*
Y145509D01*
D02*
G37*
G36*
X42940Y143986D02*
X41712D01*
Y142758D01*
X42102Y142835D01*
X42557Y143140D01*
X42862Y143596D01*
X42940Y143986D01*
D02*
G37*
G36*
X41416D02*
X40189D01*
X40266Y143596D01*
X40571Y143140D01*
X41026Y142835D01*
X41416Y142758D01*
Y143986D01*
D02*
G37*
G36*
X46088Y123480D02*
X45509Y123365D01*
X45019Y123037D01*
X44691Y122547D01*
X44576Y121968D01*
X44691Y121390D01*
X45019Y120899D01*
X45509Y120572D01*
X46088Y120457D01*
X46667Y120572D01*
X47157Y120899D01*
X47485Y121390D01*
X47600Y121968D01*
X47485Y122547D01*
X47157Y123037D01*
X46667Y123365D01*
X46088Y123480D01*
D02*
G37*
G36*
Y119580D02*
X45471Y119458D01*
X44948Y119108D01*
X44599Y118585D01*
X44476Y117968D01*
X44599Y117351D01*
X44948Y116829D01*
X45471Y116479D01*
X46088Y116356D01*
X46705Y116479D01*
X47228Y116829D01*
X47577Y117351D01*
X47700Y117968D01*
X47577Y118585D01*
X47228Y119108D01*
X46705Y119458D01*
X46088Y119580D01*
D02*
G37*
G36*
X41736Y114344D02*
Y113116D01*
X42964D01*
X42886Y113506D01*
X42581Y113962D01*
X42126Y114266D01*
X41736Y114344D01*
D02*
G37*
G36*
X41440D02*
X41050Y114266D01*
X40595Y113962D01*
X40290Y113506D01*
X40213Y113116D01*
X41440D01*
Y114344D01*
D02*
G37*
G36*
X42964Y112821D02*
X41736D01*
Y111593D01*
X42126Y111670D01*
X42581Y111975D01*
X42886Y112431D01*
X42964Y112821D01*
D02*
G37*
G36*
X41440D02*
X40213D01*
X40290Y112431D01*
X40595Y111975D01*
X41050Y111670D01*
X41440Y111593D01*
Y112821D01*
D02*
G37*
G36*
X112034Y106099D02*
Y104871D01*
X113262D01*
X113184Y105261D01*
X112880Y105717D01*
X112424Y106021D01*
X112034Y106099D01*
D02*
G37*
G36*
X111739D02*
X111349Y106021D01*
X110893Y105717D01*
X110588Y105261D01*
X110511Y104871D01*
X111739D01*
Y106099D01*
D02*
G37*
G36*
X113262Y104576D02*
X112034D01*
Y103348D01*
X112424Y103425D01*
X112880Y103730D01*
X113184Y104186D01*
X113262Y104576D01*
D02*
G37*
G36*
X111739D02*
X110511D01*
X110588Y104186D01*
X110893Y103730D01*
X111349Y103425D01*
X111739Y103348D01*
Y104576D01*
D02*
G37*
G36*
X30381Y105990D02*
Y104762D01*
X31609D01*
X31532Y105152D01*
X31227Y105608D01*
X30771Y105912D01*
X30381Y105990D01*
D02*
G37*
G36*
X30086D02*
X29696Y105912D01*
X29240Y105608D01*
X28936Y105152D01*
X28858Y104762D01*
X30086D01*
Y105990D01*
D02*
G37*
G36*
X31609Y104466D02*
X30381D01*
Y103238D01*
X30771Y103316D01*
X31227Y103621D01*
X31532Y104077D01*
X31609Y104466D01*
D02*
G37*
G36*
X30086D02*
X28858D01*
X28936Y104077D01*
X29240Y103621D01*
X29696Y103316D01*
X30086Y103238D01*
Y104466D01*
D02*
G37*
G36*
X107419Y102422D02*
Y101194D01*
X108647D01*
X108570Y101584D01*
X108265Y102040D01*
X107809Y102345D01*
X107419Y102422D01*
D02*
G37*
G36*
X107124D02*
X106734Y102345D01*
X106278Y102040D01*
X105974Y101584D01*
X105896Y101194D01*
X107124D01*
Y102422D01*
D02*
G37*
G36*
X108647Y100899D02*
X107419D01*
Y99671D01*
X107809Y99749D01*
X108265Y100053D01*
X108570Y100509D01*
X108647Y100899D01*
D02*
G37*
G36*
X107124D02*
X105896D01*
X105974Y100509D01*
X106278Y100053D01*
X106734Y99749D01*
X107124Y99671D01*
Y100899D01*
D02*
G37*
G36*
X25767Y102313D02*
Y101085D01*
X26995D01*
X26917Y101475D01*
X26612Y101931D01*
X26157Y102235D01*
X25767Y102313D01*
D02*
G37*
G36*
X25471D02*
X25081Y102235D01*
X24626Y101931D01*
X24321Y101475D01*
X24243Y101085D01*
X25471D01*
Y102313D01*
D02*
G37*
G36*
X26995Y100790D02*
X25767D01*
Y99562D01*
X26157Y99639D01*
X26612Y99944D01*
X26917Y100400D01*
X26995Y100790D01*
D02*
G37*
G36*
X25471D02*
X24243D01*
X24321Y100400D01*
X24626Y99944D01*
X25081Y99639D01*
X25471Y99562D01*
Y100790D01*
D02*
G37*
G36*
X109033Y67314D02*
X108454Y67199D01*
X107964Y66871D01*
X107636Y66381D01*
X107521Y65802D01*
X107636Y65224D01*
X107964Y64733D01*
X108454Y64405D01*
X109033Y64290D01*
X109611Y64405D01*
X110102Y64733D01*
X110429Y65224D01*
X110545Y65802D01*
X110429Y66381D01*
X110102Y66871D01*
X109611Y67199D01*
X109033Y67314D01*
D02*
G37*
G36*
X105180Y59678D02*
Y58450D01*
X106408D01*
X106331Y58840D01*
X106026Y59295D01*
X105570Y59600D01*
X105180Y59678D01*
D02*
G37*
G36*
X104885D02*
X104495Y59600D01*
X104039Y59295D01*
X103735Y58840D01*
X103657Y58450D01*
X104885D01*
Y59678D01*
D02*
G37*
G36*
X106408Y58154D02*
X105180D01*
Y56927D01*
X105570Y57004D01*
X106026Y57309D01*
X106331Y57764D01*
X106408Y58154D01*
D02*
G37*
G36*
X104885D02*
X103657D01*
X103735Y57764D01*
X104039Y57309D01*
X104495Y57004D01*
X104885Y56927D01*
Y58154D01*
D02*
G37*
G36*
X115836Y55117D02*
X115257Y55002D01*
X114767Y54674D01*
X114439Y54184D01*
X114324Y53605D01*
X114439Y53027D01*
X114767Y52536D01*
X115257Y52209D01*
X115836Y52093D01*
X116414Y52209D01*
X116905Y52536D01*
X117233Y53027D01*
X117348Y53605D01*
X117233Y54184D01*
X116905Y54674D01*
X116414Y55002D01*
X115836Y55117D01*
D02*
G37*
G36*
X123156Y48843D02*
Y47615D01*
X124384D01*
X124307Y48005D01*
X124002Y48461D01*
X123546Y48765D01*
X123156Y48843D01*
D02*
G37*
G36*
X122861D02*
X122471Y48765D01*
X122015Y48461D01*
X121711Y48005D01*
X121633Y47615D01*
X122861D01*
Y48843D01*
D02*
G37*
G36*
X124384Y47319D02*
X123156D01*
Y46091D01*
X123546Y46169D01*
X124002Y46474D01*
X124307Y46929D01*
X124384Y47319D01*
D02*
G37*
G36*
X122861D02*
X121633D01*
X121711Y46929D01*
X122015Y46474D01*
X122471Y46169D01*
X122861Y46091D01*
Y47319D01*
D02*
G37*
G36*
X127533Y26814D02*
X126954Y26699D01*
X126464Y26371D01*
X126136Y25881D01*
X126021Y25302D01*
X126136Y24724D01*
X126464Y24233D01*
X126954Y23905D01*
X127533Y23790D01*
X128111Y23905D01*
X128602Y24233D01*
X128929Y24724D01*
X129044Y25302D01*
X128929Y25881D01*
X128602Y26371D01*
X128111Y26699D01*
X127533Y26814D01*
D02*
G37*
G36*
Y22914D02*
X126916Y22792D01*
X126393Y22442D01*
X126043Y21919D01*
X125921Y21302D01*
X126043Y20685D01*
X126393Y20162D01*
X126916Y19813D01*
X127533Y19690D01*
X128150Y19813D01*
X128673Y20162D01*
X129022Y20685D01*
X129145Y21302D01*
X129022Y21919D01*
X128673Y22442D01*
X128150Y22792D01*
X127533Y22914D01*
D02*
G37*
G36*
X123180Y17678D02*
Y16450D01*
X124408D01*
X124331Y16840D01*
X124026Y17296D01*
X123570Y17600D01*
X123180Y17678D01*
D02*
G37*
G36*
X122885D02*
X122495Y17600D01*
X122039Y17296D01*
X121735Y16840D01*
X121657Y16450D01*
X122885D01*
Y17678D01*
D02*
G37*
G36*
X124408Y16154D02*
X123180D01*
Y14927D01*
X123570Y15004D01*
X124026Y15309D01*
X124331Y15764D01*
X124408Y16154D01*
D02*
G37*
G36*
X122885D02*
X121657D01*
X121735Y15764D01*
X122039Y15309D01*
X122495Y15004D01*
X122885Y14927D01*
Y16154D01*
D02*
G37*
G36*
X26964Y67061D02*
X26385Y66946D01*
X25895Y66619D01*
X25567Y66128D01*
X25452Y65550D01*
X25567Y64971D01*
X25895Y64481D01*
X26385Y64153D01*
X26964Y64038D01*
X27542Y64153D01*
X28033Y64481D01*
X28361Y64971D01*
X28476Y65550D01*
X28361Y66128D01*
X28033Y66619D01*
X27542Y66946D01*
X26964Y67061D01*
D02*
G37*
G36*
X23112Y59425D02*
Y58197D01*
X24340D01*
X24262Y58587D01*
X23957Y59043D01*
X23502Y59348D01*
X23112Y59425D01*
D02*
G37*
G36*
X22816D02*
X22426Y59348D01*
X21971Y59043D01*
X21666Y58587D01*
X21588Y58197D01*
X22816D01*
Y59425D01*
D02*
G37*
G36*
X24340Y57902D02*
X23112D01*
Y56674D01*
X23502Y56752D01*
X23957Y57056D01*
X24262Y57512D01*
X24340Y57902D01*
D02*
G37*
G36*
X22816D02*
X21588D01*
X21666Y57512D01*
X21971Y57056D01*
X22426Y56752D01*
X22816Y56674D01*
Y57902D01*
D02*
G37*
G36*
X33767Y54865D02*
X33189Y54750D01*
X32698Y54422D01*
X32370Y53931D01*
X32255Y53353D01*
X32370Y52774D01*
X32698Y52284D01*
X33189Y51956D01*
X33767Y51841D01*
X34346Y51956D01*
X34836Y52284D01*
X35164Y52774D01*
X35279Y53353D01*
X35164Y53931D01*
X34836Y54422D01*
X34346Y54750D01*
X33767Y54865D01*
D02*
G37*
G36*
X41088Y48590D02*
Y47362D01*
X42316D01*
X42238Y47752D01*
X41933Y48208D01*
X41478Y48513D01*
X41088Y48590D01*
D02*
G37*
G36*
X40792D02*
X40402Y48513D01*
X39946Y48208D01*
X39642Y47752D01*
X39564Y47362D01*
X40792D01*
Y48590D01*
D02*
G37*
G36*
X42316Y47067D02*
X41088D01*
Y45839D01*
X41478Y45917D01*
X41933Y46221D01*
X42238Y46677D01*
X42316Y47067D01*
D02*
G37*
G36*
X40792D02*
X39564D01*
X39642Y46677D01*
X39946Y46221D01*
X40402Y45917D01*
X40792Y45839D01*
Y47067D01*
D02*
G37*
G36*
X45464Y26561D02*
X44885Y26446D01*
X44395Y26119D01*
X44067Y25628D01*
X43952Y25050D01*
X44067Y24471D01*
X44395Y23981D01*
X44885Y23653D01*
X45464Y23538D01*
X46042Y23653D01*
X46533Y23981D01*
X46861Y24471D01*
X46976Y25050D01*
X46861Y25628D01*
X46533Y26119D01*
X46042Y26446D01*
X45464Y26561D01*
D02*
G37*
G36*
Y22662D02*
X44847Y22539D01*
X44324Y22190D01*
X43975Y21667D01*
X43852Y21050D01*
X43975Y20433D01*
X44324Y19910D01*
X44847Y19560D01*
X45464Y19438D01*
X46081Y19560D01*
X46604Y19910D01*
X46953Y20433D01*
X47076Y21050D01*
X46953Y21667D01*
X46604Y22190D01*
X46081Y22539D01*
X45464Y22662D01*
D02*
G37*
G36*
X41112Y17425D02*
Y16197D01*
X42340D01*
X42262Y16587D01*
X41957Y17043D01*
X41502Y17348D01*
X41112Y17425D01*
D02*
G37*
G36*
X40816D02*
X40426Y17348D01*
X39970Y17043D01*
X39666Y16587D01*
X39588Y16197D01*
X40816D01*
Y17425D01*
D02*
G37*
G36*
X42340Y15902D02*
X41112D01*
Y14674D01*
X41502Y14752D01*
X41957Y15056D01*
X42262Y15512D01*
X42340Y15902D01*
D02*
G37*
G36*
X40816D02*
X39588D01*
X39666Y15512D01*
X39970Y15056D01*
X40426Y14752D01*
X40816Y14674D01*
Y15902D01*
D02*
G37*
G36*
X111826Y9323D02*
Y8095D01*
X113054D01*
X112976Y8485D01*
X112672Y8941D01*
X112216Y9246D01*
X111826Y9323D01*
D02*
G37*
G36*
X111531D02*
X111141Y9246D01*
X110685Y8941D01*
X110380Y8485D01*
X110303Y8095D01*
X111531D01*
Y9323D01*
D02*
G37*
G36*
X113054Y7800D02*
X111826D01*
Y6572D01*
X112216Y6650D01*
X112672Y6954D01*
X112976Y7410D01*
X113054Y7800D01*
D02*
G37*
G36*
X111531D02*
X110303D01*
X110380Y7410D01*
X110685Y6954D01*
X111141Y6650D01*
X111531Y6572D01*
Y7800D01*
D02*
G37*
G36*
X29757Y9071D02*
Y7843D01*
X30985D01*
X30908Y8233D01*
X30603Y8689D01*
X30147Y8993D01*
X29757Y9071D01*
D02*
G37*
G36*
X29462D02*
X29072Y8993D01*
X28616Y8689D01*
X28312Y8233D01*
X28234Y7843D01*
X29462D01*
Y9071D01*
D02*
G37*
G36*
X30985Y7548D02*
X29757D01*
Y6320D01*
X30147Y6397D01*
X30603Y6702D01*
X30908Y7158D01*
X30985Y7548D01*
D02*
G37*
G36*
X29462D02*
X28234D01*
X28312Y7158D01*
X28616Y6702D01*
X29072Y6397D01*
X29462Y6320D01*
Y7548D01*
D02*
G37*
G36*
X107211Y5647D02*
Y4419D01*
X108439D01*
X108362Y4809D01*
X108057Y5265D01*
X107601Y5569D01*
X107211Y5647D01*
D02*
G37*
G36*
X106916D02*
X106526Y5569D01*
X106070Y5265D01*
X105766Y4809D01*
X105688Y4419D01*
X106916D01*
Y5647D01*
D02*
G37*
G36*
X108439Y4123D02*
X107211D01*
Y2895D01*
X107601Y2973D01*
X108057Y3278D01*
X108362Y3733D01*
X108439Y4123D01*
D02*
G37*
G36*
X106916D02*
X105688D01*
X105766Y3733D01*
X106070Y3278D01*
X106526Y2973D01*
X106916Y2895D01*
Y4123D01*
D02*
G37*
G36*
X25143Y5394D02*
Y4166D01*
X26370D01*
X26293Y4556D01*
X25988Y5012D01*
X25533Y5317D01*
X25143Y5394D01*
D02*
G37*
G36*
X24847D02*
X24457Y5317D01*
X24002Y5012D01*
X23697Y4556D01*
X23619Y4166D01*
X24847D01*
Y5394D01*
D02*
G37*
G36*
X26370Y3871D02*
X25143D01*
Y2643D01*
X25533Y2721D01*
X25988Y3025D01*
X26293Y3481D01*
X26370Y3871D01*
D02*
G37*
G36*
X24847D02*
X23619D01*
X23697Y3481D01*
X24002Y3025D01*
X24457Y2721D01*
X24847Y2643D01*
Y3871D01*
D02*
G37*
%LPD*%
D18*
X174766Y2688D02*
X168766D01*
X168421Y3032D01*
X176766Y39688D02*
X175766D01*
X181766Y34688D02*
X176766Y39688D01*
X190766Y30406D02*
X186484Y34688D01*
X181766D01*
X190766Y19688D02*
Y30406D01*
X193266Y32188D02*
X185766Y39688D01*
X193266Y20688D02*
Y32188D01*
X195266Y18688D02*
X193266Y20688D01*
X201935Y18688D02*
X195266D01*
X210098Y17188D02*
X193266D01*
X190766Y19688D01*
X210098Y17188D02*
X215743Y22832D01*
X201935Y18688D02*
X212766Y29519D01*
Y53188D01*
X215766Y126188D02*
Y130188D01*
X217766Y134188D02*
X216266Y135688D01*
X201098Y109688D02*
X217766Y126356D01*
Y134188D01*
X203310Y113731D02*
X184091D01*
X203310D02*
X215766Y126188D01*
X201098Y109688D02*
X185766D01*
X224266Y125188D02*
Y139188D01*
X203971Y104892D02*
X224266Y125188D01*
Y139188D02*
X220766Y142688D01*
X222766Y134188D02*
X221266Y135688D01*
X222766Y125519D02*
Y134188D01*
X203434Y106188D02*
X222766Y125519D01*
X220766Y142688D02*
Y142688D01*
X214266Y57688D02*
Y57688D01*
X215743Y22832D02*
Y56211D01*
X214266Y57688D01*
X187441Y55644D02*
X191461Y59664D01*
X215958D02*
X191461D01*
X225266Y50356D02*
X215958Y59664D01*
X185766Y59688D02*
X187038Y60959D01*
X216495D02*
X187038D01*
X226562Y50892D02*
X216495Y60959D01*
X226562Y29983D02*
Y50892D01*
X225266Y28688D02*
X226562Y29983D01*
X225266Y32688D02*
Y50356D01*
X223266Y30688D02*
X225266Y32688D01*
X184091Y55644D02*
X180514Y59222D01*
X187441Y55644D02*
X184091D01*
X176232Y59222D02*
X175766Y59688D01*
X180514Y59222D02*
X176232D01*
X203434Y106188D02*
X190435D01*
X188293Y104046D02*
X190435Y106188D01*
X185766Y99688D02*
X190971Y104892D01*
X203971D02*
X190971D01*
X175766Y99688D02*
X176232Y100154D01*
X180514D02*
X176232D01*
X180514D02*
X184407Y104046D01*
X188293D02*
X184407D01*
X180514Y110154D02*
X184091Y113731D01*
X180514Y110154D02*
X176232D01*
X175766Y109688D02*
X176232Y110154D01*
D20*
X140735Y111217D02*
X141158Y111641D01*
X140996Y115416D02*
X141158Y115578D01*
X128580Y101047D02*
X107272D01*
X140996Y115416D02*
X138984D01*
X112032Y104578D02*
X111886Y104723D01*
X127741Y104578D02*
X112032D01*
X137644Y110110D02*
Y114076D01*
X128580Y101047D02*
X137644Y110110D01*
Y114076D02*
X138984Y115416D01*
X127741Y104578D02*
X134554Y111391D01*
Y115356D01*
X138289Y119091D01*
X140506D02*
X140929Y119515D01*
X141158D02*
X140929D01*
X140506Y119091D02*
X138289D01*
X59082Y111108D02*
X59505Y111531D01*
X59343Y115306D02*
X59505Y115469D01*
X46928Y100937D02*
X25619D01*
X59343Y115306D02*
X57331D01*
X30379Y104468D02*
X30234Y104614D01*
X46088Y104468D02*
X30379D01*
X55992Y110001D02*
Y113967D01*
X46928Y100937D02*
X55992Y110001D01*
Y113967D02*
X57331Y115306D01*
X46088Y104468D02*
X52901Y111281D01*
Y115247D01*
X56636Y118982D01*
X58853D02*
X59276Y119405D01*
X59505D02*
X59276D01*
X58853Y118982D02*
X56636D01*
X58458Y14189D02*
X58881Y14613D01*
X58719Y18388D02*
X58881Y18550D01*
X46304Y4019D02*
X24995D01*
X58719Y18388D02*
X56707D01*
X29755Y7550D02*
X29610Y7695D01*
X45464Y7550D02*
X29755D01*
X55367Y13083D02*
Y17048D01*
X46304Y4019D02*
X55367Y13083D01*
Y17048D02*
X56707Y18388D01*
X45464Y7550D02*
X52277Y14363D01*
Y18328D01*
X56012Y22063D01*
X58229D02*
X58652Y22487D01*
X58881D02*
X58652D01*
X58229Y22063D02*
X56012D01*
X401579Y165479D02*
X401741Y165641D01*
X405678Y165412D02*
Y165641D01*
X397380Y165218D02*
X397804Y165641D01*
X531664Y3765D02*
X532087Y4188D01*
X523790Y3765D02*
Y3994D01*
X527727Y3765D02*
X527889Y3927D01*
X485079Y165479D02*
X485241Y165641D01*
X489178Y165412D02*
Y165641D01*
X480880Y165218D02*
X481304Y165641D01*
X448164Y3724D02*
X448587Y4147D01*
X440290Y3724D02*
Y3953D01*
X444227Y3724D02*
X444389Y3886D01*
X282234Y84812D02*
X311579D01*
X312579Y83812D01*
X277234Y89812D02*
X282234Y84812D01*
X254734Y163312D02*
X259527Y158519D01*
X270940D01*
X276234Y163812D02*
X270940Y158519D01*
X264734Y6312D02*
X312579D01*
X210266Y94688D02*
X168421D01*
X219266Y85688D02*
X210266Y94688D01*
X370095Y619934D02*
X370257Y619771D01*
X366159Y619934D02*
Y619704D01*
X374032Y619934D02*
X374456Y619510D01*
X175567Y464328D02*
X175144Y463905D01*
Y456031D02*
X175373D01*
X175306Y460130D02*
X175144Y459968D01*
X530061Y424982D02*
X529899Y424820D01*
X529832Y428919D02*
X530061D01*
Y421045D02*
X529638Y420621D01*
X330749Y265439D02*
X331172Y265016D01*
X339046Y265245D02*
Y265016D01*
X334947Y265178D02*
X335109Y265016D01*
X140527Y14442D02*
X140950Y14865D01*
X140788Y18640D02*
X140950Y18802D01*
X128373Y4271D02*
X107064D01*
X140788Y18640D02*
X138776D01*
X111824Y7802D02*
X111678Y7948D01*
X127533Y7802D02*
X111824D01*
X137436Y13335D02*
Y17301D01*
X128373Y4271D02*
X137436Y13335D01*
Y17301D02*
X138776Y18640D01*
X127533Y7802D02*
X134346Y14615D01*
Y18581D01*
X138081Y22316D01*
X140298D02*
X140721Y22739D01*
X140950D02*
X140721D01*
X140298Y22316D02*
X138081D01*
D21*
X281234Y107312D02*
X294190Y94356D01*
X300690D02*
X305234Y89812D01*
X294190Y94356D02*
X300690D01*
X278938Y106239D02*
X295234Y89943D01*
Y89812D01*
X278938Y123608D02*
Y106239D01*
X281234Y124558D02*
Y107312D01*
X274690Y127856D02*
X278938Y123608D01*
X267023Y138769D02*
X281234Y124558D01*
X250190Y148769D02*
Y141027D01*
X253362Y137856D01*
X254734Y143312D02*
X255734D01*
X260277Y138769D02*
X267023D01*
X255734Y143312D02*
X260277Y138769D01*
X259734Y135312D02*
Y131887D01*
X257190Y137856D02*
X259734Y135312D01*
Y131887D02*
X263765Y127856D01*
X253362Y137856D02*
X257190D01*
X263765Y127856D02*
X274690D01*
X276234Y37812D02*
X264734Y26312D01*
X292031Y74356D02*
X276234Y58558D01*
Y37812D01*
X290566Y69644D02*
X278529Y57608D01*
Y30608D01*
X264734Y16812D01*
X290566Y69644D02*
X295066D01*
X295234Y69812D02*
X295066Y69644D01*
X292031Y74356D02*
X300690D01*
X264734Y16812D02*
Y16312D01*
X300690Y74356D02*
X305234Y69812D01*
X254734Y153312D02*
X250190Y148769D01*
D22*
X127368Y113078D02*
X123241D01*
X127368D02*
X137675Y123385D01*
X123241Y144219D02*
X123217Y144243D01*
X141092Y123385D02*
X137675D01*
X45715Y112968D02*
X41588D01*
X45715D02*
X56023Y123276D01*
X41588Y144109D02*
X41564Y144133D01*
X59439Y123276D02*
X56023D01*
X45091Y16050D02*
X40964D01*
X45091D02*
X55399Y26357D01*
X40964Y47191D02*
X40940Y47215D01*
X58815Y26357D02*
X55399D01*
X409548Y165575D02*
X409615Y165641D01*
X519853Y3765D02*
X519919Y3831D01*
X493048Y165575D02*
X493115Y165641D01*
X436353Y3724D02*
X436419Y3790D01*
X570734Y85182D02*
X578230D01*
X571734Y84683D02*
X578730D01*
X571234Y84183D02*
X571734Y84683D01*
X578230Y85182D02*
X578730Y84683D01*
X350738D02*
Y103686D01*
X375234Y128182D01*
X359109Y80932D02*
X382234D01*
X355359Y84683D02*
X359109Y80932D01*
X350738Y84683D02*
X355359D01*
X382234Y80932D02*
Y95933D01*
X519734Y48182D02*
X520031Y47885D01*
X523734Y42182D02*
X523968Y41948D01*
X527905Y35511D02*
X528234Y35182D01*
X532126Y29574D02*
X532234Y29682D01*
X440641Y7512D02*
X474812Y41682D01*
X479734D01*
X436597Y9058D02*
X475221Y47682D01*
X480234D01*
X473889Y35682D02*
X478734D01*
X478859Y35557D01*
X472967Y29682D02*
X477734D01*
X448342Y3724D02*
X448515Y3897D01*
Y5231D01*
X472967Y29682D01*
X444471Y3790D02*
Y6264D01*
X473889Y35682D01*
X440468Y3818D02*
X440641Y3991D01*
Y7512D01*
X440468Y3724D02*
Y3818D01*
X436597Y3790D02*
Y9058D01*
X436531Y3724D02*
X436597Y3790D01*
X444405Y3724D02*
X444471Y3790D01*
X362222Y619934D02*
X362288Y619867D01*
X175210Y452160D02*
X175144Y452094D01*
X530061Y432856D02*
X529995Y432790D01*
X342917Y265083D02*
X342983Y265016D01*
X127160Y16302D02*
X123033D01*
X127160D02*
X137467Y26610D01*
X123033Y47443D02*
X123009Y47467D01*
X140884Y26610D02*
X137467D01*
D23*
X312579Y83812D02*
Y6312D01*
Y149812D02*
Y83812D01*
X276234Y163812D02*
X309064D01*
X312579Y160298D01*
Y149812D01*
X305234D02*
X312579D01*
X168421Y94688D02*
Y103688D01*
Y19688D02*
Y94688D01*
Y3032D02*
Y19688D01*
X175766D02*
X168421D01*
D25*
X569234Y118683D02*
X570734Y117183D01*
X578730Y84683D02*
Y87155D01*
X570734Y95151D02*
X578730Y87155D01*
X570734Y95151D02*
Y117183D01*
X564915Y46864D02*
Y106226D01*
X555734Y29682D02*
X570734Y44682D01*
X578730Y82210D02*
Y84683D01*
X570734Y74214D02*
X578730Y82210D01*
X570734Y44682D02*
Y74214D01*
X553609Y35557D02*
X564915Y46864D01*
X523968Y41682D02*
X551827D01*
X559324Y49179D02*
Y93273D01*
X549734Y47682D02*
X553734Y51683D01*
X532234Y29682D02*
X555734D01*
X551827Y41682D02*
X559324Y49179D01*
X553734Y51683D02*
Y79682D01*
X528234Y35557D02*
X553609D01*
X520031Y47682D02*
X549734D01*
X546143Y124273D02*
X593643D01*
X548459Y129864D02*
X598053D01*
X550637Y135592D02*
X593738D01*
X552952Y141182D02*
X589734D01*
X375234Y128182D02*
X395234Y148182D01*
X409734D01*
X480234Y47682D02*
X519734D01*
X479734Y41682D02*
X523734D01*
X478859Y35557D02*
X527905D01*
X477734Y29682D02*
X532234D01*
X431237Y136897D02*
X541425D01*
X543544Y142684D02*
X550637Y135592D01*
X593738D02*
X597829Y139682D01*
X545726Y148409D02*
X552952Y141182D01*
X589734D02*
X598234Y149682D01*
X593643Y124273D02*
X598234Y119683D01*
X539110Y131307D02*
X546143Y124273D01*
X598053Y129864D02*
X598234Y129683D01*
X541425Y136897D02*
X548459Y129864D01*
X409734Y148182D02*
X480781D01*
X481007Y148409D01*
X420734Y142527D02*
X485078D01*
X485236Y142684D01*
X431234Y136894D02*
X431237Y136897D01*
X442234Y131183D02*
X492986D01*
X493110Y131307D01*
X539110D01*
X481007Y148409D02*
X545726D01*
X485236Y142684D02*
X543544D01*
X597829Y139682D02*
X598234D01*
D27*
X17602Y644975D02*
X72102D01*
X19382Y624491D02*
X19398Y624475D01*
X81557D01*
X17602Y644975D02*
X9382Y636754D01*
Y634491D01*
X19382D02*
X19398Y634475D01*
X76580D01*
D30*
X141158Y115400D02*
D03*
Y119336D02*
D03*
Y123274D02*
D03*
X59505Y115290D02*
D03*
Y119227D02*
D03*
Y123164D02*
D03*
X58881Y18372D02*
D03*
Y22309D02*
D03*
Y26246D02*
D03*
X401562Y165641D02*
D03*
X405500D02*
D03*
X409437D02*
D03*
X520031Y3765D02*
D03*
X523968D02*
D03*
X527905D02*
D03*
X485063Y165641D02*
D03*
X489000D02*
D03*
X492937D02*
D03*
X436531Y3724D02*
D03*
X440468D02*
D03*
X444405D02*
D03*
X370274Y619934D02*
D03*
X366337D02*
D03*
X362400D02*
D03*
X175144Y452272D02*
D03*
Y456209D02*
D03*
Y460146D02*
D03*
X530061Y424804D02*
D03*
Y428741D02*
D03*
Y432678D02*
D03*
X342805Y265016D02*
D03*
X338868D02*
D03*
X334931D02*
D03*
X140950Y18624D02*
D03*
Y22561D02*
D03*
Y26498D02*
D03*
D31*
X141158Y111462D02*
D03*
X59505Y111353D02*
D03*
X58881Y14435D02*
D03*
X175144Y464083D02*
D03*
X530061Y420867D02*
D03*
X140950Y14687D02*
D03*
D32*
X105241Y155078D02*
D03*
X123241Y113078D02*
D03*
X111886Y104723D02*
D03*
X107272Y101047D02*
D03*
X123217Y144243D02*
D03*
X23588Y154968D02*
D03*
X41588Y112968D02*
D03*
X30234Y104614D02*
D03*
X25619Y100937D02*
D03*
X41564Y144133D02*
D03*
X22964Y58050D02*
D03*
X40964Y16050D02*
D03*
X29610Y7695D02*
D03*
X24995Y4019D02*
D03*
X40940Y47215D02*
D03*
X569234Y118683D02*
D03*
X564915Y106226D02*
D03*
X553734Y79682D02*
D03*
X559324Y93273D02*
D03*
X520031Y47885D02*
D03*
X523968Y41948D02*
D03*
X527905Y35511D02*
D03*
X532126Y29574D02*
D03*
X409734Y148182D02*
D03*
X420734Y142527D02*
D03*
X431234Y136894D02*
D03*
X442234Y131183D02*
D03*
X481007Y148409D02*
D03*
X489005Y137001D02*
D03*
X485236Y142684D02*
D03*
X493110Y131307D02*
D03*
X118102Y349975D02*
D03*
X130102Y329975D02*
D03*
X141102Y310475D02*
D03*
X138102Y452272D02*
D03*
X133102Y455975D02*
D03*
X121602Y459975D02*
D03*
X335102Y211975D02*
D03*
X339102Y222475D02*
D03*
X342602Y233975D02*
D03*
X583463Y424979D02*
D03*
X572308Y428335D02*
D03*
X561102Y432475D02*
D03*
X366102Y661475D02*
D03*
X366193Y657975D02*
D03*
X370104Y669475D02*
D03*
X362644Y648389D02*
D03*
X362602Y651475D02*
D03*
X189602Y648975D02*
D03*
X180602Y670475D02*
D03*
X185102Y659475D02*
D03*
X136921Y650794D02*
D03*
X138113Y671971D02*
D03*
X137602Y661475D02*
D03*
X141305Y452272D02*
D03*
X118602Y459975D02*
D03*
X129602Y455975D02*
D03*
X342619Y231137D02*
D03*
X586102Y424975D02*
D03*
X575102Y428975D02*
D03*
X334890Y208763D02*
D03*
X339102Y219975D02*
D03*
X135102Y661384D02*
D03*
X134421Y650794D02*
D03*
X135102Y671975D02*
D03*
X183148D02*
D03*
X187535Y661384D02*
D03*
X191921Y650794D02*
D03*
X564102Y432475D02*
D03*
X370102Y672475D02*
D03*
X105033Y58302D02*
D03*
X123033Y16302D02*
D03*
X111678Y7948D02*
D03*
X107064Y4271D02*
D03*
X123009Y47467D02*
D03*
D33*
X174766Y2688D02*
D03*
X215766Y130188D02*
D03*
X220766Y142688D02*
D03*
X221266Y135688D02*
D03*
X212766Y53188D02*
D03*
X214266Y57688D02*
D03*
X225266Y28688D02*
D03*
X223266Y30688D02*
D03*
X216266Y135688D02*
D03*
D34*
X397625Y165641D02*
D03*
X531842Y3765D02*
D03*
X481125Y165641D02*
D03*
X448342Y3724D02*
D03*
X374211Y619934D02*
D03*
X330994Y265016D02*
D03*
D35*
X375234Y128182D02*
D03*
D37*
X598234Y119683D02*
D03*
Y129683D02*
D03*
Y149682D02*
D03*
Y139682D02*
D03*
X264734Y26312D02*
D03*
Y16312D02*
D03*
X305234Y69812D02*
D03*
X295234D02*
D03*
X305234Y89812D02*
D03*
X295234D02*
D03*
X305234Y149812D02*
D03*
X254734Y153312D02*
D03*
Y143312D02*
D03*
X175766Y99688D02*
D03*
X185766D02*
D03*
X175766Y39688D02*
D03*
X185766D02*
D03*
X175766Y19688D02*
D03*
X185766Y59688D02*
D03*
X175766D02*
D03*
X185766Y109688D02*
D03*
X175766D02*
D03*
X19382Y634491D02*
D03*
Y624491D02*
D03*
D38*
X264734Y6312D02*
D03*
X254734Y163312D02*
D03*
X9382Y634491D02*
D03*
D40*
X578730Y84683D02*
D03*
X350738D02*
D03*
D41*
X382234Y80932D02*
D03*
Y95933D02*
D03*
D42*
X277234Y89812D02*
D03*
D44*
X219266Y85688D02*
D03*
D54*
X118602Y459975D02*
Y280020D01*
X183148Y671975D02*
X406102D01*
X129602Y455975D02*
Y283998D01*
X140693Y523634D02*
Y287884D01*
X99102Y671975D02*
X72102Y644975D01*
X99102Y671975D02*
X135102D01*
X103489Y661384D02*
X76580Y634475D01*
X103489Y661384D02*
X135102D01*
X107876Y650794D02*
X81557Y624475D01*
X107876Y650794D02*
X134421D01*
X197441Y231137D02*
X342619D01*
X564102Y483475D02*
Y432475D01*
X191921Y650794D02*
X396783D01*
X191921D02*
X140602Y599475D01*
Y523725D02*
X140693Y523634D01*
X118602Y607429D02*
Y459975D01*
X183148Y671975D02*
X118602Y607429D01*
X339102Y219975D02*
X339281D01*
X187535Y661384D02*
X401170D01*
X129602Y603452D02*
Y455975D01*
X187535Y661384D02*
X129602Y603452D01*
X140602Y599475D02*
Y523725D01*
X118602Y280020D02*
X189860Y208763D01*
X129602Y283998D02*
X193625Y219975D01*
X140693Y287884D02*
X197441Y231137D01*
X189860Y208763D02*
X334890D01*
X193625Y219975D02*
X339102D01*
X585693Y492384D02*
Y425384D01*
X406102Y671975D02*
X585693Y492384D01*
X575102Y487452D02*
Y428975D01*
X401170Y661384D02*
X575102Y487452D01*
X396783Y650794D02*
X564102Y483475D01*
M02*
