G04*
G04 #@! TF.GenerationSoftware,Altium Limited,Altium Designer,20.0.14 (345)*
G04*
G04 Layer_Color=255*
%FSLAX25Y25*%
%MOIN*%
G70*
G01*
G75*
%ADD10R,0.04134X0.02559*%
%ADD11R,0.03543X0.00984*%
%ADD12R,0.00984X0.03543*%
%ADD13R,0.16142X0.16142*%
%ADD14R,0.03740X0.04134*%
%ADD15R,0.04134X0.03740*%
%ADD16R,0.03740X0.03740*%
%ADD17R,0.04134X0.03543*%
%ADD24R,0.10236X0.01181*%
%ADD26R,0.03543X0.04134*%
%ADD28C,0.01575*%
%ADD29C,0.06200*%
%ADD30C,0.03347*%
%ADD31R,0.03347X0.03347*%
%ADD34R,0.03347X0.03347*%
%ADD35C,0.06102*%
%ADD36R,0.06102X0.06102*%
%ADD37C,0.06496*%
%ADD38R,0.06496X0.06496*%
%ADD39R,0.05150X0.05150*%
%ADD40C,0.20079*%
%ADD41C,0.05150*%
%ADD42C,0.06299*%
%ADD43R,0.06299X0.06299*%
%ADD44C,0.07087*%
%ADD45R,0.07087X0.07087*%
%ADD46O,0.12992X0.05906*%
%ADD47O,0.10630X0.05906*%
%ADD48C,0.07677*%
%ADD49R,0.07677X0.07677*%
%ADD50C,0.07000*%
%ADD51R,0.05512X0.05512*%
%ADD52C,0.05512*%
D10*
X103241Y158231D02*
D03*
Y164924D02*
D03*
X21588Y158122D02*
D03*
Y164815D02*
D03*
X20964Y61203D02*
D03*
Y67896D02*
D03*
X103033Y61456D02*
D03*
Y68148D02*
D03*
D11*
X95265Y121424D02*
D03*
Y123393D02*
D03*
Y125361D02*
D03*
Y127330D02*
D03*
Y129298D02*
D03*
Y131267D02*
D03*
Y133236D02*
D03*
Y135204D02*
D03*
Y137173D02*
D03*
Y139141D02*
D03*
Y141110D02*
D03*
X123217D02*
D03*
Y139141D02*
D03*
Y137173D02*
D03*
Y135204D02*
D03*
Y133236D02*
D03*
Y131267D02*
D03*
Y129298D02*
D03*
Y127330D02*
D03*
Y125361D02*
D03*
Y123393D02*
D03*
Y121424D02*
D03*
X13612Y121314D02*
D03*
Y123283D02*
D03*
Y125251D02*
D03*
Y127220D02*
D03*
Y129188D02*
D03*
Y131157D02*
D03*
Y133126D02*
D03*
Y135094D02*
D03*
Y137063D02*
D03*
Y139031D02*
D03*
Y141000D02*
D03*
X41564D02*
D03*
Y139031D02*
D03*
Y137063D02*
D03*
Y135094D02*
D03*
Y133126D02*
D03*
Y131157D02*
D03*
Y129188D02*
D03*
Y127220D02*
D03*
Y125251D02*
D03*
Y123283D02*
D03*
Y121314D02*
D03*
X12988Y24396D02*
D03*
Y26365D02*
D03*
Y28333D02*
D03*
Y30302D02*
D03*
Y32270D02*
D03*
Y34239D02*
D03*
Y36208D02*
D03*
Y38176D02*
D03*
Y40145D02*
D03*
Y42113D02*
D03*
Y44082D02*
D03*
X40940D02*
D03*
Y42113D02*
D03*
Y40145D02*
D03*
Y38176D02*
D03*
Y36208D02*
D03*
Y34239D02*
D03*
Y32270D02*
D03*
Y30302D02*
D03*
Y28333D02*
D03*
Y26365D02*
D03*
Y24396D02*
D03*
X95057Y24648D02*
D03*
Y26617D02*
D03*
Y28585D02*
D03*
Y30554D02*
D03*
Y32522D02*
D03*
Y34491D02*
D03*
Y36460D02*
D03*
Y38428D02*
D03*
Y40397D02*
D03*
Y42365D02*
D03*
Y44334D02*
D03*
X123009D02*
D03*
Y42365D02*
D03*
Y40397D02*
D03*
Y38428D02*
D03*
Y36460D02*
D03*
Y34491D02*
D03*
Y32522D02*
D03*
Y30554D02*
D03*
Y28585D02*
D03*
Y26617D02*
D03*
Y24648D02*
D03*
D12*
X99398Y145243D02*
D03*
X101367D02*
D03*
X103335D02*
D03*
X105304D02*
D03*
X107272D02*
D03*
X109241D02*
D03*
X111210D02*
D03*
X113178D02*
D03*
X115147D02*
D03*
X117115D02*
D03*
X119084D02*
D03*
Y117291D02*
D03*
X99398D02*
D03*
X117115D02*
D03*
X115147D02*
D03*
X113178D02*
D03*
X111210D02*
D03*
X109241D02*
D03*
X101367D02*
D03*
X103335D02*
D03*
X105304D02*
D03*
X107272D02*
D03*
X17745Y145133D02*
D03*
X19714D02*
D03*
X21682D02*
D03*
X23651D02*
D03*
X25619D02*
D03*
X27588D02*
D03*
X29557D02*
D03*
X31525D02*
D03*
X33494D02*
D03*
X35462D02*
D03*
X37431D02*
D03*
Y117181D02*
D03*
X17745D02*
D03*
X35462D02*
D03*
X33494D02*
D03*
X31525D02*
D03*
X29557D02*
D03*
X27588D02*
D03*
X19714D02*
D03*
X21682D02*
D03*
X23651D02*
D03*
X25619D02*
D03*
X17121Y48215D02*
D03*
X19090D02*
D03*
X21058D02*
D03*
X23027D02*
D03*
X24995D02*
D03*
X26964D02*
D03*
X28933D02*
D03*
X30901D02*
D03*
X32870D02*
D03*
X34838D02*
D03*
X36807D02*
D03*
Y20263D02*
D03*
X17121D02*
D03*
X34838D02*
D03*
X32870D02*
D03*
X30901D02*
D03*
X28933D02*
D03*
X26964D02*
D03*
X19090D02*
D03*
X21058D02*
D03*
X23027D02*
D03*
X24995D02*
D03*
X99190Y48467D02*
D03*
X101159D02*
D03*
X103127D02*
D03*
X105096D02*
D03*
X107064D02*
D03*
X109033D02*
D03*
X111002D02*
D03*
X112970D02*
D03*
X114939D02*
D03*
X116907D02*
D03*
X118876D02*
D03*
Y20515D02*
D03*
X99190D02*
D03*
X116907D02*
D03*
X114939D02*
D03*
X112970D02*
D03*
X111002D02*
D03*
X109033D02*
D03*
X101159D02*
D03*
X103127D02*
D03*
X105096D02*
D03*
X107064D02*
D03*
D13*
X109241Y131267D02*
D03*
X27588Y131157D02*
D03*
X26964Y34239D02*
D03*
X109033Y34491D02*
D03*
D14*
X101386Y109578D02*
D03*
X107095D02*
D03*
X117595D02*
D03*
X111886D02*
D03*
X120032Y150578D02*
D03*
X125741D02*
D03*
X19734Y109468D02*
D03*
X25442D02*
D03*
X35942D02*
D03*
X30234D02*
D03*
X38379Y150468D02*
D03*
X44088D02*
D03*
X19110Y12550D02*
D03*
X24818D02*
D03*
X35318D02*
D03*
X29610D02*
D03*
X37755Y53550D02*
D03*
X43464D02*
D03*
X101178Y12802D02*
D03*
X106887D02*
D03*
X117387D02*
D03*
X111678D02*
D03*
X119824Y53802D02*
D03*
X125533D02*
D03*
D15*
X109241Y157578D02*
D03*
Y151869D02*
D03*
X27588Y157468D02*
D03*
Y151760D02*
D03*
X26964Y60550D02*
D03*
Y54841D02*
D03*
X109033Y60802D02*
D03*
Y55093D02*
D03*
D16*
X102595Y104078D02*
D03*
X96886D02*
D03*
X126741Y157578D02*
D03*
X121032D02*
D03*
X121028D02*
D03*
X115320D02*
D03*
X20942Y103968D02*
D03*
X15234D02*
D03*
X45088Y157468D02*
D03*
X39379D02*
D03*
X39375D02*
D03*
X33667D02*
D03*
X20318Y7050D02*
D03*
X14610D02*
D03*
X44464Y60550D02*
D03*
X38755D02*
D03*
X38751D02*
D03*
X33043D02*
D03*
X102387Y7302D02*
D03*
X96678D02*
D03*
X126533Y60802D02*
D03*
X120824D02*
D03*
X120820D02*
D03*
X115111D02*
D03*
D17*
X134741Y130822D02*
D03*
Y136334D02*
D03*
Y141322D02*
D03*
Y146834D02*
D03*
Y120322D02*
D03*
Y125834D02*
D03*
X53088Y130712D02*
D03*
Y136224D02*
D03*
Y141212D02*
D03*
Y146724D02*
D03*
Y120212D02*
D03*
Y125724D02*
D03*
X52464Y33794D02*
D03*
Y39306D02*
D03*
Y44294D02*
D03*
Y49806D02*
D03*
Y23294D02*
D03*
Y28806D02*
D03*
X580234Y139438D02*
D03*
Y133927D02*
D03*
X580734Y153938D02*
D03*
Y148427D02*
D03*
X586234Y24171D02*
D03*
Y29682D02*
D03*
Y9927D02*
D03*
Y15438D02*
D03*
X57102Y485719D02*
D03*
Y491231D02*
D03*
Y472719D02*
D03*
Y478231D02*
D03*
X134533Y34046D02*
D03*
Y39558D02*
D03*
Y44546D02*
D03*
Y50058D02*
D03*
Y23546D02*
D03*
Y29058D02*
D03*
D24*
X204809Y57404D02*
D03*
Y55436D02*
D03*
Y53467D02*
D03*
Y51499D02*
D03*
Y49530D02*
D03*
Y47561D02*
D03*
Y45593D02*
D03*
Y43624D02*
D03*
Y41656D02*
D03*
Y39687D02*
D03*
Y37719D02*
D03*
Y35750D02*
D03*
Y33782D02*
D03*
Y31813D02*
D03*
Y29845D02*
D03*
Y27876D02*
D03*
Y25908D02*
D03*
Y23939D02*
D03*
Y21971D02*
D03*
Y147404D02*
D03*
Y145436D02*
D03*
Y143467D02*
D03*
Y141499D02*
D03*
Y139530D02*
D03*
Y137562D02*
D03*
Y135593D02*
D03*
Y133625D02*
D03*
Y131656D02*
D03*
Y129688D02*
D03*
Y127719D02*
D03*
Y125751D02*
D03*
Y123782D02*
D03*
Y121814D02*
D03*
Y119845D02*
D03*
Y117877D02*
D03*
Y115908D02*
D03*
Y113940D02*
D03*
Y111971D02*
D03*
D26*
X80114Y608975D02*
D03*
X74602D02*
D03*
X104358Y627475D02*
D03*
X98847D02*
D03*
D28*
X246000Y10917D02*
D03*
Y7571D02*
D03*
Y4224D02*
D03*
Y878D02*
D03*
Y168201D02*
D03*
Y164854D02*
D03*
Y161508D02*
D03*
Y158161D02*
D03*
Y154815D02*
D03*
Y151469D02*
D03*
Y148122D02*
D03*
Y144776D02*
D03*
Y141429D02*
D03*
Y138083D02*
D03*
Y134736D02*
D03*
D03*
D03*
Y131390D02*
D03*
Y128043D02*
D03*
Y74500D02*
D03*
Y77846D02*
D03*
Y81193D02*
D03*
Y84539D02*
D03*
Y87886D02*
D03*
Y91232D02*
D03*
Y94579D02*
D03*
Y97925D02*
D03*
Y101272D02*
D03*
Y104618D02*
D03*
Y107965D02*
D03*
Y111311D02*
D03*
Y114657D02*
D03*
Y118004D02*
D03*
Y121350D02*
D03*
Y124697D02*
D03*
Y30996D02*
D03*
Y27650D02*
D03*
Y24303D02*
D03*
Y20957D02*
D03*
Y17610D02*
D03*
Y14264D02*
D03*
Y10917D02*
D03*
Y34343D02*
D03*
Y37689D02*
D03*
Y41035D02*
D03*
D03*
D03*
Y44382D02*
D03*
Y47728D02*
D03*
Y51075D02*
D03*
Y54421D02*
D03*
Y57768D02*
D03*
Y61114D02*
D03*
Y64461D02*
D03*
Y67807D02*
D03*
Y71153D02*
D03*
Y74500D02*
D03*
D29*
X515988Y184734D02*
D03*
X450188D02*
D03*
X412588D02*
D03*
X544188D02*
D03*
X506588D02*
D03*
X478388D02*
D03*
X544188Y175334D02*
D03*
X403188Y184734D02*
D03*
X440788D02*
D03*
X431388D02*
D03*
X421988D02*
D03*
X468988D02*
D03*
X459588D02*
D03*
X497188D02*
D03*
X487788D02*
D03*
X534788D02*
D03*
X525388D02*
D03*
X403188Y175334D02*
D03*
D30*
X86241Y166513D02*
D03*
Y162576D02*
D03*
Y158593D02*
D03*
Y154656D02*
D03*
Y150719D02*
D03*
Y146782D02*
D03*
Y138908D02*
D03*
Y142845D02*
D03*
Y103566D02*
D03*
Y107503D02*
D03*
Y111440D02*
D03*
Y115377D02*
D03*
Y119314D02*
D03*
Y123251D02*
D03*
Y127188D02*
D03*
Y131125D02*
D03*
Y135062D02*
D03*
X141158Y150742D02*
D03*
Y154679D02*
D03*
Y115400D02*
D03*
Y119336D02*
D03*
Y123274D02*
D03*
Y127210D02*
D03*
Y131148D02*
D03*
Y135084D02*
D03*
Y139022D02*
D03*
Y142959D02*
D03*
Y146896D02*
D03*
X4588Y166403D02*
D03*
Y162467D02*
D03*
Y158484D02*
D03*
Y154547D02*
D03*
Y150610D02*
D03*
Y146673D02*
D03*
Y138799D02*
D03*
Y142736D02*
D03*
Y103457D02*
D03*
Y107394D02*
D03*
Y111331D02*
D03*
Y115268D02*
D03*
Y119205D02*
D03*
Y123142D02*
D03*
Y127079D02*
D03*
Y131016D02*
D03*
Y134953D02*
D03*
X59505Y150633D02*
D03*
Y154570D02*
D03*
Y115290D02*
D03*
Y119227D02*
D03*
Y123164D02*
D03*
Y127101D02*
D03*
Y131038D02*
D03*
Y134975D02*
D03*
Y138912D02*
D03*
Y142849D02*
D03*
Y146786D02*
D03*
X3964Y69485D02*
D03*
Y65548D02*
D03*
Y61566D02*
D03*
Y57628D02*
D03*
Y53691D02*
D03*
Y49754D02*
D03*
Y41880D02*
D03*
Y45817D02*
D03*
Y6538D02*
D03*
Y10475D02*
D03*
Y14412D02*
D03*
Y18349D02*
D03*
Y22286D02*
D03*
Y26223D02*
D03*
Y30160D02*
D03*
Y34097D02*
D03*
Y38034D02*
D03*
X58881Y53714D02*
D03*
Y57651D02*
D03*
Y18372D02*
D03*
Y22309D02*
D03*
Y26246D02*
D03*
Y30183D02*
D03*
Y34120D02*
D03*
Y38057D02*
D03*
Y41994D02*
D03*
Y45931D02*
D03*
Y49868D02*
D03*
X452676Y110724D02*
D03*
X448739D02*
D03*
X444756D02*
D03*
X440819D02*
D03*
X436882D02*
D03*
X432945D02*
D03*
X425071D02*
D03*
X429008D02*
D03*
X389729D02*
D03*
X393666D02*
D03*
X397603D02*
D03*
X401540D02*
D03*
X405477D02*
D03*
X409414D02*
D03*
X413351D02*
D03*
X417288D02*
D03*
X421225D02*
D03*
X436905Y165641D02*
D03*
X440842D02*
D03*
X401562D02*
D03*
X405500D02*
D03*
X409437D02*
D03*
X413374D02*
D03*
X417310D02*
D03*
X421247D02*
D03*
X425184D02*
D03*
X429121D02*
D03*
X433059D02*
D03*
X496409Y3765D02*
D03*
X500346D02*
D03*
X504283D02*
D03*
X508220D02*
D03*
X512157D02*
D03*
X516094D02*
D03*
X520031D02*
D03*
X523968D02*
D03*
X527905D02*
D03*
X488625D02*
D03*
X492562D02*
D03*
X508243Y58683D02*
D03*
X512180D02*
D03*
X516117D02*
D03*
X520054D02*
D03*
X523991D02*
D03*
X527928D02*
D03*
X531865D02*
D03*
X535802D02*
D03*
X539739D02*
D03*
X500459D02*
D03*
X504396D02*
D03*
X496522D02*
D03*
X492585D02*
D03*
X488648D02*
D03*
X484711D02*
D03*
X480729D02*
D03*
X476792D02*
D03*
X536176Y110724D02*
D03*
X532239D02*
D03*
X528256D02*
D03*
X524319D02*
D03*
X520382D02*
D03*
X516445D02*
D03*
X508571D02*
D03*
X512508D02*
D03*
X473229D02*
D03*
X477166D02*
D03*
X481103D02*
D03*
X485040D02*
D03*
X488977D02*
D03*
X492914D02*
D03*
X496851D02*
D03*
X500788D02*
D03*
X504725D02*
D03*
X520405Y165641D02*
D03*
X524342D02*
D03*
X485063D02*
D03*
X489000D02*
D03*
X492937D02*
D03*
X496874D02*
D03*
X500810D02*
D03*
X504747D02*
D03*
X508684D02*
D03*
X512621D02*
D03*
X516559D02*
D03*
X412909Y3724D02*
D03*
X416846D02*
D03*
X420783D02*
D03*
X424720D02*
D03*
X428657D02*
D03*
X432594D02*
D03*
X436531D02*
D03*
X440468D02*
D03*
X444405D02*
D03*
X405125D02*
D03*
X409062D02*
D03*
X424743Y58641D02*
D03*
X428680D02*
D03*
X432617D02*
D03*
X436554D02*
D03*
X440491D02*
D03*
X444428D02*
D03*
X448365D02*
D03*
X452302D02*
D03*
X456239D02*
D03*
X416959D02*
D03*
X420896D02*
D03*
X413022D02*
D03*
X409085D02*
D03*
X405148D02*
D03*
X401211D02*
D03*
X397229D02*
D03*
X393292D02*
D03*
X319161Y565016D02*
D03*
X323097D02*
D03*
X327080D02*
D03*
X331017D02*
D03*
X334954D02*
D03*
X338891D02*
D03*
X346765D02*
D03*
X342828D02*
D03*
X382107D02*
D03*
X378170D02*
D03*
X374233D02*
D03*
X370296D02*
D03*
X366359D02*
D03*
X362422D02*
D03*
X358485D02*
D03*
X354548D02*
D03*
X350611D02*
D03*
X334931Y619934D02*
D03*
X330994D02*
D03*
X370274D02*
D03*
X366337D02*
D03*
X362400D02*
D03*
X358463D02*
D03*
X354526D02*
D03*
X350589D02*
D03*
X346652D02*
D03*
X342715D02*
D03*
X338778D02*
D03*
X175144Y428650D02*
D03*
Y432587D02*
D03*
Y436524D02*
D03*
Y440461D02*
D03*
Y444398D02*
D03*
Y448335D02*
D03*
Y452272D02*
D03*
Y456209D02*
D03*
Y460146D02*
D03*
Y420866D02*
D03*
Y424803D02*
D03*
X230061Y440484D02*
D03*
Y444421D02*
D03*
Y448358D02*
D03*
Y452295D02*
D03*
Y456232D02*
D03*
Y460169D02*
D03*
Y464106D02*
D03*
Y468043D02*
D03*
Y471980D02*
D03*
Y432700D02*
D03*
Y436637D02*
D03*
Y428763D02*
D03*
Y424826D02*
D03*
Y420889D02*
D03*
Y416952D02*
D03*
Y412970D02*
D03*
Y409033D02*
D03*
X475144Y475917D02*
D03*
Y471980D02*
D03*
Y467998D02*
D03*
Y464060D02*
D03*
Y460123D02*
D03*
Y456186D02*
D03*
Y448312D02*
D03*
Y452249D02*
D03*
Y412970D02*
D03*
Y416907D02*
D03*
Y420844D02*
D03*
Y424781D02*
D03*
Y428718D02*
D03*
Y432655D02*
D03*
Y436592D02*
D03*
Y440529D02*
D03*
Y444466D02*
D03*
X530061Y460146D02*
D03*
Y464083D02*
D03*
Y424804D02*
D03*
Y428741D02*
D03*
Y432678D02*
D03*
Y436615D02*
D03*
Y440552D02*
D03*
Y444489D02*
D03*
Y448426D02*
D03*
Y452363D02*
D03*
Y456300D02*
D03*
X366427Y265016D02*
D03*
X362490D02*
D03*
X358553D02*
D03*
X354616D02*
D03*
X350679D02*
D03*
X346742D02*
D03*
X342805D02*
D03*
X338868D02*
D03*
X334931D02*
D03*
X374211D02*
D03*
X370274D02*
D03*
X354594Y319934D02*
D03*
X350657D02*
D03*
X346720D02*
D03*
X342783D02*
D03*
X338846D02*
D03*
X334909D02*
D03*
X330972D02*
D03*
X327034D02*
D03*
X323097D02*
D03*
X362377D02*
D03*
X358440D02*
D03*
X366314D02*
D03*
X370251D02*
D03*
X374188D02*
D03*
X378125D02*
D03*
X382107D02*
D03*
X386044D02*
D03*
X86033Y69737D02*
D03*
Y65800D02*
D03*
Y61818D02*
D03*
Y57881D02*
D03*
Y53944D02*
D03*
Y50007D02*
D03*
Y42133D02*
D03*
Y46070D02*
D03*
Y6790D02*
D03*
Y10727D02*
D03*
Y14664D02*
D03*
Y18601D02*
D03*
Y22538D02*
D03*
Y26475D02*
D03*
Y30412D02*
D03*
Y34349D02*
D03*
Y38286D02*
D03*
X140950Y53966D02*
D03*
Y57903D02*
D03*
Y18624D02*
D03*
Y22561D02*
D03*
Y26498D02*
D03*
Y30435D02*
D03*
Y34372D02*
D03*
Y38309D02*
D03*
Y42246D02*
D03*
Y46183D02*
D03*
Y50120D02*
D03*
D31*
X86241Y99629D02*
D03*
X141158Y111462D02*
D03*
X4588Y99520D02*
D03*
X59505Y111353D02*
D03*
X3964Y2601D02*
D03*
X58881Y14435D02*
D03*
X175144Y464083D02*
D03*
X230061Y475917D02*
D03*
X475144Y409033D02*
D03*
X530061Y420867D02*
D03*
X86033Y2853D02*
D03*
X140950Y14687D02*
D03*
D34*
X385792Y110724D02*
D03*
X397625Y165641D02*
D03*
X531842Y3765D02*
D03*
X543676Y58683D02*
D03*
X469292Y110724D02*
D03*
X481125Y165641D02*
D03*
X448342Y3724D02*
D03*
X460176Y58641D02*
D03*
X386044Y565016D02*
D03*
X374211Y619934D02*
D03*
X330994Y265016D02*
D03*
X319161Y319934D02*
D03*
D35*
X375234Y128182D02*
D03*
Y52183D02*
D03*
X401602Y580975D02*
D03*
X412602Y560975D02*
D03*
D36*
X375234Y118183D02*
D03*
Y42182D02*
D03*
X401602Y570975D02*
D03*
X412602D02*
D03*
D37*
X598234Y39682D02*
D03*
X608234D02*
D03*
X598234Y49683D02*
D03*
X608234D02*
D03*
X598234Y69683D02*
D03*
X608234D02*
D03*
X598234Y89683D02*
D03*
X608234D02*
D03*
X598234Y119683D02*
D03*
X608234D02*
D03*
X598234Y129683D02*
D03*
X608234D02*
D03*
X598234Y149682D02*
D03*
X608234Y139682D02*
D03*
X598234D02*
D03*
X608234Y109683D02*
D03*
X598234D02*
D03*
X608234Y99682D02*
D03*
X598234D02*
D03*
X608234Y79682D02*
D03*
X598234D02*
D03*
X608234Y59683D02*
D03*
X598234D02*
D03*
X608234Y29682D02*
D03*
Y19682D02*
D03*
X598234Y29682D02*
D03*
Y19682D02*
D03*
X254734Y76312D02*
D03*
Y66312D02*
D03*
X264734Y76312D02*
D03*
Y66312D02*
D03*
X254734Y36312D02*
D03*
X264734D02*
D03*
X254734Y26312D02*
D03*
X264734D02*
D03*
X254734Y6312D02*
D03*
X264734Y16312D02*
D03*
X254734D02*
D03*
X264734Y46312D02*
D03*
X254734D02*
D03*
X264734Y56312D02*
D03*
X254734D02*
D03*
X305234Y39812D02*
D03*
X295234D02*
D03*
X305234Y49812D02*
D03*
X295234D02*
D03*
X305234Y69812D02*
D03*
X295234D02*
D03*
X305234Y89812D02*
D03*
X295234D02*
D03*
X305234Y119812D02*
D03*
X295234D02*
D03*
X305234Y129812D02*
D03*
X295234D02*
D03*
X305234Y149812D02*
D03*
X295234Y139812D02*
D03*
X305234D02*
D03*
X295234Y109812D02*
D03*
X305234D02*
D03*
X295234Y99812D02*
D03*
X305234D02*
D03*
X295234Y79812D02*
D03*
X305234D02*
D03*
X295234Y59812D02*
D03*
X305234D02*
D03*
X295234Y29812D02*
D03*
Y19812D02*
D03*
X305234Y29812D02*
D03*
Y19812D02*
D03*
X264734Y113312D02*
D03*
X254734D02*
D03*
X264734Y123312D02*
D03*
X254734D02*
D03*
X264734Y153312D02*
D03*
X254734D02*
D03*
X264734Y163312D02*
D03*
X254734Y143312D02*
D03*
X264734D02*
D03*
X254734Y133312D02*
D03*
X264734D02*
D03*
X254734Y103312D02*
D03*
Y93312D02*
D03*
X264734Y103312D02*
D03*
Y93312D02*
D03*
X175766Y129688D02*
D03*
X185766D02*
D03*
X175766Y119688D02*
D03*
X185766D02*
D03*
X175766Y99688D02*
D03*
X185766D02*
D03*
X175766Y79688D02*
D03*
X185766D02*
D03*
X175766Y49688D02*
D03*
X185766D02*
D03*
X175766Y39688D02*
D03*
X185766D02*
D03*
X175766Y19688D02*
D03*
X185766Y29688D02*
D03*
X175766D02*
D03*
X185766Y59688D02*
D03*
X175766D02*
D03*
X185766Y69688D02*
D03*
X175766D02*
D03*
X185766Y89688D02*
D03*
X175766D02*
D03*
X185766Y109688D02*
D03*
X175766D02*
D03*
X185766Y139688D02*
D03*
Y149688D02*
D03*
X175766Y139688D02*
D03*
Y149688D02*
D03*
X19382Y524491D02*
D03*
X9382D02*
D03*
X19382Y534491D02*
D03*
X9382D02*
D03*
X19382Y554491D02*
D03*
X9382D02*
D03*
X19382Y574491D02*
D03*
X9382D02*
D03*
X19382Y604491D02*
D03*
X9382D02*
D03*
X19382Y614491D02*
D03*
X9382D02*
D03*
X19382Y634491D02*
D03*
X9382Y624491D02*
D03*
X19382D02*
D03*
X9382Y594491D02*
D03*
X19382D02*
D03*
X9382Y584491D02*
D03*
X19382D02*
D03*
X9382Y564491D02*
D03*
X19382D02*
D03*
X9382Y544491D02*
D03*
X19382D02*
D03*
X9382Y514491D02*
D03*
Y504491D02*
D03*
X19382Y514491D02*
D03*
Y504491D02*
D03*
D38*
X608234Y149682D02*
D03*
X264734Y6312D02*
D03*
X295234Y149812D02*
D03*
X254734Y163312D02*
D03*
X185766Y19688D02*
D03*
X9382Y634491D02*
D03*
D39*
X547234Y73432D02*
D03*
Y88433D02*
D03*
D40*
X578730Y84683D02*
D03*
X350738D02*
D03*
D41*
X537234Y73432D02*
D03*
X527234D02*
D03*
X517234D02*
D03*
X507234D02*
D03*
X497234D02*
D03*
X487234D02*
D03*
X477234D02*
D03*
X467234D02*
D03*
X457234D02*
D03*
X447234D02*
D03*
X437234D02*
D03*
X427234D02*
D03*
X417234D02*
D03*
X407234D02*
D03*
X397234D02*
D03*
X387234D02*
D03*
X542234Y80932D02*
D03*
X532234D02*
D03*
X522234D02*
D03*
X512234D02*
D03*
X502234D02*
D03*
X492234D02*
D03*
X482234D02*
D03*
X472234D02*
D03*
X462234D02*
D03*
X452234D02*
D03*
X442234D02*
D03*
X432234D02*
D03*
X422234D02*
D03*
X412234D02*
D03*
X402234D02*
D03*
X392234D02*
D03*
X382234D02*
D03*
X537234Y88433D02*
D03*
X527234D02*
D03*
X517234D02*
D03*
X507234D02*
D03*
X497234D02*
D03*
X487234D02*
D03*
X477234D02*
D03*
X467234D02*
D03*
X457234D02*
D03*
X447234D02*
D03*
X437234D02*
D03*
X427234D02*
D03*
X417234D02*
D03*
X407234D02*
D03*
X397234D02*
D03*
X387234D02*
D03*
X542234Y95933D02*
D03*
X532234D02*
D03*
X522234D02*
D03*
X512234D02*
D03*
X502234D02*
D03*
X492234D02*
D03*
X482234D02*
D03*
X472234D02*
D03*
X462234D02*
D03*
X452234D02*
D03*
X442234D02*
D03*
X432234D02*
D03*
X422234D02*
D03*
X412234D02*
D03*
X402234D02*
D03*
X392234D02*
D03*
X382234D02*
D03*
D42*
X277234Y69812D02*
D03*
Y79812D02*
D03*
Y89812D02*
D03*
D43*
Y99812D02*
D03*
D44*
X239266Y85688D02*
D03*
X229266D02*
D03*
X219266D02*
D03*
D45*
X209266D02*
D03*
D46*
X207802Y11144D02*
D03*
Y68231D02*
D03*
Y101144D02*
D03*
Y158231D02*
D03*
D47*
X231266Y11144D02*
D03*
Y68231D02*
D03*
Y101144D02*
D03*
Y158231D02*
D03*
D48*
X33102Y290790D02*
D03*
Y330160D02*
D03*
Y310475D02*
D03*
D49*
Y349845D02*
D03*
D50*
X282102Y418975D02*
D03*
Y381375D02*
D03*
X376102Y512975D02*
D03*
X413702D02*
D03*
X282102D02*
D03*
Y475375D02*
D03*
Y447175D02*
D03*
X319702Y512975D02*
D03*
X347902D02*
D03*
X423102Y418975D02*
D03*
Y381375D02*
D03*
Y512975D02*
D03*
Y475375D02*
D03*
Y447175D02*
D03*
X385502Y512975D02*
D03*
X394902D02*
D03*
X404302D02*
D03*
X357302D02*
D03*
X366702D02*
D03*
X329102D02*
D03*
X338502D02*
D03*
X291502D02*
D03*
X300902D02*
D03*
X310302D02*
D03*
X376102Y371975D02*
D03*
X413702D02*
D03*
X282102D02*
D03*
X319702D02*
D03*
X347902D02*
D03*
X282102Y409575D02*
D03*
Y400175D02*
D03*
Y390775D02*
D03*
Y437775D02*
D03*
Y428375D02*
D03*
Y465975D02*
D03*
Y456575D02*
D03*
Y503575D02*
D03*
Y494175D02*
D03*
Y484775D02*
D03*
X423102Y371975D02*
D03*
X385502D02*
D03*
X394902D02*
D03*
X404302D02*
D03*
X357302D02*
D03*
X366702D02*
D03*
X329102D02*
D03*
X338502D02*
D03*
X291502D02*
D03*
X300902D02*
D03*
X310302D02*
D03*
X423102Y409575D02*
D03*
Y400175D02*
D03*
Y390775D02*
D03*
Y437775D02*
D03*
Y428375D02*
D03*
Y465975D02*
D03*
Y456575D02*
D03*
Y503575D02*
D03*
Y494175D02*
D03*
Y484775D02*
D03*
D51*
X74102Y513975D02*
D03*
X84936D02*
D03*
X95769D02*
D03*
X106602D02*
D03*
D52*
X74102Y503975D02*
D03*
Y493975D02*
D03*
X84936Y503975D02*
D03*
Y493975D02*
D03*
X95769Y503975D02*
D03*
Y493975D02*
D03*
X106602Y503975D02*
D03*
Y493975D02*
D03*
M02*
