G04*
G04 #@! TF.GenerationSoftware,Altium Limited,Altium Designer,20.0.14 (345)*
G04*
G04 Layer_Color=8421504*
%FSLAX25Y25*%
%MOIN*%
G70*
G01*
G75*
%ADD10R,0.04134X0.02559*%
%ADD11R,0.03543X0.00984*%
%ADD12R,0.00984X0.03543*%
%ADD13R,0.16142X0.16142*%
%ADD14R,0.03740X0.04134*%
%ADD15R,0.04134X0.03740*%
%ADD16R,0.03740X0.03740*%
%ADD17R,0.04134X0.03543*%
%ADD24R,0.10236X0.01181*%
%ADD26R,0.03543X0.04134*%
D10*
X103241Y158231D02*
D03*
Y164924D02*
D03*
X21588Y158122D02*
D03*
Y164815D02*
D03*
X20964Y61203D02*
D03*
Y67896D02*
D03*
X103033Y61456D02*
D03*
Y68148D02*
D03*
D11*
X95265Y121424D02*
D03*
Y123393D02*
D03*
Y125361D02*
D03*
Y127330D02*
D03*
Y129298D02*
D03*
Y131267D02*
D03*
Y133236D02*
D03*
Y135204D02*
D03*
Y137173D02*
D03*
Y139141D02*
D03*
Y141110D02*
D03*
X123217D02*
D03*
Y139141D02*
D03*
Y137173D02*
D03*
Y135204D02*
D03*
Y133236D02*
D03*
Y131267D02*
D03*
Y129298D02*
D03*
Y127330D02*
D03*
Y125361D02*
D03*
Y123393D02*
D03*
Y121424D02*
D03*
X13612Y121314D02*
D03*
Y123283D02*
D03*
Y125251D02*
D03*
Y127220D02*
D03*
Y129188D02*
D03*
Y131157D02*
D03*
Y133126D02*
D03*
Y135094D02*
D03*
Y137063D02*
D03*
Y139031D02*
D03*
Y141000D02*
D03*
X41564D02*
D03*
Y139031D02*
D03*
Y137063D02*
D03*
Y135094D02*
D03*
Y133126D02*
D03*
Y131157D02*
D03*
Y129188D02*
D03*
Y127220D02*
D03*
Y125251D02*
D03*
Y123283D02*
D03*
Y121314D02*
D03*
X12988Y24396D02*
D03*
Y26365D02*
D03*
Y28333D02*
D03*
Y30302D02*
D03*
Y32270D02*
D03*
Y34239D02*
D03*
Y36208D02*
D03*
Y38176D02*
D03*
Y40145D02*
D03*
Y42113D02*
D03*
Y44082D02*
D03*
X40940D02*
D03*
Y42113D02*
D03*
Y40145D02*
D03*
Y38176D02*
D03*
Y36208D02*
D03*
Y34239D02*
D03*
Y32270D02*
D03*
Y30302D02*
D03*
Y28333D02*
D03*
Y26365D02*
D03*
Y24396D02*
D03*
X95057Y24648D02*
D03*
Y26617D02*
D03*
Y28585D02*
D03*
Y30554D02*
D03*
Y32522D02*
D03*
Y34491D02*
D03*
Y36460D02*
D03*
Y38428D02*
D03*
Y40397D02*
D03*
Y42365D02*
D03*
Y44334D02*
D03*
X123009D02*
D03*
Y42365D02*
D03*
Y40397D02*
D03*
Y38428D02*
D03*
Y36460D02*
D03*
Y34491D02*
D03*
Y32522D02*
D03*
Y30554D02*
D03*
Y28585D02*
D03*
Y26617D02*
D03*
Y24648D02*
D03*
D12*
X99398Y145243D02*
D03*
X101367D02*
D03*
X103335D02*
D03*
X105304D02*
D03*
X107272D02*
D03*
X109241D02*
D03*
X111210D02*
D03*
X113178D02*
D03*
X115147D02*
D03*
X117115D02*
D03*
X119084D02*
D03*
Y117291D02*
D03*
X99398D02*
D03*
X117115D02*
D03*
X115147D02*
D03*
X113178D02*
D03*
X111210D02*
D03*
X109241D02*
D03*
X101367D02*
D03*
X103335D02*
D03*
X105304D02*
D03*
X107272D02*
D03*
X17745Y145133D02*
D03*
X19714D02*
D03*
X21682D02*
D03*
X23651D02*
D03*
X25619D02*
D03*
X27588D02*
D03*
X29557D02*
D03*
X31525D02*
D03*
X33494D02*
D03*
X35462D02*
D03*
X37431D02*
D03*
Y117181D02*
D03*
X17745D02*
D03*
X35462D02*
D03*
X33494D02*
D03*
X31525D02*
D03*
X29557D02*
D03*
X27588D02*
D03*
X19714D02*
D03*
X21682D02*
D03*
X23651D02*
D03*
X25619D02*
D03*
X17121Y48215D02*
D03*
X19090D02*
D03*
X21058D02*
D03*
X23027D02*
D03*
X24995D02*
D03*
X26964D02*
D03*
X28933D02*
D03*
X30901D02*
D03*
X32870D02*
D03*
X34838D02*
D03*
X36807D02*
D03*
Y20263D02*
D03*
X17121D02*
D03*
X34838D02*
D03*
X32870D02*
D03*
X30901D02*
D03*
X28933D02*
D03*
X26964D02*
D03*
X19090D02*
D03*
X21058D02*
D03*
X23027D02*
D03*
X24995D02*
D03*
X99190Y48467D02*
D03*
X101159D02*
D03*
X103127D02*
D03*
X105096D02*
D03*
X107064D02*
D03*
X109033D02*
D03*
X111002D02*
D03*
X112970D02*
D03*
X114939D02*
D03*
X116907D02*
D03*
X118876D02*
D03*
Y20515D02*
D03*
X99190D02*
D03*
X116907D02*
D03*
X114939D02*
D03*
X112970D02*
D03*
X111002D02*
D03*
X109033D02*
D03*
X101159D02*
D03*
X103127D02*
D03*
X105096D02*
D03*
X107064D02*
D03*
D13*
X109241Y131267D02*
D03*
X27588Y131157D02*
D03*
X26964Y34239D02*
D03*
X109033Y34491D02*
D03*
D14*
X101386Y109578D02*
D03*
X107095D02*
D03*
X117595D02*
D03*
X111886D02*
D03*
X120032Y150578D02*
D03*
X125741D02*
D03*
X19734Y109468D02*
D03*
X25442D02*
D03*
X35942D02*
D03*
X30234D02*
D03*
X38379Y150468D02*
D03*
X44088D02*
D03*
X19110Y12550D02*
D03*
X24818D02*
D03*
X35318D02*
D03*
X29610D02*
D03*
X37755Y53550D02*
D03*
X43464D02*
D03*
X101178Y12802D02*
D03*
X106887D02*
D03*
X117387D02*
D03*
X111678D02*
D03*
X119824Y53802D02*
D03*
X125533D02*
D03*
D15*
X109241Y157578D02*
D03*
Y151869D02*
D03*
X27588Y157468D02*
D03*
Y151760D02*
D03*
X26964Y60550D02*
D03*
Y54841D02*
D03*
X109033Y60802D02*
D03*
Y55093D02*
D03*
D16*
X102595Y104078D02*
D03*
X96886D02*
D03*
X126741Y157578D02*
D03*
X121032D02*
D03*
X121028D02*
D03*
X115320D02*
D03*
X20942Y103968D02*
D03*
X15234D02*
D03*
X45088Y157468D02*
D03*
X39379D02*
D03*
X39375D02*
D03*
X33667D02*
D03*
X20318Y7050D02*
D03*
X14610D02*
D03*
X44464Y60550D02*
D03*
X38755D02*
D03*
X38751D02*
D03*
X33043D02*
D03*
X102387Y7302D02*
D03*
X96678D02*
D03*
X126533Y60802D02*
D03*
X120824D02*
D03*
X120820D02*
D03*
X115111D02*
D03*
D17*
X134741Y130822D02*
D03*
Y136334D02*
D03*
Y141322D02*
D03*
Y146834D02*
D03*
Y120322D02*
D03*
Y125834D02*
D03*
X53088Y130712D02*
D03*
Y136224D02*
D03*
Y141212D02*
D03*
Y146724D02*
D03*
Y120212D02*
D03*
Y125724D02*
D03*
X52464Y33794D02*
D03*
Y39306D02*
D03*
Y44294D02*
D03*
Y49806D02*
D03*
Y23294D02*
D03*
Y28806D02*
D03*
X580234Y139438D02*
D03*
Y133927D02*
D03*
X580734Y153938D02*
D03*
Y148427D02*
D03*
X586234Y24171D02*
D03*
Y29682D02*
D03*
Y9927D02*
D03*
Y15438D02*
D03*
X57102Y485719D02*
D03*
Y491231D02*
D03*
Y472719D02*
D03*
Y478231D02*
D03*
X134533Y34046D02*
D03*
Y39558D02*
D03*
Y44546D02*
D03*
Y50058D02*
D03*
Y23546D02*
D03*
Y29058D02*
D03*
D24*
X204809Y57404D02*
D03*
Y55436D02*
D03*
Y53467D02*
D03*
Y51499D02*
D03*
Y49530D02*
D03*
Y47561D02*
D03*
Y45593D02*
D03*
Y43624D02*
D03*
Y41656D02*
D03*
Y39687D02*
D03*
Y37719D02*
D03*
Y35750D02*
D03*
Y33782D02*
D03*
Y31813D02*
D03*
Y29845D02*
D03*
Y27876D02*
D03*
Y25908D02*
D03*
Y23939D02*
D03*
Y21971D02*
D03*
Y147404D02*
D03*
Y145436D02*
D03*
Y143467D02*
D03*
Y141499D02*
D03*
Y139530D02*
D03*
Y137562D02*
D03*
Y135593D02*
D03*
Y133625D02*
D03*
Y131656D02*
D03*
Y129688D02*
D03*
Y127719D02*
D03*
Y125751D02*
D03*
Y123782D02*
D03*
Y121814D02*
D03*
Y119845D02*
D03*
Y117877D02*
D03*
Y115908D02*
D03*
Y113940D02*
D03*
Y111971D02*
D03*
D26*
X80114Y608975D02*
D03*
X74602D02*
D03*
X104358Y627475D02*
D03*
X98847D02*
D03*
M02*
