G75*
%MOIN*%
%OFA0B0*%
%FSLAX25Y25*%
%IPPOS*%
%LPD*%
%AMOC8*
5,1,8,0,0,1.08239X$1,22.5*
%
%ADD10C,0.05200*%
%ADD11C,0.12400*%
%ADD12C,0.01800*%
%ADD13C,0.00500*%
%ADD14C,0.00600*%
D10*
X0009150Y0016950D03*
X0008000Y0063700D03*
X0053700Y0061500D03*
D11*
X0047900Y0014450D03*
D12*
X0043950Y0024600D03*
X0044450Y0028400D03*
X0042450Y0033400D03*
X0046150Y0040100D03*
X0042250Y0040500D03*
X0048550Y0046600D03*
X0050350Y0057200D03*
X0055550Y0053400D03*
X0056450Y0047900D03*
X0049050Y0027800D03*
X0036850Y0018400D03*
X0032850Y0017400D03*
X0037850Y0008700D03*
X0025350Y0017200D03*
X0022850Y0017500D03*
X0020350Y0017000D03*
X0017850Y0017500D03*
X0024450Y0007900D03*
X0011350Y0023800D03*
X0011350Y0027900D03*
X0016150Y0030200D03*
X0016150Y0033200D03*
X0016150Y0035900D03*
X0016550Y0039300D03*
X0011550Y0048500D03*
X0012550Y0051400D03*
X0009550Y0054000D03*
X0009550Y0058200D03*
X0012350Y0056400D03*
X0006650Y0045500D03*
X0030450Y0034600D03*
X0005150Y0008000D03*
X0011650Y0084200D03*
X0009150Y0084700D03*
X0014150Y0084700D03*
X0016650Y0084200D03*
X0019150Y0084700D03*
X0021650Y0084200D03*
X0024150Y0084700D03*
X0026650Y0084200D03*
X0029150Y0084700D03*
X0031650Y0084200D03*
X0034150Y0084700D03*
X0036650Y0084200D03*
X0039150Y0084700D03*
X0041650Y0084200D03*
X0044150Y0084700D03*
X0046650Y0084200D03*
X0049150Y0084700D03*
X0051650Y0084200D03*
X0055850Y0075900D03*
D13*
X0051650Y0084200D02*
X0051650Y0063550D01*
X0053700Y0061500D01*
X0051400Y0059200D01*
X0048150Y0059200D01*
X0047650Y0058700D01*
X0044650Y0058700D01*
X0044150Y0058200D01*
X0009550Y0058200D01*
X0009550Y0054000D02*
X0010250Y0053300D01*
X0055550Y0053300D01*
X0055550Y0053400D01*
X0052450Y0050300D01*
X0052450Y0046400D01*
X0057250Y0041600D01*
X0057250Y0010800D01*
X0051950Y0005500D01*
X0029250Y0005500D01*
X0028950Y0005800D01*
X0007350Y0005800D01*
X0005150Y0008000D01*
X0011350Y0021000D02*
X0011350Y0023800D01*
X0003650Y0031500D01*
X0003650Y0056600D01*
X0003850Y0056400D01*
X0012350Y0056400D01*
X0012850Y0057200D01*
X0050350Y0057200D01*
X0046650Y0048500D02*
X0048550Y0046600D01*
X0046650Y0048500D02*
X0011550Y0048500D01*
X0016050Y0040000D02*
X0016550Y0039300D01*
X0016150Y0035900D02*
X0019350Y0035900D01*
X0036850Y0018400D01*
X0030350Y0022200D02*
X0030350Y0012600D01*
X0034250Y0008700D01*
X0037850Y0008700D01*
X0030350Y0022200D02*
X0019350Y0033200D01*
X0016150Y0033200D01*
X0011350Y0021000D02*
X0024450Y0007900D01*
X0042450Y0032600D02*
X0042450Y0033400D01*
D14*
X0004150Y0006596D02*
X0004150Y0005700D01*
X0005824Y0005700D01*
X0005224Y0006300D01*
X0004446Y0006300D01*
X0004150Y0006596D01*
X0004150Y0006193D02*
X0005331Y0006193D01*
X0006850Y0007926D02*
X0006850Y0008704D01*
X0005854Y0009700D01*
X0004446Y0009700D01*
X0004150Y0009404D01*
X0004150Y0029374D01*
X0009650Y0023874D01*
X0009650Y0023096D01*
X0010200Y0022546D01*
X0010200Y0020718D01*
X0009534Y0020850D01*
X0009450Y0020850D01*
X0009450Y0017250D01*
X0013050Y0017250D01*
X0013050Y0017334D01*
X0012966Y0017758D01*
X0022750Y0007974D01*
X0022750Y0007196D01*
X0022996Y0006950D01*
X0007826Y0006950D01*
X0006850Y0007926D01*
X0006850Y0007988D02*
X0022736Y0007988D01*
X0022750Y0007390D02*
X0007387Y0007390D01*
X0006850Y0008587D02*
X0022137Y0008587D01*
X0021539Y0009185D02*
X0006369Y0009185D01*
X0004150Y0009784D02*
X0020940Y0009784D01*
X0020342Y0010382D02*
X0004150Y0010382D01*
X0004150Y0010981D02*
X0019743Y0010981D01*
X0019144Y0011579D02*
X0004150Y0011579D01*
X0004150Y0012178D02*
X0018546Y0012178D01*
X0017947Y0012776D02*
X0004150Y0012776D01*
X0004150Y0013375D02*
X0007590Y0013375D01*
X0007303Y0013494D02*
X0008012Y0013200D01*
X0008766Y0013050D01*
X0008850Y0013050D01*
X0008850Y0016650D01*
X0009450Y0016650D01*
X0009450Y0017250D01*
X0008850Y0017250D01*
X0008850Y0020850D01*
X0008766Y0020850D01*
X0008012Y0020700D01*
X0007303Y0020406D01*
X0006664Y0019979D01*
X0006121Y0019436D01*
X0005694Y0018797D01*
X0005400Y0018088D01*
X0005250Y0017334D01*
X0005250Y0017250D01*
X0008850Y0017250D01*
X0008850Y0016650D01*
X0005250Y0016650D01*
X0005250Y0016566D01*
X0005400Y0015812D01*
X0005694Y0015103D01*
X0006121Y0014464D01*
X0006664Y0013921D01*
X0007303Y0013494D01*
X0006611Y0013973D02*
X0004150Y0013973D01*
X0004150Y0014572D02*
X0006049Y0014572D01*
X0005666Y0015170D02*
X0004150Y0015170D01*
X0004150Y0015769D02*
X0005418Y0015769D01*
X0005290Y0016367D02*
X0004150Y0016367D01*
X0004150Y0016966D02*
X0008850Y0016966D01*
X0008850Y0017564D02*
X0009450Y0017564D01*
X0009450Y0016966D02*
X0013758Y0016966D01*
X0013050Y0016650D02*
X0009450Y0016650D01*
X0009450Y0013050D01*
X0009534Y0013050D01*
X0010288Y0013200D01*
X0010997Y0013494D01*
X0011636Y0013921D01*
X0012179Y0014464D01*
X0012606Y0015103D01*
X0012900Y0015812D01*
X0013050Y0016566D01*
X0013050Y0016650D01*
X0013010Y0016367D02*
X0014356Y0016367D01*
X0014955Y0015769D02*
X0012882Y0015769D01*
X0012634Y0015170D02*
X0015553Y0015170D01*
X0016152Y0014572D02*
X0012251Y0014572D01*
X0011689Y0013973D02*
X0016750Y0013973D01*
X0017349Y0013375D02*
X0010710Y0013375D01*
X0009450Y0013375D02*
X0008850Y0013375D01*
X0008850Y0013973D02*
X0009450Y0013973D01*
X0009450Y0014572D02*
X0008850Y0014572D01*
X0008850Y0015170D02*
X0009450Y0015170D01*
X0009450Y0015769D02*
X0008850Y0015769D01*
X0008850Y0016367D02*
X0009450Y0016367D01*
X0009450Y0018163D02*
X0008850Y0018163D01*
X0008850Y0018761D02*
X0009450Y0018761D01*
X0009450Y0019360D02*
X0008850Y0019360D01*
X0008850Y0019958D02*
X0009450Y0019958D01*
X0009450Y0020557D02*
X0008850Y0020557D01*
X0007666Y0020557D02*
X0004150Y0020557D01*
X0004150Y0021155D02*
X0010200Y0021155D01*
X0010200Y0021754D02*
X0004150Y0021754D01*
X0004150Y0022352D02*
X0010200Y0022352D01*
X0009795Y0022951D02*
X0004150Y0022951D01*
X0004150Y0023549D02*
X0009650Y0023549D01*
X0009376Y0024148D02*
X0004150Y0024148D01*
X0004150Y0024746D02*
X0008777Y0024746D01*
X0008179Y0025345D02*
X0004150Y0025345D01*
X0004150Y0025943D02*
X0007580Y0025943D01*
X0006982Y0026542D02*
X0004150Y0026542D01*
X0004150Y0027140D02*
X0006383Y0027140D01*
X0005785Y0027739D02*
X0004150Y0027739D01*
X0004150Y0028337D02*
X0005186Y0028337D01*
X0004588Y0028936D02*
X0004150Y0028936D01*
X0005446Y0031330D02*
X0014876Y0031330D01*
X0015246Y0031700D02*
X0014450Y0032496D01*
X0014450Y0033904D01*
X0015096Y0034550D01*
X0014450Y0035196D01*
X0014450Y0036604D01*
X0015446Y0037600D01*
X0016854Y0037600D01*
X0017404Y0037050D01*
X0019826Y0037050D01*
X0020500Y0036376D01*
X0036776Y0020100D01*
X0037554Y0020100D01*
X0038550Y0019104D01*
X0038550Y0017696D01*
X0037554Y0016700D01*
X0036146Y0016700D01*
X0035150Y0017696D01*
X0035150Y0018474D01*
X0031500Y0022124D01*
X0031500Y0018454D01*
X0032146Y0019100D01*
X0033554Y0019100D01*
X0034550Y0018104D01*
X0034550Y0016696D01*
X0033554Y0015700D01*
X0032146Y0015700D01*
X0031500Y0016346D01*
X0031500Y0013076D01*
X0034726Y0009850D01*
X0036596Y0009850D01*
X0037146Y0010400D01*
X0038554Y0010400D01*
X0039550Y0009404D01*
X0039550Y0007996D01*
X0038554Y0007000D01*
X0037146Y0007000D01*
X0036596Y0007550D01*
X0033774Y0007550D01*
X0033100Y0008224D01*
X0029200Y0012124D01*
X0029200Y0021724D01*
X0018874Y0032050D01*
X0017404Y0032050D01*
X0017054Y0031700D01*
X0017850Y0030904D01*
X0017850Y0029496D01*
X0016854Y0028500D01*
X0015446Y0028500D01*
X0014450Y0029496D01*
X0014450Y0030904D01*
X0015246Y0031700D01*
X0015017Y0031929D02*
X0004848Y0031929D01*
X0004800Y0031976D02*
X0004800Y0052200D01*
X0009724Y0052200D01*
X0009774Y0052150D01*
X0052674Y0052150D01*
X0051300Y0050776D01*
X0051300Y0045924D01*
X0051974Y0045250D01*
X0056100Y0041124D01*
X0056100Y0011276D01*
X0051474Y0006650D01*
X0029726Y0006650D01*
X0029426Y0006950D01*
X0025904Y0006950D01*
X0026150Y0007196D01*
X0026150Y0008604D01*
X0025154Y0009600D01*
X0024376Y0009600D01*
X0018176Y0015800D01*
X0018554Y0015800D01*
X0018850Y0016096D01*
X0019646Y0015300D01*
X0021054Y0015300D01*
X0021850Y0016096D01*
X0022146Y0015800D01*
X0023554Y0015800D01*
X0023950Y0016196D01*
X0024646Y0015500D01*
X0026054Y0015500D01*
X0027050Y0016496D01*
X0027050Y0017904D01*
X0026054Y0018900D01*
X0024646Y0018900D01*
X0024250Y0018504D01*
X0023554Y0019200D01*
X0022146Y0019200D01*
X0021350Y0018404D01*
X0021054Y0018700D01*
X0019646Y0018700D01*
X0019350Y0018404D01*
X0018554Y0019200D01*
X0017146Y0019200D01*
X0016150Y0018204D01*
X0016150Y0017826D01*
X0012500Y0021476D01*
X0012500Y0022546D01*
X0013050Y0023096D01*
X0013050Y0024504D01*
X0012054Y0025500D01*
X0011276Y0025500D01*
X0004800Y0031976D01*
X0004800Y0032527D02*
X0014450Y0032527D01*
X0014450Y0033126D02*
X0004800Y0033126D01*
X0004800Y0033724D02*
X0014450Y0033724D01*
X0014868Y0034323D02*
X0004800Y0034323D01*
X0004800Y0034921D02*
X0014725Y0034921D01*
X0014450Y0035520D02*
X0004800Y0035520D01*
X0004800Y0036118D02*
X0014450Y0036118D01*
X0014562Y0036717D02*
X0004800Y0036717D01*
X0004800Y0037315D02*
X0015161Y0037315D01*
X0017139Y0037315D02*
X0056100Y0037315D01*
X0056100Y0036717D02*
X0020160Y0036717D01*
X0020758Y0036118D02*
X0029564Y0036118D01*
X0029746Y0036300D02*
X0028750Y0035304D01*
X0028750Y0033896D01*
X0029746Y0032900D01*
X0031154Y0032900D01*
X0032150Y0033896D01*
X0032150Y0035304D01*
X0031154Y0036300D01*
X0029746Y0036300D01*
X0028965Y0035520D02*
X0021357Y0035520D01*
X0021955Y0034921D02*
X0028750Y0034921D01*
X0028750Y0034323D02*
X0022554Y0034323D01*
X0023152Y0033724D02*
X0028922Y0033724D01*
X0029520Y0033126D02*
X0023751Y0033126D01*
X0024349Y0032527D02*
X0056100Y0032527D01*
X0056100Y0031929D02*
X0024948Y0031929D01*
X0025546Y0031330D02*
X0056100Y0031330D01*
X0056100Y0030732D02*
X0026145Y0030732D01*
X0026743Y0030133D02*
X0056100Y0030133D01*
X0056100Y0029534D02*
X0027342Y0029534D01*
X0027940Y0028936D02*
X0047782Y0028936D01*
X0047350Y0028504D02*
X0047350Y0027096D01*
X0048346Y0026100D01*
X0049754Y0026100D01*
X0050750Y0027096D01*
X0050750Y0028504D01*
X0049754Y0029500D01*
X0048346Y0029500D01*
X0047350Y0028504D01*
X0047350Y0028337D02*
X0028539Y0028337D01*
X0029137Y0027739D02*
X0047350Y0027739D01*
X0047350Y0027140D02*
X0029736Y0027140D01*
X0030334Y0026542D02*
X0047904Y0026542D01*
X0045650Y0025304D02*
X0045650Y0023896D01*
X0044654Y0022900D01*
X0043246Y0022900D01*
X0042250Y0023896D01*
X0042250Y0025304D01*
X0043246Y0026300D01*
X0044654Y0026300D01*
X0045650Y0025304D01*
X0045609Y0025345D02*
X0056100Y0025345D01*
X0056100Y0025943D02*
X0045011Y0025943D01*
X0045650Y0024746D02*
X0056100Y0024746D01*
X0056100Y0024148D02*
X0045650Y0024148D01*
X0045304Y0023549D02*
X0056100Y0023549D01*
X0056100Y0022951D02*
X0044705Y0022951D01*
X0043195Y0022951D02*
X0033925Y0022951D01*
X0033327Y0023549D02*
X0042596Y0023549D01*
X0042250Y0024148D02*
X0032728Y0024148D01*
X0032130Y0024746D02*
X0042250Y0024746D01*
X0042291Y0025345D02*
X0031531Y0025345D01*
X0030933Y0025943D02*
X0042889Y0025943D01*
X0045796Y0021155D02*
X0035721Y0021155D01*
X0036320Y0020557D02*
X0044351Y0020557D01*
X0043935Y0020384D02*
X0041966Y0018415D01*
X0040900Y0015842D01*
X0040900Y0013058D01*
X0041966Y0010485D01*
X0043935Y0008516D01*
X0046508Y0007450D01*
X0049292Y0007450D01*
X0051865Y0008516D01*
X0053834Y0010485D01*
X0054900Y0013058D01*
X0054900Y0015842D01*
X0053834Y0018415D01*
X0051865Y0020384D01*
X0049292Y0021450D01*
X0046508Y0021450D01*
X0043935Y0020384D01*
X0043509Y0019958D02*
X0037696Y0019958D01*
X0038294Y0019360D02*
X0042910Y0019360D01*
X0042312Y0018761D02*
X0038550Y0018761D01*
X0038550Y0018163D02*
X0041861Y0018163D01*
X0041613Y0017564D02*
X0038418Y0017564D01*
X0037820Y0016966D02*
X0041365Y0016966D01*
X0041117Y0016367D02*
X0034221Y0016367D01*
X0034550Y0016966D02*
X0035880Y0016966D01*
X0035282Y0017564D02*
X0034550Y0017564D01*
X0034491Y0018163D02*
X0035150Y0018163D01*
X0034862Y0018761D02*
X0033893Y0018761D01*
X0034264Y0019360D02*
X0031500Y0019360D01*
X0031500Y0019958D02*
X0033665Y0019958D01*
X0033067Y0020557D02*
X0031500Y0020557D01*
X0031500Y0021155D02*
X0032468Y0021155D01*
X0031870Y0021754D02*
X0031500Y0021754D01*
X0031500Y0018761D02*
X0031807Y0018761D01*
X0032077Y0015769D02*
X0031500Y0015769D01*
X0031500Y0015170D02*
X0040900Y0015170D01*
X0040900Y0014572D02*
X0031500Y0014572D01*
X0031500Y0013973D02*
X0040900Y0013973D01*
X0040900Y0013375D02*
X0031500Y0013375D01*
X0031800Y0012776D02*
X0041017Y0012776D01*
X0041264Y0012178D02*
X0032399Y0012178D01*
X0032997Y0011579D02*
X0041512Y0011579D01*
X0041760Y0010981D02*
X0033596Y0010981D01*
X0034194Y0010382D02*
X0037128Y0010382D01*
X0038572Y0010382D02*
X0042068Y0010382D01*
X0042667Y0009784D02*
X0039171Y0009784D01*
X0039550Y0009185D02*
X0043265Y0009185D01*
X0043864Y0008587D02*
X0039550Y0008587D01*
X0039542Y0007988D02*
X0045209Y0007988D01*
X0040900Y0015769D02*
X0033623Y0015769D01*
X0030343Y0010981D02*
X0022996Y0010981D01*
X0022397Y0011579D02*
X0029744Y0011579D01*
X0029200Y0012178D02*
X0021799Y0012178D01*
X0021200Y0012776D02*
X0029200Y0012776D01*
X0029200Y0013375D02*
X0020602Y0013375D01*
X0020003Y0013973D02*
X0029200Y0013973D01*
X0029200Y0014572D02*
X0019405Y0014572D01*
X0018806Y0015170D02*
X0029200Y0015170D01*
X0029200Y0015769D02*
X0026323Y0015769D01*
X0026921Y0016367D02*
X0029200Y0016367D01*
X0029200Y0016966D02*
X0027050Y0016966D01*
X0027050Y0017564D02*
X0029200Y0017564D01*
X0029200Y0018163D02*
X0026791Y0018163D01*
X0026193Y0018761D02*
X0029200Y0018761D01*
X0029200Y0019360D02*
X0014617Y0019360D01*
X0015215Y0018761D02*
X0016707Y0018761D01*
X0016150Y0018163D02*
X0015814Y0018163D01*
X0014018Y0019958D02*
X0029200Y0019958D01*
X0029200Y0020557D02*
X0013420Y0020557D01*
X0012821Y0021155D02*
X0029200Y0021155D01*
X0029170Y0021754D02*
X0012500Y0021754D01*
X0012500Y0022352D02*
X0028571Y0022352D01*
X0027973Y0022951D02*
X0012905Y0022951D01*
X0013050Y0023549D02*
X0027374Y0023549D01*
X0026776Y0024148D02*
X0013050Y0024148D01*
X0012808Y0024746D02*
X0026177Y0024746D01*
X0025579Y0025345D02*
X0012209Y0025345D01*
X0012054Y0026200D02*
X0013050Y0027196D01*
X0013050Y0028604D01*
X0012054Y0029600D01*
X0010646Y0029600D01*
X0009650Y0028604D01*
X0009650Y0027196D01*
X0010646Y0026200D01*
X0012054Y0026200D01*
X0012396Y0026542D02*
X0024382Y0026542D01*
X0024980Y0025943D02*
X0010833Y0025943D01*
X0010304Y0026542D02*
X0010234Y0026542D01*
X0009705Y0027140D02*
X0009636Y0027140D01*
X0009650Y0027739D02*
X0009037Y0027739D01*
X0008439Y0028337D02*
X0009650Y0028337D01*
X0009982Y0028936D02*
X0007840Y0028936D01*
X0007242Y0029534D02*
X0010580Y0029534D01*
X0012120Y0029534D02*
X0014450Y0029534D01*
X0014450Y0030133D02*
X0006643Y0030133D01*
X0006045Y0030732D02*
X0014450Y0030732D01*
X0015010Y0028936D02*
X0012718Y0028936D01*
X0013050Y0028337D02*
X0022586Y0028337D01*
X0023185Y0027739D02*
X0013050Y0027739D01*
X0012995Y0027140D02*
X0023783Y0027140D01*
X0021988Y0028936D02*
X0017290Y0028936D01*
X0017850Y0029534D02*
X0021389Y0029534D01*
X0020791Y0030133D02*
X0017850Y0030133D01*
X0017850Y0030732D02*
X0020192Y0030732D01*
X0019594Y0031330D02*
X0017424Y0031330D01*
X0017283Y0031929D02*
X0018995Y0031929D01*
X0019274Y0034350D02*
X0017404Y0034350D01*
X0017204Y0034550D01*
X0017404Y0034750D01*
X0018874Y0034750D01*
X0019274Y0034350D01*
X0012254Y0046800D02*
X0012804Y0047350D01*
X0046174Y0047350D01*
X0046850Y0046674D01*
X0046850Y0045896D01*
X0047846Y0044900D01*
X0049254Y0044900D01*
X0050250Y0045896D01*
X0050250Y0047304D01*
X0049254Y0048300D01*
X0048476Y0048300D01*
X0047126Y0049650D01*
X0012804Y0049650D01*
X0012254Y0050200D01*
X0010846Y0050200D01*
X0009850Y0049204D01*
X0009850Y0047796D01*
X0010846Y0046800D01*
X0012254Y0046800D01*
X0012345Y0046891D02*
X0046632Y0046891D01*
X0046850Y0046293D02*
X0008261Y0046293D01*
X0008350Y0046204D02*
X0007354Y0047200D01*
X0005946Y0047200D01*
X0004950Y0046204D01*
X0004950Y0044796D01*
X0005946Y0043800D01*
X0007354Y0043800D01*
X0008350Y0044796D01*
X0008350Y0046204D01*
X0008350Y0045694D02*
X0047052Y0045694D01*
X0047650Y0045096D02*
X0008350Y0045096D01*
X0008051Y0044497D02*
X0052726Y0044497D01*
X0052128Y0045096D02*
X0049450Y0045096D01*
X0050048Y0045694D02*
X0051529Y0045694D01*
X0051300Y0046293D02*
X0050250Y0046293D01*
X0050250Y0046891D02*
X0051300Y0046891D01*
X0051300Y0047490D02*
X0050064Y0047490D01*
X0049466Y0048088D02*
X0051300Y0048088D01*
X0051300Y0048687D02*
X0048089Y0048687D01*
X0047491Y0049285D02*
X0051300Y0049285D01*
X0051300Y0049884D02*
X0012570Y0049884D01*
X0010530Y0049884D02*
X0004800Y0049884D01*
X0004800Y0050482D02*
X0051300Y0050482D01*
X0051605Y0051081D02*
X0004800Y0051081D01*
X0004800Y0051679D02*
X0052203Y0051679D01*
X0053660Y0049884D02*
X0056650Y0049884D01*
X0056650Y0050482D02*
X0054259Y0050482D01*
X0054857Y0051081D02*
X0056650Y0051081D01*
X0056650Y0051679D02*
X0055456Y0051679D01*
X0055476Y0051700D02*
X0056254Y0051700D01*
X0056650Y0052096D01*
X0056650Y0043826D01*
X0053600Y0046876D01*
X0053600Y0049824D01*
X0055476Y0051700D01*
X0056650Y0049285D02*
X0053600Y0049285D01*
X0053600Y0048687D02*
X0056650Y0048687D01*
X0056650Y0048088D02*
X0053600Y0048088D01*
X0053600Y0047490D02*
X0056650Y0047490D01*
X0056650Y0046891D02*
X0053600Y0046891D01*
X0054184Y0046293D02*
X0056650Y0046293D01*
X0056650Y0045694D02*
X0054782Y0045694D01*
X0055381Y0045096D02*
X0056650Y0045096D01*
X0056650Y0044497D02*
X0055979Y0044497D01*
X0056578Y0043899D02*
X0056650Y0043899D01*
X0055719Y0041505D02*
X0047149Y0041505D01*
X0046854Y0041800D02*
X0045446Y0041800D01*
X0044450Y0040804D01*
X0044450Y0039396D01*
X0045446Y0038400D01*
X0046854Y0038400D01*
X0047850Y0039396D01*
X0047850Y0040804D01*
X0046854Y0041800D01*
X0047748Y0040906D02*
X0056100Y0040906D01*
X0056100Y0040308D02*
X0047850Y0040308D01*
X0047850Y0039709D02*
X0056100Y0039709D01*
X0056100Y0039111D02*
X0047565Y0039111D01*
X0046966Y0038512D02*
X0056100Y0038512D01*
X0056100Y0037914D02*
X0004800Y0037914D01*
X0004800Y0038512D02*
X0045334Y0038512D01*
X0044735Y0039111D02*
X0043265Y0039111D01*
X0042954Y0038800D02*
X0043950Y0039796D01*
X0043950Y0041204D01*
X0042954Y0042200D01*
X0041546Y0042200D01*
X0040550Y0041204D01*
X0040550Y0039796D01*
X0041546Y0038800D01*
X0042954Y0038800D01*
X0043863Y0039709D02*
X0044450Y0039709D01*
X0044450Y0040308D02*
X0043950Y0040308D01*
X0043950Y0040906D02*
X0044552Y0040906D01*
X0045151Y0041505D02*
X0043649Y0041505D01*
X0043051Y0042103D02*
X0055120Y0042103D01*
X0054522Y0042702D02*
X0004800Y0042702D01*
X0004800Y0043300D02*
X0053923Y0043300D01*
X0053325Y0043899D02*
X0007453Y0043899D01*
X0005847Y0043899D02*
X0004800Y0043899D01*
X0004800Y0044497D02*
X0005249Y0044497D01*
X0004950Y0045096D02*
X0004800Y0045096D01*
X0004800Y0045694D02*
X0004950Y0045694D01*
X0005039Y0046293D02*
X0004800Y0046293D01*
X0004800Y0046891D02*
X0005637Y0046891D01*
X0004800Y0047490D02*
X0010156Y0047490D01*
X0009850Y0048088D02*
X0004800Y0048088D01*
X0004800Y0048687D02*
X0009850Y0048687D01*
X0009931Y0049285D02*
X0004800Y0049285D01*
X0007663Y0046891D02*
X0010755Y0046891D01*
X0004800Y0042103D02*
X0041449Y0042103D01*
X0040851Y0041505D02*
X0004800Y0041505D01*
X0004800Y0040906D02*
X0040550Y0040906D01*
X0040550Y0040308D02*
X0004800Y0040308D01*
X0004800Y0039709D02*
X0040637Y0039709D01*
X0041235Y0039111D02*
X0004800Y0039111D01*
X0004150Y0019958D02*
X0006643Y0019958D01*
X0006070Y0019360D02*
X0004150Y0019360D01*
X0004150Y0018761D02*
X0005679Y0018761D01*
X0005431Y0018163D02*
X0004150Y0018163D01*
X0004150Y0017564D02*
X0005296Y0017564D01*
X0013004Y0017564D02*
X0013159Y0017564D01*
X0018208Y0015769D02*
X0019177Y0015769D01*
X0021523Y0015769D02*
X0024377Y0015769D01*
X0024507Y0018761D02*
X0023993Y0018761D01*
X0021707Y0018761D02*
X0018993Y0018761D01*
X0023594Y0010382D02*
X0030942Y0010382D01*
X0031540Y0009784D02*
X0024193Y0009784D01*
X0025569Y0009185D02*
X0032139Y0009185D01*
X0032737Y0008587D02*
X0026150Y0008587D01*
X0026150Y0007988D02*
X0033336Y0007988D01*
X0036756Y0007390D02*
X0026150Y0007390D01*
X0029585Y0006791D02*
X0051615Y0006791D01*
X0052213Y0007390D02*
X0038944Y0007390D01*
X0035122Y0021754D02*
X0056100Y0021754D01*
X0056100Y0022352D02*
X0034524Y0022352D01*
X0031380Y0033126D02*
X0056100Y0033126D01*
X0056100Y0033724D02*
X0031978Y0033724D01*
X0032150Y0034323D02*
X0056100Y0034323D01*
X0056100Y0034921D02*
X0032150Y0034921D01*
X0031935Y0035520D02*
X0056100Y0035520D01*
X0056100Y0036118D02*
X0031336Y0036118D01*
X0050318Y0028936D02*
X0056100Y0028936D01*
X0056100Y0028337D02*
X0050750Y0028337D01*
X0050750Y0027739D02*
X0056100Y0027739D01*
X0056100Y0027140D02*
X0050750Y0027140D01*
X0050196Y0026542D02*
X0056100Y0026542D01*
X0056100Y0021155D02*
X0050004Y0021155D01*
X0051449Y0020557D02*
X0056100Y0020557D01*
X0056100Y0019958D02*
X0052291Y0019958D01*
X0052890Y0019360D02*
X0056100Y0019360D01*
X0056100Y0018761D02*
X0053488Y0018761D01*
X0053939Y0018163D02*
X0056100Y0018163D01*
X0056100Y0017564D02*
X0054187Y0017564D01*
X0054435Y0016966D02*
X0056100Y0016966D01*
X0056100Y0016367D02*
X0054683Y0016367D01*
X0054900Y0015769D02*
X0056100Y0015769D01*
X0056100Y0015170D02*
X0054900Y0015170D01*
X0054900Y0014572D02*
X0056100Y0014572D01*
X0056100Y0013973D02*
X0054900Y0013973D01*
X0054900Y0013375D02*
X0056100Y0013375D01*
X0056100Y0012776D02*
X0054783Y0012776D01*
X0054535Y0012178D02*
X0056100Y0012178D01*
X0056100Y0011579D02*
X0054288Y0011579D01*
X0054040Y0010981D02*
X0055804Y0010981D01*
X0055206Y0010382D02*
X0053732Y0010382D01*
X0053133Y0009784D02*
X0054607Y0009784D01*
X0054009Y0009185D02*
X0052535Y0009185D01*
X0051936Y0008587D02*
X0053410Y0008587D01*
X0052812Y0007988D02*
X0050591Y0007988D01*
X0053776Y0005700D02*
X0056650Y0008574D01*
X0056650Y0005700D01*
X0053776Y0005700D01*
X0054269Y0006193D02*
X0056650Y0006193D01*
X0056650Y0006791D02*
X0054867Y0006791D01*
X0055466Y0007390D02*
X0056650Y0007390D01*
X0056650Y0007988D02*
X0056064Y0007988D01*
M02*
