G75*
%MOIN*%
%OFA0B0*%
%FSLAX25Y25*%
%IPPOS*%
%LPD*%
%AMOC8*
5,1,8,0,0,1.08239X$1,22.5*
%
%ADD10R,0.03000X0.02700*%
%ADD11OC8,0.05200*%
%ADD12R,0.16142X0.16142*%
%ADD13R,0.03543X0.00984*%
%ADD14R,0.00984X0.03543*%
%ADD15R,0.01500X0.03000*%
%ADD16R,0.01500X0.04000*%
%ADD17R,0.01700X0.01700*%
%ADD18R,0.03937X0.04724*%
%ADD19C,0.16000*%
%ADD20C,0.00500*%
%ADD21C,0.01800*%
D10*
X0011650Y0031100D03*
X0011650Y0035300D03*
X0011650Y0040000D03*
X0011650Y0044200D03*
X0005900Y0054499D03*
X0005900Y0058699D03*
X0047200Y0035850D03*
X0047200Y0031650D03*
X0052600Y0041400D03*
X0052600Y0045600D03*
D11*
X0053700Y0061500D03*
X0009150Y0016950D03*
X0008000Y0063700D03*
D12*
X0030400Y0052350D03*
D13*
X0016424Y0052350D03*
X0016424Y0050381D03*
X0016424Y0048413D03*
X0016424Y0046444D03*
X0016424Y0044476D03*
X0016424Y0042507D03*
X0016424Y0054319D03*
X0016424Y0056287D03*
X0016424Y0058256D03*
X0016424Y0060224D03*
X0016424Y0062193D03*
X0044376Y0062193D03*
X0044376Y0060224D03*
X0044376Y0058256D03*
X0044376Y0056287D03*
X0044376Y0054319D03*
X0044376Y0052350D03*
X0044376Y0050381D03*
X0044376Y0048413D03*
X0044376Y0046444D03*
X0044376Y0044476D03*
X0044376Y0042507D03*
D14*
X0040243Y0038374D03*
X0038274Y0038374D03*
X0036306Y0038374D03*
X0034337Y0038374D03*
X0032369Y0038374D03*
X0030400Y0038374D03*
X0028431Y0038374D03*
X0026463Y0038374D03*
X0024494Y0038374D03*
X0022526Y0038374D03*
X0020557Y0038374D03*
X0020557Y0066326D03*
X0022526Y0066326D03*
X0024494Y0066326D03*
X0026463Y0066326D03*
X0028431Y0066326D03*
X0030400Y0066326D03*
X0032369Y0066326D03*
X0034337Y0066326D03*
X0036306Y0066326D03*
X0038274Y0066326D03*
X0040243Y0066326D03*
D15*
X0039150Y0080450D03*
X0036650Y0080450D03*
X0034150Y0080450D03*
X0031650Y0080450D03*
X0029150Y0080450D03*
X0026650Y0080450D03*
X0024150Y0080450D03*
X0021650Y0080450D03*
X0019150Y0080450D03*
X0016650Y0080450D03*
X0014150Y0080450D03*
X0011650Y0080450D03*
X0009150Y0080450D03*
X0041650Y0080450D03*
X0044150Y0080450D03*
X0046650Y0080450D03*
X0049150Y0080450D03*
X0051650Y0080450D03*
X0032900Y0020950D03*
X0030400Y0020950D03*
X0027900Y0020950D03*
X0025400Y0020950D03*
X0022900Y0020950D03*
X0020400Y0020950D03*
X0017900Y0020950D03*
X0015400Y0020950D03*
D16*
X0015400Y0025450D03*
X0017900Y0025450D03*
X0020400Y0025450D03*
X0022900Y0025450D03*
X0025400Y0025450D03*
X0027900Y0025450D03*
X0030400Y0025450D03*
X0032900Y0025450D03*
X0031650Y0075950D03*
X0029150Y0075950D03*
X0026650Y0075950D03*
X0024150Y0075950D03*
X0021650Y0075950D03*
X0019150Y0075950D03*
X0016650Y0075950D03*
X0014150Y0075950D03*
X0011650Y0075950D03*
X0009150Y0075950D03*
X0034150Y0075950D03*
X0036650Y0075950D03*
X0039150Y0075950D03*
X0041650Y0075950D03*
X0044150Y0075950D03*
X0046650Y0075950D03*
X0049150Y0075950D03*
X0051650Y0075950D03*
D17*
X0053300Y0052950D03*
X0053300Y0049850D03*
X0036850Y0033050D03*
X0033750Y0033050D03*
X0036800Y0024900D03*
X0036800Y0021800D03*
D18*
X0007850Y0049700D03*
X0006650Y0037600D03*
X0006650Y0025700D03*
D19*
X0047900Y0014450D03*
D20*
X0043950Y0024600D02*
X0041950Y0024600D01*
X0041650Y0024900D01*
X0039150Y0024900D01*
X0036800Y0024900D01*
X0035850Y0028400D02*
X0044450Y0028400D01*
X0047150Y0025700D01*
X0051450Y0025700D01*
X0056450Y0030700D01*
X0056450Y0047900D01*
X0056450Y0049800D01*
X0053300Y0052950D01*
X0053300Y0052600D01*
X0044626Y0052600D01*
X0044376Y0052350D01*
X0044376Y0050381D01*
X0044376Y0048413D02*
X0046737Y0048413D01*
X0048550Y0046600D01*
X0051800Y0049850D01*
X0053300Y0049850D01*
X0051050Y0054000D02*
X0057050Y0060000D01*
X0057050Y0063000D01*
X0049150Y0070900D01*
X0049150Y0075950D01*
X0046650Y0075950D02*
X0046650Y0071300D01*
X0050350Y0067600D01*
X0050350Y0059600D01*
X0048650Y0057900D01*
X0048650Y0056287D01*
X0044376Y0056287D01*
X0044376Y0054319D02*
X0044695Y0054000D01*
X0051050Y0054000D01*
X0047306Y0058256D02*
X0048650Y0059600D01*
X0048650Y0067300D01*
X0044150Y0071800D01*
X0044150Y0075950D01*
X0041650Y0075950D02*
X0041650Y0072400D01*
X0047550Y0066500D01*
X0047550Y0061300D01*
X0046474Y0060224D01*
X0044376Y0060224D01*
X0044376Y0058256D02*
X0047306Y0058256D01*
X0044376Y0062193D02*
X0044376Y0068174D01*
X0039150Y0073400D01*
X0039150Y0075950D01*
X0036650Y0075950D02*
X0036650Y0072200D01*
X0040250Y0068600D01*
X0040250Y0066334D01*
X0040243Y0066326D01*
X0038274Y0066326D02*
X0038274Y0068076D01*
X0034150Y0072200D01*
X0034150Y0075950D01*
X0031650Y0075950D02*
X0031650Y0072400D01*
X0034850Y0069200D01*
X0035150Y0069200D01*
X0036306Y0068044D01*
X0036306Y0066326D01*
X0034337Y0066326D02*
X0033750Y0066913D01*
X0033750Y0068600D01*
X0033150Y0069200D01*
X0032650Y0069200D01*
X0029150Y0072700D01*
X0029150Y0075950D01*
X0026650Y0075950D02*
X0026650Y0072600D01*
X0029050Y0070200D01*
X0029850Y0070200D01*
X0032369Y0067681D01*
X0032369Y0066326D01*
X0030400Y0066326D02*
X0030400Y0067750D01*
X0029050Y0069100D01*
X0028650Y0069100D01*
X0024850Y0072900D01*
X0024150Y0072900D01*
X0024150Y0075950D01*
X0021650Y0075950D02*
X0021650Y0071900D01*
X0023350Y0071900D01*
X0024450Y0070800D01*
X0025350Y0070800D01*
X0028431Y0067719D01*
X0028431Y0066326D01*
X0026463Y0066326D02*
X0026463Y0067787D01*
X0025350Y0068900D01*
X0024850Y0068900D01*
X0022850Y0070900D01*
X0019150Y0070900D01*
X0019150Y0075950D01*
X0016650Y0075950D02*
X0016650Y0069900D01*
X0022350Y0069900D01*
X0024494Y0067756D01*
X0024494Y0066326D01*
X0024494Y0067656D01*
X0024494Y0067556D02*
X0024494Y0066326D01*
X0022526Y0066326D02*
X0021950Y0066902D01*
X0021950Y0068400D01*
X0021450Y0068900D01*
X0014150Y0068900D01*
X0014150Y0075950D01*
X0011650Y0075950D02*
X0011650Y0066326D01*
X0020557Y0066326D01*
X0016424Y0062193D02*
X0016424Y0060224D01*
X0016424Y0058256D02*
X0011550Y0058256D01*
X0009550Y0058200D01*
X0006399Y0058200D01*
X0005900Y0058699D01*
X0004150Y0060449D01*
X0004150Y0075950D01*
X0009150Y0075950D01*
X0009150Y0080450D02*
X0009150Y0084700D01*
X0011650Y0084200D02*
X0011650Y0080450D01*
X0014150Y0080450D02*
X0014150Y0084700D01*
X0016650Y0084200D02*
X0016650Y0080450D01*
X0019150Y0080450D02*
X0019150Y0084700D01*
X0021650Y0084200D02*
X0021650Y0080450D01*
X0024150Y0080450D02*
X0024150Y0084700D01*
X0026650Y0084200D02*
X0026650Y0080450D01*
X0029150Y0080450D02*
X0029150Y0084700D01*
X0031650Y0084200D02*
X0031650Y0080450D01*
X0034150Y0080450D02*
X0034150Y0084700D01*
X0036650Y0084200D02*
X0036650Y0080450D01*
X0039150Y0080450D02*
X0039150Y0084700D01*
X0041650Y0084200D02*
X0041650Y0080450D01*
X0044150Y0080450D02*
X0044150Y0084700D01*
X0046650Y0084200D02*
X0046650Y0080450D01*
X0049150Y0080450D02*
X0049150Y0084700D01*
X0051650Y0084200D02*
X0051650Y0080450D01*
X0051650Y0075950D02*
X0051650Y0075900D01*
X0055850Y0075900D01*
X0056450Y0047900D02*
X0054150Y0045600D01*
X0052600Y0045600D01*
X0052600Y0041400D02*
X0052600Y0031650D01*
X0047200Y0031650D01*
X0047200Y0035850D02*
X0044376Y0035850D01*
X0044376Y0042507D01*
X0044376Y0044476D02*
X0048250Y0044476D01*
X0048250Y0040100D01*
X0046150Y0040100D01*
X0048250Y0040100D02*
X0051300Y0040100D01*
X0052600Y0041400D01*
X0044376Y0044476D02*
X0044376Y0046444D01*
X0041550Y0041200D02*
X0042250Y0040500D01*
X0041550Y0041200D02*
X0022526Y0041200D01*
X0018950Y0041200D01*
X0018750Y0041000D01*
X0011650Y0041000D01*
X0011650Y0040000D01*
X0011650Y0043300D02*
X0011650Y0044200D01*
X0011650Y0043300D02*
X0003650Y0043300D01*
X0003650Y0056600D01*
X0008650Y0056600D01*
X0009550Y0055700D01*
X0010450Y0055700D01*
X0011850Y0054300D01*
X0014250Y0054300D01*
X0014269Y0054319D01*
X0016424Y0054319D01*
X0016424Y0056400D01*
X0012350Y0056400D01*
X0016450Y0056400D01*
X0016450Y0054300D01*
X0028450Y0054300D01*
X0030400Y0052350D01*
X0022526Y0041200D02*
X0022526Y0038374D01*
X0024494Y0038374D02*
X0024494Y0035800D01*
X0016250Y0035800D01*
X0016233Y0035802D01*
X0016216Y0035806D01*
X0016200Y0035813D01*
X0016186Y0035823D01*
X0016173Y0035836D01*
X0016163Y0035850D01*
X0016156Y0035866D01*
X0016152Y0035883D01*
X0016150Y0035900D01*
X0015050Y0037600D02*
X0013950Y0036500D01*
X0013950Y0033200D01*
X0009250Y0033200D01*
X0006650Y0030600D01*
X0006650Y0025700D01*
X0003450Y0029700D02*
X0003450Y0020950D01*
X0015400Y0020950D01*
X0012550Y0018100D01*
X0012550Y0015400D01*
X0005150Y0008000D01*
X0011350Y0023800D02*
X0013000Y0025450D01*
X0015400Y0025450D01*
X0017900Y0025450D02*
X0017900Y0029300D01*
X0017950Y0029300D01*
X0017050Y0030200D01*
X0016150Y0030200D01*
X0017950Y0029300D02*
X0020050Y0029300D01*
X0022850Y0032100D01*
X0026250Y0032100D01*
X0028431Y0034281D01*
X0028431Y0038374D01*
X0026463Y0038374D02*
X0026463Y0034500D01*
X0019850Y0034500D01*
X0018550Y0033200D01*
X0016150Y0033200D01*
X0015050Y0037600D02*
X0017250Y0037600D01*
X0017850Y0038200D01*
X0020384Y0038200D01*
X0020557Y0038374D01*
X0018950Y0041200D02*
X0018950Y0048413D01*
X0016424Y0048413D01*
X0016424Y0050381D02*
X0016424Y0052350D01*
X0014700Y0052350D01*
X0013750Y0053300D01*
X0010250Y0053300D01*
X0009550Y0054000D01*
X0012550Y0051400D02*
X0012550Y0050000D01*
X0013750Y0048800D01*
X0013750Y0047300D01*
X0014050Y0047300D01*
X0016424Y0046444D01*
X0014906Y0046444D01*
X0013750Y0046300D02*
X0013950Y0045600D01*
X0013950Y0044476D01*
X0016424Y0044476D01*
X0016422Y0044445D01*
X0016417Y0044415D01*
X0016409Y0044385D01*
X0016397Y0044356D01*
X0016382Y0044329D01*
X0016364Y0044304D01*
X0016343Y0044281D01*
X0016320Y0044260D01*
X0016295Y0044242D01*
X0016268Y0044227D01*
X0016239Y0044215D01*
X0016209Y0044207D01*
X0016179Y0044202D01*
X0016148Y0044200D01*
X0016424Y0042507D02*
X0016424Y0042100D01*
X0006650Y0042100D01*
X0006650Y0037600D01*
X0008150Y0034400D02*
X0011550Y0034400D01*
X0011586Y0034432D01*
X0011620Y0034465D01*
X0011651Y0034502D01*
X0011679Y0034540D01*
X0011705Y0034581D01*
X0011727Y0034623D01*
X0011746Y0034667D01*
X0011762Y0034712D01*
X0011774Y0034759D01*
X0011783Y0034806D01*
X0011788Y0034853D01*
X0011790Y0034901D01*
X0011788Y0034949D01*
X0011783Y0034996D01*
X0011774Y0035043D01*
X0011761Y0035090D01*
X0011745Y0035135D01*
X0011726Y0035179D01*
X0011704Y0035221D01*
X0011678Y0035261D01*
X0011650Y0035300D01*
X0011650Y0031100D02*
X0011350Y0030000D01*
X0011350Y0027900D01*
X0008150Y0034400D02*
X0003450Y0029700D01*
X0006650Y0045500D02*
X0004950Y0047200D01*
X0004950Y0053400D01*
X0005150Y0053600D01*
X0005700Y0053600D01*
X0005900Y0054499D01*
X0006344Y0058256D02*
X0005900Y0058699D01*
X0009507Y0062193D02*
X0008000Y0063700D01*
X0009507Y0062193D02*
X0016424Y0062193D01*
X0016424Y0056287D02*
X0016424Y0054319D01*
X0016424Y0052350D02*
X0016424Y0052300D01*
X0013750Y0046300D02*
X0009650Y0046300D01*
X0009650Y0049700D01*
X0007850Y0049700D01*
X0023450Y0031100D02*
X0020400Y0028050D01*
X0020400Y0025450D01*
X0022900Y0025450D02*
X0022900Y0026500D01*
X0022900Y0027250D02*
X0022900Y0025450D01*
X0022900Y0027250D02*
X0025750Y0030100D01*
X0027550Y0030100D01*
X0029850Y0032400D01*
X0031150Y0032400D01*
X0031800Y0033050D01*
X0033750Y0033050D01*
X0032369Y0034431D01*
X0032369Y0038374D01*
X0034337Y0038374D02*
X0034337Y0035713D01*
X0036850Y0033200D01*
X0036850Y0033050D01*
X0036850Y0031400D01*
X0030550Y0031400D01*
X0028250Y0029100D01*
X0026450Y0029100D01*
X0025400Y0028050D01*
X0025400Y0025450D01*
X0027900Y0025450D02*
X0027900Y0027050D01*
X0031250Y0030400D01*
X0038550Y0030400D01*
X0038550Y0034700D01*
X0037050Y0034700D01*
X0036306Y0035444D01*
X0036306Y0038374D01*
X0038274Y0038374D02*
X0038274Y0035976D01*
X0038550Y0035700D01*
X0039550Y0035700D01*
X0039550Y0029400D01*
X0032350Y0029400D01*
X0030400Y0027450D01*
X0030400Y0025450D01*
X0032900Y0025450D02*
X0035850Y0028400D01*
X0039150Y0024900D02*
X0039150Y0014700D01*
X0037850Y0014700D01*
X0036850Y0014700D01*
X0031550Y0014700D01*
X0027900Y0018350D01*
X0027900Y0020950D01*
X0025400Y0020950D02*
X0025400Y0017200D01*
X0025350Y0017200D01*
X0022900Y0017550D02*
X0022900Y0020950D01*
X0022900Y0017550D02*
X0022850Y0017500D01*
X0020400Y0017000D02*
X0020350Y0017000D01*
X0020400Y0017000D02*
X0020400Y0020950D01*
X0017900Y0020950D02*
X0017900Y0017550D01*
X0017850Y0017500D01*
X0023450Y0031100D02*
X0026900Y0031100D01*
X0030400Y0034600D01*
X0030450Y0034600D01*
X0030400Y0034600D02*
X0030400Y0038374D01*
X0040243Y0038374D02*
X0042450Y0036166D01*
X0042450Y0033400D01*
X0036800Y0021800D02*
X0036800Y0018400D01*
X0036850Y0018400D01*
X0034150Y0015700D01*
X0032150Y0015700D01*
X0030400Y0017450D01*
X0030400Y0020950D01*
X0032850Y0020900D02*
X0032850Y0017400D01*
X0032850Y0020900D02*
X0032900Y0020950D01*
X0037850Y0014700D02*
X0037850Y0008700D01*
X0030400Y0066326D02*
X0030400Y0067350D01*
X0026463Y0067687D02*
X0026463Y0066326D01*
D21*
X0005150Y0008000D03*
X0011350Y0023800D03*
X0011350Y0027900D03*
X0016150Y0030200D03*
X0016150Y0033200D03*
X0016150Y0035900D03*
X0016550Y0039300D03*
X0011550Y0048500D03*
X0012550Y0051400D03*
X0009550Y0054000D03*
X0009550Y0058200D03*
X0012350Y0056400D03*
X0006650Y0045500D03*
X0017850Y0017500D03*
X0020350Y0017000D03*
X0022850Y0017500D03*
X0025350Y0017200D03*
X0024450Y0007900D03*
X0032850Y0017400D03*
X0036850Y0018400D03*
X0037850Y0008700D03*
X0043950Y0024600D03*
X0044450Y0028400D03*
X0042450Y0033400D03*
X0046150Y0040100D03*
X0042250Y0040500D03*
X0048550Y0046600D03*
X0050350Y0057200D03*
X0055550Y0053400D03*
X0056450Y0047900D03*
X0049050Y0027800D03*
X0030450Y0034600D03*
X0055850Y0075900D03*
X0051650Y0084200D03*
X0049150Y0084700D03*
X0046650Y0084200D03*
X0044150Y0084700D03*
X0041650Y0084200D03*
X0039150Y0084700D03*
X0036650Y0084200D03*
X0034150Y0084700D03*
X0031650Y0084200D03*
X0029150Y0084700D03*
X0026650Y0084200D03*
X0024150Y0084700D03*
X0021650Y0084200D03*
X0019150Y0084700D03*
X0016650Y0084200D03*
X0014150Y0084700D03*
X0011650Y0084200D03*
X0009150Y0084700D03*
M02*
