G75*
%MOIN*%
%OFA0B0*%
%FSLAX25Y25*%
%IPPOS*%
%LPD*%
%AMOC8*
5,1,8,0,0,1.08239X$1,22.5*
%
%ADD10C,0.05200*%
%ADD11C,0.12400*%
%ADD12C,0.00600*%
%ADD13C,0.01800*%
%ADD14C,0.00500*%
D10*
X0009150Y0016950D03*
X0008000Y0063700D03*
X0053700Y0061500D03*
D11*
X0047900Y0014450D03*
D12*
X0004150Y0006596D02*
X0004150Y0005700D01*
X0056650Y0005700D01*
X0056650Y0046200D01*
X0055746Y0046200D01*
X0054750Y0047196D01*
X0054750Y0048604D01*
X0055746Y0049600D01*
X0056650Y0049600D01*
X0056650Y0052096D01*
X0056254Y0051700D01*
X0054846Y0051700D01*
X0053850Y0052696D01*
X0053850Y0054104D01*
X0054846Y0055100D01*
X0056254Y0055100D01*
X0056650Y0054704D01*
X0056650Y0059737D01*
X0056582Y0059574D01*
X0055626Y0058618D01*
X0054376Y0058100D01*
X0053024Y0058100D01*
X0051774Y0058618D01*
X0050818Y0059574D01*
X0050300Y0060824D01*
X0050300Y0062176D01*
X0050818Y0063426D01*
X0051774Y0064382D01*
X0053024Y0064900D01*
X0054376Y0064900D01*
X0055626Y0064382D01*
X0056582Y0063426D01*
X0056650Y0063263D01*
X0056650Y0091522D01*
X0056564Y0091950D01*
X0004236Y0091950D01*
X0004150Y0091522D01*
X0004150Y0064335D01*
X0004250Y0064838D01*
X0004544Y0065547D01*
X0004971Y0066186D01*
X0005514Y0066729D01*
X0006153Y0067156D01*
X0006862Y0067450D01*
X0007616Y0067600D01*
X0007700Y0067600D01*
X0007700Y0064000D01*
X0008300Y0064000D01*
X0011900Y0064000D01*
X0011900Y0064084D01*
X0011750Y0064838D01*
X0011456Y0065547D01*
X0011029Y0066186D01*
X0010486Y0066729D01*
X0009847Y0067156D01*
X0009138Y0067450D01*
X0008384Y0067600D01*
X0008300Y0067600D01*
X0008300Y0064000D01*
X0008300Y0063400D01*
X0011900Y0063400D01*
X0011900Y0063316D01*
X0011750Y0062562D01*
X0011456Y0061853D01*
X0011029Y0061214D01*
X0010486Y0060671D01*
X0009847Y0060244D01*
X0009138Y0059950D01*
X0008887Y0059900D01*
X0010254Y0059900D01*
X0011250Y0058904D01*
X0011250Y0057704D01*
X0011646Y0058100D01*
X0013054Y0058100D01*
X0014050Y0057104D01*
X0014050Y0055696D01*
X0013054Y0054700D01*
X0011646Y0054700D01*
X0010650Y0055696D01*
X0010650Y0056896D01*
X0010254Y0056500D01*
X0008846Y0056500D01*
X0007850Y0057496D01*
X0007850Y0058904D01*
X0008836Y0059890D01*
X0008384Y0059800D01*
X0008300Y0059800D01*
X0008300Y0063400D01*
X0007700Y0063400D01*
X0007700Y0059800D01*
X0007616Y0059800D01*
X0006862Y0059950D01*
X0006153Y0060244D01*
X0005514Y0060671D01*
X0004971Y0061214D01*
X0004544Y0061853D01*
X0004250Y0062562D01*
X0004150Y0063065D01*
X0004150Y0009404D01*
X0004446Y0009700D01*
X0005854Y0009700D01*
X0006850Y0008704D01*
X0006850Y0007296D01*
X0005854Y0006300D01*
X0004446Y0006300D01*
X0004150Y0006596D01*
X0004150Y0006193D02*
X0056650Y0006193D01*
X0056650Y0006791D02*
X0025745Y0006791D01*
X0026150Y0007196D02*
X0025154Y0006200D01*
X0023746Y0006200D01*
X0022750Y0007196D01*
X0022750Y0008604D01*
X0023746Y0009600D01*
X0025154Y0009600D01*
X0026150Y0008604D01*
X0026150Y0007196D01*
X0026150Y0007390D02*
X0036756Y0007390D01*
X0037146Y0007000D02*
X0036150Y0007996D01*
X0036150Y0009404D01*
X0037146Y0010400D01*
X0038554Y0010400D01*
X0039550Y0009404D01*
X0039550Y0007996D01*
X0038554Y0007000D01*
X0037146Y0007000D01*
X0036158Y0007988D02*
X0026150Y0007988D01*
X0026150Y0008587D02*
X0036150Y0008587D01*
X0036150Y0009185D02*
X0025569Y0009185D01*
X0023331Y0009185D02*
X0006369Y0009185D01*
X0006850Y0008587D02*
X0022750Y0008587D01*
X0022750Y0007988D02*
X0006850Y0007988D01*
X0006850Y0007390D02*
X0022750Y0007390D01*
X0023155Y0006791D02*
X0006345Y0006791D01*
X0004150Y0009784D02*
X0036529Y0009784D01*
X0037128Y0010382D02*
X0004150Y0010382D01*
X0004150Y0010981D02*
X0041760Y0010981D01*
X0041966Y0010485D02*
X0043935Y0008516D01*
X0046508Y0007450D01*
X0049292Y0007450D01*
X0051865Y0008516D01*
X0053834Y0010485D01*
X0054900Y0013058D01*
X0054900Y0015842D01*
X0053834Y0018415D01*
X0051865Y0020384D01*
X0049292Y0021450D01*
X0046508Y0021450D01*
X0043935Y0020384D01*
X0041966Y0018415D01*
X0040900Y0015842D01*
X0040900Y0013058D01*
X0041966Y0010485D01*
X0042068Y0010382D02*
X0038572Y0010382D01*
X0039171Y0009784D02*
X0042667Y0009784D01*
X0043265Y0009185D02*
X0039550Y0009185D01*
X0039550Y0008587D02*
X0043864Y0008587D01*
X0045209Y0007988D02*
X0039542Y0007988D01*
X0038944Y0007390D02*
X0056650Y0007390D01*
X0056650Y0007988D02*
X0050591Y0007988D01*
X0051936Y0008587D02*
X0056650Y0008587D01*
X0056650Y0009185D02*
X0052535Y0009185D01*
X0053133Y0009784D02*
X0056650Y0009784D01*
X0056650Y0010382D02*
X0053732Y0010382D01*
X0054040Y0010981D02*
X0056650Y0010981D01*
X0056650Y0011579D02*
X0054288Y0011579D01*
X0054535Y0012178D02*
X0056650Y0012178D01*
X0056650Y0012776D02*
X0054783Y0012776D01*
X0054900Y0013375D02*
X0056650Y0013375D01*
X0056650Y0013973D02*
X0054900Y0013973D01*
X0054900Y0014572D02*
X0056650Y0014572D01*
X0056650Y0015170D02*
X0054900Y0015170D01*
X0054900Y0015769D02*
X0056650Y0015769D01*
X0056650Y0016367D02*
X0054683Y0016367D01*
X0054435Y0016966D02*
X0056650Y0016966D01*
X0056650Y0017564D02*
X0054187Y0017564D01*
X0053939Y0018163D02*
X0056650Y0018163D01*
X0056650Y0018761D02*
X0053488Y0018761D01*
X0052890Y0019360D02*
X0056650Y0019360D01*
X0056650Y0019958D02*
X0052291Y0019958D01*
X0051449Y0020557D02*
X0056650Y0020557D01*
X0056650Y0021155D02*
X0050004Y0021155D01*
X0045154Y0026700D02*
X0046150Y0027696D01*
X0046150Y0029104D01*
X0045154Y0030100D01*
X0043746Y0030100D01*
X0042750Y0029104D01*
X0042750Y0027696D01*
X0043746Y0026700D01*
X0045154Y0026700D01*
X0045595Y0027140D02*
X0056650Y0027140D01*
X0056650Y0026542D02*
X0004150Y0026542D01*
X0004150Y0027140D02*
X0043305Y0027140D01*
X0042750Y0027739D02*
X0004150Y0027739D01*
X0004150Y0028337D02*
X0042750Y0028337D01*
X0042750Y0028936D02*
X0017290Y0028936D01*
X0016854Y0028500D02*
X0017850Y0029496D01*
X0017850Y0030904D01*
X0017054Y0031700D01*
X0017850Y0032496D01*
X0017850Y0033904D01*
X0017204Y0034550D01*
X0017850Y0035196D01*
X0017850Y0036604D01*
X0016854Y0037600D01*
X0015446Y0037600D01*
X0014450Y0036604D01*
X0014450Y0035196D01*
X0015096Y0034550D01*
X0014450Y0033904D01*
X0014450Y0032496D01*
X0015246Y0031700D01*
X0014450Y0030904D01*
X0014450Y0029496D01*
X0015446Y0028500D01*
X0016854Y0028500D01*
X0017850Y0029534D02*
X0043180Y0029534D01*
X0043154Y0031700D02*
X0041746Y0031700D01*
X0040750Y0032696D01*
X0040750Y0034104D01*
X0041746Y0035100D01*
X0043154Y0035100D01*
X0044150Y0034104D01*
X0044150Y0032696D01*
X0043154Y0031700D01*
X0043383Y0031929D02*
X0056650Y0031929D01*
X0056650Y0032527D02*
X0043981Y0032527D01*
X0044150Y0033126D02*
X0056650Y0033126D01*
X0056650Y0033724D02*
X0044150Y0033724D01*
X0043932Y0034323D02*
X0056650Y0034323D01*
X0056650Y0034921D02*
X0043333Y0034921D01*
X0041567Y0034921D02*
X0032150Y0034921D01*
X0032150Y0035304D02*
X0031154Y0036300D01*
X0029746Y0036300D01*
X0028750Y0035304D01*
X0028750Y0033896D01*
X0029746Y0032900D01*
X0031154Y0032900D01*
X0032150Y0033896D01*
X0032150Y0035304D01*
X0031935Y0035520D02*
X0056650Y0035520D01*
X0056650Y0036118D02*
X0031336Y0036118D01*
X0029564Y0036118D02*
X0017850Y0036118D01*
X0017850Y0035520D02*
X0028965Y0035520D01*
X0028750Y0034921D02*
X0017575Y0034921D01*
X0017432Y0034323D02*
X0028750Y0034323D01*
X0028922Y0033724D02*
X0017850Y0033724D01*
X0017850Y0033126D02*
X0029520Y0033126D01*
X0031380Y0033126D02*
X0040750Y0033126D01*
X0040750Y0033724D02*
X0031978Y0033724D01*
X0032150Y0034323D02*
X0040968Y0034323D01*
X0040919Y0032527D02*
X0017850Y0032527D01*
X0017283Y0031929D02*
X0041517Y0031929D01*
X0043246Y0026300D02*
X0042250Y0025304D01*
X0042250Y0023896D01*
X0043246Y0022900D01*
X0044654Y0022900D01*
X0045650Y0023896D01*
X0045650Y0025304D01*
X0044654Y0026300D01*
X0043246Y0026300D01*
X0042889Y0025943D02*
X0004150Y0025943D01*
X0004150Y0025345D02*
X0010491Y0025345D01*
X0010646Y0025500D02*
X0009650Y0024504D01*
X0009650Y0023096D01*
X0010646Y0022100D01*
X0012054Y0022100D01*
X0013050Y0023096D01*
X0013050Y0024504D01*
X0012054Y0025500D01*
X0010646Y0025500D01*
X0009892Y0024746D02*
X0004150Y0024746D01*
X0004150Y0024148D02*
X0009650Y0024148D01*
X0009650Y0023549D02*
X0004150Y0023549D01*
X0004150Y0022951D02*
X0009795Y0022951D01*
X0010393Y0022352D02*
X0004150Y0022352D01*
X0004150Y0021754D02*
X0056650Y0021754D01*
X0056650Y0022352D02*
X0012307Y0022352D01*
X0012905Y0022951D02*
X0043195Y0022951D01*
X0042596Y0023549D02*
X0013050Y0023549D01*
X0013050Y0024148D02*
X0042250Y0024148D01*
X0042250Y0024746D02*
X0012808Y0024746D01*
X0012209Y0025345D02*
X0042291Y0025345D01*
X0044705Y0022951D02*
X0056650Y0022951D01*
X0056650Y0023549D02*
X0045304Y0023549D01*
X0045650Y0024148D02*
X0056650Y0024148D01*
X0056650Y0024746D02*
X0045650Y0024746D01*
X0045609Y0025345D02*
X0056650Y0025345D01*
X0056650Y0025943D02*
X0045011Y0025943D01*
X0046150Y0027739D02*
X0056650Y0027739D01*
X0056650Y0028337D02*
X0046150Y0028337D01*
X0046150Y0028936D02*
X0056650Y0028936D01*
X0056650Y0029534D02*
X0045720Y0029534D01*
X0045796Y0021155D02*
X0004150Y0021155D01*
X0004150Y0020557D02*
X0044351Y0020557D01*
X0043509Y0019958D02*
X0037696Y0019958D01*
X0037554Y0020100D02*
X0036146Y0020100D01*
X0035150Y0019104D01*
X0035150Y0017696D01*
X0036146Y0016700D01*
X0037554Y0016700D01*
X0038550Y0017696D01*
X0038550Y0019104D01*
X0037554Y0020100D01*
X0038294Y0019360D02*
X0042910Y0019360D01*
X0042312Y0018761D02*
X0038550Y0018761D01*
X0038550Y0018163D02*
X0041861Y0018163D01*
X0041613Y0017564D02*
X0038418Y0017564D01*
X0037820Y0016966D02*
X0041365Y0016966D01*
X0041117Y0016367D02*
X0026921Y0016367D01*
X0027050Y0016496D02*
X0027050Y0017904D01*
X0026054Y0018900D01*
X0024646Y0018900D01*
X0024250Y0018504D01*
X0023554Y0019200D01*
X0022146Y0019200D01*
X0021350Y0018404D01*
X0021054Y0018700D01*
X0019646Y0018700D01*
X0019350Y0018404D01*
X0018554Y0019200D01*
X0017146Y0019200D01*
X0016150Y0018204D01*
X0016150Y0016796D01*
X0017146Y0015800D01*
X0018554Y0015800D01*
X0018850Y0016096D01*
X0019646Y0015300D01*
X0021054Y0015300D01*
X0021850Y0016096D01*
X0022146Y0015800D01*
X0023554Y0015800D01*
X0023950Y0016196D01*
X0024646Y0015500D01*
X0026054Y0015500D01*
X0027050Y0016496D01*
X0027050Y0016966D02*
X0035880Y0016966D01*
X0035282Y0017564D02*
X0027050Y0017564D01*
X0026791Y0018163D02*
X0035150Y0018163D01*
X0035150Y0018761D02*
X0026193Y0018761D01*
X0024507Y0018761D02*
X0023993Y0018761D01*
X0024377Y0015769D02*
X0021523Y0015769D01*
X0019177Y0015769D02*
X0012341Y0015769D01*
X0012550Y0016274D02*
X0012032Y0015024D01*
X0011076Y0014068D01*
X0009826Y0013550D01*
X0008474Y0013550D01*
X0007224Y0014068D01*
X0006268Y0015024D01*
X0005750Y0016274D01*
X0005750Y0017626D01*
X0006268Y0018876D01*
X0007224Y0019832D01*
X0008474Y0020350D01*
X0009826Y0020350D01*
X0011076Y0019832D01*
X0012032Y0018876D01*
X0012550Y0017626D01*
X0012550Y0016274D01*
X0012550Y0016367D02*
X0016579Y0016367D01*
X0016150Y0016966D02*
X0012550Y0016966D01*
X0012550Y0017564D02*
X0016150Y0017564D01*
X0016150Y0018163D02*
X0012328Y0018163D01*
X0012080Y0018761D02*
X0016707Y0018761D01*
X0018993Y0018761D02*
X0021707Y0018761D01*
X0026323Y0015769D02*
X0040900Y0015769D01*
X0040900Y0015170D02*
X0012093Y0015170D01*
X0011580Y0014572D02*
X0040900Y0014572D01*
X0040900Y0013973D02*
X0010848Y0013973D01*
X0007452Y0013973D02*
X0004150Y0013973D01*
X0004150Y0013375D02*
X0040900Y0013375D01*
X0041017Y0012776D02*
X0004150Y0012776D01*
X0004150Y0012178D02*
X0041264Y0012178D01*
X0041512Y0011579D02*
X0004150Y0011579D01*
X0004150Y0014572D02*
X0006720Y0014572D01*
X0006207Y0015170D02*
X0004150Y0015170D01*
X0004150Y0015769D02*
X0005959Y0015769D01*
X0005750Y0016367D02*
X0004150Y0016367D01*
X0004150Y0016966D02*
X0005750Y0016966D01*
X0005750Y0017564D02*
X0004150Y0017564D01*
X0004150Y0018163D02*
X0005972Y0018163D01*
X0006220Y0018761D02*
X0004150Y0018761D01*
X0004150Y0019360D02*
X0006751Y0019360D01*
X0007528Y0019958D02*
X0004150Y0019958D01*
X0004150Y0028936D02*
X0015010Y0028936D01*
X0014450Y0029534D02*
X0004150Y0029534D01*
X0004150Y0030133D02*
X0014450Y0030133D01*
X0014450Y0030732D02*
X0004150Y0030732D01*
X0004150Y0031330D02*
X0014876Y0031330D01*
X0015017Y0031929D02*
X0004150Y0031929D01*
X0004150Y0032527D02*
X0014450Y0032527D01*
X0014450Y0033126D02*
X0004150Y0033126D01*
X0004150Y0033724D02*
X0014450Y0033724D01*
X0014868Y0034323D02*
X0004150Y0034323D01*
X0004150Y0034921D02*
X0014725Y0034921D01*
X0014450Y0035520D02*
X0004150Y0035520D01*
X0004150Y0036118D02*
X0014450Y0036118D01*
X0014562Y0036717D02*
X0004150Y0036717D01*
X0004150Y0037315D02*
X0015161Y0037315D01*
X0015532Y0037914D02*
X0004150Y0037914D01*
X0004150Y0038512D02*
X0014934Y0038512D01*
X0014850Y0038596D02*
X0015846Y0037600D01*
X0017254Y0037600D01*
X0018250Y0038596D01*
X0018250Y0040004D01*
X0017254Y0041000D01*
X0015846Y0041000D01*
X0014850Y0040004D01*
X0014850Y0038596D01*
X0014850Y0039111D02*
X0004150Y0039111D01*
X0004150Y0039709D02*
X0014850Y0039709D01*
X0015154Y0040308D02*
X0004150Y0040308D01*
X0004150Y0040906D02*
X0015752Y0040906D01*
X0017348Y0040906D02*
X0056650Y0040906D01*
X0056650Y0040308D02*
X0017946Y0040308D01*
X0018250Y0039709D02*
X0056650Y0039709D01*
X0056650Y0039111D02*
X0018250Y0039111D01*
X0018166Y0038512D02*
X0056650Y0038512D01*
X0056650Y0037914D02*
X0017568Y0037914D01*
X0017139Y0037315D02*
X0056650Y0037315D01*
X0056650Y0036717D02*
X0017738Y0036717D01*
X0017424Y0031330D02*
X0056650Y0031330D01*
X0056650Y0030732D02*
X0017850Y0030732D01*
X0017850Y0030133D02*
X0056650Y0030133D01*
X0056650Y0041505D02*
X0004150Y0041505D01*
X0004150Y0042103D02*
X0056650Y0042103D01*
X0056650Y0042702D02*
X0004150Y0042702D01*
X0004150Y0043300D02*
X0056650Y0043300D01*
X0056650Y0043899D02*
X0004150Y0043899D01*
X0004150Y0044497D02*
X0056650Y0044497D01*
X0056650Y0045096D02*
X0049450Y0045096D01*
X0049254Y0044900D02*
X0050250Y0045896D01*
X0050250Y0047304D01*
X0049254Y0048300D01*
X0047846Y0048300D01*
X0046850Y0047304D01*
X0046850Y0045896D01*
X0047846Y0044900D01*
X0049254Y0044900D01*
X0050048Y0045694D02*
X0056650Y0045694D01*
X0055653Y0046293D02*
X0050250Y0046293D01*
X0050250Y0046891D02*
X0055055Y0046891D01*
X0054750Y0047490D02*
X0050064Y0047490D01*
X0049466Y0048088D02*
X0054750Y0048088D01*
X0054833Y0048687D02*
X0013250Y0048687D01*
X0013250Y0049204D02*
X0012754Y0049700D01*
X0013254Y0049700D01*
X0014250Y0050696D01*
X0014250Y0052104D01*
X0013254Y0053100D01*
X0011846Y0053100D01*
X0010850Y0052104D01*
X0010850Y0050696D01*
X0011346Y0050200D01*
X0010846Y0050200D01*
X0009850Y0049204D01*
X0009850Y0047796D01*
X0010846Y0046800D01*
X0012254Y0046800D01*
X0013250Y0047796D01*
X0013250Y0049204D01*
X0013169Y0049285D02*
X0055431Y0049285D01*
X0056650Y0049884D02*
X0013438Y0049884D01*
X0014037Y0050482D02*
X0056650Y0050482D01*
X0056650Y0051081D02*
X0014250Y0051081D01*
X0014250Y0051679D02*
X0056650Y0051679D01*
X0056650Y0055270D02*
X0013625Y0055270D01*
X0014050Y0055869D02*
X0049277Y0055869D01*
X0049646Y0055500D02*
X0048650Y0056496D01*
X0048650Y0057904D01*
X0049646Y0058900D01*
X0051054Y0058900D01*
X0052050Y0057904D01*
X0052050Y0056496D01*
X0051054Y0055500D01*
X0049646Y0055500D01*
X0048678Y0056468D02*
X0014050Y0056468D01*
X0014050Y0057066D02*
X0048650Y0057066D01*
X0048650Y0057665D02*
X0013490Y0057665D01*
X0011250Y0058263D02*
X0049009Y0058263D01*
X0049607Y0058862D02*
X0011250Y0058862D01*
X0010694Y0059460D02*
X0050932Y0059460D01*
X0051093Y0058862D02*
X0051530Y0058862D01*
X0051691Y0058263D02*
X0052630Y0058263D01*
X0052050Y0057665D02*
X0056650Y0057665D01*
X0056650Y0058263D02*
X0054770Y0058263D01*
X0055870Y0058862D02*
X0056650Y0058862D01*
X0056650Y0059460D02*
X0056468Y0059460D01*
X0056650Y0057066D02*
X0052050Y0057066D01*
X0052022Y0056468D02*
X0056650Y0056468D01*
X0056650Y0055869D02*
X0051423Y0055869D01*
X0053850Y0054073D02*
X0011250Y0054073D01*
X0011250Y0053475D02*
X0053850Y0053475D01*
X0053850Y0052876D02*
X0013478Y0052876D01*
X0014076Y0052278D02*
X0054268Y0052278D01*
X0054418Y0054672D02*
X0011250Y0054672D01*
X0011250Y0054704D02*
X0010254Y0055700D01*
X0008846Y0055700D01*
X0007850Y0054704D01*
X0007850Y0053296D01*
X0008846Y0052300D01*
X0010254Y0052300D01*
X0011250Y0053296D01*
X0011250Y0054704D01*
X0011075Y0055270D02*
X0010684Y0055270D01*
X0010650Y0055869D02*
X0004150Y0055869D01*
X0004150Y0055270D02*
X0008416Y0055270D01*
X0007850Y0054672D02*
X0004150Y0054672D01*
X0004150Y0054073D02*
X0007850Y0054073D01*
X0007850Y0053475D02*
X0004150Y0053475D01*
X0004150Y0052876D02*
X0008269Y0052876D01*
X0010831Y0052876D02*
X0011622Y0052876D01*
X0011024Y0052278D02*
X0004150Y0052278D01*
X0004150Y0051679D02*
X0010850Y0051679D01*
X0010850Y0051081D02*
X0004150Y0051081D01*
X0004150Y0050482D02*
X0011063Y0050482D01*
X0010530Y0049884D02*
X0004150Y0049884D01*
X0004150Y0049285D02*
X0009931Y0049285D01*
X0009850Y0048687D02*
X0004150Y0048687D01*
X0004150Y0048088D02*
X0009850Y0048088D01*
X0010156Y0047490D02*
X0004150Y0047490D01*
X0004150Y0046891D02*
X0010755Y0046891D01*
X0012345Y0046891D02*
X0046850Y0046891D01*
X0046850Y0046293D02*
X0004150Y0046293D01*
X0004150Y0045694D02*
X0047052Y0045694D01*
X0047650Y0045096D02*
X0004150Y0045096D01*
X0004150Y0056468D02*
X0010650Y0056468D01*
X0009400Y0060059D02*
X0050617Y0060059D01*
X0050369Y0060657D02*
X0010466Y0060657D01*
X0011057Y0061256D02*
X0050300Y0061256D01*
X0050300Y0061854D02*
X0011457Y0061854D01*
X0011705Y0062453D02*
X0050414Y0062453D01*
X0050662Y0063051D02*
X0011847Y0063051D01*
X0011867Y0064248D02*
X0051640Y0064248D01*
X0051041Y0063650D02*
X0008300Y0063650D01*
X0008300Y0064248D02*
X0007700Y0064248D01*
X0007700Y0064847D02*
X0008300Y0064847D01*
X0008300Y0065445D02*
X0007700Y0065445D01*
X0007700Y0066044D02*
X0008300Y0066044D01*
X0008300Y0066642D02*
X0007700Y0066642D01*
X0007700Y0067241D02*
X0008300Y0067241D01*
X0009643Y0067241D02*
X0056650Y0067241D01*
X0056650Y0067839D02*
X0004150Y0067839D01*
X0004150Y0067241D02*
X0006357Y0067241D01*
X0005427Y0066642D02*
X0004150Y0066642D01*
X0004150Y0066044D02*
X0004876Y0066044D01*
X0004502Y0065445D02*
X0004150Y0065445D01*
X0004150Y0064847D02*
X0004254Y0064847D01*
X0004153Y0063051D02*
X0004150Y0063051D01*
X0004150Y0062453D02*
X0004295Y0062453D01*
X0004150Y0061854D02*
X0004543Y0061854D01*
X0004150Y0061256D02*
X0004943Y0061256D01*
X0005534Y0060657D02*
X0004150Y0060657D01*
X0004150Y0060059D02*
X0006600Y0060059D01*
X0007700Y0060059D02*
X0008300Y0060059D01*
X0008300Y0060657D02*
X0007700Y0060657D01*
X0007700Y0061256D02*
X0008300Y0061256D01*
X0008300Y0061854D02*
X0007700Y0061854D01*
X0007700Y0062453D02*
X0008300Y0062453D01*
X0008300Y0063051D02*
X0007700Y0063051D01*
X0008406Y0059460D02*
X0004150Y0059460D01*
X0004150Y0058862D02*
X0007850Y0058862D01*
X0007850Y0058263D02*
X0004150Y0058263D01*
X0004150Y0057665D02*
X0007850Y0057665D01*
X0008280Y0057066D02*
X0004150Y0057066D01*
X0010573Y0066642D02*
X0056650Y0066642D01*
X0056650Y0066044D02*
X0011124Y0066044D01*
X0011498Y0065445D02*
X0056650Y0065445D01*
X0056650Y0064847D02*
X0054505Y0064847D01*
X0055760Y0064248D02*
X0056650Y0064248D01*
X0056650Y0063650D02*
X0056359Y0063650D01*
X0052895Y0064847D02*
X0011746Y0064847D01*
X0004150Y0068438D02*
X0056650Y0068438D01*
X0056650Y0069036D02*
X0004150Y0069036D01*
X0004150Y0069635D02*
X0056650Y0069635D01*
X0056650Y0070233D02*
X0004150Y0070233D01*
X0004150Y0070832D02*
X0056650Y0070832D01*
X0056650Y0071430D02*
X0004150Y0071430D01*
X0004150Y0072029D02*
X0056650Y0072029D01*
X0056650Y0072627D02*
X0004150Y0072627D01*
X0004150Y0073226D02*
X0056650Y0073226D01*
X0056650Y0073824D02*
X0004150Y0073824D01*
X0004150Y0074423D02*
X0056650Y0074423D01*
X0056650Y0075021D02*
X0004150Y0075021D01*
X0004150Y0075620D02*
X0056650Y0075620D01*
X0056650Y0076218D02*
X0004150Y0076218D01*
X0004150Y0076817D02*
X0056650Y0076817D01*
X0056650Y0077415D02*
X0004150Y0077415D01*
X0004150Y0078014D02*
X0056650Y0078014D01*
X0056650Y0078612D02*
X0004150Y0078612D01*
X0004150Y0079211D02*
X0056650Y0079211D01*
X0056650Y0079809D02*
X0004150Y0079809D01*
X0004150Y0080408D02*
X0056650Y0080408D01*
X0056650Y0081006D02*
X0004150Y0081006D01*
X0004150Y0081605D02*
X0056650Y0081605D01*
X0056650Y0082203D02*
X0004150Y0082203D01*
X0004150Y0082802D02*
X0010644Y0082802D01*
X0010946Y0082500D02*
X0012354Y0082500D01*
X0013150Y0083296D01*
X0013446Y0083000D01*
X0014854Y0083000D01*
X0015150Y0083296D01*
X0015946Y0082500D01*
X0017354Y0082500D01*
X0018150Y0083296D01*
X0018446Y0083000D01*
X0019854Y0083000D01*
X0020150Y0083296D01*
X0020946Y0082500D01*
X0022354Y0082500D01*
X0023150Y0083296D01*
X0023446Y0083000D01*
X0024854Y0083000D01*
X0025150Y0083296D01*
X0025946Y0082500D01*
X0027354Y0082500D01*
X0028150Y0083296D01*
X0028446Y0083000D01*
X0029854Y0083000D01*
X0030150Y0083296D01*
X0030946Y0082500D01*
X0032354Y0082500D01*
X0033150Y0083296D01*
X0033446Y0083000D01*
X0034854Y0083000D01*
X0035150Y0083296D01*
X0035946Y0082500D01*
X0037354Y0082500D01*
X0038150Y0083296D01*
X0038446Y0083000D01*
X0039854Y0083000D01*
X0040150Y0083296D01*
X0040946Y0082500D01*
X0042354Y0082500D01*
X0043150Y0083296D01*
X0043446Y0083000D01*
X0044854Y0083000D01*
X0045150Y0083296D01*
X0045946Y0082500D01*
X0047354Y0082500D01*
X0048150Y0083296D01*
X0048446Y0083000D01*
X0049854Y0083000D01*
X0050150Y0083296D01*
X0050946Y0082500D01*
X0052354Y0082500D01*
X0053350Y0083496D01*
X0053350Y0084904D01*
X0052354Y0085900D01*
X0050946Y0085900D01*
X0050650Y0085604D01*
X0049854Y0086400D01*
X0048446Y0086400D01*
X0047650Y0085604D01*
X0047354Y0085900D01*
X0045946Y0085900D01*
X0045650Y0085604D01*
X0044854Y0086400D01*
X0043446Y0086400D01*
X0042650Y0085604D01*
X0042354Y0085900D01*
X0040946Y0085900D01*
X0040650Y0085604D01*
X0039854Y0086400D01*
X0038446Y0086400D01*
X0037650Y0085604D01*
X0037354Y0085900D01*
X0035946Y0085900D01*
X0035650Y0085604D01*
X0034854Y0086400D01*
X0033446Y0086400D01*
X0032650Y0085604D01*
X0032354Y0085900D01*
X0030946Y0085900D01*
X0030650Y0085604D01*
X0029854Y0086400D01*
X0028446Y0086400D01*
X0027650Y0085604D01*
X0027354Y0085900D01*
X0025946Y0085900D01*
X0025650Y0085604D01*
X0024854Y0086400D01*
X0023446Y0086400D01*
X0022650Y0085604D01*
X0022354Y0085900D01*
X0020946Y0085900D01*
X0020650Y0085604D01*
X0019854Y0086400D01*
X0018446Y0086400D01*
X0017650Y0085604D01*
X0017354Y0085900D01*
X0015946Y0085900D01*
X0015650Y0085604D01*
X0014854Y0086400D01*
X0013446Y0086400D01*
X0012650Y0085604D01*
X0012354Y0085900D01*
X0010946Y0085900D01*
X0009950Y0084904D01*
X0009950Y0083496D01*
X0010946Y0082500D01*
X0010045Y0083401D02*
X0004150Y0083401D01*
X0004150Y0083999D02*
X0009950Y0083999D01*
X0009950Y0084598D02*
X0004150Y0084598D01*
X0004150Y0085196D02*
X0010242Y0085196D01*
X0010840Y0085795D02*
X0004150Y0085795D01*
X0004150Y0086393D02*
X0013439Y0086393D01*
X0012840Y0085795D02*
X0012460Y0085795D01*
X0012656Y0082802D02*
X0015644Y0082802D01*
X0017656Y0082802D02*
X0020644Y0082802D01*
X0022656Y0082802D02*
X0025644Y0082802D01*
X0027656Y0082802D02*
X0030644Y0082802D01*
X0030460Y0085795D02*
X0030840Y0085795D01*
X0029861Y0086393D02*
X0033439Y0086393D01*
X0032840Y0085795D02*
X0032460Y0085795D01*
X0032656Y0082802D02*
X0035644Y0082802D01*
X0035460Y0085795D02*
X0035840Y0085795D01*
X0034861Y0086393D02*
X0038439Y0086393D01*
X0037840Y0085795D02*
X0037460Y0085795D01*
X0037656Y0082802D02*
X0040644Y0082802D01*
X0042656Y0082802D02*
X0045644Y0082802D01*
X0047656Y0082802D02*
X0050644Y0082802D01*
X0052656Y0082802D02*
X0056650Y0082802D01*
X0056650Y0083401D02*
X0053255Y0083401D01*
X0053350Y0083999D02*
X0056650Y0083999D01*
X0056650Y0084598D02*
X0053350Y0084598D01*
X0053058Y0085196D02*
X0056650Y0085196D01*
X0056650Y0085795D02*
X0052460Y0085795D01*
X0050840Y0085795D02*
X0050460Y0085795D01*
X0049861Y0086393D02*
X0056650Y0086393D01*
X0056650Y0086992D02*
X0004150Y0086992D01*
X0004150Y0087590D02*
X0056650Y0087590D01*
X0056650Y0088189D02*
X0004150Y0088189D01*
X0004150Y0088787D02*
X0056650Y0088787D01*
X0056650Y0089386D02*
X0004150Y0089386D01*
X0004150Y0089984D02*
X0056650Y0089984D01*
X0056650Y0090583D02*
X0004150Y0090583D01*
X0004150Y0091181D02*
X0056650Y0091181D01*
X0056598Y0091780D02*
X0004202Y0091780D01*
X0014861Y0086393D02*
X0018439Y0086393D01*
X0017840Y0085795D02*
X0017460Y0085795D01*
X0015840Y0085795D02*
X0015460Y0085795D01*
X0019861Y0086393D02*
X0023439Y0086393D01*
X0022840Y0085795D02*
X0022460Y0085795D01*
X0020840Y0085795D02*
X0020460Y0085795D01*
X0024861Y0086393D02*
X0028439Y0086393D01*
X0027840Y0085795D02*
X0027460Y0085795D01*
X0025840Y0085795D02*
X0025460Y0085795D01*
X0039861Y0086393D02*
X0043439Y0086393D01*
X0042840Y0085795D02*
X0042460Y0085795D01*
X0040840Y0085795D02*
X0040460Y0085795D01*
X0044861Y0086393D02*
X0048439Y0086393D01*
X0047840Y0085795D02*
X0047460Y0085795D01*
X0045840Y0085795D02*
X0045460Y0085795D01*
X0047634Y0048088D02*
X0013250Y0048088D01*
X0012944Y0047490D02*
X0047036Y0047490D01*
X0036004Y0019958D02*
X0010772Y0019958D01*
X0011548Y0019360D02*
X0035406Y0019360D01*
D13*
X0036850Y0018400D03*
X0032850Y0017400D03*
X0037850Y0008700D03*
X0043950Y0024600D03*
X0044450Y0028400D03*
X0042450Y0033400D03*
X0046150Y0040100D03*
X0042250Y0040500D03*
X0048550Y0046600D03*
X0050350Y0057200D03*
X0055550Y0053400D03*
X0056450Y0047900D03*
X0049050Y0027800D03*
X0030450Y0034600D03*
X0022850Y0017500D03*
X0025350Y0017200D03*
X0020350Y0017000D03*
X0017850Y0017500D03*
X0024450Y0007900D03*
X0011350Y0023800D03*
X0011350Y0027900D03*
X0016150Y0030200D03*
X0016150Y0033200D03*
X0016150Y0035900D03*
X0016550Y0039300D03*
X0011550Y0048500D03*
X0012550Y0051400D03*
X0009550Y0054000D03*
X0009550Y0058200D03*
X0012350Y0056400D03*
X0006650Y0045500D03*
X0005150Y0008000D03*
X0011650Y0084200D03*
X0009150Y0084700D03*
X0014150Y0084700D03*
X0016650Y0084200D03*
X0019150Y0084700D03*
X0021650Y0084200D03*
X0024150Y0084700D03*
X0026650Y0084200D03*
X0029150Y0084700D03*
X0031650Y0084200D03*
X0034150Y0084700D03*
X0036650Y0084200D03*
X0039150Y0084700D03*
X0041650Y0084200D03*
X0044150Y0084700D03*
X0046650Y0084200D03*
X0049150Y0084700D03*
X0051650Y0084200D03*
X0055850Y0075900D03*
D14*
X0042750Y0040500D02*
X0042250Y0040500D01*
X0046150Y0040100D02*
X0046750Y0040100D01*
X0049050Y0027800D02*
X0049550Y0027800D01*
X0049650Y0027700D01*
X0012550Y0027900D02*
X0011350Y0027900D01*
X0007150Y0045500D02*
X0006650Y0045500D01*
M02*
