G75*
%MOIN*%
%OFA0B0*%
%FSLAX25Y25*%
%IPPOS*%
%LPD*%
%AMOC8*
5,1,8,0,0,1.08239X$1,22.5*
%
%ADD10R,0.01700X0.01700*%
%ADD11R,0.16142X0.16142*%
%ADD12R,0.03543X0.00984*%
%ADD13R,0.00984X0.03543*%
%ADD14R,0.03000X0.02700*%
%ADD15R,0.03937X0.04724*%
%ADD16R,0.02700X0.03000*%
D10*
X0019250Y0013750D03*
X0022350Y0013750D03*
X0026200Y0012350D03*
X0029300Y0012350D03*
D11*
X0030400Y0052350D03*
D12*
X0016424Y0052350D03*
X0016424Y0050381D03*
X0016424Y0048413D03*
X0016424Y0046444D03*
X0016424Y0044476D03*
X0016424Y0042507D03*
X0016424Y0054319D03*
X0016424Y0056287D03*
X0016424Y0058256D03*
X0016424Y0060224D03*
X0016424Y0062193D03*
X0044376Y0062193D03*
X0044376Y0060224D03*
X0044376Y0058256D03*
X0044376Y0056287D03*
X0044376Y0054319D03*
X0044376Y0052350D03*
X0044376Y0050381D03*
X0044376Y0048413D03*
X0044376Y0046444D03*
X0044376Y0044476D03*
X0044376Y0042507D03*
D13*
X0040243Y0038374D03*
X0038274Y0038374D03*
X0036306Y0038374D03*
X0034337Y0038374D03*
X0032369Y0038374D03*
X0030400Y0038374D03*
X0028431Y0038374D03*
X0026463Y0038374D03*
X0024494Y0038374D03*
X0022526Y0038374D03*
X0020557Y0038374D03*
X0020557Y0066326D03*
X0022526Y0066326D03*
X0024494Y0066326D03*
X0026463Y0066326D03*
X0028431Y0066326D03*
X0030400Y0066326D03*
X0032369Y0066326D03*
X0034337Y0066326D03*
X0036306Y0066326D03*
X0038274Y0066326D03*
X0040243Y0066326D03*
D14*
X0049750Y0054100D03*
X0049750Y0049900D03*
X0012900Y0036550D03*
X0012900Y0032350D03*
D15*
X0052900Y0031950D03*
X0052900Y0038200D03*
X0052900Y0044450D03*
D16*
X0015650Y0007900D03*
X0019850Y0007900D03*
X0028250Y0007800D03*
X0032450Y0007800D03*
M02*
