G75*
%MOIN*%
%OFA0B0*%
%FSLAX25Y25*%
%IPPOS*%
%LPD*%
%AMOC8*
5,1,8,0,0,1.08239X$1,22.5*
%
%ADD10OC8,0.06000*%
%ADD11R,0.02500X0.02500*%
%ADD12R,0.16942X0.16942*%
%ADD13R,0.04343X0.01784*%
%ADD14R,0.01784X0.04343*%
%ADD15R,0.03800X0.03500*%
%ADD16R,0.04737X0.05524*%
%ADD17C,0.16800*%
%ADD18R,0.03500X0.03800*%
%ADD19C,0.02600*%
D10*
X0009150Y0016950D03*
X0008000Y0063700D03*
X0053700Y0061500D03*
D11*
X0022350Y0013750D03*
X0019250Y0013750D03*
X0026200Y0012350D03*
X0029300Y0012350D03*
D12*
X0030400Y0052350D03*
D13*
X0016424Y0052350D03*
X0016424Y0050381D03*
X0016424Y0048413D03*
X0016424Y0046444D03*
X0016424Y0044476D03*
X0016424Y0042507D03*
X0016424Y0054319D03*
X0016424Y0056287D03*
X0016424Y0058256D03*
X0016424Y0060224D03*
X0016424Y0062193D03*
X0044376Y0062193D03*
X0044376Y0060224D03*
X0044376Y0058256D03*
X0044376Y0056287D03*
X0044376Y0054319D03*
X0044376Y0052350D03*
X0044376Y0050381D03*
X0044376Y0048413D03*
X0044376Y0046444D03*
X0044376Y0044476D03*
X0044376Y0042507D03*
D14*
X0040243Y0038374D03*
X0038274Y0038374D03*
X0036306Y0038374D03*
X0034337Y0038374D03*
X0032369Y0038374D03*
X0030400Y0038374D03*
X0028431Y0038374D03*
X0026463Y0038374D03*
X0024494Y0038374D03*
X0022526Y0038374D03*
X0020557Y0038374D03*
X0020557Y0066326D03*
X0022526Y0066326D03*
X0024494Y0066326D03*
X0026463Y0066326D03*
X0028431Y0066326D03*
X0030400Y0066326D03*
X0032369Y0066326D03*
X0034337Y0066326D03*
X0036306Y0066326D03*
X0038274Y0066326D03*
X0040243Y0066326D03*
D15*
X0049750Y0054100D03*
X0049750Y0049900D03*
X0012900Y0036550D03*
X0012900Y0032350D03*
D16*
X0052900Y0031950D03*
X0052900Y0038200D03*
X0052900Y0044450D03*
D17*
X0047900Y0014450D03*
D18*
X0032450Y0007800D03*
X0028250Y0007800D03*
X0019850Y0007900D03*
X0015650Y0007900D03*
D19*
X0005150Y0008000D03*
X0011350Y0023800D03*
X0011350Y0027900D03*
X0016150Y0030200D03*
X0016150Y0033200D03*
X0016150Y0035900D03*
X0016550Y0039300D03*
X0011550Y0048500D03*
X0012550Y0051400D03*
X0009550Y0054000D03*
X0009550Y0058200D03*
X0012350Y0056400D03*
X0006650Y0045500D03*
X0017850Y0017500D03*
X0020350Y0017000D03*
X0022850Y0017500D03*
X0025350Y0017200D03*
X0024450Y0007900D03*
X0032850Y0017400D03*
X0036850Y0018400D03*
X0037850Y0008700D03*
X0043950Y0024600D03*
X0044450Y0028400D03*
X0042450Y0033400D03*
X0046150Y0040100D03*
X0042250Y0040500D03*
X0048550Y0046600D03*
X0050350Y0057200D03*
X0055550Y0053400D03*
X0056450Y0047900D03*
X0049050Y0027800D03*
X0030450Y0034600D03*
X0055850Y0075900D03*
X0051650Y0084200D03*
X0049150Y0084700D03*
X0046650Y0084200D03*
X0044150Y0084700D03*
X0041650Y0084200D03*
X0039150Y0084700D03*
X0036650Y0084200D03*
X0034150Y0084700D03*
X0031650Y0084200D03*
X0029150Y0084700D03*
X0026650Y0084200D03*
X0024150Y0084700D03*
X0021650Y0084200D03*
X0019150Y0084700D03*
X0016650Y0084200D03*
X0014150Y0084700D03*
X0011650Y0084200D03*
X0009150Y0084700D03*
M02*
