G75*
%MOIN*%
%OFA0B0*%
%FSLAX25Y25*%
%IPPOS*%
%LPD*%
%AMOC8*
5,1,8,0,0,1.08239X$1,22.5*
%
%ADD10C,0.00000*%
%ADD11C,0.00500*%
%ADD12C,0.00300*%
%ADD13C,0.00400*%
D10*
X0001650Y0003200D02*
X0001650Y0088200D01*
X0002900Y0094450D01*
X0057900Y0094450D01*
X0059150Y0088200D01*
X0059150Y0003200D01*
X0001650Y0003200D01*
D11*
X0013550Y0005700D02*
X0013550Y0010100D01*
X0021950Y0010100D01*
X0021950Y0005700D01*
X0013550Y0005700D01*
X0017600Y0012150D02*
X0024000Y0012150D01*
X0024000Y0015350D01*
X0017600Y0015350D01*
X0017600Y0012150D01*
X0024550Y0010750D02*
X0030950Y0010750D01*
X0030950Y0013950D01*
X0024550Y0013950D01*
X0024550Y0010750D01*
X0026150Y0010000D02*
X0026150Y0005600D01*
X0034550Y0005600D01*
X0034550Y0010000D01*
X0026150Y0010000D01*
X0015100Y0030250D02*
X0015100Y0038650D01*
X0010700Y0038650D01*
X0010700Y0030250D01*
X0015100Y0030250D01*
X0016620Y0038570D02*
X0017998Y0038570D01*
X0016620Y0038570D02*
X0016620Y0039948D01*
X0016620Y0064752D02*
X0016620Y0066130D01*
X0017998Y0066130D01*
X0042802Y0066130D02*
X0044180Y0066130D01*
X0044180Y0064752D01*
X0042604Y0064948D02*
X0042606Y0064987D01*
X0042612Y0065026D01*
X0042622Y0065064D01*
X0042635Y0065101D01*
X0042652Y0065136D01*
X0042672Y0065170D01*
X0042696Y0065201D01*
X0042723Y0065230D01*
X0042752Y0065256D01*
X0042784Y0065279D01*
X0042818Y0065299D01*
X0042854Y0065315D01*
X0042891Y0065327D01*
X0042930Y0065336D01*
X0042969Y0065341D01*
X0043008Y0065342D01*
X0043047Y0065339D01*
X0043086Y0065332D01*
X0043123Y0065321D01*
X0043160Y0065307D01*
X0043195Y0065289D01*
X0043228Y0065268D01*
X0043259Y0065243D01*
X0043287Y0065216D01*
X0043312Y0065186D01*
X0043334Y0065153D01*
X0043353Y0065119D01*
X0043368Y0065083D01*
X0043380Y0065045D01*
X0043388Y0065007D01*
X0043392Y0064968D01*
X0043392Y0064928D01*
X0043388Y0064889D01*
X0043380Y0064851D01*
X0043368Y0064813D01*
X0043353Y0064777D01*
X0043334Y0064743D01*
X0043312Y0064710D01*
X0043287Y0064680D01*
X0043259Y0064653D01*
X0043228Y0064628D01*
X0043195Y0064607D01*
X0043160Y0064589D01*
X0043123Y0064575D01*
X0043086Y0064564D01*
X0043047Y0064557D01*
X0043008Y0064554D01*
X0042969Y0064555D01*
X0042930Y0064560D01*
X0042891Y0064569D01*
X0042854Y0064581D01*
X0042818Y0064597D01*
X0042784Y0064617D01*
X0042752Y0064640D01*
X0042723Y0064666D01*
X0042696Y0064695D01*
X0042672Y0064726D01*
X0042652Y0064760D01*
X0042635Y0064795D01*
X0042622Y0064832D01*
X0042612Y0064870D01*
X0042606Y0064909D01*
X0042604Y0064948D01*
X0044481Y0067311D02*
X0044483Y0067370D01*
X0044489Y0067428D01*
X0044499Y0067486D01*
X0044512Y0067543D01*
X0044530Y0067600D01*
X0044551Y0067655D01*
X0044576Y0067708D01*
X0044604Y0067759D01*
X0044635Y0067809D01*
X0044670Y0067856D01*
X0044708Y0067901D01*
X0044749Y0067944D01*
X0044793Y0067983D01*
X0044839Y0068019D01*
X0044887Y0068053D01*
X0044938Y0068083D01*
X0044991Y0068109D01*
X0045045Y0068132D01*
X0045100Y0068151D01*
X0045157Y0068167D01*
X0045215Y0068179D01*
X0045273Y0068187D01*
X0045332Y0068191D01*
X0045390Y0068191D01*
X0045449Y0068187D01*
X0045507Y0068179D01*
X0045565Y0068167D01*
X0045622Y0068151D01*
X0045677Y0068132D01*
X0045731Y0068109D01*
X0045784Y0068083D01*
X0045835Y0068053D01*
X0045883Y0068019D01*
X0045929Y0067983D01*
X0045973Y0067944D01*
X0046014Y0067901D01*
X0046052Y0067856D01*
X0046087Y0067809D01*
X0046118Y0067759D01*
X0046146Y0067708D01*
X0046171Y0067655D01*
X0046192Y0067600D01*
X0046210Y0067543D01*
X0046223Y0067486D01*
X0046233Y0067428D01*
X0046239Y0067370D01*
X0046241Y0067311D01*
X0046239Y0067252D01*
X0046233Y0067194D01*
X0046223Y0067136D01*
X0046210Y0067079D01*
X0046192Y0067022D01*
X0046171Y0066967D01*
X0046146Y0066914D01*
X0046118Y0066863D01*
X0046087Y0066813D01*
X0046052Y0066766D01*
X0046014Y0066721D01*
X0045973Y0066678D01*
X0045929Y0066639D01*
X0045883Y0066603D01*
X0045835Y0066569D01*
X0045784Y0066539D01*
X0045731Y0066513D01*
X0045677Y0066490D01*
X0045622Y0066471D01*
X0045565Y0066455D01*
X0045507Y0066443D01*
X0045449Y0066435D01*
X0045390Y0066431D01*
X0045332Y0066431D01*
X0045273Y0066435D01*
X0045215Y0066443D01*
X0045157Y0066455D01*
X0045100Y0066471D01*
X0045045Y0066490D01*
X0044991Y0066513D01*
X0044938Y0066539D01*
X0044887Y0066569D01*
X0044839Y0066603D01*
X0044793Y0066639D01*
X0044749Y0066678D01*
X0044708Y0066721D01*
X0044670Y0066766D01*
X0044635Y0066813D01*
X0044604Y0066863D01*
X0044576Y0066914D01*
X0044551Y0066967D01*
X0044530Y0067022D01*
X0044512Y0067079D01*
X0044499Y0067136D01*
X0044489Y0067194D01*
X0044483Y0067252D01*
X0044481Y0067311D01*
X0047550Y0056200D02*
X0047550Y0047800D01*
X0051950Y0047800D01*
X0051950Y0056200D01*
X0047550Y0056200D01*
X0044180Y0039948D02*
X0044180Y0038570D01*
X0042802Y0038570D01*
D12*
X0052934Y0050250D02*
X0052400Y0050784D01*
X0052400Y0051851D01*
X0052934Y0052385D01*
X0052934Y0053473D02*
X0052400Y0054007D01*
X0052400Y0055074D01*
X0052934Y0055608D01*
X0053468Y0055608D01*
X0054001Y0055074D01*
X0054001Y0053473D01*
X0052934Y0053473D01*
X0054001Y0053473D02*
X0055069Y0054540D01*
X0055603Y0055608D01*
X0055069Y0052385D02*
X0055603Y0051851D01*
X0055603Y0050784D01*
X0055069Y0050250D01*
X0052934Y0050250D01*
X0031350Y0017502D02*
X0029899Y0017502D01*
X0029415Y0017019D01*
X0029415Y0016051D01*
X0029899Y0015567D01*
X0031350Y0015567D01*
X0031350Y0014600D02*
X0031350Y0017502D01*
X0030383Y0015567D02*
X0029415Y0014600D01*
X0028403Y0014600D02*
X0026469Y0016535D01*
X0026469Y0017019D01*
X0026952Y0017502D01*
X0027920Y0017502D01*
X0028403Y0017019D01*
X0028403Y0014600D02*
X0026469Y0014600D01*
X0032488Y0013219D02*
X0032488Y0012685D01*
X0033021Y0012151D01*
X0034089Y0012151D01*
X0034623Y0012685D01*
X0034623Y0013219D01*
X0034089Y0013753D01*
X0033021Y0013753D01*
X0032488Y0013219D01*
X0033021Y0012151D02*
X0032488Y0011618D01*
X0032488Y0011084D01*
X0033021Y0010550D01*
X0034089Y0010550D01*
X0034623Y0011084D01*
X0034623Y0011618D01*
X0034089Y0012151D01*
X0035710Y0011084D02*
X0036244Y0010550D01*
X0037312Y0010550D01*
X0037845Y0011084D01*
X0037845Y0013219D01*
X0037312Y0013753D01*
X0036244Y0013753D01*
X0035710Y0013219D01*
X0016893Y0013267D02*
X0015442Y0013267D01*
X0014958Y0013751D01*
X0014958Y0014719D01*
X0015442Y0015202D01*
X0016893Y0015202D01*
X0016893Y0012300D01*
X0015926Y0013267D02*
X0014958Y0012300D01*
X0013947Y0013751D02*
X0012012Y0013751D01*
X0012495Y0012300D02*
X0012495Y0015202D01*
X0013947Y0013751D01*
X0012449Y0010253D02*
X0011215Y0010253D01*
X0010598Y0009636D01*
X0009383Y0010253D02*
X0006914Y0010253D01*
X0006914Y0009636D01*
X0009383Y0007167D01*
X0009383Y0006550D01*
X0010598Y0007167D02*
X0011215Y0006550D01*
X0012449Y0006550D01*
X0013066Y0007167D01*
X0013066Y0009636D01*
X0012449Y0010253D01*
X0009136Y0031734D02*
X0006667Y0031734D01*
X0006050Y0032351D01*
X0006050Y0033585D01*
X0006667Y0034202D01*
X0006667Y0035417D02*
X0006050Y0036034D01*
X0006050Y0037268D01*
X0006667Y0037886D01*
X0007902Y0037886D01*
X0008519Y0037268D01*
X0008519Y0036651D01*
X0007902Y0035417D01*
X0009753Y0035417D01*
X0009753Y0037886D01*
X0009136Y0034202D02*
X0009753Y0033585D01*
X0009753Y0032351D01*
X0009136Y0031734D01*
D13*
X0035932Y0069302D02*
X0039002Y0069302D01*
X0035932Y0072371D01*
X0035932Y0073139D01*
X0036700Y0073906D01*
X0038234Y0073906D01*
X0039002Y0073139D01*
X0040536Y0073906D02*
X0040536Y0070069D01*
X0041304Y0069302D01*
X0042838Y0069302D01*
X0043606Y0070069D01*
X0043606Y0073906D01*
M02*
