%
M48
M72
T01C0.00600
T02C0.03200
T03C0.10000
%
T01
X5150Y8000
X11350Y23800
X11350Y27900
X16150Y30200
X16150Y33200
X16150Y35900
X16550Y39300
X11550Y48500
X12550Y51400
X9550Y54000
X9550Y58200
X12350Y56400
X6650Y45500
X17850Y17500
X20350Y17000
X22850Y17500
X25350Y17200
X24450Y7900
X32850Y17400
X36850Y18400
X37850Y8700
X43950Y24600
X44450Y28400
X42450Y33400
X46150Y40100
X42250Y40500
X48550Y46600
X50350Y57200
X55550Y53400
X56450Y47900
X49050Y27800
X30450Y34600
X55850Y75900
X51650Y84200
X49150Y84700
X46650Y84200
X44150Y84700
X41650Y84200
X39150Y84700
X36650Y84200
X34150Y84700
X31650Y84200
X29150Y84700
X26650Y84200
X24150Y84700
X21650Y84200
X19150Y84700
X16650Y84200
X14150Y84700
X11650Y84200
X9150Y84700
T02
X8000Y63700
X9150Y16950
X53700Y61500
T03
X47900Y14450
M30
