G75*
%MOIN*%
%OFA0B0*%
%FSLAX25Y25*%
%IPPOS*%
%LPD*%
%AMOC8*
5,1,8,0,0,1.08239X$1,22.5*
%
%ADD10OC8,0.05200*%
%ADD11R,0.01700X0.01700*%
%ADD12R,0.16142X0.16142*%
%ADD13R,0.03543X0.00984*%
%ADD14R,0.00984X0.03543*%
%ADD15R,0.03000X0.02700*%
%ADD16R,0.03937X0.04724*%
%ADD17C,0.16000*%
%ADD18R,0.02700X0.03000*%
%ADD19C,0.00500*%
%ADD20C,0.01800*%
D10*
X0009150Y0016950D03*
X0008000Y0063700D03*
X0053700Y0061500D03*
D11*
X0022350Y0013750D03*
X0019250Y0013750D03*
X0026200Y0012350D03*
X0029300Y0012350D03*
D12*
X0030400Y0052350D03*
D13*
X0016424Y0052350D03*
X0016424Y0050381D03*
X0016424Y0048413D03*
X0016424Y0046444D03*
X0016424Y0044476D03*
X0016424Y0042507D03*
X0016424Y0054319D03*
X0016424Y0056287D03*
X0016424Y0058256D03*
X0016424Y0060224D03*
X0016424Y0062193D03*
X0044376Y0062193D03*
X0044376Y0060224D03*
X0044376Y0058256D03*
X0044376Y0056287D03*
X0044376Y0054319D03*
X0044376Y0052350D03*
X0044376Y0050381D03*
X0044376Y0048413D03*
X0044376Y0046444D03*
X0044376Y0044476D03*
X0044376Y0042507D03*
D14*
X0040243Y0038374D03*
X0038274Y0038374D03*
X0036306Y0038374D03*
X0034337Y0038374D03*
X0032369Y0038374D03*
X0030400Y0038374D03*
X0028431Y0038374D03*
X0026463Y0038374D03*
X0024494Y0038374D03*
X0022526Y0038374D03*
X0020557Y0038374D03*
X0020557Y0066326D03*
X0022526Y0066326D03*
X0024494Y0066326D03*
X0026463Y0066326D03*
X0028431Y0066326D03*
X0030400Y0066326D03*
X0032369Y0066326D03*
X0034337Y0066326D03*
X0036306Y0066326D03*
X0038274Y0066326D03*
X0040243Y0066326D03*
D15*
X0049750Y0054100D03*
X0049750Y0049900D03*
X0012900Y0036550D03*
X0012900Y0032350D03*
D16*
X0052900Y0031950D03*
X0052900Y0038200D03*
X0052900Y0044450D03*
D17*
X0047900Y0014450D03*
D18*
X0032450Y0007800D03*
X0028250Y0007800D03*
X0019850Y0007900D03*
X0015650Y0007900D03*
D19*
X0015550Y0008000D01*
X0005150Y0008000D01*
X0004150Y0017000D02*
X0009150Y0017000D01*
X0009150Y0016950D01*
X0004150Y0017000D02*
X0004150Y0052300D01*
X0011650Y0052300D01*
X0012550Y0051400D01*
X0013500Y0052350D01*
X0016424Y0052350D01*
X0016424Y0050381D01*
X0013569Y0050381D01*
X0012550Y0051400D01*
X0011831Y0054319D02*
X0010450Y0055700D01*
X0009550Y0055700D01*
X0008650Y0056600D01*
X0003650Y0056600D01*
X0003650Y0086400D01*
X0011650Y0086400D01*
X0011650Y0084200D01*
X0014150Y0083800D02*
X0011850Y0081500D01*
X0011850Y0059400D01*
X0014963Y0056287D01*
X0016424Y0056287D01*
X0016424Y0054319D02*
X0011831Y0054319D01*
X0014594Y0058256D02*
X0012850Y0060000D01*
X0012850Y0080400D01*
X0016650Y0084200D01*
X0019150Y0084300D02*
X0019150Y0084700D01*
X0019150Y0084300D02*
X0013850Y0079000D01*
X0013850Y0060900D01*
X0014526Y0060224D01*
X0016424Y0060224D01*
X0016424Y0058256D02*
X0014594Y0058256D01*
X0016424Y0062193D02*
X0014850Y0063766D01*
X0014850Y0078000D01*
X0021050Y0084200D01*
X0021650Y0084200D01*
X0024150Y0084300D02*
X0024150Y0084700D01*
X0024150Y0084300D02*
X0015850Y0076000D01*
X0015850Y0071034D01*
X0020557Y0066326D01*
X0021850Y0067002D02*
X0021850Y0068400D01*
X0017550Y0072700D01*
X0017550Y0075100D01*
X0026650Y0084200D01*
X0029150Y0083800D02*
X0029150Y0084700D01*
X0029150Y0083800D02*
X0020150Y0074800D01*
X0020150Y0072100D01*
X0023950Y0068300D01*
X0023950Y0066871D01*
X0024494Y0066326D01*
X0025850Y0066939D02*
X0025850Y0068300D01*
X0021550Y0072600D01*
X0021550Y0074300D01*
X0031450Y0084200D01*
X0031650Y0084200D01*
X0034150Y0084300D02*
X0034150Y0084700D01*
X0034150Y0084300D02*
X0023550Y0073700D01*
X0023550Y0072600D01*
X0027850Y0068300D01*
X0027850Y0066908D01*
X0028431Y0066326D01*
X0029850Y0066876D02*
X0029850Y0068400D01*
X0025450Y0072800D01*
X0025450Y0073300D01*
X0036350Y0084200D01*
X0036650Y0084200D01*
X0039150Y0084000D02*
X0035750Y0080600D01*
X0035250Y0080600D01*
X0034150Y0079500D01*
X0033850Y0079500D01*
X0027450Y0073100D01*
X0027450Y0072900D01*
X0031850Y0068500D01*
X0031850Y0066845D01*
X0032369Y0066326D01*
X0033850Y0066813D02*
X0033850Y0068500D01*
X0029650Y0072700D01*
X0041150Y0084200D01*
X0041650Y0084200D01*
X0044150Y0084200D02*
X0040550Y0080600D01*
X0039750Y0080600D01*
X0031750Y0072600D01*
X0035750Y0068600D01*
X0035750Y0066882D01*
X0036306Y0066326D01*
X0037650Y0066950D02*
X0037650Y0068700D01*
X0033950Y0072400D01*
X0041950Y0080400D01*
X0043750Y0080400D01*
X0046650Y0083300D01*
X0046650Y0084200D01*
X0044150Y0084200D02*
X0044150Y0084700D01*
X0049150Y0083400D02*
X0044550Y0078800D01*
X0043150Y0078800D01*
X0036550Y0072200D01*
X0036550Y0072000D01*
X0039750Y0068800D01*
X0039750Y0066819D01*
X0040243Y0066326D01*
X0038274Y0066326D02*
X0037650Y0066950D01*
X0034337Y0066326D02*
X0033850Y0066813D01*
X0030400Y0066326D02*
X0029850Y0066876D01*
X0026463Y0066326D02*
X0025850Y0066939D01*
X0022526Y0066326D02*
X0021850Y0067002D01*
X0030400Y0054319D02*
X0030400Y0052350D01*
X0032350Y0054300D01*
X0044450Y0054300D01*
X0044450Y0056300D01*
X0049350Y0056300D01*
X0050350Y0057200D01*
X0049350Y0056300D02*
X0049337Y0056287D01*
X0044376Y0056287D01*
X0044376Y0054319D01*
X0030400Y0054319D01*
X0030450Y0038374D02*
X0030400Y0038374D01*
X0030450Y0038374D02*
X0030450Y0034600D01*
X0029650Y0033800D01*
X0029650Y0020500D01*
X0027050Y0017900D01*
X0027050Y0016400D01*
X0026950Y0016400D01*
X0026200Y0015650D01*
X0026200Y0012350D01*
X0024850Y0014000D02*
X0024850Y0016700D01*
X0025350Y0017200D01*
X0025400Y0017250D01*
X0025400Y0020950D01*
X0027650Y0023200D01*
X0027650Y0035300D01*
X0027750Y0035400D01*
X0027750Y0036500D01*
X0028431Y0037181D01*
X0028431Y0038374D01*
X0026463Y0038374D02*
X0026050Y0038374D01*
X0026050Y0026600D01*
X0022850Y0023400D01*
X0022850Y0017500D01*
X0022850Y0017100D01*
X0021050Y0015300D01*
X0019750Y0015300D01*
X0019250Y0014800D01*
X0019250Y0013750D01*
X0020350Y0017000D02*
X0020350Y0024000D01*
X0024494Y0028144D01*
X0024494Y0038374D01*
X0022550Y0038374D02*
X0022550Y0028900D01*
X0017850Y0024200D01*
X0017850Y0017500D01*
X0020350Y0017000D02*
X0020350Y0018400D01*
X0022850Y0018000D02*
X0022850Y0017500D01*
X0025250Y0017700D02*
X0025250Y0017200D01*
X0025350Y0017200D01*
X0024850Y0014000D02*
X0022600Y0014000D01*
X0022350Y0013750D01*
X0023250Y0012100D02*
X0015850Y0012100D01*
X0016150Y0012400D01*
X0016150Y0030200D01*
X0012900Y0032350D02*
X0011350Y0030800D01*
X0011350Y0027900D01*
X0012900Y0036550D02*
X0012900Y0042484D01*
X0016424Y0042507D01*
X0016424Y0044476D02*
X0016424Y0046444D01*
X0016368Y0046500D01*
X0007650Y0046500D01*
X0006650Y0045500D01*
X0004150Y0052300D02*
X0004150Y0052350D01*
X0011550Y0048500D02*
X0011637Y0048413D01*
X0016424Y0048413D01*
X0016550Y0039300D02*
X0019631Y0039300D01*
X0020557Y0038374D01*
X0022526Y0038374D02*
X0022550Y0038374D01*
X0032369Y0038374D02*
X0032369Y0020519D01*
X0029250Y0017400D01*
X0029250Y0012400D01*
X0029300Y0012350D01*
X0027650Y0010700D01*
X0024650Y0010700D01*
X0023250Y0012100D01*
X0024450Y0007900D02*
X0024450Y0007800D01*
X0028250Y0007800D01*
X0032450Y0007800D02*
X0032450Y0005500D01*
X0022250Y0005500D01*
X0019850Y0007900D01*
X0029300Y0017350D02*
X0029250Y0017400D01*
X0032850Y0017400D02*
X0035800Y0014450D01*
X0032450Y0011100D01*
X0032450Y0007800D01*
X0032450Y0006500D01*
X0036850Y0018400D02*
X0041350Y0022900D01*
X0044650Y0022900D01*
X0045750Y0024000D01*
X0045750Y0027300D01*
X0046150Y0027700D01*
X0046150Y0029200D01*
X0045250Y0030100D01*
X0040250Y0030100D01*
X0036306Y0034044D01*
X0036306Y0038374D01*
X0038274Y0038374D02*
X0038274Y0033776D01*
X0040950Y0031100D01*
X0045750Y0031100D01*
X0049050Y0027800D01*
X0046666Y0031950D02*
X0052900Y0031950D01*
X0049850Y0037200D02*
X0047950Y0037200D01*
X0047950Y0040100D01*
X0046150Y0040100D01*
X0047550Y0041100D02*
X0048950Y0041100D01*
X0048950Y0039400D01*
X0050150Y0038200D01*
X0052900Y0038200D01*
X0051650Y0038200D01*
X0047550Y0041100D02*
X0046143Y0042507D01*
X0044376Y0042507D01*
X0044376Y0044476D02*
X0052900Y0044476D01*
X0052900Y0044450D01*
X0051750Y0047900D02*
X0056450Y0047900D01*
X0054950Y0052000D02*
X0044376Y0052000D01*
X0044376Y0052350D01*
X0044376Y0050381D01*
X0044376Y0048413D02*
X0041850Y0048413D01*
X0041850Y0040900D01*
X0042250Y0040500D01*
X0040243Y0038374D02*
X0046666Y0031950D01*
X0043950Y0024600D02*
X0034337Y0034213D01*
X0034337Y0038374D01*
X0044376Y0046444D02*
X0046850Y0046444D01*
X0046850Y0047300D01*
X0049450Y0049900D01*
X0049750Y0049900D01*
X0051750Y0047900D01*
X0054950Y0052000D02*
X0055550Y0053400D01*
X0051150Y0054100D02*
X0056850Y0059800D01*
X0056876Y0059802D01*
X0056902Y0059807D01*
X0056927Y0059815D01*
X0056950Y0059827D01*
X0056972Y0059841D01*
X0056991Y0059859D01*
X0057009Y0059878D01*
X0057023Y0059900D01*
X0057035Y0059923D01*
X0057043Y0059948D01*
X0057048Y0059974D01*
X0057050Y0060000D01*
X0057050Y0063000D01*
X0055150Y0064900D01*
X0055850Y0064900D01*
X0055850Y0075900D01*
X0049150Y0083400D02*
X0049150Y0084700D01*
X0039150Y0084700D02*
X0039150Y0084000D01*
X0052350Y0064900D02*
X0050350Y0062900D01*
X0050350Y0060448D01*
X0050126Y0060224D01*
X0044376Y0060224D01*
X0044376Y0062193D01*
X0044821Y0058700D02*
X0047650Y0058700D01*
X0048150Y0059200D01*
X0051400Y0059200D01*
X0053700Y0061500D01*
X0052350Y0064900D02*
X0055150Y0064900D01*
X0051150Y0054100D02*
X0049750Y0054100D01*
X0044821Y0058700D02*
X0044780Y0058698D01*
X0044739Y0058692D01*
X0044699Y0058683D01*
X0044661Y0058670D01*
X0044623Y0058653D01*
X0044587Y0058633D01*
X0044553Y0058610D01*
X0044522Y0058584D01*
X0044493Y0058555D01*
X0044467Y0058524D01*
X0044444Y0058490D01*
X0044424Y0058454D01*
X0044407Y0058416D01*
X0044394Y0058378D01*
X0044385Y0058338D01*
X0044379Y0058297D01*
X0044377Y0058256D01*
X0014150Y0083800D02*
X0014150Y0084700D01*
X0009150Y0084700D02*
X0008000Y0083550D01*
X0008000Y0063700D01*
D20*
X0005150Y0008000D03*
X0011350Y0023800D03*
X0011350Y0027900D03*
X0016150Y0030200D03*
X0016150Y0033200D03*
X0016150Y0035900D03*
X0016550Y0039300D03*
X0011550Y0048500D03*
X0012550Y0051400D03*
X0009550Y0054000D03*
X0009550Y0058200D03*
X0012350Y0056400D03*
X0006650Y0045500D03*
X0017850Y0017500D03*
X0020350Y0017000D03*
X0022850Y0017500D03*
X0025350Y0017200D03*
X0024450Y0007900D03*
X0032850Y0017400D03*
X0036850Y0018400D03*
X0037850Y0008700D03*
X0043950Y0024600D03*
X0044450Y0028400D03*
X0042450Y0033400D03*
X0046150Y0040100D03*
X0042250Y0040500D03*
X0048550Y0046600D03*
X0050350Y0057200D03*
X0055550Y0053400D03*
X0056450Y0047900D03*
X0049050Y0027800D03*
X0030450Y0034600D03*
X0055850Y0075900D03*
X0051650Y0084200D03*
X0049150Y0084700D03*
X0046650Y0084200D03*
X0044150Y0084700D03*
X0041650Y0084200D03*
X0039150Y0084700D03*
X0036650Y0084200D03*
X0034150Y0084700D03*
X0031650Y0084200D03*
X0029150Y0084700D03*
X0026650Y0084200D03*
X0024150Y0084700D03*
X0021650Y0084200D03*
X0019150Y0084700D03*
X0016650Y0084200D03*
X0014150Y0084700D03*
X0011650Y0084200D03*
X0009150Y0084700D03*
M02*
