G04*
G04 #@! TF.GenerationSoftware,Altium Limited,Altium Designer,19.1.6 (110)*
G04*
G04 Layer_Color=32768*
%FSLAX43Y43*%
%MOMM*%
G71*
G01*
G75*
%ADD14C,0.152*%
%ADD77C,0.050*%
%ADD78C,0.100*%
G36*
X60291Y23254D02*
Y22250D01*
X58209D01*
Y23254D01*
X55592D01*
Y30569D01*
X58209D01*
Y31572D01*
X60291D01*
Y30569D01*
X62908D01*
Y23254D01*
X60291D01*
D02*
G37*
G36*
X23927Y68805D02*
X33452D01*
Y51203D01*
X23927D01*
Y68805D01*
D02*
G37*
G36*
X60291Y48754D02*
Y47750D01*
X58209D01*
Y48754D01*
X55592D01*
Y56069D01*
X58209D01*
Y57072D01*
X60291D01*
Y56069D01*
X62908D01*
Y48754D01*
X60291D01*
D02*
G37*
G36*
X78054Y32804D02*
X78359D01*
Y29202D01*
X78054D01*
Y28699D01*
X74446D01*
Y29202D01*
X74141D01*
Y32804D01*
X74446D01*
Y33307D01*
X78054D01*
Y32804D01*
D02*
G37*
G36*
X86209Y41319D02*
Y42322D01*
X88291D01*
Y41319D01*
X90908D01*
Y34004D01*
X88291D01*
Y33000D01*
X86209D01*
Y34004D01*
X83592D01*
Y41319D01*
X86209D01*
D02*
G37*
G36*
X78054Y58304D02*
X78359D01*
Y54702D01*
X78054D01*
Y54199D01*
X74446D01*
Y54702D01*
X74141D01*
Y58304D01*
X74446D01*
Y58807D01*
X78054D01*
Y58304D01*
D02*
G37*
G36*
X86209Y66819D02*
Y67822D01*
X88291D01*
Y66819D01*
X90908D01*
Y59504D01*
X88291D01*
Y58500D01*
X86209D01*
Y59504D01*
X83592D01*
Y66819D01*
X86209D01*
D02*
G37*
D14*
X58209Y22250D02*
X60291D01*
X58209D02*
Y23254D01*
Y30569D02*
Y31572D01*
X60291D01*
Y30569D02*
Y31572D01*
Y22250D02*
Y23254D01*
X62908D01*
X55592D02*
X58209D01*
X55592D02*
Y30569D01*
X58209D01*
X60291D02*
X62908D01*
Y23254D02*
Y30569D01*
X86209Y42322D02*
X88291D01*
Y41319D02*
Y42322D01*
Y33000D02*
Y34004D01*
X86209Y33000D02*
X88291D01*
X86209D02*
Y34004D01*
Y41319D02*
Y42322D01*
X83592Y41319D02*
X86209D01*
X88291D02*
X90908D01*
Y34004D02*
Y41319D01*
X88291Y34004D02*
X90908D01*
X83592D02*
X86209D01*
X83592D02*
Y41319D01*
X78359Y29202D02*
Y32804D01*
X78054Y29202D02*
X78359D01*
X74141D02*
X74446D01*
X74141D02*
Y32804D01*
X74446D01*
X78054D02*
X78359D01*
X78054D02*
Y33307D01*
Y28699D02*
Y29202D01*
X74446Y28699D02*
X78054D01*
X74446D02*
Y29202D01*
Y32804D02*
Y33307D01*
X78054D01*
X78359Y54702D02*
Y58304D01*
X78054Y54702D02*
X78359D01*
X74141D02*
X74446D01*
X74141D02*
Y58304D01*
X74446D01*
X78054D02*
X78359D01*
X78054D02*
Y58807D01*
Y54199D02*
Y54702D01*
X74446Y54199D02*
X78054D01*
X74446D02*
Y54702D01*
Y58304D02*
Y58807D01*
X78054D01*
X86209Y67822D02*
X88291D01*
Y66819D02*
Y67822D01*
Y58500D02*
Y59504D01*
X86209Y58500D02*
X88291D01*
X86209D02*
Y59504D01*
Y66819D02*
Y67822D01*
X83592Y66819D02*
X86209D01*
X88291D02*
X90908D01*
Y59504D02*
Y66819D01*
X88291Y59504D02*
X90908D01*
X83592D02*
X86209D01*
X83592D02*
Y66819D01*
X58209Y47750D02*
X60291D01*
X58209D02*
Y48754D01*
Y56069D02*
Y57072D01*
X60291D01*
Y56069D02*
Y57072D01*
Y47750D02*
Y48754D01*
X62908D01*
X55592D02*
X58209D01*
X55592D02*
Y56069D01*
X58209D01*
X60291D02*
X62908D01*
Y48754D02*
Y56069D01*
X23927Y68805D02*
X33452D01*
X23927Y51203D02*
Y68805D01*
Y51203D02*
X33452D01*
Y68805D01*
D77*
X6568Y4191D02*
G03*
X6568Y4191I-2250J0D01*
G01*
X56691Y83182D02*
G03*
X56691Y83182I-2250J0D01*
G01*
X184810Y37450D02*
Y46200D01*
X172190D02*
X184810D01*
X172190Y37450D02*
Y46200D01*
Y37450D02*
X184810D01*
X63900Y15233D02*
X64600D01*
X63900Y16633D02*
X64600D01*
X63900Y15233D02*
Y16633D01*
X64600Y15233D02*
Y16633D01*
X75880Y26203D02*
Y26803D01*
X74480Y26203D02*
Y26803D01*
Y26203D02*
X75880D01*
X74480Y26803D02*
X75880D01*
X80950Y28873D02*
X81550D01*
X80950Y30273D02*
X81550D01*
X80950Y28873D02*
Y30273D01*
X81550Y28873D02*
Y30273D01*
X75950Y21033D02*
X96770D01*
X75950Y16973D02*
Y21033D01*
Y16973D02*
X96770D01*
Y21033D01*
X157687Y71905D02*
Y74741D01*
X134633Y71905D02*
X157687D01*
X134633D02*
Y74741D01*
X157687D01*
X111773Y71905D02*
Y74741D01*
X134827D01*
Y71905D02*
Y74741D01*
X111773Y71905D02*
X134827D01*
X111773Y79525D02*
Y82361D01*
X134827D01*
Y79525D02*
Y82361D01*
X111773Y79525D02*
X134827D01*
X111773Y75715D02*
Y78551D01*
X134827D01*
Y75715D02*
Y78551D01*
X111773Y75715D02*
X134827D01*
X111773Y83335D02*
Y86171D01*
X134827D01*
Y83335D02*
Y86171D01*
X111773Y83335D02*
X134827D01*
X157687Y79525D02*
Y82361D01*
X134633Y79525D02*
X157687D01*
X134633D02*
Y82361D01*
X157687D01*
Y75715D02*
Y78551D01*
X134633Y75715D02*
X157687D01*
X134633D02*
Y78551D01*
X157687D01*
Y83335D02*
Y86171D01*
X134633Y83335D02*
X157687D01*
X134633D02*
Y86171D01*
X157687D01*
X145050Y18150D02*
X146450D01*
X145050Y18850D02*
X146450D01*
Y18150D02*
Y18850D01*
X145050Y18150D02*
Y18850D01*
X125050Y18150D02*
X126450D01*
X125050Y18850D02*
X126450D01*
Y18150D02*
Y18850D01*
X125050Y18150D02*
Y18850D01*
X151050Y21150D02*
X152450D01*
X151050Y21850D02*
X152450D01*
Y21150D02*
Y21850D01*
X151050Y21150D02*
Y21850D01*
X131050Y21150D02*
X132450D01*
X131050Y21850D02*
X132450D01*
Y21150D02*
Y21850D01*
X131050Y21150D02*
Y21850D01*
X151100Y18800D02*
Y20200D01*
X150400Y18800D02*
Y20200D01*
X151100D01*
X150400Y18800D02*
X151100D01*
X131100D02*
Y20200D01*
X130400Y18800D02*
Y20200D01*
X131100D01*
X130400Y18800D02*
X131100D01*
X139100Y18800D02*
Y20200D01*
X138400Y18800D02*
Y20200D01*
X139100D01*
X138400Y18800D02*
X139100D01*
X119100D02*
Y20200D01*
X118400Y18800D02*
Y20200D01*
X119100D01*
X118400Y18800D02*
X119100D01*
X137400Y23800D02*
Y25200D01*
X138100Y23800D02*
Y25200D01*
X137400Y23800D02*
X138100D01*
X137400Y25200D02*
X138100D01*
X117400Y23800D02*
Y25200D01*
X118100Y23800D02*
Y25200D01*
X117400Y23800D02*
X118100D01*
X117400Y25200D02*
X118100D01*
X151050Y23150D02*
X152450D01*
X151050Y23850D02*
X152450D01*
Y23150D02*
Y23850D01*
X151050Y23150D02*
Y23850D01*
X131050Y23150D02*
X132450D01*
X131050Y23850D02*
X132450D01*
Y23150D02*
Y23850D01*
X131050Y23150D02*
Y23850D01*
X75950Y46533D02*
X96770D01*
X75950Y42473D02*
Y46533D01*
Y42473D02*
X96770D01*
Y46533D01*
X80950Y54373D02*
X81550D01*
X80950Y55773D02*
X81550D01*
X80950Y54373D02*
Y55773D01*
X81550Y54373D02*
Y55773D01*
X75880Y51703D02*
Y52303D01*
X74480Y51703D02*
Y52303D01*
Y51703D02*
X75880D01*
X74480Y52303D02*
X75880D01*
X172190Y78950D02*
X184810D01*
X172190D02*
Y87700D01*
X184810D01*
Y78950D02*
Y87700D01*
X137400Y27200D02*
X138100D01*
X137400Y25800D02*
X138100D01*
Y27200D01*
X137400Y25800D02*
Y27200D01*
X117400D02*
X118100D01*
X117400Y25800D02*
X118100D01*
Y27200D01*
X117400Y25800D02*
Y27200D01*
X106400Y73053D02*
Y74453D01*
X107100Y73053D02*
Y74453D01*
X106400Y73053D02*
X107100D01*
X106400Y74453D02*
X107100D01*
X162400Y73053D02*
Y74453D01*
X163100Y73053D02*
Y74453D01*
X162400Y73053D02*
X163100D01*
X162400Y74453D02*
X163100D01*
X21975Y81690D02*
X42795D01*
Y87220D01*
X21975D02*
X42795D01*
X21975Y81690D02*
Y87220D01*
X-13Y84276D02*
X12597D01*
X-13Y67616D02*
Y84276D01*
Y67616D02*
X12597D01*
Y84276D01*
X-13Y64295D02*
X12597D01*
X-13Y47635D02*
Y64295D01*
Y47635D02*
X12597D01*
Y64295D01*
X-13Y44313D02*
X12597D01*
X-13Y27653D02*
Y44313D01*
Y27653D02*
X12597D01*
Y44313D01*
X25027Y21433D02*
Y31733D01*
X32827Y21433D02*
Y31733D01*
X25027D02*
X32827D01*
X25027Y21433D02*
X32827D01*
X-13Y24332D02*
X12597D01*
X-13Y7672D02*
Y24332D01*
Y7672D02*
X12597D01*
Y24332D01*
D78*
X28427Y26583D02*
X29427D01*
X28927Y26083D02*
Y27083D01*
M02*
