G04*
G04 #@! TF.GenerationSoftware,Altium Limited,Altium Designer,19.1.6 (110)*
G04*
G04 Layer_Color=0*
%FSLAX43Y43*%
%MOMM*%
G71*
G01*
G75*
%ADD77C,0.050*%
D77*
X130400Y18800D02*
Y20200D01*
X131100Y18800D02*
Y20200D01*
X130400D02*
X131100D01*
X130400Y18800D02*
X131100D01*
X124450Y18150D02*
Y18850D01*
X123050Y18150D02*
Y18850D01*
X124450D01*
X123050Y18150D02*
X124450D01*
X132330Y-800D02*
Y11810D01*
X115670Y-800D02*
X132330D01*
X115670D02*
Y11810D01*
X132330D01*
X153830Y-800D02*
Y11810D01*
X137170Y-800D02*
X153830D01*
X137170D02*
Y11810D01*
X153830D01*
X102530Y61256D02*
X166930D01*
Y72056D01*
X102530D02*
X166930D01*
X102530Y61256D02*
Y72056D01*
X137050Y21150D02*
X138450D01*
X137050Y21850D02*
X138450D01*
X137050Y21150D02*
Y21850D01*
X138450Y21150D02*
Y21850D01*
X138400Y18800D02*
Y20200D01*
X139100Y18800D02*
Y20200D01*
X138400D02*
X139100D01*
X138400Y18800D02*
X139100D01*
X151400Y23800D02*
Y25200D01*
X152100Y23800D02*
Y25200D01*
X151400D02*
X152100D01*
X151400Y23800D02*
X152100D01*
X137050Y23150D02*
X138450D01*
X137050Y23850D02*
X138450D01*
X137050Y23150D02*
Y23850D01*
X138450Y23150D02*
Y23850D01*
X117050Y23150D02*
X118450D01*
X117050Y23850D02*
X118450D01*
X117050Y23150D02*
Y23850D01*
X118450Y23150D02*
Y23850D01*
X117050Y21150D02*
X118450D01*
X117050Y21850D02*
X118450D01*
X117050Y21150D02*
Y21850D01*
X118450Y21150D02*
Y21850D01*
X131400Y23800D02*
Y25200D01*
X132100Y23800D02*
Y25200D01*
X131400D02*
X132100D01*
X131400Y23800D02*
X132100D01*
X118400Y18800D02*
Y20200D01*
X119100Y18800D02*
Y20200D01*
X118400D02*
X119100D01*
X118400Y18800D02*
X119100D01*
X143050Y18150D02*
X144450D01*
X143050Y18850D02*
X144450D01*
X143050Y18150D02*
Y18850D01*
X144450Y18150D02*
Y18850D01*
X150400Y18800D02*
Y20200D01*
X151100Y18800D02*
Y20200D01*
X150400D02*
X151100D01*
X150400Y18800D02*
X151100D01*
X151400Y27630D02*
X152100D01*
X151400Y26230D02*
X152100D01*
X151400D02*
Y27630D01*
X152100Y26230D02*
Y27630D01*
X131400Y27700D02*
X132100D01*
X131400Y26300D02*
X132100D01*
X131400D02*
Y27700D01*
X132100Y26300D02*
Y27700D01*
M02*
