G04*
G04 #@! TF.GenerationSoftware,Altium Limited,Altium Designer,19.1.6 (110)*
G04*
G04 Layer_Color=8388736*
%FSLAX43Y43*%
%MOMM*%
G71*
G01*
G75*
%ADD18R,0.230X1.200*%
%ADD19R,0.700X1.300*%
%ADD20R,1.300X0.900*%
%ADD21R,0.700X0.540*%
%ADD22R,1.575X2.997*%
%ADD23R,0.540X0.600*%
%ADD24R,0.600X0.540*%
%ADD25R,0.900X1.300*%
%ADD26R,10.300X10.500*%
%ADD27R,2.100X1.050*%
%ADD28R,1.300X0.700*%
%ADD29R,0.805X0.300*%
%ADD30R,1.300X1.600*%
%ADD31R,2.000X1.600*%
%ADD32R,0.250X0.900*%
%ADD33R,4.100X4.100*%
%ADD34R,0.900X0.250*%
%ADD35R,0.540X0.700*%
%ADD36R,2.600X0.300*%
%ADD37O,1.400X0.300*%
%ADD38R,1.676X0.279*%
%ADD39R,1.800X3.400*%
%ADD40C,0.400*%
%ADD41O,1.250X2.500*%
%ADD42C,1.000*%
%ADD43R,1.500X1.500*%
%ADD44C,1.500*%
%ADD45R,1.500X1.500*%
%ADD46C,1.524*%
%ADD47R,1.900X1.900*%
%ADD48C,1.900*%
%ADD49C,1.388*%
%ADD50R,1.388X1.388*%
%ADD51O,4.318X2.337*%
%ADD52O,2.337X4.318*%
%ADD53O,4.826X2.337*%
%ADD54C,7.400*%
%ADD55O,1.500X2.700*%
%ADD56O,1.500X3.300*%
%ADD57R,1.524X1.524*%
%ADD58R,1.308X1.308*%
%ADD59C,5.100*%
%ADD60C,1.308*%
%ADD61C,3.000*%
%ADD62C,2.600*%
%ADD63R,2.600X2.600*%
%ADD64R,1.900X1.900*%
%ADD65C,1.398*%
%ADD66R,1.398X1.398*%
%ADD67O,2.700X1.500*%
%ADD68O,3.300X1.500*%
%ADD69C,4.300*%
%ADD70C,0.800*%
%ADD71C,0.600*%
%ADD72C,1.270*%
D18*
X182100Y38300D02*
D03*
X181700D02*
D03*
X181300D02*
D03*
X180900D02*
D03*
X180500D02*
D03*
X180100D02*
D03*
X179700D02*
D03*
X179300D02*
D03*
X178900D02*
D03*
X178500D02*
D03*
X178100D02*
D03*
X177700D02*
D03*
X177300D02*
D03*
X176900D02*
D03*
X176500D02*
D03*
X176100D02*
D03*
X175700D02*
D03*
X175300D02*
D03*
X174900D02*
D03*
X176500Y79800D02*
D03*
X176900D02*
D03*
X175300D02*
D03*
X175700D02*
D03*
X180100D02*
D03*
X181300D02*
D03*
X174900D02*
D03*
X176100D02*
D03*
X177300D02*
D03*
X177700D02*
D03*
X178100D02*
D03*
X178500D02*
D03*
X178900D02*
D03*
X179300D02*
D03*
X179700D02*
D03*
X180500D02*
D03*
X180900D02*
D03*
X181700D02*
D03*
X182100D02*
D03*
D19*
X180750Y24750D02*
D03*
X178850D02*
D03*
X174350Y66250D02*
D03*
X176250D02*
D03*
X86750Y24003D02*
D03*
X84850D02*
D03*
X84850Y49503D02*
D03*
X86750D02*
D03*
X178850Y66250D02*
D03*
X180750D02*
D03*
X176250Y24750D02*
D03*
X174350D02*
D03*
D20*
X67250Y17403D02*
D03*
Y15503D02*
D03*
X81250Y33003D02*
D03*
Y34903D02*
D03*
X71250Y33003D02*
D03*
Y34903D02*
D03*
Y40603D02*
D03*
Y42503D02*
D03*
X71250Y68003D02*
D03*
Y66103D02*
D03*
Y60403D02*
D03*
Y58503D02*
D03*
X81250D02*
D03*
Y60403D02*
D03*
D21*
X64250Y15503D02*
D03*
Y16363D02*
D03*
X150750Y19930D02*
D03*
Y19070D02*
D03*
X130750Y19930D02*
D03*
Y19070D02*
D03*
X138750Y19930D02*
D03*
Y19070D02*
D03*
X118750Y19930D02*
D03*
Y19070D02*
D03*
X137750Y24070D02*
D03*
Y24930D02*
D03*
X117750Y24070D02*
D03*
Y24930D02*
D03*
X137750Y26930D02*
D03*
Y26070D02*
D03*
X117750Y26930D02*
D03*
Y26070D02*
D03*
X106750Y73323D02*
D03*
Y74183D02*
D03*
X162750Y73323D02*
D03*
Y74183D02*
D03*
D22*
X59250Y24003D02*
D03*
Y29820D02*
D03*
X87250Y40570D02*
D03*
Y34753D02*
D03*
X87250Y66070D02*
D03*
Y60253D02*
D03*
X59250Y49503D02*
D03*
Y55320D02*
D03*
D23*
X75610Y26503D02*
D03*
X74750D02*
D03*
X75610Y52003D02*
D03*
X74750D02*
D03*
D24*
X81250Y29143D02*
D03*
Y30003D02*
D03*
X81250Y54643D02*
D03*
Y55503D02*
D03*
D25*
X75350Y37003D02*
D03*
X77250D02*
D03*
X77250Y62503D02*
D03*
X75350D02*
D03*
D26*
X62750Y40003D02*
D03*
X62750Y65503D02*
D03*
D27*
X54300Y37463D02*
D03*
Y40003D02*
D03*
Y42543D02*
D03*
X54300Y62963D02*
D03*
Y65503D02*
D03*
Y68043D02*
D03*
D28*
X71250Y25503D02*
D03*
Y27403D02*
D03*
X71250Y52903D02*
D03*
Y51003D02*
D03*
X30099Y70612D02*
D03*
Y72512D02*
D03*
X26924Y70612D02*
D03*
Y72512D02*
D03*
X27051Y49652D02*
D03*
Y47752D02*
D03*
X30480Y49657D02*
D03*
Y47757D02*
D03*
X30353Y17902D02*
D03*
Y16002D02*
D03*
X27178Y17902D02*
D03*
Y16002D02*
D03*
X27559Y32898D02*
D03*
Y34798D02*
D03*
X30734D02*
D03*
Y32898D02*
D03*
D29*
X77702Y29503D02*
D03*
Y30003D02*
D03*
Y30503D02*
D03*
Y31003D02*
D03*
Y31503D02*
D03*
Y32003D02*
D03*
Y32503D02*
D03*
X74798D02*
D03*
Y32003D02*
D03*
Y31503D02*
D03*
Y31003D02*
D03*
Y30503D02*
D03*
Y30003D02*
D03*
Y29503D02*
D03*
X77702Y55003D02*
D03*
Y55503D02*
D03*
Y56003D02*
D03*
Y56503D02*
D03*
Y57003D02*
D03*
Y57503D02*
D03*
Y58003D02*
D03*
X74798D02*
D03*
Y57503D02*
D03*
Y57003D02*
D03*
Y56503D02*
D03*
Y56003D02*
D03*
Y55503D02*
D03*
Y55003D02*
D03*
D30*
X68250Y27503D02*
D03*
X65710D02*
D03*
X79250Y25503D02*
D03*
X81790D02*
D03*
X85250Y30003D02*
D03*
X87790D02*
D03*
X87790Y55503D02*
D03*
X85250D02*
D03*
X79250Y51003D02*
D03*
X81790D02*
D03*
X68250Y53003D02*
D03*
X65710D02*
D03*
D31*
X66980Y30403D02*
D03*
X80520Y22603D02*
D03*
X86520Y27103D02*
D03*
X86520Y52603D02*
D03*
X80520Y48103D02*
D03*
X66980Y55903D02*
D03*
D32*
X125750Y20950D02*
D03*
X125250D02*
D03*
X126750D02*
D03*
X126250D02*
D03*
X122250D02*
D03*
X122750D02*
D03*
X123250D02*
D03*
X123750D02*
D03*
X124250D02*
D03*
X124750D02*
D03*
X127250D02*
D03*
Y28050D02*
D03*
X126750D02*
D03*
X126250D02*
D03*
X125750D02*
D03*
X125250D02*
D03*
X124750D02*
D03*
X124250D02*
D03*
X123750D02*
D03*
X123250D02*
D03*
X122750D02*
D03*
X122250D02*
D03*
X142250Y20950D02*
D03*
X142750D02*
D03*
X144250D02*
D03*
X144750D02*
D03*
X146250D02*
D03*
X146750D02*
D03*
X147250D02*
D03*
Y28050D02*
D03*
X146750D02*
D03*
X146250D02*
D03*
X145750D02*
D03*
X145250D02*
D03*
X144750D02*
D03*
X144250D02*
D03*
X143750D02*
D03*
X143250D02*
D03*
X142750D02*
D03*
X142250D02*
D03*
X145250Y20950D02*
D03*
X145750D02*
D03*
X143250D02*
D03*
X143750D02*
D03*
D33*
X124750Y24500D02*
D03*
X144750D02*
D03*
D34*
X121200Y25000D02*
D03*
Y25500D02*
D03*
Y26000D02*
D03*
Y26500D02*
D03*
Y24500D02*
D03*
Y24000D02*
D03*
Y23500D02*
D03*
Y23000D02*
D03*
Y22500D02*
D03*
Y27000D02*
D03*
Y22000D02*
D03*
X128300D02*
D03*
Y22500D02*
D03*
Y23000D02*
D03*
Y23500D02*
D03*
Y24000D02*
D03*
Y24500D02*
D03*
Y25000D02*
D03*
Y25500D02*
D03*
Y26000D02*
D03*
Y26500D02*
D03*
Y27000D02*
D03*
X141200Y25000D02*
D03*
Y25500D02*
D03*
Y26000D02*
D03*
Y26500D02*
D03*
Y24500D02*
D03*
Y24000D02*
D03*
Y23500D02*
D03*
Y23000D02*
D03*
Y22500D02*
D03*
Y27000D02*
D03*
Y22000D02*
D03*
X148300D02*
D03*
Y22500D02*
D03*
Y23000D02*
D03*
Y23500D02*
D03*
Y24000D02*
D03*
Y24500D02*
D03*
Y25000D02*
D03*
Y25500D02*
D03*
Y26000D02*
D03*
Y26500D02*
D03*
Y27000D02*
D03*
D35*
X146180Y18500D02*
D03*
X145320D02*
D03*
X126180D02*
D03*
X125320D02*
D03*
X152180Y21500D02*
D03*
X151320D02*
D03*
X132180D02*
D03*
X131320D02*
D03*
X152180Y23500D02*
D03*
X151320D02*
D03*
X132180D02*
D03*
X131320D02*
D03*
D36*
X11047Y80446D02*
D03*
Y79946D02*
D03*
Y79446D02*
D03*
Y78946D02*
D03*
Y78446D02*
D03*
Y77946D02*
D03*
Y77446D02*
D03*
Y76946D02*
D03*
Y76446D02*
D03*
Y75946D02*
D03*
Y75446D02*
D03*
Y74946D02*
D03*
Y74446D02*
D03*
Y73946D02*
D03*
Y73446D02*
D03*
Y72946D02*
D03*
Y72446D02*
D03*
Y71946D02*
D03*
Y71446D02*
D03*
Y60465D02*
D03*
Y59965D02*
D03*
Y59465D02*
D03*
Y58965D02*
D03*
Y58465D02*
D03*
Y57965D02*
D03*
Y57465D02*
D03*
Y56965D02*
D03*
Y56465D02*
D03*
Y55965D02*
D03*
Y55465D02*
D03*
Y54965D02*
D03*
Y54465D02*
D03*
Y53965D02*
D03*
Y53465D02*
D03*
Y52965D02*
D03*
Y52465D02*
D03*
Y51965D02*
D03*
Y51465D02*
D03*
Y40483D02*
D03*
Y39983D02*
D03*
Y39483D02*
D03*
Y38983D02*
D03*
Y38483D02*
D03*
Y37983D02*
D03*
Y37483D02*
D03*
Y36983D02*
D03*
Y36483D02*
D03*
Y35983D02*
D03*
Y35483D02*
D03*
Y34983D02*
D03*
Y34483D02*
D03*
Y33983D02*
D03*
Y33483D02*
D03*
Y32983D02*
D03*
Y32483D02*
D03*
Y31983D02*
D03*
Y31483D02*
D03*
Y20502D02*
D03*
Y20002D02*
D03*
Y19502D02*
D03*
Y19002D02*
D03*
Y18502D02*
D03*
Y18002D02*
D03*
Y17502D02*
D03*
Y17002D02*
D03*
Y16502D02*
D03*
Y16002D02*
D03*
Y15502D02*
D03*
Y15002D02*
D03*
Y14502D02*
D03*
Y14002D02*
D03*
Y13502D02*
D03*
Y13002D02*
D03*
Y12502D02*
D03*
Y12002D02*
D03*
Y11502D02*
D03*
D37*
X25977Y31083D02*
D03*
Y30583D02*
D03*
Y30083D02*
D03*
Y29583D02*
D03*
Y29083D02*
D03*
Y28583D02*
D03*
Y28083D02*
D03*
Y27583D02*
D03*
Y27083D02*
D03*
Y26583D02*
D03*
Y26083D02*
D03*
Y25583D02*
D03*
Y25083D02*
D03*
Y24583D02*
D03*
Y24083D02*
D03*
Y23583D02*
D03*
Y23083D02*
D03*
Y22583D02*
D03*
Y22083D02*
D03*
X31877D02*
D03*
Y22583D02*
D03*
Y23083D02*
D03*
Y23583D02*
D03*
Y24083D02*
D03*
Y24583D02*
D03*
Y25083D02*
D03*
Y25583D02*
D03*
Y26083D02*
D03*
Y26583D02*
D03*
Y27083D02*
D03*
Y27583D02*
D03*
Y28083D02*
D03*
Y28583D02*
D03*
Y29083D02*
D03*
Y29583D02*
D03*
Y30083D02*
D03*
Y30583D02*
D03*
Y31083D02*
D03*
D38*
X25019Y52254D02*
D03*
Y52754D02*
D03*
Y53254D02*
D03*
Y53754D02*
D03*
Y54254D02*
D03*
Y54754D02*
D03*
Y55254D02*
D03*
Y55754D02*
D03*
Y56254D02*
D03*
Y56754D02*
D03*
Y57254D02*
D03*
Y57754D02*
D03*
Y58254D02*
D03*
Y58754D02*
D03*
Y59254D02*
D03*
Y59754D02*
D03*
Y60254D02*
D03*
Y60754D02*
D03*
Y61254D02*
D03*
Y61754D02*
D03*
Y62254D02*
D03*
Y62754D02*
D03*
Y63254D02*
D03*
Y63754D02*
D03*
Y64254D02*
D03*
Y64754D02*
D03*
Y65254D02*
D03*
Y65754D02*
D03*
Y66254D02*
D03*
Y66754D02*
D03*
Y67254D02*
D03*
Y67754D02*
D03*
X32360D02*
D03*
Y67254D02*
D03*
Y66754D02*
D03*
Y66254D02*
D03*
Y65754D02*
D03*
Y65254D02*
D03*
Y64754D02*
D03*
Y64254D02*
D03*
Y63754D02*
D03*
Y63254D02*
D03*
Y62754D02*
D03*
Y62254D02*
D03*
Y61754D02*
D03*
Y61254D02*
D03*
Y60754D02*
D03*
Y60254D02*
D03*
Y59754D02*
D03*
Y59254D02*
D03*
Y58754D02*
D03*
Y58254D02*
D03*
Y57754D02*
D03*
Y57254D02*
D03*
Y56754D02*
D03*
Y56254D02*
D03*
Y55754D02*
D03*
Y55254D02*
D03*
Y54754D02*
D03*
Y54254D02*
D03*
Y53754D02*
D03*
Y53254D02*
D03*
Y52754D02*
D03*
Y52254D02*
D03*
D39*
X76250Y31003D02*
D03*
X76250Y56503D02*
D03*
D40*
X187650Y11000D02*
D03*
X186800D02*
D03*
X185950D02*
D03*
X172350D02*
D03*
X173200D02*
D03*
X174050D02*
D03*
X174900D02*
D03*
X175750D02*
D03*
X176600D02*
D03*
X177450D02*
D03*
X178300D02*
D03*
X179150D02*
D03*
X180000D02*
D03*
X180850D02*
D03*
X181700D02*
D03*
X182550D02*
D03*
X183400D02*
D03*
X184250D02*
D03*
X185100D02*
D03*
D41*
X173080Y43950D02*
D03*
X183930D02*
D03*
X173080Y39450D02*
D03*
X183930D02*
D03*
Y80950D02*
D03*
X173080D02*
D03*
X183930Y85450D02*
D03*
X173080D02*
D03*
D42*
X174750Y40250D02*
D03*
X182250D02*
D03*
Y81750D02*
D03*
X174750D02*
D03*
D43*
X182250Y35370D02*
D03*
X184250D02*
D03*
Y76870D02*
D03*
X182250D02*
D03*
X43688Y64389D02*
D03*
Y32639D02*
D03*
Y47879D02*
D03*
D44*
X182250Y32830D02*
D03*
Y30290D02*
D03*
Y27750D02*
D03*
X184250D02*
D03*
Y30290D02*
D03*
Y32830D02*
D03*
X176290Y22000D02*
D03*
X178830D02*
D03*
X181370D02*
D03*
X183910D02*
D03*
X186450D02*
D03*
X173750Y19460D02*
D03*
X176290D02*
D03*
X178830D02*
D03*
X181370D02*
D03*
X183910D02*
D03*
X186450D02*
D03*
X153780Y32750D02*
D03*
X151240D02*
D03*
X148700D02*
D03*
X146160D02*
D03*
X143620D02*
D03*
X141080D02*
D03*
X138540D02*
D03*
X136000D02*
D03*
X133460D02*
D03*
X130920D02*
D03*
X128380D02*
D03*
X125840D02*
D03*
X123300D02*
D03*
X120760D02*
D03*
X118220D02*
D03*
X115680D02*
D03*
X113140D02*
D03*
X153780Y36560D02*
D03*
X151240D02*
D03*
X148700D02*
D03*
X146160D02*
D03*
X143620D02*
D03*
X141080D02*
D03*
X138540D02*
D03*
X136000D02*
D03*
X133460D02*
D03*
X130920D02*
D03*
X128380D02*
D03*
X125840D02*
D03*
X123300D02*
D03*
X120760D02*
D03*
X118220D02*
D03*
X115680D02*
D03*
X113140D02*
D03*
X153780Y40370D02*
D03*
X151240D02*
D03*
X148700D02*
D03*
X146160D02*
D03*
X143620D02*
D03*
X141080D02*
D03*
X138540D02*
D03*
X136000D02*
D03*
X133460D02*
D03*
X130920D02*
D03*
X128380D02*
D03*
X125840D02*
D03*
X123300D02*
D03*
X120760D02*
D03*
X118220D02*
D03*
X115680D02*
D03*
X113140D02*
D03*
X153780Y44180D02*
D03*
X151240D02*
D03*
X148700D02*
D03*
X146160D02*
D03*
X143620D02*
D03*
X141080D02*
D03*
X138540D02*
D03*
X136000D02*
D03*
X133460D02*
D03*
X130920D02*
D03*
X128380D02*
D03*
X125840D02*
D03*
X123300D02*
D03*
X120760D02*
D03*
X118220D02*
D03*
X115680D02*
D03*
X113140D02*
D03*
X184250Y69250D02*
D03*
Y74330D02*
D03*
Y71790D02*
D03*
X173750Y60960D02*
D03*
X176290D02*
D03*
Y63500D02*
D03*
X181370Y60960D02*
D03*
X178830D02*
D03*
X183910D02*
D03*
X181370Y63500D02*
D03*
X178830D02*
D03*
X186450Y60960D02*
D03*
X183910Y63500D02*
D03*
X186450D02*
D03*
X182250Y71790D02*
D03*
Y69250D02*
D03*
Y74330D02*
D03*
X151290Y59003D02*
D03*
X43688Y66929D02*
D03*
Y69469D02*
D03*
Y72009D02*
D03*
Y74549D02*
D03*
Y77089D02*
D03*
X41148Y64389D02*
D03*
Y66929D02*
D03*
Y69469D02*
D03*
Y72009D02*
D03*
Y74549D02*
D03*
Y77089D02*
D03*
X43688Y35179D02*
D03*
Y37719D02*
D03*
Y40259D02*
D03*
Y42799D02*
D03*
Y45339D02*
D03*
X41148Y32639D02*
D03*
Y35179D02*
D03*
Y37719D02*
D03*
Y40259D02*
D03*
Y42799D02*
D03*
Y45339D02*
D03*
X43688Y50419D02*
D03*
Y52959D02*
D03*
Y55499D02*
D03*
Y58039D02*
D03*
Y60579D02*
D03*
X41148Y47879D02*
D03*
Y50419D02*
D03*
Y52959D02*
D03*
Y55499D02*
D03*
Y58039D02*
D03*
Y60579D02*
D03*
D45*
X173750Y22000D02*
D03*
X156320Y32750D02*
D03*
Y36560D02*
D03*
Y40370D02*
D03*
Y44180D02*
D03*
X173750Y63500D02*
D03*
X148750Y59003D02*
D03*
D46*
X106750Y26500D02*
D03*
X153780Y73323D02*
D03*
X151240D02*
D03*
X148700D02*
D03*
X146160D02*
D03*
X143620D02*
D03*
X141080D02*
D03*
X138540D02*
D03*
X136000D02*
D03*
X115680D02*
D03*
X118220D02*
D03*
X120760D02*
D03*
X123300D02*
D03*
X125840D02*
D03*
X128380D02*
D03*
X130920D02*
D03*
X133460D02*
D03*
X115680Y80943D02*
D03*
X118220D02*
D03*
X120760D02*
D03*
X123300D02*
D03*
X125840D02*
D03*
X128380D02*
D03*
X130920D02*
D03*
X133460D02*
D03*
X115680Y77133D02*
D03*
X118220D02*
D03*
X120760D02*
D03*
X123300D02*
D03*
X125840D02*
D03*
X128380D02*
D03*
X130920D02*
D03*
X133460D02*
D03*
X115680Y84753D02*
D03*
X118220D02*
D03*
X120760D02*
D03*
X123300D02*
D03*
X125840D02*
D03*
X128380D02*
D03*
X130920D02*
D03*
X133460D02*
D03*
X153780Y80943D02*
D03*
X151240D02*
D03*
X148700D02*
D03*
X146160D02*
D03*
X143620D02*
D03*
X141080D02*
D03*
X138540D02*
D03*
X136000D02*
D03*
X153780Y77133D02*
D03*
X151240D02*
D03*
X148700D02*
D03*
X146160D02*
D03*
X143620D02*
D03*
X141080D02*
D03*
X138540D02*
D03*
X136000D02*
D03*
X153780Y84753D02*
D03*
X151240D02*
D03*
X148700D02*
D03*
X146160D02*
D03*
X143620D02*
D03*
X141080D02*
D03*
X138540D02*
D03*
X136000D02*
D03*
D47*
X93750Y31043D02*
D03*
X93750Y56543D02*
D03*
X41656Y18923D02*
D03*
Y4826D02*
D03*
X106750Y15500D02*
D03*
D48*
X93750Y28503D02*
D03*
Y25963D02*
D03*
Y23423D02*
D03*
X93750Y48923D02*
D03*
Y51463D02*
D03*
Y54003D02*
D03*
X55790Y16503D02*
D03*
X58330D02*
D03*
X60870D02*
D03*
X41656Y11303D02*
D03*
Y13843D02*
D03*
Y16383D02*
D03*
Y7366D02*
D03*
X106750Y18040D02*
D03*
Y20580D02*
D03*
Y23120D02*
D03*
D49*
X77470Y19003D02*
D03*
X80010D02*
D03*
X82550D02*
D03*
X85090D02*
D03*
X87630D02*
D03*
X90170D02*
D03*
X92710D02*
D03*
X77470Y44503D02*
D03*
X80010D02*
D03*
X82550D02*
D03*
X85090D02*
D03*
X87630D02*
D03*
X90170D02*
D03*
X92710D02*
D03*
D50*
X95250Y19003D02*
D03*
X95250Y44503D02*
D03*
D51*
X66236Y79053D02*
D03*
D52*
X61521Y76203D02*
D03*
D53*
X66250Y73003D02*
D03*
D54*
X106750Y4500D02*
D03*
X162750D02*
D03*
Y38500D02*
D03*
X106750D02*
D03*
X106750Y79003D02*
D03*
X162750D02*
D03*
D55*
X116750Y3540D02*
D03*
X131250D02*
D03*
X138250D02*
D03*
X152750D02*
D03*
D56*
X116750Y9500D02*
D03*
X131250D02*
D03*
X138250D02*
D03*
X152750D02*
D03*
D57*
X156320Y73323D02*
D03*
X113140D02*
D03*
Y80943D02*
D03*
Y77133D02*
D03*
Y84753D02*
D03*
X156320Y80943D02*
D03*
Y77133D02*
D03*
Y84753D02*
D03*
D58*
X113775Y63798D02*
D03*
Y67608D02*
D03*
D59*
X105775Y66656D02*
D03*
X163685D02*
D03*
D60*
X116315Y63798D02*
D03*
X118855D02*
D03*
X121395D02*
D03*
X123935D02*
D03*
X126475D02*
D03*
X129015D02*
D03*
X131555D02*
D03*
X134095D02*
D03*
X136635D02*
D03*
X139175D02*
D03*
X141715D02*
D03*
X144255D02*
D03*
X146795D02*
D03*
X149335D02*
D03*
X151875D02*
D03*
X154415D02*
D03*
X115045Y65703D02*
D03*
X117585D02*
D03*
X120125D02*
D03*
X122665D02*
D03*
X125205D02*
D03*
X127745D02*
D03*
X130285D02*
D03*
X132825D02*
D03*
X135365D02*
D03*
X137905D02*
D03*
X140445D02*
D03*
X142985D02*
D03*
X145525D02*
D03*
X148065D02*
D03*
X150605D02*
D03*
X153145D02*
D03*
X155685D02*
D03*
X116315Y67608D02*
D03*
X118855D02*
D03*
X121395D02*
D03*
X123935D02*
D03*
X126475D02*
D03*
X129015D02*
D03*
X131555D02*
D03*
X134095D02*
D03*
X136635D02*
D03*
X139175D02*
D03*
X141715D02*
D03*
X144255D02*
D03*
X146795D02*
D03*
X149335D02*
D03*
X151875D02*
D03*
X154415D02*
D03*
X115045Y69513D02*
D03*
X117585D02*
D03*
X120125D02*
D03*
X122665D02*
D03*
X125205D02*
D03*
X127745D02*
D03*
X130285D02*
D03*
X132825D02*
D03*
X135365D02*
D03*
X137905D02*
D03*
X140445D02*
D03*
X142985D02*
D03*
X145525D02*
D03*
X148065D02*
D03*
X150605D02*
D03*
X153145D02*
D03*
X155685D02*
D03*
D61*
X91050Y75103D02*
D03*
Y83503D02*
D03*
D62*
X78250Y75103D02*
D03*
Y79303D02*
D03*
X83750Y75103D02*
D03*
Y79303D02*
D03*
X78250Y83503D02*
D03*
D63*
X83750D02*
D03*
D64*
X53250Y16503D02*
D03*
D65*
X41275Y83185D02*
D03*
X38735D02*
D03*
X36195D02*
D03*
X33655D02*
D03*
X31115D02*
D03*
X28575D02*
D03*
X26035D02*
D03*
X23495D02*
D03*
X41275Y85725D02*
D03*
X38735D02*
D03*
X36195D02*
D03*
X33655D02*
D03*
X31115D02*
D03*
X28575D02*
D03*
X26035D02*
D03*
D66*
X23495D02*
D03*
D67*
X4327Y68696D02*
D03*
Y83196D02*
D03*
Y48715D02*
D03*
Y63215D02*
D03*
Y28733D02*
D03*
Y43233D02*
D03*
Y8752D02*
D03*
Y23252D02*
D03*
D68*
X10287Y68696D02*
D03*
Y83196D02*
D03*
Y48715D02*
D03*
Y63215D02*
D03*
Y28733D02*
D03*
Y43233D02*
D03*
Y8752D02*
D03*
Y23252D02*
D03*
D69*
X4318Y4191D02*
D03*
X54441Y83182D02*
D03*
D70*
X141492Y13742D02*
D03*
X140750Y13000D02*
D03*
X180900Y81750D02*
D03*
X179750Y81750D02*
D03*
X141500Y7750D02*
D03*
X120000D02*
D03*
X175750Y77250D02*
D03*
X174510Y75990D02*
D03*
X153250Y26500D02*
D03*
X136250Y26000D02*
D03*
X115750D02*
D03*
X114750Y27500D02*
D03*
X154750D02*
D03*
X135750Y27500D02*
D03*
X178250Y81750D02*
D03*
X179750Y76250D02*
D03*
X179000Y75000D02*
D03*
X178258Y70758D02*
D03*
X179000Y71500D02*
D03*
X135750Y20250D02*
D03*
X133750D02*
D03*
X126000Y7750D02*
D03*
X121500D02*
D03*
X123000D02*
D03*
X124500D02*
D03*
X150250Y13500D02*
D03*
X149250Y15250D02*
D03*
X146250Y15500D02*
D03*
X138750Y17500D02*
D03*
X143000Y7750D02*
D03*
X144500D02*
D03*
X146000D02*
D03*
X149000D02*
D03*
X147250Y15500D02*
D03*
X148250Y17000D02*
D03*
X147250Y18000D02*
D03*
X63750Y30503D02*
D03*
X54250Y44003D02*
D03*
X71250D02*
D03*
X88250Y24003D02*
D03*
X79250Y33003D02*
D03*
X78250Y27503D02*
D03*
X73250Y33003D02*
D03*
X70750Y30503D02*
D03*
X72250Y30003D02*
D03*
X88250Y49503D02*
D03*
X63750Y56003D02*
D03*
X71250Y69503D02*
D03*
X73250Y58503D02*
D03*
X79250D02*
D03*
X78250Y53003D02*
D03*
X72250Y55503D02*
D03*
X70750Y56003D02*
D03*
X115750Y22500D02*
D03*
X114750Y23500D02*
D03*
X119690Y23500D02*
D03*
X118750Y17500D02*
D03*
X129750Y23500D02*
D03*
X139750Y23500D02*
D03*
X149750Y23500D02*
D03*
X153750Y22500D02*
D03*
X133750D02*
D03*
X135750D02*
D03*
X140750Y19550D02*
D03*
X149750Y21500D02*
D03*
X139750D02*
D03*
X133750Y24500D02*
D03*
X119750Y21500D02*
D03*
X128750Y19500D02*
D03*
X129750Y21500D02*
D03*
X120750Y19550D02*
D03*
X115750Y24500D02*
D03*
X148750Y19500D02*
D03*
X135750Y24500D02*
D03*
X153750D02*
D03*
X54250Y69503D02*
D03*
X154750Y25500D02*
D03*
X150750Y17500D02*
D03*
X130750D02*
D03*
X133750Y26000D02*
D03*
X145492Y16758D02*
D03*
X144750Y17500D02*
D03*
X124750D02*
D03*
X128250Y17000D02*
D03*
X127250Y18000D02*
D03*
X128000Y13000D02*
D03*
X127250Y15500D02*
D03*
X125492Y16758D02*
D03*
X126250Y15500D02*
D03*
X131750Y13500D02*
D03*
X119992Y14242D02*
D03*
X119250Y13500D02*
D03*
X180900Y40250D02*
D03*
X179750Y40250D02*
D03*
X178250Y40250D02*
D03*
X179750Y34750D02*
D03*
X179000Y33500D02*
D03*
Y30000D02*
D03*
X178258Y29258D02*
D03*
X174510Y34490D02*
D03*
X175750Y35750D02*
D03*
D71*
X8763Y15748D02*
D03*
X8700Y12002D02*
D03*
X13335Y33528D02*
D03*
X8911Y31983D02*
D03*
X8763Y71247D02*
D03*
X13333Y53465D02*
D03*
X8763Y35687D02*
D03*
X8636Y55753D02*
D03*
Y75692D02*
D03*
X8509Y59944D02*
D03*
X8636Y51943D02*
D03*
X13018Y20002D02*
D03*
X8382Y20066D02*
D03*
X8509Y40005D02*
D03*
X13017Y79946D02*
D03*
X8128Y80010D02*
D03*
X13335Y40005D02*
D03*
Y59944D02*
D03*
X13041Y73446D02*
D03*
X13081Y13502D02*
D03*
D72*
X6096Y14097D02*
D03*
X7848Y12980D02*
D03*
X7747Y16637D02*
D03*
X6707Y74446D02*
D03*
X14478Y77216D02*
D03*
X7493Y73025D02*
D03*
X5588Y81153D02*
D03*
X16002Y41529D02*
D03*
X13462Y42291D02*
D03*
X15367Y55245D02*
D03*
X16383Y15367D02*
D03*
X6096Y17573D02*
D03*
X14605Y62738D02*
D03*
X16764D02*
D03*
X7874Y53213D02*
D03*
X15748Y52578D02*
D03*
X7747Y33147D02*
D03*
X15336Y35814D02*
D03*
X16256Y33020D02*
D03*
X34925Y22606D02*
D03*
X32004Y46228D02*
D03*
X33909Y49276D02*
D03*
X32893Y44577D02*
D03*
X31115D02*
D03*
X30226Y46228D02*
D03*
X25019Y44577D02*
D03*
X26797D02*
D03*
X34877Y66754D02*
D03*
X34869Y60254D02*
D03*
X30178Y60754D02*
D03*
X30059Y26583D02*
D03*
X27940Y24003D02*
D03*
Y28194D02*
D03*
X33179Y32385D02*
D03*
X21336Y26670D02*
D03*
Y24257D02*
D03*
X22352Y22860D02*
D03*
X21209Y21463D02*
D03*
X6731Y58420D02*
D03*
X7747Y57023D02*
D03*
X6731Y54483D02*
D03*
X6606Y38483D02*
D03*
X7620Y37211D02*
D03*
X6162Y34483D02*
D03*
X6771Y78446D02*
D03*
X8001Y77216D02*
D03*
X22352Y25527D02*
D03*
X22225Y27940D02*
D03*
X27686Y46228D02*
D03*
X25781D02*
D03*
X16129Y68199D02*
D03*
X14224Y20828D02*
D03*
X16256Y20955D02*
D03*
X16383Y77216D02*
D03*
X13716Y68199D02*
D03*
X34925Y20574D02*
D03*
X28448Y72512D02*
D03*
X28765Y16002D02*
D03*
X5715Y41529D02*
D03*
X29210Y34798D02*
D03*
X28768Y47757D02*
D03*
X21336Y18923D02*
D03*
X22225Y20320D02*
D03*
X33694Y69088D02*
D03*
X8001Y21463D02*
D03*
Y61595D02*
D03*
X16383Y11430D02*
D03*
M02*
