G04*
G04 #@! TF.GenerationSoftware,Altium Limited,Altium Designer,19.1.6 (110)*
G04*
G04 Layer_Color=128*
%FSLAX43Y43*%
%MOMM*%
G71*
G01*
G75*
%ADD19R,0.700X1.300*%
%ADD21R,0.700X0.540*%
%ADD32R,0.250X0.900*%
%ADD33R,4.100X4.100*%
%ADD34R,0.900X0.250*%
%ADD35R,0.540X0.700*%
%ADD76R,0.300X2.600*%
D19*
X186400Y24750D02*
D03*
X184500D02*
D03*
X180350Y66250D02*
D03*
X182250D02*
D03*
X184500D02*
D03*
X186400D02*
D03*
X182300Y24750D02*
D03*
X180400D02*
D03*
D21*
X130750Y19930D02*
D03*
Y19070D02*
D03*
X138750Y19930D02*
D03*
Y19070D02*
D03*
X151750Y24930D02*
D03*
Y24070D02*
D03*
X131750Y24930D02*
D03*
Y24070D02*
D03*
X118750Y19930D02*
D03*
Y19070D02*
D03*
X150750Y19930D02*
D03*
Y19070D02*
D03*
X151750Y27360D02*
D03*
Y26500D02*
D03*
X131750Y27430D02*
D03*
Y26570D02*
D03*
D32*
X147250Y20950D02*
D03*
X146750D02*
D03*
X145250D02*
D03*
X144750D02*
D03*
X144250D02*
D03*
X143750D02*
D03*
X142250D02*
D03*
Y28050D02*
D03*
X142750D02*
D03*
X143250D02*
D03*
X143750D02*
D03*
X144250D02*
D03*
X144750D02*
D03*
X145250D02*
D03*
X145750D02*
D03*
X146250D02*
D03*
X146750D02*
D03*
X147250D02*
D03*
X142750Y20950D02*
D03*
X143250D02*
D03*
X145750D02*
D03*
X146250D02*
D03*
X127250D02*
D03*
X126750D02*
D03*
X126250D02*
D03*
X125750D02*
D03*
X125250D02*
D03*
X124750D02*
D03*
X124250D02*
D03*
X123750D02*
D03*
X123250D02*
D03*
X122750D02*
D03*
X122250D02*
D03*
Y28050D02*
D03*
X122750D02*
D03*
X123250D02*
D03*
X123750D02*
D03*
X124250D02*
D03*
X124750D02*
D03*
X125250D02*
D03*
X125750D02*
D03*
X126250D02*
D03*
X126750D02*
D03*
X127250D02*
D03*
D33*
X144750Y24500D02*
D03*
X124750D02*
D03*
D34*
X148300Y25000D02*
D03*
Y25500D02*
D03*
Y26000D02*
D03*
Y26500D02*
D03*
Y24500D02*
D03*
Y24000D02*
D03*
Y23500D02*
D03*
Y23000D02*
D03*
Y22500D02*
D03*
Y27000D02*
D03*
Y22000D02*
D03*
X141200D02*
D03*
Y22500D02*
D03*
Y23000D02*
D03*
Y23500D02*
D03*
Y24000D02*
D03*
Y24500D02*
D03*
Y25000D02*
D03*
Y25500D02*
D03*
Y26000D02*
D03*
Y26500D02*
D03*
Y27000D02*
D03*
X128300Y25000D02*
D03*
Y25500D02*
D03*
Y26000D02*
D03*
Y26500D02*
D03*
Y24500D02*
D03*
Y24000D02*
D03*
Y23500D02*
D03*
Y23000D02*
D03*
Y22500D02*
D03*
Y27000D02*
D03*
Y22000D02*
D03*
X121200D02*
D03*
Y22500D02*
D03*
Y23000D02*
D03*
Y23500D02*
D03*
Y24000D02*
D03*
Y24500D02*
D03*
Y25000D02*
D03*
Y25500D02*
D03*
Y26000D02*
D03*
Y26500D02*
D03*
Y27000D02*
D03*
D35*
X124180Y18500D02*
D03*
X123320D02*
D03*
X137320Y21500D02*
D03*
X138180D02*
D03*
X137320Y23500D02*
D03*
X138180D02*
D03*
X117320D02*
D03*
X118180D02*
D03*
X117320Y21500D02*
D03*
X118180D02*
D03*
X143320Y18500D02*
D03*
X144180D02*
D03*
D76*
X122000Y10260D02*
D03*
X121000D02*
D03*
X145000D02*
D03*
X144500D02*
D03*
X142500D02*
D03*
X142000D02*
D03*
X128500D02*
D03*
X128000D02*
D03*
X127500D02*
D03*
X127000D02*
D03*
X126500D02*
D03*
X126000D02*
D03*
X125500D02*
D03*
X125000D02*
D03*
X124500D02*
D03*
X124000D02*
D03*
X123500D02*
D03*
X123000D02*
D03*
X122500D02*
D03*
X121500D02*
D03*
X120500D02*
D03*
X120000D02*
D03*
X119500D02*
D03*
X150000D02*
D03*
X149500D02*
D03*
X149000D02*
D03*
X148500D02*
D03*
X148000D02*
D03*
X147500D02*
D03*
X147000D02*
D03*
X146500D02*
D03*
X146000D02*
D03*
X145500D02*
D03*
X143000D02*
D03*
X141500D02*
D03*
X141000D02*
D03*
X143500D02*
D03*
X144000D02*
D03*
M02*
