G04*
G04 #@! TF.GenerationSoftware,Altium Limited,Altium Designer,19.1.6 (110)*
G04*
G04 Layer_Color=16711935*
%FSLAX43Y43*%
%MOMM*%
G71*
G01*
G75*
%ADD10C,0.200*%
%ADD12C,0.240*%
%ADD13C,0.150*%
%ADD15C,0.127*%
%ADD17C,0.076*%
%ADD78C,0.100*%
%ADD79C,0.012*%
%ADD80C,0.000*%
%ADD81C,0.025*%
D10*
X174300Y37950D02*
G03*
X174300Y37950I-100J0D01*
G01*
D02*
G03*
X174300Y37950I-100J0D01*
G01*
X95350Y16623D02*
G03*
X95350Y16623I-100J0D01*
G01*
D02*
G03*
X95350Y16623I-100J0D01*
G01*
X156420Y71155D02*
G03*
X156420Y71155I-100J0D01*
G01*
D02*
G03*
X156420Y71155I-100J0D01*
G01*
X113240Y75491D02*
G03*
X113240Y75491I-100J0D01*
G01*
D02*
G03*
X113240Y75491I-100J0D01*
G01*
Y83111D02*
G03*
X113240Y83111I-100J0D01*
G01*
D02*
G03*
X113240Y83111I-100J0D01*
G01*
Y79301D02*
G03*
X113240Y79301I-100J0D01*
G01*
D02*
G03*
X113240Y79301I-100J0D01*
G01*
Y86921D02*
G03*
X113240Y86921I-100J0D01*
G01*
D02*
G03*
X113240Y86921I-100J0D01*
G01*
X156420Y78775D02*
G03*
X156420Y78775I-100J0D01*
G01*
D02*
G03*
X156420Y78775I-100J0D01*
G01*
Y74965D02*
G03*
X156420Y74965I-100J0D01*
G01*
D02*
G03*
X156420Y74965I-100J0D01*
G01*
Y82585D02*
G03*
X156420Y82585I-100J0D01*
G01*
D02*
G03*
X156420Y82585I-100J0D01*
G01*
X95350Y42123D02*
G03*
X95350Y42123I-100J0D01*
G01*
D02*
G03*
X95350Y42123I-100J0D01*
G01*
X174300Y79450D02*
G03*
X174300Y79450I-100J0D01*
G01*
D02*
G03*
X174300Y79450I-100J0D01*
G01*
X23595Y87570D02*
G03*
X23595Y87570I-100J0D01*
G01*
D02*
G03*
X23595Y87570I-100J0D01*
G01*
D12*
X12357Y70696D02*
G03*
X12357Y70696I-120J0D01*
G01*
D02*
G03*
X12357Y70696I-120J0D01*
G01*
Y50715D02*
G03*
X12357Y50715I-120J0D01*
G01*
D02*
G03*
X12357Y50715I-120J0D01*
G01*
Y30733D02*
G03*
X12357Y30733I-120J0D01*
G01*
D02*
G03*
X12357Y30733I-120J0D01*
G01*
Y10752D02*
G03*
X12357Y10752I-120J0D01*
G01*
D02*
G03*
X12357Y10752I-120J0D01*
G01*
D13*
X6568Y4191D02*
G03*
X6568Y4191I-2250J0D01*
G01*
X56691Y83182D02*
G03*
X56691Y83182I-2250J0D01*
G01*
X64000Y15433D02*
X64500D01*
X64000Y16433D02*
X64500D01*
X64000Y15433D02*
Y16433D01*
X64500Y15433D02*
Y16433D01*
X75680Y26253D02*
Y26753D01*
X74680Y26253D02*
Y26753D01*
Y26253D02*
X75680D01*
X74680Y26753D02*
X75680D01*
X81000Y29073D02*
X81500D01*
X81000Y30073D02*
X81500D01*
X81000Y29073D02*
Y30073D01*
X81500Y29073D02*
Y30073D01*
X145250Y18250D02*
X146250D01*
X145250Y18750D02*
X146250D01*
Y18250D02*
Y18750D01*
X145250Y18250D02*
Y18750D01*
X125250Y18250D02*
X126250D01*
X125250Y18750D02*
X126250D01*
Y18250D02*
Y18750D01*
X125250Y18250D02*
Y18750D01*
X151250Y21250D02*
X152250D01*
X151250Y21750D02*
X152250D01*
Y21250D02*
Y21750D01*
X151250Y21250D02*
Y21750D01*
X131250Y21250D02*
X132250D01*
X131250Y21750D02*
X132250D01*
Y21250D02*
Y21750D01*
X131250Y21250D02*
Y21750D01*
X151000Y19000D02*
Y20000D01*
X150500Y19000D02*
Y20000D01*
X151000D01*
X150500Y19000D02*
X151000D01*
X131000D02*
Y20000D01*
X130500Y19000D02*
Y20000D01*
X131000D01*
X130500Y19000D02*
X131000D01*
X139000Y19000D02*
Y20000D01*
X138500Y19000D02*
Y20000D01*
X139000D01*
X138500Y19000D02*
X139000D01*
X119000D02*
Y20000D01*
X118500Y19000D02*
Y20000D01*
X119000D01*
X118500Y19000D02*
X119000D01*
X137500Y24000D02*
Y25000D01*
X138000Y24000D02*
Y25000D01*
X137500Y24000D02*
X138000D01*
X137500Y25000D02*
X138000D01*
X117500Y24000D02*
Y25000D01*
X118000Y24000D02*
Y25000D01*
X117500Y24000D02*
X118000D01*
X117500Y25000D02*
X118000D01*
X151250Y23250D02*
X152250D01*
X151250Y23750D02*
X152250D01*
Y23250D02*
Y23750D01*
X151250Y23250D02*
Y23750D01*
X131250Y23250D02*
X132250D01*
X131250Y23750D02*
X132250D01*
Y23250D02*
Y23750D01*
X131250Y23250D02*
Y23750D01*
X81000Y54573D02*
X81500D01*
X81000Y55573D02*
X81500D01*
X81000Y54573D02*
Y55573D01*
X81500Y54573D02*
Y55573D01*
X75680Y51753D02*
Y52253D01*
X74680Y51753D02*
Y52253D01*
Y51753D02*
X75680D01*
X74680Y52253D02*
X75680D01*
X137500Y27000D02*
X138000D01*
X137500Y26000D02*
X138000D01*
Y27000D01*
X137500Y26000D02*
Y27000D01*
X117500D02*
X118000D01*
X117500Y26000D02*
X118000D01*
Y27000D01*
X117500Y26000D02*
Y27000D01*
X106500Y73253D02*
Y74253D01*
X107000Y73253D02*
Y74253D01*
X106500Y73253D02*
X107000D01*
X106500Y74253D02*
X107000D01*
X162500Y73253D02*
Y74253D01*
X163000Y73253D02*
Y74253D01*
X162500Y73253D02*
X163000D01*
X162500Y74253D02*
X163000D01*
D15*
X184100Y38450D02*
Y45950D01*
X172900D02*
X184100D01*
X172900Y38450D02*
Y45950D01*
Y38450D02*
X184100D01*
Y45950D01*
X172900D02*
X184100D01*
X172900Y38450D02*
Y45950D01*
Y38450D02*
X184100D01*
X76200Y20783D02*
X96520D01*
X76200Y17223D02*
Y20783D01*
Y17223D02*
X96520D01*
Y20783D01*
X76200D02*
X96520D01*
X76200Y17223D02*
Y20783D01*
Y17223D02*
X96520D01*
Y20783D01*
X157437Y72155D02*
Y74491D01*
X134883Y72155D02*
X157437D01*
X134883D02*
Y74491D01*
X157437D01*
Y72155D02*
Y74491D01*
X134883Y72155D02*
X157437D01*
X134883D02*
Y74491D01*
X157437D01*
X112023Y72155D02*
Y74491D01*
X134577D01*
Y72155D02*
Y74491D01*
X112023Y72155D02*
X134577D01*
X112023D02*
Y74491D01*
X134577D01*
Y72155D02*
Y74491D01*
X112023Y72155D02*
X134577D01*
X112023Y79775D02*
Y82111D01*
X134577D01*
Y79775D02*
Y82111D01*
X112023Y79775D02*
X134577D01*
X112023D02*
Y82111D01*
X134577D01*
Y79775D02*
Y82111D01*
X112023Y79775D02*
X134577D01*
X112023Y75965D02*
Y78301D01*
X134577D01*
Y75965D02*
Y78301D01*
X112023Y75965D02*
X134577D01*
X112023D02*
Y78301D01*
X134577D01*
Y75965D02*
Y78301D01*
X112023Y75965D02*
X134577D01*
X112023Y83585D02*
Y85921D01*
X134577D01*
Y83585D02*
Y85921D01*
X112023Y83585D02*
X134577D01*
X112023D02*
Y85921D01*
X134577D01*
Y83585D02*
Y85921D01*
X112023Y83585D02*
X134577D01*
X157437Y79775D02*
Y82111D01*
X134883Y79775D02*
X157437D01*
X134883D02*
Y82111D01*
X157437D01*
Y79775D02*
Y82111D01*
X134883Y79775D02*
X157437D01*
X134883D02*
Y82111D01*
X157437D01*
Y75965D02*
Y78301D01*
X134883Y75965D02*
X157437D01*
X134883D02*
Y78301D01*
X157437D01*
Y75965D02*
Y78301D01*
X134883Y75965D02*
X157437D01*
X134883D02*
Y78301D01*
X157437D01*
Y83585D02*
Y85921D01*
X134883Y83585D02*
X157437D01*
X134883D02*
Y85921D01*
X157437D01*
Y83585D02*
Y85921D01*
X134883Y83585D02*
X157437D01*
X134883D02*
Y85921D01*
X157437D01*
X76200Y46283D02*
X96520D01*
X76200Y42723D02*
Y46283D01*
Y42723D02*
X96520D01*
Y46283D01*
X76200D02*
X96520D01*
X76200Y42723D02*
Y46283D01*
Y42723D02*
X96520D01*
Y46283D01*
X172900Y79950D02*
X184100D01*
X172900D02*
Y87450D01*
X184100Y79950D02*
Y87450D01*
X172900Y79950D02*
X184100D01*
X172900D02*
Y87450D01*
X184100D01*
Y79950D02*
Y87450D01*
X22225Y81940D02*
X42545D01*
Y86970D01*
X22225D02*
X42545D01*
X22225Y81940D02*
Y86970D01*
Y81940D02*
X42545D01*
Y86970D01*
X22225D02*
X42545D01*
X22225Y81940D02*
Y86970D01*
X237Y83446D02*
X11787D01*
X237Y68446D02*
Y83446D01*
Y68446D02*
X11787D01*
Y83446D01*
X237D02*
X11787D01*
X237Y68446D02*
Y83446D01*
Y68446D02*
X11787D01*
Y83446D01*
X237Y63465D02*
X11787D01*
X237Y48465D02*
Y63465D01*
Y48465D02*
X11787D01*
Y63465D01*
X237D02*
X11787D01*
X237Y48465D02*
Y63465D01*
Y48465D02*
X11787D01*
Y63465D01*
X237Y43483D02*
X11787D01*
X237Y28483D02*
Y43483D01*
Y28483D02*
X11787D01*
Y43483D01*
X237D02*
X11787D01*
X237Y28483D02*
Y43483D01*
Y28483D02*
X11787D01*
Y43483D01*
X237Y23502D02*
X11787D01*
X237Y8502D02*
Y23502D01*
Y8502D02*
X11787D01*
Y23502D01*
X237D02*
X11787D01*
X237Y8502D02*
Y23502D01*
Y8502D02*
X11787D01*
Y23502D01*
X172900Y87450D02*
X184100D01*
D17*
X27073Y26710D02*
Y25652D01*
X27284Y25440D01*
X27708D01*
X27919Y25652D01*
Y26710D01*
X28342Y26498D02*
X28554Y26710D01*
X28977D01*
X29189Y26498D01*
Y26286D01*
X28977Y26075D01*
X28766D01*
X28977D01*
X29189Y25863D01*
Y25652D01*
X28977Y25440D01*
X28554D01*
X28342Y25652D01*
X32931Y51044D02*
X32085Y51890D01*
X32931D02*
X32085Y51044D01*
X32931Y51467D02*
X32085D01*
X32508Y51890D02*
Y51044D01*
D78*
X28077Y30583D02*
G03*
X28077Y30583I-500J0D01*
G01*
X26677Y21683D02*
Y31483D01*
X31177Y21683D02*
Y31483D01*
X26677D02*
X31177D01*
X26677Y21683D02*
X31177D01*
D79*
X64183Y15586D02*
X64170Y15573D01*
Y15546D01*
X64183Y15533D01*
X64237D01*
X64250Y15546D01*
Y15573D01*
X64237Y15586D01*
X64250Y15613D02*
Y15640D01*
Y15626D01*
X64170D01*
X64183Y15613D01*
Y15680D02*
X64170Y15693D01*
Y15720D01*
X64183Y15733D01*
X64197D01*
X64210Y15720D01*
Y15706D01*
Y15720D01*
X64223Y15733D01*
X64237D01*
X64250Y15720D01*
Y15693D01*
X64237Y15680D01*
X75527Y26436D02*
X75540Y26423D01*
X75567D01*
X75580Y26436D01*
Y26490D01*
X75567Y26503D01*
X75540D01*
X75527Y26490D01*
X75447Y26423D02*
X75473Y26436D01*
X75500Y26463D01*
Y26490D01*
X75487Y26503D01*
X75460D01*
X75447Y26490D01*
Y26476D01*
X75460Y26463D01*
X75500D01*
X75420Y26516D02*
X75367D01*
X75287Y26436D02*
X75300Y26423D01*
X75327D01*
X75340Y26436D01*
Y26450D01*
X75327Y26463D01*
X75300D01*
X75287Y26476D01*
Y26490D01*
X75300Y26503D01*
X75327D01*
X75340Y26490D01*
X75207Y26503D02*
X75260D01*
X75207Y26450D01*
Y26436D01*
X75220Y26423D01*
X75247D01*
X75260Y26436D01*
X81183Y29226D02*
X81170Y29213D01*
Y29186D01*
X81183Y29173D01*
X81237D01*
X81250Y29186D01*
Y29213D01*
X81237Y29226D01*
Y29253D02*
X81250Y29266D01*
Y29293D01*
X81237Y29306D01*
X81183D01*
X81170Y29293D01*
Y29266D01*
X81183Y29253D01*
X81197D01*
X81210Y29266D01*
Y29306D01*
X81263Y29333D02*
Y29386D01*
X81183Y29466D02*
X81170Y29453D01*
Y29426D01*
X81183Y29413D01*
X81197D01*
X81210Y29426D01*
Y29453D01*
X81223Y29466D01*
X81237D01*
X81250Y29453D01*
Y29426D01*
X81237Y29413D01*
X81250Y29546D02*
Y29493D01*
X81197Y29546D01*
X81183D01*
X81170Y29533D01*
Y29506D01*
X81183Y29493D01*
X145350Y18500D02*
Y18580D01*
X145390D01*
X145403Y18567D01*
Y18540D01*
X145390Y18527D01*
X145350D01*
X145377D02*
X145403Y18500D01*
X145430Y18567D02*
X145443Y18580D01*
X145470D01*
X145483Y18567D01*
Y18553D01*
X145470Y18540D01*
X145457D01*
X145470D01*
X145483Y18527D01*
Y18513D01*
X145470Y18500D01*
X145443D01*
X145430Y18513D01*
X125350Y18500D02*
Y18580D01*
X125390D01*
X125403Y18567D01*
Y18540D01*
X125390Y18527D01*
X125350D01*
X125377D02*
X125403Y18500D01*
X125483Y18580D02*
X125430D01*
Y18540D01*
X125457Y18553D01*
X125470D01*
X125483Y18540D01*
Y18513D01*
X125470Y18500D01*
X125443D01*
X125430Y18513D01*
X151403Y21567D02*
X151390Y21580D01*
X151363D01*
X151350Y21567D01*
Y21513D01*
X151363Y21500D01*
X151390D01*
X151403Y21513D01*
X151430Y21500D02*
X151457D01*
X151443D01*
Y21580D01*
X151430Y21567D01*
X151497Y21487D02*
X151550D01*
X151577Y21500D02*
Y21553D01*
X151603Y21580D01*
X151630Y21553D01*
Y21500D01*
Y21540D01*
X151577D01*
X151657Y21500D02*
X151683D01*
X151670D01*
Y21580D01*
X151657Y21567D01*
X131403D02*
X131390Y21580D01*
X131363D01*
X131350Y21567D01*
Y21513D01*
X131363Y21500D01*
X131390D01*
X131403Y21513D01*
X131430Y21500D02*
X131457D01*
X131443D01*
Y21580D01*
X131430Y21567D01*
X131497Y21487D02*
X131550D01*
X131577Y21500D02*
Y21553D01*
X131603Y21580D01*
X131630Y21553D01*
Y21500D01*
Y21540D01*
X131577D01*
X131710Y21500D02*
X131657D01*
X131710Y21553D01*
Y21567D01*
X131697Y21580D01*
X131670D01*
X131657Y21567D01*
X150683Y19153D02*
X150670Y19140D01*
Y19113D01*
X150683Y19100D01*
X150737D01*
X150750Y19113D01*
Y19140D01*
X150737Y19153D01*
X150750Y19233D02*
Y19180D01*
X150697Y19233D01*
X150683D01*
X150670Y19220D01*
Y19193D01*
X150683Y19180D01*
X150763Y19260D02*
Y19313D01*
X150750Y19340D02*
X150697D01*
X150670Y19367D01*
X150697Y19393D01*
X150750D01*
X150710D01*
Y19340D01*
X150750Y19420D02*
Y19447D01*
Y19433D01*
X150670D01*
X150683Y19420D01*
X130683Y19153D02*
X130670Y19140D01*
Y19113D01*
X130683Y19100D01*
X130737D01*
X130750Y19113D01*
Y19140D01*
X130737Y19153D01*
X130750Y19233D02*
Y19180D01*
X130697Y19233D01*
X130683D01*
X130670Y19220D01*
Y19193D01*
X130683Y19180D01*
X130763Y19260D02*
Y19313D01*
X130750Y19340D02*
X130697D01*
X130670Y19367D01*
X130697Y19393D01*
X130750D01*
X130710D01*
Y19340D01*
X130750Y19473D02*
Y19420D01*
X130697Y19473D01*
X130683D01*
X130670Y19460D01*
Y19433D01*
X130683Y19420D01*
X138683Y19153D02*
X138670Y19140D01*
Y19113D01*
X138683Y19100D01*
X138737D01*
X138750Y19113D01*
Y19140D01*
X138737Y19153D01*
X138683Y19180D02*
X138670Y19193D01*
Y19220D01*
X138683Y19233D01*
X138697D01*
X138710Y19220D01*
Y19207D01*
Y19220D01*
X138723Y19233D01*
X138737D01*
X138750Y19220D01*
Y19193D01*
X138737Y19180D01*
X138763Y19260D02*
Y19313D01*
X138750Y19340D02*
X138697D01*
X138670Y19367D01*
X138697Y19393D01*
X138750D01*
X138710D01*
Y19340D01*
X138750Y19420D02*
Y19447D01*
Y19433D01*
X138670D01*
X138683Y19420D01*
X118683Y19153D02*
X118670Y19140D01*
Y19113D01*
X118683Y19100D01*
X118737D01*
X118750Y19113D01*
Y19140D01*
X118737Y19153D01*
X118683Y19180D02*
X118670Y19193D01*
Y19220D01*
X118683Y19233D01*
X118697D01*
X118710Y19220D01*
Y19207D01*
Y19220D01*
X118723Y19233D01*
X118737D01*
X118750Y19220D01*
Y19193D01*
X118737Y19180D01*
X118763Y19260D02*
Y19313D01*
X118750Y19340D02*
X118697D01*
X118670Y19367D01*
X118697Y19393D01*
X118750D01*
X118710D01*
Y19340D01*
X118750Y19473D02*
Y19420D01*
X118697Y19473D01*
X118683D01*
X118670Y19460D01*
Y19433D01*
X118683Y19420D01*
X137817Y24847D02*
X137830Y24860D01*
Y24887D01*
X137817Y24900D01*
X137763D01*
X137750Y24887D01*
Y24860D01*
X137763Y24847D01*
X137750Y24780D02*
X137830D01*
X137790Y24820D01*
Y24767D01*
X137737Y24740D02*
Y24687D01*
X137750Y24660D02*
X137803D01*
X137830Y24633D01*
X137803Y24607D01*
X137750D01*
X137790D01*
Y24660D01*
X137750Y24580D02*
Y24553D01*
Y24567D01*
X137830D01*
X137817Y24580D01*
X117817Y24847D02*
X117830Y24860D01*
Y24887D01*
X117817Y24900D01*
X117763D01*
X117750Y24887D01*
Y24860D01*
X117763Y24847D01*
X117750Y24780D02*
X117830D01*
X117790Y24820D01*
Y24767D01*
X117737Y24740D02*
Y24687D01*
X117750Y24660D02*
X117803D01*
X117830Y24633D01*
X117803Y24607D01*
X117750D01*
X117790D01*
Y24660D01*
X117750Y24527D02*
Y24580D01*
X117803Y24527D01*
X117817D01*
X117830Y24540D01*
Y24567D01*
X117817Y24580D01*
X151350Y23500D02*
Y23580D01*
X151390D01*
X151403Y23567D01*
Y23540D01*
X151390Y23527D01*
X151350D01*
X151377D02*
X151403Y23500D01*
X151430Y23580D02*
X151483D01*
Y23567D01*
X151430Y23513D01*
Y23500D01*
X151510Y23487D02*
X151563D01*
X151590Y23500D02*
Y23553D01*
X151617Y23580D01*
X151643Y23553D01*
Y23500D01*
Y23540D01*
X151590D01*
X151670Y23500D02*
X151697D01*
X151683D01*
Y23580D01*
X151670Y23567D01*
X131350Y23500D02*
Y23580D01*
X131390D01*
X131403Y23567D01*
Y23540D01*
X131390Y23527D01*
X131350D01*
X131377D02*
X131403Y23500D01*
X131430Y23580D02*
X131483D01*
Y23567D01*
X131430Y23513D01*
Y23500D01*
X131510Y23487D02*
X131563D01*
X131590Y23500D02*
Y23553D01*
X131617Y23580D01*
X131643Y23553D01*
Y23500D01*
Y23540D01*
X131590D01*
X131723Y23500D02*
X131670D01*
X131723Y23553D01*
Y23567D01*
X131710Y23580D01*
X131683D01*
X131670Y23567D01*
X81183Y54726D02*
X81170Y54713D01*
Y54686D01*
X81183Y54673D01*
X81237D01*
X81250Y54686D01*
Y54713D01*
X81237Y54726D01*
Y54753D02*
X81250Y54766D01*
Y54793D01*
X81237Y54806D01*
X81183D01*
X81170Y54793D01*
Y54766D01*
X81183Y54753D01*
X81197D01*
X81210Y54766D01*
Y54806D01*
X81263Y54833D02*
Y54886D01*
X81183Y54966D02*
X81170Y54953D01*
Y54926D01*
X81183Y54913D01*
X81197D01*
X81210Y54926D01*
Y54953D01*
X81223Y54966D01*
X81237D01*
X81250Y54953D01*
Y54926D01*
X81237Y54913D01*
X81250Y54993D02*
Y55020D01*
Y55006D01*
X81170D01*
X81183Y54993D01*
X75527Y51936D02*
X75540Y51923D01*
X75567D01*
X75580Y51936D01*
Y51990D01*
X75567Y52003D01*
X75540D01*
X75527Y51990D01*
X75447Y51923D02*
X75473Y51936D01*
X75500Y51963D01*
Y51990D01*
X75487Y52003D01*
X75460D01*
X75447Y51990D01*
Y51976D01*
X75460Y51963D01*
X75500D01*
X75420Y52016D02*
X75367D01*
X75287Y51936D02*
X75300Y51923D01*
X75327D01*
X75340Y51936D01*
Y51950D01*
X75327Y51963D01*
X75300D01*
X75287Y51976D01*
Y51990D01*
X75300Y52003D01*
X75327D01*
X75340Y51990D01*
X75260Y52003D02*
X75233D01*
X75247D01*
Y51923D01*
X75260Y51936D01*
X137750Y26900D02*
X137830D01*
Y26860D01*
X137817Y26847D01*
X137790D01*
X137777Y26860D01*
Y26900D01*
Y26873D02*
X137750Y26847D01*
Y26767D02*
Y26820D01*
X137803Y26767D01*
X137817D01*
X137830Y26780D01*
Y26807D01*
X137817Y26820D01*
Y26740D02*
X137830Y26727D01*
Y26700D01*
X137817Y26687D01*
X137763D01*
X137750Y26700D01*
Y26727D01*
X137763Y26740D01*
X137817D01*
X137737Y26660D02*
Y26607D01*
X137750Y26580D02*
X137803D01*
X137830Y26553D01*
X137803Y26527D01*
X137750D01*
X137790D01*
Y26580D01*
X137750Y26500D02*
Y26473D01*
Y26487D01*
X137830D01*
X137817Y26500D01*
X117750Y26900D02*
X117830D01*
Y26860D01*
X117817Y26847D01*
X117790D01*
X117777Y26860D01*
Y26900D01*
Y26873D02*
X117750Y26847D01*
Y26767D02*
Y26820D01*
X117803Y26767D01*
X117817D01*
X117830Y26780D01*
Y26807D01*
X117817Y26820D01*
Y26740D02*
X117830Y26727D01*
Y26700D01*
X117817Y26687D01*
X117763D01*
X117750Y26700D01*
Y26727D01*
X117763Y26740D01*
X117817D01*
X117737Y26660D02*
Y26607D01*
X117750Y26580D02*
X117803D01*
X117830Y26553D01*
X117803Y26527D01*
X117750D01*
X117790D01*
Y26580D01*
X117750Y26460D02*
X117830D01*
X117790Y26500D01*
Y26447D01*
X106750Y74153D02*
X106830D01*
Y74113D01*
X106817Y74100D01*
X106790D01*
X106777Y74113D01*
Y74153D01*
Y74126D02*
X106750Y74100D01*
Y74020D02*
Y74073D01*
X106803Y74020D01*
X106817D01*
X106830Y74033D01*
Y74060D01*
X106817Y74073D01*
X106830Y73940D02*
X106817Y73966D01*
X106790Y73993D01*
X106763D01*
X106750Y73980D01*
Y73953D01*
X106763Y73940D01*
X106777D01*
X106790Y73953D01*
Y73993D01*
X162750Y74153D02*
X162830D01*
Y74113D01*
X162817Y74100D01*
X162790D01*
X162777Y74113D01*
Y74153D01*
Y74126D02*
X162750Y74100D01*
Y74020D02*
Y74073D01*
X162803Y74020D01*
X162817D01*
X162830Y74033D01*
Y74060D01*
X162817Y74073D01*
X162830Y73940D02*
Y73993D01*
X162790D01*
X162803Y73966D01*
Y73953D01*
X162790Y73940D01*
X162763D01*
X162750Y73953D01*
Y73980D01*
X162763Y73993D01*
D80*
X76555Y28953D02*
G03*
X75945Y28953I-305J0D01*
G01*
X76555Y54453D02*
G03*
X75945Y54453I-305J0D01*
G01*
X28994Y51457D02*
G03*
X28385Y51457I-305J0D01*
G01*
D81*
X55846Y25209D02*
X57548Y23508D01*
X60952D02*
X62654Y25209D01*
Y23508D02*
Y30315D01*
X55846D02*
X62654D01*
X55846Y23508D02*
Y30315D01*
Y23508D02*
X62654D01*
X88952Y41065D02*
X90654Y39363D01*
X83846D02*
X85548Y41065D01*
X83846Y34258D02*
Y41065D01*
Y34258D02*
X90654D01*
Y41065D01*
X83846D02*
X90654D01*
X74700Y33053D02*
X77800D01*
X74700Y28953D02*
Y33053D01*
Y28953D02*
X77800D01*
Y33053D01*
X74700Y58553D02*
X77800D01*
X74700Y54453D02*
Y58553D01*
Y54453D02*
X77800D01*
Y58553D01*
X88952Y66565D02*
X90654Y64863D01*
X83846D02*
X85548Y66565D01*
X83846Y59758D02*
Y66565D01*
Y59758D02*
X90654D01*
Y66565D01*
X83846D02*
X90654D01*
X55846Y50709D02*
X57548Y49008D01*
X60952D02*
X62654Y50709D01*
Y49008D02*
Y55815D01*
X55846D02*
X62654D01*
X55846Y49008D02*
Y55815D01*
Y49008D02*
X62654D01*
X31788Y51457D02*
Y68551D01*
X25590Y51457D02*
X31788D01*
X25590D02*
Y68551D01*
X31788D01*
X24536Y52114D02*
X25590D01*
X24536D02*
Y52394D01*
X25590D01*
Y52114D02*
Y52394D01*
X24536Y52614D02*
X25590D01*
X24536D02*
Y52894D01*
X25590D01*
Y52614D02*
Y52894D01*
X24536Y53114D02*
X25590D01*
X24536D02*
Y53394D01*
X25590D01*
Y53114D02*
Y53394D01*
X24536Y53614D02*
X25590D01*
X24536D02*
Y53894D01*
X25590D01*
Y53614D02*
Y53894D01*
X24536Y54114D02*
X25590D01*
X24536D02*
Y54394D01*
X25590D01*
Y54114D02*
Y54394D01*
X24536Y54614D02*
X25590D01*
X24536D02*
Y54894D01*
X25590D01*
Y54614D02*
Y54894D01*
X24536Y55114D02*
X25590D01*
X24536D02*
Y55394D01*
X25590D01*
Y55114D02*
Y55394D01*
X24536Y55614D02*
X25590D01*
X24536D02*
Y55894D01*
X25590D01*
Y55614D02*
Y55894D01*
X24536Y56114D02*
X25590D01*
X24536D02*
Y56394D01*
X25590D01*
Y56114D02*
Y56394D01*
X24536Y56614D02*
X25590D01*
X24536D02*
Y56894D01*
X25590D01*
Y56614D02*
Y56894D01*
X24536Y57114D02*
X25590D01*
X24536D02*
Y57394D01*
X25590D01*
Y57114D02*
Y57394D01*
X24536Y57614D02*
X25590D01*
X24536D02*
Y57894D01*
X25590D01*
Y57614D02*
Y57894D01*
X24536Y58114D02*
X25590D01*
X24536D02*
Y58394D01*
X25590D01*
Y58114D02*
Y58394D01*
X24536Y58614D02*
X25590D01*
X24536D02*
Y58894D01*
X25590D01*
Y58614D02*
Y58894D01*
X24536Y59114D02*
X25590D01*
X24536D02*
Y59394D01*
X25590D01*
Y59114D02*
Y59394D01*
X24536Y59614D02*
X25590D01*
X24536D02*
Y59894D01*
X25590D01*
Y59614D02*
Y59894D01*
X24536Y60114D02*
X25590D01*
X24536D02*
Y60394D01*
X25590D01*
Y60114D02*
Y60394D01*
X24536Y60614D02*
X25590D01*
X24536D02*
Y60894D01*
X25590D01*
Y60614D02*
Y60894D01*
X24536Y61114D02*
X25590D01*
X24536D02*
Y61394D01*
X25590D01*
Y61114D02*
Y61394D01*
X24536Y61614D02*
X25590D01*
X24536D02*
Y61894D01*
X25590D01*
Y61614D02*
Y61894D01*
X24536Y62114D02*
X25590D01*
X24536D02*
Y62394D01*
X25590D01*
Y62114D02*
Y62394D01*
X24536Y62614D02*
X25590D01*
X24536D02*
Y62894D01*
X25590D01*
Y62614D02*
Y62894D01*
X24536Y63114D02*
X25590D01*
X24536D02*
Y63394D01*
X25590D01*
Y63114D02*
Y63394D01*
X24536Y63614D02*
X25590D01*
X24536D02*
Y63894D01*
X25590D01*
Y63614D02*
Y63894D01*
X24536Y64114D02*
X25590D01*
X24536D02*
Y64394D01*
X25590D01*
Y64114D02*
Y64394D01*
X24536Y64614D02*
X25590D01*
X24536D02*
Y64894D01*
X25590D01*
Y64614D02*
Y64894D01*
X24536Y65114D02*
X25590D01*
X24536D02*
Y65394D01*
X25590D01*
Y65114D02*
Y65394D01*
X24536Y65614D02*
X25590D01*
X24536D02*
Y65894D01*
X25590D01*
Y65614D02*
Y65894D01*
X24536Y66114D02*
X25590D01*
X24536D02*
Y66394D01*
X25590D01*
Y66114D02*
Y66394D01*
X24536Y66614D02*
X25590D01*
X24536D02*
Y66894D01*
X25590D01*
Y66614D02*
Y66894D01*
X24536Y67114D02*
X25590D01*
X24536D02*
Y67394D01*
X25590D01*
Y67114D02*
Y67394D01*
X24536Y67614D02*
X25590D01*
X24536D02*
Y67894D01*
X25590D01*
Y67614D02*
Y67894D01*
X31788D02*
X32842D01*
Y67614D02*
Y67894D01*
X31788Y67614D02*
X32842D01*
X31788D02*
Y67894D01*
Y67394D02*
X32842D01*
Y67114D02*
Y67394D01*
X31788Y67114D02*
X32842D01*
X31788D02*
Y67394D01*
Y66894D02*
X32842D01*
Y66614D02*
Y66894D01*
X31788Y66614D02*
X32842D01*
X31788D02*
Y66894D01*
Y66394D02*
X32842D01*
Y66114D02*
Y66394D01*
X31788Y66114D02*
X32842D01*
X31788D02*
Y66394D01*
Y65894D02*
X32842D01*
Y65614D02*
Y65894D01*
X31788Y65614D02*
X32842D01*
X31788D02*
Y65894D01*
Y65394D02*
X32842D01*
Y65114D02*
Y65394D01*
X31788Y65114D02*
X32842D01*
X31788D02*
Y65394D01*
Y64894D02*
X32842D01*
Y64614D02*
Y64894D01*
X31788Y64614D02*
X32842D01*
X31788D02*
Y64894D01*
Y64394D02*
X32842D01*
Y64114D02*
Y64394D01*
X31788Y64114D02*
X32842D01*
X31788D02*
Y64394D01*
Y63894D02*
X32842D01*
Y63614D02*
Y63894D01*
X31788Y63614D02*
X32842D01*
X31788D02*
Y63894D01*
Y63394D02*
X32842D01*
Y63114D02*
Y63394D01*
X31788Y63114D02*
X32842D01*
X31788D02*
Y63394D01*
Y62894D02*
X32842D01*
Y62614D02*
Y62894D01*
X31788Y62614D02*
X32842D01*
X31788D02*
Y62894D01*
Y62394D02*
X32842D01*
Y62114D02*
Y62394D01*
X31788Y62114D02*
X32842D01*
X31788D02*
Y62394D01*
Y61894D02*
X32842D01*
Y61614D02*
Y61894D01*
X31788Y61614D02*
X32842D01*
X31788D02*
Y61894D01*
Y61394D02*
X32842D01*
Y61114D02*
Y61394D01*
X31788Y61114D02*
X32842D01*
X31788D02*
Y61394D01*
Y60894D02*
X32842D01*
Y60614D02*
Y60894D01*
X31788Y60614D02*
X32842D01*
X31788D02*
Y60894D01*
Y60394D02*
X32842D01*
Y60114D02*
Y60394D01*
X31788Y60114D02*
X32842D01*
X31788D02*
Y60394D01*
Y59894D02*
X32842D01*
Y59614D02*
Y59894D01*
X31788Y59614D02*
X32842D01*
X31788D02*
Y59894D01*
Y59394D02*
X32842D01*
Y59114D02*
Y59394D01*
X31788Y59114D02*
X32842D01*
X31788D02*
Y59394D01*
Y58894D02*
X32842D01*
Y58614D02*
Y58894D01*
X31788Y58614D02*
X32842D01*
X31788D02*
Y58894D01*
Y58394D02*
X32842D01*
Y58114D02*
Y58394D01*
X31788Y58114D02*
X32842D01*
X31788D02*
Y58394D01*
Y57894D02*
X32842D01*
Y57614D02*
Y57894D01*
X31788Y57614D02*
X32842D01*
X31788D02*
Y57894D01*
Y57394D02*
X32842D01*
Y57114D02*
Y57394D01*
X31788Y57114D02*
X32842D01*
X31788D02*
Y57394D01*
Y56894D02*
X32842D01*
Y56614D02*
Y56894D01*
X31788Y56614D02*
X32842D01*
X31788D02*
Y56894D01*
Y56394D02*
X32842D01*
Y56114D02*
Y56394D01*
X31788Y56114D02*
X32842D01*
X31788D02*
Y56394D01*
Y55894D02*
X32842D01*
Y55614D02*
Y55894D01*
X31788Y55614D02*
X32842D01*
X31788D02*
Y55894D01*
Y55394D02*
X32842D01*
Y55114D02*
Y55394D01*
X31788Y55114D02*
X32842D01*
X31788D02*
Y55394D01*
Y54894D02*
X32842D01*
Y54614D02*
Y54894D01*
X31788Y54614D02*
X32842D01*
X31788D02*
Y54894D01*
Y54394D02*
X32842D01*
Y54114D02*
Y54394D01*
X31788Y54114D02*
X32842D01*
X31788D02*
Y54394D01*
Y53894D02*
X32842D01*
Y53614D02*
Y53894D01*
X31788Y53614D02*
X32842D01*
X31788D02*
Y53894D01*
Y53394D02*
X32842D01*
Y53114D02*
Y53394D01*
X31788Y53114D02*
X32842D01*
X31788D02*
Y53394D01*
Y52894D02*
X32842D01*
Y52614D02*
Y52894D01*
X31788Y52614D02*
X32842D01*
X31788D02*
Y52894D01*
Y52394D02*
X32842D01*
Y52114D02*
Y52394D01*
X31788Y52114D02*
X32842D01*
X31788D02*
Y52394D01*
M02*
