G04*
G04 #@! TF.GenerationSoftware,Altium Limited,Altium Designer,19.1.6 (110)*
G04*
G04 Layer_Color=8388736*
%FSLAX43Y43*%
%MOMM*%
G71*
G01*
G75*
%ADD12C,0.240*%
%ADD13C,0.150*%
%ADD14C,0.152*%
%ADD15C,0.127*%
%ADD79C,0.012*%
D12*
X118870Y11450D02*
G03*
X118870Y11450I-120J0D01*
G01*
D02*
G03*
X118870Y11450I-120J0D01*
G01*
X140370D02*
G03*
X140370Y11450I-120J0D01*
G01*
D02*
G03*
X140370Y11450I-120J0D01*
G01*
D13*
X130500Y19000D02*
Y20000D01*
X131000Y19000D02*
Y20000D01*
X130500D02*
X131000D01*
X130500Y19000D02*
X131000D01*
X124250Y18250D02*
Y18750D01*
X123250Y18250D02*
Y18750D01*
X124250D01*
X123250Y18250D02*
X124250D01*
X137250Y21250D02*
X138250D01*
X137250Y21750D02*
X138250D01*
X137250Y21250D02*
Y21750D01*
X138250Y21250D02*
Y21750D01*
X138500Y19000D02*
Y20000D01*
X139000Y19000D02*
Y20000D01*
X138500D02*
X139000D01*
X138500Y19000D02*
X139000D01*
X151500Y24000D02*
Y25000D01*
X152000Y24000D02*
Y25000D01*
X151500D02*
X152000D01*
X151500Y24000D02*
X152000D01*
X137250Y23250D02*
X138250D01*
X137250Y23750D02*
X138250D01*
X137250Y23250D02*
Y23750D01*
X138250Y23250D02*
Y23750D01*
X117250Y23250D02*
X118250D01*
X117250Y23750D02*
X118250D01*
X117250Y23250D02*
Y23750D01*
X118250Y23250D02*
Y23750D01*
X117250Y21250D02*
X118250D01*
X117250Y21750D02*
X118250D01*
X117250Y21250D02*
Y21750D01*
X118250Y21250D02*
Y21750D01*
X131500Y24000D02*
Y25000D01*
X132000Y24000D02*
Y25000D01*
X131500D02*
X132000D01*
X131500Y24000D02*
X132000D01*
X118500Y19000D02*
Y20000D01*
X119000Y19000D02*
Y20000D01*
X118500D02*
X119000D01*
X118500Y19000D02*
X119000D01*
X143250Y18250D02*
X144250D01*
X143250Y18750D02*
X144250D01*
X143250Y18250D02*
Y18750D01*
X144250Y18250D02*
Y18750D01*
X150500Y19000D02*
Y20000D01*
X151000Y19000D02*
Y20000D01*
X150500D02*
X151000D01*
X150500Y19000D02*
X151000D01*
X151500Y27430D02*
X152000D01*
X151500Y26430D02*
X152000D01*
X151500D02*
Y27430D01*
X152000Y26430D02*
Y27430D01*
X131500Y27500D02*
X132000D01*
X131500Y26500D02*
X132000D01*
X131500D02*
Y27500D01*
X132000Y26500D02*
Y27500D01*
D14*
X102780Y61506D02*
X166680D01*
Y71806D01*
X102780D02*
X166680D01*
X102780Y61506D02*
Y71806D01*
X111590Y63806D02*
Y69506D01*
X157870D01*
Y63806D02*
Y69506D01*
X111590Y63806D02*
X157870D01*
X102780Y61506D02*
X166680D01*
Y71806D01*
X102780D02*
X166680D01*
X102780Y61506D02*
Y71806D01*
X111590Y63806D02*
Y69506D01*
X157870D01*
Y63806D02*
Y69506D01*
X111590Y63806D02*
X157870D01*
D15*
X131500Y-550D02*
Y11000D01*
X116500Y-550D02*
X131500D01*
X116500D02*
Y11000D01*
X131500D01*
Y-550D02*
Y11000D01*
X116500Y-550D02*
X131500D01*
X116500D02*
Y11000D01*
X131500D01*
X153000Y-550D02*
Y11000D01*
X138000Y-550D02*
X153000D01*
X138000D02*
Y11000D01*
X153000D01*
Y-550D02*
Y11000D01*
X138000Y-550D02*
X153000D01*
X138000D02*
Y11000D01*
X153000D01*
D79*
X130817Y19153D02*
X130830Y19140D01*
Y19113D01*
X130817Y19100D01*
X130763D01*
X130750Y19113D01*
Y19140D01*
X130763Y19153D01*
X130817Y19180D02*
X130830Y19193D01*
Y19220D01*
X130817Y19233D01*
X130803D01*
X130790Y19220D01*
Y19207D01*
Y19220D01*
X130777Y19233D01*
X130763D01*
X130750Y19220D01*
Y19193D01*
X130763Y19180D01*
X130737Y19260D02*
Y19313D01*
X130750Y19340D02*
X130803D01*
X130830Y19367D01*
X130803Y19393D01*
X130750D01*
X130790D01*
Y19340D01*
X130750Y19460D02*
X130830D01*
X130790Y19420D01*
Y19473D01*
X124150Y18500D02*
Y18580D01*
X124110D01*
X124097Y18567D01*
Y18540D01*
X124110Y18527D01*
X124150D01*
X124123D02*
X124097Y18500D01*
X124070D02*
X124043D01*
X124057D01*
Y18580D01*
X124070Y18567D01*
X124003Y18513D02*
X123990Y18500D01*
X123963D01*
X123950Y18513D01*
Y18567D01*
X123963Y18580D01*
X123990D01*
X124003Y18567D01*
Y18553D01*
X123990Y18540D01*
X123950D01*
X138097Y21567D02*
X138110Y21580D01*
X138137D01*
X138150Y21567D01*
Y21513D01*
X138137Y21500D01*
X138110D01*
X138097Y21513D01*
X138070Y21500D02*
X138043D01*
X138057D01*
Y21580D01*
X138070Y21567D01*
X138003Y21487D02*
X137950D01*
X137923Y21500D02*
Y21553D01*
X137897Y21580D01*
X137870Y21553D01*
Y21500D01*
Y21540D01*
X137923D01*
X137843Y21567D02*
X137830Y21580D01*
X137803D01*
X137790Y21567D01*
Y21553D01*
X137803Y21540D01*
X137817D01*
X137803D01*
X137790Y21527D01*
Y21513D01*
X137803Y21500D01*
X137830D01*
X137843Y21513D01*
X138817Y19153D02*
X138830Y19140D01*
Y19113D01*
X138817Y19100D01*
X138763D01*
X138750Y19113D01*
Y19140D01*
X138763Y19153D01*
X138750Y19233D02*
Y19180D01*
X138803Y19233D01*
X138817D01*
X138830Y19220D01*
Y19193D01*
X138817Y19180D01*
X138737Y19260D02*
Y19313D01*
X138750Y19340D02*
X138803D01*
X138830Y19367D01*
X138803Y19393D01*
X138750D01*
X138790D01*
Y19340D01*
X138817Y19420D02*
X138830Y19433D01*
Y19460D01*
X138817Y19473D01*
X138803D01*
X138790Y19460D01*
Y19447D01*
Y19460D01*
X138777Y19473D01*
X138763D01*
X138750Y19460D01*
Y19433D01*
X138763Y19420D01*
X151817Y24153D02*
X151830Y24140D01*
Y24113D01*
X151817Y24100D01*
X151763D01*
X151750Y24113D01*
Y24140D01*
X151763Y24153D01*
X151750Y24220D02*
X151830D01*
X151790Y24180D01*
Y24233D01*
X151737Y24260D02*
Y24313D01*
X151750Y24340D02*
X151803D01*
X151830Y24367D01*
X151803Y24393D01*
X151750D01*
X151790D01*
Y24340D01*
X151817Y24420D02*
X151830Y24433D01*
Y24460D01*
X151817Y24473D01*
X151803D01*
X151790Y24460D01*
Y24447D01*
Y24460D01*
X151777Y24473D01*
X151763D01*
X151750Y24460D01*
Y24433D01*
X151763Y24420D01*
X138150Y23500D02*
Y23580D01*
X138110D01*
X138097Y23567D01*
Y23540D01*
X138110Y23527D01*
X138150D01*
X138123D02*
X138097Y23500D01*
X138070Y23580D02*
X138017D01*
Y23567D01*
X138070Y23513D01*
Y23500D01*
X137990Y23487D02*
X137937D01*
X137910Y23500D02*
Y23553D01*
X137883Y23580D01*
X137857Y23553D01*
Y23500D01*
Y23540D01*
X137910D01*
X137830Y23567D02*
X137817Y23580D01*
X137790D01*
X137777Y23567D01*
Y23553D01*
X137790Y23540D01*
X137803D01*
X137790D01*
X137777Y23527D01*
Y23513D01*
X137790Y23500D01*
X137817D01*
X137830Y23513D01*
X118150Y23500D02*
Y23580D01*
X118110D01*
X118097Y23567D01*
Y23540D01*
X118110Y23527D01*
X118150D01*
X118123D02*
X118097Y23500D01*
X118070Y23580D02*
X118017D01*
Y23567D01*
X118070Y23513D01*
Y23500D01*
X117990Y23487D02*
X117937D01*
X117910Y23500D02*
Y23553D01*
X117883Y23580D01*
X117857Y23553D01*
Y23500D01*
Y23540D01*
X117910D01*
X117790Y23500D02*
Y23580D01*
X117830Y23540D01*
X117777D01*
X118097Y21567D02*
X118110Y21580D01*
X118137D01*
X118150Y21567D01*
Y21513D01*
X118137Y21500D01*
X118110D01*
X118097Y21513D01*
X118070Y21500D02*
X118043D01*
X118057D01*
Y21580D01*
X118070Y21567D01*
X118003Y21487D02*
X117950D01*
X117923Y21500D02*
Y21553D01*
X117897Y21580D01*
X117870Y21553D01*
Y21500D01*
Y21540D01*
X117923D01*
X117803Y21500D02*
Y21580D01*
X117843Y21540D01*
X117790D01*
X131817Y24153D02*
X131830Y24140D01*
Y24113D01*
X131817Y24100D01*
X131763D01*
X131750Y24113D01*
Y24140D01*
X131763Y24153D01*
X131750Y24220D02*
X131830D01*
X131790Y24180D01*
Y24233D01*
X131737Y24260D02*
Y24313D01*
X131750Y24340D02*
X131803D01*
X131830Y24367D01*
X131803Y24393D01*
X131750D01*
X131790D01*
Y24340D01*
X131750Y24460D02*
X131830D01*
X131790Y24420D01*
Y24473D01*
X118817Y19153D02*
X118830Y19140D01*
Y19113D01*
X118817Y19100D01*
X118763D01*
X118750Y19113D01*
Y19140D01*
X118763Y19153D01*
X118750Y19233D02*
Y19180D01*
X118803Y19233D01*
X118817D01*
X118830Y19220D01*
Y19193D01*
X118817Y19180D01*
X118737Y19260D02*
Y19313D01*
X118750Y19340D02*
X118803D01*
X118830Y19367D01*
X118803Y19393D01*
X118750D01*
X118790D01*
Y19340D01*
X118750Y19460D02*
X118830D01*
X118790Y19420D01*
Y19473D01*
X144150Y18500D02*
Y18580D01*
X144110D01*
X144097Y18567D01*
Y18540D01*
X144110Y18527D01*
X144150D01*
X144123D02*
X144097Y18500D01*
X144070Y18513D02*
X144057Y18500D01*
X144030D01*
X144017Y18513D01*
Y18567D01*
X144030Y18580D01*
X144057D01*
X144070Y18567D01*
Y18553D01*
X144057Y18540D01*
X144017D01*
X150817Y19153D02*
X150830Y19140D01*
Y19113D01*
X150817Y19100D01*
X150763D01*
X150750Y19113D01*
Y19140D01*
X150763Y19153D01*
X150817Y19180D02*
X150830Y19193D01*
Y19220D01*
X150817Y19233D01*
X150803D01*
X150790Y19220D01*
Y19207D01*
Y19220D01*
X150777Y19233D01*
X150763D01*
X150750Y19220D01*
Y19193D01*
X150763Y19180D01*
X150737Y19260D02*
Y19313D01*
X150750Y19340D02*
X150803D01*
X150830Y19367D01*
X150803Y19393D01*
X150750D01*
X150790D01*
Y19340D01*
X150817Y19420D02*
X150830Y19433D01*
Y19460D01*
X150817Y19473D01*
X150803D01*
X150790Y19460D01*
Y19447D01*
Y19460D01*
X150777Y19473D01*
X150763D01*
X150750Y19460D01*
Y19433D01*
X150763Y19420D01*
X151750Y27330D02*
X151670D01*
Y27290D01*
X151683Y27277D01*
X151710D01*
X151723Y27290D01*
Y27330D01*
Y27303D02*
X151750Y27277D01*
Y27197D02*
Y27250D01*
X151697Y27197D01*
X151683D01*
X151670Y27210D01*
Y27237D01*
X151683Y27250D01*
Y27170D02*
X151670Y27157D01*
Y27130D01*
X151683Y27117D01*
X151737D01*
X151750Y27130D01*
Y27157D01*
X151737Y27170D01*
X151683D01*
X151763Y27090D02*
Y27037D01*
X151750Y27010D02*
X151697D01*
X151670Y26983D01*
X151697Y26957D01*
X151750D01*
X151710D01*
Y27010D01*
X151683Y26930D02*
X151670Y26917D01*
Y26890D01*
X151683Y26877D01*
X151697D01*
X151710Y26890D01*
Y26903D01*
Y26890D01*
X151723Y26877D01*
X151737D01*
X151750Y26890D01*
Y26917D01*
X151737Y26930D01*
X131750Y27400D02*
X131670D01*
Y27360D01*
X131683Y27347D01*
X131710D01*
X131723Y27360D01*
Y27400D01*
Y27373D02*
X131750Y27347D01*
Y27267D02*
Y27320D01*
X131697Y27267D01*
X131683D01*
X131670Y27280D01*
Y27307D01*
X131683Y27320D01*
Y27240D02*
X131670Y27227D01*
Y27200D01*
X131683Y27187D01*
X131737D01*
X131750Y27200D01*
Y27227D01*
X131737Y27240D01*
X131683D01*
X131763Y27160D02*
Y27107D01*
X131750Y27080D02*
X131697D01*
X131670Y27053D01*
X131697Y27027D01*
X131750D01*
X131710D01*
Y27080D01*
X131750Y26947D02*
Y27000D01*
X131697Y26947D01*
X131683D01*
X131670Y26960D01*
Y26987D01*
X131683Y27000D01*
M02*
