M48
;Layer_Color=9474304
;FILE_FORMAT=4:3
METRIC,LZ
;TYPE=PLATED
T1F00S00C0.250
T2F00S00C0.500
%
T01
X0003302Y0005842
X0004191Y0005461
X0005461Y0004318
X0006477
X0012107Y0005467
X0013666Y0007289
X0014799Y0009988
X0016383Y0009906
X0004252Y0010069
X0005207Y0012319
X0000675Y0012192
X0001135Y0009517
X0002069Y0008345
T02
X0003781Y000091
X0004781
X0005781
X0006781
X0007781
X0008781
X0009781
X0010781
X0011781
X0012781
X0013758
X0014758
X0014752Y0014859
X0013752
X0012752
X0011752
X0010752
X0009775
X0008775
X0007775
X0006775
X0005775
X0004775
X0003775
X0002775
X0001775
X0000775
X0015752
X0016764
X0017764
M30
