M48
;Layer_Color=9474304
;FILE_FORMAT=4:3
METRIC,LZ
;TYPE=PLATED
T1F00S00C0.250
T2F00S00C0.500
T3F00S00C0.737
T4F00S00C0.800
T5F00S00C0.889
T7F00S00C1.020
T8F00S00C1.100
T9F00S00C1.270
T10F00S00C1.300
T11F00S00C1.575
T12F00S00C2.700
T13F00S00C6.000
;TYPE=NON_PLATED
T14F00S00C0.400
%
T01
X0003771Y0000625
X0006446Y0001085
X0024519Y0000625
X0027194Y0001085
X0044391Y0000683
X013516Y0007512
X0134088Y000902
X0133088Y0010655
X0132088Y0012163
X0140648Y0020239
X0142068Y0023691
X0143488Y0026981
X0144585Y0030145
X0143315Y0037003
X0142573Y0037746
X0141918Y0038527
X0140972Y0039164
X0122176Y0037696
X012325Y0036242
X0124207Y0034798
X012525Y0033352
X0112327Y003332
X0109533Y0034771
X0106866Y0036202
X0104072Y0037638
X0105977Y0040813
X0107733Y0040142
X0109398Y0039424
X0111157Y003874
X0111819Y0004364
X0110676Y0003729
X0109533Y0003094
X0108252Y0002451
X0057218Y0007287
X005671Y0007795
X0055948Y0008176
X0055385Y0008629
X0054043Y001351
X0054424Y0014653
X0058107Y0013129
X0058488Y0012113
X0054805Y0033068
X0054932Y0034465
X0056202
X0056075Y0036243
X0045788Y002685
X0044391Y0001445
X0030869Y0003252
X003125Y0004141
X0032393Y0005411
Y0006427
X0031244Y0012057
X0029422Y0013616
X0026805Y0014682
X0027694Y0016714
X0027194Y0025727
X0028366Y0026661
X0030869Y0027894
X003125Y0028783
X0032393Y0030053
Y0031069
X0031244Y0036699
X0029422Y0038258
X0026805Y0039324
X0026642Y0028844
X0024392Y0029799
X0024519Y0025267
X0010121Y0027894
X0010502Y0028783
X0011645Y0030053
Y0031069
X0010496Y0036699
X0008674Y0038258
X0006057Y0039324
X0005894Y0028844
X0003644Y0029799
X0003771Y0025267
X0006446Y0025727
X0007618Y0026661
X0006946Y0016714
X0006057Y0014682
X0008674Y0013616
X0010496Y0012057
X0011645Y0006427
Y0005411
X0010502Y0004141
X0010121Y0003252
X0007618Y0002019
X0005894Y0004202
X0003644Y0005157
X0024392
X0026642Y0004202
X0028366Y0002019
X0027694Y0041356
X0006946
X003584Y0078861
X0087021Y005943
X0087025Y0058709
X0086132Y0056509
Y0055874
X0085116Y0053842
X0085062Y0053026
X014252Y0109849
X0143282
X0145366Y0108797
X0146076Y010896
X01482Y0107945
X014887Y0107944
X0039233Y0112897
X0040031Y0113913
X0038567Y0111881
X0037872Y0110865
X0035892Y0114877
X0035078
X0033808Y0115818
X0032919
X0030887Y0116834
X0030125
X0029998Y0088894
X0033046Y0083814
X0027712Y0159379
X0025107Y0157855
X0021362Y015468
X0018949Y0153156
X0088037Y0161284
X0089031Y0162068
X009003Y0162769
X0090958Y0163443
X0092112Y0164691
X0092101Y0165475
X0093013Y0167126
X009299Y0168015
X0094007Y0170047
X0094006Y0170809
X004652Y0170682
X0045873Y0170301
X0047016Y0167507
X0047634Y0167992
X0048159Y016484
X0048748Y0165302
X0034778
X0034143
X0034316Y0167992
X0034951Y0168015
X0035081Y0170681
X0034316Y0170682
T02
X0001104Y0000725
X0021852
X0102902Y0000946
X0103902
X0104879
X0105879
X0106879
X0107879
X0108879
X0109879
X0110879
X0111879
X0112879
X0113879
X0124111Y0000956
X0125111
X0126088
X0127088
X0128088
X0129088
X0130088
X0131088
X0132088
X0133088
X0134088
X0135088
X0135094Y0014905
X0134094
X0133094
X0132094
X0131094
X0130094
X0129094
X0128117
X0127117
X0126117
X0125117
X0124117
X0123117
X0122105
X0121105
X01212Y0028124
X01202
X01192
X01222
X01232
X01242
X01252
X01262
X01272
X01282
X0129177
X0130177
X0131177
X0132177
X0133177
X0134177
X0135189
X0136189
X0136094Y0014905
X0137094
X0138094
X0116885Y0014895
X0115885
X0114885
X0113885
X0112885
X0111885
X0110885
X0109885
X0108885
X0107885
X0106908
X0105908
X0104908
X0103908
X0102908
X0101908
X0100896
X0099896
X0099991Y0028124
X0098991
X0097991
X0100991
X0101991
X0102991
X0103991
X0104991
X0105991
X0106991
X0107968
X0108968
X0109968
X0110968
X0111968
X0112968
X011398
X011498
X0035801Y0028372
Y0029372
Y0030372
Y0031372
Y0032372
Y0033372
Y0034372
Y0035372
Y0036372
Y0037372
Y0038349
Y0039349
X0021852Y0039344
Y0040344
Y0038344
Y0037344
Y0036344
Y0035344
Y0034367
Y0033367
Y0032367
Y0031367
Y0030367
Y0029367
Y0028367
Y0027367
Y0026367
Y0025367
Y0017713
Y0016713
Y0015702
Y0014702
Y0013702
Y0012702
Y0011702
Y0010702
Y0009725
Y0008725
Y0007725
Y0006725
Y0005725
Y0004725
Y0003725
Y0002725
Y0001725
X0015053Y000373
Y000473
Y000573
Y000673
Y000773
Y000873
Y000973
Y001073
Y001173
Y001273
Y0013707
Y0014707
Y0028372
Y0029372
Y0030372
Y0031372
Y0032372
Y0033372
Y0034372
Y0035372
Y0036372
Y0037372
Y0038349
Y0039349
X0001104Y0039344
Y0040344
Y0038344
Y0037344
Y0036344
Y0035344
Y0034367
Y0033367
Y0032367
Y0031367
Y0030367
Y0029367
Y0028367
Y0027367
Y0026367
Y0025367
Y0017713
Y0016713
Y0015702
Y0014702
Y0013702
Y0012702
Y0011702
Y0010702
Y0009725
Y0008725
Y0007725
Y0006725
Y0005725
Y0004725
Y0003725
Y0002725
Y0001725
X0035801Y000373
Y000473
Y000573
Y000673
Y000773
Y000873
Y000973
Y001073
Y001173
Y001273
Y0013707
Y0014707
X0021852Y0041355
Y0042355
X0001104
Y0041355
X0100997Y0042073
X0101997
X0102997
X0103997
X0104997
X0105997
X0106997
X0107997
X0108997
X0109997
X0110974
X0111974
X009505Y0067314
X009405
X0093073
X0092073
X0091073
X0090073
X0089073
X0088073
X0087073
X0086073
X0085073
X0084073
X0122206Y0042073
X0123206
X0124206
X0125206
X0126206
X0127206
X0128206
X0129206
X0130206
X0131206
X0132183
X0133183
X0134636Y01069
Y01079
Y01089
Y01099
Y01109
Y01119
Y01129
Y01139
Y01149
Y01159
Y0116877
Y0117877
X0120687Y0117871
Y0118871
Y0119883
Y0116871
Y0115871
Y0114871
Y0113871
Y0112894
Y0111894
Y0110894
Y0109894
Y0108894
Y0107894
Y0106894
Y0105894
Y0104894
Y0103894
X0098055Y0081263
X0097055
X0096044
X0095044
X0094044
X0093044
X0092044
X0091044
X0090067
X0089067
X0088067
X0087067
X0086067
X0085067
X0084067
X0083067
X0082067
X0081067
X0058436Y0103894
Y0104894
Y0105906
Y0106906
Y0107906
Y0108906
Y0109906
Y0110906
Y0111883
Y0112883
Y0113883
Y0114883
Y0115883
Y0116883
Y0117883
Y0118883
Y0119883
X0044487Y0117877
Y0116877
Y0115877
Y0114877
Y0113877
Y0112877
Y0111877
Y0110877
Y0109877
Y0108877
Y01079
Y01069
X0058436Y0120883
X0081067Y0143514
X0082067
X0083078
X0084078
X0085078
X0086078
X0087078
X0088078
X0089055
X0090055
X0091055
X0092055
X0093055
X0094055
X0095055
X0096055
X0097055
X0098055
X009505Y0157463
X009405
X009305
X009205
X009105
X009005
X008905
X008805
X008705
X008605
X0085073
X0084073
X0120687Y0120883
T03
X0078817Y0094482
X0081204
X0083592
X008598
X0088367
X0090755
X0093142
X009553
X0097918
X0100305
X0102693
X010508
X0107468
Y0096869
Y0099257
Y0101644
Y0104032
Y010642
Y0108807
Y0111195
Y0113582
Y011597
Y0118358
X0071654
Y011597
Y0113582
Y0111195
Y0108807
Y010642
Y0104032
Y0101644
Y0099257
Y0096869
Y0094482
X0074042
X0076429
X0071654Y0120745
Y0123133
Y012552
Y0127908
Y0130296
X0074042
X0076429
X0078817
X0081204
X0083592
X008598
X0088367
X0090755
X0093142
X009553
X0097918
X0100305
X0102693
X010508
X0107468
Y0127908
Y012552
Y0123133
Y0120745
T04
X0118677Y0018652
X0121217
X0123757
X0126297
X0128837
X0131377
X0133917
X0136457
X0138997
X0137727Y0020557
X0135187
X0132647
X0130107
X0127567
X0125027
X0122487
X0119947
X0121217Y0022462
X0123757
X0126297
X0128837
X0131377
X0133917
X0136457
X0138997
X0137727Y0024367
X0135187
X0132647
X0130107
X0127567
X0125027
X0122487
X0119947
X0118677Y0022462
X0116137
X0113597
X0111057
X0108517
X0105977
X0103437
X0100897
X0098357
X0099627Y0020557
X0102167
X0104707
X0107247
X0109787
X0112327
X0114867
X0117407
X0116137Y0018652
X0113597
X0111057
X0108517
X0105977
X0103437
X0100897
X0098357
X0097087Y0020557
Y0024367
X0099627
X0102167
X0104707
X0107247
X0109787
X0112327
X0114867
X0117407
T05
X0018822Y012547
Y012801
Y013055
X0021574
Y012801
Y012547
X0024325
Y012801
Y013055
X0027077
Y012801
Y012547
T07
X0095309Y0010714
Y0013254
Y0030018
Y0032558
X0102007Y0145028
Y0147568
X0104801Y0145028
Y0142488
T08
X0151951Y0004999
X0154491
Y0007539
Y0010079
X0151951
Y0012619
X0154491
Y0015159
Y0017699
X0151951
Y0020239
Y0022779
X0154491
Y0025319
Y0027859
Y0030399
X0151951
Y0032939
X0154491
Y0035479
Y0038019
X0151951
Y0035479
Y0027859
Y0025319
X0154491Y0020239
X0151951Y0015159
Y0007539
X0077529Y0007572
Y0010112
X0074989
Y0012652
X0077529
Y0015192
Y0017732
X0074989
Y0020272
Y0022812
X0077529
Y0025352
Y0027892
Y0030432
X0074989
Y0032972
X0077529
Y0035512
Y0038052
X0074989
Y0035512
Y0027892
Y0025352
X0070417
Y0022812
Y0020272
Y0017732
X0067242Y0016843
X0064702
Y0019383
X0067242
Y0023701
X0064702
Y0026241
Y0028781
X0067242
Y0031321
X0064702
Y0033861
Y0036401
Y0038941
X0067242
Y0036401
Y0033861
Y0026241
Y0014303
Y0011763
Y0009223
X0064702
Y0006683
X0067242
Y0004143
Y0001603
X0064702
Y0004143
Y0011763
Y0014303
X0074989Y0015192
X0077529Y0020272
X0074989Y0007572
Y0005032
X0077529
X0047185Y0005001
X0044645
Y0007541
Y0010081
Y0012621
X0047185
Y0010081
Y0007541
Y0015161
X0044645
Y0017701
Y0020241
X0047185
Y0017701
Y0022781
Y0025321
X0044645
Y0022781
Y0027861
Y0030401
Y0032941
X0047185
Y0030401
Y0027861
Y0035481
Y0038021
X0044645
Y0035481
X0064702Y0041481
X0067242
X0004923Y0128141
X0002383
Y0130681
Y0133221
X0004923
Y0135761
X0002383
Y0138301
Y0140841
X0004923
Y0143381
Y0145921
X0002383
Y0148461
Y0151001
Y0153541
X0004923
Y0156081
X0002383
Y0158621
X0004923
Y0151001
Y0148461
X0002383Y0143381
X0004923Y0138301
Y0130681
Y0161161
X0002383
T09
X0053154Y0021765
X0055694
X0058234
X0060774
T10
X0008408Y0073861
Y0078861
Y0083861
Y0088861
T11
X0082Y0002619
X0084387
Y0005007
Y0007395
Y0009782
Y001217
Y0014557
Y0016945
Y0019333
Y002172
Y0024108
Y0026495
Y0028883
Y0031271
Y0033658
Y0036046
Y0038433
X0082
X0040572Y0038941
Y0036554
Y0034166
Y0031779
Y0029391
Y0027003
Y0024616
Y0022228
Y0019841
Y0017453
Y0015065
Y0012678
Y001029
Y0007903
Y0005515
Y0003127
X0038185
Y0038941
T12
X0146997Y0021509
X0089087
T13
X0017148Y0053251
X0145472
X0017148Y0112451
X0145472Y0171651
X0017148
T14
X0062484Y0000223
Y0001073
Y0001923
Y0002773
Y0003623
Y0004473
Y0005323
Y0006173
Y0007023
Y0007873
Y0008723
Y0009573
Y0010423
Y0011273
Y0012123
Y0012973
Y0013823
Y0014673
Y0015523
Y0016373
Y0017223
Y0018073
Y0018923
Y0019773
Y0020623
Y0021473
Y0022323
Y0023173
Y0024023
Y0024873
Y0025723
Y0026573
Y0027423
Y0028273
Y0029123
Y0029973
Y0030823
Y0031673
Y0032523
Y0033373
Y0034223
Y0035073
Y0035923
Y0036773
Y0037623
Y0038473
Y0039323
Y0040173
Y0041023
Y0041873
Y0042723
M30
