G04 Layer_Physical_Order=1*
G04 Layer_Color=255*
%FSLAX25Y25*%
%MOIN*%
G70*
G01*
G75*
%ADD10C,0.00524*%
%ADD11C,0.00525*%
%ADD12C,0.00800*%
%ADD13R,0.01969X0.07874*%
%ADD14R,0.03543X0.09449*%
%ADD15R,0.02756X0.03150*%
%ADD16R,0.10000X0.02520*%
%ADD17R,0.18504X0.02520*%
%ADD18R,0.01181X0.05709*%
%ADD19R,0.02362X0.08661*%
%ADD20R,0.02362X0.08661*%
%ADD21R,0.03937X0.03543*%
%ADD22R,0.03150X0.02362*%
%ADD23R,0.02362X0.03150*%
%ADD24R,0.07087X0.05118*%
%ADD25C,0.03937*%
%ADD26R,0.03937X0.04134*%
%ADD27R,0.04134X0.08661*%
%ADD28R,0.05906X0.05906*%
%ADD29C,0.00500*%
%ADD30C,0.04800*%
%ADD31C,0.01000*%
%ADD32C,0.01200*%
%ADD33C,0.03000*%
%ADD34C,0.01600*%
%ADD35C,0.05709*%
%ADD36C,0.05315*%
%ADD37R,0.07874X0.07874*%
%ADD38C,0.06102*%
%ADD39C,0.09843*%
%ADD40C,0.19685*%
%ADD41C,0.04016*%
%ADD42C,0.05118*%
%ADD43R,0.05118X0.05118*%
%ADD44C,0.10000*%
%ADD45R,0.05118X0.05118*%
%ADD46C,0.08858*%
%ADD47C,0.27559*%
%ADD48C,0.01600*%
G36*
X372700Y250800D02*
X301400Y179500D01*
X174600Y179500D01*
X63300Y68200D01*
X48100D01*
Y102300D01*
X37200Y113200D01*
Y125800D01*
X133900Y222500D01*
X289400D01*
X364200Y297300D01*
X372700D01*
X372700Y250800D01*
D02*
G37*
D10*
X482200Y227039D02*
G03*
X480809Y226463I0J-1967D01*
G01*
X488108Y226249D02*
G03*
X486200Y227039I-1908J-1908D01*
G01*
X477233Y225621D02*
G03*
X476800Y225800I-433J-433D01*
G01*
D02*
G03*
X476288Y225588I0J-724D01*
G01*
X475000Y224600D02*
G03*
X475512Y224812I0J724D01*
G01*
X473900Y225600D02*
G03*
X474900Y224600I1000J0D01*
G01*
X473900Y225863D02*
G03*
X472485Y227278I-1415J0D01*
G01*
D02*
G03*
X464620Y224020I0J-11122D01*
G01*
X393229Y152629D02*
G03*
X390300Y145558I7071J-7071D01*
G01*
X390748Y98901D02*
G03*
X390500Y99500I-847J0D01*
G01*
X390300Y99983D02*
G03*
X390500Y99500I683J0D01*
G01*
X517800Y104080D02*
G03*
X518690Y103190I890J0D01*
G01*
X517800Y124628D02*
G03*
X516858Y125570I-942J0D01*
G01*
X490912D02*
G03*
X483841Y122641I0J-10000D01*
G01*
X520220Y102220D02*
G03*
X519250Y103190I-970J0D01*
G01*
X517915Y96655D02*
G03*
X520220Y102220I-5565J5565D01*
G01*
X437271Y80678D02*
G03*
X445135Y83935I0J11122D01*
G01*
X395127Y80678D02*
G03*
X391800Y79300I0J-4705D01*
G01*
X391785Y79285D02*
G03*
X390300Y75700I3585J-3585D01*
G01*
X390748Y74501D02*
G03*
X390500Y75100I-847J0D01*
G01*
X390300Y75583D02*
G03*
X390500Y75100I683J0D01*
G01*
X476727Y229074D02*
G03*
X476728Y229074I-1627J1629D01*
G01*
X486200Y228161D02*
G03*
X488124Y228958I0J2721D01*
G01*
X480809Y228737D02*
G03*
X482200Y228161I1391J1391D01*
G01*
X475100Y228400D02*
G03*
X476727Y229074I0J2302D01*
G01*
X471555Y228400D02*
G03*
X464484Y225471I0J-10000D01*
G01*
X392436Y153422D02*
G03*
X389178Y145558I7864J-7864D01*
G01*
X389000Y99400D02*
G03*
X389178Y99830I-430J430D01*
G01*
X389000Y99400D02*
G03*
X388780Y98868I532J-532D01*
G01*
X516860Y126692D02*
G03*
X517890Y127722I0J1030D01*
G01*
X490912Y126692D02*
G03*
X483053Y123440I0J-11122D01*
G01*
X437271Y81800D02*
G03*
X444342Y84729I0J10000D01*
G01*
X395127Y81800D02*
G03*
X391007Y80093I0J-5827D01*
G01*
X390991Y80078D02*
G03*
X389178Y75700I4378J-4378D01*
G01*
X389000Y75100D02*
G03*
X388780Y74568I532J-532D01*
G01*
X482277Y36415D02*
G03*
X482276Y36414I2815J-2815D01*
G01*
X483012Y22750D02*
G03*
X481500Y26400I-5162J0D01*
G01*
X482276Y36414D02*
G03*
X481111Y33600I2816J-2814D01*
G01*
Y27339D02*
G03*
X481500Y26400I1328J0D01*
G01*
X468012Y22509D02*
G03*
X466400Y26400I-5503J0D01*
G01*
X467106Y36344D02*
G03*
X466011Y33700I2644J-2644D01*
G01*
Y27339D02*
G03*
X466400Y26400I1328J0D01*
G01*
X464889Y33700D02*
G03*
X463794Y36344I-3739J0D01*
G01*
X464600Y26400D02*
G03*
X464889Y27098I-698J698D01*
G01*
X464600Y26400D02*
G03*
X463012Y22566I3834J-3834D01*
G01*
X561752Y22653D02*
G03*
X560200Y26400I-5299J0D01*
G01*
X561438Y36514D02*
G03*
X559761Y32465I4049J-4049D01*
G01*
Y27300D02*
G03*
X560087Y26513I1113J0D01*
G01*
X558639Y32465D02*
G03*
X556962Y36514I-5726J0D01*
G01*
X558300Y26400D02*
G03*
X558639Y27218I-818J818D01*
G01*
X558300Y26400D02*
G03*
X556752Y22663I3737J-3737D01*
G01*
X546752Y22412D02*
G03*
X545100Y26400I-5640J0D01*
G01*
X546038Y36576D02*
G03*
X544711Y33372I3204J-3204D01*
G01*
Y27339D02*
G03*
X545100Y26400I1328J0D01*
G01*
X543589Y33372D02*
G03*
X542262Y36576I-4531J0D01*
G01*
X543300Y26400D02*
G03*
X543589Y27098I-698J698D01*
G01*
X543300Y26400D02*
G03*
X541752Y22663I3737J-3737D01*
G01*
X640492Y22556D02*
G03*
X638900Y26400I-5436J0D01*
G01*
X639838Y36576D02*
G03*
X638511Y33372I3204J-3204D01*
G01*
Y27300D02*
G03*
X638872Y26428I1234J0D01*
G01*
X637389Y33372D02*
G03*
X636062Y36576I-4531J0D01*
G01*
X637028Y26428D02*
G03*
X637389Y27300I-872J872D01*
G01*
X637000Y26400D02*
G03*
X635492Y22760I3640J-3640D01*
G01*
X625492Y22556D02*
G03*
X623900Y26400I-5436J0D01*
G01*
X624838Y36576D02*
G03*
X623511Y33372I3204J-3204D01*
G01*
Y27300D02*
G03*
X623872Y26428I1234J0D01*
G01*
X622389Y33372D02*
G03*
X621062Y36576I-4531J0D01*
G01*
X622100Y26400D02*
G03*
X622389Y27098I-698J698D01*
G01*
X622100Y26400D02*
G03*
X620492Y22518I3882J-3882D01*
G01*
X479989Y33600D02*
G03*
X478823Y36415I-3981J0D01*
G01*
X479600Y26400D02*
G03*
X479989Y27339I-939J939D01*
G01*
X479600Y26400D02*
G03*
X478012Y22566I3834J-3834D01*
G01*
X677500Y157900D02*
G03*
X677000Y157400I0J-500D01*
G01*
X676000Y157989D02*
G03*
X675400Y158589I-600J0D01*
G01*
X667589Y161825D02*
G03*
X675400Y158589I7811J7811D01*
G01*
X679200Y157000D02*
G03*
X678300Y157900I-900J0D01*
G01*
X676600Y157000D02*
G03*
X677000Y157400I0J400D01*
G01*
X676000Y157500D02*
G03*
X676500Y157000I500J0D01*
G01*
X490142Y178500D02*
G03*
X483071Y175571I0J-10000D01*
G01*
X653842D02*
G03*
X646771Y178500I-7071J-7071D01*
G01*
X416829Y109329D02*
G03*
X413900Y102258I7071J-7071D01*
G01*
X414370Y98606D02*
G03*
X414000Y99500I-1264J0D01*
G01*
X413900Y99741D02*
G03*
X414000Y99500I341J0D01*
G01*
X677300Y315100D02*
G03*
X676800Y314600I0J-500D01*
G01*
X675300Y315000D02*
G03*
X674522Y315778I-778J0D01*
G01*
X679134Y314173D02*
G03*
X678207Y315100I-927J0D01*
G01*
X674097Y315778D02*
G03*
X670321Y314213I0J-5340D01*
G01*
X675300Y314700D02*
G03*
X676000Y314000I700J0D01*
G01*
X676200D02*
G03*
X676800Y314600I0J600D01*
G01*
X670321Y314213D02*
G03*
X668022Y308663I5551J-5551D01*
G01*
X623180Y184900D02*
G03*
X631039Y188152I0J11122D01*
G01*
X486842Y184900D02*
G03*
X479771Y181971I0J-10000D01*
G01*
X410929Y113129D02*
G03*
X408000Y106058I7071J-7071D01*
G01*
X408465Y98620D02*
G03*
X408100Y99500I-1245J0D01*
G01*
X408000Y99741D02*
G03*
X408100Y99500I341J0D01*
G01*
X621500Y236400D02*
G03*
X622323Y238387I-1987J1987D01*
G01*
X621486Y236386D02*
G03*
X621309Y235959I428J-428D01*
G01*
X619345Y223858D02*
G03*
X621309Y228600I-4742J4742D01*
G01*
X582780Y191900D02*
G03*
X590639Y195152I0J11122D01*
G01*
X485642Y191900D02*
G03*
X478571Y188971I0J-10000D01*
G01*
X405029Y115429D02*
G03*
X402100Y108358I7071J-7071D01*
G01*
Y99641D02*
G03*
X402200Y99400I341J0D01*
G01*
X402559Y98533D02*
G03*
X402200Y99400I-1226J0D01*
G01*
X546800Y236400D02*
G03*
X546506Y235690I710J-710D01*
G01*
X516280Y199600D02*
G03*
X524139Y202852I0J11122D01*
G01*
X483442Y199600D02*
G03*
X476371Y196671I0J-10000D01*
G01*
X399129Y119429D02*
G03*
X396200Y112358I7071J-7071D01*
G01*
Y99741D02*
G03*
X396300Y99500I341J0D01*
G01*
X396654Y98646D02*
G03*
X396300Y99500I-1207J0D01*
G01*
X654635Y176365D02*
G03*
X646771Y179622I-7864J-7864D01*
G01*
X675734Y159711D02*
G03*
X678938Y161038I0J4531D01*
G01*
X668382Y162618D02*
G03*
X675400Y159711I7018J7018D01*
G01*
X490142Y179622D02*
G03*
X482278Y176365I0J-11122D01*
G01*
X416036Y110122D02*
G03*
X412778Y102258I7864J-7864D01*
G01*
X412700Y99400D02*
G03*
X412402Y98680I720J-720D01*
G01*
X675631Y316900D02*
G03*
X678872Y318242I0J4584D01*
G01*
X673954Y316900D02*
G03*
X669629Y315108I0J-6116D01*
G01*
X669528Y315007D02*
G03*
X666900Y308663I6344J-6344D01*
G01*
X663971Y222671D02*
G03*
X666900Y229742I-7071J7071D01*
G01*
X623180Y186022D02*
G03*
X630251Y188951I0J10000D01*
G01*
X486842Y186022D02*
G03*
X478978Y182764I0J-11122D01*
G01*
X410136Y113922D02*
G03*
X406878Y106058I7864J-7864D01*
G01*
X406800Y99400D02*
G03*
X406878Y99588I-188J188D01*
G01*
X406800Y99400D02*
G03*
X406496Y98666I734J-734D01*
G01*
X620008Y236392D02*
G03*
X620007Y236393I-435J-433D01*
G01*
X619173Y238255D02*
G03*
X619900Y236500I2481J0D01*
G01*
X620187Y235959D02*
G03*
X620008Y236392I-614J0D01*
G01*
X582780Y193022D02*
G03*
X589851Y195951I0J10000D01*
G01*
X485642Y193022D02*
G03*
X477778Y189764I0J-11122D01*
G01*
X404236Y116222D02*
G03*
X400978Y108358I7864J-7864D01*
G01*
X400900Y99400D02*
G03*
X400978Y99588I-188J188D01*
G01*
X400900Y99400D02*
G03*
X400591Y98653I747J-747D01*
G01*
X545384Y235715D02*
G03*
X545100Y236400I-969J0D01*
G01*
X544370Y238162D02*
G03*
X545100Y236400I2492J0D01*
G01*
X542455Y222755D02*
G03*
X545384Y229826I-7071J7071D01*
G01*
X516280Y200722D02*
G03*
X523351Y203651I0J10000D01*
G01*
X483442Y200722D02*
G03*
X475578Y197465I0J-11122D01*
G01*
X398336Y120222D02*
G03*
X395078Y112358I7864J-7864D01*
G01*
X395000Y99400D02*
G03*
X394685Y98640I760J-760D01*
G01*
X678561Y78439D02*
G03*
X678562Y78438I577J577D01*
G01*
D02*
G03*
X679138Y78200I576J577D01*
G01*
X677798Y79202D02*
G03*
X676500Y79739I-1298J-1300D01*
G01*
X677799Y79201D02*
G03*
X677798Y79202I-1299J-1299D01*
G01*
X674443Y79739D02*
G03*
X672900Y79100I0J-2182D01*
G01*
X385100Y101200D02*
G03*
X384500Y99752I1448J-1448D01*
G01*
Y97638D02*
G03*
X384843Y96811I1170J0D01*
G01*
X677699Y236901D02*
G03*
X676400Y237439I-1299J-1299D01*
G01*
X674443D02*
G03*
X672900Y236800I0J-2182D01*
G01*
X379100Y101200D02*
G03*
X378600Y99993I1207J-1207D01*
G01*
Y97625D02*
G03*
X378937Y96811I1151J0D01*
G01*
X640500Y236400D02*
G03*
X640207Y235692I708J-708D01*
G01*
Y225874D02*
G03*
X640900Y224200I2367J0D01*
G01*
X373200Y101200D02*
G03*
X372700Y99993I1207J-1207D01*
G01*
Y97611D02*
G03*
X373031Y96811I1132J0D01*
G01*
X565600Y236400D02*
G03*
X566417Y238373I-1973J1973D01*
G01*
X565600Y236400D02*
G03*
X565404Y235926I474J-474D01*
G01*
X553843Y208156D02*
G03*
X551500Y202500I5656J-5656D01*
G01*
D02*
G03*
X551995Y201305I1690J0D01*
G01*
X367300Y101200D02*
G03*
X366800Y99993I1207J-1207D01*
G01*
Y97598D02*
G03*
X367126Y96811I1113J0D01*
G01*
X679138Y82500D02*
G03*
X678391Y82191I0J-1057D01*
G01*
D02*
G03*
X678390Y82190I747J-748D01*
G01*
X672900Y81500D02*
G03*
X674443Y80861I1543J1543D01*
G01*
X676500D02*
G03*
X677458Y81258I0J1354D01*
G01*
X383200Y99993D02*
G03*
X382700Y101200I-1707J0D01*
G01*
X676400Y238561D02*
G03*
X677699Y239099I0J1837D01*
G01*
X672900Y239200D02*
G03*
X674443Y238561I1543J1543D01*
G01*
X377300Y99752D02*
G03*
X376700Y101200I-2049J0D01*
G01*
X639085Y235713D02*
G03*
X638800Y236400I-972J0D01*
G01*
X638071Y238160D02*
G03*
X638800Y236400I2489J0D01*
G01*
X371400Y99752D02*
G03*
X370800Y101200I-2049J0D01*
G01*
X563268Y238409D02*
G03*
X564100Y236400I2842J0D01*
G01*
X564282Y235962D02*
G03*
X564100Y236400I-620J0D01*
G01*
X561353Y217253D02*
G03*
X564282Y224324I-7071J7071D01*
G01*
X549938Y201438D02*
G03*
X550378Y202500I-1062J1062D01*
G01*
X365500Y99752D02*
G03*
X364900Y101200I-2049J0D01*
G01*
X566535Y122700D02*
G03*
X565635Y123600I-900J0D01*
G01*
X565000D02*
G03*
X564400Y123000I0J-600D01*
G01*
X563900Y122500D02*
G03*
X564400Y123000I0J500D01*
G01*
X562900Y123420D02*
G03*
X562031Y124289I-869J0D01*
G01*
X562900Y123200D02*
G03*
X563600Y122500I700J0D01*
G01*
X562031Y124289D02*
G03*
X554960Y121360I0J-10000D01*
G01*
X553729Y120129D02*
G03*
X550800Y113058I7071J-7071D01*
G01*
X535558Y72378D02*
G03*
X543422Y75635I0J11122D01*
G01*
X475542Y82771D02*
G03*
X468471Y85700I-7071J-7071D01*
G01*
X457242D02*
G03*
X450171Y82771I0J-10000D01*
G01*
X440371Y77578D02*
G03*
X448236Y80835I0J11122D01*
G01*
X415212Y77578D02*
G03*
X414300Y77200I0J-1290D01*
G01*
D02*
G03*
X414000Y76476I724J-724D01*
G01*
X482678Y75635D02*
G03*
X490542Y72378I7864J7864D01*
G01*
X414000Y75583D02*
G03*
X414200Y75100I683J0D01*
G01*
X414370Y74689D02*
G03*
X414200Y75100I-581J0D01*
G01*
X623511Y45369D02*
G03*
X620253Y53233I-11122J0D01*
G01*
X617122Y56365D02*
G03*
X609258Y59622I-7864J-7864D01*
G01*
X623511Y44000D02*
G03*
X624111Y42551I2049J0D01*
G01*
X408050Y66435D02*
G03*
X409100Y63900I3585J0D01*
G01*
X410449Y62551D02*
G03*
X417520Y59622I7071J7071D01*
G01*
X544722Y44600D02*
G03*
X542481Y50010I-7650J0D01*
G01*
X544722Y44600D02*
G03*
X545754Y42108I3524J0D01*
G01*
X466061Y44600D02*
G03*
X466882Y42618I2803J0D01*
G01*
X563100Y125411D02*
G03*
X566252Y126717I0J4458D01*
G01*
X562031Y125411D02*
G03*
X554167Y122153I0J-11122D01*
G01*
X552936Y120922D02*
G03*
X549678Y113058I7864J-7864D01*
G01*
X546749Y80549D02*
G03*
X549678Y87620I-7071J7071D01*
G01*
X535558Y73500D02*
G03*
X542629Y76429I0J10000D01*
G01*
X476335Y83565D02*
G03*
X468471Y86822I-7864J-7864D01*
G01*
X483471Y76429D02*
G03*
X490542Y73500I7071J7071D01*
G01*
X457242Y86822D02*
G03*
X449378Y83565I0J-11122D01*
G01*
X440371Y78700D02*
G03*
X447442Y81629I0J10000D01*
G01*
X415212Y78700D02*
G03*
X413507Y77993I0J-2413D01*
G01*
D02*
G03*
X412878Y76476I1518J-1518D01*
G01*
X412651Y75151D02*
G03*
X412878Y75700I-550J549D01*
G01*
X412650Y75150D02*
G03*
X412651Y75151I-550J550D01*
G01*
X412600Y75100D02*
G03*
X412599Y75099I479J-479D01*
G01*
D02*
G03*
X412402Y74621I480J-478D01*
G01*
X622389Y45369D02*
G03*
X619460Y52440I-10000J0D01*
G01*
X616329Y55571D02*
G03*
X609258Y58500I-7071J-7071D01*
G01*
X406928Y66435D02*
G03*
X408307Y63107I4707J0D01*
G01*
X409656Y61758D02*
G03*
X417520Y58500I7864J7864D01*
G01*
X542583Y42145D02*
G03*
X543600Y44600I-2455J2455D01*
G01*
X624546Y124154D02*
G03*
X624545Y124155I-446J-446D01*
G01*
D02*
G03*
X624100Y124339I-445J-446D01*
G01*
X622643D02*
G03*
X621100Y123700I0J-2182D01*
G01*
X625833Y122867D02*
G03*
X626238Y122700I405J407D01*
G01*
X625832Y122868D02*
G03*
X625833Y122867I406J406D01*
G01*
X384843Y72480D02*
G03*
X384500Y71653I827J-827D01*
G01*
Y69507D02*
G03*
X385000Y68300I1707J0D01*
G01*
X378937Y72480D02*
G03*
X378600Y71667I814J-814D01*
G01*
Y69507D02*
G03*
X379100Y68300I1707J0D01*
G01*
X373032Y72480D02*
G03*
X372700Y71680I800J-800D01*
G01*
Y69507D02*
G03*
X373200Y68300I1707J0D01*
G01*
X626238Y127000D02*
G03*
X625833Y126833I0J-574D01*
G01*
D02*
G03*
X625832Y126832I405J-407D01*
G01*
X621100Y126100D02*
G03*
X622643Y125461I1543J1543D01*
G01*
X624100D02*
G03*
X624716Y125716I0J872D01*
G01*
X383200Y71693D02*
G03*
X382874Y72480I-1113J0D01*
G01*
X382634Y68334D02*
G03*
X383200Y69700I-1366J1366D01*
G01*
X639200Y42462D02*
G03*
X640100Y41562I900J0D01*
G01*
X376734Y68334D02*
G03*
X377300Y69700I-1366J1366D01*
G01*
Y71680D02*
G03*
X376969Y72480I-1132J0D01*
G01*
X560400Y44638D02*
G03*
X561700Y41500I4439J0D01*
G01*
X371400Y71667D02*
G03*
X371063Y72480I-1151J0D01*
G01*
X481700Y43976D02*
G03*
X482700Y41562I3414J0D01*
G01*
X370800Y68300D02*
G03*
X371400Y69749I-1448J1448D01*
G01*
X556700Y41500D02*
G03*
X558000Y44638I-3139J3139D01*
G01*
X478400Y41562D02*
G03*
X479300Y43735I-2173J2173D01*
G01*
X547542Y79756D02*
G03*
X550800Y87620I-7864J7864D01*
G01*
X553049Y208949D02*
G03*
X550378Y202500I6449J-6449D01*
G01*
X365158Y96811D02*
G03*
X365500Y97638I-827J827D01*
G01*
X562146Y216459D02*
G03*
X565404Y224324I-7864J7864D01*
G01*
X664770Y221883D02*
G03*
X668022Y229742I-7870J7859D01*
G01*
X664764Y221878D02*
G03*
X664770Y221883I-7864J7864D01*
G01*
X631039Y188152D02*
G03*
X631044Y188158I-7859J7870D01*
G01*
X640500Y236400D02*
G03*
X641221Y238139I-1739J1739D01*
G01*
X546800Y236400D02*
G03*
X547520Y238138I-1737J1737D01*
G01*
X685300Y83500D02*
G03*
X687008Y87623I-4123J4123D01*
G01*
X412700Y99400D02*
G03*
X412778Y99588I-188J188D01*
G01*
X590639Y195152D02*
G03*
X590644Y195158I-7859J7870D01*
G01*
X618551Y224652D02*
G03*
X620187Y228600I-3949J3949D01*
G01*
X524139Y202852D02*
G03*
X524144Y202858I-7859J7870D01*
G01*
X543248Y221961D02*
G03*
X546506Y229826I-7864J7864D01*
G01*
X395000Y99400D02*
G03*
X395078Y99588I-188J188D01*
G01*
X685200Y162200D02*
G03*
X687008Y166565I-4365J4365D01*
G01*
X638500Y224200D02*
G03*
X639085Y225611I-1412J1412D01*
G01*
X371063Y96811D02*
G03*
X371400Y97625I-814J814D01*
G01*
X685300Y241100D02*
G03*
X687008Y245223I-4123J4123D01*
G01*
X683858Y318504D02*
G03*
X684619Y318819I0J1076D01*
G01*
X685300Y319500D02*
G03*
X687008Y323623I-4123J4123D01*
G01*
X635800Y41562D02*
G03*
X636800Y42562I0J1000D01*
G01*
X621789Y42551D02*
G03*
X622389Y44000I-1449J1449D01*
G01*
X543600Y44600D02*
G03*
X541691Y49209I-6518J0D01*
G01*
X464118Y42618D02*
G03*
X464939Y44600I-1982J1982D01*
G01*
X382874Y96811D02*
G03*
X383200Y97598I-787J787D01*
G01*
X679200Y240100D02*
G03*
X678346Y239746I0J-1207D01*
G01*
X376969Y96811D02*
G03*
X377300Y97611I-800J800D01*
G01*
X678517Y236083D02*
G03*
X679200Y235800I683J683D01*
G01*
X630962Y127000D02*
G03*
X631710Y127310I0J1057D01*
G01*
X630962Y127000D02*
G03*
X631862Y126100I900J0D01*
G01*
X632898Y128498D02*
G03*
X635827Y135569I-7071J7071D01*
G01*
X631539Y122461D02*
G03*
X630962Y122700I-577J-577D01*
G01*
X635827Y114031D02*
G03*
X632898Y121102I-10000J0D01*
G01*
X631862Y123600D02*
G03*
X630962Y122700I0J-900D01*
G01*
X571260Y127000D02*
G03*
X572011Y127311I0J1063D01*
G01*
X571260Y127000D02*
G03*
X572160Y126100I900J0D01*
G01*
X573843Y129143D02*
G03*
X576772Y136214I-7071J7071D01*
G01*
X572011Y122389D02*
G03*
X571260Y122700I-751J-751D01*
G01*
X572160Y123600D02*
G03*
X571260Y122700I0J-900D01*
G01*
X576772Y113486D02*
G03*
X573843Y120557I-10000J0D01*
G01*
X683924Y240100D02*
G03*
X684566Y240366I0J907D01*
G01*
Y235534D02*
G03*
X683924Y235800I-641J-641D01*
G01*
X687008Y230535D02*
G03*
X685200Y234900I-6172J0D01*
G01*
X684487Y313913D02*
G03*
X683858Y314173I-629J-629D01*
G01*
X687008Y308977D02*
G03*
X685300Y313100I-5831J0D01*
G01*
X683862Y82500D02*
G03*
X684610Y82810I0J1057D01*
G01*
X684439Y77961D02*
G03*
X683862Y78200I-577J-577D01*
G01*
X687008Y72835D02*
G03*
X685200Y77200I-6172J0D01*
G01*
X683924Y161300D02*
G03*
X684566Y161566I0J907D01*
G01*
Y156734D02*
G03*
X683924Y157000I-641J-641D01*
G01*
X687008Y151877D02*
G03*
X685300Y156000I-5831J0D01*
G01*
X389000Y75100D02*
G03*
X389178Y75530I-430J430D01*
G01*
X483053Y123440D02*
G03*
X483048Y123434I7859J-7870D01*
G01*
X482200Y227039D02*
X486200D01*
X475512Y224812D02*
X476288Y225588D01*
X488108Y226249D02*
X491761Y222595D01*
X478600Y224254D02*
X480809Y226463D01*
X477233Y225621D02*
X478600Y224254D01*
X473900Y225600D02*
Y225863D01*
X474900Y224600D02*
X475000D01*
X393229Y152629D02*
X464620Y224020D01*
X390300Y99983D02*
Y145558D01*
X390748Y96811D02*
Y98901D01*
X518690Y103190D02*
X519250D01*
X490912Y125570D02*
X516858D01*
X517800Y104080D02*
Y124628D01*
X445135Y83935D02*
X483841Y122641D01*
X517874Y96614D02*
X517915Y96655D01*
X395127Y80678D02*
X437271D01*
X391785Y79285D02*
X391800Y79300D01*
X390748Y72480D02*
Y74501D01*
X390300Y75583D02*
Y75700D01*
X476728Y229074D02*
X478600Y230946D01*
X476727Y229074D02*
X476728Y229074D01*
X476727Y229074D02*
X476728Y229074D01*
X488124Y228958D02*
X491761Y232595D01*
X482200Y228161D02*
X486200D01*
X478600Y230946D02*
X480809Y228737D01*
X471555Y228400D02*
X475100D01*
X392436Y153422D02*
X464484Y225471D01*
X389178Y99830D02*
Y145558D01*
X388780Y96811D02*
Y98868D01*
X517890Y127722D02*
Y155669D01*
X490912Y126692D02*
X516860D01*
X444342Y84729D02*
X483048Y123434D01*
X395127Y81800D02*
X437271D01*
X390991Y80078D02*
X391007Y80093D01*
X389178Y75530D02*
Y75700D01*
X388780Y72480D02*
Y74568D01*
X482277Y36415D02*
X482700Y36838D01*
X482276Y36414D02*
X482277Y36415D01*
X482276Y36414D02*
X482277Y36415D01*
X483012Y21850D02*
Y22750D01*
X481111Y27339D02*
Y33600D01*
X468012Y21850D02*
Y22509D01*
X466011Y27339D02*
Y33700D01*
X463300Y36838D02*
X463794Y36344D01*
X464889Y27098D02*
Y33700D01*
X463012Y21850D02*
Y22566D01*
X561438Y36514D02*
X561700Y36776D01*
X560087Y26513D02*
X560200Y26400D01*
X561752Y21850D02*
Y22653D01*
X559761Y27300D02*
Y32465D01*
X558639Y27218D02*
Y32465D01*
X556752Y21850D02*
Y22663D01*
X546752Y21850D02*
Y22412D01*
X544711Y27339D02*
Y33372D01*
X542000Y36838D02*
X542262Y36576D01*
X543589Y27098D02*
Y33372D01*
X541752Y21850D02*
Y22663D01*
X638872Y26428D02*
X638900Y26400D01*
X640492Y21850D02*
Y22556D01*
X638511Y27300D02*
Y33372D01*
X637389Y27300D02*
Y33372D01*
X635800Y36838D02*
X636062Y36576D01*
X637000Y26400D02*
X637028Y26428D01*
X635492Y21850D02*
Y22760D01*
X623872Y26428D02*
X623900Y26400D01*
X625492Y21850D02*
Y22556D01*
X623511Y27300D02*
Y33372D01*
X620800Y36838D02*
X621062Y36576D01*
X622389Y27098D02*
Y33372D01*
X620492Y21850D02*
Y22518D01*
X478400Y36838D02*
X478823Y36415D01*
X479989Y27339D02*
Y33600D01*
X478012Y21850D02*
Y22566D01*
X677500Y157900D02*
X678300D01*
X653842Y175571D02*
X667589Y161825D01*
X676000Y157500D02*
Y157989D01*
X676500Y157000D02*
X676600D01*
X490142Y178500D02*
X646771D01*
X416829Y109329D02*
X483071Y175571D01*
X414370Y96811D02*
Y98606D01*
X413900Y99741D02*
Y102258D01*
X677300Y315100D02*
X678207D01*
X674097Y315778D02*
X674522D01*
X675300Y314700D02*
Y315000D01*
X676000Y314000D02*
X676200D01*
X668022Y229742D02*
Y308663D01*
X486842Y184900D02*
X623180D01*
X410929Y113129D02*
X479771Y181971D01*
X408000Y99741D02*
Y106058D01*
X408465Y96811D02*
Y98620D01*
X621486Y236386D02*
X621500Y236400D01*
X621309Y228600D02*
Y235959D01*
X590644Y195158D02*
X619345Y223858D01*
X485642Y191900D02*
X582780D01*
X405029Y115429D02*
X478571Y188971D01*
X402100Y99641D02*
Y108358D01*
X402559Y96811D02*
Y98533D01*
X546506Y229826D02*
Y235690D01*
X483442Y199600D02*
X516280D01*
X399129Y119429D02*
X476371Y196671D01*
X396200Y99741D02*
Y112358D01*
X396654Y96811D02*
Y98646D01*
X490142Y179622D02*
X646771D01*
X675400Y159711D02*
X675734D01*
X412778Y99588D02*
Y102258D01*
X412402Y96811D02*
Y98680D01*
X678872Y318242D02*
X679134Y318504D01*
X673954Y316900D02*
X675631D01*
X669528Y315007D02*
X669629Y315108D01*
X666900Y229742D02*
Y308663D01*
X630251Y188951D02*
X663971Y222671D01*
X486842Y186022D02*
X623180D01*
X406878Y99588D02*
Y106058D01*
X406496Y96811D02*
Y98666D01*
X620007Y236393D02*
X620008Y236392D01*
X619900Y236500D02*
X620007Y236393D01*
X620008Y236392D01*
X619173Y238255D02*
Y240158D01*
X620187Y228600D02*
Y235959D01*
X589851Y195951D02*
X618551Y224652D01*
X485642Y193022D02*
X582780D01*
X400978Y99588D02*
Y108358D01*
X400591Y96811D02*
Y98653D01*
X545384Y229826D02*
Y235715D01*
X544370Y238162D02*
Y240158D01*
X523351Y203651D02*
X542455Y222755D01*
X483442Y200722D02*
X516280D01*
X395078Y99588D02*
Y112358D01*
X394685Y96811D02*
Y98640D01*
X674443Y79739D02*
X676500D01*
X677798Y79202D02*
X677799Y79201D01*
X678561Y78439D02*
X678562Y78438D01*
X677799Y79201D02*
X678561Y78439D01*
X677798Y79202D02*
X677799Y79201D01*
X678561Y78439D02*
X678562Y78438D01*
X384500Y97638D02*
Y99752D01*
X674443Y237439D02*
X676400D01*
X677699Y236901D02*
X678517Y236083D01*
X378600Y97625D02*
Y99993D01*
X640207Y225874D02*
Y235692D01*
X372700Y97611D02*
Y99993D01*
X565404Y224324D02*
Y235926D01*
X553843Y208156D02*
X562146Y216459D01*
X367126Y96811D02*
Y98713D01*
X366800Y97598D02*
Y99993D01*
X678390Y82190D02*
X678391Y82191D01*
X678390Y82190D02*
X678391Y82191D01*
X677458Y81258D02*
X678390Y82190D01*
X674443Y80861D02*
X676500D01*
X383200Y97598D02*
Y99993D01*
X677699Y239099D02*
X678346Y239746D01*
X674443Y238561D02*
X676400D01*
X377300Y97611D02*
Y99752D01*
X638071Y238160D02*
Y240158D01*
X639085Y225611D02*
Y235713D01*
X371400Y97625D02*
Y99752D01*
X564282Y224324D02*
Y235962D01*
X563268Y238409D02*
Y240158D01*
X553049Y208949D02*
X561353Y217253D01*
X549700Y201200D02*
X549938Y201438D01*
X365500Y97638D02*
Y99752D01*
X565000Y123600D02*
X565635D01*
X562900Y123200D02*
Y123420D01*
X563600Y122500D02*
X563900D01*
X553729Y120129D02*
X554960Y121360D01*
X550800Y87620D02*
Y113058D01*
X457242Y85700D02*
X468471D01*
X448236Y80835D02*
X450171Y82771D01*
X415212Y77578D02*
X440371D01*
X475542Y82771D02*
X482678Y75635D01*
X490542Y72378D02*
X535558D01*
X414000Y75583D02*
Y76476D01*
X414370Y72480D02*
Y74689D01*
X623511Y44000D02*
Y45369D01*
X624111Y42551D02*
X625100Y41562D01*
X408050Y66435D02*
Y69000D01*
X417520Y59622D02*
X609258D01*
X409100Y63900D02*
X410449Y62551D01*
X545754Y42108D02*
X546300Y41562D01*
X466061Y46194D02*
X466062Y46195D01*
X467769Y41731D02*
X468000Y41500D01*
X466882Y42618D02*
X467769Y41731D01*
X466061Y44600D02*
Y46194D01*
X566252Y126717D02*
X566535Y127000D01*
X562031Y125411D02*
X563100D01*
X549678Y87620D02*
Y113058D01*
X542629Y76429D02*
X546749Y80549D01*
X490542Y73500D02*
X535558D01*
X457242Y86822D02*
X468471D01*
X476335Y83565D02*
X483471Y76429D01*
X447442Y81629D02*
X449378Y83565D01*
X415212Y78700D02*
X440371D01*
X412878Y75700D02*
Y76476D01*
X412650Y75150D02*
X412651Y75151D01*
X412650Y75150D02*
X412651Y75151D01*
X412600Y75100D02*
X412650Y75150D01*
X412599Y75099D02*
X412600Y75100D01*
X412599Y75099D02*
X412600Y75100D01*
X412402Y72480D02*
Y74621D01*
X622389Y44000D02*
Y45369D01*
X616329Y55571D02*
X619460Y52440D01*
X406928Y66435D02*
Y69000D01*
X417520Y58500D02*
X609258D01*
X538429Y52471D02*
X541691Y49209D01*
X542000Y41562D02*
X542583Y42145D01*
X464937Y46195D02*
X464939Y46194D01*
X463181Y41681D02*
X464118Y42618D01*
X463000Y41500D02*
X463181Y41681D01*
X624545Y124155D02*
X624546Y124154D01*
X625832Y122868D02*
X625833Y122867D01*
X625832Y122868D02*
X625833Y122867D01*
X624546Y124154D02*
X625832Y122868D01*
X624545Y124155D02*
X624546Y124154D01*
X622643Y124339D02*
X624100D01*
X384500Y69507D02*
Y71653D01*
X378600Y69507D02*
Y71667D01*
X372700Y69507D02*
Y71680D01*
X625832Y126832D02*
X625833Y126833D01*
X625832Y126832D02*
X625833Y126833D01*
X624716Y125716D02*
X625832Y126832D01*
X622643Y125461D02*
X624100D01*
X383200Y69700D02*
Y71693D01*
X382600Y68300D02*
X382634Y68334D01*
X639200Y42462D02*
Y45000D01*
X377300Y69700D02*
Y71680D01*
X376700Y68300D02*
X376734Y68334D01*
X560400Y44638D02*
Y45000D01*
X371400Y69749D02*
Y71667D01*
X481700Y43976D02*
Y45000D01*
X558000Y44638D02*
Y45000D01*
X479300Y43735D02*
Y45000D01*
X552936Y120922D02*
X554167Y122153D01*
X543422Y75635D02*
X547542Y79756D01*
X566417Y238373D02*
Y240158D01*
X551995Y201305D02*
X552100Y201200D01*
X635827Y135569D02*
Y155512D01*
X576772Y136214D02*
Y155512D01*
X410136Y113922D02*
X478978Y182764D01*
X631044Y188158D02*
X664764Y221878D01*
X641221Y238139D02*
Y240158D01*
X547520Y238138D02*
Y240158D01*
X687008Y87623D02*
Y90453D01*
X678938Y161038D02*
X679200Y161300D01*
X654635Y176365D02*
X668382Y162618D01*
X416036Y110122D02*
X482278Y176365D01*
X404236Y116222D02*
X477778Y189764D01*
X622323Y238387D02*
Y240158D01*
X524144Y202858D02*
X543248Y221961D01*
X398336Y120222D02*
X475578Y197465D01*
X687008Y166565D02*
Y169193D01*
Y245223D02*
Y247933D01*
X684619Y318819D02*
X685300Y319500D01*
X687008Y323623D02*
Y325689D01*
X636800Y42562D02*
Y45000D01*
X639838Y36576D02*
X640100Y36838D01*
X624838Y36576D02*
X625100Y36838D01*
X556700Y36776D02*
X556962Y36514D01*
X546038Y36576D02*
X546300Y36838D01*
X467106Y36344D02*
X467600Y36838D01*
X408050Y69000D02*
X408465Y72480D01*
X406496D02*
X406928Y69000D01*
X617122Y56365D02*
X620253Y53233D01*
X620800Y41562D02*
X621789Y42551D01*
X408307Y63107D02*
X409656Y61758D01*
X539224Y53267D02*
X542481Y50010D01*
X464939Y44600D02*
Y46194D01*
X631710Y127310D02*
X632898Y128498D01*
X635827Y96457D02*
Y114031D01*
X631539Y122461D02*
X632898Y121102D01*
X572011Y127311D02*
X573843Y129143D01*
X576772Y96457D02*
Y113486D01*
X572011Y122389D02*
X573843Y120557D01*
X684566Y240366D02*
X685300Y241100D01*
X684566Y235534D02*
X685200Y234900D01*
X687008Y228445D02*
Y230535D01*
X684487Y313913D02*
X685300Y313100D01*
X687008Y307185D02*
Y308977D01*
X684610Y82810D02*
X685300Y83500D01*
X684439Y77961D02*
X685200Y77200D01*
X687008Y70965D02*
Y72835D01*
X684566Y161566D02*
X685200Y162200D01*
X684566Y156734D02*
X685300Y156000D01*
X687008Y149705D02*
Y151877D01*
X517874Y155669D02*
X517890D01*
D11*
X539224Y53267D02*
G03*
X531358Y56525I-7867J-7867D01*
G01*
X406746Y59454D02*
G03*
X413817Y56525I7071J7071D01*
G01*
X402100Y66100D02*
G03*
X403514Y62686I4828J0D01*
G01*
X466062Y46195D02*
G03*
X464696Y49496I-4667J0D01*
G01*
X463824Y50367D02*
G03*
X455958Y53625I-7867J-7867D01*
G01*
X396200Y65600D02*
G03*
X397897Y61503I5794J0D01*
G01*
X402846Y56554D02*
G03*
X409917Y53625I7071J7071D01*
G01*
X538429Y52471D02*
G03*
X531358Y55400I-7071J-7071D01*
G01*
X405951Y58658D02*
G03*
X413817Y55400I7867J7867D01*
G01*
X400975Y66100D02*
G03*
X402719Y61890I5954J0D01*
G01*
X464937Y46195D02*
G03*
X463900Y48700I-3542J0D01*
G01*
X463029Y49571D02*
G03*
X455958Y52500I-7071J-7071D01*
G01*
X395075Y65600D02*
G03*
X397102Y60707I6919J0D01*
G01*
X402051Y55759D02*
G03*
X409917Y52500I7867J7867D01*
G01*
X366800Y68800D02*
G03*
X367300Y68300I500J0D01*
G01*
X367126Y72480D02*
G03*
X366800Y72154I0J-326D01*
G01*
X364900Y68300D02*
G03*
X365500Y68900I0J600D01*
G01*
X413817Y56525D02*
X531358D01*
X402100Y66100D02*
Y69600D01*
X403514Y62686D02*
X406746Y59454D01*
X463824Y50367D02*
X464696Y49496D01*
X396200Y65600D02*
Y69600D01*
X409917Y53625D02*
X455958D01*
X397897Y61503D02*
X402846Y56554D01*
X413817Y55400D02*
X531358D01*
X400975Y66100D02*
Y69600D01*
X402719Y61890D02*
X405951Y58658D01*
X463029Y49571D02*
X463900Y48700D01*
X395075Y65600D02*
Y69619D01*
X409917Y52500D02*
X455958D01*
X397102Y60707D02*
X402051Y55759D01*
X478231Y41731D02*
X478900Y42400D01*
X478000Y41500D02*
X478231Y41731D01*
X366800Y68800D02*
Y72154D01*
X482819Y41681D02*
X483000Y41500D01*
X482100Y42400D02*
X482819Y41681D01*
X365158Y69900D02*
X365500D01*
Y68900D02*
Y69900D01*
X365158D02*
Y72480D01*
X402100Y69600D02*
X402559Y72480D01*
X400591D02*
X400975Y69600D01*
X396200Y69600D02*
X396654Y72480D01*
X394685D02*
X395075Y69619D01*
D12*
X404489Y68300D02*
G03*
X404528Y68393I-93J93D01*
G01*
X416300Y68300D02*
G03*
X416339Y68393I-93J93D01*
G01*
X410433Y68435D02*
G03*
X410489Y68300I190J0D01*
G01*
X422244Y66235D02*
G03*
X422300Y66100I191J0D01*
G01*
X404528Y68393D02*
Y72480D01*
X398589Y68300D02*
X398622Y68333D01*
Y72480D01*
X392689Y68300D02*
X392717Y68328D01*
Y72480D01*
X553800Y245500D02*
X553819Y245481D01*
Y240158D02*
Y245481D01*
X556968Y245468D02*
X557000Y245500D01*
X556968Y240158D02*
Y245468D01*
X628600Y245400D02*
X628622Y245378D01*
Y240158D02*
Y245378D01*
X631772Y245372D02*
X631800Y245400D01*
X631772Y240158D02*
Y245372D01*
X325200Y119400D02*
X325200Y119400D01*
X325200Y119400D02*
Y122738D01*
X320000Y119400D02*
X320000Y119400D01*
X320000Y119400D02*
Y122738D01*
X314800Y119400D02*
X314800Y119400D01*
X314800Y119400D02*
Y122738D01*
X304400Y119400D02*
X304400Y119400D01*
X304400Y119400D02*
Y122738D01*
X299200Y119400D02*
X299200Y119400D01*
X299200Y119400D02*
Y122738D01*
X246300Y119400D02*
X246300Y119400D01*
Y122738D01*
X241100Y119400D02*
X241100Y119400D01*
Y122738D01*
X235900Y119400D02*
X235900Y119400D01*
Y122738D01*
X225500Y119400D02*
X225500Y119400D01*
Y122738D01*
X220300Y119400D02*
X220300Y119400D01*
Y122738D01*
X416300Y294500D02*
X416339Y294539D01*
Y300827D01*
X422244Y329444D02*
X422300Y329500D01*
X422244Y325157D02*
Y329444D01*
X420276Y331576D02*
X420300Y331600D01*
X420276Y325157D02*
Y331576D01*
X418300Y329500D02*
X418307Y329493D01*
Y325157D02*
Y329493D01*
X369094Y329495D02*
X369100Y329500D01*
X369094Y325157D02*
Y329495D01*
X365158Y329457D02*
X365200Y329500D01*
X365158Y325157D02*
Y329457D01*
X392700Y103300D02*
X392717Y103283D01*
Y96811D02*
Y103283D01*
X375000Y103300D02*
X375000Y103300D01*
Y96811D02*
Y103300D01*
X369094Y103295D02*
X369100Y103300D01*
X369094Y96811D02*
Y103295D01*
X422244Y103244D02*
X422300Y103300D01*
X422244Y96811D02*
Y103244D01*
X420276Y101176D02*
X420300Y101200D01*
X420276Y96811D02*
Y101176D01*
X418300Y103300D02*
X418307Y103293D01*
Y96811D02*
Y103293D01*
X416300Y101200D02*
X416339Y101161D01*
Y96811D02*
Y101161D01*
X410400Y101200D02*
X410433Y101167D01*
Y96811D02*
Y101167D01*
X404500Y101200D02*
X404528Y101172D01*
Y96811D02*
Y101172D01*
X398600Y101200D02*
X398622Y101178D01*
Y96811D02*
Y101178D01*
X420276Y68324D02*
X420300Y68300D01*
X420276Y68324D02*
Y72480D01*
X418300Y66100D02*
X418307Y66107D01*
Y72480D01*
X416339Y68393D02*
Y72480D01*
X386800Y66100D02*
X386811Y66111D01*
Y72480D01*
X503563Y313386D02*
Y320263D01*
X507874Y324574D01*
Y328346D01*
X507874Y328346D01*
X513779D01*
X498563Y313386D02*
Y321863D01*
X501968Y325269D01*
Y328346D01*
X501968Y328346D02*
X501968Y328346D01*
X496063Y328346D02*
X501968D01*
X493563Y313386D02*
Y321737D01*
X490158Y325143D02*
X493563Y321737D01*
X490158Y325143D02*
Y328346D01*
X490158Y328346D02*
X490158Y328346D01*
X484252Y328346D02*
X490158D01*
X386800Y96811D02*
X386811D01*
X369094Y72480D02*
Y76595D01*
X369100Y76600D01*
X375000Y72480D02*
Y76600D01*
X375000Y76600D02*
X375000Y76600D01*
X380906Y72480D02*
Y76594D01*
X380900Y76600D02*
X380906Y76594D01*
Y92606D02*
Y96811D01*
X380900Y92600D02*
X380906Y92606D01*
X371063Y333163D02*
X371100Y333200D01*
X371063Y325157D02*
Y333163D01*
X367126Y333126D02*
X367200Y333200D01*
X367126Y325157D02*
Y333126D01*
X51600Y55600D02*
Y59391D01*
X51600Y55600D02*
X51600Y55600D01*
X46991Y59391D02*
X51600D01*
X46900Y59300D02*
X46991Y59391D01*
X51600D02*
X56291D01*
X56300Y59400D01*
X386800Y92600D02*
Y96811D01*
X410433Y68435D02*
Y72480D01*
X422244Y66235D02*
Y72480D01*
X491761Y212595D02*
X506525D01*
X491728Y212562D02*
X491761Y212595D01*
D13*
X567992Y272441D02*
D03*
X564843D02*
D03*
X561693D02*
D03*
X558543D02*
D03*
X555394D02*
D03*
X552244D02*
D03*
X549094D02*
D03*
X545945D02*
D03*
X542795D02*
D03*
X539646D02*
D03*
X541221Y240158D02*
D03*
X544370D02*
D03*
X547520D02*
D03*
X550669D02*
D03*
X553819D02*
D03*
X556968D02*
D03*
X560118D02*
D03*
X563268D02*
D03*
X566417D02*
D03*
X569567D02*
D03*
X644370Y240158D02*
D03*
X641221D02*
D03*
X638071D02*
D03*
X634921D02*
D03*
X631772D02*
D03*
X628622D02*
D03*
X625472D02*
D03*
X622323D02*
D03*
X619173D02*
D03*
X616024D02*
D03*
X614449Y272441D02*
D03*
X617598D02*
D03*
X620748D02*
D03*
X623898D02*
D03*
X627047D02*
D03*
X630197D02*
D03*
X633347D02*
D03*
X636496D02*
D03*
X639646D02*
D03*
X642795D02*
D03*
D14*
X536752Y21850D02*
D03*
X541752D02*
D03*
X546752D02*
D03*
X551752D02*
D03*
X556752D02*
D03*
X561752D02*
D03*
X566752D02*
D03*
X488012D02*
D03*
X483012D02*
D03*
X478012D02*
D03*
X473012D02*
D03*
X468012D02*
D03*
X463012D02*
D03*
X458012D02*
D03*
X615492D02*
D03*
X620492D02*
D03*
X625492D02*
D03*
X630492D02*
D03*
X635492D02*
D03*
X640492D02*
D03*
X645492D02*
D03*
D15*
X513779Y328346D02*
D03*
Y333071D02*
D03*
X496063Y333071D02*
D03*
Y328346D02*
D03*
X484252Y333071D02*
D03*
Y328346D02*
D03*
X507874Y333071D02*
D03*
Y328346D02*
D03*
X501968Y328346D02*
D03*
Y333071D02*
D03*
X490158Y328346D02*
D03*
Y333071D02*
D03*
X309600Y127462D02*
D03*
Y122738D02*
D03*
X330400Y127462D02*
D03*
Y122738D02*
D03*
X299200Y122738D02*
D03*
Y127462D02*
D03*
X304400Y122738D02*
D03*
Y127462D02*
D03*
X314800Y122738D02*
D03*
Y127462D02*
D03*
X320000Y122738D02*
D03*
Y127462D02*
D03*
X325200Y122738D02*
D03*
Y127462D02*
D03*
X230700Y127462D02*
D03*
Y122738D02*
D03*
X251500Y127462D02*
D03*
Y122738D02*
D03*
X220300Y127462D02*
D03*
Y122738D02*
D03*
X225500Y127462D02*
D03*
Y122738D02*
D03*
X235900Y127462D02*
D03*
Y122738D02*
D03*
X241100Y127462D02*
D03*
Y122738D02*
D03*
X246300Y127462D02*
D03*
Y122738D02*
D03*
D16*
X202972Y312992D02*
D03*
X269468D02*
D03*
X360453D02*
D03*
X426949D02*
D03*
X348209D02*
D03*
X281713D02*
D03*
X281713Y84646D02*
D03*
X348209D02*
D03*
X426949D02*
D03*
X360453D02*
D03*
X269469D02*
D03*
X202973D02*
D03*
D17*
X223721Y312992D02*
D03*
X248721D02*
D03*
X381201D02*
D03*
X406201D02*
D03*
X327461D02*
D03*
X302461D02*
D03*
X302461Y84646D02*
D03*
X327461D02*
D03*
X406201D02*
D03*
X381201D02*
D03*
X248721D02*
D03*
X223721D02*
D03*
D18*
X422244Y300827D02*
D03*
X422244Y325157D02*
D03*
X420276D02*
D03*
X418307D02*
D03*
X416339D02*
D03*
X414370D02*
D03*
X412402D02*
D03*
X410433D02*
D03*
X408465D02*
D03*
X406496D02*
D03*
X404528D02*
D03*
X402559D02*
D03*
X400591D02*
D03*
X398622D02*
D03*
X396654D02*
D03*
X394685D02*
D03*
X392717D02*
D03*
X390748D02*
D03*
X388779D02*
D03*
X386811D02*
D03*
X384842D02*
D03*
X382874D02*
D03*
X380906D02*
D03*
X378937D02*
D03*
X376969D02*
D03*
X375000D02*
D03*
X373031D02*
D03*
X371063D02*
D03*
X369094D02*
D03*
X367126D02*
D03*
X365158D02*
D03*
X343504D02*
D03*
X341535D02*
D03*
X339567D02*
D03*
X337598D02*
D03*
X335630D02*
D03*
X333661D02*
D03*
X331693D02*
D03*
X329724D02*
D03*
X327756D02*
D03*
X325787D02*
D03*
X323819D02*
D03*
X321850D02*
D03*
X319882D02*
D03*
X317913D02*
D03*
X315945D02*
D03*
X313976D02*
D03*
X312008D02*
D03*
X310039D02*
D03*
X308071D02*
D03*
X306102D02*
D03*
X304134D02*
D03*
X302165D02*
D03*
X300197D02*
D03*
X298228D02*
D03*
X296260D02*
D03*
X294291D02*
D03*
X292323D02*
D03*
X290354D02*
D03*
X288386D02*
D03*
X286417D02*
D03*
X264764D02*
D03*
X262795D02*
D03*
X260827D02*
D03*
X258858D02*
D03*
X256890D02*
D03*
X254921D02*
D03*
X252953D02*
D03*
X250984D02*
D03*
X249016D02*
D03*
X247047D02*
D03*
X245079D02*
D03*
X243110D02*
D03*
X241142D02*
D03*
X239173D02*
D03*
X237205D02*
D03*
X235236D02*
D03*
X233268D02*
D03*
X231299D02*
D03*
X229331D02*
D03*
X227362D02*
D03*
X225394D02*
D03*
X223425D02*
D03*
X221457D02*
D03*
X219488D02*
D03*
X217520D02*
D03*
X215551D02*
D03*
X213583D02*
D03*
X211614D02*
D03*
X209646D02*
D03*
X207677D02*
D03*
X420276Y300827D02*
D03*
X418307D02*
D03*
X416339D02*
D03*
X414370D02*
D03*
X412402D02*
D03*
X410433D02*
D03*
X408465D02*
D03*
X406496D02*
D03*
X404528D02*
D03*
X402559D02*
D03*
X400591D02*
D03*
X398622D02*
D03*
X396654D02*
D03*
X394685D02*
D03*
X392717D02*
D03*
X390748D02*
D03*
X388779D02*
D03*
X386811D02*
D03*
X384842D02*
D03*
X382874D02*
D03*
X380906D02*
D03*
X378937D02*
D03*
X376969D02*
D03*
X375000D02*
D03*
X373031D02*
D03*
X371063D02*
D03*
X369094D02*
D03*
X367126D02*
D03*
X365158D02*
D03*
X343504D02*
D03*
X341535D02*
D03*
X339567D02*
D03*
X337598D02*
D03*
X335630D02*
D03*
X333661D02*
D03*
X331693D02*
D03*
X329724D02*
D03*
X327756D02*
D03*
X325787D02*
D03*
X323819D02*
D03*
X321850D02*
D03*
X319882D02*
D03*
X317913D02*
D03*
X315945D02*
D03*
X313976D02*
D03*
X312008D02*
D03*
X310039D02*
D03*
X308071D02*
D03*
X306102D02*
D03*
X304134D02*
D03*
X302165D02*
D03*
X300197D02*
D03*
X298228D02*
D03*
X296260D02*
D03*
X294291D02*
D03*
X292323D02*
D03*
X290354D02*
D03*
X288386D02*
D03*
X286417D02*
D03*
X264764D02*
D03*
X262795D02*
D03*
X260827D02*
D03*
X258858D02*
D03*
X256890D02*
D03*
X254921D02*
D03*
X252953D02*
D03*
X250984D02*
D03*
X249016D02*
D03*
X247047D02*
D03*
X245079D02*
D03*
X243110D02*
D03*
X241142D02*
D03*
X239173D02*
D03*
X237205D02*
D03*
X235236D02*
D03*
X233268D02*
D03*
X231299D02*
D03*
X229331D02*
D03*
X227362D02*
D03*
X225394D02*
D03*
X223425D02*
D03*
X221457D02*
D03*
X219488D02*
D03*
X217520D02*
D03*
X215551D02*
D03*
X213583D02*
D03*
X211614D02*
D03*
X209646D02*
D03*
X207677D02*
D03*
X207677Y72480D02*
D03*
X209646D02*
D03*
X211614D02*
D03*
X213583D02*
D03*
X215551D02*
D03*
X217520D02*
D03*
X219488D02*
D03*
X221457D02*
D03*
X223425D02*
D03*
X225394D02*
D03*
X227362D02*
D03*
X229331D02*
D03*
X231299D02*
D03*
X233268D02*
D03*
X235236D02*
D03*
X237205D02*
D03*
X239173D02*
D03*
X241142D02*
D03*
X243110D02*
D03*
X245079D02*
D03*
X247047D02*
D03*
X249016D02*
D03*
X250984D02*
D03*
X252953D02*
D03*
X254921D02*
D03*
X256890D02*
D03*
X258858D02*
D03*
X260827D02*
D03*
X262795D02*
D03*
X264764D02*
D03*
X286417D02*
D03*
X288386D02*
D03*
X290354D02*
D03*
X292323D02*
D03*
X294291D02*
D03*
X296260D02*
D03*
X298228D02*
D03*
X300197D02*
D03*
X302165D02*
D03*
X304134D02*
D03*
X306102D02*
D03*
X308071D02*
D03*
X310039D02*
D03*
X312008D02*
D03*
X313976D02*
D03*
X315945D02*
D03*
X317914D02*
D03*
X319882D02*
D03*
X321850D02*
D03*
X323819D02*
D03*
X325787D02*
D03*
X327756D02*
D03*
X329725D02*
D03*
X331693D02*
D03*
X333662D02*
D03*
X335630D02*
D03*
X337598D02*
D03*
X339567D02*
D03*
X341535D02*
D03*
X343504D02*
D03*
X365158D02*
D03*
X367126D02*
D03*
X369094D02*
D03*
X371063D02*
D03*
X373032D02*
D03*
X375000D02*
D03*
X376969D02*
D03*
X378937D02*
D03*
X380906D02*
D03*
X382874D02*
D03*
X384843D02*
D03*
X386811D02*
D03*
X388780D02*
D03*
X390748D02*
D03*
X392717D02*
D03*
X394685D02*
D03*
X396654D02*
D03*
X398622D02*
D03*
X400591D02*
D03*
X402559D02*
D03*
X404528D02*
D03*
X406496D02*
D03*
X408465D02*
D03*
X410433D02*
D03*
X412402D02*
D03*
X414370D02*
D03*
X416339D02*
D03*
X418307D02*
D03*
X420276D02*
D03*
X207677Y96811D02*
D03*
X209646D02*
D03*
X211614D02*
D03*
X213583D02*
D03*
X215551D02*
D03*
X217520D02*
D03*
X219488D02*
D03*
X221457D02*
D03*
X223425D02*
D03*
X225394D02*
D03*
X227362D02*
D03*
X229331D02*
D03*
X231299D02*
D03*
X233268D02*
D03*
X235236D02*
D03*
X237205D02*
D03*
X239173D02*
D03*
X241142D02*
D03*
X243110D02*
D03*
X245079D02*
D03*
X247047D02*
D03*
X249016D02*
D03*
X250984D02*
D03*
X252953D02*
D03*
X254921D02*
D03*
X256890D02*
D03*
X258858D02*
D03*
X260827D02*
D03*
X262795D02*
D03*
X264764D02*
D03*
X286417D02*
D03*
X288386D02*
D03*
X290354D02*
D03*
X292323D02*
D03*
X294291D02*
D03*
X296260D02*
D03*
X298228D02*
D03*
X300197D02*
D03*
X302165D02*
D03*
X304134D02*
D03*
X306102D02*
D03*
X308071D02*
D03*
X310039D02*
D03*
X312008D02*
D03*
X313976D02*
D03*
X315945D02*
D03*
X317913D02*
D03*
X319882D02*
D03*
X321850D02*
D03*
X323819D02*
D03*
X325787D02*
D03*
X327756D02*
D03*
X329725D02*
D03*
X331693D02*
D03*
X333662D02*
D03*
X335630D02*
D03*
X337598D02*
D03*
X339567D02*
D03*
X341535D02*
D03*
X343504D02*
D03*
X365158D02*
D03*
X367126D02*
D03*
X369094D02*
D03*
X371063D02*
D03*
X373031D02*
D03*
X375000D02*
D03*
X376969D02*
D03*
X378937D02*
D03*
X380906D02*
D03*
X382874D02*
D03*
X384843D02*
D03*
X386811D02*
D03*
X388780D02*
D03*
X390748D02*
D03*
X392717D02*
D03*
X394685D02*
D03*
X396654D02*
D03*
X398622D02*
D03*
X400591D02*
D03*
X402559D02*
D03*
X404528D02*
D03*
X406496D02*
D03*
X408465D02*
D03*
X410433D02*
D03*
X412402D02*
D03*
X414370D02*
D03*
X416339D02*
D03*
X418307D02*
D03*
X420276D02*
D03*
X422244D02*
D03*
X422244Y72480D02*
D03*
D19*
X498563Y313386D02*
D03*
X493563D02*
D03*
X488563D02*
D03*
X503563Y292913D02*
D03*
X498563D02*
D03*
X493563D02*
D03*
X488563D02*
D03*
D20*
X503563Y313386D02*
D03*
D21*
X479500Y316000D02*
D03*
Y309307D02*
D03*
X478600Y230946D02*
D03*
Y224254D02*
D03*
D22*
X679200Y157000D02*
D03*
X683924D02*
D03*
X679200Y161300D02*
D03*
X683924D02*
D03*
X679138Y78200D02*
D03*
X683862D02*
D03*
X679138Y82500D02*
D03*
X683862D02*
D03*
X679134Y314173D02*
D03*
X683858D02*
D03*
X679134Y318504D02*
D03*
X683858D02*
D03*
X679200Y235800D02*
D03*
X683924D02*
D03*
X679200Y240100D02*
D03*
X683924D02*
D03*
X566535Y122700D02*
D03*
X571260D02*
D03*
X566535Y127000D02*
D03*
X571260D02*
D03*
X626238Y122700D02*
D03*
X630962D02*
D03*
X626238Y127000D02*
D03*
X630962D02*
D03*
D23*
X512200Y297462D02*
D03*
Y292738D02*
D03*
X620800Y41562D02*
D03*
Y36838D02*
D03*
X625100Y41562D02*
D03*
Y36838D02*
D03*
X635800Y41562D02*
D03*
Y36838D02*
D03*
X640100Y41562D02*
D03*
Y36838D02*
D03*
X542000Y41562D02*
D03*
Y36838D02*
D03*
X546300Y41562D02*
D03*
Y36838D02*
D03*
X556700Y41500D02*
D03*
Y36776D02*
D03*
X561700Y41500D02*
D03*
Y36776D02*
D03*
X463300Y41562D02*
D03*
Y36838D02*
D03*
X467600Y41562D02*
D03*
Y36838D02*
D03*
X478400Y41562D02*
D03*
Y36838D02*
D03*
X482700Y41562D02*
D03*
Y36838D02*
D03*
X483200Y212562D02*
D03*
Y207838D02*
D03*
D24*
X51600Y70809D02*
D03*
Y59391D02*
D03*
D25*
X37402Y362205D02*
D03*
X47244Y33465D02*
D03*
X675197Y35433D02*
D03*
X671260Y362205D02*
D03*
X189100Y124700D02*
D03*
X198819Y287402D02*
D03*
D26*
X687008Y169193D02*
D03*
Y149705D02*
D03*
Y90453D02*
D03*
Y70965D02*
D03*
Y228445D02*
D03*
Y247933D02*
D03*
X687008Y307185D02*
D03*
X687008Y325689D02*
D03*
D27*
X692815Y175197D02*
D03*
X681201D02*
D03*
X681201Y143701D02*
D03*
X692815D02*
D03*
X692815Y96457D02*
D03*
X681201D02*
D03*
X681201Y64961D02*
D03*
X692815D02*
D03*
X681201Y222441D02*
D03*
X692815D02*
D03*
X692815Y253937D02*
D03*
X681201D02*
D03*
Y301181D02*
D03*
X692815D02*
D03*
Y331693D02*
D03*
X681201D02*
D03*
D28*
X506525Y232595D02*
D03*
Y212595D02*
D03*
Y222595D02*
D03*
X491761D02*
D03*
Y212595D02*
D03*
Y232595D02*
D03*
D29*
X221457Y325157D02*
Y329857D01*
X140714Y335900D02*
X215414D01*
X221457Y329857D01*
X219488Y325157D02*
Y330412D01*
X215000Y334900D02*
X219488Y330412D01*
X140300Y334900D02*
X215000D01*
X639600Y277700D02*
X639646Y277654D01*
Y272441D02*
Y277654D01*
X636496Y277696D02*
X636500Y277700D01*
X636496Y272441D02*
Y277696D01*
X633300Y277700D02*
X633347Y277654D01*
Y272441D02*
Y277654D01*
X630197Y277697D02*
X630200Y277700D01*
X630197Y272441D02*
Y277697D01*
X627000Y277700D02*
X627047Y277653D01*
Y272441D02*
Y277653D01*
X623898Y277698D02*
X623900Y277700D01*
X623898Y272441D02*
Y277698D01*
X620700Y277700D02*
X620748Y277652D01*
Y272441D02*
Y277652D01*
X564800Y277700D02*
X564843Y277658D01*
Y272441D02*
Y277658D01*
X561693Y277693D02*
X561700Y277700D01*
X561693Y272441D02*
Y277693D01*
X558500Y277700D02*
X558543Y277657D01*
Y272441D02*
Y277657D01*
X555394Y277694D02*
X555400Y277700D01*
X555394Y272441D02*
Y277694D01*
X552200Y277700D02*
X552244Y277656D01*
Y272441D02*
Y277656D01*
X549094Y277695D02*
X549100Y277700D01*
X549094Y272441D02*
Y277695D01*
X545900Y277700D02*
X545945Y277655D01*
Y272441D02*
Y277655D01*
X330400Y130400D02*
X330400Y130400D01*
Y127462D02*
Y130400D01*
X325200D02*
X325200Y130400D01*
X325200Y127462D02*
Y130400D01*
X320000D02*
X320000Y130400D01*
X320000Y127462D02*
Y130400D01*
X314800D02*
X314800Y130400D01*
X314800Y127462D02*
Y130400D01*
X309600Y130400D02*
X309600Y130400D01*
Y127462D02*
Y130400D01*
X299200D02*
X299200Y130400D01*
X299200Y127462D02*
Y130400D01*
X251500Y130400D02*
X251500Y130400D01*
Y127462D02*
Y130400D01*
X246300Y130400D02*
X246300Y130400D01*
Y127462D02*
Y130400D01*
X241100Y130400D02*
X241100Y130400D01*
Y127462D02*
Y130400D01*
X235900Y130400D02*
X235900Y130400D01*
Y127462D02*
Y130400D01*
X230700Y130400D02*
X230700Y130400D01*
Y127462D02*
Y130400D01*
X220300Y130400D02*
X220300Y130400D01*
Y127462D02*
Y130400D01*
X418300Y296500D02*
X418307Y296507D01*
Y300827D01*
X343500Y294400D02*
X343504Y294404D01*
Y300827D01*
X341535Y296565D02*
X341600Y296500D01*
X341535Y296565D02*
Y300827D01*
X339500Y294400D02*
X339567Y294467D01*
Y300827D01*
X337598Y296502D02*
X337600Y296500D01*
X337598Y296502D02*
Y300827D01*
X335600Y294400D02*
X335630Y294430D01*
Y300827D01*
X333661Y296539D02*
X333700Y296500D01*
X333661Y296539D02*
Y300827D01*
X331693Y294407D02*
X331700Y294400D01*
X331693Y294407D02*
Y300827D01*
X329724Y296576D02*
X329800Y296500D01*
X329724Y296576D02*
Y300827D01*
X327700Y294400D02*
X327756Y294456D01*
Y300827D01*
X325787Y296513D02*
X325800Y296500D01*
X325787Y296513D02*
Y300827D01*
X323800Y294400D02*
X323819Y294419D01*
Y300827D01*
X321850Y296550D02*
X321900Y296500D01*
X321850Y296550D02*
Y300827D01*
X319800Y294400D02*
X319882Y294482D01*
Y300827D01*
X317900Y296500D02*
X317913Y296513D01*
Y300827D01*
X315900Y294400D02*
X315945Y294445D01*
Y300827D01*
X313976Y296524D02*
X314000Y296500D01*
X313976Y296524D02*
Y300827D01*
X312000Y294400D02*
X312008Y294408D01*
Y300827D01*
X310039Y296561D02*
X310100Y296500D01*
X310039Y296561D02*
Y300827D01*
X306100Y296500D02*
X306102Y296502D01*
Y300827D01*
X304100Y294400D02*
X304134Y294434D01*
Y300827D01*
X300197Y294403D02*
X300200Y294400D01*
X300197Y294403D02*
Y300827D01*
X298228Y296572D02*
X298300Y296500D01*
X298228Y296572D02*
Y300827D01*
X294291Y296509D02*
X294300Y296500D01*
X294291Y296509D02*
Y300827D01*
X292300Y294400D02*
X292323Y294423D01*
Y300827D01*
X288300Y294400D02*
X288386Y294486D01*
Y300827D01*
X286400Y296500D02*
X286417Y296517D01*
Y300827D01*
X264764Y294436D02*
X264800Y294400D01*
X264764Y294436D02*
Y300827D01*
X262795Y296405D02*
X262800Y296400D01*
X262795Y296405D02*
Y300827D01*
X260800Y294400D02*
X260827Y294427D01*
Y300827D01*
X256890Y294410D02*
X256900Y294400D01*
X256890Y294410D02*
Y300827D01*
X254900Y296400D02*
X254921Y296421D01*
Y300827D01*
X252953Y294447D02*
X253000Y294400D01*
X252953Y294447D02*
Y300827D01*
X250984Y296416D02*
X251000Y296400D01*
X250984Y296416D02*
Y300827D01*
X249000Y294400D02*
X249016Y294416D01*
Y300827D01*
X247000Y296400D02*
X247047Y296447D01*
Y300827D01*
X245079Y294421D02*
X245100Y294400D01*
X245079Y294421D02*
Y300827D01*
X243100Y296400D02*
X243110Y296410D01*
Y300827D01*
X241100Y294400D02*
X241142Y294442D01*
Y300827D01*
X239100Y296400D02*
X239173Y296473D01*
Y300827D01*
X237200Y294400D02*
X237205Y294405D01*
Y300827D01*
X235200Y296400D02*
X235236Y296436D01*
Y300827D01*
X233268Y294432D02*
X233300Y294400D01*
X233268Y294432D02*
Y300827D01*
X231299Y296401D02*
X231300Y296400D01*
X231299Y296401D02*
Y300827D01*
X229331Y294469D02*
X229400Y294400D01*
X229331Y294469D02*
Y300827D01*
X227362Y296438D02*
X227400Y296400D01*
X227362Y296438D02*
Y300827D01*
X225394Y294406D02*
X225400Y294400D01*
X225394Y294406D02*
Y300827D01*
X221457Y294443D02*
X221500Y294400D01*
X221457Y294443D02*
Y300827D01*
X219488Y296412D02*
X219500Y296400D01*
X219488Y296412D02*
Y300827D01*
X215500Y296400D02*
X215551Y296451D01*
Y300827D01*
X213583Y294417D02*
X213600Y294400D01*
X213583Y294417D02*
Y300827D01*
X209600Y294400D02*
X209646Y294446D01*
Y300827D01*
X207677Y296423D02*
X207700Y296400D01*
X207677Y296423D02*
Y300827D01*
X343500Y329500D02*
X343504Y329496D01*
Y325157D02*
Y329496D01*
X264764Y329464D02*
X264800Y329500D01*
X264764Y325157D02*
Y329464D01*
X264764Y68125D02*
X264789Y68100D01*
X264764Y68125D02*
Y72480D01*
Y103275D02*
X264789Y103300D01*
X264764Y96811D02*
Y103275D01*
X262789Y101200D02*
X262795Y101194D01*
Y96811D02*
Y101194D01*
X260789Y103300D02*
X260827Y103262D01*
Y96811D02*
Y103262D01*
X256889Y103300D02*
X256890Y103299D01*
Y96811D02*
Y103299D01*
X254889Y101200D02*
X254921Y101168D01*
Y96811D02*
Y101168D01*
X252953Y103264D02*
X252989Y103300D01*
X252953Y96811D02*
Y103264D01*
X250984Y101195D02*
X250989Y101200D01*
X250984Y96811D02*
Y101195D01*
X248989Y103300D02*
X249016Y103273D01*
Y96811D02*
Y103273D01*
X245079Y103290D02*
X245089Y103300D01*
X245079Y96811D02*
Y103290D01*
X243089Y101200D02*
X243110Y101179D01*
Y96811D02*
Y101179D01*
X239173Y101184D02*
X239189Y101200D01*
X239173Y96811D02*
Y101184D01*
X237189Y103300D02*
X237205Y103284D01*
Y96811D02*
Y103284D01*
X235236Y101147D02*
X235289Y101200D01*
X235236Y96811D02*
Y101147D01*
X233268Y103279D02*
X233289Y103300D01*
X233268Y96811D02*
Y103279D01*
X231289Y101200D02*
X231299Y101190D01*
Y96811D02*
Y101190D01*
X227362Y101173D02*
X227389Y101200D01*
X227362Y96811D02*
Y101173D01*
X225389Y103300D02*
X225394Y103295D01*
Y96811D02*
Y103295D01*
X221457Y103268D02*
X221489Y103300D01*
X221457Y96811D02*
Y103268D01*
X219488Y101199D02*
X219489Y101200D01*
X219488Y96811D02*
Y101199D01*
X215551Y101162D02*
X215589Y101200D01*
X215551Y96811D02*
Y101162D01*
X213583Y103294D02*
X213589Y103300D01*
X213583Y96811D02*
Y103294D01*
X209646Y103257D02*
X209689Y103300D01*
X209646Y96811D02*
Y103257D01*
X207677Y101188D02*
X207689Y101200D01*
X207677Y96811D02*
Y101188D01*
X343489Y68100D02*
X343504Y68115D01*
Y72480D01*
X286389Y101200D02*
X286417Y101172D01*
Y96811D02*
Y101172D01*
X288386Y103297D02*
X288389Y103300D01*
X288386Y96811D02*
Y103297D01*
X292289Y103300D02*
X292323Y103266D01*
Y96811D02*
Y103266D01*
X294289Y101200D02*
X294291Y101198D01*
Y96811D02*
Y101198D01*
X298189Y101200D02*
X298228Y101161D01*
Y96811D02*
Y101161D01*
X300189Y103300D02*
X300197Y103292D01*
Y96811D02*
Y103292D01*
X304089Y103300D02*
X304134Y103255D01*
Y96811D02*
Y103255D01*
X306089Y101200D02*
X306102Y101187D01*
Y96811D02*
Y101187D01*
X309989Y101200D02*
X310039Y101149D01*
Y96811D02*
Y101149D01*
X311989Y103300D02*
X312008Y103281D01*
Y96811D02*
Y103281D01*
X313976Y101188D02*
X313989Y101200D01*
X313976Y96811D02*
Y101188D01*
X315889Y103300D02*
X315945Y103244D01*
Y96811D02*
Y103244D01*
X317889Y101200D02*
X317913Y101175D01*
Y96811D02*
Y101175D01*
X319882Y103293D02*
X319889Y103300D01*
X319882Y96811D02*
Y103293D01*
X321850Y101162D02*
X321889Y101200D01*
X321850Y96811D02*
Y101162D01*
X323789Y103300D02*
X323819Y103270D01*
Y96811D02*
Y103270D01*
X325787Y101198D02*
X325789Y101200D01*
X325787Y96811D02*
Y101198D01*
X327756Y103267D02*
X327789Y103300D01*
X327756Y96811D02*
Y103267D01*
X329689Y101200D02*
X329725Y101164D01*
Y96811D02*
Y101164D01*
X331689Y103300D02*
X331693Y103296D01*
Y96811D02*
Y103296D01*
X333662Y101172D02*
X333689Y101200D01*
X333662Y96811D02*
Y101172D01*
X335589Y103300D02*
X335630Y103259D01*
Y96811D02*
Y103259D01*
X339567Y103278D02*
X339589Y103300D01*
X339567Y96811D02*
Y103278D01*
X341489Y101200D02*
X341535Y101154D01*
Y96811D02*
Y101154D01*
X343489Y96826D02*
X343504Y96811D01*
X343489Y96826D02*
Y103300D01*
X360200Y95000D02*
Y130400D01*
Y95000D02*
X368600Y86600D01*
Y82900D02*
Y86600D01*
X363300Y77600D02*
X368600Y82900D01*
X333400Y77600D02*
X363300D01*
X331693Y75893D02*
X333400Y77600D01*
X331693Y72480D02*
Y75893D01*
X340000Y86200D02*
X346800Y93000D01*
X340000Y82800D02*
Y86200D01*
X336900Y79700D02*
X340000Y82800D01*
X346800Y93000D02*
Y104200D01*
X342400Y108600D02*
X346800Y104200D01*
X332800Y108600D02*
X342400D01*
X287000Y88100D02*
X288500D01*
X281900Y93200D02*
X287000Y88100D01*
X288500D02*
X290000Y86600D01*
X281900Y112100D02*
X297262Y127462D01*
X281900Y93200D02*
Y112100D01*
X310200Y90800D02*
X315000Y86000D01*
X286700Y90800D02*
X310200D01*
X283400Y94100D02*
X286700Y90800D01*
X283400Y94100D02*
Y104500D01*
X293500Y114600D01*
X308000D01*
X322600Y118800D02*
X332800Y108600D01*
X313976Y72480D02*
Y76024D01*
X310600Y79400D02*
X313976Y76024D01*
X293700Y79400D02*
X310600D01*
X290000Y83100D02*
X293700Y79400D01*
X290000Y83100D02*
Y86600D01*
X297262Y127462D02*
X299200D01*
X319882Y72480D02*
Y76518D01*
X315000Y81400D02*
X319882Y76518D01*
X315000Y81400D02*
Y86000D01*
X325787Y76688D02*
X328800Y79700D01*
X336900D01*
X308000Y114600D02*
X312200Y118800D01*
Y126400D01*
X313262Y127462D01*
X314800D01*
X309600D02*
X309600Y127462D01*
X304400Y127462D02*
X309600D01*
X325787Y72480D02*
Y76688D01*
X322600Y118800D02*
Y126600D01*
X323462Y127462D01*
X325200D01*
X269300Y94800D02*
Y130400D01*
X261200Y86700D02*
X269300Y94800D01*
X261200Y83800D02*
Y86700D01*
X252953Y75553D02*
X261200Y83800D01*
X252953Y72480D02*
Y75553D01*
X204407Y111100D02*
X236800D01*
X194095Y100787D02*
X204407Y111100D01*
X194095Y83858D02*
Y100787D01*
X191732Y104832D02*
X214362Y127462D01*
X191732Y82284D02*
Y104832D01*
Y82284D02*
X196063Y77953D01*
X192913Y102613D02*
X206100Y115800D01*
X192913Y83071D02*
Y102613D01*
Y83071D02*
X196834Y79150D01*
X194095Y83858D02*
X197638Y80315D01*
X196063Y77953D02*
X233547D01*
X196834Y79150D02*
X238350D01*
X197638Y80315D02*
X243385D01*
X247047Y76653D01*
X238350Y79150D02*
X241142Y76358D01*
X233547Y77953D02*
X235236Y76264D01*
X244662Y127462D02*
X246300D01*
X243700Y126500D02*
X244662Y127462D01*
X243700Y118000D02*
Y126500D01*
X236800Y111100D02*
X243700Y118000D01*
X247047Y72480D02*
Y76653D01*
X234462Y127462D02*
X235900D01*
X233300Y126300D02*
X234462Y127462D01*
X233300Y119200D02*
Y126300D01*
X229900Y115800D02*
X233300Y119200D01*
X206100Y115800D02*
X229900D01*
X241142Y72480D02*
Y76358D01*
X247047Y101158D02*
X247089Y101200D01*
X247047Y96811D02*
Y101158D01*
X225500Y127462D02*
X230700D01*
X241142Y96811D02*
Y103247D01*
X235236Y72480D02*
Y76264D01*
X214362Y127462D02*
X220300D01*
X151114Y56200D02*
X216314D01*
X126612Y31698D02*
X151114Y56200D01*
X126612Y19057D02*
Y31698D01*
X150700Y57200D02*
X215900D01*
X125612Y32112D02*
X150700Y57200D01*
X125612Y12183D02*
Y32112D01*
X114014Y66900D02*
X207500D01*
X79112Y31998D02*
X114014Y66900D01*
X79112Y19313D02*
Y31998D01*
X113600Y67900D02*
X206100D01*
X78112Y32412D02*
X113600Y67900D01*
X78112Y12439D02*
Y32412D01*
X110864Y30750D02*
X139714Y59600D01*
X110864Y19057D02*
Y30750D01*
X139714Y59600D02*
X214014D01*
X109864Y31164D02*
X139300Y60600D01*
X109864Y12183D02*
Y31164D01*
X139300Y60600D02*
X213600D01*
X126214Y63300D02*
X210814D01*
X94860Y31946D02*
X126214Y63300D01*
X94860Y19313D02*
Y31946D01*
X125800Y64300D02*
X210400D01*
X93860Y32360D02*
X125800Y64300D01*
X93860Y12439D02*
Y32360D01*
X74803Y387795D02*
X79200Y383398D01*
Y365714D02*
Y383398D01*
Y365714D02*
X114814Y330100D01*
X74803Y379921D02*
X78200Y376524D01*
Y365300D02*
Y376524D01*
Y365300D02*
X114400Y329100D01*
X90551Y387795D02*
X94900Y383447D01*
Y365614D02*
Y383447D01*
Y365614D02*
X127714Y332800D01*
X90551Y379921D02*
X93900Y376572D01*
Y365200D02*
Y376572D01*
Y365200D02*
X127300Y331800D01*
X106299Y387795D02*
X110700Y383395D01*
Y365914D02*
Y383395D01*
Y365914D02*
X140714Y335900D01*
X106299Y379921D02*
X109700Y376520D01*
Y365500D02*
Y376520D01*
Y365500D02*
X140300Y334900D01*
X181600Y363214D02*
X185214Y359600D01*
X180600Y375482D02*
X185039Y379921D01*
X180600Y362800D02*
Y375482D01*
Y362800D02*
X184800Y358600D01*
X200787Y387795D02*
X205300Y383283D01*
Y365714D02*
Y383283D01*
Y365714D02*
X207014Y364000D01*
X200787Y379921D02*
X204300Y376409D01*
Y365300D02*
Y376409D01*
Y365300D02*
X206600Y363000D01*
X207014Y364000D02*
X231200D01*
X206600Y363000D02*
X230786D01*
X389200Y365614D02*
Y375420D01*
X381286Y357700D02*
X389200Y365614D01*
X364786Y357700D02*
X381286D01*
X381700Y356700D02*
X390200Y365200D01*
X365200Y356700D02*
X381700D01*
X339567Y332481D02*
X364786Y357700D01*
X339567Y325157D02*
Y332481D01*
X341535Y333035D02*
X365200Y356700D01*
X341535Y325157D02*
Y333035D01*
X377600Y372300D02*
X381900Y376600D01*
X368914Y372300D02*
X377600D01*
X366514Y369900D02*
X368914Y372300D01*
X366514Y362900D02*
Y369900D01*
X335630Y332016D02*
X366514Y362900D01*
X333661Y331461D02*
X365514Y363314D01*
Y370314D01*
X368500Y373300D01*
X371332D01*
X317913Y341099D02*
X327300Y350486D01*
X326300Y375513D02*
X330709Y379921D01*
X326300Y350900D02*
Y375513D01*
X315945Y340545D02*
X326300Y350900D01*
X323819Y339105D02*
X343100Y358386D01*
X342100Y375565D02*
X346457Y379921D01*
X342100Y358800D02*
Y375565D01*
X321850Y338550D02*
X342100Y358800D01*
X329724Y336810D02*
X358800Y365886D01*
X357800Y375517D02*
X362205Y379921D01*
X357800Y366300D02*
Y375517D01*
X327756Y336256D02*
X357800Y366300D01*
X389200Y375420D02*
X393701Y379921D01*
X371332Y373300D02*
X377953Y379921D01*
X314961Y387795D02*
X319400Y383356D01*
X312008Y345794D02*
X319400Y353186D01*
Y383356D01*
X314961Y379921D02*
X318400Y376482D01*
Y353600D02*
Y376482D01*
X310039Y345239D02*
X318400Y353600D01*
X299213Y387795D02*
X303600Y383408D01*
Y334614D02*
Y383408D01*
Y334614D02*
X306102Y332112D01*
X299213Y379921D02*
X302600Y376534D01*
Y334200D02*
Y376534D01*
Y334200D02*
X304134Y332666D01*
X283465Y387795D02*
X287900Y383360D01*
Y346414D02*
Y383360D01*
Y346414D02*
X300197Y334117D01*
X283465Y379921D02*
X286900Y376486D01*
Y346000D02*
Y376486D01*
Y346000D02*
X298228Y334672D01*
X267717Y387795D02*
X272200Y383312D01*
Y355914D02*
Y383312D01*
Y355914D02*
X294291Y333823D01*
X267717Y379921D02*
X271200Y376438D01*
Y355500D02*
Y376438D01*
Y355500D02*
X292323Y334377D01*
X251969Y387795D02*
X256400Y383364D01*
Y366100D02*
Y383364D01*
Y366100D02*
X288386Y334114D01*
X251969Y379921D02*
X255400Y376490D01*
Y365686D02*
Y376490D01*
Y365686D02*
X286417Y334668D01*
Y325157D02*
Y334668D01*
X288386Y325157D02*
Y334114D01*
X393701Y387795D02*
X397800Y383696D01*
X377953Y387795D02*
X381900Y383848D01*
Y376600D02*
Y383848D01*
X335630Y325157D02*
Y332016D01*
X333661Y325157D02*
Y331461D01*
X362205Y363505D02*
Y368110D01*
X331693Y332993D02*
X362205Y363505D01*
X331693Y325157D02*
Y332993D01*
X362205Y387795D02*
X366100Y383900D01*
X329724Y325157D02*
Y336810D01*
X327756Y325157D02*
Y336256D01*
X325787Y325157D02*
Y338087D01*
X346457Y358757D01*
Y368110D01*
X346457Y387795D02*
X350400Y383852D01*
X323819Y325157D02*
Y339105D01*
X321850Y325157D02*
Y338550D01*
X319882Y325157D02*
Y340482D01*
X330709Y351309D01*
Y368110D01*
X330709Y387795D02*
X334600Y383904D01*
X317913Y325157D02*
Y341099D01*
X315945Y325157D02*
Y340545D01*
X312008Y325157D02*
Y345794D01*
X310039Y325157D02*
Y345239D01*
X306102Y325157D02*
Y332112D01*
X304134Y325157D02*
Y332666D01*
X300197Y325157D02*
Y334117D01*
X298228Y325157D02*
Y334672D01*
X294291Y325157D02*
Y333823D01*
X292323Y325157D02*
Y334377D01*
X260827Y325157D02*
Y338159D01*
X226186Y372800D02*
X260827Y338159D01*
X223657Y372800D02*
X226186D01*
X262795Y325157D02*
Y337605D01*
X226600Y373800D02*
X262795Y337605D01*
X224071Y373800D02*
X226600D01*
X254921Y325157D02*
Y338864D01*
X230786Y363000D02*
X254921Y338864D01*
X256890Y325157D02*
Y338310D01*
X231200Y364000D02*
X256890Y338310D01*
X252953Y325157D02*
Y338247D01*
X229800Y361400D02*
X252953Y338247D01*
X187400Y361400D02*
X229800D01*
X249016Y325157D02*
Y337370D01*
X227786Y358600D02*
X249016Y337370D01*
X184800Y358600D02*
X227786D01*
X250984Y325157D02*
Y336816D01*
X228200Y359600D02*
X250984Y336816D01*
X185214Y359600D02*
X228200D01*
X247047Y325157D02*
Y336153D01*
X226200Y357000D02*
X247047Y336153D01*
X175000Y357000D02*
X226200D01*
X243110Y325157D02*
Y335576D01*
X224686Y354000D02*
X243110Y335576D01*
X173300Y354000D02*
X224686D01*
X245079Y325157D02*
Y335021D01*
X225100Y355000D02*
X245079Y335021D01*
X173714Y355000D02*
X225100D01*
X241142Y325157D02*
Y334358D01*
X223500Y352000D02*
X241142Y334358D01*
X164900Y352000D02*
X223500D01*
X237205Y325157D02*
Y333281D01*
X222086Y348400D02*
X237205Y333281D01*
X164000Y348400D02*
X222086D01*
X239173Y325157D02*
Y332727D01*
X222500Y349400D02*
X239173Y332727D01*
X164414Y349400D02*
X222500D01*
X235236Y325157D02*
Y331864D01*
X220800Y346300D02*
X235236Y331864D01*
X155800Y346300D02*
X220800D01*
X231299Y325157D02*
Y331187D01*
X219286Y343200D02*
X231299Y331187D01*
X154000Y343200D02*
X219286D01*
X233268Y325157D02*
Y330632D01*
X219700Y344200D02*
X233268Y330632D01*
X154414Y344200D02*
X219700D01*
X229331Y325157D02*
Y330269D01*
X218300Y341300D02*
X229331Y330269D01*
X145400Y341300D02*
X218300D01*
X114814Y330100D02*
X208502D01*
X114400Y329100D02*
X207100D01*
X127714Y332800D02*
X212048D01*
X127300Y331800D02*
X211633D01*
X118482Y364432D02*
X143814Y339100D01*
X217548D01*
X143400Y338100D02*
X217133D01*
X117482Y364018D02*
X143400Y338100D01*
X117482Y364018D02*
Y375356D01*
X122047Y364653D02*
X145400Y341300D01*
X122047Y364653D02*
Y368110D01*
X134400Y364214D02*
X154414Y344200D01*
X133400Y363800D02*
X154000Y343200D01*
X133400Y363800D02*
Y375526D01*
X137795Y364305D02*
X155800Y346300D01*
X137795Y364305D02*
Y368110D01*
X149978Y363836D02*
X164414Y349400D01*
X148978Y363422D02*
X164000Y348400D01*
X148978Y363422D02*
Y375356D01*
X153543Y363357D02*
X164900Y352000D01*
X153543Y363357D02*
Y368110D01*
X165726Y362988D02*
X173714Y355000D01*
X164726Y362574D02*
X173300Y354000D01*
X164726Y362574D02*
Y375356D01*
X220500Y377371D02*
Y383831D01*
Y377371D02*
X224071Y373800D01*
X216535Y379921D02*
X223657Y372800D01*
X216535Y387795D02*
X220500Y383831D01*
X227362Y325157D02*
Y329285D01*
X225394Y325157D02*
Y329840D01*
X217133Y338100D02*
X225394Y329840D01*
X217548Y339100D02*
X227362Y329285D01*
X215551Y325157D02*
Y329296D01*
X213583Y325157D02*
Y329851D01*
X211633Y331800D02*
X213583Y329851D01*
X212048Y332800D02*
X215551Y329296D01*
X185039Y363761D02*
X187400Y361400D01*
X185039Y363761D02*
Y368110D01*
X185039Y387795D02*
X189000Y383835D01*
X169291Y362709D02*
X175000Y357000D01*
X169291Y362709D02*
Y368110D01*
X169291Y387795D02*
X173300Y383787D01*
X164726Y375356D02*
X169291Y379921D01*
X207100Y329100D02*
X207677Y328523D01*
X208502Y330100D02*
X209646Y328956D01*
X153543Y387795D02*
X157500Y383839D01*
X148978Y375356D02*
X153543Y379921D01*
X137795Y387795D02*
X141800Y383790D01*
X133400Y375526D02*
X137795Y379921D01*
X122047Y387795D02*
X125800Y384043D01*
X117482Y375356D02*
X122047Y379921D01*
X224410Y15748D02*
X262795Y54134D01*
Y72480D01*
X222807Y19807D02*
X227054D01*
X260827Y53580D01*
Y72480D01*
X214413Y21500D02*
X225700D01*
X256890Y52690D01*
Y72480D01*
X209952Y22500D02*
X225286D01*
X254921Y52135D01*
Y72480D01*
X220500Y17500D02*
X222807Y19807D01*
X209646Y325157D02*
Y328956D01*
X207677Y325157D02*
Y328523D01*
X341535Y66879D02*
Y72480D01*
Y66879D02*
X348514Y59900D01*
X339567Y67433D02*
X348100Y58900D01*
X339567Y67433D02*
Y72480D01*
X347800Y56500D02*
X359700D01*
X337598Y66702D02*
X347800Y56500D01*
X337598Y66702D02*
Y72480D01*
X359700Y56500D02*
X385827Y30373D01*
X333662Y66024D02*
X346086Y53600D01*
X357186D01*
X346500Y54600D02*
X357600D01*
X335630Y65470D02*
X346500Y54600D01*
X335630Y65470D02*
Y72480D01*
X333662Y66024D02*
Y72480D01*
X357186Y53600D02*
X381262Y29524D01*
X357600Y54600D02*
X382262Y29938D01*
X368941Y27559D02*
X370079D01*
X331693Y64807D02*
X368941Y27559D01*
X331693Y64807D02*
Y72480D01*
X327756Y63830D02*
X357800Y33786D01*
X327756Y63830D02*
Y72480D01*
X357800Y24100D02*
Y33786D01*
X358900Y28938D02*
Y34100D01*
X329725Y63275D02*
X358900Y34100D01*
X329725Y63275D02*
Y72480D01*
X321850Y61535D02*
Y72480D01*
X354331Y27559D02*
Y33869D01*
X325787Y62413D02*
X354331Y33869D01*
X325787Y62413D02*
Y72480D01*
X349766Y12439D02*
Y33620D01*
X321850Y61535D02*
X349766Y33620D01*
X350766Y19313D02*
Y34034D01*
X323819Y60981D02*
X350766Y34034D01*
X323819Y60981D02*
Y72480D01*
X338583Y27559D02*
Y41317D01*
X319882Y60018D02*
X338583Y41317D01*
X319882Y60018D02*
Y72480D01*
X361614Y21700D02*
X364127D01*
X358896Y24419D02*
X361614Y21700D01*
X358896Y24419D02*
Y28934D01*
X361200Y20700D02*
X363700D01*
X357800Y24100D02*
X361200Y20700D01*
X364127Y21700D02*
X370079Y15748D01*
X363700Y20700D02*
X366100Y18300D01*
Y11853D02*
Y18300D01*
Y11853D02*
X370079Y7874D01*
X358896Y28934D02*
X358900Y28938D01*
X315945Y59441D02*
X334018Y41368D01*
Y12439D02*
Y41368D01*
X335018Y19313D02*
Y41782D01*
X317914Y58886D02*
X335018Y41782D01*
X317914Y58886D02*
Y72480D01*
X315945Y59441D02*
Y72480D01*
X322835Y27559D02*
Y48465D01*
X313976Y57324D02*
X322835Y48465D01*
X313976Y57324D02*
Y72480D01*
X310039Y55846D02*
X318270Y47616D01*
Y12439D02*
Y47616D01*
X319270Y19313D02*
Y48030D01*
X312008Y55292D02*
X319270Y48030D01*
X312008Y55292D02*
Y72480D01*
X310039Y55846D02*
Y72480D01*
X306102Y65388D02*
Y72480D01*
X303522Y62807D02*
X306102Y65388D01*
X303522Y19313D02*
Y62807D01*
X304134Y64834D02*
Y72480D01*
X302522Y63222D02*
X304134Y64834D01*
X302522Y12439D02*
Y63222D01*
X286800Y12413D02*
Y49514D01*
X298228Y60943D02*
Y72480D01*
X286800Y49514D02*
X298228Y60943D01*
X300197Y61497D02*
Y72480D01*
X287800Y49100D02*
X300197Y61497D01*
X287800Y19287D02*
Y49100D01*
X271026Y12439D02*
Y41840D01*
X292323Y63137D02*
Y72480D01*
X271026Y41840D02*
X292323Y63137D01*
X294291Y63691D02*
Y72480D01*
X272026Y41426D02*
X294291Y63691D01*
X272026Y19313D02*
Y41426D01*
X288386Y67186D02*
Y72480D01*
X256278Y35078D02*
X288386Y67186D01*
X286417Y66632D02*
Y72480D01*
X255278Y35492D02*
X286417Y66632D01*
X255278Y12439D02*
Y35492D01*
X256278Y19313D02*
Y35078D01*
X220500Y11784D02*
Y17500D01*
Y11784D02*
X224410Y7874D01*
X208661Y15748D02*
X214413Y21500D01*
X204352Y16900D02*
X209952Y22500D01*
X196900Y34900D02*
X227600D01*
X252953Y60253D02*
Y72480D01*
X227600Y34900D02*
X252953Y60253D01*
X250984Y61470D02*
Y72480D01*
X226314Y36800D02*
X250984Y61470D01*
X195714Y36800D02*
X226314D01*
X249016Y60916D02*
Y72480D01*
X225900Y37800D02*
X249016Y60916D01*
X195300Y37800D02*
X225900D01*
X247047Y62247D02*
Y72480D01*
X224600Y39800D02*
X247047Y62247D01*
X189406Y39800D02*
X224600D01*
X245079Y63365D02*
Y72480D01*
X223414Y41700D02*
X245079Y63365D01*
X185100Y41700D02*
X223414D01*
X243110Y62810D02*
Y72480D01*
X223000Y42700D02*
X243110Y62810D01*
X184686Y42700D02*
X223000D01*
X241142Y64042D02*
Y72480D01*
X221800Y44700D02*
X241142Y64042D01*
X178558Y44700D02*
X221800D01*
X239173Y65159D02*
Y72480D01*
X221214Y47200D02*
X239173Y65159D01*
X174800Y47200D02*
X221214D01*
X237205Y64605D02*
Y72480D01*
X220800Y48200D02*
X237205Y64605D01*
X174386Y48200D02*
X220800D01*
X235236Y66136D02*
Y72480D01*
X219600Y50500D02*
X235236Y66136D01*
X168610Y50500D02*
X219600D01*
X163700Y52700D02*
X218514D01*
X233268Y67454D02*
Y72480D01*
X218514Y52700D02*
X233268Y67454D01*
X231299Y66899D02*
Y72480D01*
X218100Y53700D02*
X231299Y66899D01*
X163286Y53700D02*
X218100D01*
X227362Y67248D02*
Y72480D01*
X216314Y56200D02*
X227362Y67248D01*
X225394Y66694D02*
Y72480D01*
X215900Y57200D02*
X225394Y66694D01*
X221457Y67042D02*
Y72480D01*
X214014Y59600D02*
X221457Y67042D01*
X219488Y66488D02*
Y72480D01*
X213600Y60600D02*
X219488Y66488D01*
X215551Y68037D02*
Y72480D01*
X210814Y63300D02*
X215551Y68037D01*
X213583Y67483D02*
Y72480D01*
X210400Y64300D02*
X213583Y67483D01*
X209646Y69046D02*
Y72480D01*
X207500Y66900D02*
X209646Y69046D01*
X207677Y69477D02*
Y72480D01*
X206100Y67900D02*
X207677Y69477D01*
X348100Y58900D02*
X367700D01*
X348514Y59900D02*
X368114D01*
X367700Y58900D02*
X397010Y29590D01*
X368114Y59900D02*
X398010Y30004D01*
X385827Y27559D02*
Y30373D01*
X381262Y12439D02*
Y29524D01*
X382262Y19313D02*
Y29938D01*
X397010Y12439D02*
Y29590D01*
Y12439D02*
X401575Y7874D01*
X398010Y19313D02*
Y30004D01*
Y19313D02*
X401575Y15748D01*
X382262Y19313D02*
X385827Y15748D01*
X381262Y12439D02*
X385827Y7874D01*
X350766Y19313D02*
X354331Y15748D01*
X349766Y12439D02*
X354331Y7874D01*
X335018Y19313D02*
X338583Y15748D01*
X334018Y12439D02*
X338583Y7874D01*
X319270Y19313D02*
X322835Y15748D01*
X318270Y12439D02*
X322835Y7874D01*
X303522Y19313D02*
X307087Y15748D01*
X302522Y12439D02*
X307087Y7874D01*
X287800Y19287D02*
X291339Y15748D01*
X286800Y12413D02*
X291339Y7874D01*
X272026Y19313D02*
X275591Y15748D01*
X271026Y12439D02*
X275591Y7874D01*
X256278Y19313D02*
X259842Y15748D01*
X255278Y12439D02*
X259842Y7874D01*
X78112Y12439D02*
X82677Y7874D01*
X79112Y19313D02*
X82677Y15748D01*
X93860Y12439D02*
X98425Y7874D01*
X94860Y19313D02*
X98425Y15748D01*
X110864Y19057D02*
X114173Y15748D01*
X109864Y12183D02*
X114173Y7874D01*
X126612Y19057D02*
X129921Y15748D01*
X125612Y12183D02*
X129921Y7874D01*
X142360Y19057D02*
X145669Y15748D01*
X142360Y19057D02*
Y31360D01*
X141360Y12183D02*
Y31774D01*
Y12183D02*
X145669Y7874D01*
X158108Y19057D02*
X161417Y15748D01*
X158108Y19057D02*
Y30508D01*
X157108Y12183D02*
Y30922D01*
Y12183D02*
X161417Y7874D01*
X172600Y12439D02*
X177165Y7874D01*
X173600Y19313D02*
X177165Y15748D01*
X188348Y12439D02*
X192913Y7874D01*
X188348Y12439D02*
Y30848D01*
X142360Y31360D02*
X163700Y52700D01*
X141360Y31774D02*
X163286Y53700D01*
X145669Y27559D02*
X168610Y50500D01*
X158108Y30508D02*
X174800Y47200D01*
X157108Y30922D02*
X174386Y48200D01*
X161417Y27559D02*
X178558Y44700D01*
X172600Y30615D02*
X184686Y42700D01*
X173600Y19313D02*
Y30200D01*
X185100Y41700D01*
X172600Y12439D02*
Y30615D01*
X177165Y27559D02*
X189406Y39800D01*
X188348Y30848D02*
X195300Y37800D01*
X189500Y19161D02*
X192913Y15748D01*
X189500Y19161D02*
Y30586D01*
X195714Y36800D01*
X192913Y27559D02*
Y30913D01*
X196900Y34900D01*
X204352Y12183D02*
X208661Y7874D01*
X204352Y12183D02*
Y16900D01*
X378900Y331600D02*
X378937Y331563D01*
X376969Y329468D02*
X377000Y329500D01*
X378937Y325157D02*
Y331563D01*
X376969Y325157D02*
Y329468D01*
X118482Y364432D02*
Y370282D01*
X125800Y377600D01*
Y384043D01*
X134400Y364214D02*
Y370200D01*
X141800Y377600D01*
Y383790D01*
X149978Y363836D02*
Y370378D01*
X157500Y377900D01*
Y383839D01*
X165726Y362988D02*
Y370026D01*
X173300Y377600D01*
Y383787D01*
X181600Y363214D02*
Y370700D01*
X189000Y378100D01*
Y383835D01*
X327300Y350486D02*
Y370600D01*
X334600Y377900D01*
Y383904D01*
X343100Y358386D02*
Y370500D01*
X350400Y377800D01*
Y383852D01*
X358800Y365886D02*
Y370800D01*
X366100Y378100D01*
Y383900D01*
X390200Y370600D02*
X397800Y378200D01*
Y383696D01*
X390200Y365200D02*
Y370600D01*
D30*
X51543Y70866D02*
X51600Y70809D01*
X36220Y70866D02*
X51543D01*
D31*
X413386Y39370D02*
Y45276D01*
X401575Y27559D02*
X413386Y39370D01*
X541200Y245500D02*
X541221Y245479D01*
Y240158D02*
Y245479D01*
X550669Y245469D02*
X550700Y245500D01*
X550669Y240158D02*
Y245469D01*
X560100Y245500D02*
X560118Y245482D01*
Y240158D02*
Y245482D01*
X569567Y245467D02*
X569600Y245500D01*
X569567Y240158D02*
Y245467D01*
X616000Y245400D02*
X616024Y245376D01*
Y240158D02*
Y245376D01*
X625472Y245372D02*
X625500Y245400D01*
X625472Y240158D02*
Y245372D01*
X634900Y245400D02*
X634921Y245379D01*
Y240158D02*
Y245379D01*
X644370Y245370D02*
X644400Y245400D01*
X644370Y240158D02*
Y245370D01*
X642795Y277695D02*
X642800Y277700D01*
X642795Y272441D02*
Y277695D01*
X617598Y277698D02*
X617600Y277700D01*
X617598Y272441D02*
Y277698D01*
X614400Y277700D02*
X614449Y277651D01*
Y272441D02*
Y277651D01*
X567992Y277692D02*
X568000Y277700D01*
X567992Y272441D02*
Y277692D01*
X542795Y277695D02*
X542800Y277700D01*
X542795Y272441D02*
Y277695D01*
X539600Y277700D02*
X539646Y277654D01*
Y272441D02*
Y277654D01*
X426949Y84646D02*
X427003Y84700D01*
X433389D01*
X426903Y84600D02*
X426949Y84646D01*
X420489Y84600D02*
X426903D01*
X406201Y84646D02*
X406247Y84600D01*
X416889D01*
X406155D02*
X406201Y84646D01*
X395489Y84600D02*
X406155D01*
X381201Y84646D02*
X381247Y84600D01*
X391889D01*
X381155D02*
X381201Y84646D01*
X370489Y84600D02*
X381155D01*
X360453Y84646D02*
X360498Y84600D01*
X366889D01*
X360407D02*
X360453Y84646D01*
X354289Y84600D02*
X360407D01*
X348209Y84646D02*
X348254Y84600D01*
X354289D01*
X348163D02*
X348209Y84646D01*
X341689Y84600D02*
X348163D01*
X327461Y84646D02*
X327506Y84600D01*
X338189D01*
X327406Y84700D02*
X327461Y84646D01*
X316800Y84700D02*
X327406D01*
X302461Y84646D02*
X302515Y84700D01*
X313289D01*
X302406D02*
X302461Y84646D01*
X291689Y84700D02*
X302406D01*
X281713Y84646D02*
X281767Y84700D01*
X288189D01*
X281667Y84600D02*
X281713Y84646D01*
X275589Y84600D02*
X281667D01*
X269469Y84646D02*
X269514Y84600D01*
X275589D01*
X269423D02*
X269469Y84646D01*
X262989Y84600D02*
X269423D01*
X248721Y84646D02*
X248766Y84600D01*
X259489D01*
X248666Y84700D02*
X248721Y84646D01*
X237989Y84700D02*
X248666D01*
X223721Y84646D02*
X223775Y84700D01*
X234489D01*
X223675Y84600D02*
X223721Y84646D01*
X212989Y84600D02*
X223675D01*
X202973Y84646D02*
X203018Y84600D01*
X209589D01*
X202918Y84700D02*
X202973Y84646D01*
X196489Y84700D02*
X202918D01*
X426949Y312992D02*
X426957Y313000D01*
X433600D01*
X426941D02*
X426949Y312992D01*
X420500Y313000D02*
X426941D01*
X406201Y312992D02*
X406209Y313000D01*
X416900D01*
X406193D02*
X406201Y312992D01*
X395500Y313000D02*
X406193D01*
X381201Y312992D02*
X381209Y313000D01*
X391900D01*
X381193D02*
X381201Y312992D01*
X370500Y313000D02*
X381193D01*
X360453Y312992D02*
X360461Y313000D01*
X366900D01*
X360445D02*
X360453Y312992D01*
X354300Y313000D02*
X360445D01*
X348209Y312992D02*
X348217Y313000D01*
X354300D01*
X348201D02*
X348209Y312992D01*
X341700Y313000D02*
X348201D01*
X302353Y313100D02*
X302453Y313000D01*
X291700Y313100D02*
X302353D01*
X281805D02*
X288200D01*
X275600Y313000D02*
X281705D01*
X248613Y313100D02*
X248713Y313000D01*
X238000Y313100D02*
X248613D01*
X223813D02*
X234500D01*
X213000Y313000D02*
X223713D01*
X209592Y312992D02*
X209600Y313000D01*
X202972Y312992D02*
X209592D01*
X196500Y313100D02*
X196608Y312992D01*
X202972D01*
X498563Y292913D02*
X498600Y292876D01*
Y287100D02*
Y292876D01*
X692815Y331693D02*
X692900Y331778D01*
Y337400D01*
X692815Y331693D02*
X692900Y331608D01*
Y326000D02*
Y331608D01*
X681200Y331694D02*
Y337400D01*
X681194Y331700D02*
X681200Y331694D01*
X677800Y331700D02*
X681194D01*
X692815Y306715D02*
X693000Y306900D01*
X692815Y301181D02*
Y306715D01*
X696181Y301181D02*
X696200Y301200D01*
X692815Y301181D02*
X696181D01*
X692700Y295400D02*
X692815Y295515D01*
Y301181D01*
X681200Y295400D02*
X681201Y295401D01*
Y301181D01*
X677800Y301200D02*
X677819Y301181D01*
X681201D01*
X681200Y306900D02*
X681201Y306899D01*
Y301181D02*
Y306899D01*
X692815Y259615D02*
X692900Y259700D01*
X692815Y253937D02*
Y259615D01*
X696163Y253937D02*
X696200Y253900D01*
X692815Y253937D02*
X696163D01*
X692815Y248285D02*
X692900Y248200D01*
X692815Y248285D02*
Y253937D01*
X681200Y248200D02*
X681201Y248201D01*
Y253937D01*
X677800Y253900D02*
X677837Y253937D01*
X681201D01*
X681200Y259700D02*
X681201Y259699D01*
Y253937D02*
Y259699D01*
X692815Y228115D02*
X692900Y228200D01*
X692815Y222441D02*
Y228115D01*
X696159Y222441D02*
X696200Y222400D01*
X692815Y222441D02*
X696159D01*
X692815Y216785D02*
X692900Y216700D01*
X692815Y216785D02*
Y222441D01*
X681200Y216700D02*
X681201Y216701D01*
Y222441D01*
X677800Y222400D02*
X677841Y222441D01*
X681201D01*
X681200Y228200D02*
X681201Y228199D01*
Y222441D02*
Y228199D01*
X692800Y180900D02*
X692815Y180885D01*
Y175197D02*
Y180885D01*
X696197Y175197D02*
X696200Y175200D01*
X692815Y175197D02*
X696197D01*
X692815Y169585D02*
X692900Y169500D01*
X692815Y169585D02*
Y175197D01*
X681100Y169500D02*
X681201Y169601D01*
Y175197D01*
X677800Y175200D02*
X677803Y175197D01*
X681201D01*
Y180801D02*
X681300Y180900D01*
X681201Y175197D02*
Y180801D01*
X692800Y138000D02*
X692815Y138015D01*
Y143701D01*
X696199D02*
X696200Y143700D01*
X692815Y143701D02*
X696199D01*
X692815Y149315D02*
X692900Y149400D01*
X692815Y143701D02*
Y149315D01*
X681200Y149400D02*
X681201Y149399D01*
Y143701D02*
Y149399D01*
X677800Y143700D02*
X677801Y143701D01*
X681201D01*
X681100Y138000D02*
X681201Y138101D01*
Y143701D01*
X692800Y102200D02*
X692815Y102185D01*
Y96457D02*
Y102185D01*
X696143Y96457D02*
X696200Y96400D01*
X692815Y96457D02*
X696143D01*
X692800Y90700D02*
X692815Y90715D01*
Y96457D01*
X681100Y102200D02*
X681201Y102099D01*
Y96457D02*
Y102099D01*
X681100Y90700D02*
X681201Y90801D01*
Y96457D01*
X677800Y96400D02*
X677857Y96457D01*
X681201D01*
X692800Y59200D02*
X692815Y59215D01*
Y64961D01*
Y70615D02*
X692900Y70700D01*
X692815Y64961D02*
Y70615D01*
X696161Y64961D02*
X696200Y65000D01*
X692815Y64961D02*
X696161D01*
X681201Y70501D02*
X681300Y70600D01*
X681201Y64961D02*
Y70501D01*
X681200Y59200D02*
X681201Y59201D01*
Y64961D01*
X677800Y65000D02*
X677839Y64961D01*
X681201D01*
X645492Y27792D02*
X645600Y27900D01*
X645492Y21850D02*
Y27792D01*
X630492Y27892D02*
X630500Y27900D01*
X630492Y21850D02*
Y27892D01*
X615492D02*
X615500Y27900D01*
X615492Y21850D02*
Y27892D01*
X566752Y27852D02*
X566800Y27900D01*
X566752Y21850D02*
Y27852D01*
X551700Y27900D02*
X551752Y27848D01*
Y21850D02*
Y27848D01*
X536700Y27900D02*
X536752Y27848D01*
Y21850D02*
Y27848D01*
X488012Y27812D02*
X488100Y27900D01*
X488012Y21850D02*
Y27812D01*
X473000Y27900D02*
X473012Y27888D01*
Y21850D02*
Y27888D01*
X458000Y27900D02*
X458012Y27888D01*
Y21850D02*
Y27888D01*
X330400Y119400D02*
X330400Y119400D01*
Y122738D01*
X309600Y119400D02*
X309600Y119400D01*
Y122738D01*
X251500Y119400D02*
X251500Y119400D01*
Y122738D01*
X230700Y119400D02*
X230700Y119400D01*
Y122738D01*
X308071Y294429D02*
X308100Y294400D01*
X308071Y294429D02*
Y300827D01*
X302165Y296535D02*
X302200Y296500D01*
X302165Y296535D02*
Y300827D01*
X296200Y294400D02*
X296260Y294460D01*
Y300827D01*
X290354Y296546D02*
X290400Y296500D01*
X290354Y296546D02*
Y300827D01*
X258800Y296400D02*
X258858Y296458D01*
Y300827D01*
X223400Y296400D02*
X223425Y296425D01*
Y300827D01*
X217500Y294400D02*
X217520Y294420D01*
Y300827D01*
X211600Y296400D02*
X211614Y296414D01*
Y300827D01*
X337598Y329498D02*
X337600Y329500D01*
X337598Y325157D02*
Y329498D01*
X313976Y329476D02*
X314000Y329500D01*
X313976Y325157D02*
Y329476D01*
X308000Y329500D02*
X308071Y329429D01*
Y325157D02*
Y329429D01*
X302100Y329500D02*
X302165Y329435D01*
Y325157D02*
Y329435D01*
X296200Y329500D02*
X296260Y329440D01*
Y325157D02*
Y329440D01*
X290354Y329454D02*
X290400Y329500D01*
X290354Y325157D02*
Y329454D01*
X258800Y329500D02*
X258858Y329442D01*
Y325157D02*
Y329442D01*
X223400Y329500D02*
X223425Y329475D01*
Y325157D02*
Y329475D01*
X217500Y329500D02*
X217520Y329480D01*
Y325157D02*
Y329480D01*
X211600Y329500D02*
X211614Y329486D01*
Y325157D02*
Y329486D01*
X258858Y68131D02*
X258889Y68100D01*
X258858Y68131D02*
Y72480D01*
X229289Y68100D02*
X229331Y68142D01*
Y72480D01*
X223389Y68100D02*
X223425Y68136D01*
Y72480D01*
X217489Y68100D02*
X217520Y68131D01*
Y72480D01*
X211589Y68100D02*
X211614Y68125D01*
Y72480D01*
X258858Y101169D02*
X258889Y101200D01*
X258858Y96811D02*
Y101169D01*
X229331Y103242D02*
X229389Y103300D01*
X229331Y96811D02*
Y103242D01*
X223389Y101200D02*
X223425Y101164D01*
Y96811D02*
Y101164D01*
X217489Y103300D02*
X217520Y103269D01*
Y96811D02*
Y103269D01*
X211589Y101200D02*
X211614Y101175D01*
Y96811D02*
Y101175D01*
X308071Y68129D02*
X308100Y68100D01*
X308071Y68129D02*
Y72480D01*
X302165Y68135D02*
X302200Y68100D01*
X302165Y68135D02*
Y72480D01*
X296260Y68140D02*
X296300Y68100D01*
X296260Y68140D02*
Y72480D01*
X290289Y68100D02*
X290354Y68165D01*
Y72480D01*
X290354Y101165D02*
X290389Y101200D01*
X290354Y96811D02*
Y101165D01*
X296189Y103300D02*
X296260Y103229D01*
Y96811D02*
Y103229D01*
X302165Y101176D02*
X302189Y101200D01*
X302165Y96811D02*
Y101176D01*
X308071Y103282D02*
X308089Y103300D01*
X308071Y96811D02*
Y103282D01*
X337589Y101200D02*
X337598Y101190D01*
Y96811D02*
Y101190D01*
X510895Y232595D02*
X510900Y232600D01*
X506525Y232595D02*
X510895D01*
X483200Y212562D02*
X491728D01*
X480400Y209000D02*
X482038D01*
X483200Y207838D01*
X480400Y211400D02*
X482038D01*
X483200Y212562D01*
X503563Y292913D02*
X503739Y292738D01*
X512200D01*
X514038D02*
X515100Y293800D01*
X512200Y292738D02*
X514038D01*
X475300Y316000D02*
X479500D01*
X467200Y307900D02*
X475300Y316000D01*
X425500Y307900D02*
X467200D01*
X422244Y300827D02*
Y304644D01*
X425500Y307900D01*
X479500Y316000D02*
Y319487D01*
X479554Y319541D01*
X390748Y325157D02*
Y331693D01*
X392717Y325157D02*
Y329716D01*
X484252Y333071D02*
Y336252D01*
X484300Y336300D01*
X496063Y333071D02*
Y336263D01*
X496100Y336300D01*
X507874Y333071D02*
Y336274D01*
X507900Y336300D01*
X390748Y294752D02*
Y300827D01*
Y294752D02*
X421721Y263779D01*
X494095D01*
X488563Y287163D02*
Y292913D01*
X488500Y287100D02*
X488563Y287163D01*
X493563Y287137D02*
Y292913D01*
Y287137D02*
X493600Y287100D01*
X493563Y292913D02*
Y297737D01*
X482100Y299600D02*
X491700D01*
X493563Y297737D01*
X417400Y287100D02*
X488500D01*
X365158Y294458D02*
Y300827D01*
X365100Y294400D02*
X365158Y294458D01*
X367126Y296526D02*
Y300827D01*
X367100Y296500D02*
X367126Y296526D01*
X369094Y294406D02*
Y300827D01*
Y294406D02*
X369100Y294400D01*
X371063Y296563D02*
Y300827D01*
X371000Y296500D02*
X371063Y296563D01*
X412402Y292098D02*
X417400Y287100D01*
X475100Y292600D02*
X482100Y299600D01*
X415413Y292600D02*
X475100D01*
X414370Y293643D02*
Y300827D01*
X412402Y292098D02*
Y300827D01*
X414370Y293643D02*
X415413Y292600D01*
X392717Y329716D02*
X403300Y340300D01*
X460379D01*
X500000Y379921D01*
X390748Y331693D02*
X402255Y343200D01*
X455405D01*
X492126Y379921D01*
X223713Y313000D02*
X223813Y313100D01*
X248713Y313000D02*
X248721D01*
X259500D01*
X263000D02*
X269468D01*
X275600D01*
X281705D02*
X281805Y313100D01*
X302453Y313000D02*
X302461D01*
X313300D01*
X316500D02*
X327461D01*
X338200D01*
X681200Y326000D02*
Y331693D01*
Y331694D01*
D32*
X420276Y294524D02*
X420300Y294500D01*
X420276Y294524D02*
Y300827D01*
X375000Y325157D02*
Y331600D01*
X373000Y329500D02*
X373031Y329468D01*
Y325157D02*
Y329468D01*
X479500Y305800D02*
Y309307D01*
X488500Y319200D02*
X488563Y319137D01*
Y313386D02*
Y319137D01*
X514038Y297462D02*
X515100Y296400D01*
X512200Y297462D02*
X514038D01*
X490158Y333071D02*
Y336258D01*
X490200Y336300D01*
X501968Y333071D02*
Y336268D01*
X502000Y336300D01*
X513779Y333071D02*
Y336280D01*
X513800Y336300D01*
D33*
X378900Y331600D02*
X405568Y358268D01*
X444882D01*
X454724D01*
X476378Y379921D01*
X484252D01*
D34*
X377000Y329500D02*
X378900Y331400D01*
Y331600D01*
D35*
X526575Y288189D02*
D03*
X601378Y288189D02*
D03*
D36*
X526575Y250000D02*
D03*
Y269685D02*
D03*
X582677Y288189D02*
D03*
Y250000D02*
D03*
Y269685D02*
D03*
X573504Y231890D02*
D03*
X554606D02*
D03*
X535709D02*
D03*
X610512Y231890D02*
D03*
X629410D02*
D03*
X648307D02*
D03*
X657480Y269685D02*
D03*
Y250000D02*
D03*
Y288189D02*
D03*
X601378Y269685D02*
D03*
Y250000D02*
D03*
D37*
X539055Y299213D02*
D03*
X560315D02*
D03*
X548898Y377953D02*
D03*
X526575Y358268D02*
D03*
Y318898D02*
D03*
Y279528D02*
D03*
Y240158D02*
D03*
X582677Y377953D02*
D03*
Y338583D02*
D03*
Y299213D02*
D03*
Y259842D02*
D03*
X657480Y259842D02*
D03*
Y299213D02*
D03*
Y338583D02*
D03*
Y377953D02*
D03*
X601378Y240158D02*
D03*
Y279528D02*
D03*
Y318898D02*
D03*
Y358268D02*
D03*
X623701Y377953D02*
D03*
X635118Y299213D02*
D03*
X613858D02*
D03*
D38*
X573504Y256299D02*
D03*
X535709D02*
D03*
X610512Y256299D02*
D03*
X648307D02*
D03*
D39*
X525925Y21457D02*
D03*
X576437Y17520D02*
D03*
X497697D02*
D03*
X447185Y21457D02*
D03*
X604665D02*
D03*
X655177Y17520D02*
D03*
D40*
X460630Y324803D02*
D03*
Y72835D02*
D03*
X90551Y324803D02*
D03*
Y72835D02*
D03*
D41*
X430079Y320984D02*
D03*
X199843D02*
D03*
X199843Y92638D02*
D03*
X430079D02*
D03*
D42*
X468504Y379921D02*
D03*
Y387795D02*
D03*
X476378Y379921D02*
D03*
Y387795D02*
D03*
X429134D02*
D03*
X437008Y379921D02*
D03*
Y387795D02*
D03*
X444882Y379921D02*
D03*
Y387795D02*
D03*
X460630D02*
D03*
Y379921D02*
D03*
X452756Y387795D02*
D03*
Y379921D02*
D03*
X484252D02*
D03*
Y387795D02*
D03*
X492126Y379921D02*
D03*
Y387795D02*
D03*
X500000Y379921D02*
D03*
Y387795D02*
D03*
X82677Y27559D02*
D03*
X90551D02*
D03*
X98425D02*
D03*
X106299D02*
D03*
X114173D02*
D03*
X122047D02*
D03*
X129921D02*
D03*
X137795D02*
D03*
X200787D02*
D03*
X192913D02*
D03*
X185039D02*
D03*
X177165D02*
D03*
X169291D02*
D03*
X161417D02*
D03*
X153543D02*
D03*
X145669D02*
D03*
X208661D02*
D03*
X216535D02*
D03*
X224410D02*
D03*
X401575D02*
D03*
X393701D02*
D03*
X385827D02*
D03*
X322835D02*
D03*
X330709D02*
D03*
X338583D02*
D03*
X346457D02*
D03*
X354331D02*
D03*
X362205D02*
D03*
X370079D02*
D03*
X377953D02*
D03*
X314961D02*
D03*
X307087D02*
D03*
X299213D02*
D03*
X291339D02*
D03*
X283465D02*
D03*
X275590D02*
D03*
X267717D02*
D03*
X259842D02*
D03*
X82677Y368110D02*
D03*
X90551D02*
D03*
X98425D02*
D03*
X106299D02*
D03*
X114173D02*
D03*
X122047D02*
D03*
X129921D02*
D03*
X137795D02*
D03*
X200787D02*
D03*
X192913D02*
D03*
X185039D02*
D03*
X177165D02*
D03*
X169291D02*
D03*
X161417D02*
D03*
X153543D02*
D03*
X145669D02*
D03*
X208661D02*
D03*
X216535D02*
D03*
X224410D02*
D03*
X401575Y368110D02*
D03*
X393701D02*
D03*
X385827D02*
D03*
X322835D02*
D03*
X330709D02*
D03*
X338583D02*
D03*
X346457D02*
D03*
X354331D02*
D03*
X362205D02*
D03*
X370079D02*
D03*
X377953D02*
D03*
X314961D02*
D03*
X307087D02*
D03*
X299213D02*
D03*
X291339D02*
D03*
X283465D02*
D03*
X275590D02*
D03*
X267717D02*
D03*
X259842D02*
D03*
X114173Y7874D02*
D03*
Y15748D02*
D03*
X122047Y7874D02*
D03*
Y15748D02*
D03*
X74803D02*
D03*
X82677Y7874D02*
D03*
Y15748D02*
D03*
X90551Y7874D02*
D03*
Y15748D02*
D03*
X106299D02*
D03*
Y7874D02*
D03*
X98425Y15748D02*
D03*
Y7874D02*
D03*
X129921D02*
D03*
Y15748D02*
D03*
X137795Y7874D02*
D03*
Y15748D02*
D03*
X145669Y7874D02*
D03*
Y15748D02*
D03*
X153543Y7874D02*
D03*
Y15748D02*
D03*
X161417Y7874D02*
D03*
Y15748D02*
D03*
X169291Y7874D02*
D03*
Y15748D02*
D03*
X177165Y7874D02*
D03*
Y15748D02*
D03*
X185039Y7874D02*
D03*
Y15748D02*
D03*
X192913Y7874D02*
D03*
Y15748D02*
D03*
X200787Y7874D02*
D03*
Y15748D02*
D03*
X208661Y7874D02*
D03*
Y15748D02*
D03*
X216535Y7874D02*
D03*
Y15748D02*
D03*
X224410Y7874D02*
D03*
Y15748D02*
D03*
X401575D02*
D03*
Y7874D02*
D03*
X393701Y15748D02*
D03*
Y7874D02*
D03*
X385827Y15748D02*
D03*
Y7874D02*
D03*
X377953Y15748D02*
D03*
Y7874D02*
D03*
X370079Y15748D02*
D03*
Y7874D02*
D03*
X362205Y15748D02*
D03*
Y7874D02*
D03*
X354331Y15748D02*
D03*
Y7874D02*
D03*
X346457Y15748D02*
D03*
Y7874D02*
D03*
X338583Y15748D02*
D03*
Y7874D02*
D03*
X330709Y15748D02*
D03*
Y7874D02*
D03*
X322835Y15748D02*
D03*
Y7874D02*
D03*
X314961Y15748D02*
D03*
Y7874D02*
D03*
X307087Y15748D02*
D03*
Y7874D02*
D03*
X275591D02*
D03*
Y15748D02*
D03*
X283465Y7874D02*
D03*
Y15748D02*
D03*
X267717D02*
D03*
Y7874D02*
D03*
X259842Y15748D02*
D03*
Y7874D02*
D03*
X251969Y15748D02*
D03*
X299213D02*
D03*
Y7874D02*
D03*
X291339Y15748D02*
D03*
Y7874D02*
D03*
X114173Y379921D02*
D03*
Y387795D02*
D03*
X122047Y379921D02*
D03*
Y387795D02*
D03*
X74803D02*
D03*
X82677Y379921D02*
D03*
Y387795D02*
D03*
X90551Y379921D02*
D03*
Y387795D02*
D03*
X106299D02*
D03*
Y379921D02*
D03*
X98425Y387795D02*
D03*
Y379921D02*
D03*
X129921D02*
D03*
Y387795D02*
D03*
X137795Y379921D02*
D03*
Y387795D02*
D03*
X145669Y379921D02*
D03*
Y387795D02*
D03*
X153543Y379921D02*
D03*
Y387795D02*
D03*
X161417Y379921D02*
D03*
Y387795D02*
D03*
X169291Y379921D02*
D03*
Y387795D02*
D03*
X177165Y379921D02*
D03*
Y387795D02*
D03*
X185039Y379921D02*
D03*
Y387795D02*
D03*
X192913Y379921D02*
D03*
Y387795D02*
D03*
X200787Y379921D02*
D03*
Y387795D02*
D03*
X208661Y379921D02*
D03*
Y387795D02*
D03*
X216535Y379921D02*
D03*
Y387795D02*
D03*
X224410Y379921D02*
D03*
Y387795D02*
D03*
X401575Y387795D02*
D03*
Y379921D02*
D03*
X393701Y387795D02*
D03*
Y379921D02*
D03*
X385827Y387795D02*
D03*
Y379921D02*
D03*
X377953Y387795D02*
D03*
Y379921D02*
D03*
X370079Y387795D02*
D03*
Y379921D02*
D03*
X362205Y387795D02*
D03*
Y379921D02*
D03*
X354331Y387795D02*
D03*
Y379921D02*
D03*
X346457Y387795D02*
D03*
Y379921D02*
D03*
X338583Y387795D02*
D03*
Y379921D02*
D03*
X330709Y387795D02*
D03*
Y379921D02*
D03*
X322835Y387795D02*
D03*
Y379921D02*
D03*
X314961Y387795D02*
D03*
Y379921D02*
D03*
X307087Y387795D02*
D03*
Y379921D02*
D03*
X275591D02*
D03*
Y387795D02*
D03*
X283465Y379921D02*
D03*
Y387795D02*
D03*
X267717D02*
D03*
Y379921D02*
D03*
X259842Y387795D02*
D03*
Y379921D02*
D03*
X251969Y387795D02*
D03*
X299213D02*
D03*
Y379921D02*
D03*
X291339Y387795D02*
D03*
Y379921D02*
D03*
X37402Y316929D02*
D03*
X29528D02*
D03*
X37402Y324803D02*
D03*
X29528D02*
D03*
Y277559D02*
D03*
X37402Y285433D02*
D03*
X29528D02*
D03*
X37402Y293307D02*
D03*
X29528D02*
D03*
Y309055D02*
D03*
X37402D02*
D03*
X29528Y301181D02*
D03*
X37402D02*
D03*
D43*
X429134Y379921D02*
D03*
X74803Y27559D02*
D03*
X251969D02*
D03*
X74803Y368110D02*
D03*
X251969Y368110D02*
D03*
X74803Y7874D02*
D03*
X251969D02*
D03*
X74803Y379921D02*
D03*
X251969Y379921D02*
D03*
D44*
X517874Y96614D02*
D03*
X527874Y106614D02*
D03*
Y86614D02*
D03*
X507874D02*
D03*
Y106614D02*
D03*
Y165669D02*
D03*
Y145669D02*
D03*
X527874D02*
D03*
Y165669D02*
D03*
X517874Y155669D02*
D03*
X635827Y155512D02*
D03*
X645827Y165512D02*
D03*
Y145512D02*
D03*
X625827D02*
D03*
Y165512D02*
D03*
X566772D02*
D03*
Y145512D02*
D03*
X586772D02*
D03*
Y165512D02*
D03*
X576772Y155512D02*
D03*
X635827Y96457D02*
D03*
X645827Y106457D02*
D03*
Y86457D02*
D03*
X625827D02*
D03*
Y106457D02*
D03*
X566772D02*
D03*
Y86457D02*
D03*
X586772D02*
D03*
Y106457D02*
D03*
X576772Y96457D02*
D03*
X43307Y240158D02*
D03*
X413386Y45276D02*
D03*
X263779Y348425D02*
D03*
X494095Y263779D02*
D03*
X379921Y348425D02*
D03*
X43307Y196850D02*
D03*
X444882Y358268D02*
D03*
X43307Y118110D02*
D03*
X659449Y64961D02*
D03*
X43307Y157480D02*
D03*
X57087Y354331D02*
D03*
X657480Y204724D02*
D03*
D45*
X37402Y277559D02*
D03*
D46*
X24409Y52362D02*
D03*
X12598Y70866D02*
D03*
X36220D02*
D03*
D47*
X688976Y19685D02*
D03*
Y375984D02*
D03*
X19685Y375984D02*
D03*
Y19685D02*
D03*
D48*
X370800Y68300D02*
D03*
X560400Y45000D02*
D03*
X373200Y68300D02*
D03*
X558000Y45000D02*
D03*
X375000Y76600D02*
D03*
X481700Y45000D02*
D03*
X364900Y68300D02*
D03*
X479300Y45000D02*
D03*
X367300Y68300D02*
D03*
X56300Y59400D02*
D03*
X51600Y55600D02*
D03*
X46900Y59300D02*
D03*
X410489Y68300D02*
D03*
X404489D02*
D03*
X398589D02*
D03*
X392689D02*
D03*
X498600Y287100D02*
D03*
X360200Y130400D02*
D03*
X325200D02*
D03*
X549700Y201200D02*
D03*
X364900Y101200D02*
D03*
X552100Y201200D02*
D03*
X367300Y101200D02*
D03*
X269300Y130400D02*
D03*
X330400Y119400D02*
D03*
X325200D02*
D03*
X320000D02*
D03*
X314800D02*
D03*
X309600D02*
D03*
X304400D02*
D03*
X299200D02*
D03*
X220300D02*
D03*
X241100D02*
D03*
X251500D02*
D03*
X246300D02*
D03*
X235900D02*
D03*
X230700D02*
D03*
X225500D02*
D03*
X220300Y130400D02*
D03*
X299200D02*
D03*
X309600D02*
D03*
X314800D02*
D03*
X320000D02*
D03*
X330400D02*
D03*
X251500D02*
D03*
X246300D02*
D03*
X241100D02*
D03*
X235900D02*
D03*
X230700D02*
D03*
X510900Y232600D02*
D03*
X480400Y209000D02*
D03*
Y211400D02*
D03*
X541200Y245500D02*
D03*
X550700D02*
D03*
X553800D02*
D03*
X557000D02*
D03*
X560100D02*
D03*
X569600D02*
D03*
X616000Y245400D02*
D03*
X644400D02*
D03*
X634900D02*
D03*
X631800D02*
D03*
X628600D02*
D03*
X625500D02*
D03*
X614400Y277700D02*
D03*
X617600D02*
D03*
X620700D02*
D03*
X623900D02*
D03*
X627000D02*
D03*
X630200D02*
D03*
X633300D02*
D03*
X636500D02*
D03*
X639600D02*
D03*
X642800D02*
D03*
X539600D02*
D03*
X568000D02*
D03*
X564800D02*
D03*
X561700D02*
D03*
X558500D02*
D03*
X555400D02*
D03*
X552200D02*
D03*
X549100D02*
D03*
X545900D02*
D03*
X542800D02*
D03*
X692900Y326000D02*
D03*
X681200D02*
D03*
X692900Y337400D02*
D03*
X681200D02*
D03*
X692700Y295400D02*
D03*
X681200D02*
D03*
X693000Y306900D02*
D03*
X681200D02*
D03*
X692900Y248200D02*
D03*
X681200D02*
D03*
X692900Y259700D02*
D03*
X681200D02*
D03*
X692900Y216700D02*
D03*
X681200D02*
D03*
X692900Y228200D02*
D03*
X681200D02*
D03*
X692900Y169500D02*
D03*
X681100D02*
D03*
X692800Y180900D02*
D03*
X681300D02*
D03*
X692800Y138000D02*
D03*
X681100D02*
D03*
X692900Y149400D02*
D03*
X681200D02*
D03*
X692800Y102200D02*
D03*
Y90700D02*
D03*
X681100D02*
D03*
X692900Y70700D02*
D03*
X692800Y59200D02*
D03*
X681200D02*
D03*
X681100Y102200D02*
D03*
X681300Y70600D02*
D03*
X382600Y68300D02*
D03*
X385000D02*
D03*
X621100Y126100D02*
D03*
Y123700D02*
D03*
X696200Y65000D02*
D03*
X677800D02*
D03*
X696200Y96400D02*
D03*
X677800D02*
D03*
X696200Y143700D02*
D03*
X677800D02*
D03*
X696200Y175200D02*
D03*
X677800D02*
D03*
X696200Y222400D02*
D03*
X677800D02*
D03*
X696200Y253900D02*
D03*
X677800D02*
D03*
X696200Y301200D02*
D03*
X677800D02*
D03*
Y331700D02*
D03*
X640900Y224200D02*
D03*
X373200Y101200D02*
D03*
X638500Y224200D02*
D03*
X370800Y101200D02*
D03*
X422300Y103300D02*
D03*
X420300Y101200D02*
D03*
X418300Y103300D02*
D03*
X416300Y101200D02*
D03*
X410400D02*
D03*
X404500D02*
D03*
X398600D02*
D03*
X392700Y103300D02*
D03*
X386800Y92600D02*
D03*
X380900D02*
D03*
X375000Y103300D02*
D03*
X369100D02*
D03*
X379100Y68300D02*
D03*
X376700D02*
D03*
X416300D02*
D03*
X418300Y66100D02*
D03*
X420300Y68300D02*
D03*
X422300Y66100D02*
D03*
X369100Y76600D02*
D03*
X386800Y66100D02*
D03*
X380900Y76600D02*
D03*
X473000Y27900D02*
D03*
X458000D02*
D03*
X488100D02*
D03*
X630500D02*
D03*
X615500D02*
D03*
X645600D02*
D03*
X566800D02*
D03*
X536700D02*
D03*
X551700D02*
D03*
X636800Y45000D02*
D03*
X639200D02*
D03*
X418300Y296500D02*
D03*
X479500Y305800D02*
D03*
X515100Y293800D02*
D03*
Y296400D02*
D03*
X493600Y287100D02*
D03*
X488500D02*
D03*
Y319200D02*
D03*
X513800Y336300D02*
D03*
X507900D02*
D03*
X502000D02*
D03*
X496100D02*
D03*
X490200D02*
D03*
X484300D02*
D03*
X479554Y319541D02*
D03*
X433600Y313000D02*
D03*
X366900D02*
D03*
X290400Y329500D02*
D03*
X343500D02*
D03*
X337600D02*
D03*
X314000D02*
D03*
X308000D02*
D03*
X296200D02*
D03*
X302100D02*
D03*
X234500Y313100D02*
D03*
X211600Y329500D02*
D03*
X264800D02*
D03*
X258800D02*
D03*
X223400D02*
D03*
X217500D02*
D03*
X316500Y313000D02*
D03*
X196500Y313100D02*
D03*
X238000D02*
D03*
X263000Y313000D02*
D03*
X275600D02*
D03*
X288200Y313100D02*
D03*
X291700D02*
D03*
X341700Y313000D02*
D03*
X354300D02*
D03*
X370500D02*
D03*
X391900D02*
D03*
X395500D02*
D03*
X416900D02*
D03*
X420500D02*
D03*
X313300D02*
D03*
X338200D02*
D03*
X213000D02*
D03*
X259500D02*
D03*
X209600D02*
D03*
X288300Y294400D02*
D03*
X319800D02*
D03*
X315900D02*
D03*
X312000D02*
D03*
X296200D02*
D03*
X292300D02*
D03*
X304100D02*
D03*
X308100D02*
D03*
X300200D02*
D03*
X323800D02*
D03*
X343500D02*
D03*
X339500D02*
D03*
X335600D02*
D03*
X327700D02*
D03*
X286400Y296500D02*
D03*
X306100D02*
D03*
X317900D02*
D03*
X314000D02*
D03*
X310100D02*
D03*
X294300D02*
D03*
X290400D02*
D03*
X302200D02*
D03*
X298300D02*
D03*
X321900D02*
D03*
X341600D02*
D03*
X337600D02*
D03*
X333700D02*
D03*
X329800D02*
D03*
X325800D02*
D03*
X209600Y294400D02*
D03*
X241100D02*
D03*
X237200D02*
D03*
X233300D02*
D03*
X217500D02*
D03*
X213600D02*
D03*
X225400D02*
D03*
X229400D02*
D03*
X221500D02*
D03*
X245100D02*
D03*
X264800D02*
D03*
X260800D02*
D03*
X256900D02*
D03*
X253000D02*
D03*
X249000D02*
D03*
X207700Y296400D02*
D03*
X239100D02*
D03*
X235200D02*
D03*
X231300D02*
D03*
X215500D02*
D03*
X211600D02*
D03*
X223400D02*
D03*
X227400D02*
D03*
X219500D02*
D03*
X243100D02*
D03*
X262800D02*
D03*
X258800D02*
D03*
X254900D02*
D03*
X251000D02*
D03*
X247000D02*
D03*
X250989Y101200D02*
D03*
X211589Y68100D02*
D03*
X217489D02*
D03*
X209589Y84600D02*
D03*
X248989Y103300D02*
D03*
X252989D02*
D03*
X254889Y101200D02*
D03*
X256889Y103300D02*
D03*
X258889Y101200D02*
D03*
X260789Y103300D02*
D03*
X262789Y101200D02*
D03*
X264789Y103300D02*
D03*
X259489Y84600D02*
D03*
X245089Y103300D02*
D03*
X247089Y101200D02*
D03*
X243089D02*
D03*
X239189D02*
D03*
X234489Y84700D02*
D03*
X221489Y103300D02*
D03*
X227389Y101200D02*
D03*
X223389D02*
D03*
X229389Y103300D02*
D03*
X225389D02*
D03*
X211589Y101200D02*
D03*
X215589D02*
D03*
X219489D02*
D03*
X212989Y84600D02*
D03*
X343489Y68100D02*
D03*
X264789D02*
D03*
X313289Y84700D02*
D03*
X306089Y101200D02*
D03*
X433389Y84700D02*
D03*
X420489Y84600D02*
D03*
X416889D02*
D03*
X395489D02*
D03*
X391889D02*
D03*
X370489D02*
D03*
X366889D02*
D03*
X354289D02*
D03*
X341689D02*
D03*
X291689Y84700D02*
D03*
X288189D02*
D03*
X275589Y84600D02*
D03*
X262989D02*
D03*
X237989Y84700D02*
D03*
X196489D02*
D03*
X258889Y68100D02*
D03*
X229289D02*
D03*
X223389D02*
D03*
X308100D02*
D03*
X302200D02*
D03*
X296300D02*
D03*
X290289D02*
D03*
X343489Y103300D02*
D03*
X341489Y101200D02*
D03*
X339589Y103300D02*
D03*
X337589Y101200D02*
D03*
X335589Y103300D02*
D03*
X333689Y101200D02*
D03*
X331689Y103300D02*
D03*
X329689Y101200D02*
D03*
X327789Y103300D02*
D03*
X325789Y101200D02*
D03*
X323789Y103300D02*
D03*
X321889Y101200D02*
D03*
X319889Y103300D02*
D03*
X317889Y101200D02*
D03*
X315889Y103300D02*
D03*
X313989Y101200D02*
D03*
X311989Y103300D02*
D03*
X309989Y101200D02*
D03*
X308089Y103300D02*
D03*
X304089D02*
D03*
X302189Y101200D02*
D03*
X300189Y103300D02*
D03*
X298189Y101200D02*
D03*
X296189Y103300D02*
D03*
X294289Y101200D02*
D03*
X292289Y103300D02*
D03*
X286389Y101200D02*
D03*
X288389Y103300D02*
D03*
X290389Y101200D02*
D03*
X207689D02*
D03*
X209689Y103300D02*
D03*
X213589D02*
D03*
X217489D02*
D03*
X231289Y101200D02*
D03*
X233289Y103300D02*
D03*
X235289Y101200D02*
D03*
X237189Y103300D02*
D03*
X241089D02*
D03*
X365100Y294400D02*
D03*
X367100Y296500D02*
D03*
X369100Y294400D02*
D03*
X371000Y296500D02*
D03*
X418300Y329500D02*
D03*
X422300D02*
D03*
X420300Y331600D02*
D03*
Y294500D02*
D03*
X416300D02*
D03*
X365200Y329500D02*
D03*
X369100D02*
D03*
X373000D02*
D03*
X375000Y331600D02*
D03*
X377000Y329500D02*
D03*
X378900Y331600D02*
D03*
X331700Y294400D02*
D03*
X338189Y84600D02*
D03*
X316800Y84700D02*
D03*
X672900Y79100D02*
D03*
X385100Y101200D02*
D03*
X672900Y81500D02*
D03*
X382700Y101200D02*
D03*
X376700D02*
D03*
X672900Y239200D02*
D03*
Y236800D02*
D03*
X379100Y101200D02*
D03*
X371100Y333200D02*
D03*
X367200D02*
D03*
X622047Y62992D02*
D03*
X606299D02*
D03*
X590551D02*
D03*
X574803D02*
D03*
X559055D02*
D03*
X543307D02*
D03*
X527559D02*
D03*
X511811D02*
D03*
X496063D02*
D03*
X480315D02*
D03*
X511811Y47244D02*
D03*
X496063D02*
D03*
X527559Y31496D02*
D03*
X511811D02*
D03*
X574803Y47244D02*
D03*
X590551D02*
D03*
Y31496D02*
D03*
X574803D02*
D03*
X606299D02*
D03*
Y43307D02*
D03*
X637795Y62992D02*
D03*
X653543Y47244D02*
D03*
Y31496D02*
D03*
X429134Y110236D02*
D03*
X440945Y122047D02*
D03*
X452756Y133858D02*
D03*
X464567Y145669D02*
D03*
X476378Y157480D02*
D03*
X488189Y169291D02*
D03*
X397638Y149606D02*
D03*
X409449Y161417D02*
D03*
X421260Y173228D02*
D03*
X433071Y185039D02*
D03*
X562992Y200787D02*
D03*
X578740D02*
D03*
X606299D02*
D03*
X618110Y212598D02*
D03*
X374016Y149606D02*
D03*
X385827Y161417D02*
D03*
X397638Y173228D02*
D03*
X409449Y185039D02*
D03*
X437008Y212598D02*
D03*
X448819Y224410D02*
D03*
X464567Y216535D02*
D03*
M02*
