G04 Layer_Color=8421504*
%FSLAX25Y25*%
%MOIN*%
G70*
G01*
G75*
%ADD13R,0.01969X0.07874*%
%ADD14R,0.03543X0.09449*%
%ADD15R,0.02756X0.03150*%
%ADD16R,0.10000X0.02520*%
%ADD17R,0.18504X0.02520*%
%ADD18R,0.01181X0.05709*%
%ADD19R,0.02362X0.08661*%
%ADD20R,0.02362X0.08661*%
%ADD21R,0.03937X0.03543*%
%ADD22R,0.03150X0.02362*%
%ADD23R,0.02362X0.03150*%
%ADD24R,0.07087X0.05118*%
%ADD28R,0.05906X0.05906*%
%ADD74C,0.00000*%
D13*
X567992Y272441D02*
D03*
X564843D02*
D03*
X561693D02*
D03*
X558543D02*
D03*
X555394D02*
D03*
X552244D02*
D03*
X549094D02*
D03*
X545945D02*
D03*
X542795D02*
D03*
X539646D02*
D03*
X541221Y240158D02*
D03*
X544370D02*
D03*
X547520D02*
D03*
X550669D02*
D03*
X553819D02*
D03*
X556968D02*
D03*
X560118D02*
D03*
X563268D02*
D03*
X566417D02*
D03*
X569567D02*
D03*
X644370Y240158D02*
D03*
X641221D02*
D03*
X638071D02*
D03*
X634921D02*
D03*
X631772D02*
D03*
X628622D02*
D03*
X625472D02*
D03*
X622323D02*
D03*
X619173D02*
D03*
X616024D02*
D03*
X614449Y272441D02*
D03*
X617598D02*
D03*
X620748D02*
D03*
X623898D02*
D03*
X627047D02*
D03*
X630197D02*
D03*
X633347D02*
D03*
X636496D02*
D03*
X639646D02*
D03*
X642795D02*
D03*
D14*
X536752Y21850D02*
D03*
X541752D02*
D03*
X546752D02*
D03*
X551752D02*
D03*
X556752D02*
D03*
X561752D02*
D03*
X566752D02*
D03*
X488012D02*
D03*
X483012D02*
D03*
X478012D02*
D03*
X473012D02*
D03*
X468012D02*
D03*
X463012D02*
D03*
X458012D02*
D03*
X615492D02*
D03*
X620492D02*
D03*
X625492D02*
D03*
X630492D02*
D03*
X635492D02*
D03*
X640492D02*
D03*
X645492D02*
D03*
D15*
X513779Y328346D02*
D03*
Y333071D02*
D03*
X496063Y333071D02*
D03*
Y328346D02*
D03*
X484252Y333071D02*
D03*
Y328346D02*
D03*
X507874Y333071D02*
D03*
Y328346D02*
D03*
X501968Y328346D02*
D03*
Y333071D02*
D03*
X490158Y328346D02*
D03*
Y333071D02*
D03*
X309600Y127462D02*
D03*
Y122738D02*
D03*
X330400Y127462D02*
D03*
Y122738D02*
D03*
X299200Y122738D02*
D03*
Y127462D02*
D03*
X304400Y122738D02*
D03*
Y127462D02*
D03*
X314800Y122738D02*
D03*
Y127462D02*
D03*
X320000Y122738D02*
D03*
Y127462D02*
D03*
X325200Y122738D02*
D03*
Y127462D02*
D03*
X230700Y127462D02*
D03*
Y122738D02*
D03*
X251500Y127462D02*
D03*
Y122738D02*
D03*
X220300Y127462D02*
D03*
Y122738D02*
D03*
X225500Y127462D02*
D03*
Y122738D02*
D03*
X235900Y127462D02*
D03*
Y122738D02*
D03*
X241100Y127462D02*
D03*
Y122738D02*
D03*
X246300Y127462D02*
D03*
Y122738D02*
D03*
D16*
X202972Y312992D02*
D03*
X269468D02*
D03*
X360453D02*
D03*
X426949D02*
D03*
X348209D02*
D03*
X281713D02*
D03*
X281713Y84646D02*
D03*
X348209D02*
D03*
X426949D02*
D03*
X360453D02*
D03*
X269469D02*
D03*
X202973D02*
D03*
D17*
X223721Y312992D02*
D03*
X248721D02*
D03*
X381201D02*
D03*
X406201D02*
D03*
X327461D02*
D03*
X302461D02*
D03*
X302461Y84646D02*
D03*
X327461D02*
D03*
X406201D02*
D03*
X381201D02*
D03*
X248721D02*
D03*
X223721D02*
D03*
D18*
X422244Y300827D02*
D03*
X422244Y325157D02*
D03*
X420276D02*
D03*
X418307D02*
D03*
X416339D02*
D03*
X414370D02*
D03*
X412402D02*
D03*
X410433D02*
D03*
X408465D02*
D03*
X406496D02*
D03*
X404528D02*
D03*
X402559D02*
D03*
X400591D02*
D03*
X398622D02*
D03*
X396654D02*
D03*
X394685D02*
D03*
X392717D02*
D03*
X390748D02*
D03*
X388779D02*
D03*
X386811D02*
D03*
X384842D02*
D03*
X382874D02*
D03*
X380906D02*
D03*
X378937D02*
D03*
X376969D02*
D03*
X375000D02*
D03*
X373031D02*
D03*
X371063D02*
D03*
X369094D02*
D03*
X367126D02*
D03*
X365158D02*
D03*
X343504D02*
D03*
X341535D02*
D03*
X339567D02*
D03*
X337598D02*
D03*
X335630D02*
D03*
X333661D02*
D03*
X331693D02*
D03*
X329724D02*
D03*
X327756D02*
D03*
X325787D02*
D03*
X323819D02*
D03*
X321850D02*
D03*
X319882D02*
D03*
X317913D02*
D03*
X315945D02*
D03*
X313976D02*
D03*
X312008D02*
D03*
X310039D02*
D03*
X308071D02*
D03*
X306102D02*
D03*
X304134D02*
D03*
X302165D02*
D03*
X300197D02*
D03*
X298228D02*
D03*
X296260D02*
D03*
X294291D02*
D03*
X292323D02*
D03*
X290354D02*
D03*
X288386D02*
D03*
X286417D02*
D03*
X264764D02*
D03*
X262795D02*
D03*
X260827D02*
D03*
X258858D02*
D03*
X256890D02*
D03*
X254921D02*
D03*
X252953D02*
D03*
X250984D02*
D03*
X249016D02*
D03*
X247047D02*
D03*
X245079D02*
D03*
X243110D02*
D03*
X241142D02*
D03*
X239173D02*
D03*
X237205D02*
D03*
X235236D02*
D03*
X233268D02*
D03*
X231299D02*
D03*
X229331D02*
D03*
X227362D02*
D03*
X225394D02*
D03*
X223425D02*
D03*
X221457D02*
D03*
X219488D02*
D03*
X217520D02*
D03*
X215551D02*
D03*
X213583D02*
D03*
X211614D02*
D03*
X209646D02*
D03*
X207677D02*
D03*
X420276Y300827D02*
D03*
X418307D02*
D03*
X416339D02*
D03*
X414370D02*
D03*
X412402D02*
D03*
X410433D02*
D03*
X408465D02*
D03*
X406496D02*
D03*
X404528D02*
D03*
X402559D02*
D03*
X400591D02*
D03*
X398622D02*
D03*
X396654D02*
D03*
X394685D02*
D03*
X392717D02*
D03*
X390748D02*
D03*
X388779D02*
D03*
X386811D02*
D03*
X384842D02*
D03*
X382874D02*
D03*
X380906D02*
D03*
X378937D02*
D03*
X376969D02*
D03*
X375000D02*
D03*
X373031D02*
D03*
X371063D02*
D03*
X369094D02*
D03*
X367126D02*
D03*
X365158D02*
D03*
X343504D02*
D03*
X341535D02*
D03*
X339567D02*
D03*
X337598D02*
D03*
X335630D02*
D03*
X333661D02*
D03*
X331693D02*
D03*
X329724D02*
D03*
X327756D02*
D03*
X325787D02*
D03*
X323819D02*
D03*
X321850D02*
D03*
X319882D02*
D03*
X317913D02*
D03*
X315945D02*
D03*
X313976D02*
D03*
X312008D02*
D03*
X310039D02*
D03*
X308071D02*
D03*
X306102D02*
D03*
X304134D02*
D03*
X302165D02*
D03*
X300197D02*
D03*
X298228D02*
D03*
X296260D02*
D03*
X294291D02*
D03*
X292323D02*
D03*
X290354D02*
D03*
X288386D02*
D03*
X286417D02*
D03*
X264764D02*
D03*
X262795D02*
D03*
X260827D02*
D03*
X258858D02*
D03*
X256890D02*
D03*
X254921D02*
D03*
X252953D02*
D03*
X250984D02*
D03*
X249016D02*
D03*
X247047D02*
D03*
X245079D02*
D03*
X243110D02*
D03*
X241142D02*
D03*
X239173D02*
D03*
X237205D02*
D03*
X235236D02*
D03*
X233268D02*
D03*
X231299D02*
D03*
X229331D02*
D03*
X227362D02*
D03*
X225394D02*
D03*
X223425D02*
D03*
X221457D02*
D03*
X219488D02*
D03*
X217520D02*
D03*
X215551D02*
D03*
X213583D02*
D03*
X211614D02*
D03*
X209646D02*
D03*
X207677D02*
D03*
X207677Y72480D02*
D03*
X209646D02*
D03*
X211614D02*
D03*
X213583D02*
D03*
X215551D02*
D03*
X217520D02*
D03*
X219488D02*
D03*
X221457D02*
D03*
X223425D02*
D03*
X225394D02*
D03*
X227362D02*
D03*
X229331D02*
D03*
X231299D02*
D03*
X233268D02*
D03*
X235236D02*
D03*
X237205D02*
D03*
X239173D02*
D03*
X241142D02*
D03*
X243110D02*
D03*
X245079D02*
D03*
X247047D02*
D03*
X249016D02*
D03*
X250984D02*
D03*
X252953D02*
D03*
X254921D02*
D03*
X256890D02*
D03*
X258858D02*
D03*
X260827D02*
D03*
X262795D02*
D03*
X264764D02*
D03*
X286417D02*
D03*
X288386D02*
D03*
X290354D02*
D03*
X292323D02*
D03*
X294291D02*
D03*
X296260D02*
D03*
X298228D02*
D03*
X300197D02*
D03*
X302165D02*
D03*
X304134D02*
D03*
X306102D02*
D03*
X308071D02*
D03*
X310039D02*
D03*
X312008D02*
D03*
X313976D02*
D03*
X315945D02*
D03*
X317914D02*
D03*
X319882D02*
D03*
X321850D02*
D03*
X323819D02*
D03*
X325787D02*
D03*
X327756D02*
D03*
X329725D02*
D03*
X331693D02*
D03*
X333662D02*
D03*
X335630D02*
D03*
X337598D02*
D03*
X339567D02*
D03*
X341535D02*
D03*
X343504D02*
D03*
X365158D02*
D03*
X367126D02*
D03*
X369094D02*
D03*
X371063D02*
D03*
X373032D02*
D03*
X375000D02*
D03*
X376969D02*
D03*
X378937D02*
D03*
X380906D02*
D03*
X382874D02*
D03*
X384843D02*
D03*
X386811D02*
D03*
X388780D02*
D03*
X390748D02*
D03*
X392717D02*
D03*
X394685D02*
D03*
X396654D02*
D03*
X398622D02*
D03*
X400591D02*
D03*
X402559D02*
D03*
X404528D02*
D03*
X406496D02*
D03*
X408465D02*
D03*
X410433D02*
D03*
X412402D02*
D03*
X414370D02*
D03*
X416339D02*
D03*
X418307D02*
D03*
X420276D02*
D03*
X207677Y96811D02*
D03*
X209646D02*
D03*
X211614D02*
D03*
X213583D02*
D03*
X215551D02*
D03*
X217520D02*
D03*
X219488D02*
D03*
X221457D02*
D03*
X223425D02*
D03*
X225394D02*
D03*
X227362D02*
D03*
X229331D02*
D03*
X231299D02*
D03*
X233268D02*
D03*
X235236D02*
D03*
X237205D02*
D03*
X239173D02*
D03*
X241142D02*
D03*
X243110D02*
D03*
X245079D02*
D03*
X247047D02*
D03*
X249016D02*
D03*
X250984D02*
D03*
X252953D02*
D03*
X254921D02*
D03*
X256890D02*
D03*
X258858D02*
D03*
X260827D02*
D03*
X262795D02*
D03*
X264764D02*
D03*
X286417D02*
D03*
X288386D02*
D03*
X290354D02*
D03*
X292323D02*
D03*
X294291D02*
D03*
X296260D02*
D03*
X298228D02*
D03*
X300197D02*
D03*
X302165D02*
D03*
X304134D02*
D03*
X306102D02*
D03*
X308071D02*
D03*
X310039D02*
D03*
X312008D02*
D03*
X313976D02*
D03*
X315945D02*
D03*
X317913D02*
D03*
X319882D02*
D03*
X321850D02*
D03*
X323819D02*
D03*
X325787D02*
D03*
X327756D02*
D03*
X329725D02*
D03*
X331693D02*
D03*
X333662D02*
D03*
X335630D02*
D03*
X337598D02*
D03*
X339567D02*
D03*
X341535D02*
D03*
X343504D02*
D03*
X365158D02*
D03*
X367126D02*
D03*
X369094D02*
D03*
X371063D02*
D03*
X373031D02*
D03*
X375000D02*
D03*
X376969D02*
D03*
X378937D02*
D03*
X380906D02*
D03*
X382874D02*
D03*
X384843D02*
D03*
X386811D02*
D03*
X388780D02*
D03*
X390748D02*
D03*
X392717D02*
D03*
X394685D02*
D03*
X396654D02*
D03*
X398622D02*
D03*
X400591D02*
D03*
X402559D02*
D03*
X404528D02*
D03*
X406496D02*
D03*
X408465D02*
D03*
X410433D02*
D03*
X412402D02*
D03*
X414370D02*
D03*
X416339D02*
D03*
X418307D02*
D03*
X420276D02*
D03*
X422244D02*
D03*
X422244Y72480D02*
D03*
D19*
X498563Y313386D02*
D03*
X493563D02*
D03*
X488563D02*
D03*
X503563Y292913D02*
D03*
X498563D02*
D03*
X493563D02*
D03*
X488563D02*
D03*
D20*
X503563Y313386D02*
D03*
D21*
X479500Y316000D02*
D03*
Y309307D02*
D03*
X478600Y230946D02*
D03*
Y224254D02*
D03*
D22*
X679200Y157000D02*
D03*
X683924D02*
D03*
X679200Y161300D02*
D03*
X683924D02*
D03*
X679138Y78200D02*
D03*
X683862D02*
D03*
X679138Y82500D02*
D03*
X683862D02*
D03*
X679134Y314173D02*
D03*
X683858D02*
D03*
X679134Y318504D02*
D03*
X683858D02*
D03*
X679200Y235800D02*
D03*
X683924D02*
D03*
X679200Y240100D02*
D03*
X683924D02*
D03*
X566535Y122700D02*
D03*
X571260D02*
D03*
X566535Y127000D02*
D03*
X571260D02*
D03*
X626238Y122700D02*
D03*
X630962D02*
D03*
X626238Y127000D02*
D03*
X630962D02*
D03*
D23*
X512200Y297462D02*
D03*
Y292738D02*
D03*
X620800Y41562D02*
D03*
Y36838D02*
D03*
X625100Y41562D02*
D03*
Y36838D02*
D03*
X635800Y41562D02*
D03*
Y36838D02*
D03*
X640100Y41562D02*
D03*
Y36838D02*
D03*
X542000Y41562D02*
D03*
Y36838D02*
D03*
X546300Y41562D02*
D03*
Y36838D02*
D03*
X556700Y41500D02*
D03*
Y36776D02*
D03*
X561700Y41500D02*
D03*
Y36776D02*
D03*
X463300Y41562D02*
D03*
Y36838D02*
D03*
X467600Y41562D02*
D03*
Y36838D02*
D03*
X478400Y41562D02*
D03*
Y36838D02*
D03*
X482700Y41562D02*
D03*
Y36838D02*
D03*
X483200Y212562D02*
D03*
Y207838D02*
D03*
D24*
X51600Y70809D02*
D03*
Y59391D02*
D03*
D28*
X506525Y232595D02*
D03*
Y212595D02*
D03*
Y222595D02*
D03*
X491761D02*
D03*
Y212595D02*
D03*
Y232595D02*
D03*
D74*
X37402Y362205D02*
D03*
X47244Y33465D02*
D03*
X675197Y35433D02*
D03*
X671260Y362205D02*
D03*
X189100Y124700D02*
D03*
X198819Y287402D02*
D03*
M02*
