G04 Layer_Color=128*
%FSLAX43Y43*%
%MOMM*%
G71*
G01*
G75*
%ADD83C,0.100*%
%ADD84C,0.100*%
%ADD180C,0.051*%
D83*
X-0Y2000D02*
G03*
X2000Y0I2000J0D01*
G01*
Y133340D02*
G03*
X-0Y131340I0J-2000D01*
G01*
X70000D02*
G03*
X68000Y133340I-2000J0D01*
G01*
Y0D02*
G03*
X70000Y2000I0J2000D01*
G01*
X36469Y7300D02*
G03*
X37369Y6400I900J0D01*
G01*
Y8200D02*
G03*
X36469Y7300I0J-900D01*
G01*
X52269Y7300D02*
G03*
X51369Y8200I-900J0D01*
G01*
X51369Y6400D02*
G03*
X52269Y7300I0J900D01*
G01*
X-0Y2000D02*
Y131340D01*
X70000Y2000D02*
Y131340D01*
X2000Y133340D02*
X68000D01*
X2000Y0D02*
X37369D01*
Y-0D02*
Y6400D01*
Y8200D02*
X51369D01*
X52269Y7300D02*
Y7300D01*
X51369Y-0D02*
Y6400D01*
Y-0D02*
X68000D01*
Y0D01*
D84*
X51369Y6400D02*
D03*
D180*
X26366Y71304D02*
X27866D01*
X27116Y70554D02*
Y72054D01*
X42366Y71304D02*
X43866D01*
X43116Y70554D02*
Y72054D01*
X43386Y92074D02*
X44386D01*
X43886Y91574D02*
Y92574D01*
X45926Y92074D02*
X46926D01*
X46426Y91574D02*
Y92574D01*
X34496Y93979D02*
X35496D01*
X34996Y93479D02*
Y94479D01*
X31956Y93979D02*
X32956D01*
X32456Y93479D02*
Y94479D01*
X29416Y93979D02*
X30416D01*
X29916Y93479D02*
Y94479D01*
X34496Y97154D02*
X35496D01*
X34996Y96654D02*
Y97654D01*
X37036Y97154D02*
X38036D01*
X37536Y96654D02*
Y97654D01*
X10366Y99059D02*
X11366D01*
X10866Y98559D02*
Y99559D01*
X10366Y101599D02*
X11366D01*
X10866Y101099D02*
Y102099D01*
X61166Y121919D02*
X62166D01*
X61666Y121419D02*
Y122419D01*
X61166Y119379D02*
X62166D01*
X61666Y118879D02*
Y119879D01*
X61166Y116839D02*
X62166D01*
X61666Y116339D02*
Y117339D01*
X58626Y116839D02*
X59626D01*
X59126Y116339D02*
Y117339D01*
X58626Y119379D02*
X59626D01*
X59126Y118879D02*
Y119879D01*
X58626Y121919D02*
X59626D01*
X59126Y121419D02*
Y122419D01*
X58626Y114299D02*
X59626D01*
X59126Y113799D02*
Y114799D01*
X61166Y114299D02*
X62166D01*
X61666Y113799D02*
Y114799D01*
X29416Y130809D02*
X30416D01*
X29916Y130309D02*
Y131309D01*
X31956Y130809D02*
X32956D01*
X32456Y130309D02*
Y131309D01*
X5286Y12699D02*
X6286D01*
X5786Y12199D02*
Y13199D01*
X2746Y12699D02*
X3746D01*
X3246Y12199D02*
Y13199D01*
X66246Y12674D02*
X67246D01*
X66746Y12174D02*
Y13174D01*
X63706Y12674D02*
X64706D01*
X64206Y12174D02*
Y13174D01*
X35979Y4200D02*
X36679D01*
X36329Y3850D02*
Y4550D01*
X36959Y9520D02*
X37659D01*
X37309Y9170D02*
Y9870D01*
X39249Y9520D02*
X39949D01*
X39599Y9170D02*
Y9870D01*
X51079Y9520D02*
X51779D01*
X51429Y9170D02*
Y9870D01*
X47589Y10600D02*
X48289D01*
X47939Y10250D02*
Y10950D01*
X46569Y11700D02*
X47269D01*
X46919Y11350D02*
Y12050D01*
X45549Y10600D02*
X46249D01*
X45899Y10250D02*
Y10950D01*
X44529Y11700D02*
X45229D01*
X44879Y11350D02*
Y12050D01*
X43509Y10600D02*
X44209D01*
X43859Y10250D02*
Y10950D01*
X42489Y11700D02*
X43189D01*
X42839Y11350D02*
Y12050D01*
X41469Y10600D02*
X42169D01*
X41819Y10250D02*
Y10950D01*
X40449Y11700D02*
X41149D01*
X40799Y11350D02*
Y12050D01*
X48789Y9520D02*
X49489D01*
X49139Y9170D02*
Y9870D01*
X52059Y4200D02*
X52759D01*
X52409Y3850D02*
Y4550D01*
X18273Y4464D02*
X18923D01*
X18598Y4139D02*
Y4789D01*
X22773Y814D02*
X23623D01*
X23198Y389D02*
Y1239D01*
X24698Y1464D02*
X25298D01*
X24998Y1164D02*
Y1764D01*
X22723Y4464D02*
X23373D01*
X23048Y4139D02*
Y4789D01*
X16348Y1464D02*
X16948D01*
X16648Y1164D02*
Y1764D01*
X18023Y814D02*
X18873D01*
X18448Y389D02*
Y1239D01*
X63706Y101574D02*
X64706D01*
X64206Y101074D02*
Y102074D01*
X63706Y99034D02*
X64706D01*
X64206Y98534D02*
Y99534D01*
X63706Y96494D02*
X64706D01*
X64206Y95994D02*
Y96994D01*
X63706Y93954D02*
X64706D01*
X64206Y93454D02*
Y94454D01*
X66246Y96494D02*
X67246D01*
X66746Y95994D02*
Y96994D01*
X66246Y99034D02*
X67246D01*
X66746Y98534D02*
Y99534D01*
X66246Y101574D02*
X67246D01*
X66746Y101074D02*
Y102074D01*
X66246Y93954D02*
X67246D01*
X66746Y93454D02*
Y94454D01*
X66246Y86334D02*
X67246D01*
X66746Y85834D02*
Y86834D01*
X66246Y91414D02*
X67246D01*
X66746Y90914D02*
Y91914D01*
X66246Y88874D02*
X67246D01*
X66746Y88374D02*
Y89374D01*
X63706Y86334D02*
X64706D01*
X64206Y85834D02*
Y86834D01*
X63706Y88874D02*
X64706D01*
X64206Y88374D02*
Y89374D01*
X63706Y91414D02*
X64706D01*
X64206Y90914D02*
Y91914D01*
X63706Y78714D02*
X64706D01*
X64206Y78214D02*
Y79214D01*
X63706Y76174D02*
X64706D01*
X64206Y75674D02*
Y76674D01*
X63706Y73634D02*
X64706D01*
X64206Y73134D02*
Y74134D01*
X66246Y76174D02*
X67246D01*
X66746Y75674D02*
Y76674D01*
X66246Y78714D02*
X67246D01*
X66746Y78214D02*
Y79214D01*
X66246Y73634D02*
X67246D01*
X66746Y73134D02*
Y74134D01*
X66246Y81254D02*
X67246D01*
X66746Y80754D02*
Y81754D01*
X66246Y83794D02*
X67246D01*
X66746Y83294D02*
Y84294D01*
X63706Y81254D02*
X64706D01*
X64206Y80754D02*
Y81754D01*
X63706Y83794D02*
X64706D01*
X64206Y83294D02*
Y84294D01*
X63706Y58394D02*
X64706D01*
X64206Y57894D02*
Y58894D01*
X63706Y55854D02*
X64706D01*
X64206Y55354D02*
Y56354D01*
X66246Y58394D02*
X67246D01*
X66746Y57894D02*
Y58894D01*
X66246Y55854D02*
X67246D01*
X66746Y55354D02*
Y56354D01*
X66246Y53314D02*
X67246D01*
X66746Y52814D02*
Y53814D01*
X66246Y50774D02*
X67246D01*
X66746Y50274D02*
Y51274D01*
X63706Y50774D02*
X64706D01*
X64206Y50274D02*
Y51274D01*
X63706Y53314D02*
X64706D01*
X64206Y52814D02*
Y53814D01*
X63706Y66014D02*
X64706D01*
X64206Y65514D02*
Y66514D01*
X63706Y63474D02*
X64706D01*
X64206Y62974D02*
Y63974D01*
X63706Y60934D02*
X64706D01*
X64206Y60434D02*
Y61434D01*
X66246Y63474D02*
X67246D01*
X66746Y62974D02*
Y63974D01*
X66246Y66014D02*
X67246D01*
X66746Y65514D02*
Y66514D01*
X66246Y60934D02*
X67246D01*
X66746Y60434D02*
Y61434D01*
X66246Y68554D02*
X67246D01*
X66746Y68054D02*
Y69054D01*
X66246Y71094D02*
X67246D01*
X66746Y70594D02*
Y71594D01*
X63706Y68554D02*
X64706D01*
X64206Y68054D02*
Y69054D01*
X63706Y71094D02*
X64706D01*
X64206Y70594D02*
Y71594D01*
X63706Y48234D02*
X64706D01*
X64206Y47734D02*
Y48734D01*
X66246Y48234D02*
X67246D01*
X66746Y47734D02*
Y48734D01*
X63706Y17754D02*
X64706D01*
X64206Y17254D02*
Y18254D01*
X63706Y15214D02*
X64706D01*
X64206Y14714D02*
Y15714D01*
X66246Y17754D02*
X67246D01*
X66746Y17254D02*
Y18254D01*
X66246Y15214D02*
X67246D01*
X66746Y14714D02*
Y15714D01*
X63706Y30454D02*
X64706D01*
X64206Y29954D02*
Y30954D01*
X63706Y27914D02*
X64706D01*
X64206Y27414D02*
Y28414D01*
X66246Y30454D02*
X67246D01*
X66746Y29954D02*
Y30954D01*
X66246Y27914D02*
X67246D01*
X66746Y27414D02*
Y28414D01*
X66246Y20294D02*
X67246D01*
X66746Y19794D02*
Y20794D01*
X66246Y25374D02*
X67246D01*
X66746Y24874D02*
Y25874D01*
X66246Y22834D02*
X67246D01*
X66746Y22334D02*
Y23334D01*
X63706Y20294D02*
X64706D01*
X64206Y19794D02*
Y20794D01*
X63706Y22834D02*
X64706D01*
X64206Y22334D02*
Y23334D01*
X63706Y25374D02*
X64706D01*
X64206Y24874D02*
Y25874D01*
X63706Y38074D02*
X64706D01*
X64206Y37574D02*
Y38574D01*
X63706Y35534D02*
X64706D01*
X64206Y35034D02*
Y36034D01*
X63706Y32994D02*
X64706D01*
X64206Y32494D02*
Y33494D01*
X66246Y35534D02*
X67246D01*
X66746Y35034D02*
Y36034D01*
X66246Y38074D02*
X67246D01*
X66746Y37574D02*
Y38574D01*
X66246Y32994D02*
X67246D01*
X66746Y32494D02*
Y33494D01*
X66246Y40614D02*
X67246D01*
X66746Y40114D02*
Y41114D01*
X66246Y45694D02*
X67246D01*
X66746Y45194D02*
Y46194D01*
X66246Y43154D02*
X67246D01*
X66746Y42654D02*
Y43654D01*
X63706Y40614D02*
X64706D01*
X64206Y40114D02*
Y41114D01*
X63706Y43154D02*
X64706D01*
X64206Y42654D02*
Y43654D01*
X63706Y45694D02*
X64706D01*
X64206Y45194D02*
Y46194D01*
X2746Y101599D02*
X3746D01*
X3246Y101099D02*
Y102099D01*
X2746Y99059D02*
X3746D01*
X3246Y98559D02*
Y99559D01*
X2746Y96519D02*
X3746D01*
X3246Y96019D02*
Y97019D01*
X2746Y93979D02*
X3746D01*
X3246Y93479D02*
Y94479D01*
X5286Y96519D02*
X6286D01*
X5786Y96019D02*
Y97019D01*
X5286Y99059D02*
X6286D01*
X5786Y98559D02*
Y99559D01*
X5286Y101599D02*
X6286D01*
X5786Y101099D02*
Y102099D01*
X5286Y93979D02*
X6286D01*
X5786Y93479D02*
Y94479D01*
X5286Y86359D02*
X6286D01*
X5786Y85859D02*
Y86859D01*
X5286Y91439D02*
X6286D01*
X5786Y90939D02*
Y91939D01*
X5286Y88899D02*
X6286D01*
X5786Y88399D02*
Y89399D01*
X2746Y86359D02*
X3746D01*
X3246Y85859D02*
Y86859D01*
X2746Y88899D02*
X3746D01*
X3246Y88399D02*
Y89399D01*
X2746Y91439D02*
X3746D01*
X3246Y90939D02*
Y91939D01*
X2746Y78739D02*
X3746D01*
X3246Y78239D02*
Y79239D01*
X2746Y76199D02*
X3746D01*
X3246Y75699D02*
Y76699D01*
X2746Y73659D02*
X3746D01*
X3246Y73159D02*
Y74159D01*
X5286Y76199D02*
X6286D01*
X5786Y75699D02*
Y76699D01*
X5286Y78739D02*
X6286D01*
X5786Y78239D02*
Y79239D01*
X5286Y73659D02*
X6286D01*
X5786Y73159D02*
Y74159D01*
X5286Y81279D02*
X6286D01*
X5786Y80779D02*
Y81779D01*
X5286Y83819D02*
X6286D01*
X5786Y83319D02*
Y84319D01*
X2746Y81279D02*
X3746D01*
X3246Y80779D02*
Y81779D01*
X2746Y83819D02*
X3746D01*
X3246Y83319D02*
Y84319D01*
X2746Y58419D02*
X3746D01*
X3246Y57919D02*
Y58919D01*
X2746Y55879D02*
X3746D01*
X3246Y55379D02*
Y56379D01*
X5286Y58419D02*
X6286D01*
X5786Y57919D02*
Y58919D01*
X5286Y55879D02*
X6286D01*
X5786Y55379D02*
Y56379D01*
X5286Y53339D02*
X6286D01*
X5786Y52839D02*
Y53839D01*
X5286Y50799D02*
X6286D01*
X5786Y50299D02*
Y51299D01*
X2746Y50799D02*
X3746D01*
X3246Y50299D02*
Y51299D01*
X2746Y53339D02*
X3746D01*
X3246Y52839D02*
Y53839D01*
X2746Y66039D02*
X3746D01*
X3246Y65539D02*
Y66539D01*
X2746Y63499D02*
X3746D01*
X3246Y62999D02*
Y63999D01*
X2746Y60959D02*
X3746D01*
X3246Y60459D02*
Y61459D01*
X5286Y63499D02*
X6286D01*
X5786Y62999D02*
Y63999D01*
X5286Y66039D02*
X6286D01*
X5786Y65539D02*
Y66539D01*
X5286Y60959D02*
X6286D01*
X5786Y60459D02*
Y61459D01*
X5286Y68579D02*
X6286D01*
X5786Y68079D02*
Y69079D01*
X5286Y71119D02*
X6286D01*
X5786Y70619D02*
Y71619D01*
X2746Y68579D02*
X3746D01*
X3246Y68079D02*
Y69079D01*
X2746Y71119D02*
X3746D01*
X3246Y70619D02*
Y71619D01*
X2746Y48259D02*
X3746D01*
X3246Y47759D02*
Y48759D01*
X5286Y48259D02*
X6286D01*
X5786Y47759D02*
Y48759D01*
X2746Y17779D02*
X3746D01*
X3246Y17279D02*
Y18279D01*
X2746Y15239D02*
X3746D01*
X3246Y14739D02*
Y15739D01*
X5286Y17779D02*
X6286D01*
X5786Y17279D02*
Y18279D01*
X5286Y15239D02*
X6286D01*
X5786Y14739D02*
Y15739D01*
X2746Y30479D02*
X3746D01*
X3246Y29979D02*
Y30979D01*
X2746Y27939D02*
X3746D01*
X3246Y27439D02*
Y28439D01*
X5286Y30479D02*
X6286D01*
X5786Y29979D02*
Y30979D01*
X5286Y27939D02*
X6286D01*
X5786Y27439D02*
Y28439D01*
X5286Y20319D02*
X6286D01*
X5786Y19819D02*
Y20819D01*
X5286Y25399D02*
X6286D01*
X5786Y24899D02*
Y25899D01*
X5286Y22859D02*
X6286D01*
X5786Y22359D02*
Y23359D01*
X2746Y20319D02*
X3746D01*
X3246Y19819D02*
Y20819D01*
X2746Y22859D02*
X3746D01*
X3246Y22359D02*
Y23359D01*
X2746Y25399D02*
X3746D01*
X3246Y24899D02*
Y25899D01*
X2746Y38099D02*
X3746D01*
X3246Y37599D02*
Y38599D01*
X2746Y35559D02*
X3746D01*
X3246Y35059D02*
Y36059D01*
X2746Y33019D02*
X3746D01*
X3246Y32519D02*
Y33519D01*
X5286Y35559D02*
X6286D01*
X5786Y35059D02*
Y36059D01*
X5286Y38099D02*
X6286D01*
X5786Y37599D02*
Y38599D01*
X5286Y33019D02*
X6286D01*
X5786Y32519D02*
Y33519D01*
X5286Y40639D02*
X6286D01*
X5786Y40139D02*
Y41139D01*
X5286Y45719D02*
X6286D01*
X5786Y45219D02*
Y46219D01*
X5286Y43179D02*
X6286D01*
X5786Y42679D02*
Y43679D01*
X2746Y40639D02*
X3746D01*
X3246Y40139D02*
Y41139D01*
X2746Y43179D02*
X3746D01*
X3246Y42679D02*
Y43679D01*
X2746Y45719D02*
X3746D01*
X3246Y45219D02*
Y46219D01*
X58576Y35559D02*
X59676D01*
X59126Y35009D02*
Y36109D01*
X56036Y48259D02*
X57136D01*
X56586Y47709D02*
Y48809D01*
X56036Y45719D02*
X57136D01*
X56586Y45169D02*
Y46269D01*
X56036Y43179D02*
X57136D01*
X56586Y42629D02*
Y43729D01*
X56036Y40639D02*
X57136D01*
X56586Y40089D02*
Y41189D01*
X56036Y38099D02*
X57136D01*
X56586Y37549D02*
Y38649D01*
X56036Y60959D02*
X57136D01*
X56586Y60409D02*
Y61509D01*
X56036Y58419D02*
X57136D01*
X56586Y57869D02*
Y58969D01*
X56036Y55879D02*
X57136D01*
X56586Y55329D02*
Y56429D01*
X56036Y53339D02*
X57136D01*
X56586Y52789D02*
Y53889D01*
X56036Y50799D02*
X57136D01*
X56586Y50249D02*
Y51349D01*
X58576Y73659D02*
X59676D01*
X59126Y73109D02*
Y74209D01*
X56036Y71119D02*
X57136D01*
X56586Y70569D02*
Y71669D01*
X56036Y68579D02*
X57136D01*
X56586Y68029D02*
Y69129D01*
X56036Y66039D02*
X57136D01*
X56586Y65489D02*
Y66589D01*
X56036Y63499D02*
X57136D01*
X56586Y62949D02*
Y64049D01*
X58576Y38099D02*
X59676D01*
X59126Y37549D02*
Y38649D01*
X58576Y40639D02*
X59676D01*
X59126Y40089D02*
Y41189D01*
X58576Y43179D02*
X59676D01*
X59126Y42629D02*
Y43729D01*
X58576Y45719D02*
X59676D01*
X59126Y45169D02*
Y46269D01*
X58576Y48259D02*
X59676D01*
X59126Y47709D02*
Y48809D01*
X58576Y55879D02*
X59676D01*
X59126Y55329D02*
Y56429D01*
X58576Y58419D02*
X59676D01*
X59126Y57869D02*
Y58969D01*
X58576Y66039D02*
X59676D01*
X59126Y65489D02*
Y66589D01*
X58576Y68579D02*
X59676D01*
X59126Y68029D02*
Y69129D01*
X58576Y71119D02*
X59676D01*
X59126Y70569D02*
Y71669D01*
X56036Y73659D02*
X57136D01*
X56586Y73109D02*
Y74209D01*
X58576Y63499D02*
X59676D01*
X59126Y62949D02*
Y64049D01*
X58576Y60959D02*
X59676D01*
X59126Y60409D02*
Y61509D01*
X58576Y53339D02*
X59676D01*
X59126Y52789D02*
Y53889D01*
X58576Y50799D02*
X59676D01*
X59126Y50249D02*
Y51349D01*
X56036Y35559D02*
X57136D01*
X56586Y35009D02*
Y36109D01*
X58576Y33019D02*
X59676D01*
X59126Y32469D02*
Y33569D01*
X56036Y33019D02*
X57136D01*
X56586Y32469D02*
Y33569D01*
X10316Y43179D02*
X11416D01*
X10866Y42629D02*
Y43729D01*
X10316Y40639D02*
X11416D01*
X10866Y40089D02*
Y41189D01*
X10316Y38099D02*
X11416D01*
X10866Y37549D02*
Y38649D01*
X10316Y35559D02*
X11416D01*
X10866Y35009D02*
Y36109D01*
X10316Y33019D02*
X11416D01*
X10866Y32469D02*
Y33569D01*
X10316Y55879D02*
X11416D01*
X10866Y55329D02*
Y56429D01*
X10316Y53339D02*
X11416D01*
X10866Y52789D02*
Y53889D01*
X10316Y50799D02*
X11416D01*
X10866Y50249D02*
Y51349D01*
X10316Y48259D02*
X11416D01*
X10866Y47709D02*
Y48809D01*
X10316Y45719D02*
X11416D01*
X10866Y45169D02*
Y46269D01*
X12856Y68579D02*
X13956D01*
X13406Y68029D02*
Y69129D01*
X10316Y66039D02*
X11416D01*
X10866Y65489D02*
Y66589D01*
X10316Y63499D02*
X11416D01*
X10866Y62949D02*
Y64049D01*
X10316Y60959D02*
X11416D01*
X10866Y60409D02*
Y61509D01*
X10316Y58419D02*
X11416D01*
X10866Y57869D02*
Y58969D01*
X12856Y33019D02*
X13956D01*
X13406Y32469D02*
Y33569D01*
X12856Y35559D02*
X13956D01*
X13406Y35009D02*
Y36109D01*
X12856Y38099D02*
X13956D01*
X13406Y37549D02*
Y38649D01*
X12856Y40639D02*
X13956D01*
X13406Y40089D02*
Y41189D01*
X12856Y43179D02*
X13956D01*
X13406Y42629D02*
Y43729D01*
X12856Y50799D02*
X13956D01*
X13406Y50249D02*
Y51349D01*
X12856Y53339D02*
X13956D01*
X13406Y52789D02*
Y53889D01*
X12856Y60959D02*
X13956D01*
X13406Y60409D02*
Y61509D01*
X12856Y63499D02*
X13956D01*
X13406Y62949D02*
Y64049D01*
X12856Y66039D02*
X13956D01*
X13406Y65489D02*
Y66589D01*
X10316Y68579D02*
X11416D01*
X10866Y68029D02*
Y69129D01*
X12856Y58419D02*
X13956D01*
X13406Y57869D02*
Y58969D01*
X12856Y55879D02*
X13956D01*
X13406Y55329D02*
Y56429D01*
X12856Y48259D02*
X13956D01*
X13406Y47709D02*
Y48809D01*
X12856Y45719D02*
X13956D01*
X13406Y45169D02*
Y46269D01*
X10316Y78739D02*
X11416D01*
X10866Y78189D02*
Y79289D01*
X10316Y76199D02*
X11416D01*
X10866Y75649D02*
Y76749D01*
X10316Y73659D02*
X11416D01*
X10866Y73109D02*
Y74209D01*
X12856Y91439D02*
X13956D01*
X13406Y90889D02*
Y91989D01*
X10316Y88899D02*
X11416D01*
X10866Y88349D02*
Y89449D01*
X10316Y86359D02*
X11416D01*
X10866Y85809D02*
Y86909D01*
X10316Y83819D02*
X11416D01*
X10866Y83269D02*
Y84369D01*
X10316Y81279D02*
X11416D01*
X10866Y80729D02*
Y81829D01*
X12856Y73659D02*
X13956D01*
X13406Y73109D02*
Y74209D01*
X12856Y76199D02*
X13956D01*
X13406Y75649D02*
Y76749D01*
X12856Y83819D02*
X13956D01*
X13406Y83269D02*
Y84369D01*
X12856Y86359D02*
X13956D01*
X13406Y85809D02*
Y86909D01*
X12856Y88899D02*
X13956D01*
X13406Y88349D02*
Y89449D01*
X10316Y91439D02*
X11416D01*
X10866Y90889D02*
Y91989D01*
X12856Y81279D02*
X13956D01*
X13406Y80729D02*
Y81829D01*
X12856Y78739D02*
X13956D01*
X13406Y78189D02*
Y79289D01*
X58576Y77723D02*
X59676D01*
X59126Y77173D02*
Y78273D01*
X58576Y80263D02*
X59676D01*
X59126Y79713D02*
Y80813D01*
X58576Y87883D02*
X59676D01*
X59126Y87333D02*
Y88433D01*
X58576Y90423D02*
X59676D01*
X59126Y89873D02*
Y90973D01*
X56036Y100583D02*
X57136D01*
X56586Y100033D02*
Y101133D01*
X58576Y98043D02*
X59676D01*
X59126Y97493D02*
Y98593D01*
X58576Y95503D02*
X59676D01*
X59126Y94953D02*
Y96053D01*
X58576Y92963D02*
X59676D01*
X59126Y92413D02*
Y93513D01*
X58576Y85343D02*
X59676D01*
X59126Y84793D02*
Y85893D01*
X58576Y82803D02*
X59676D01*
X59126Y82253D02*
Y83353D01*
X56036Y90423D02*
X57136D01*
X56586Y89873D02*
Y90973D01*
X56036Y92963D02*
X57136D01*
X56586Y92413D02*
Y93513D01*
X56036Y95503D02*
X57136D01*
X56586Y94953D02*
Y96053D01*
X56036Y98043D02*
X57136D01*
X56586Y97493D02*
Y98593D01*
X58576Y100583D02*
X59676D01*
X59126Y100033D02*
Y101133D01*
X56036Y77723D02*
X57136D01*
X56586Y77173D02*
Y78273D01*
X56036Y80263D02*
X57136D01*
X56586Y79713D02*
Y80813D01*
X56036Y82803D02*
X57136D01*
X56586Y82253D02*
Y83353D01*
X56036Y85343D02*
X57136D01*
X56586Y84793D02*
Y85893D01*
X56036Y87883D02*
X57136D01*
X56586Y87333D02*
Y88433D01*
X5936Y121919D02*
X6906D01*
X6421Y121434D02*
Y122404D01*
X5936Y115569D02*
X6906D01*
X6421Y115084D02*
Y116054D01*
X5826Y124189D02*
X7016D01*
X6421Y123594D02*
Y124784D01*
X5826Y113299D02*
X7016D01*
X6421Y112704D02*
Y113894D01*
X66246Y126999D02*
X67246D01*
X66746Y126499D02*
Y127499D01*
X66246Y129539D02*
X67246D01*
X66746Y129039D02*
Y130039D01*
X2746Y126999D02*
X3746D01*
X3246Y126499D02*
Y127499D01*
X2746Y129539D02*
X3746D01*
X3246Y129039D02*
Y130039D01*
X16716Y130809D02*
X17716D01*
X17216Y130309D02*
Y131309D01*
X19256Y130809D02*
X20256D01*
X19756Y130309D02*
Y131309D01*
X21796Y130809D02*
X22796D01*
X22296Y130309D02*
Y131309D01*
X24336Y130809D02*
X25336D01*
X24836Y130309D02*
Y131309D01*
X45166Y131858D02*
X45766D01*
X45466Y131558D02*
Y132158D01*
X52166Y131858D02*
X52766D01*
X52466Y131558D02*
Y132158D01*
X46016Y129158D02*
X46916D01*
X46466Y128708D02*
Y129608D01*
X51016Y129158D02*
X51916D01*
X51466Y128708D02*
Y129608D01*
X42286Y53339D02*
X45486D01*
X43886Y51739D02*
Y54939D01*
X57526Y104139D02*
X60726D01*
X59126Y102539D02*
Y105739D01*
X9266Y105409D02*
X12466D01*
X10866Y103809D02*
Y107009D01*
X10536Y29209D02*
X13736D01*
X12136Y27609D02*
Y30809D01*
X56256Y29209D02*
X59456D01*
X57856Y27609D02*
Y30809D01*
X21391Y11979D02*
X21591D01*
X21491Y11879D02*
Y12079D01*
X20741Y11979D02*
X20941D01*
X20841Y11879D02*
Y12079D01*
X18825Y54150D02*
X19025D01*
X18925Y54050D02*
Y54250D01*
X17850Y54150D02*
X18050D01*
X17950Y54050D02*
Y54250D01*
X18750Y52550D02*
X18950D01*
X18850Y52450D02*
Y52650D01*
X18750Y50950D02*
X18950D01*
X18850Y50850D02*
Y51050D01*
X17775Y52550D02*
X17975D01*
X17875Y52450D02*
Y52650D01*
X17775Y50950D02*
X17975D01*
X17875Y50850D02*
Y51050D01*
X18750Y56850D02*
X18950D01*
X18850Y56750D02*
Y56950D01*
X18800Y58475D02*
X19000D01*
X18900Y58375D02*
Y58575D01*
X16604Y60475D02*
X16804D01*
X16704Y60375D02*
Y60575D01*
X17850Y58487D02*
X18050D01*
X17950Y58388D02*
Y58588D01*
X37541Y38629D02*
X37841D01*
X37691Y38479D02*
Y38779D01*
X38541Y38629D02*
X38841D01*
X38691Y38479D02*
Y38779D01*
X38541Y37629D02*
X38841D01*
X38691Y37479D02*
Y37779D01*
X37541Y37629D02*
X37841D01*
X37691Y37479D02*
Y37779D01*
X36541Y37629D02*
X36841D01*
X36691Y37479D02*
Y37779D01*
X36541Y38629D02*
X36841D01*
X36691Y38479D02*
Y38779D01*
X36541Y39629D02*
X36841D01*
X36691Y39479D02*
Y39779D01*
X37541Y39629D02*
X37841D01*
X37691Y39479D02*
Y39779D01*
X38541Y39629D02*
X38841D01*
X38691Y39479D02*
Y39779D01*
X20875Y92325D02*
X21075D01*
X20975Y92225D02*
Y92425D01*
X24050Y93175D02*
X24250D01*
X24150Y93075D02*
Y93275D01*
X52250Y27775D02*
X52450D01*
X52350Y27675D02*
Y27875D01*
X52225Y28525D02*
X52425D01*
X52325Y28425D02*
Y28625D01*
X52225Y29200D02*
X52425D01*
X52325Y29100D02*
Y29300D01*
X52200Y29950D02*
X52400D01*
X52300Y29850D02*
Y30050D01*
X49700Y32455D02*
X49900D01*
X49800Y32355D02*
Y32555D01*
X48300Y37325D02*
X48500D01*
X48400Y37225D02*
Y37425D01*
X47350Y35575D02*
X47550D01*
X47450Y35475D02*
Y35675D01*
X47250Y39500D02*
X47450D01*
X47350Y39400D02*
Y39600D01*
X49550Y24400D02*
X49750D01*
X49650Y24300D02*
Y24500D01*
X44650Y75950D02*
X44850D01*
X44750Y75850D02*
Y76050D01*
X44652Y79329D02*
X44852D01*
X44752Y79229D02*
Y79429D01*
X44650Y77125D02*
X44850D01*
X44750Y77025D02*
Y77225D01*
X25875Y72775D02*
X26075D01*
X25975Y72675D02*
Y72875D01*
X25900Y73575D02*
X26100D01*
X26000Y73475D02*
Y73675D01*
X25766Y75651D02*
X25966D01*
X25866Y75551D02*
Y75751D01*
X27100Y77150D02*
X27300D01*
X27200Y77050D02*
Y77250D01*
X25725Y68300D02*
X25925D01*
X25825Y68200D02*
Y68400D01*
X26150Y80475D02*
X26350D01*
X26250Y80375D02*
Y80575D01*
X26150Y79900D02*
X26350D01*
X26250Y79800D02*
Y80000D01*
X23950Y85125D02*
X24150D01*
X24050Y85025D02*
Y85225D01*
X23925Y84225D02*
X24125D01*
X24025Y84125D02*
Y84325D01*
X25500Y85650D02*
X25700D01*
X25600Y85550D02*
Y85750D01*
X26250Y86200D02*
X26450D01*
X26350Y86100D02*
Y86300D01*
X26675Y85775D02*
X26875D01*
X26775Y85675D02*
Y85875D01*
X28150Y83350D02*
X28350D01*
X28250Y83250D02*
Y83450D01*
X28875Y83350D02*
X29075D01*
X28975Y83250D02*
Y83450D01*
X50300Y20850D02*
X50500D01*
X50400Y20750D02*
Y20950D01*
X47616Y19829D02*
X47816D01*
X47716Y19729D02*
Y19929D01*
X44416Y17029D02*
X44616D01*
X44516Y16929D02*
Y17129D01*
X38066Y17004D02*
X38266D01*
X38166Y16904D02*
Y17104D01*
X34916Y19804D02*
X35116D01*
X35016Y19704D02*
Y19904D01*
X44416Y28504D02*
X44616D01*
X44516Y28404D02*
Y28604D01*
X38066Y28629D02*
X38266D01*
X38166Y28529D02*
Y28729D01*
X35800Y30050D02*
X36000D01*
X35900Y29950D02*
Y30150D01*
X37166Y35554D02*
X37366D01*
X37266Y35454D02*
Y35654D01*
X36516Y35554D02*
X36716D01*
X36616Y35454D02*
Y35654D01*
X44741Y29654D02*
X44941D01*
X44841Y29554D02*
Y29754D01*
X43991Y29604D02*
X44191D01*
X44091Y29504D02*
Y29704D01*
X36366Y29604D02*
X36566D01*
X36466Y29504D02*
Y29704D01*
X45929Y29009D02*
X46129D01*
X46029Y28909D02*
Y29109D01*
X35721Y28591D02*
X35921D01*
X35821Y28491D02*
Y28691D01*
X30200Y43500D02*
X30400D01*
X30300Y43400D02*
Y43600D01*
X43450Y68075D02*
X43650D01*
X43550Y67975D02*
Y68175D01*
X44502Y67927D02*
X44702D01*
X44602Y67827D02*
Y68027D01*
X44300Y66475D02*
X44500D01*
X44400Y66375D02*
Y66575D01*
X33125Y65325D02*
X33325D01*
X33225Y65225D02*
Y65425D01*
X32875Y66650D02*
X33075D01*
X32975Y66550D02*
Y66750D01*
X42353Y66520D02*
X42553D01*
X42453Y66420D02*
Y66620D01*
X43786Y72736D02*
X43986D01*
X43886Y72636D02*
Y72836D01*
X39450Y70700D02*
X39650D01*
X39550Y70600D02*
Y70800D01*
X39425Y76650D02*
X39625D01*
X39525Y76550D02*
Y76750D01*
X58078Y76829D02*
X58278D01*
X58178Y76729D02*
Y76929D01*
X29475Y70700D02*
X29675D01*
X29575Y70600D02*
Y70800D01*
X61000Y80350D02*
X61200D01*
X61100Y80250D02*
Y80450D01*
X59900Y76575D02*
X60100D01*
X60000Y76475D02*
Y76675D01*
X61125Y72675D02*
X61325D01*
X61225Y72575D02*
Y72775D01*
X61328Y69203D02*
X61528D01*
X61428Y69103D02*
Y69303D01*
X2325Y64503D02*
X2525D01*
X2425Y64403D02*
Y64603D01*
X2386Y62064D02*
X2586D01*
X2486Y61964D02*
Y62164D01*
X2200Y57475D02*
X2400D01*
X2300Y57375D02*
Y57575D01*
X2350Y51900D02*
X2550D01*
X2450Y51800D02*
Y52000D01*
X8775Y52325D02*
X8975D01*
X8875Y52225D02*
Y52425D01*
X44525Y69075D02*
X44725D01*
X44625Y68975D02*
Y69175D01*
X4825Y67603D02*
X5025D01*
X4925Y67503D02*
Y67703D01*
X4700Y62125D02*
X4900D01*
X4800Y62025D02*
Y62225D01*
X9675Y60175D02*
X9875D01*
X9775Y60075D02*
Y60275D01*
X47727Y71053D02*
X47927D01*
X47827Y70953D02*
Y71153D01*
X48075Y32050D02*
X48275D01*
X48175Y31950D02*
Y32150D01*
X47250Y70575D02*
X47450D01*
X47350Y70475D02*
Y70675D01*
X48952Y70428D02*
X49152D01*
X49052Y70328D02*
Y70528D01*
X48475Y68975D02*
X48675D01*
X48575Y68875D02*
Y69075D01*
X47200Y69550D02*
X47400D01*
X47300Y69450D02*
Y69650D01*
X47550Y31600D02*
X47750D01*
X47650Y31500D02*
Y31700D01*
X47800Y68950D02*
X48000D01*
X47900Y68850D02*
Y69050D01*
X47325Y53200D02*
X47525D01*
X47425Y53100D02*
Y53300D01*
X46325Y46275D02*
X46525D01*
X46425Y46175D02*
Y46375D01*
X46077Y50327D02*
X46277D01*
X46177Y50227D02*
Y50427D01*
X47700Y68050D02*
X47900D01*
X47800Y67950D02*
Y68150D01*
X47200Y63925D02*
X47400D01*
X47300Y63825D02*
Y64025D01*
X45825Y56300D02*
X46025D01*
X45925Y56200D02*
Y56400D01*
X45625Y50825D02*
X45825D01*
X45725Y50725D02*
Y50925D01*
X44750Y49900D02*
X44950D01*
X44850Y49800D02*
Y50000D01*
X65603Y51628D02*
X65803D01*
X65703Y51528D02*
Y51728D01*
X44600Y61750D02*
X44800D01*
X44700Y61650D02*
Y61850D01*
X43950Y61900D02*
X44150D01*
X44050Y61800D02*
Y62000D01*
X44550Y60475D02*
X44750D01*
X44650Y60375D02*
Y60575D01*
X31450Y50125D02*
X31650D01*
X31550Y50025D02*
Y50225D01*
X65800Y52300D02*
X66000D01*
X65900Y52200D02*
Y52400D01*
X43266Y61916D02*
X43466D01*
X43366Y61816D02*
Y62016D01*
X41400Y69475D02*
X41600D01*
X41500Y69375D02*
Y69575D01*
X42900Y44200D02*
X43100D01*
X43000Y44100D02*
Y44300D01*
X44450Y42550D02*
X44650D01*
X44550Y42450D02*
Y42650D01*
X43175Y62700D02*
X43375D01*
X43275Y62600D02*
Y62800D01*
X41225Y52750D02*
X41425D01*
X41325Y52650D02*
Y52850D01*
X40550Y57525D02*
X40750D01*
X40650Y57425D02*
Y57625D01*
X48925Y57075D02*
X49125D01*
X49025Y56975D02*
Y57175D01*
X48325Y55575D02*
X48525D01*
X48425Y55475D02*
Y55675D01*
X40900Y74150D02*
X41100D01*
X41000Y74050D02*
Y74250D01*
X42275Y62025D02*
X42475D01*
X42375Y61925D02*
Y62125D01*
X41475Y62150D02*
X41675D01*
X41575Y62050D02*
Y62250D01*
X39475Y64400D02*
X39675D01*
X39575Y64300D02*
Y64500D01*
X40450Y62250D02*
X40650D01*
X40550Y62150D02*
Y62350D01*
X40766Y59134D02*
X40966D01*
X40866Y59034D02*
Y59234D01*
X41225Y56150D02*
X41425D01*
X41325Y56050D02*
Y56250D01*
X39550Y62625D02*
X39750D01*
X39650Y62525D02*
Y62725D01*
X39625Y59275D02*
X39825D01*
X39725Y59175D02*
Y59375D01*
X32575Y59225D02*
X32775D01*
X32675Y59125D02*
Y59325D01*
X38825Y62650D02*
X39025D01*
X38925Y62550D02*
Y62750D01*
X31700Y66325D02*
X31900D01*
X31800Y66225D02*
Y66425D01*
X31125Y66725D02*
X31325D01*
X31225Y66625D02*
Y66825D01*
X32875Y68825D02*
X33075D01*
X32975Y68725D02*
Y68925D01*
X25800Y47150D02*
X26000D01*
X25900Y47050D02*
Y47250D01*
X25586Y44614D02*
X25786D01*
X25686Y44514D02*
Y44714D01*
X24623Y42075D02*
X24823D01*
X24723Y41975D02*
Y42175D01*
X29650Y69925D02*
X29850D01*
X29750Y69825D02*
Y70025D01*
X28925Y70125D02*
X29125D01*
X29025Y70025D02*
Y70225D01*
X30025Y67075D02*
X30225D01*
X30125Y66975D02*
Y67175D01*
X32075Y54850D02*
X32275D01*
X32175Y54750D02*
Y54950D01*
X27575Y54862D02*
X27775D01*
X27675Y54763D02*
Y54963D01*
X31425Y58375D02*
X31625D01*
X31525Y58275D02*
Y58475D01*
X31425Y57075D02*
X31625D01*
X31525Y56975D02*
Y57175D01*
X28320Y57120D02*
X28520D01*
X28420Y57020D02*
Y57220D01*
X27575Y56375D02*
X27775D01*
X27675Y56275D02*
Y56475D01*
X32075Y56425D02*
X32275D01*
X32175Y56325D02*
Y56525D01*
X29825Y52650D02*
X30025D01*
X29925Y52550D02*
Y52750D01*
X30675Y58975D02*
X30875D01*
X30775Y58875D02*
Y59075D01*
X29275Y59000D02*
X29475D01*
X29375Y58900D02*
Y59100D01*
X32075Y53350D02*
X32275D01*
X32175Y53250D02*
Y53450D01*
X31375Y52650D02*
X31575D01*
X31475Y52550D02*
Y52750D01*
X27575Y53350D02*
X27775D01*
X27675Y53250D02*
Y53450D01*
X28275Y52650D02*
X28475D01*
X28375Y52550D02*
Y52750D01*
X30266Y62241D02*
X30466D01*
X30366Y62141D02*
Y62341D01*
X29766Y61734D02*
X29966D01*
X29866Y61634D02*
Y61834D01*
X31275Y62250D02*
X31475D01*
X31375Y62150D02*
Y62350D01*
X31766Y61734D02*
X31966D01*
X31866Y61634D02*
Y61834D01*
X30766Y61734D02*
X30966D01*
X30866Y61634D02*
Y61834D01*
X33325Y71275D02*
X33525D01*
X33425Y71175D02*
Y71375D01*
X33300Y72675D02*
X33500D01*
X33400Y72575D02*
Y72775D01*
X27825Y57900D02*
X28025D01*
X27925Y57800D02*
Y58000D01*
X1925Y72500D02*
X2125D01*
X2025Y72400D02*
Y72600D01*
X1875Y73175D02*
X2075D01*
X1975Y73075D02*
Y73275D01*
X27825Y61700D02*
X28025D01*
X27925Y61600D02*
Y61800D01*
X25325Y55625D02*
X25525D01*
X25425Y55525D02*
Y55725D01*
X25150Y61050D02*
X25350D01*
X25250Y60950D02*
Y61150D01*
X25626Y57028D02*
X25826D01*
X25726Y56928D02*
Y57128D01*
X23175Y25400D02*
X23375D01*
X23275Y25300D02*
Y25500D01*
X24025Y45675D02*
X24225D01*
X24125Y45575D02*
Y45775D01*
X25050Y57400D02*
X25250D01*
X25150Y57300D02*
Y57500D01*
X23950Y48575D02*
X24150D01*
X24050Y48475D02*
Y48675D01*
X24350Y57250D02*
X24550D01*
X24450Y57150D02*
Y57350D01*
X24409Y57909D02*
X24608D01*
X24508Y57808D02*
Y58008D01*
X23800Y42775D02*
X24000D01*
X23900Y42675D02*
Y42875D01*
X23751Y57978D02*
X23951D01*
X23851Y57878D02*
Y58078D01*
X22375Y43800D02*
X22575D01*
X22475Y43700D02*
Y43900D01*
X22850Y43300D02*
X23050D01*
X22950Y43200D02*
Y43400D01*
X23725Y58650D02*
X23925D01*
X23825Y58550D02*
Y58750D01*
X23800Y44175D02*
X24000D01*
X23900Y44075D02*
Y44275D01*
X22775Y30700D02*
X22975D01*
X22875Y30600D02*
Y30800D01*
X21875Y63175D02*
X22075D01*
X21975Y63075D02*
Y63275D01*
X19375Y62900D02*
X19575D01*
X19475Y62800D02*
Y63000D01*
X15100Y64062D02*
X15300D01*
X15200Y63963D02*
Y64162D01*
X15100Y64600D02*
X15300D01*
X15200Y64500D02*
Y64700D01*
X15100Y65183D02*
X15300D01*
X15200Y65083D02*
Y65283D01*
X25854Y64054D02*
X26054D01*
X25954Y63954D02*
Y64154D01*
X43350Y98700D02*
X43550D01*
X43450Y98600D02*
Y98800D01*
X41450Y89500D02*
X41650D01*
X41550Y89400D02*
Y89600D01*
X37775Y89500D02*
X37975D01*
X37875Y89400D02*
Y89600D01*
X17675Y66025D02*
X17875D01*
X17775Y65925D02*
Y66125D01*
X37375Y88900D02*
X37575D01*
X37475Y88800D02*
Y89000D01*
X41000Y88575D02*
X41200D01*
X41100Y88475D02*
Y88675D01*
X43300Y99350D02*
X43500D01*
X43400Y99250D02*
Y99450D01*
X17225Y66500D02*
X17425D01*
X17325Y66400D02*
Y66600D01*
X49375Y81625D02*
X49575D01*
X49475Y81525D02*
Y81725D01*
X48525Y81675D02*
X48725D01*
X48625Y81575D02*
Y81775D01*
X19225Y67225D02*
X19425D01*
X19325Y67125D02*
Y67325D01*
X8150Y68950D02*
X8350D01*
X8250Y68850D02*
Y69050D01*
X6600Y70225D02*
X6800D01*
X6700Y70125D02*
Y70325D01*
X61375Y78300D02*
X61575D01*
X61475Y78200D02*
Y78400D01*
X34127Y77723D02*
X34327D01*
X34227Y77623D02*
Y77823D01*
X61153Y64278D02*
X61353D01*
X61253Y64178D02*
Y64378D01*
X33577Y80804D02*
X33777D01*
X33677Y80704D02*
Y80904D01*
X29900Y74325D02*
X30100D01*
X30000Y74225D02*
Y74425D01*
X21925Y71100D02*
X22125D01*
X22025Y71000D02*
Y71200D01*
X20425Y69975D02*
X20625D01*
X20525Y69875D02*
Y70075D01*
X22425Y70600D02*
X22625D01*
X22525Y70500D02*
Y70700D01*
X22900Y69575D02*
X23100D01*
X23000Y69475D02*
Y69675D01*
X22250Y73000D02*
X22450D01*
X22350Y72900D02*
Y73100D01*
X14476Y74404D02*
X14676D01*
X14576Y74304D02*
Y74504D01*
X14625Y73750D02*
X14825D01*
X14725Y73650D02*
Y73850D01*
X9500Y64078D02*
X9700D01*
X9600Y63978D02*
Y64178D01*
X8181Y51637D02*
X8381D01*
X8281Y51537D02*
Y51737D01*
X22275Y83775D02*
X22475D01*
X22375Y83675D02*
Y83875D01*
Y86200D02*
X22575D01*
X22475Y86100D02*
Y86300D01*
X56300Y110750D02*
X56500D01*
X56400Y110650D02*
Y110850D01*
X9400Y107950D02*
X9600D01*
X9500Y107850D02*
Y108050D01*
X9426Y82474D02*
X9626D01*
X9526Y82374D02*
Y82574D01*
X10200Y117474D02*
X10400D01*
X10300Y117374D02*
Y117574D01*
X44500Y85100D02*
X44700D01*
X44600Y85000D02*
Y85200D01*
X62825Y66500D02*
X63025D01*
X62925Y66400D02*
Y66600D01*
X62825Y89225D02*
X63025D01*
X62925Y89125D02*
Y89325D01*
X49602Y89379D02*
X49802D01*
X49702Y89279D02*
Y89479D01*
X50138Y88988D02*
X50338D01*
X50238Y88888D02*
Y89088D01*
X46927Y85004D02*
X47127D01*
X47027Y84904D02*
Y85104D01*
X68650Y87950D02*
X68850D01*
X68750Y87850D02*
Y88050D01*
X54975Y98025D02*
X55175D01*
X55075Y97925D02*
Y98125D01*
X33327Y101980D02*
X33527D01*
X33427Y101880D02*
Y102080D01*
X55200Y101325D02*
X55400D01*
X55300Y101225D02*
Y101425D01*
X55381Y84431D02*
X55581D01*
X55481Y84331D02*
Y84531D01*
X68603Y87279D02*
X68803D01*
X68703Y87179D02*
Y87379D01*
X68450Y82875D02*
X68650D01*
X68550Y82775D02*
Y82975D01*
X68600Y84900D02*
X68800D01*
X68700Y84800D02*
Y85000D01*
X47250Y95225D02*
X47450D01*
X47350Y95125D02*
Y95325D01*
X46275Y84150D02*
X46475D01*
X46375Y84050D02*
Y84250D01*
X27266Y97179D02*
X27466D01*
X27366Y97079D02*
Y97279D01*
X26766Y97179D02*
X26966D01*
X26866Y97079D02*
Y97279D01*
X26141Y97179D02*
X26341D01*
X26241Y97079D02*
Y97279D01*
X8891Y8523D02*
X9091D01*
X8991Y8423D02*
Y8623D01*
X18466Y85379D02*
X18666D01*
X18566Y85279D02*
Y85479D01*
X16016Y90179D02*
X16216D01*
X16116Y90079D02*
Y90279D01*
X35466Y103629D02*
X35666D01*
X35566Y103529D02*
Y103729D01*
X7566Y76555D02*
X7766D01*
X7666Y76455D02*
Y76655D01*
X8516Y57579D02*
X8716D01*
X8616Y57479D02*
Y57679D01*
X7466Y53329D02*
X7666D01*
X7566Y53229D02*
Y53429D01*
X7741Y54729D02*
X7941D01*
X7841Y54629D02*
Y54829D01*
X7566Y75905D02*
X7766D01*
X7666Y75805D02*
Y76005D01*
X8466Y61904D02*
X8666D01*
X8566Y61804D02*
Y62004D01*
X6416Y62429D02*
X6616D01*
X6516Y62329D02*
Y62529D01*
X7491Y44729D02*
X7691D01*
X7591Y44629D02*
Y44829D01*
X1891Y59979D02*
X2091D01*
X1991Y59879D02*
Y60079D01*
X23091Y11479D02*
X23291D01*
X23191Y11379D02*
Y11579D01*
X42791Y103104D02*
X42991D01*
X42891Y103004D02*
Y103204D01*
X42843Y102406D02*
X43043D01*
X42943Y102306D02*
Y102506D01*
X9541Y113229D02*
X9741D01*
X9641Y113129D02*
Y113329D01*
X8891Y113529D02*
X9091D01*
X8991Y113429D02*
Y113629D01*
X6891Y51429D02*
X7091D01*
X6991Y51329D02*
Y51529D01*
X1891Y36804D02*
X2091D01*
X1991Y36704D02*
Y36904D01*
X43941Y41829D02*
X44141D01*
X44041Y41729D02*
Y41929D01*
X45866Y39604D02*
X46066D01*
X45966Y39504D02*
Y39704D01*
X45866Y38729D02*
X46066D01*
X45966Y38629D02*
Y38829D01*
X45166Y37929D02*
X45366D01*
X45266Y37829D02*
Y38029D01*
X45166Y40279D02*
X45366D01*
X45266Y40179D02*
Y40379D01*
X42491Y41716D02*
X42691D01*
X42591Y41616D02*
Y41816D01*
X19966Y93929D02*
X20166D01*
X20066Y93829D02*
Y94029D01*
X21141Y93929D02*
X21341D01*
X21241Y93829D02*
Y94029D01*
X21166Y95929D02*
X21366D01*
X21266Y95829D02*
Y96029D01*
X19966Y95929D02*
X20166D01*
X20066Y95829D02*
Y96029D01*
X20566Y94929D02*
X20766D01*
X20666Y94829D02*
Y95029D01*
X19716Y97504D02*
X19916D01*
X19816Y97404D02*
Y97604D01*
X11641Y130354D02*
X11841D01*
X11741Y130254D02*
Y130454D01*
X8291Y131279D02*
X8491D01*
X8391Y131179D02*
Y131379D01*
X8291Y128179D02*
X8491D01*
X8391Y128079D02*
Y128279D01*
X9516Y123504D02*
X9716D01*
X9616Y123404D02*
Y123604D01*
X9516Y130529D02*
X9716D01*
X9616Y130429D02*
Y130629D01*
X7716Y126954D02*
X7916D01*
X7816Y126854D02*
Y127054D01*
X11641Y129104D02*
X11841D01*
X11741Y129004D02*
Y129204D01*
X12391Y126779D02*
X12591D01*
X12491Y126679D02*
Y126879D01*
X13766Y128179D02*
X13966D01*
X13866Y128079D02*
Y128279D01*
X13766Y131279D02*
X13966D01*
X13866Y131179D02*
Y131379D01*
X7291Y47150D02*
X7491D01*
X7391Y47050D02*
Y47250D01*
X6666Y49704D02*
X6866D01*
X6766Y49604D02*
Y49804D01*
X48466Y18154D02*
X48666D01*
X48566Y18054D02*
Y18254D01*
X34116Y17954D02*
X34316D01*
X34216Y17854D02*
Y18054D01*
X38191Y44029D02*
X38391D01*
X38291Y43929D02*
Y44129D01*
X41341Y44029D02*
X41541D01*
X41441Y43929D02*
Y44129D01*
X36366Y43104D02*
X36566D01*
X36466Y43004D02*
Y43204D01*
X35466Y44029D02*
X35666D01*
X35566Y43929D02*
Y44129D01*
X31641Y43304D02*
X31841D01*
X31741Y43204D02*
Y43404D01*
X34516Y41479D02*
X34716D01*
X34616Y41379D02*
Y41579D01*
X31916Y41479D02*
X32116D01*
X32016Y41379D02*
Y41579D01*
X31916Y40429D02*
X32116D01*
X32016Y40329D02*
Y40529D01*
X40116Y36704D02*
X40316D01*
X40216Y36604D02*
Y36804D01*
X17666Y5879D02*
X17866D01*
X17766Y5779D02*
Y5979D01*
X31841Y9954D02*
X32041D01*
X31941Y9854D02*
Y10054D01*
X32316Y35479D02*
X32516D01*
X32416Y35379D02*
Y35579D01*
X35016Y35479D02*
X35216D01*
X35116Y35379D02*
Y35579D01*
X42216Y34879D02*
X42416D01*
X42316Y34779D02*
Y34979D01*
X44666Y41154D02*
X44866D01*
X44766Y41054D02*
Y41254D01*
X42266Y40179D02*
X42466D01*
X42366Y40079D02*
Y40279D01*
X40566Y39904D02*
X40766D01*
X40666Y39804D02*
Y40004D01*
X43566Y37929D02*
X43766D01*
X43666Y37829D02*
Y38029D01*
X41491Y37929D02*
X41691D01*
X41591Y37829D02*
Y38029D01*
X42891Y36079D02*
X43091D01*
X42991Y35979D02*
Y36179D01*
X35641Y40604D02*
X35841D01*
X35741Y40504D02*
Y40704D01*
X34741Y38879D02*
X34941D01*
X34841Y38779D02*
Y38979D01*
X34766Y27404D02*
X34966D01*
X34866Y27304D02*
Y27504D01*
X47796Y27429D02*
X47996D01*
X47896Y27329D02*
Y27529D01*
X48666Y28129D02*
X48866D01*
X48766Y28029D02*
Y28229D01*
X15541Y5029D02*
X15741D01*
X15641Y4929D02*
Y5129D01*
X18841Y6479D02*
X19041D01*
X18941Y6379D02*
Y6579D01*
X33716Y13429D02*
X33916D01*
X33816Y13329D02*
Y13529D01*
X30966Y14779D02*
X31166D01*
X31066Y14679D02*
Y14879D01*
X2041Y11204D02*
X2241D01*
X2141Y11104D02*
Y11304D01*
X25866Y13229D02*
X26066D01*
X25966Y13129D02*
Y13329D01*
X26566Y13229D02*
X26766D01*
X26666Y13129D02*
Y13329D01*
X1266Y11204D02*
X1466D01*
X1366Y11104D02*
Y11304D01*
X31741Y11804D02*
X31941D01*
X31841Y11704D02*
Y11904D01*
X28566Y12054D02*
X28766D01*
X28666Y11954D02*
Y12154D01*
X27066Y6004D02*
X27266D01*
X27166Y5904D02*
Y6104D01*
X30291Y8629D02*
X30491D01*
X30391Y8529D02*
Y8729D01*
X33366Y3779D02*
X33566D01*
X33466Y3679D02*
Y3879D01*
X28991Y3779D02*
X29191D01*
X29091Y3679D02*
Y3879D01*
X34216Y2879D02*
X34416D01*
X34316Y2779D02*
Y2979D01*
X29891Y2879D02*
X30091D01*
X29991Y2779D02*
Y2979D01*
X28116Y5129D02*
X28316D01*
X28216Y5029D02*
Y5229D01*
X26541Y6429D02*
X26741D01*
X26641Y6329D02*
Y6529D01*
X25391Y5264D02*
X25591D01*
X25491Y5164D02*
Y5364D01*
X9641Y8523D02*
X9841D01*
X9741Y8423D02*
Y8623D01*
X10266Y8523D02*
X10466D01*
X10366Y8423D02*
Y8623D01*
X14441Y7229D02*
X14641D01*
X14541Y7129D02*
Y7329D01*
X14466Y2679D02*
X14666D01*
X14566Y2579D02*
Y2779D01*
X59045Y4023D02*
X59245D01*
X59145Y3923D02*
Y4123D01*
X68502Y3979D02*
X68702D01*
X68602Y3879D02*
Y4079D01*
X57553Y5305D02*
X57753D01*
X57653Y5205D02*
Y5405D01*
X65516Y3979D02*
X65716D01*
X65616Y3879D02*
Y4079D01*
X67053Y5305D02*
X67253D01*
X67153Y5205D02*
Y5405D01*
X67053Y2740D02*
X67253D01*
X67153Y2640D02*
Y2840D01*
X57553Y2740D02*
X57753D01*
X57653Y2640D02*
Y2840D01*
X34116Y116204D02*
X34316D01*
X34216Y116104D02*
Y116304D01*
X12166Y116179D02*
X12366D01*
X12266Y116079D02*
Y116279D01*
X12941Y115429D02*
X13141D01*
X13041Y115329D02*
Y115529D01*
X53629Y132704D02*
X53828D01*
X53729Y132604D02*
Y132804D01*
X69266Y127454D02*
X69466D01*
X69366Y127354D02*
Y127554D01*
X69266Y129179D02*
X69466D01*
X69366Y129079D02*
Y129279D01*
X69266Y130916D02*
X69466D01*
X69366Y130816D02*
Y131016D01*
X66112Y132704D02*
X66312D01*
X66212Y132604D02*
Y132804D01*
X67849Y132704D02*
X68049D01*
X67949Y132604D02*
Y132804D01*
X60837Y132704D02*
X61037D01*
X60937Y132604D02*
Y132804D01*
X62574Y132704D02*
X62774D01*
X62674Y132604D02*
Y132804D01*
X64299Y132704D02*
X64499D01*
X64399Y132604D02*
Y132804D01*
X55612Y132704D02*
X55812D01*
X55712Y132604D02*
Y132804D01*
X57349Y132704D02*
X57549D01*
X57449Y132604D02*
Y132804D01*
X59074Y132704D02*
X59274D01*
X59174Y132604D02*
Y132804D01*
X69266Y106554D02*
X69466D01*
X69366Y106454D02*
Y106654D01*
X69266Y108279D02*
X69466D01*
X69366Y108179D02*
Y108379D01*
X69266Y110016D02*
X69466D01*
X69366Y109916D02*
Y110116D01*
X69266Y115216D02*
X69466D01*
X69366Y115116D02*
Y115316D01*
X69266Y113479D02*
X69466D01*
X69366Y113379D02*
Y113579D01*
X69266Y111754D02*
X69466D01*
X69366Y111654D02*
Y111854D01*
X69266Y120491D02*
X69466D01*
X69366Y120391D02*
Y120591D01*
X69266Y118754D02*
X69466D01*
X69366Y118654D02*
Y118854D01*
X69266Y117029D02*
X69466D01*
X69366Y116929D02*
Y117129D01*
X69266Y125716D02*
X69466D01*
X69366Y125616D02*
Y125816D01*
X69266Y123979D02*
X69466D01*
X69366Y123879D02*
Y124079D01*
X69266Y122254D02*
X69466D01*
X69366Y122154D02*
Y122354D01*
X69266Y85654D02*
X69466D01*
X69366Y85554D02*
Y85754D01*
X69266Y87379D02*
X69466D01*
X69366Y87279D02*
Y87479D01*
X69266Y89116D02*
X69466D01*
X69366Y89016D02*
Y89216D01*
X69266Y94316D02*
X69466D01*
X69366Y94216D02*
Y94416D01*
X69266Y92579D02*
X69466D01*
X69366Y92479D02*
Y92679D01*
X69266Y90854D02*
X69466D01*
X69366Y90754D02*
Y90954D01*
X69266Y99591D02*
X69466D01*
X69366Y99491D02*
Y99691D01*
X69266Y97854D02*
X69466D01*
X69366Y97754D02*
Y97954D01*
X69266Y96129D02*
X69466D01*
X69366Y96029D02*
Y96229D01*
X69266Y104816D02*
X69466D01*
X69366Y104716D02*
Y104916D01*
X69266Y103079D02*
X69466D01*
X69366Y102979D02*
Y103179D01*
X69266Y101354D02*
X69466D01*
X69366Y101254D02*
Y101454D01*
X69266Y64766D02*
X69466D01*
X69366Y64666D02*
Y64866D01*
X69266Y66491D02*
X69466D01*
X69366Y66391D02*
Y66591D01*
X69266Y68229D02*
X69466D01*
X69366Y68129D02*
Y68329D01*
X69266Y73429D02*
X69466D01*
X69366Y73329D02*
Y73529D01*
X69266Y71691D02*
X69466D01*
X69366Y71591D02*
Y71791D01*
X69266Y69966D02*
X69466D01*
X69366Y69866D02*
Y70066D01*
X69266Y78704D02*
X69466D01*
X69366Y78604D02*
Y78804D01*
X69266Y76966D02*
X69466D01*
X69366Y76866D02*
Y77066D01*
X69266Y75241D02*
X69466D01*
X69366Y75141D02*
Y75341D01*
X69266Y83929D02*
X69466D01*
X69366Y83829D02*
Y84029D01*
X69266Y82191D02*
X69466D01*
X69366Y82091D02*
Y82291D01*
X69266Y80466D02*
X69466D01*
X69366Y80366D02*
Y80566D01*
X69266Y43954D02*
X69466D01*
X69366Y43854D02*
Y44054D01*
X69266Y45679D02*
X69466D01*
X69366Y45579D02*
Y45779D01*
X69266Y47416D02*
X69466D01*
X69366Y47316D02*
Y47516D01*
X69266Y52616D02*
X69466D01*
X69366Y52516D02*
Y52716D01*
X69266Y50879D02*
X69466D01*
X69366Y50779D02*
Y50979D01*
X69266Y49154D02*
X69466D01*
X69366Y49054D02*
Y49254D01*
X69266Y57891D02*
X69466D01*
X69366Y57791D02*
Y57991D01*
X69266Y56154D02*
X69466D01*
X69366Y56054D02*
Y56254D01*
X69266Y54429D02*
X69466D01*
X69366Y54329D02*
Y54529D01*
X69266Y63116D02*
X69466D01*
X69366Y63016D02*
Y63216D01*
X69266Y61379D02*
X69466D01*
X69366Y61279D02*
Y61479D01*
X69266Y59654D02*
X69466D01*
X69366Y59554D02*
Y59754D01*
X69266Y22979D02*
X69466D01*
X69366Y22879D02*
Y23079D01*
X69266Y24704D02*
X69466D01*
X69366Y24604D02*
Y24804D01*
X69266Y26441D02*
X69466D01*
X69366Y26341D02*
Y26541D01*
X69266Y31641D02*
X69466D01*
X69366Y31541D02*
Y31741D01*
X69266Y29904D02*
X69466D01*
X69366Y29804D02*
Y30004D01*
X69266Y28179D02*
X69466D01*
X69366Y28079D02*
Y28279D01*
X69266Y36916D02*
X69466D01*
X69366Y36816D02*
Y37016D01*
X69266Y35179D02*
X69466D01*
X69366Y35079D02*
Y35279D01*
X69266Y33454D02*
X69466D01*
X69366Y33354D02*
Y33554D01*
X69266Y42141D02*
X69466D01*
X69366Y42041D02*
Y42241D01*
X69266Y40404D02*
X69466D01*
X69366Y40304D02*
Y40504D01*
X69266Y38679D02*
X69466D01*
X69366Y38579D02*
Y38779D01*
X69266Y2053D02*
X69466D01*
X69366Y1953D02*
Y2153D01*
X69266Y3778D02*
X69466D01*
X69366Y3678D02*
Y3878D01*
X69266Y5515D02*
X69466D01*
X69366Y5415D02*
Y5615D01*
X69266Y10715D02*
X69466D01*
X69366Y10615D02*
Y10815D01*
X69266Y8978D02*
X69466D01*
X69366Y8878D02*
Y9078D01*
X69266Y7253D02*
X69466D01*
X69366Y7153D02*
Y7353D01*
X69266Y15990D02*
X69466D01*
X69366Y15890D02*
Y16090D01*
X69266Y14253D02*
X69466D01*
X69366Y14153D02*
Y14353D01*
X69266Y12528D02*
X69466D01*
X69366Y12428D02*
Y12628D01*
X69266Y21215D02*
X69466D01*
X69366Y21115D02*
Y21315D01*
X69266Y19478D02*
X69466D01*
X69366Y19378D02*
Y19578D01*
X69266Y17753D02*
X69466D01*
X69366Y17653D02*
Y17853D01*
X60578Y625D02*
X60778D01*
X60679Y525D02*
Y725D01*
X58841Y625D02*
X59041D01*
X58941Y525D02*
Y725D01*
X57116Y625D02*
X57316D01*
X57216Y525D02*
Y725D01*
X65854Y625D02*
X66053D01*
X65953Y525D02*
Y725D01*
X64116Y625D02*
X64316D01*
X64216Y525D02*
Y725D01*
X62391Y625D02*
X62591D01*
X62491Y525D02*
Y725D01*
X67616Y625D02*
X67816D01*
X67716Y525D02*
Y725D01*
X27979Y629D02*
X28178D01*
X28079Y529D02*
Y729D01*
X29716Y629D02*
X29916D01*
X29816Y529D02*
Y729D01*
X26166Y629D02*
X26366D01*
X26266Y529D02*
Y729D01*
X18227Y2579D02*
X18427D01*
X18327Y2479D02*
Y2679D01*
X23241Y2579D02*
X23441D01*
X23341Y2479D02*
Y2679D01*
X541Y6079D02*
X741D01*
X641Y5979D02*
Y6179D01*
X541Y4354D02*
X741D01*
X641Y4254D02*
Y4454D01*
X541Y2616D02*
X741D01*
X641Y2516D02*
Y2716D01*
X3728Y629D02*
X3928D01*
X3829Y529D02*
Y729D01*
X1991Y629D02*
X2191D01*
X2091Y529D02*
Y729D01*
X9003Y629D02*
X9203D01*
X9104Y529D02*
Y729D01*
X7266Y629D02*
X7466D01*
X7366Y529D02*
Y729D01*
X5541Y629D02*
X5741D01*
X5641Y529D02*
Y729D01*
X14229Y629D02*
X14429D01*
X14328Y529D02*
Y729D01*
X12491Y629D02*
X12691D01*
X12591Y529D02*
Y729D01*
X10766Y629D02*
X10966D01*
X10866Y529D02*
Y729D01*
X541Y26966D02*
X741D01*
X641Y26866D02*
Y27066D01*
X541Y25241D02*
X741D01*
X641Y25141D02*
Y25341D01*
X541Y23504D02*
X741D01*
X641Y23404D02*
Y23604D01*
X541Y18304D02*
X741D01*
X641Y18204D02*
Y18404D01*
X541Y20041D02*
X741D01*
X641Y19941D02*
Y20141D01*
X541Y21766D02*
X741D01*
X641Y21666D02*
Y21866D01*
X541Y13029D02*
X741D01*
X641Y12929D02*
Y13129D01*
X541Y14766D02*
X741D01*
X641Y14666D02*
Y14866D01*
X541Y16491D02*
X741D01*
X641Y16391D02*
Y16591D01*
X541Y7804D02*
X741D01*
X641Y7704D02*
Y7904D01*
X541Y9541D02*
X741D01*
X641Y9441D02*
Y9641D01*
X541Y11266D02*
X741D01*
X641Y11166D02*
Y11366D01*
X541Y47816D02*
X741D01*
X641Y47716D02*
Y47916D01*
X541Y46091D02*
X741D01*
X641Y45991D02*
Y46191D01*
X541Y44354D02*
X741D01*
X641Y44254D02*
Y44454D01*
X541Y39154D02*
X741D01*
X641Y39054D02*
Y39254D01*
X541Y40891D02*
X741D01*
X641Y40791D02*
Y40991D01*
X541Y42616D02*
X741D01*
X641Y42516D02*
Y42716D01*
X541Y33879D02*
X741D01*
X641Y33779D02*
Y33979D01*
X541Y35616D02*
X741D01*
X641Y35516D02*
Y35716D01*
X541Y37341D02*
X741D01*
X641Y37241D02*
Y37441D01*
X541Y28654D02*
X741D01*
X641Y28554D02*
Y28754D01*
X541Y30391D02*
X741D01*
X641Y30291D02*
Y30491D01*
X541Y32116D02*
X741D01*
X641Y32016D02*
Y32216D01*
X541Y68729D02*
X741D01*
X641Y68629D02*
Y68829D01*
X541Y67004D02*
X741D01*
X641Y66904D02*
Y67104D01*
X541Y65266D02*
X741D01*
X641Y65166D02*
Y65366D01*
X541Y60066D02*
X741D01*
X641Y59966D02*
Y60166D01*
X541Y61804D02*
X741D01*
X641Y61704D02*
Y61904D01*
X541Y63529D02*
X741D01*
X641Y63429D02*
Y63629D01*
X541Y54791D02*
X741D01*
X641Y54691D02*
Y54891D01*
X541Y56529D02*
X741D01*
X641Y56429D02*
Y56629D01*
X541Y58254D02*
X741D01*
X641Y58154D02*
Y58354D01*
X541Y49566D02*
X741D01*
X641Y49466D02*
Y49666D01*
X541Y51304D02*
X741D01*
X641Y51204D02*
Y51404D01*
X541Y53029D02*
X741D01*
X641Y52929D02*
Y53129D01*
X541Y89566D02*
X741D01*
X641Y89466D02*
Y89666D01*
X541Y87841D02*
X741D01*
X641Y87741D02*
Y87941D01*
X541Y86104D02*
X741D01*
X641Y86004D02*
Y86204D01*
X541Y80904D02*
X741D01*
X641Y80804D02*
Y81004D01*
X541Y82641D02*
X741D01*
X641Y82541D02*
Y82741D01*
X541Y84366D02*
X741D01*
X641Y84266D02*
Y84466D01*
X541Y75629D02*
X741D01*
X641Y75529D02*
Y75729D01*
X541Y77366D02*
X741D01*
X641Y77266D02*
Y77466D01*
X541Y79091D02*
X741D01*
X641Y78991D02*
Y79191D01*
X541Y70404D02*
X741D01*
X641Y70304D02*
Y70504D01*
X541Y72141D02*
X741D01*
X641Y72041D02*
Y72241D01*
X541Y73866D02*
X741D01*
X641Y73766D02*
Y73966D01*
X541Y110441D02*
X741D01*
X641Y110341D02*
Y110541D01*
X541Y108716D02*
X741D01*
X641Y108616D02*
Y108816D01*
X541Y106979D02*
X741D01*
X641Y106879D02*
Y107079D01*
X541Y101779D02*
X741D01*
X641Y101679D02*
Y101879D01*
X541Y103516D02*
X741D01*
X641Y103416D02*
Y103616D01*
X541Y105241D02*
X741D01*
X641Y105141D02*
Y105341D01*
X541Y96504D02*
X741D01*
X641Y96404D02*
Y96604D01*
X541Y98241D02*
X741D01*
X641Y98141D02*
Y98341D01*
X541Y99966D02*
X741D01*
X641Y99866D02*
Y100066D01*
X541Y91279D02*
X741D01*
X641Y91179D02*
Y91379D01*
X541Y93016D02*
X741D01*
X641Y92916D02*
Y93116D01*
X541Y94741D02*
X741D01*
X641Y94641D02*
Y94841D01*
X541Y131341D02*
X741D01*
X641Y131241D02*
Y131441D01*
X541Y129616D02*
X741D01*
X641Y129516D02*
Y129716D01*
X541Y127879D02*
X741D01*
X641Y127779D02*
Y127979D01*
X541Y122679D02*
X741D01*
X641Y122579D02*
Y122779D01*
X541Y124416D02*
X741D01*
X641Y124316D02*
Y124516D01*
X541Y126141D02*
X741D01*
X641Y126041D02*
Y126241D01*
X541Y117404D02*
X741D01*
X641Y117304D02*
Y117504D01*
X541Y119141D02*
X741D01*
X641Y119041D02*
Y119241D01*
X541Y120866D02*
X741D01*
X641Y120766D02*
Y120966D01*
X541Y112179D02*
X741D01*
X641Y112079D02*
Y112279D01*
X541Y113916D02*
X741D01*
X641Y113816D02*
Y114016D01*
X541Y115641D02*
X741D01*
X641Y115541D02*
Y115741D01*
X2079Y132716D02*
X2279D01*
X2178Y132616D02*
Y132816D01*
X23341Y132716D02*
X23541D01*
X23441Y132616D02*
Y132816D01*
X21616Y132716D02*
X21816D01*
X21716Y132616D02*
Y132816D01*
X19878Y132716D02*
X20079D01*
X19979Y132616D02*
Y132816D01*
X14679Y132716D02*
X14878D01*
X14778Y132616D02*
Y132816D01*
X16416Y132716D02*
X16616D01*
X16516Y132616D02*
Y132816D01*
X18141Y132716D02*
X18341D01*
X18241Y132616D02*
Y132816D01*
X9403Y132716D02*
X9604D01*
X9503Y132616D02*
Y132816D01*
X11141Y132716D02*
X11341D01*
X11241Y132616D02*
Y132816D01*
X12866Y132716D02*
X13066D01*
X12966Y132616D02*
Y132816D01*
X4179Y132716D02*
X4378D01*
X4279Y132616D02*
Y132816D01*
X5916Y132716D02*
X6116D01*
X6016Y132616D02*
Y132816D01*
X7641Y132716D02*
X7841D01*
X7741Y132616D02*
Y132816D01*
X28553Y132716D02*
X28753D01*
X28653Y132616D02*
Y132816D01*
X26829Y132716D02*
X27028D01*
X26928Y132616D02*
Y132816D01*
X25091Y132716D02*
X25291D01*
X25191Y132616D02*
Y132816D01*
X33778Y132716D02*
X33979D01*
X33879Y132616D02*
Y132816D01*
X32054Y132716D02*
X32254D01*
X32153Y132616D02*
Y132816D01*
X30316Y132716D02*
X30516D01*
X30416Y132616D02*
Y132816D01*
X39054Y132716D02*
X39254D01*
X39153Y132616D02*
Y132816D01*
X37328Y132716D02*
X37528D01*
X37429Y132616D02*
Y132816D01*
X35591Y132716D02*
X35791D01*
X35691Y132616D02*
Y132816D01*
X40791Y132716D02*
X40991D01*
X40891Y132616D02*
Y132816D01*
X42528Y132716D02*
X42729D01*
X42629Y132616D02*
Y132816D01*
X44254Y132716D02*
X44453D01*
X44354Y132616D02*
Y132816D01*
X49991Y125029D02*
X50191D01*
X50091Y124929D02*
Y125129D01*
X49691Y124004D02*
X49891D01*
X49791Y123904D02*
Y124104D01*
X48466Y123329D02*
X48666D01*
X48566Y123229D02*
Y123429D01*
X46966Y123329D02*
X47166D01*
X47066Y123229D02*
Y123429D01*
X45366Y123329D02*
X45566D01*
X45466Y123229D02*
Y123429D01*
X43791Y123329D02*
X43991D01*
X43891Y123229D02*
Y123429D01*
X42141Y123329D02*
X42341D01*
X42241Y123229D02*
Y123429D01*
X40316Y123329D02*
X40516D01*
X40416Y123229D02*
Y123429D01*
X38716Y123329D02*
X38916D01*
X38816Y123229D02*
Y123429D01*
X37141Y123329D02*
X37341D01*
X37241Y123229D02*
Y123429D01*
X35641Y123329D02*
X35841D01*
X35741Y123229D02*
Y123429D01*
X34166Y123329D02*
X34366D01*
X34266Y123229D02*
Y123429D01*
X33041Y124979D02*
X33241D01*
X33141Y124879D02*
Y125079D01*
X34091Y124954D02*
X34291D01*
X34191Y124854D02*
Y125054D01*
X35691Y124954D02*
X35891D01*
X35791Y124854D02*
Y125054D01*
X37141Y124954D02*
X37341D01*
X37241Y124854D02*
Y125054D01*
X38716Y124954D02*
X38916D01*
X38816Y124854D02*
Y125054D01*
X40291Y124954D02*
X40491D01*
X40391Y124854D02*
Y125054D01*
X42141Y124954D02*
X42341D01*
X42241Y124854D02*
Y125054D01*
X43791Y124954D02*
X43991D01*
X43891Y124854D02*
Y125054D01*
X45366Y124954D02*
X45566D01*
X45466Y124854D02*
Y125054D01*
X46916Y124954D02*
X47116D01*
X47016Y124854D02*
Y125054D01*
X48266Y124954D02*
X48466D01*
X48366Y124854D02*
Y125054D01*
X48241Y126504D02*
X48441D01*
X48341Y126404D02*
Y126604D01*
X21066Y8404D02*
X21266D01*
X21166Y8304D02*
Y8504D01*
X48341Y127879D02*
X48541D01*
X48441Y127779D02*
Y127979D01*
X50516Y125854D02*
X50716D01*
X50616Y125754D02*
Y125954D01*
X50116Y127854D02*
X50316D01*
X50216Y127754D02*
Y127954D01*
X52730Y127593D02*
X52930D01*
X52830Y127493D02*
Y127693D01*
X53266Y126304D02*
X53466D01*
X53366Y126204D02*
Y126404D01*
X51799Y125446D02*
X51999D01*
X51899Y125346D02*
Y125546D01*
X51299Y125446D02*
X51499D01*
X51399Y125346D02*
Y125546D01*
X21766Y129204D02*
X21966D01*
X21866Y129104D02*
Y129304D01*
X22591Y129179D02*
X22791D01*
X22691Y129079D02*
Y129279D01*
X25441Y125279D02*
X25641D01*
X25541Y125179D02*
Y125379D01*
X55416Y125179D02*
X55616D01*
X55516Y125079D02*
Y125279D01*
X23691Y126879D02*
X23891D01*
X23791Y126779D02*
Y126979D01*
X23691Y127729D02*
X23891D01*
X23791Y127629D02*
Y127829D01*
X26691Y127579D02*
X26891D01*
X26791Y127479D02*
Y127679D01*
X27941Y127579D02*
X28141D01*
X28041Y127479D02*
Y127679D01*
X28916Y127579D02*
X29116D01*
X29016Y127479D02*
Y127679D01*
X30116Y128154D02*
X30316D01*
X30216Y128054D02*
Y128254D01*
X31591Y127579D02*
X31791D01*
X31691Y127479D02*
Y127679D01*
X23691Y125979D02*
X23891D01*
X23791Y125879D02*
Y126079D01*
X1841Y115579D02*
X2041D01*
X1941Y115479D02*
Y115679D01*
X1841Y117779D02*
X2041D01*
X1941Y117679D02*
Y117879D01*
X2281Y118744D02*
X2481D01*
X2381Y118644D02*
Y118844D01*
X2281Y120014D02*
X2481D01*
X2381Y119914D02*
Y120114D01*
X1191Y125454D02*
X1391D01*
X1291Y125354D02*
Y125554D01*
X30666Y125104D02*
X30866D01*
X30766Y125004D02*
Y125204D01*
X18491Y124154D02*
X18691D01*
X18591Y124054D02*
Y124254D01*
X1866Y122479D02*
X2066D01*
X1966Y122379D02*
Y122579D01*
X1866Y121754D02*
X2066D01*
X1966Y121654D02*
Y121854D01*
X2336Y121284D02*
X2536D01*
X2436Y121184D02*
Y121384D01*
X32241Y125004D02*
X32441D01*
X32341Y124904D02*
Y125104D01*
X31041Y121204D02*
X31241D01*
X31141Y121104D02*
Y121304D01*
X31041Y121854D02*
X31241D01*
X31141Y121754D02*
Y121954D01*
X36566Y120879D02*
X36766D01*
X36666Y120779D02*
Y120979D01*
X36566Y119629D02*
X36766D01*
X36666Y119529D02*
Y119729D01*
X36566Y118379D02*
X36766D01*
X36666Y118279D02*
Y118479D01*
X38066Y119804D02*
X38266D01*
X38166Y119704D02*
Y119904D01*
X38066Y126454D02*
X38266D01*
X38166Y126354D02*
Y126554D01*
X41066Y126454D02*
X41266D01*
X41166Y126354D02*
Y126554D01*
X37791Y119054D02*
X37991D01*
X37891Y118954D02*
Y119154D01*
X36566Y116279D02*
X36766D01*
X36666Y116179D02*
Y116379D01*
X36566Y115229D02*
X36766D01*
X36666Y115129D02*
Y115329D01*
X35941Y114604D02*
X36141D01*
X36041Y114504D02*
Y114704D01*
X30995Y126408D02*
X31195D01*
X31095Y126308D02*
Y126508D01*
X27370Y126408D02*
X27570D01*
X27470Y126308D02*
Y126508D01*
X26095Y126408D02*
X26295D01*
X26195Y126308D02*
Y126508D01*
X35495Y120258D02*
X35695D01*
X35595Y120158D02*
Y120358D01*
X35495Y119008D02*
X35695D01*
X35595Y118908D02*
Y119108D01*
X35495Y117758D02*
X35695D01*
X35595Y117658D02*
Y117858D01*
X35912Y113425D02*
X36112D01*
X36012Y113325D02*
Y113525D01*
X34662Y113425D02*
X34862D01*
X34762Y113325D02*
Y113525D01*
X32362Y113425D02*
X32562D01*
X32462Y113325D02*
Y113525D01*
X31112Y113425D02*
X31312D01*
X31212Y113325D02*
Y113525D01*
X31891Y114904D02*
X32091D01*
X31991Y114804D02*
Y115004D01*
X29016Y112954D02*
X29216D01*
X29116Y112854D02*
Y113054D01*
X35316Y112329D02*
X35516D01*
X35416Y112229D02*
Y112429D01*
X34066Y112329D02*
X34266D01*
X34166Y112229D02*
Y112429D01*
X33091Y112329D02*
X33291D01*
X33191Y112229D02*
Y112429D01*
X31766Y112329D02*
X31966D01*
X31866Y112229D02*
Y112429D01*
X30516Y112329D02*
X30716D01*
X30616Y112229D02*
Y112429D01*
X31441Y110979D02*
X31641D01*
X31541Y110879D02*
Y111079D01*
X26516Y110979D02*
X26716D01*
X26616Y110879D02*
Y111079D01*
X27141Y111604D02*
X27341D01*
X27241Y111504D02*
Y111704D01*
X26516Y110079D02*
X26716D01*
X26616Y109979D02*
Y110179D01*
X30991Y111729D02*
X31191D01*
X31091Y111629D02*
Y111829D01*
X27491Y112929D02*
X27691D01*
X27591Y112829D02*
Y113029D01*
X27491Y114729D02*
X27691D01*
X27591Y114629D02*
Y114829D01*
X31941Y110129D02*
X32141D01*
X32041Y110029D02*
Y110229D01*
X26491Y109154D02*
X26691D01*
X26591Y109054D02*
Y109254D01*
X28916Y109154D02*
X29116D01*
X29016Y109054D02*
Y109254D01*
X27641Y109154D02*
X27841D01*
X27741Y109054D02*
Y109254D01*
X30691Y109154D02*
X30891D01*
X30791Y109054D02*
Y109254D01*
X31241Y114854D02*
X31441D01*
X31341Y114754D02*
Y114954D01*
X29016Y114854D02*
X29216D01*
X29116Y114754D02*
Y114954D01*
X29616Y114479D02*
X29816D01*
X29716Y114379D02*
Y114579D01*
X25737Y113425D02*
X25937D01*
X25837Y113325D02*
Y113525D01*
X26987Y113425D02*
X27187D01*
X27087Y113325D02*
Y113525D01*
X26391Y112329D02*
X26591D01*
X26491Y112229D02*
Y112429D01*
X25141Y112329D02*
X25341D01*
X25241Y112229D02*
Y112429D01*
X23916Y114429D02*
X24116D01*
X24016Y114329D02*
Y114529D01*
X22466Y114429D02*
X22666D01*
X22566Y114329D02*
Y114529D01*
X22466Y111729D02*
X22666D01*
X22566Y111629D02*
Y111829D01*
X23916Y111729D02*
X24116D01*
X24016Y111629D02*
Y111829D01*
X41741Y121204D02*
X41941D01*
X41841Y121104D02*
Y121304D01*
X40441Y119904D02*
X40641D01*
X40541Y119804D02*
Y120004D01*
X40441Y122504D02*
X40641D01*
X40541Y122404D02*
Y122604D01*
X36316Y121754D02*
X36516D01*
X36416Y121654D02*
Y121854D01*
X22462Y122050D02*
X22662D01*
X22562Y121950D02*
Y122150D01*
X22462Y120800D02*
X22662D01*
X22562Y120700D02*
Y120900D01*
X22462Y119225D02*
X22662D01*
X22562Y119125D02*
Y119325D01*
X22462Y116083D02*
X22662D01*
X22562Y115983D02*
Y116183D01*
X21366Y121454D02*
X21566D01*
X21466Y121354D02*
Y121554D01*
X21366Y120204D02*
X21566D01*
X21466Y120104D02*
Y120304D01*
X21366Y116679D02*
X21566D01*
X21466Y116579D02*
Y116779D01*
X26966Y119254D02*
X27166D01*
X27066Y119154D02*
Y119354D01*
X26966Y117954D02*
X27166D01*
X27066Y117854D02*
Y118054D01*
X26966Y119904D02*
X27166D01*
X27066Y119804D02*
Y120004D01*
X26966Y120554D02*
X27166D01*
X27066Y120454D02*
Y120654D01*
X27666Y121904D02*
X27866D01*
X27766Y121804D02*
Y122004D01*
X28316Y121904D02*
X28516D01*
X28416Y121804D02*
Y122004D01*
X28966Y121904D02*
X29166D01*
X29066Y121804D02*
Y122004D01*
X29616Y121804D02*
X29816D01*
X29716Y121704D02*
Y121904D01*
X27066Y121204D02*
X27266D01*
X27166Y121104D02*
Y121304D01*
X30266Y121804D02*
X30466D01*
X30366Y121704D02*
Y121904D01*
X30966Y120554D02*
X31166D01*
X31066Y120454D02*
Y120654D01*
X30966Y119904D02*
X31166D01*
X31066Y119804D02*
Y120004D01*
X27066Y118604D02*
X27266D01*
X27166Y118504D02*
Y118704D01*
X30866Y119254D02*
X31066D01*
X30966Y119154D02*
Y119354D01*
X30866Y118604D02*
X31066D01*
X30966Y118504D02*
Y118704D01*
X30266Y118004D02*
X30466D01*
X30366Y117904D02*
Y118104D01*
X29616Y118004D02*
X29816D01*
X29716Y117904D02*
Y118104D01*
X28966Y118004D02*
X29166D01*
X29066Y117904D02*
Y118104D01*
X28316Y118004D02*
X28516D01*
X28416Y117904D02*
Y118104D01*
X27666Y118004D02*
X27866D01*
X27766Y117904D02*
Y118104D01*
X38823Y131804D02*
X39023D01*
X38923Y131704D02*
Y131904D01*
X41941Y131829D02*
X42141D01*
X42041Y131729D02*
Y131929D01*
X41941Y131304D02*
X42141D01*
X42041Y131204D02*
Y131404D01*
X42291Y130454D02*
X42491D01*
X42391Y130354D02*
Y130554D01*
X43123Y129632D02*
X43323D01*
X43223Y129532D02*
Y129732D01*
X43123Y128232D02*
X43323D01*
X43223Y128132D02*
Y128332D01*
X42301Y127401D02*
X42501D01*
X42401Y127301D02*
Y127501D01*
X37230Y128502D02*
X37430D01*
X37330Y128402D02*
Y128602D01*
X36398Y129324D02*
X36598D01*
X36498Y129224D02*
Y129424D01*
X36398Y130724D02*
X36598D01*
X36498Y130624D02*
Y130824D01*
X37220Y131555D02*
X37420D01*
X37320Y131455D02*
Y131655D01*
X58991Y131029D02*
X59191D01*
X59091Y130929D02*
Y131129D01*
X57966Y132054D02*
X58166D01*
X58066Y131954D02*
Y132154D01*
X60966Y127279D02*
X61166D01*
X61066Y127179D02*
Y127379D01*
X61991Y126254D02*
X62191D01*
X62091Y126154D02*
Y126354D01*
X63016Y127279D02*
X63216D01*
X63116Y127179D02*
Y127379D01*
X60966Y131429D02*
X61166D01*
X61066Y131329D02*
Y131529D01*
X12541Y120654D02*
X12741D01*
X12641Y120554D02*
Y120754D01*
X12516Y121354D02*
X12716D01*
X12616Y121254D02*
Y121454D01*
X12516Y120004D02*
X12716D01*
X12616Y119904D02*
Y120104D01*
X12116Y123329D02*
X12316D01*
X12216Y123229D02*
Y123429D01*
X10341Y116204D02*
X10541D01*
X10441Y116104D02*
Y116304D01*
X14216Y117704D02*
X14416D01*
X14316Y117604D02*
Y117804D01*
X17316Y117679D02*
X17516D01*
X17416Y117579D02*
Y117779D01*
X12341Y118004D02*
X12541D01*
X12441Y117904D02*
Y118104D01*
X13466Y118404D02*
X13666D01*
X13566Y118304D02*
Y118504D01*
X12591Y119354D02*
X12791D01*
X12691Y119254D02*
Y119454D01*
X13466Y116679D02*
X13666D01*
X13566Y116579D02*
Y116779D01*
X18066Y116679D02*
X18266D01*
X18166Y116579D02*
Y116779D01*
X18516Y116179D02*
X18716D01*
X18616Y116079D02*
Y116279D01*
X18086Y124874D02*
X18286D01*
X18186Y124774D02*
Y124974D01*
X18066Y122879D02*
X18266D01*
X18166Y122779D02*
Y122979D01*
X6301Y120014D02*
X6501D01*
X6401Y119914D02*
Y120114D01*
X13691Y113604D02*
X13891D01*
X13791Y113504D02*
Y113704D01*
X15091Y113604D02*
X15291D01*
X15191Y113504D02*
Y113704D01*
X16041Y113604D02*
X16241D01*
X16141Y113504D02*
Y113704D01*
X17441Y113604D02*
X17641D01*
X17541Y113504D02*
Y113704D01*
X18291Y114454D02*
X18491D01*
X18391Y114354D02*
Y114554D01*
X8241Y113529D02*
X8441D01*
X8341Y113429D02*
Y113629D01*
X19116Y112329D02*
X19316D01*
X19216Y112229D02*
Y112429D01*
X19116Y119679D02*
X19316D01*
X19216Y119579D02*
Y119779D01*
X13041Y114454D02*
X13241D01*
X13141Y114354D02*
Y114554D01*
X12891Y103204D02*
X13091D01*
X12991Y103104D02*
Y103304D01*
X40716Y116879D02*
X40916D01*
X40816Y116779D02*
Y116979D01*
X41566Y117729D02*
X41766D01*
X41666Y117629D02*
Y117829D01*
X41566Y114629D02*
X41766D01*
X41666Y114529D02*
Y114729D01*
X42691Y115129D02*
X42891D01*
X42791Y115029D02*
Y115229D01*
X40716Y115479D02*
X40916D01*
X40816Y115379D02*
Y115579D01*
X43541Y117879D02*
X43741D01*
X43641Y117779D02*
Y117979D01*
X47694Y117020D02*
X47894D01*
X47793Y116920D02*
Y117120D01*
X48816Y116529D02*
X49016D01*
X48916Y116429D02*
Y116629D01*
X13816Y104079D02*
X14016D01*
X13916Y103979D02*
Y104179D01*
X13816Y101779D02*
X14016D01*
X13916Y101679D02*
Y101879D01*
X14741Y105104D02*
X14941D01*
X14841Y105004D02*
Y105204D01*
X14741Y100744D02*
X14941D01*
X14841Y100644D02*
Y100844D01*
X14741Y103044D02*
X14941D01*
X14841Y102944D02*
Y103144D01*
X16441Y100629D02*
X16641D01*
X16541Y100529D02*
Y100729D01*
X19541Y101754D02*
X19741D01*
X19641Y101654D02*
Y101854D01*
X18166Y100629D02*
X18366D01*
X18266Y100529D02*
Y100729D01*
X19541Y100629D02*
X19741D01*
X19641Y100529D02*
Y100729D01*
X16816Y106354D02*
X17016D01*
X16916Y106254D02*
Y106454D01*
X18166Y107579D02*
X18366D01*
X18266Y107479D02*
Y107679D01*
X19541Y106354D02*
X19741D01*
X19641Y106254D02*
Y106454D01*
X19541Y104054D02*
X19741D01*
X19641Y103954D02*
Y104154D01*
X20591Y104054D02*
X20791D01*
X20691Y103954D02*
Y104154D01*
X21741Y104079D02*
X21941D01*
X21841Y103979D02*
Y104179D01*
X23066Y104054D02*
X23266D01*
X23166Y103954D02*
Y104154D01*
X20541Y100579D02*
X20741D01*
X20641Y100479D02*
Y100679D01*
X25466Y100629D02*
X25666D01*
X25566Y100529D02*
Y100729D01*
X23191Y100579D02*
X23391D01*
X23291Y100479D02*
Y100679D01*
X20566Y102129D02*
X20766D01*
X20666Y102029D02*
Y102229D01*
X23116Y102129D02*
X23316D01*
X23216Y102029D02*
Y102229D01*
X20566Y107479D02*
X20766D01*
X20666Y107379D02*
Y107579D01*
X20566Y105904D02*
X20766D01*
X20666Y105804D02*
Y106004D01*
X23166Y105879D02*
X23366D01*
X23266Y105779D02*
Y105979D01*
X23141Y107529D02*
X23341D01*
X23241Y107429D02*
Y107629D01*
X25366Y107529D02*
X25566D01*
X25466Y107429D02*
Y107629D01*
X50591Y114299D02*
X50791D01*
X50691Y114199D02*
Y114399D01*
X50591Y114904D02*
X50791D01*
X50691Y114804D02*
Y115004D01*
X50591Y115504D02*
X50791D01*
X50691Y115404D02*
Y115604D01*
X21441Y119204D02*
X21641D01*
X21541Y119104D02*
Y119304D01*
X2866Y114204D02*
X3066D01*
X2966Y114104D02*
Y114304D01*
X2441Y113779D02*
X2641D01*
X2541Y113679D02*
Y113879D01*
X39091Y106165D02*
X39291D01*
X39191Y106065D02*
Y106265D01*
X38950Y103392D02*
X39150D01*
X39050Y103292D02*
Y103492D01*
X39191Y109104D02*
X39391D01*
X39291Y109004D02*
Y109204D01*
X39966Y109104D02*
X40166D01*
X40066Y109004D02*
Y109204D01*
X8641Y108904D02*
X8841D01*
X8741Y108804D02*
Y109004D01*
X7441Y108904D02*
X7641D01*
X7541Y108804D02*
Y109004D01*
X52841Y106779D02*
X53041D01*
X52941Y106679D02*
Y106879D01*
X52841Y97154D02*
X53041D01*
X52941Y97054D02*
Y97254D01*
X51766Y97154D02*
X51966D01*
X51866Y97054D02*
Y97254D01*
X52841Y106054D02*
X53041D01*
X52941Y105954D02*
Y106154D01*
X56766Y110079D02*
X56966D01*
X56866Y109979D02*
Y110179D01*
X55991Y109479D02*
X56191D01*
X56091Y109379D02*
Y109579D01*
X59248Y109376D02*
X59448D01*
X59348Y109276D02*
Y109476D01*
X58241Y109979D02*
X58441D01*
X58341Y109879D02*
Y110079D01*
X59241Y109979D02*
X59441D01*
X59341Y109879D02*
Y110079D01*
X60241Y109979D02*
X60441D01*
X60341Y109879D02*
Y110079D01*
X60241Y108779D02*
X60441D01*
X60341Y108679D02*
Y108879D01*
X59241Y108779D02*
X59441D01*
X59341Y108679D02*
Y108879D01*
X58241Y108779D02*
X58441D01*
X58341Y108679D02*
Y108879D01*
X58241Y109379D02*
X58441D01*
X58341Y109279D02*
Y109479D01*
X60241Y109379D02*
X60441D01*
X60341Y109279D02*
Y109479D01*
X61716Y111104D02*
X61916D01*
X61816Y111004D02*
Y111204D01*
X56441Y129604D02*
X56641D01*
X56541Y129504D02*
Y129704D01*
X55291Y129604D02*
X55491D01*
X55391Y129504D02*
Y129704D01*
X6891Y62879D02*
X7091D01*
X6991Y62779D02*
Y62979D01*
X7116Y65554D02*
X7316D01*
X7216Y65454D02*
Y65654D01*
X32050Y103392D02*
X32250D01*
X32150Y103292D02*
Y103492D01*
X35566Y106165D02*
X35766D01*
X35666Y106065D02*
Y106265D01*
X32158Y106165D02*
X32358D01*
X32258Y106065D02*
Y106265D01*
X34066Y107254D02*
X34266D01*
X34166Y107154D02*
Y107354D01*
X37474Y107254D02*
X37674D01*
X37574Y107154D02*
Y107354D01*
X40999Y107254D02*
X41199D01*
X41099Y107154D02*
Y107354D01*
X38266Y103179D02*
X38466D01*
X38366Y103079D02*
Y103279D01*
X38266Y102529D02*
X38466D01*
X38366Y102429D02*
Y102629D01*
X34866Y102529D02*
X35066D01*
X34966Y102429D02*
Y102629D01*
X41791Y103079D02*
X41991D01*
X41891Y102979D02*
Y103179D01*
X34866Y103179D02*
X35066D01*
X34966Y103079D02*
Y103279D01*
X41791Y103729D02*
X41991D01*
X41891Y103629D02*
Y103829D01*
X35291Y101979D02*
X35491D01*
X35391Y101879D02*
Y102079D01*
X38839Y101967D02*
X39039D01*
X38939Y101867D02*
Y102067D01*
X34841Y33879D02*
X35041D01*
X34941Y33779D02*
Y33979D01*
X39941Y33929D02*
X40141D01*
X40041Y33829D02*
Y34029D01*
X37591Y32229D02*
X37791D01*
X37691Y32129D02*
Y32329D01*
X37116Y29129D02*
X37316D01*
X37216Y29029D02*
Y29229D01*
X29866Y32854D02*
X30066D01*
X29966Y32754D02*
Y32954D01*
X28866Y33854D02*
X29066D01*
X28966Y33754D02*
Y33954D01*
X29866Y34854D02*
X30066D01*
X29966Y34754D02*
Y34954D01*
X32841Y31479D02*
X33041D01*
X32941Y31379D02*
Y31579D01*
X34191Y31479D02*
X34391D01*
X34291Y31379D02*
Y31579D01*
X31465Y32875D02*
X31665D01*
X31565Y32775D02*
Y32975D01*
X31466Y34854D02*
X31666D01*
X31566Y34754D02*
Y34954D01*
X38016Y35554D02*
X38216D01*
X38116Y35454D02*
Y35654D01*
X38666Y35554D02*
X38866D01*
X38766Y35454D02*
Y35654D01*
X7241Y55404D02*
X7441D01*
X7341Y55304D02*
Y55504D01*
X7966Y65304D02*
X8166D01*
X8066Y65204D02*
Y65404D01*
X2441Y103406D02*
X2641D01*
X2541Y103306D02*
Y103506D01*
X6391Y117529D02*
X6591D01*
X6491Y117429D02*
Y117629D01*
X62766Y61579D02*
X62966D01*
X62866Y61479D02*
Y61679D01*
X34091Y12504D02*
X34291D01*
X34191Y12404D02*
Y12604D01*
X47691Y18929D02*
X47891D01*
X47791Y18829D02*
Y19029D01*
X34866Y18954D02*
X35066D01*
X34966Y18854D02*
Y19054D01*
X7816Y82354D02*
X8016D01*
X7916Y82254D02*
Y82454D01*
X8266Y86904D02*
X8466D01*
X8366Y86804D02*
Y87004D01*
Y85704D02*
X8566D01*
X8466Y85604D02*
Y85804D01*
X2866Y113229D02*
X3066D01*
X2966Y113129D02*
Y113329D01*
X1841Y113179D02*
X2041D01*
X1941Y113079D02*
Y113279D01*
X2016Y10529D02*
X2216D01*
X2116Y10429D02*
Y10629D01*
X1266Y10529D02*
X1466D01*
X1366Y10429D02*
Y10629D01*
X26566Y13929D02*
X26766D01*
X26666Y13829D02*
Y14029D01*
X25966Y13929D02*
X26166D01*
X26066Y13829D02*
Y14029D01*
X50716Y97154D02*
X50916D01*
X50816Y97054D02*
Y97254D01*
X52866Y98154D02*
X53066D01*
X52966Y98054D02*
Y98254D01*
X52841Y105129D02*
X53041D01*
X52941Y105029D02*
Y105229D01*
X52841Y104504D02*
X53041D01*
X52941Y104404D02*
Y104604D01*
X19066Y85379D02*
X19266D01*
X19166Y85279D02*
Y85479D01*
X19741Y85379D02*
X19941D01*
X19841Y85279D02*
Y85479D01*
X19741Y86879D02*
X19941D01*
X19841Y86779D02*
Y86979D01*
X19066Y86879D02*
X19266D01*
X19166Y86779D02*
Y86979D01*
X18466Y86879D02*
X18666D01*
X18566Y86779D02*
Y86979D01*
X19741Y88379D02*
X19941D01*
X19841Y88279D02*
Y88479D01*
X19066Y88379D02*
X19266D01*
X19166Y88279D02*
Y88479D01*
X18466Y88379D02*
X18666D01*
X18566Y88279D02*
Y88479D01*
X817Y1375D02*
X1017D01*
X917Y1276D02*
Y1475D01*
X3317Y6376D02*
X3517D01*
X3417Y6275D02*
Y6476D01*
X4567Y128876D02*
X4767D01*
X4667Y128775D02*
Y128975D01*
X3317Y131376D02*
X3517D01*
X3417Y131275D02*
Y131475D01*
X5817Y6376D02*
X6017D01*
X5917Y6275D02*
Y6476D01*
X5817Y126376D02*
X6017D01*
X5917Y126275D02*
Y126476D01*
X5817Y131376D02*
X6017D01*
X5917Y131275D02*
Y131475D01*
X8317Y6376D02*
X8517D01*
X8417Y6275D02*
Y6476D01*
X8317Y21375D02*
X8517D01*
X8417Y21275D02*
Y21476D01*
X8317Y26375D02*
X8517D01*
X8417Y26275D02*
Y26476D01*
X8317Y31375D02*
X8517D01*
X8417Y31275D02*
Y31476D01*
X8317Y111376D02*
X8517D01*
X8417Y111275D02*
Y111476D01*
X10817Y6376D02*
X11017D01*
X10917Y6275D02*
Y6476D01*
X10817Y21375D02*
X11017D01*
X10917Y21275D02*
Y21476D01*
X10817Y26375D02*
X11017D01*
X10917Y26275D02*
Y26476D01*
X10817Y31375D02*
X11017D01*
X10917Y31275D02*
Y31476D01*
X10817Y111376D02*
X11017D01*
X10917Y111275D02*
Y111476D01*
X13317Y1375D02*
X13517D01*
X13417Y1276D02*
Y1475D01*
X13317Y6376D02*
X13517D01*
X13417Y6275D02*
Y6476D01*
X13317Y21375D02*
X13517D01*
X13417Y21275D02*
Y21476D01*
X14567Y23875D02*
X14767D01*
X14667Y23775D02*
Y23976D01*
X13317Y26375D02*
X13517D01*
X13417Y26275D02*
Y26476D01*
X14567Y28875D02*
X14767D01*
X14667Y28775D02*
Y28976D01*
X14567Y33875D02*
X14767D01*
X14667Y33776D02*
Y33975D01*
X13317Y106376D02*
X13517D01*
X13417Y106275D02*
Y106476D01*
X13317Y126376D02*
X13517D01*
X13417Y126275D02*
Y126476D01*
X17067Y3875D02*
X17267D01*
X17167Y3776D02*
Y3976D01*
X15817Y6376D02*
X16017D01*
X15917Y6275D02*
Y6476D01*
X18317Y11375D02*
X18517D01*
X18417Y11276D02*
Y11476D01*
X25817Y16375D02*
X26017D01*
X25917Y16275D02*
Y16476D01*
X25817Y21375D02*
X26017D01*
X25917Y21275D02*
Y21476D01*
X25817Y26375D02*
X26017D01*
X25917Y26275D02*
Y26476D01*
X25817Y31375D02*
X26017D01*
X25917Y31275D02*
Y31476D01*
X28317Y101376D02*
X28517D01*
X28417Y101275D02*
Y101476D01*
X28317Y106376D02*
X28517D01*
X28417Y106275D02*
Y106476D01*
X30817Y106376D02*
X31017D01*
X30917Y106275D02*
Y106476D01*
X35817Y131376D02*
X36017D01*
X35917Y131275D02*
Y131475D01*
X38317Y131376D02*
X38517D01*
X38417Y131275D02*
Y131475D01*
X45817Y106376D02*
X46017D01*
X45917Y106275D02*
Y106476D01*
X48317Y106376D02*
X48517D01*
X48417Y106275D02*
Y106476D01*
X50817Y106376D02*
X51017D01*
X50917Y106275D02*
Y106476D01*
X53317Y111376D02*
X53517D01*
X53417Y111275D02*
Y111476D01*
X57067Y13875D02*
X57267D01*
X57167Y13776D02*
Y13976D01*
X55817Y106376D02*
X56017D01*
X55917Y106275D02*
Y106476D01*
X55817Y111376D02*
X56017D01*
X55917Y111275D02*
Y111476D01*
X58317Y1375D02*
X58517D01*
X58417Y1276D02*
Y1475D01*
X58317Y6376D02*
X58517D01*
X58417Y6275D02*
Y6476D01*
X58317Y11375D02*
X58517D01*
X58417Y11276D02*
Y11476D01*
X59567Y13875D02*
X59767D01*
X59667Y13776D02*
Y13976D01*
X58317Y16375D02*
X58517D01*
X58417Y16275D02*
Y16476D01*
X58317Y106376D02*
X58517D01*
X58417Y106275D02*
Y106476D01*
X58317Y111376D02*
X58517D01*
X58417Y111275D02*
Y111476D01*
X60817Y1375D02*
X61017D01*
X60917Y1276D02*
Y1475D01*
X60817Y6376D02*
X61017D01*
X60917Y6275D02*
Y6476D01*
X60817Y96376D02*
X61017D01*
X60917Y96275D02*
Y96476D01*
X62067Y98876D02*
X62267D01*
X62167Y98775D02*
Y98976D01*
X62067Y103876D02*
X62267D01*
X62167Y103775D02*
Y103976D01*
X60817Y106376D02*
X61017D01*
X60917Y106275D02*
Y106476D01*
X63317Y1375D02*
X63517D01*
X63417Y1276D02*
Y1475D01*
X64567Y3875D02*
X64767D01*
X64667Y3776D02*
Y3976D01*
X63317Y6376D02*
X63517D01*
X63417Y6275D02*
Y6476D01*
X63317Y16375D02*
X63517D01*
X63417Y16275D02*
Y16476D01*
X63317Y106376D02*
X63517D01*
X63417Y106275D02*
Y106476D01*
X65817Y6376D02*
X66017D01*
X65917Y6275D02*
Y6476D01*
X65817Y11375D02*
X66017D01*
X65917Y11276D02*
Y11476D01*
X67067Y123876D02*
X67267D01*
X67167Y123775D02*
Y123976D01*
X65817Y131376D02*
X66017D01*
X65917Y131275D02*
Y131475D01*
X25241Y128529D02*
X25441D01*
X25341Y128429D02*
Y128629D01*
X32466Y127179D02*
X32666D01*
X32566Y127079D02*
Y127279D01*
X14816Y120679D02*
X15016D01*
X14916Y120579D02*
Y120779D01*
X14741Y118504D02*
X14941D01*
X14841Y118404D02*
Y118604D01*
X6366Y120729D02*
X6566D01*
X6466Y120629D02*
Y120829D01*
X16725Y94725D02*
X16925D01*
X16825Y94625D02*
Y94825D01*
X22991Y95879D02*
X23191D01*
X23091Y95779D02*
Y95979D01*
X67825Y93325D02*
X68025D01*
X67925Y93225D02*
Y93425D01*
X42775Y112829D02*
X42975D01*
X42875Y112729D02*
Y112929D01*
X47875Y112425D02*
X48075D01*
X47975Y112325D02*
Y112525D01*
X43175Y113475D02*
X43375D01*
X43275Y113375D02*
Y113575D01*
X47250Y112950D02*
X47450D01*
X47350Y112850D02*
Y113050D01*
X62596Y86043D02*
X62796D01*
X62696Y85943D02*
Y86143D01*
X28874Y13224D02*
X29074D01*
X28974Y13124D02*
Y13324D01*
X68675Y66025D02*
X68875D01*
X68775Y65925D02*
Y66125D01*
X68203Y68828D02*
X68403D01*
X68303Y68728D02*
Y68928D01*
X68453Y63478D02*
X68653D01*
X68553Y63378D02*
Y63578D01*
X68450Y54650D02*
X68650D01*
X68550Y54550D02*
Y54750D01*
X62528Y87272D02*
X62728D01*
X62628Y87172D02*
Y87372D01*
X62596Y88575D02*
X62796D01*
X62696Y88475D02*
Y88675D01*
X62375Y89725D02*
X62575D01*
X62475Y89625D02*
Y89825D01*
X38925Y84325D02*
X39125D01*
X39025Y84225D02*
Y84425D01*
X38250Y85825D02*
X38450D01*
X38350Y85725D02*
Y85925D01*
X68603Y45702D02*
X68803D01*
X68703Y45602D02*
Y45802D01*
X68012Y82362D02*
X68212D01*
X68112Y82262D02*
Y82462D01*
X7625Y80450D02*
X7825D01*
X7725Y80350D02*
Y80550D01*
X7325Y50477D02*
X7525D01*
X7425Y50377D02*
Y50577D01*
X9025Y75475D02*
X9225D01*
X9125Y75375D02*
Y75575D01*
X14825Y81825D02*
X15025D01*
X14925Y81725D02*
Y81925D01*
X14776Y81154D02*
X14976D01*
X14876Y81054D02*
Y81254D01*
X7491Y48259D02*
X7691D01*
X7591Y48159D02*
Y48359D01*
X9400Y72750D02*
X9600D01*
X9500Y72650D02*
Y72850D01*
X50125Y85125D02*
X50325D01*
X50225Y85025D02*
Y85225D01*
X35175Y84450D02*
X35375D01*
X35275Y84350D02*
Y84550D01*
X42375Y99349D02*
X42575D01*
X42475Y99249D02*
Y99449D01*
X54953Y100605D02*
X55153D01*
X55053Y100505D02*
Y100705D01*
X46800Y87500D02*
X47000D01*
X46900Y87400D02*
Y87600D01*
X33800Y83375D02*
X34000D01*
X33900Y83275D02*
Y83475D01*
X33100Y84975D02*
X33300D01*
X33200Y84875D02*
Y85075D01*
X35400Y92550D02*
X35600D01*
X35500Y92450D02*
Y92650D01*
X38850Y87775D02*
X39050D01*
X38950Y87675D02*
Y87875D01*
X34275Y86525D02*
X34475D01*
X34375Y86425D02*
Y86625D01*
X31075Y83350D02*
X31275D01*
X31175Y83250D02*
Y83450D01*
X31952Y91179D02*
X32152D01*
X32052Y91079D02*
Y91279D01*
X38602Y91204D02*
X38802D01*
X38702Y91104D02*
Y91304D01*
X32695Y90045D02*
X32895D01*
X32795Y89945D02*
Y90145D01*
X65725Y90350D02*
X65925D01*
X65825Y90250D02*
Y90450D01*
X65750Y95100D02*
X65950D01*
X65850Y95000D02*
Y95200D01*
X32150Y80575D02*
X32350D01*
X32250Y80475D02*
Y80675D01*
X30850Y80550D02*
X31050D01*
X30950Y80450D02*
Y80650D01*
X61478Y62828D02*
X61678D01*
X61578Y62728D02*
Y62928D01*
X61603Y79254D02*
X61803D01*
X61703Y79154D02*
Y79354D01*
X26150Y79225D02*
X26350D01*
X26250Y79125D02*
Y79325D01*
X36250Y83325D02*
X36450D01*
X36350Y83225D02*
Y83425D01*
X36925Y83325D02*
X37125D01*
X37025Y83225D02*
Y83425D01*
X53025Y90800D02*
X53225D01*
X53125Y90700D02*
Y90900D01*
X29200Y86600D02*
X29400D01*
X29300Y86500D02*
Y86700D01*
X27650Y86575D02*
X27850D01*
X27750Y86475D02*
Y86675D01*
X53528Y91229D02*
X53728D01*
X53628Y91129D02*
Y91329D01*
X14001Y72554D02*
X14201D01*
X14101Y72454D02*
Y72654D01*
X21932Y73618D02*
X22132D01*
X22032Y73518D02*
Y73718D01*
X1875Y54228D02*
X2075D01*
X1975Y54128D02*
Y54328D01*
X1875Y54878D02*
X2075D01*
X1975Y54778D02*
Y54978D01*
X7200Y35113D02*
X7400D01*
X7300Y35013D02*
Y35213D01*
X4025Y41602D02*
X4225D01*
X4125Y41502D02*
Y41702D01*
X7275Y38275D02*
X7475D01*
X7375Y38175D02*
Y38375D01*
X22100Y72350D02*
X22300D01*
X22200Y72250D02*
Y72450D01*
X61396Y63478D02*
X61596D01*
X61496Y63378D02*
Y63578D01*
X18650Y71200D02*
X18850D01*
X18750Y71100D02*
Y71300D01*
X7725Y71575D02*
X7925D01*
X7825Y71475D02*
Y71675D01*
X8806Y70975D02*
X9006D01*
X8906Y70875D02*
Y71075D01*
X18550Y69075D02*
X18750D01*
X18650Y68975D02*
Y69175D01*
X7650Y69950D02*
X7850D01*
X7750Y69850D02*
Y70050D01*
X34125Y70054D02*
X34325D01*
X34225Y69954D02*
Y70154D01*
X32766Y61734D02*
X32966D01*
X32866Y61634D02*
Y61834D01*
X32275Y62250D02*
X32475D01*
X32375Y62150D02*
Y62350D01*
X33275Y62250D02*
X33475D01*
X33375Y62150D02*
Y62350D01*
X68600Y43175D02*
X68800D01*
X68700Y43075D02*
Y43275D01*
X35202Y78129D02*
X35402D01*
X35302Y78029D02*
Y78229D01*
X65628Y64878D02*
X65828D01*
X65728Y64778D02*
Y64978D01*
X32875Y57525D02*
X33075D01*
X32975Y57425D02*
Y57625D01*
X33775Y57525D02*
X33975D01*
X33875Y57425D02*
Y57625D01*
X33750Y61700D02*
X33950D01*
X33850Y61600D02*
Y61800D01*
X34752Y59103D02*
X34952D01*
X34852Y59003D02*
Y59203D01*
X23725Y37400D02*
X23925D01*
X23825Y37300D02*
Y37500D01*
X34775Y58450D02*
X34975D01*
X34875Y58350D02*
Y58550D01*
X24450Y40650D02*
X24650D01*
X24550Y40550D02*
Y40750D01*
X34700Y57800D02*
X34900D01*
X34800Y57700D02*
Y57900D01*
X23675Y35550D02*
X23875D01*
X23775Y35450D02*
Y35650D01*
X27101Y49427D02*
X27301D01*
X27201Y49327D02*
Y49527D01*
X34600Y56825D02*
X34800D01*
X34700Y56725D02*
Y56925D01*
X36625Y59000D02*
X36825D01*
X36725Y58900D02*
Y59100D01*
X38050Y58900D02*
X38250D01*
X38150Y58800D02*
Y59000D01*
X39725Y54050D02*
X39925D01*
X39825Y53950D02*
Y54150D01*
X34800Y54800D02*
X35000D01*
X34900Y54700D02*
Y54900D01*
X39050Y53400D02*
X39250D01*
X39150Y53300D02*
Y53500D01*
X35450Y55450D02*
X35650D01*
X35550Y55350D02*
Y55550D01*
X35438Y56963D02*
X35638D01*
X35537Y56862D02*
Y57062D01*
X39000Y55800D02*
X39200D01*
X39100Y55700D02*
Y55900D01*
X35025Y53175D02*
X35225D01*
X35125Y53075D02*
Y53275D01*
X37975Y53050D02*
X38175D01*
X38075Y52950D02*
Y53150D01*
X36625Y53075D02*
X36825D01*
X36725Y52975D02*
Y53175D01*
X39000Y57050D02*
X39200D01*
X39100Y56950D02*
Y57150D01*
X35650Y61775D02*
X35850D01*
X35750Y61675D02*
Y61875D01*
X33250Y64499D02*
X33450D01*
X33350Y64399D02*
Y64599D01*
X37400Y62075D02*
X37600D01*
X37500Y61975D02*
Y62175D01*
X36375Y62225D02*
X36575D01*
X36475Y62125D02*
Y62325D01*
X39875Y56150D02*
X40075D01*
X39975Y56050D02*
Y56250D01*
X38100Y62075D02*
X38300D01*
X38200Y61975D02*
Y62175D01*
X39113Y58625D02*
X39313D01*
X39213Y58525D02*
Y58725D01*
X38300Y64525D02*
X38500D01*
X38400Y64425D02*
Y64625D01*
X48725Y63025D02*
X48925D01*
X48825Y62925D02*
Y63125D01*
X48100Y61525D02*
X48300D01*
X48200Y61425D02*
Y61625D01*
X11875Y60250D02*
X12075D01*
X11975Y60150D02*
Y60350D01*
X44100Y62850D02*
X44300D01*
X44200Y62750D02*
Y62950D01*
X41302Y79504D02*
X41502D01*
X41402Y79404D02*
Y79604D01*
X44025Y63800D02*
X44225D01*
X44125Y63700D02*
Y63900D01*
X58000Y94725D02*
X58200D01*
X58100Y94625D02*
Y94825D01*
X41850Y94400D02*
X42050D01*
X41950Y94300D02*
Y94500D01*
X49586Y53875D02*
X49786D01*
X49686Y53775D02*
Y53975D01*
X50550Y79875D02*
X50750D01*
X50650Y79775D02*
Y79975D01*
X50036Y101979D02*
X50236D01*
X50136Y101879D02*
Y102079D01*
X44200Y64575D02*
X44400D01*
X44300Y64475D02*
Y64675D01*
X37550Y66250D02*
X37750D01*
X37650Y66150D02*
Y66350D01*
X36700Y71275D02*
X36900D01*
X36800Y71175D02*
Y71375D01*
X49475Y83275D02*
X49675D01*
X49575Y83175D02*
Y83375D01*
X48700Y83250D02*
X48900D01*
X48800Y83150D02*
Y83350D01*
X49150Y65550D02*
X49350D01*
X49250Y65450D02*
Y65650D01*
X67500Y61975D02*
X67700D01*
X67600Y61875D02*
Y62075D01*
X67750Y64725D02*
X67950D01*
X67850Y64625D02*
Y64825D01*
X67553Y67353D02*
X67753D01*
X67653Y67253D02*
Y67453D01*
X39250Y46250D02*
X39450D01*
X39350Y46150D02*
Y46350D01*
X39250Y44050D02*
X39450D01*
X39350Y43950D02*
Y44150D01*
X36725Y72675D02*
X36925D01*
X36825Y72575D02*
Y72775D01*
X38227Y66503D02*
X38427D01*
X38327Y66403D02*
Y66603D01*
X40405Y96205D02*
X40605D01*
X40505Y96105D02*
Y96305D01*
X41850Y95750D02*
X42050D01*
X41950Y95650D02*
Y95850D01*
Y72675D02*
X42150D01*
X42050Y72575D02*
Y72775D01*
X22375Y67100D02*
X22575D01*
X22475Y67000D02*
Y67200D01*
X11775Y67225D02*
X11975D01*
X11875Y67125D02*
Y67325D01*
X65625Y67575D02*
X65825D01*
X65725Y67475D02*
Y67675D01*
X67478Y72529D02*
X67678D01*
X67578Y72429D02*
Y72629D01*
X47225Y68550D02*
X47425D01*
X47325Y68450D02*
Y68650D01*
X22075Y68025D02*
X22275D01*
X22175Y67925D02*
Y68125D01*
X22750Y67975D02*
X22950D01*
X22850Y67875D02*
Y68075D01*
X44127Y68528D02*
X44327D01*
X44227Y68428D02*
Y68628D01*
X60900Y67850D02*
X61100D01*
X61000Y67750D02*
Y67950D01*
X61350Y68550D02*
X61550D01*
X61450Y68450D02*
Y68650D01*
X61775Y88575D02*
X61975D01*
X61875Y88475D02*
Y88675D01*
X48950Y73350D02*
X49150D01*
X49050Y73250D02*
Y73450D01*
X48075Y74000D02*
X48275D01*
X48175Y73900D02*
Y74100D01*
X60125Y31325D02*
X60325D01*
X60225Y31225D02*
Y31425D01*
X58150Y75275D02*
X58350D01*
X58250Y75175D02*
Y75375D01*
X60900Y76075D02*
X61100D01*
X61000Y75975D02*
Y76175D01*
X67475Y77725D02*
X67675D01*
X67575Y77625D02*
Y77825D01*
X65675Y77100D02*
X65875D01*
X65775Y77000D02*
Y77200D01*
X59703Y31852D02*
X59903D01*
X59803Y31752D02*
Y31952D01*
X60900Y76900D02*
X61100D01*
X61000Y76800D02*
Y77000D01*
X57700Y67300D02*
X57900D01*
X57800Y67200D02*
Y67400D01*
X48275Y31125D02*
X48475D01*
X48375Y31025D02*
Y31225D01*
X15575Y31100D02*
X15775D01*
X15675Y31000D02*
Y31200D01*
X60500Y8523D02*
X60700D01*
X60600Y8423D02*
Y8623D01*
X65750Y44275D02*
X65950D01*
X65850Y44175D02*
Y44375D01*
X67200Y29200D02*
X67400D01*
X67300Y29100D02*
Y29300D01*
X31675Y36000D02*
X31875D01*
X31775Y35900D02*
Y36100D01*
X60875Y34325D02*
X61075D01*
X60975Y34225D02*
Y34425D01*
X33825Y36450D02*
X34025D01*
X33925Y36350D02*
Y36550D01*
X28375Y37325D02*
X28575D01*
X28475Y37225D02*
Y37425D01*
X28050Y14525D02*
X28250D01*
X28150Y14425D02*
Y14625D01*
X27375Y31775D02*
X27575D01*
X27475Y31675D02*
Y31875D01*
X51525Y21575D02*
X51725D01*
X51625Y21475D02*
Y21675D01*
X59850Y21575D02*
X60050D01*
X59950Y21475D02*
Y21675D01*
X43950Y36754D02*
X44150D01*
X44050Y36654D02*
Y36854D01*
X43950Y31725D02*
X44150D01*
X44050Y31625D02*
Y31825D01*
X28550Y32325D02*
X28750D01*
X28650Y32225D02*
Y32425D01*
X29200Y14425D02*
X29400D01*
X29300Y14325D02*
Y14525D01*
X48125Y78875D02*
X48325D01*
X48225Y78775D02*
Y78975D01*
X48575Y78425D02*
X48775D01*
X48675Y78325D02*
Y78525D01*
X26900Y79675D02*
X27100D01*
X27000Y79575D02*
Y79775D01*
X29850Y79725D02*
X30050D01*
X29950Y79625D02*
Y79825D01*
X31475D02*
X31675D01*
X31575Y79725D02*
Y79925D01*
X32875Y79575D02*
X33075D01*
X32975Y79475D02*
Y79675D01*
X36825Y79500D02*
X37025D01*
X36925Y79400D02*
Y79600D01*
X39550Y79550D02*
X39750D01*
X39650Y79450D02*
Y79650D01*
X42900Y79450D02*
X43100D01*
X43000Y79350D02*
Y79550D01*
X42825Y77150D02*
X43025D01*
X42925Y77050D02*
Y77250D01*
X37750Y77050D02*
X37950D01*
X37850Y76950D02*
Y77150D01*
X29500Y76925D02*
X29700D01*
X29600Y76825D02*
Y77025D01*
X27125Y76350D02*
X27325D01*
X27225Y76250D02*
Y76450D01*
X29350Y73550D02*
X29550D01*
X29450Y73450D02*
Y73650D01*
X28025Y72375D02*
X28225D01*
X28125Y72275D02*
Y72475D01*
X33500Y73775D02*
X33700D01*
X33600Y73675D02*
Y73875D01*
X36850Y75800D02*
X37050D01*
X36950Y75700D02*
Y75900D01*
X38725Y75725D02*
X38925D01*
X38825Y75625D02*
Y75825D01*
X42825Y75700D02*
X43025D01*
X42925Y75600D02*
Y75800D01*
X42775Y73500D02*
X42975D01*
X42875Y73400D02*
Y73600D01*
X43100Y69550D02*
X43300D01*
X43200Y69450D02*
Y69650D01*
X42625Y68275D02*
X42825D01*
X42725Y68175D02*
Y68375D01*
X36825Y74175D02*
X37025D01*
X36925Y74075D02*
Y74275D01*
X38575Y73300D02*
X38775D01*
X38675Y73200D02*
Y73400D01*
X38125Y71625D02*
X38325D01*
X38225Y71525D02*
Y71725D01*
X38375Y68200D02*
X38575D01*
X38475Y68100D02*
Y68300D01*
X34800Y68200D02*
X35000D01*
X34900Y68100D02*
Y68300D01*
X34125Y66350D02*
X34325D01*
X34225Y66250D02*
Y66450D01*
X27500Y65250D02*
X27700D01*
X27600Y65150D02*
Y65350D01*
X26000Y62900D02*
X26200D01*
X26100Y62800D02*
Y63000D01*
X27425Y63775D02*
X27625D01*
X27525Y63675D02*
Y63875D01*
X31575Y63700D02*
X31775D01*
X31675Y63600D02*
Y63800D01*
X34850Y62125D02*
X35050D01*
X34950Y62025D02*
Y62225D01*
X38950Y63575D02*
X39150D01*
X39050Y63475D02*
Y63675D01*
X45850Y61650D02*
X46050D01*
X45950Y61550D02*
Y61750D01*
X20950Y75975D02*
X21150D01*
X21050Y75875D02*
Y76075D01*
X16850Y76050D02*
X17050D01*
X16950Y75950D02*
Y76150D01*
X20200Y78150D02*
X20400D01*
X20300Y78050D02*
Y78250D01*
X17100Y78175D02*
X17300D01*
X17200Y78075D02*
Y78275D01*
X18650Y79300D02*
X18850D01*
X18750Y79200D02*
Y79400D01*
X51300Y78625D02*
X51500D01*
X51400Y78525D02*
Y78725D01*
X52950Y79850D02*
X53150D01*
X53050Y79750D02*
Y79950D01*
X53250Y81500D02*
X53450D01*
X53350Y81400D02*
Y81600D01*
X51175Y81525D02*
X51375D01*
X51275Y81425D02*
Y81625D01*
X44950Y81650D02*
X45150D01*
X45050Y81550D02*
Y81750D01*
X47500Y83150D02*
X47700D01*
X47600Y83050D02*
Y83250D01*
X52200Y88225D02*
X52400D01*
X52300Y88125D02*
Y88325D01*
X49350Y92475D02*
X49550D01*
X49450Y92375D02*
Y92575D01*
X44475Y89175D02*
X44675D01*
X44575Y89075D02*
Y89275D01*
X43000Y89175D02*
X43200D01*
X43100Y89075D02*
Y89275D01*
X40975Y85700D02*
X41175D01*
X41075Y85600D02*
Y85800D01*
X37900Y94725D02*
X38100D01*
X38000Y94625D02*
Y94825D01*
X37800Y91950D02*
X38000D01*
X37900Y91850D02*
Y92050D01*
X29950Y91050D02*
X30150D01*
X30050Y90950D02*
Y91150D01*
X5900Y105800D02*
X6100D01*
X6000Y105700D02*
Y105900D01*
X3650Y110950D02*
X3850D01*
X3750Y110850D02*
Y111050D01*
X15950Y110525D02*
X16150D01*
X16050Y110425D02*
Y110625D01*
X21325Y110150D02*
X21525D01*
X21425Y110050D02*
Y110250D01*
X16250Y126875D02*
X16450D01*
X16350Y126775D02*
Y126975D01*
X17250Y120300D02*
X17450D01*
X17350Y120200D02*
Y120400D01*
X13075Y124425D02*
X13275D01*
X13175Y124325D02*
Y124525D01*
X37975Y115100D02*
X38175D01*
X38075Y115000D02*
Y115200D01*
X39600Y112625D02*
X39800D01*
X39700Y112525D02*
Y112725D01*
X36450Y109300D02*
X36650D01*
X36550Y109200D02*
Y109400D01*
X60000Y125175D02*
X60200D01*
X60100Y125075D02*
Y125275D01*
X59750Y128875D02*
X59950D01*
X59850Y128775D02*
Y128975D01*
X26125Y53125D02*
X26325D01*
X26225Y53025D02*
Y53225D01*
X34575Y51750D02*
X34775D01*
X34675Y51650D02*
Y51850D01*
X37200D02*
X37400D01*
X37300Y51750D02*
Y51950D01*
X40525Y51675D02*
X40725D01*
X40625Y51575D02*
Y51775D01*
X44150Y47850D02*
X44350D01*
X44250Y47750D02*
Y47950D01*
X41850Y47625D02*
X42050D01*
X41950Y47525D02*
Y47725D01*
X37400Y47150D02*
X37600D01*
X37500Y47050D02*
Y47250D01*
X33775Y46400D02*
X33975D01*
X33875Y46300D02*
Y46500D01*
X31375Y48375D02*
X31575D01*
X31475Y48275D02*
Y48475D01*
X29375Y46525D02*
X29575D01*
X29475Y46425D02*
Y46625D01*
X27700Y48225D02*
X27900D01*
X27800Y48125D02*
Y48325D01*
X4525Y49475D02*
X4725D01*
X4625Y49375D02*
Y49575D01*
X4375Y46900D02*
X4575D01*
X4475Y46800D02*
Y47000D01*
X28825Y43000D02*
X29025D01*
X28925Y42900D02*
Y43100D01*
X26150Y39175D02*
X26350D01*
X26250Y39075D02*
Y39275D01*
X16375Y39225D02*
X16575D01*
X16475Y39125D02*
Y39325D01*
X16375Y36825D02*
X16575D01*
X16475Y36725D02*
Y36925D01*
X19300Y36375D02*
X19500D01*
X19400Y36275D02*
Y36475D01*
X26150Y35675D02*
X26350D01*
X26250Y35575D02*
Y35775D01*
X29625Y36425D02*
X29825D01*
X29725Y36325D02*
Y36525D01*
X40850Y32600D02*
X41050D01*
X40950Y32500D02*
Y32700D01*
X45800Y33400D02*
X46000D01*
X45900Y33300D02*
Y33500D01*
X45600Y43275D02*
X45800D01*
X45700Y43175D02*
Y43375D01*
X52775Y23400D02*
X52975D01*
X52875Y23300D02*
Y23500D01*
X58600Y23450D02*
X58800D01*
X58700Y23350D02*
Y23550D01*
X33750Y24200D02*
X33950D01*
X33850Y24100D02*
Y24300D01*
X29875Y29800D02*
X30075D01*
X29975Y29700D02*
Y29900D01*
X17350Y32250D02*
X17550D01*
X17450Y32150D02*
Y32350D01*
X19400Y32550D02*
X19600D01*
X19500Y32450D02*
Y32650D01*
X19525Y26925D02*
X19725D01*
X19625Y26825D02*
Y27025D01*
X17400Y26425D02*
X17600D01*
X17500Y26325D02*
Y26525D01*
X9175Y18600D02*
X9375D01*
X9275Y18500D02*
Y18700D01*
X17400Y19175D02*
X17600D01*
X17500Y19075D02*
Y19275D01*
X22675Y22425D02*
X22875D01*
X22775Y22325D02*
Y22525D01*
X22550Y15225D02*
X22750D01*
X22650Y15125D02*
Y15325D01*
X17925Y15175D02*
X18125D01*
X18025Y15075D02*
Y15275D01*
X13400Y15325D02*
X13600D01*
X13500Y15225D02*
Y15425D01*
X8650Y15900D02*
X8850D01*
X8750Y15800D02*
Y16000D01*
X10600Y12700D02*
X10800D01*
X10700Y12600D02*
Y12800D01*
X17600Y76050D02*
X17800D01*
X17700Y75950D02*
Y76150D01*
X18275Y76050D02*
X18475D01*
X18375Y75950D02*
Y76150D01*
X18900Y76050D02*
X19100D01*
X19000Y75950D02*
Y76150D01*
X19500Y76050D02*
X19700D01*
X19600Y75950D02*
Y76150D01*
X17900Y75500D02*
X18100D01*
X18000Y75400D02*
Y75600D01*
X18575Y75500D02*
X18775D01*
X18675Y75400D02*
Y75600D01*
X19200Y75500D02*
X19400D01*
X19300Y75400D02*
Y75600D01*
X1318Y876D02*
X1518D01*
X1418Y776D02*
Y976D01*
X1818Y1876D02*
X2018D01*
X1918Y1776D02*
Y1976D01*
X1318Y2876D02*
X1518D01*
X1418Y2776D02*
Y2976D01*
X1318Y4876D02*
X1518D01*
X1418Y4776D02*
Y4976D01*
X1818Y5876D02*
X2018D01*
X1918Y5776D02*
Y5976D01*
X1318Y6876D02*
X1518D01*
X1418Y6776D02*
Y6976D01*
X1818Y123876D02*
X2018D01*
X1918Y123776D02*
Y123976D01*
X1318Y126876D02*
X1518D01*
X1418Y126776D02*
Y126976D01*
X1818Y127876D02*
X2018D01*
X1918Y127776D02*
Y127976D01*
X1318Y128876D02*
X1518D01*
X1418Y128776D02*
Y128976D01*
X1318Y130876D02*
X1518D01*
X1418Y130776D02*
Y130976D01*
X1818Y131876D02*
X2018D01*
X1918Y131776D02*
Y131976D01*
X2318Y2876D02*
X2518D01*
X2418Y2776D02*
Y2976D01*
X2818Y5876D02*
X3018D01*
X2918Y5776D02*
Y5976D01*
X2318Y6876D02*
X2518D01*
X2418Y6776D02*
Y6976D01*
X2818Y123876D02*
X3018D01*
X2918Y123776D02*
Y123976D01*
X2318Y124876D02*
X2518D01*
X2418Y124776D02*
Y124976D01*
X2818Y131876D02*
X3018D01*
X2918Y131776D02*
Y131976D01*
X3818Y5876D02*
X4018D01*
X3918Y5776D02*
Y5976D01*
X3318Y6876D02*
X3518D01*
X3418Y6776D02*
Y6976D01*
X3818Y123876D02*
X4018D01*
X3918Y123776D02*
Y123976D01*
X3318Y124876D02*
X3518D01*
X3418Y124776D02*
Y124976D01*
X3818Y131876D02*
X4018D01*
X3918Y131776D02*
Y131976D01*
X4818Y5876D02*
X5018D01*
X4918Y5776D02*
Y5976D01*
X4318Y6876D02*
X4518D01*
X4418Y6776D02*
Y6976D01*
X4818Y123876D02*
X5018D01*
X4918Y123776D02*
Y123976D01*
X4318Y124876D02*
X4518D01*
X4418Y124776D02*
Y124976D01*
X4818Y129876D02*
X5018D01*
X4918Y129776D02*
Y129976D01*
X4818Y131876D02*
X5018D01*
X4918Y131776D02*
Y131976D01*
X5318Y4876D02*
X5518D01*
X5418Y4776D02*
Y4976D01*
X5818Y5876D02*
X6018D01*
X5918Y5776D02*
Y5976D01*
X5318Y6876D02*
X5518D01*
X5418Y6776D02*
Y6976D01*
X5318Y124876D02*
X5518D01*
X5418Y124776D02*
Y124976D01*
X5318Y126876D02*
X5518D01*
X5418Y126776D02*
Y126976D01*
X5318Y130876D02*
X5518D01*
X5418Y130776D02*
Y130976D01*
X5818Y131876D02*
X6018D01*
X5918Y131776D02*
Y131976D01*
X6318Y4876D02*
X6518D01*
X6418Y4776D02*
Y4976D01*
X6818Y5876D02*
X7018D01*
X6918Y5776D02*
Y5976D01*
X6318Y6876D02*
X6518D01*
X6418Y6776D02*
Y6976D01*
X6318Y102876D02*
X6518D01*
X6418Y102776D02*
Y102976D01*
X6318Y106876D02*
X6518D01*
X6418Y106776D02*
Y106976D01*
X6318Y108876D02*
X6518D01*
X6418Y108776D02*
Y108976D01*
X6818Y109876D02*
X7018D01*
X6918Y109776D02*
Y109976D01*
X6318Y110876D02*
X6518D01*
X6418Y110776D02*
Y110976D01*
X6318Y122876D02*
X6518D01*
X6418Y122776D02*
Y122976D01*
X6318Y126876D02*
X6518D01*
X6418Y126776D02*
Y126976D01*
X6818Y131876D02*
X7018D01*
X6918Y131776D02*
Y131976D01*
X7318Y4876D02*
X7518D01*
X7418Y4776D02*
Y4976D01*
X7818Y5876D02*
X8018D01*
X7918Y5776D02*
Y5976D01*
X7318Y6876D02*
X7518D01*
X7418Y6776D02*
Y6976D01*
X7818Y109876D02*
X8018D01*
X7918Y109776D02*
Y109976D01*
X7318Y110876D02*
X7518D01*
X7418Y110776D02*
Y110976D01*
X7318Y128876D02*
X7518D01*
X7418Y128776D02*
Y128976D01*
X7818Y129876D02*
X8018D01*
X7918Y129776D02*
Y129976D01*
X7318Y130876D02*
X7518D01*
X7418Y130776D02*
Y130976D01*
X7818Y131876D02*
X8018D01*
X7918Y131776D02*
Y131976D01*
X8318Y4876D02*
X8518D01*
X8418Y4776D02*
Y4976D01*
X8818Y5876D02*
X9018D01*
X8918Y5776D02*
Y5976D01*
X8818Y19876D02*
X9018D01*
X8918Y19776D02*
Y19976D01*
X8818Y21876D02*
X9018D01*
X8918Y21776D02*
Y21976D01*
X8818Y23876D02*
X9018D01*
X8918Y23776D02*
Y23976D01*
X8818Y25876D02*
X9018D01*
X8918Y25776D02*
Y25976D01*
X8818Y27876D02*
X9018D01*
X8918Y27776D02*
Y27976D01*
X8818Y29876D02*
X9018D01*
X8918Y29776D02*
Y29976D01*
X8818Y109876D02*
X9018D01*
X8918Y109776D02*
Y109976D01*
X8318Y110876D02*
X8518D01*
X8418Y110776D02*
Y110976D01*
X8818Y123876D02*
X9018D01*
X8918Y123776D02*
Y123976D01*
X8318Y124876D02*
X8518D01*
X8418Y124776D02*
Y124976D01*
X8318Y128876D02*
X8518D01*
X8418Y128776D02*
Y128976D01*
X8818Y129876D02*
X9018D01*
X8918Y129776D02*
Y129976D01*
X9318Y4876D02*
X9518D01*
X9418Y4776D02*
Y4976D01*
X9818Y5876D02*
X10018D01*
X9918Y5776D02*
Y5976D01*
X9318Y12876D02*
X9518D01*
X9418Y12776D02*
Y12976D01*
X9318Y14876D02*
X9518D01*
X9418Y14776D02*
Y14976D01*
X9818Y15876D02*
X10018D01*
X9918Y15776D02*
Y15976D01*
X9318Y16876D02*
X9518D01*
X9418Y16776D02*
Y16976D01*
X9818Y19876D02*
X10018D01*
X9918Y19776D02*
Y19976D01*
X9318Y20876D02*
X9518D01*
X9418Y20776D02*
Y20976D01*
X9818Y21876D02*
X10018D01*
X9918Y21776D02*
Y21976D01*
X9318Y22876D02*
X9518D01*
X9418Y22776D02*
Y22976D01*
X9818Y23876D02*
X10018D01*
X9918Y23776D02*
Y23976D01*
X9318Y24876D02*
X9518D01*
X9418Y24776D02*
Y24976D01*
X9818Y25876D02*
X10018D01*
X9918Y25776D02*
Y25976D01*
X9318Y26876D02*
X9518D01*
X9418Y26776D02*
Y26976D01*
X9818Y27876D02*
X10018D01*
X9918Y27776D02*
Y27976D01*
X9318Y28876D02*
X9518D01*
X9418Y28776D02*
Y28976D01*
X9818Y29876D02*
X10018D01*
X9918Y29776D02*
Y29976D01*
X9318Y30876D02*
X9518D01*
X9418Y30776D02*
Y30976D01*
X9318Y74876D02*
X9518D01*
X9418Y74776D02*
Y74976D01*
X9318Y98876D02*
X9518D01*
X9418Y98776D02*
Y98976D01*
X10318Y4876D02*
X10518D01*
X10418Y4776D02*
Y4976D01*
X10818Y5876D02*
X11018D01*
X10918Y5776D02*
Y5976D01*
X10318Y14876D02*
X10518D01*
X10418Y14776D02*
Y14976D01*
X10818Y15876D02*
X11018D01*
X10918Y15776D02*
Y15976D01*
X10318Y16876D02*
X10518D01*
X10418Y16776D02*
Y16976D01*
X10318Y18876D02*
X10518D01*
X10418Y18776D02*
Y18976D01*
X10818Y19876D02*
X11018D01*
X10918Y19776D02*
Y19976D01*
X10318Y20876D02*
X10518D01*
X10418Y20776D02*
Y20976D01*
X10818Y21876D02*
X11018D01*
X10918Y21776D02*
Y21976D01*
X10318Y22876D02*
X10518D01*
X10418Y22776D02*
Y22976D01*
X10818Y23876D02*
X11018D01*
X10918Y23776D02*
Y23976D01*
X10318Y24876D02*
X10518D01*
X10418Y24776D02*
Y24976D01*
X10818Y25876D02*
X11018D01*
X10918Y25776D02*
Y25976D01*
X10318Y26876D02*
X10518D01*
X10418Y26776D02*
Y26976D01*
X10318Y30876D02*
X10518D01*
X10418Y30776D02*
Y30976D01*
X10318Y92876D02*
X10518D01*
X10418Y92776D02*
Y92976D01*
X10818Y93876D02*
X11018D01*
X10918Y93776D02*
Y93976D01*
X10318Y94876D02*
X10518D01*
X10418Y94776D02*
Y94976D01*
X10818Y95876D02*
X11018D01*
X10918Y95776D02*
Y95976D01*
X10818Y109876D02*
X11018D01*
X10918Y109776D02*
Y109976D01*
X10318Y124876D02*
X10518D01*
X10418Y124776D02*
Y124976D01*
X10818Y129876D02*
X11018D01*
X10918Y129776D02*
Y129976D01*
X11818Y1876D02*
X12018D01*
X11918Y1776D02*
Y1976D01*
X11818Y5876D02*
X12018D01*
X11918Y5776D02*
Y5976D01*
X11318Y14876D02*
X11518D01*
X11418Y14776D02*
Y14976D01*
X11818Y15876D02*
X12018D01*
X11918Y15776D02*
Y15976D01*
X11318Y16876D02*
X11518D01*
X11418Y16776D02*
Y16976D01*
X11318Y18876D02*
X11518D01*
X11418Y18776D02*
Y18976D01*
X11818Y19876D02*
X12018D01*
X11918Y19776D02*
Y19976D01*
X11318Y20876D02*
X11518D01*
X11418Y20776D02*
Y20976D01*
X11818Y21876D02*
X12018D01*
X11918Y21776D02*
Y21976D01*
X11318Y22876D02*
X11518D01*
X11418Y22776D02*
Y22976D01*
X11818Y23876D02*
X12018D01*
X11918Y23776D02*
Y23976D01*
X11318Y24876D02*
X11518D01*
X11418Y24776D02*
Y24976D01*
X11818Y25876D02*
X12018D01*
X11918Y25776D02*
Y25976D01*
X11318Y26876D02*
X11518D01*
X11418Y26776D02*
Y26976D01*
X11818Y33876D02*
X12018D01*
X11918Y33776D02*
Y33976D01*
X11818Y87876D02*
X12018D01*
X11918Y87776D02*
Y87976D01*
X11318Y92876D02*
X11518D01*
X11418Y92776D02*
Y92976D01*
X11818Y93876D02*
X12018D01*
X11918Y93776D02*
Y93976D01*
X11318Y94876D02*
X11518D01*
X11418Y94776D02*
Y94976D01*
X11818Y95876D02*
X12018D01*
X11918Y95776D02*
Y95976D01*
X11818Y97876D02*
X12018D01*
X11918Y97776D02*
Y97976D01*
X11818Y99876D02*
X12018D01*
X11918Y99776D02*
Y99976D01*
X11318Y110876D02*
X11518D01*
X11418Y110776D02*
Y110976D01*
X12818Y1876D02*
X13018D01*
X12918Y1776D02*
Y1976D01*
X12318Y2876D02*
X12518D01*
X12418Y2776D02*
Y2976D01*
X12818Y5876D02*
X13018D01*
X12918Y5776D02*
Y5976D01*
X12818Y15876D02*
X13018D01*
X12918Y15776D02*
Y15976D01*
X12318Y16876D02*
X12518D01*
X12418Y16776D02*
Y16976D01*
X12318Y18876D02*
X12518D01*
X12418Y18776D02*
Y18976D01*
X12818Y19876D02*
X13018D01*
X12918Y19776D02*
Y19976D01*
X12818Y21876D02*
X13018D01*
X12918Y21776D02*
Y21976D01*
X12318Y22876D02*
X12518D01*
X12418Y22776D02*
Y22976D01*
X12818Y23876D02*
X13018D01*
X12918Y23776D02*
Y23976D01*
X12318Y24876D02*
X12518D01*
X12418Y24776D02*
Y24976D01*
X12818Y25876D02*
X13018D01*
X12918Y25776D02*
Y25976D01*
X12318Y26876D02*
X12518D01*
X12418Y26776D02*
Y26976D01*
X12318Y74876D02*
X12518D01*
X12418Y74776D02*
Y74976D01*
X12318Y92876D02*
X12518D01*
X12418Y92776D02*
Y92976D01*
X12818Y93876D02*
X13018D01*
X12918Y93776D02*
Y93976D01*
X12318Y94876D02*
X12518D01*
X12418Y94776D02*
Y94976D01*
X12818Y95876D02*
X13018D01*
X12918Y95776D02*
Y95976D01*
X12818Y97876D02*
X13018D01*
X12918Y97776D02*
Y97976D01*
X12818Y109876D02*
X13018D01*
X12918Y109776D02*
Y109976D01*
X12818Y111876D02*
X13018D01*
X12918Y111776D02*
Y111976D01*
X12318Y124876D02*
X12518D01*
X12418Y124776D02*
Y124976D01*
X13318Y876D02*
X13518D01*
X13418Y776D02*
Y976D01*
X13818Y1876D02*
X14018D01*
X13918Y1776D02*
Y1976D01*
X13318Y2876D02*
X13518D01*
X13418Y2776D02*
Y2976D01*
X13318Y6876D02*
X13518D01*
X13418Y6776D02*
Y6976D01*
X13318Y16876D02*
X13518D01*
X13418Y16776D02*
Y16976D01*
X13318Y18876D02*
X13518D01*
X13418Y18776D02*
Y18976D01*
X13818Y19876D02*
X14018D01*
X13918Y19776D02*
Y19976D01*
X13318Y20876D02*
X13518D01*
X13418Y20776D02*
Y20976D01*
X13818Y21876D02*
X14018D01*
X13918Y21776D02*
Y21976D01*
X13318Y22876D02*
X13518D01*
X13418Y22776D02*
Y22976D01*
X13818Y23876D02*
X14018D01*
X13918Y23776D02*
Y23976D01*
X13318Y24876D02*
X13518D01*
X13418Y24776D02*
Y24976D01*
X13818Y25876D02*
X14018D01*
X13918Y25776D02*
Y25976D01*
X13318Y26876D02*
X13518D01*
X13418Y26776D02*
Y26976D01*
X13818Y27876D02*
X14018D01*
X13918Y27776D02*
Y27976D01*
X13318Y30876D02*
X13518D01*
X13418Y30776D02*
Y30976D01*
X13318Y92876D02*
X13518D01*
X13418Y92776D02*
Y92976D01*
X13818Y93876D02*
X14018D01*
X13918Y93776D02*
Y93976D01*
X13318Y94876D02*
X13518D01*
X13418Y94776D02*
Y94976D01*
X13818Y95876D02*
X14018D01*
X13918Y95776D02*
Y95976D01*
X13818Y97876D02*
X14018D01*
X13918Y97776D02*
Y97976D01*
X13318Y104876D02*
X13518D01*
X13418Y104776D02*
Y104976D01*
X13818Y105876D02*
X14018D01*
X13918Y105776D02*
Y105976D01*
X13318Y106876D02*
X13518D01*
X13418Y106776D02*
Y106976D01*
X13318Y126876D02*
X13518D01*
X13418Y126776D02*
Y126976D01*
X14818Y1876D02*
X15018D01*
X14918Y1776D02*
Y1976D01*
X14818Y7876D02*
X15018D01*
X14918Y7776D02*
Y7976D01*
X14318Y18876D02*
X14518D01*
X14418Y18776D02*
Y18976D01*
X14818Y19876D02*
X15018D01*
X14918Y19776D02*
Y19976D01*
X14318Y20876D02*
X14518D01*
X14418Y20776D02*
Y20976D01*
X14818Y21876D02*
X15018D01*
X14918Y21776D02*
Y21976D01*
X14318Y22876D02*
X14518D01*
X14418Y22776D02*
Y22976D01*
X14318Y24876D02*
X14518D01*
X14418Y24776D02*
Y24976D01*
X14818Y25876D02*
X15018D01*
X14918Y25776D02*
Y25976D01*
X14318Y26876D02*
X14518D01*
X14418Y26776D02*
Y26976D01*
X14818Y27876D02*
X15018D01*
X14918Y27776D02*
Y27976D01*
X14818Y29876D02*
X15018D01*
X14918Y29776D02*
Y29976D01*
X14318Y30876D02*
X14518D01*
X14418Y30776D02*
Y30976D01*
X14818Y31876D02*
X15018D01*
X14918Y31776D02*
Y31976D01*
X14818Y87876D02*
X15018D01*
X14918Y87776D02*
Y87976D01*
X14818Y91876D02*
X15018D01*
X14918Y91776D02*
Y91976D01*
X14318Y106876D02*
X14518D01*
X14418Y106776D02*
Y106976D01*
X15318Y876D02*
X15518D01*
X15418Y776D02*
Y976D01*
X15318Y2876D02*
X15518D01*
X15418Y2776D02*
Y2976D01*
X15818Y3876D02*
X16018D01*
X15918Y3776D02*
Y3976D01*
X15818Y5876D02*
X16018D01*
X15918Y5776D02*
Y5976D01*
X15818Y7876D02*
X16018D01*
X15918Y7776D02*
Y7976D01*
X15318Y8876D02*
X15518D01*
X15418Y8776D02*
Y8976D01*
X15318Y32876D02*
X15518D01*
X15418Y32776D02*
Y32976D01*
X15318Y90876D02*
X15518D01*
X15418Y90776D02*
Y90976D01*
X16318Y4876D02*
X16518D01*
X16418Y4776D02*
Y4976D01*
X16318Y6876D02*
X16518D01*
X16418Y6776D02*
Y6976D01*
X16818Y7876D02*
X17018D01*
X16918Y7776D02*
Y7976D01*
X16318Y8876D02*
X16518D01*
X16418Y8776D02*
Y8976D01*
X16818Y9876D02*
X17018D01*
X16918Y9776D02*
Y9976D01*
X16318Y106876D02*
X16518D01*
X16418Y106776D02*
Y106976D01*
X17318Y4876D02*
X17518D01*
X17418Y4776D02*
Y4976D01*
X17318Y6876D02*
X17518D01*
X17418Y6776D02*
Y6976D01*
X17818Y7876D02*
X18018D01*
X17918Y7776D02*
Y7976D01*
X17318Y8876D02*
X17518D01*
X17418Y8776D02*
Y8976D01*
X17818Y9876D02*
X18018D01*
X17918Y9776D02*
Y9976D01*
X17318Y10876D02*
X17518D01*
X17418Y10776D02*
Y10976D01*
X18318Y6876D02*
X18518D01*
X18418Y6776D02*
Y6976D01*
X18818Y7876D02*
X19018D01*
X18918Y7776D02*
Y7976D01*
X18318Y8876D02*
X18518D01*
X18418Y8776D02*
Y8976D01*
X18818Y9876D02*
X19018D01*
X18918Y9776D02*
Y9976D01*
X18318Y10876D02*
X18518D01*
X18418Y10776D02*
Y10976D01*
X19318Y10876D02*
X19518D01*
X19418Y10776D02*
Y10976D01*
X21818Y15876D02*
X22018D01*
X21918Y15776D02*
Y15976D01*
X21818Y17876D02*
X22018D01*
X21918Y17776D02*
Y17976D01*
X21818Y19876D02*
X22018D01*
X21918Y19776D02*
Y19976D01*
X21818Y23876D02*
X22018D01*
X21918Y23776D02*
Y23976D01*
X21818Y25876D02*
X22018D01*
X21918Y25776D02*
Y25976D01*
X21818Y27876D02*
X22018D01*
X21918Y27776D02*
Y27976D01*
X21818Y29876D02*
X22018D01*
X21918Y29776D02*
Y29976D01*
X21818Y31876D02*
X22018D01*
X21918Y31776D02*
Y31976D01*
X21818Y33876D02*
X22018D01*
X21918Y33776D02*
Y33976D01*
X21818Y39876D02*
X22018D01*
X21918Y39776D02*
Y39976D01*
X22318Y16876D02*
X22518D01*
X22418Y16776D02*
Y16976D01*
X22318Y18876D02*
X22518D01*
X22418Y18776D02*
Y18976D01*
X22318Y20876D02*
X22518D01*
X22418Y20776D02*
Y20976D01*
X23818Y9876D02*
X24018D01*
X23918Y9776D02*
Y9976D01*
X23818Y31876D02*
X24018D01*
X23918Y31776D02*
Y31976D01*
X23818Y33876D02*
X24018D01*
X23918Y33776D02*
Y33976D01*
X24318Y8876D02*
X24518D01*
X24418Y8776D02*
Y8976D01*
X24318Y10876D02*
X24518D01*
X24418Y10776D02*
Y10976D01*
X24318Y14876D02*
X24518D01*
X24418Y14776D02*
Y14976D01*
X24818Y15876D02*
X25018D01*
X24918Y15776D02*
Y15976D01*
X24318Y16876D02*
X24518D01*
X24418Y16776D02*
Y16976D01*
X24818Y17876D02*
X25018D01*
X24918Y17776D02*
Y17976D01*
X24318Y18876D02*
X24518D01*
X24418Y18776D02*
Y18976D01*
X24818Y19876D02*
X25018D01*
X24918Y19776D02*
Y19976D01*
X24318Y20876D02*
X24518D01*
X24418Y20776D02*
Y20976D01*
X24818Y21876D02*
X25018D01*
X24918Y21776D02*
Y21976D01*
X24318Y22876D02*
X24518D01*
X24418Y22776D02*
Y22976D01*
X24818Y23876D02*
X25018D01*
X24918Y23776D02*
Y23976D01*
X24318Y24876D02*
X24518D01*
X24418Y24776D02*
Y24976D01*
X24818Y25876D02*
X25018D01*
X24918Y25776D02*
Y25976D01*
X24318Y26876D02*
X24518D01*
X24418Y26776D02*
Y26976D01*
X24818Y27876D02*
X25018D01*
X24918Y27776D02*
Y27976D01*
X24318Y28876D02*
X24518D01*
X24418Y28776D02*
Y28976D01*
X24818Y29876D02*
X25018D01*
X24918Y29776D02*
Y29976D01*
X24818Y31876D02*
X25018D01*
X24918Y31776D02*
Y31976D01*
X24318Y32876D02*
X24518D01*
X24418Y32776D02*
Y32976D01*
X24818Y33876D02*
X25018D01*
X24918Y33776D02*
Y33976D01*
X24318Y34876D02*
X24518D01*
X24418Y34776D02*
Y34976D01*
X24818Y35876D02*
X25018D01*
X24918Y35776D02*
Y35976D01*
X25818Y3876D02*
X26018D01*
X25918Y3776D02*
Y3976D01*
X25818Y15876D02*
X26018D01*
X25918Y15776D02*
Y15976D01*
X25318Y16876D02*
X25518D01*
X25418Y16776D02*
Y16976D01*
X25818Y17876D02*
X26018D01*
X25918Y17776D02*
Y17976D01*
X25318Y18876D02*
X25518D01*
X25418Y18776D02*
Y18976D01*
X25818Y19876D02*
X26018D01*
X25918Y19776D02*
Y19976D01*
X25318Y20876D02*
X25518D01*
X25418Y20776D02*
Y20976D01*
X25818Y21876D02*
X26018D01*
X25918Y21776D02*
Y21976D01*
X25318Y22876D02*
X25518D01*
X25418Y22776D02*
Y22976D01*
X25818Y23876D02*
X26018D01*
X25918Y23776D02*
Y23976D01*
X25318Y24876D02*
X25518D01*
X25418Y24776D02*
Y24976D01*
X25818Y25876D02*
X26018D01*
X25918Y25776D02*
Y25976D01*
X25318Y26876D02*
X25518D01*
X25418Y26776D02*
Y26976D01*
X25818Y27876D02*
X26018D01*
X25918Y27776D02*
Y27976D01*
X25318Y28876D02*
X25518D01*
X25418Y28776D02*
Y28976D01*
X25818Y29876D02*
X26018D01*
X25918Y29776D02*
Y29976D01*
X25818Y31876D02*
X26018D01*
X25918Y31776D02*
Y31976D01*
X25318Y32876D02*
X25518D01*
X25418Y32776D02*
Y32976D01*
X25818Y33876D02*
X26018D01*
X25918Y33776D02*
Y33976D01*
X25318Y34876D02*
X25518D01*
X25418Y34776D02*
Y34976D01*
X25318Y36876D02*
X25518D01*
X25418Y36776D02*
Y36976D01*
X25818Y39876D02*
X26018D01*
X25918Y39776D02*
Y39976D01*
X26818Y1876D02*
X27018D01*
X26918Y1776D02*
Y1976D01*
X26318Y2876D02*
X26518D01*
X26418Y2776D02*
Y2976D01*
X26818Y3876D02*
X27018D01*
X26918Y3776D02*
Y3976D01*
X26318Y4876D02*
X26518D01*
X26418Y4776D02*
Y4976D01*
X26818Y15876D02*
X27018D01*
X26918Y15776D02*
Y15976D01*
X26318Y16876D02*
X26518D01*
X26418Y16776D02*
Y16976D01*
X26818Y17876D02*
X27018D01*
X26918Y17776D02*
Y17976D01*
X26318Y18876D02*
X26518D01*
X26418Y18776D02*
Y18976D01*
X26318Y20876D02*
X26518D01*
X26418Y20776D02*
Y20976D01*
X26318Y22876D02*
X26518D01*
X26418Y22776D02*
Y22976D01*
X26318Y24876D02*
X26518D01*
X26418Y24776D02*
Y24976D01*
X26318Y26876D02*
X26518D01*
X26418Y26776D02*
Y26976D01*
X26318Y28876D02*
X26518D01*
X26418Y28776D02*
Y28976D01*
X26318Y32876D02*
X26518D01*
X26418Y32776D02*
Y32976D01*
X26318Y34876D02*
X26518D01*
X26418Y34776D02*
Y34976D01*
X26318Y36876D02*
X26518D01*
X26418Y36776D02*
Y36976D01*
X26818Y101876D02*
X27018D01*
X26918Y101776D02*
Y101976D01*
X26818Y103876D02*
X27018D01*
X26918Y103776D02*
Y103976D01*
X26818Y105876D02*
X27018D01*
X26918Y105776D02*
Y105976D01*
X27318Y876D02*
X27518D01*
X27418Y776D02*
Y976D01*
X27318Y4876D02*
X27518D01*
X27418Y4776D02*
Y4976D01*
X27318Y100876D02*
X27518D01*
X27418Y100776D02*
Y100976D01*
X27818Y101876D02*
X28018D01*
X27918Y101776D02*
Y101976D01*
X27318Y102876D02*
X27518D01*
X27418Y102776D02*
Y102976D01*
X27818Y103876D02*
X28018D01*
X27918Y103776D02*
Y103976D01*
X27318Y104876D02*
X27518D01*
X27418Y104776D02*
Y104976D01*
X27818Y105876D02*
X28018D01*
X27918Y105776D02*
Y105976D01*
X27318Y106876D02*
X27518D01*
X27418Y106776D02*
Y106976D01*
X28318Y100876D02*
X28518D01*
X28418Y100776D02*
Y100976D01*
X28818Y101876D02*
X29018D01*
X28918Y101776D02*
Y101976D01*
X28318Y102876D02*
X28518D01*
X28418Y102776D02*
Y102976D01*
X28818Y103876D02*
X29018D01*
X28918Y103776D02*
Y103976D01*
X28318Y104876D02*
X28518D01*
X28418Y104776D02*
Y104976D01*
X28818Y105876D02*
X29018D01*
X28918Y105776D02*
Y105976D01*
X28318Y106876D02*
X28518D01*
X28418Y106776D02*
Y106976D01*
X29318Y100876D02*
X29518D01*
X29418Y100776D02*
Y100976D01*
X29818Y101876D02*
X30018D01*
X29918Y101776D02*
Y101976D01*
X29318Y102876D02*
X29518D01*
X29418Y102776D02*
Y102976D01*
X29818Y103876D02*
X30018D01*
X29918Y103776D02*
Y103976D01*
X29318Y104876D02*
X29518D01*
X29418Y104776D02*
Y104976D01*
X29818Y105876D02*
X30018D01*
X29918Y105776D02*
Y105976D01*
X29318Y106876D02*
X29518D01*
X29418Y106776D02*
Y106976D01*
X30318Y100876D02*
X30518D01*
X30418Y100776D02*
Y100976D01*
X30818Y101876D02*
X31018D01*
X30918Y101776D02*
Y101976D01*
X30318Y102876D02*
X30518D01*
X30418Y102776D02*
Y102976D01*
X30818Y103876D02*
X31018D01*
X30918Y103776D02*
Y103976D01*
X30318Y104876D02*
X30518D01*
X30418Y104776D02*
Y104976D01*
X30818Y105876D02*
X31018D01*
X30918Y105776D02*
Y105976D01*
X30318Y106876D02*
X30518D01*
X30418Y106776D02*
Y106976D01*
X31318Y102876D02*
X31518D01*
X31418Y102776D02*
Y102976D01*
X31318Y106876D02*
X31518D01*
X31418Y106776D02*
Y106976D01*
X34818Y107876D02*
X35018D01*
X34918Y107776D02*
Y107976D01*
X35318Y106876D02*
X35518D01*
X35418Y106776D02*
Y106976D01*
X35318Y130876D02*
X35518D01*
X35418Y130776D02*
Y130976D01*
X35818Y131876D02*
X36018D01*
X35918Y131776D02*
Y131976D01*
X37818Y95876D02*
X38018D01*
X37918Y95776D02*
Y95976D01*
X37818Y107876D02*
X38018D01*
X37918Y107776D02*
Y107976D01*
X37818Y131876D02*
X38018D01*
X37918Y131776D02*
Y131976D01*
X42818Y107876D02*
X43018D01*
X42918Y107776D02*
Y107976D01*
X43818Y131876D02*
X44018D01*
X43918Y131776D02*
Y131976D01*
X44318Y106876D02*
X44518D01*
X44418Y106776D02*
Y106976D01*
X44818Y107876D02*
X45018D01*
X44918Y107776D02*
Y107976D01*
X45818Y105876D02*
X46018D01*
X45918Y105776D02*
Y105976D01*
X45318Y106876D02*
X45518D01*
X45418Y106776D02*
Y106976D01*
X45818Y107876D02*
X46018D01*
X45918Y107776D02*
Y107976D01*
X45818Y109876D02*
X46018D01*
X45918Y109776D02*
Y109976D01*
X46318Y106876D02*
X46518D01*
X46418Y106776D02*
Y106976D01*
X48318Y100876D02*
X48518D01*
X48418Y100776D02*
Y100976D01*
X48818Y103876D02*
X49018D01*
X48918Y103776D02*
Y103976D01*
X48318Y104876D02*
X48518D01*
X48418Y104776D02*
Y104976D01*
X48818Y105876D02*
X49018D01*
X48918Y105776D02*
Y105976D01*
X48318Y106876D02*
X48518D01*
X48418Y106776D02*
Y106976D01*
X48818Y109876D02*
X49018D01*
X48918Y109776D02*
Y109976D01*
X49318Y22876D02*
X49518D01*
X49418Y22776D02*
Y22976D01*
X49318Y100876D02*
X49518D01*
X49418Y100776D02*
Y100976D01*
X49818Y103876D02*
X50018D01*
X49918Y103776D02*
Y103976D01*
X49318Y104876D02*
X49518D01*
X49418Y104776D02*
Y104976D01*
X49818Y105876D02*
X50018D01*
X49918Y105776D02*
Y105976D01*
X49318Y106876D02*
X49518D01*
X49418Y106776D02*
Y106976D01*
X49318Y108876D02*
X49518D01*
X49418Y108776D02*
Y108976D01*
X49818Y109876D02*
X50018D01*
X49918Y109776D02*
Y109976D01*
X50818Y21876D02*
X51018D01*
X50918Y21776D02*
Y21976D01*
X50818Y23876D02*
X51018D01*
X50918Y23776D02*
Y23976D01*
X50818Y25876D02*
X51018D01*
X50918Y25776D02*
Y25976D01*
X50818Y27876D02*
X51018D01*
X50918Y27776D02*
Y27976D01*
X50818Y29876D02*
X51018D01*
X50918Y29776D02*
Y29976D01*
X50818Y101876D02*
X51018D01*
X50918Y101776D02*
Y101976D01*
X50818Y103876D02*
X51018D01*
X50918Y103776D02*
Y103976D01*
X50318Y104876D02*
X50518D01*
X50418Y104776D02*
Y104976D01*
X50818Y105876D02*
X51018D01*
X50918Y105776D02*
Y105976D01*
X50318Y106876D02*
X50518D01*
X50418Y106776D02*
Y106976D01*
X50818Y109876D02*
X51018D01*
X50918Y109776D02*
Y109976D01*
X51318Y20876D02*
X51518D01*
X51418Y20776D02*
Y20976D01*
X51318Y100876D02*
X51518D01*
X51418Y100776D02*
Y100976D01*
X51318Y104876D02*
X51518D01*
X51418Y104776D02*
Y104976D01*
X51318Y106876D02*
X51518D01*
X51418Y106776D02*
Y106976D01*
X51818Y109876D02*
X52018D01*
X51918Y109776D02*
Y109976D01*
X52318Y20876D02*
X52518D01*
X52418Y20776D02*
Y20976D01*
X52318Y22876D02*
X52518D01*
X52418Y22776D02*
Y22976D01*
X52318Y24876D02*
X52518D01*
X52418Y24776D02*
Y24976D01*
X52818Y25876D02*
X53018D01*
X52918Y25776D02*
Y25976D01*
X52818Y109876D02*
X53018D01*
X52918Y109776D02*
Y109976D01*
X53318Y20876D02*
X53518D01*
X53418Y20776D02*
Y20976D01*
X53318Y22876D02*
X53518D01*
X53418Y22776D02*
Y22976D01*
X53818Y23876D02*
X54018D01*
X53918Y23776D02*
Y23976D01*
X53318Y24876D02*
X53518D01*
X53418Y24776D02*
Y24976D01*
X53818Y25876D02*
X54018D01*
X53918Y25776D02*
Y25976D01*
X53318Y32876D02*
X53518D01*
X53418Y32776D02*
Y32976D01*
X53818Y97876D02*
X54018D01*
X53918Y97776D02*
Y97976D01*
X53818Y101876D02*
X54018D01*
X53918Y101776D02*
Y101976D01*
X53818Y103876D02*
X54018D01*
X53918Y103776D02*
Y103976D01*
X53818Y105876D02*
X54018D01*
X53918Y105776D02*
Y105976D01*
X53818Y131876D02*
X54018D01*
X53918Y131776D02*
Y131976D01*
X54318Y20876D02*
X54518D01*
X54418Y20776D02*
Y20976D01*
X54318Y22876D02*
X54518D01*
X54418Y22776D02*
Y22976D01*
X54818Y23876D02*
X55018D01*
X54918Y23776D02*
Y23976D01*
X54318Y24876D02*
X54518D01*
X54418Y24776D02*
Y24976D01*
X54818Y25876D02*
X55018D01*
X54918Y25776D02*
Y25976D01*
X54818Y27876D02*
X55018D01*
X54918Y27776D02*
Y27976D01*
X54818Y29876D02*
X55018D01*
X54918Y29776D02*
Y29976D01*
X54318Y32876D02*
X54518D01*
X54418Y32776D02*
Y32976D01*
X54318Y96876D02*
X54518D01*
X54418Y96776D02*
Y96976D01*
X54318Y100876D02*
X54518D01*
X54418Y100776D02*
Y100976D01*
X54818Y103876D02*
X55018D01*
X54918Y103776D02*
Y103976D01*
X54318Y104876D02*
X54518D01*
X54418Y104776D02*
Y104976D01*
X54818Y105876D02*
X55018D01*
X54918Y105776D02*
Y105976D01*
X54318Y106876D02*
X54518D01*
X54418Y106776D02*
Y106976D01*
X54818Y109876D02*
X55018D01*
X54918Y109776D02*
Y109976D01*
X54818Y131876D02*
X55018D01*
X54918Y131776D02*
Y131976D01*
X55318Y20876D02*
X55518D01*
X55418Y20776D02*
Y20976D01*
X55318Y22876D02*
X55518D01*
X55418Y22776D02*
Y22976D01*
X55818Y23876D02*
X56018D01*
X55918Y23776D02*
Y23976D01*
X55318Y24876D02*
X55518D01*
X55418Y24776D02*
Y24976D01*
X55818Y25876D02*
X56018D01*
X55918Y25776D02*
Y25976D01*
X55818Y27876D02*
X56018D01*
X55918Y27776D02*
Y27976D01*
X55318Y28876D02*
X55518D01*
X55418Y28776D02*
Y28976D01*
X55818Y29876D02*
X56018D01*
X55918Y29776D02*
Y29976D01*
X55318Y30876D02*
X55518D01*
X55418Y30776D02*
Y30976D01*
X55318Y102876D02*
X55518D01*
X55418Y102776D02*
Y102976D01*
X55818Y103876D02*
X56018D01*
X55918Y103776D02*
Y103976D01*
X55318Y104876D02*
X55518D01*
X55418Y104776D02*
Y104976D01*
X55818Y105876D02*
X56018D01*
X55918Y105776D02*
Y105976D01*
X55318Y106876D02*
X55518D01*
X55418Y106776D02*
Y106976D01*
X56818Y1876D02*
X57018D01*
X56918Y1776D02*
Y1976D01*
X56818Y5876D02*
X57018D01*
X56918Y5776D02*
Y5976D01*
X56818Y9876D02*
X57018D01*
X56918Y9776D02*
Y9976D01*
X56818Y11876D02*
X57018D01*
X56918Y11776D02*
Y11976D01*
X56818Y15876D02*
X57018D01*
X56918Y15776D02*
Y15976D01*
X56818Y17876D02*
X57018D01*
X56918Y17776D02*
Y17976D01*
X56818Y19876D02*
X57018D01*
X56918Y19776D02*
Y19976D01*
X56318Y20876D02*
X56518D01*
X56418Y20776D02*
Y20976D01*
X56318Y22876D02*
X56518D01*
X56418Y22776D02*
Y22976D01*
X56818Y23876D02*
X57018D01*
X56918Y23776D02*
Y23976D01*
X56318Y24876D02*
X56518D01*
X56418Y24776D02*
Y24976D01*
X56818Y25876D02*
X57018D01*
X56918Y25776D02*
Y25976D01*
X56318Y30876D02*
X56518D01*
X56418Y30776D02*
Y30976D01*
X56818Y103876D02*
X57018D01*
X56918Y103776D02*
Y103976D01*
X56818Y105876D02*
X57018D01*
X56918Y105776D02*
Y105976D01*
X57818Y1876D02*
X58018D01*
X57918Y1776D02*
Y1976D01*
X57318Y6876D02*
X57518D01*
X57418Y6776D02*
Y6976D01*
X57818Y9876D02*
X58018D01*
X57918Y9776D02*
Y9976D01*
X57318Y10876D02*
X57518D01*
X57418Y10776D02*
Y10976D01*
X57818Y11876D02*
X58018D01*
X57918Y11776D02*
Y11976D01*
X57318Y12876D02*
X57518D01*
X57418Y12776D02*
Y12976D01*
X57818Y13876D02*
X58018D01*
X57918Y13776D02*
Y13976D01*
X57318Y14876D02*
X57518D01*
X57418Y14776D02*
Y14976D01*
X57818Y15876D02*
X58018D01*
X57918Y15776D02*
Y15976D01*
X57318Y16876D02*
X57518D01*
X57418Y16776D02*
Y16976D01*
X57818Y17876D02*
X58018D01*
X57918Y17776D02*
Y17976D01*
X57318Y18876D02*
X57518D01*
X57418Y18776D02*
Y18976D01*
X57818Y19876D02*
X58018D01*
X57918Y19776D02*
Y19976D01*
X57318Y20876D02*
X57518D01*
X57418Y20776D02*
Y20976D01*
X57318Y22876D02*
X57518D01*
X57418Y22776D02*
Y22976D01*
X57818Y23876D02*
X58018D01*
X57918Y23776D02*
Y23976D01*
X57318Y24876D02*
X57518D01*
X57418Y24776D02*
Y24976D01*
X57818Y25876D02*
X58018D01*
X57918Y25776D02*
Y25976D01*
X57318Y102876D02*
X57518D01*
X57418Y102776D02*
Y102976D01*
X57818Y105876D02*
X58018D01*
X57918Y105776D02*
Y105976D01*
X57318Y106876D02*
X57518D01*
X57418Y106776D02*
Y106976D01*
X57318Y110876D02*
X57518D01*
X57418Y110776D02*
Y110976D01*
X58818Y1876D02*
X59018D01*
X58918Y1776D02*
Y1976D01*
X58818Y5876D02*
X59018D01*
X58918Y5776D02*
Y5976D01*
X58318Y6876D02*
X58518D01*
X58418Y6776D02*
Y6976D01*
X58818Y9876D02*
X59018D01*
X58918Y9776D02*
Y9976D01*
X58318Y10876D02*
X58518D01*
X58418Y10776D02*
Y10976D01*
X58818Y11876D02*
X59018D01*
X58918Y11776D02*
Y11976D01*
X58318Y12876D02*
X58518D01*
X58418Y12776D02*
Y12976D01*
X58818Y13876D02*
X59018D01*
X58918Y13776D02*
Y13976D01*
X58318Y14876D02*
X58518D01*
X58418Y14776D02*
Y14976D01*
X58818Y15876D02*
X59018D01*
X58918Y15776D02*
Y15976D01*
X58318Y16876D02*
X58518D01*
X58418Y16776D02*
Y16976D01*
X58318Y18876D02*
X58518D01*
X58418Y18776D02*
Y18976D01*
X58818Y19876D02*
X59018D01*
X58918Y19776D02*
Y19976D01*
X58318Y20876D02*
X58518D01*
X58418Y20776D02*
Y20976D01*
X58318Y24876D02*
X58518D01*
X58418Y24776D02*
Y24976D01*
X58818Y25876D02*
X59018D01*
X58918Y25776D02*
Y25976D01*
X58318Y106876D02*
X58518D01*
X58418Y106776D02*
Y106976D01*
X58818Y111876D02*
X59018D01*
X58918Y111776D02*
Y111976D01*
X59818Y1876D02*
X60018D01*
X59918Y1776D02*
Y1976D01*
X59318Y2876D02*
X59518D01*
X59418Y2776D02*
Y2976D01*
X59818Y3876D02*
X60018D01*
X59918Y3776D02*
Y3976D01*
X59318Y4876D02*
X59518D01*
X59418Y4776D02*
Y4976D01*
X59818Y5876D02*
X60018D01*
X59918Y5776D02*
Y5976D01*
X59318Y6876D02*
X59518D01*
X59418Y6776D02*
Y6976D01*
X59818Y7876D02*
X60018D01*
X59918Y7776D02*
Y7976D01*
X59818Y9876D02*
X60018D01*
X59918Y9776D02*
Y9976D01*
X59318Y10876D02*
X59518D01*
X59418Y10776D02*
Y10976D01*
X59318Y12876D02*
X59518D01*
X59418Y12776D02*
Y12976D01*
X59318Y14876D02*
X59518D01*
X59418Y14776D02*
Y14976D01*
X59318Y20876D02*
X59518D01*
X59418Y20776D02*
Y20976D01*
X59318Y22876D02*
X59518D01*
X59418Y22776D02*
Y22976D01*
X59818Y23876D02*
X60018D01*
X59918Y23776D02*
Y23976D01*
X59318Y24876D02*
X59518D01*
X59418Y24776D02*
Y24976D01*
X59818Y25876D02*
X60018D01*
X59918Y25776D02*
Y25976D01*
X59818Y27876D02*
X60018D01*
X59918Y27776D02*
Y27976D01*
X59318Y106876D02*
X59518D01*
X59418Y106776D02*
Y106976D01*
X59818Y111876D02*
X60018D01*
X59918Y111776D02*
Y111976D01*
X60818Y1876D02*
X61018D01*
X60918Y1776D02*
Y1976D01*
X60318Y2876D02*
X60518D01*
X60418Y2776D02*
Y2976D01*
X60818Y3876D02*
X61018D01*
X60918Y3776D02*
Y3976D01*
X60318Y4876D02*
X60518D01*
X60418Y4776D02*
Y4976D01*
X60818Y5876D02*
X61018D01*
X60918Y5776D02*
Y5976D01*
X60318Y6876D02*
X60518D01*
X60418Y6776D02*
Y6976D01*
X60818Y7876D02*
X61018D01*
X60918Y7776D02*
Y7976D01*
X60818Y35876D02*
X61018D01*
X60918Y35776D02*
Y35976D01*
X60318Y74876D02*
X60518D01*
X60418Y74776D02*
Y74976D01*
X60318Y82876D02*
X60518D01*
X60418Y82776D02*
Y82976D01*
X60318Y84876D02*
X60518D01*
X60418Y84776D02*
Y84976D01*
X60818Y89876D02*
X61018D01*
X60918Y89776D02*
Y89976D01*
X60318Y90876D02*
X60518D01*
X60418Y90776D02*
Y90976D01*
X60818Y93876D02*
X61018D01*
X60918Y93776D02*
Y93976D01*
X60318Y94876D02*
X60518D01*
X60418Y94776D02*
Y94976D01*
X60318Y98876D02*
X60518D01*
X60418Y98776D02*
Y98976D01*
X60818Y99876D02*
X61018D01*
X60918Y99776D02*
Y99976D01*
X60818Y105876D02*
X61018D01*
X60918Y105776D02*
Y105976D01*
X61318Y876D02*
X61518D01*
X61418Y776D02*
Y976D01*
X61818Y1876D02*
X62018D01*
X61918Y1776D02*
Y1976D01*
X61318Y2876D02*
X61518D01*
X61418Y2776D02*
Y2976D01*
X61818Y3876D02*
X62018D01*
X61918Y3776D02*
Y3976D01*
X61318Y4876D02*
X61518D01*
X61418Y4776D02*
Y4976D01*
X61818Y5876D02*
X62018D01*
X61918Y5776D02*
Y5976D01*
X61318Y6876D02*
X61518D01*
X61418Y6776D02*
Y6976D01*
X61818Y7876D02*
X62018D01*
X61918Y7776D02*
Y7976D01*
X61818Y9876D02*
X62018D01*
X61918Y9776D02*
Y9976D01*
X61818Y11876D02*
X62018D01*
X61918Y11776D02*
Y11976D01*
X61318Y12876D02*
X61518D01*
X61418Y12776D02*
Y12976D01*
X61818Y13876D02*
X62018D01*
X61918Y13776D02*
Y13976D01*
X61318Y14876D02*
X61518D01*
X61418Y14776D02*
Y14976D01*
X61818Y19876D02*
X62018D01*
X61918Y19776D02*
Y19976D01*
X61818Y21876D02*
X62018D01*
X61918Y21776D02*
Y21976D01*
X61318Y22876D02*
X61518D01*
X61418Y22776D02*
Y22976D01*
X61818Y23876D02*
X62018D01*
X61918Y23776D02*
Y23976D01*
X61318Y24876D02*
X61518D01*
X61418Y24776D02*
Y24976D01*
X61818Y25876D02*
X62018D01*
X61918Y25776D02*
Y25976D01*
X61818Y29876D02*
X62018D01*
X61918Y29776D02*
Y29976D01*
X61318Y30876D02*
X61518D01*
X61418Y30776D02*
Y30976D01*
X61818Y33876D02*
X62018D01*
X61918Y33776D02*
Y33976D01*
X61318Y34876D02*
X61518D01*
X61418Y34776D02*
Y34976D01*
X61818Y35876D02*
X62018D01*
X61918Y35776D02*
Y35976D01*
X61318Y90876D02*
X61518D01*
X61418Y90776D02*
Y90976D01*
X61818Y93876D02*
X62018D01*
X61918Y93776D02*
Y93976D01*
X61318Y94876D02*
X61518D01*
X61418Y94776D02*
Y94976D01*
X61318Y96876D02*
X61518D01*
X61418Y96776D02*
Y96976D01*
X61818Y97876D02*
X62018D01*
X61918Y97776D02*
Y97976D01*
X61318Y98876D02*
X61518D01*
X61418Y98776D02*
Y98976D01*
X61318Y102876D02*
X61518D01*
X61418Y102776D02*
Y102976D01*
X61318Y104876D02*
X61518D01*
X61418Y104776D02*
Y104976D01*
X61818Y105876D02*
X62018D01*
X61918Y105776D02*
Y105976D01*
X62818Y1876D02*
X63018D01*
X62918Y1776D02*
Y1976D01*
X62318Y2876D02*
X62518D01*
X62418Y2776D02*
Y2976D01*
X62818Y3876D02*
X63018D01*
X62918Y3776D02*
Y3976D01*
X62318Y4876D02*
X62518D01*
X62418Y4776D02*
Y4976D01*
X62818Y5876D02*
X63018D01*
X62918Y5776D02*
Y5976D01*
X62318Y6876D02*
X62518D01*
X62418Y6776D02*
Y6976D01*
X62818Y7876D02*
X63018D01*
X62918Y7776D02*
Y7976D01*
X62818Y9876D02*
X63018D01*
X62918Y9776D02*
Y9976D01*
X62318Y10876D02*
X62518D01*
X62418Y10776D02*
Y10976D01*
X62318Y12876D02*
X62518D01*
X62418Y12776D02*
Y12976D01*
X62318Y14876D02*
X62518D01*
X62418Y14776D02*
Y14976D01*
X62318Y18876D02*
X62518D01*
X62418Y18776D02*
Y18976D01*
X62818Y19876D02*
X63018D01*
X62918Y19776D02*
Y19976D01*
X62318Y20876D02*
X62518D01*
X62418Y20776D02*
Y20976D01*
X62318Y22876D02*
X62518D01*
X62418Y22776D02*
Y22976D01*
X62318Y24876D02*
X62518D01*
X62418Y24776D02*
Y24976D01*
X62318Y30876D02*
X62518D01*
X62418Y30776D02*
Y30976D01*
X62318Y32876D02*
X62518D01*
X62418Y32776D02*
Y32976D01*
X62318Y34876D02*
X62518D01*
X62418Y34776D02*
Y34976D01*
X62318Y38876D02*
X62518D01*
X62418Y38776D02*
Y38976D01*
X62318Y40876D02*
X62518D01*
X62418Y40776D02*
Y40976D01*
X62818Y93876D02*
X63018D01*
X62918Y93776D02*
Y93976D01*
X62318Y94876D02*
X62518D01*
X62418Y94776D02*
Y94976D01*
X62818Y97876D02*
X63018D01*
X62918Y97776D02*
Y97976D01*
X62318Y100876D02*
X62518D01*
X62418Y100776D02*
Y100976D01*
X62318Y102876D02*
X62518D01*
X62418Y102776D02*
Y102976D01*
X62818Y103876D02*
X63018D01*
X62918Y103776D02*
Y103976D01*
X62318Y104876D02*
X62518D01*
X62418Y104776D02*
Y104976D01*
X62818Y105876D02*
X63018D01*
X62918Y105776D02*
Y105976D01*
X62818Y131876D02*
X63018D01*
X62918Y131776D02*
Y131976D01*
X63318Y876D02*
X63518D01*
X63418Y776D02*
Y976D01*
X63318Y2876D02*
X63518D01*
X63418Y2776D02*
Y2976D01*
X63818Y3876D02*
X64018D01*
X63918Y3776D02*
Y3976D01*
X63318Y4876D02*
X63518D01*
X63418Y4776D02*
Y4976D01*
X63818Y5876D02*
X64018D01*
X63918Y5776D02*
Y5976D01*
X63318Y6876D02*
X63518D01*
X63418Y6776D02*
Y6976D01*
X63818Y7876D02*
X64018D01*
X63918Y7776D02*
Y7976D01*
X63818Y9876D02*
X64018D01*
X63918Y9776D02*
Y9976D01*
X63318Y10876D02*
X63518D01*
X63418Y10776D02*
Y10976D01*
X63318Y18876D02*
X63518D01*
X63418Y18776D02*
Y18976D01*
X63318Y102876D02*
X63518D01*
X63418Y102776D02*
Y102976D01*
X63818Y103876D02*
X64018D01*
X63918Y103776D02*
Y103976D01*
X63318Y104876D02*
X63518D01*
X63418Y104776D02*
Y104976D01*
X63818Y105876D02*
X64018D01*
X63918Y105776D02*
Y105976D01*
X63818Y131876D02*
X64018D01*
X63918Y131776D02*
Y131976D01*
X64318Y4876D02*
X64518D01*
X64418Y4776D02*
Y4976D01*
X64818Y5876D02*
X65018D01*
X64918Y5776D02*
Y5976D01*
X64318Y6876D02*
X64518D01*
X64418Y6776D02*
Y6976D01*
X64818Y7876D02*
X65018D01*
X64918Y7776D02*
Y7976D01*
X64818Y9876D02*
X65018D01*
X64918Y9776D02*
Y9976D01*
X64318Y10876D02*
X64518D01*
X64418Y10776D02*
Y10976D01*
X64818Y97876D02*
X65018D01*
X64918Y97776D02*
Y97976D01*
X64318Y102876D02*
X64518D01*
X64418Y102776D02*
Y102976D01*
X64818Y103876D02*
X65018D01*
X64918Y103776D02*
Y103976D01*
X64318Y104876D02*
X64518D01*
X64418Y104776D02*
Y104976D01*
X64818Y105876D02*
X65018D01*
X64918Y105776D02*
Y105976D01*
X64818Y125876D02*
X65018D01*
X64918Y125776D02*
Y125976D01*
X64318Y126876D02*
X64518D01*
X64418Y126776D02*
Y126976D01*
X64818Y127876D02*
X65018D01*
X64918Y127776D02*
Y127976D01*
X64318Y128876D02*
X64518D01*
X64418Y128776D02*
Y128976D01*
X64818Y129876D02*
X65018D01*
X64918Y129776D02*
Y129976D01*
X64818Y131876D02*
X65018D01*
X64918Y131776D02*
Y131976D01*
X65318Y4876D02*
X65518D01*
X65418Y4776D02*
Y4976D01*
X65818Y5876D02*
X66018D01*
X65918Y5776D02*
Y5976D01*
X65318Y6876D02*
X65518D01*
X65418Y6776D02*
Y6976D01*
X65818Y9876D02*
X66018D01*
X65918Y9776D02*
Y9976D01*
X65318Y10876D02*
X65518D01*
X65418Y10776D02*
Y10976D01*
X65818Y13876D02*
X66018D01*
X65918Y13776D02*
Y13976D01*
X65318Y46876D02*
X65518D01*
X65418Y46776D02*
Y46976D01*
X65318Y48876D02*
X65518D01*
X65418Y48776D02*
Y48976D01*
X65818Y97876D02*
X66018D01*
X65918Y97776D02*
Y97976D01*
X65318Y102876D02*
X65518D01*
X65418Y102776D02*
Y102976D01*
X65318Y104876D02*
X65518D01*
X65418Y104776D02*
Y104976D01*
X65318Y124876D02*
X65518D01*
X65418Y124776D02*
Y124976D01*
X65818Y131876D02*
X66018D01*
X65918Y131776D02*
Y131976D01*
X66818Y1876D02*
X67018D01*
X66918Y1776D02*
Y1976D01*
X66318Y6876D02*
X66518D01*
X66418Y6776D02*
Y6976D01*
X66818Y9876D02*
X67018D01*
X66918Y9776D02*
Y9976D01*
X66318Y10876D02*
X66518D01*
X66418Y10776D02*
Y10976D01*
X66318Y74876D02*
X66518D01*
X66418Y74776D02*
Y74976D01*
X66318Y102876D02*
X66518D01*
X66418Y102776D02*
Y102976D01*
X66318Y124876D02*
X66518D01*
X66418Y124776D02*
Y124976D01*
X66818Y131876D02*
X67018D01*
X66918Y131776D02*
Y131976D01*
X67818Y1876D02*
X68018D01*
X67918Y1776D02*
Y1976D01*
X67818Y5876D02*
X68018D01*
X67918Y5776D02*
Y5976D01*
X67318Y6876D02*
X67518D01*
X67418Y6776D02*
Y6976D01*
X67818Y9876D02*
X68018D01*
X67918Y9776D02*
Y9976D01*
X67318Y10876D02*
X67518D01*
X67418Y10776D02*
Y10976D01*
X67818Y13876D02*
X68018D01*
X67918Y13776D02*
Y13976D01*
X67818Y15876D02*
X68018D01*
X67918Y15776D02*
Y15976D01*
X67318Y18876D02*
X67518D01*
X67418Y18776D02*
Y18976D01*
X67818Y21876D02*
X68018D01*
X67918Y21776D02*
Y21976D01*
X67818Y29876D02*
X68018D01*
X67918Y29776D02*
Y29976D01*
X67818Y33876D02*
X68018D01*
X67918Y33776D02*
Y33976D01*
X67318Y36876D02*
X67518D01*
X67418Y36776D02*
Y36976D01*
X67818Y39876D02*
X68018D01*
X67918Y39776D02*
Y39976D01*
X67318Y74876D02*
X67518D01*
X67418Y74776D02*
Y74976D01*
X67318Y102876D02*
X67518D01*
X67418Y102776D02*
Y102976D01*
X67318Y122876D02*
X67518D01*
X67418Y122776D02*
Y122976D01*
X67818Y123876D02*
X68018D01*
X67918Y123776D02*
Y123976D01*
X67318Y124876D02*
X67518D01*
X67418Y124776D02*
Y124976D01*
X67818Y125876D02*
X68018D01*
X67918Y125776D02*
Y125976D01*
X67818Y127876D02*
X68018D01*
X67918Y127776D02*
Y127976D01*
X67818Y131876D02*
X68018D01*
X67918Y131776D02*
Y131976D01*
X68318Y876D02*
X68518D01*
X68418Y776D02*
Y976D01*
X68318Y6876D02*
X68518D01*
X68418Y6776D02*
Y6976D01*
X68818Y7876D02*
X69018D01*
X68918Y7776D02*
Y7976D01*
X68818Y9876D02*
X69018D01*
X68918Y9776D02*
Y9976D01*
X68318Y10876D02*
X68518D01*
X68418Y10776D02*
Y10976D01*
X68818Y11876D02*
X69018D01*
X68918Y11776D02*
Y11976D01*
X68318Y12876D02*
X68518D01*
X68418Y12776D02*
Y12976D01*
X68318Y14876D02*
X68518D01*
X68418Y14776D02*
Y14976D01*
X68318Y16876D02*
X68518D01*
X68418Y16776D02*
Y16976D01*
X68318Y18876D02*
X68518D01*
X68418Y18776D02*
Y18976D01*
X68318Y20876D02*
X68518D01*
X68418Y20776D02*
Y20976D01*
X68818Y21876D02*
X69018D01*
X68918Y21776D02*
Y21976D01*
X68318Y22876D02*
X68518D01*
X68418Y22776D02*
Y22976D01*
X68818Y23876D02*
X69018D01*
X68918Y23776D02*
Y23976D01*
X68818Y25876D02*
X69018D01*
X68918Y25776D02*
Y25976D01*
X68318Y28876D02*
X68518D01*
X68418Y28776D02*
Y28976D01*
X68318Y30876D02*
X68518D01*
X68418Y30776D02*
Y30976D01*
X68318Y32876D02*
X68518D01*
X68418Y32776D02*
Y32976D01*
X68318Y34876D02*
X68518D01*
X68418Y34776D02*
Y34976D01*
X68318Y36876D02*
X68518D01*
X68418Y36776D02*
Y36976D01*
X68318Y38876D02*
X68518D01*
X68418Y38776D02*
Y38976D01*
X68318Y40876D02*
X68518D01*
X68418Y40776D02*
Y40976D01*
X68318Y88876D02*
X68518D01*
X68418Y88776D02*
Y88976D01*
X68818Y89876D02*
X69018D01*
X68918Y89776D02*
Y89976D01*
X68318Y90876D02*
X68518D01*
X68418Y90776D02*
Y90976D01*
X68818Y91876D02*
X69018D01*
X68918Y91776D02*
Y91976D01*
X68318Y92876D02*
X68518D01*
X68418Y92776D02*
Y92976D01*
X68818Y117876D02*
X69018D01*
X68918Y117776D02*
Y117976D01*
X68318Y118876D02*
X68518D01*
X68418Y118776D02*
Y118976D01*
X68818Y119876D02*
X69018D01*
X68918Y119776D02*
Y119976D01*
X68318Y120876D02*
X68518D01*
X68418Y120776D02*
Y120976D01*
X68318Y122876D02*
X68518D01*
X68418Y122776D02*
Y122976D01*
X68318Y124876D02*
X68518D01*
X68418Y124776D02*
Y124976D01*
X68318Y126876D02*
X68518D01*
X68418Y126776D02*
Y126976D01*
X68318Y128876D02*
X68518D01*
X68418Y128776D02*
Y128976D01*
X68818Y129876D02*
X69018D01*
X68918Y129776D02*
Y129976D01*
X68318Y130876D02*
X68518D01*
X68418Y130776D02*
Y130976D01*
X68818Y131876D02*
X69018D01*
X68918Y131776D02*
Y131976D01*
X21650Y42600D02*
X21850D01*
X21750Y42500D02*
Y42700D01*
X19575Y47875D02*
X19775D01*
X19675Y47775D02*
Y47975D01*
X19575Y45175D02*
X19775D01*
X19675Y45075D02*
Y45275D01*
X19550Y43675D02*
X19750D01*
X19650Y43575D02*
Y43775D01*
X19550Y42625D02*
X19750D01*
X19650Y42525D02*
Y42725D01*
X19525Y41300D02*
X19725D01*
X19625Y41200D02*
Y41400D01*
X19550Y39800D02*
X19750D01*
X19650Y39700D02*
Y39900D01*
X15175Y66325D02*
X15375D01*
X15275Y66225D02*
Y66425D01*
X15225Y69550D02*
X15425D01*
X15325Y69450D02*
Y69650D01*
X17400Y68450D02*
X17600D01*
X17500Y68350D02*
Y68550D01*
X19450Y24350D02*
X19650D01*
X19550Y24250D02*
Y24450D01*
X19475Y21175D02*
X19675D01*
X19575Y21075D02*
Y21275D01*
X17525Y24200D02*
X17725D01*
X17625Y24100D02*
Y24300D01*
X19500Y17825D02*
X19700D01*
X19600Y17725D02*
Y17925D01*
X19525Y14450D02*
X19725D01*
X19625Y14350D02*
Y14550D01*
X29850Y21525D02*
X30050D01*
X29950Y21425D02*
Y21625D01*
X33725Y21500D02*
X33925D01*
X33825Y21400D02*
Y21600D01*
X29775Y25725D02*
X29975D01*
X29875Y25625D02*
Y25825D01*
X29300Y39250D02*
X29500D01*
X29400Y39150D02*
Y39350D01*
X28025Y40850D02*
X28225D01*
X28125Y40750D02*
Y40950D01*
X42750Y43075D02*
X42950D01*
X42850Y42975D02*
Y43175D01*
X8075Y43000D02*
X8275D01*
X8175Y42900D02*
Y43100D01*
X8350Y49000D02*
X8550D01*
X8450Y48900D02*
Y49100D01*
X16250Y41325D02*
X16450D01*
X16350Y41225D02*
Y41425D01*
X16175Y47850D02*
X16375D01*
X16275Y47750D02*
Y47950D01*
X17175Y49200D02*
X17375D01*
X17275Y49100D02*
Y49300D01*
X39300Y48725D02*
X39500D01*
X39400Y48625D02*
Y48825D01*
X33950D02*
X34150D01*
X34050Y48725D02*
Y48925D01*
X15400Y83300D02*
X15600D01*
X15500Y83200D02*
Y83400D01*
X27175Y77850D02*
X27375D01*
X27275Y77750D02*
Y77950D01*
X19800Y84400D02*
X20000D01*
X19900Y84300D02*
Y84500D01*
X27325Y88400D02*
X27525D01*
X27425Y88300D02*
Y88500D01*
X30500Y84475D02*
X30700D01*
X30600Y84375D02*
Y84575D01*
X29650Y87475D02*
X29850D01*
X29750Y87375D02*
Y87575D01*
X31050Y89500D02*
X31250D01*
X31150Y89400D02*
Y89600D01*
X33425Y87500D02*
X33625D01*
X33525Y87400D02*
Y87600D01*
X34900Y88700D02*
X35100D01*
X35000Y88600D02*
Y88800D01*
X33625Y90625D02*
X33825D01*
X33725Y90525D02*
Y90725D01*
X34275Y91850D02*
X34475D01*
X34375Y91750D02*
Y91950D01*
X37400Y90450D02*
X37600D01*
X37500Y90350D02*
Y90550D01*
X42525Y95275D02*
X42725D01*
X42625Y95175D02*
Y95375D01*
X44875Y95250D02*
X45075D01*
X44975Y95150D02*
Y95350D01*
X47550Y89875D02*
X47750D01*
X47650Y89775D02*
Y89975D01*
X49450Y91100D02*
X49650D01*
X49550Y91000D02*
Y91200D01*
X52875Y94950D02*
X53075D01*
X52975Y94850D02*
Y95050D01*
X48800Y95025D02*
X49000D01*
X48900Y94925D02*
Y95125D01*
X44300Y98450D02*
X44500D01*
X44400Y98350D02*
Y98550D01*
X49275Y98475D02*
X49475D01*
X49375Y98375D02*
Y98575D01*
X43600Y100325D02*
X43800D01*
X43700Y100225D02*
Y100425D01*
X35400Y100425D02*
X35600D01*
X35500Y100325D02*
Y100525D01*
X40100Y100500D02*
X40300D01*
X40200Y100400D02*
Y100600D01*
X2900Y105800D02*
X3100D01*
X3000Y105700D02*
Y105900D01*
X3325Y108450D02*
X3525D01*
X3425Y108350D02*
Y108550D01*
X18925Y111350D02*
X19125D01*
X19025Y111250D02*
Y111450D01*
X19875Y114750D02*
X20075D01*
X19975Y114650D02*
Y114850D01*
X19775Y116225D02*
X19975D01*
X19875Y116125D02*
Y116325D01*
X19275Y121200D02*
X19475D01*
X19375Y121100D02*
Y121300D01*
X16325Y122050D02*
X16525D01*
X16425Y121950D02*
Y122150D01*
X16725Y124450D02*
X16925D01*
X16825Y124350D02*
Y124550D01*
X20275Y126975D02*
X20475D01*
X20375Y126875D02*
Y127075D01*
X18950Y128750D02*
X19150D01*
X19050Y128650D02*
Y128850D01*
X14525Y129350D02*
X14725D01*
X14625Y129250D02*
Y129450D01*
X27200Y131800D02*
X27400D01*
X27300Y131700D02*
Y131900D01*
X27150Y129750D02*
X27350D01*
X27250Y129650D02*
Y129850D01*
X34650Y128350D02*
X34850D01*
X34750Y128250D02*
Y128450D01*
X43700Y121275D02*
X43900D01*
X43800Y121175D02*
Y121375D01*
X45800Y121250D02*
X46000D01*
X45900Y121150D02*
Y121350D01*
X48925Y121225D02*
X49125D01*
X49025Y121125D02*
Y121325D01*
X52025Y123325D02*
X52225D01*
X52125Y123225D02*
Y123425D01*
X54400Y127275D02*
X54600D01*
X54500Y127175D02*
Y127375D01*
X27775Y90625D02*
X27975D01*
X27875Y90525D02*
Y90725D01*
X19450Y20350D02*
X19650D01*
X19550Y20250D02*
Y20450D01*
X19500Y23375D02*
X19700D01*
X19600Y23275D02*
Y23475D01*
X19475Y22375D02*
X19675D01*
X19575Y22275D02*
Y22475D01*
X48850Y71725D02*
X49050D01*
X48950Y71625D02*
Y71825D01*
X55525Y36700D02*
X55725D01*
X55625Y36600D02*
Y36800D01*
X54950Y72725D02*
X55150D01*
X55050Y72625D02*
Y72825D01*
X54478Y68028D02*
X54678D01*
X54578Y67928D02*
Y68128D01*
X55225Y75525D02*
X55425D01*
X55325Y75425D02*
Y75625D01*
X54730Y71675D02*
X54930D01*
X54830Y71575D02*
Y71775D01*
X55250Y39100D02*
X55450D01*
X55350Y39000D02*
Y39200D01*
X55700Y49325D02*
X55900D01*
X55800Y49225D02*
Y49425D01*
X55234Y77179D02*
X55434D01*
X55334Y77079D02*
Y77279D01*
X55525Y34625D02*
X55725D01*
X55625Y34525D02*
Y34725D01*
X55175Y78554D02*
X55375D01*
X55275Y78454D02*
Y78654D01*
X54975Y34000D02*
X55175D01*
X55075Y33900D02*
Y34100D01*
X55228Y79204D02*
X55428D01*
X55328Y79104D02*
Y79304D01*
X54425Y35975D02*
X54625D01*
X54525Y35875D02*
Y36075D01*
X53750Y70100D02*
X53950D01*
X53850Y70000D02*
Y70200D01*
X53534Y44284D02*
X53734D01*
X53634Y44184D02*
Y44384D01*
X51825Y72000D02*
X52025D01*
X51925Y71900D02*
Y72100D01*
X51228Y73829D02*
X51428D01*
X51327Y73729D02*
Y73929D01*
X50677Y69278D02*
X50877D01*
X50777Y69178D02*
Y69378D01*
X50600Y67675D02*
X50800D01*
X50700Y67575D02*
Y67775D01*
X51550Y67650D02*
X51750D01*
X51650Y67550D02*
Y67750D01*
X50600Y67025D02*
X50800D01*
X50700Y66925D02*
Y67125D01*
X49495Y64976D02*
X49695D01*
X49595Y64876D02*
Y65076D01*
X48936Y64390D02*
X49135D01*
X49035Y64290D02*
Y64490D01*
X51178Y65378D02*
X51378D01*
X51278Y65278D02*
Y65478D01*
X52225Y66175D02*
X52425D01*
X52325Y66075D02*
Y66275D01*
X53800Y63925D02*
X54000D01*
X53900Y63825D02*
Y64025D01*
X49275Y62075D02*
X49475D01*
X49375Y61975D02*
Y62175D01*
X51178Y63503D02*
X51377D01*
X51278Y63403D02*
Y63603D01*
X52275Y62675D02*
X52475D01*
X52375Y62575D02*
Y62775D01*
X51178Y60603D02*
X51377D01*
X51278Y60503D02*
Y60703D01*
X60850Y59250D02*
X61050D01*
X60950Y59150D02*
Y59350D01*
X60456Y50800D02*
X60656D01*
X60556Y50700D02*
Y50900D01*
X60900Y47525D02*
X61100D01*
X61000Y47425D02*
Y47625D01*
X61025Y46824D02*
X61225D01*
X61125Y46724D02*
Y46924D01*
X60850Y38825D02*
X61050D01*
X60950Y38725D02*
Y38925D01*
X62500Y60550D02*
X62700D01*
X62600Y60450D02*
Y60650D01*
X52250Y59275D02*
X52450D01*
X52350Y59175D02*
Y59375D01*
X47949Y52905D02*
X48149D01*
X48049Y52805D02*
Y53005D01*
X51300Y57875D02*
X51500D01*
X51400Y57775D02*
Y57975D01*
X49625Y61400D02*
X49825D01*
X49725Y61300D02*
Y61500D01*
X48575Y58300D02*
X48775D01*
X48675Y58200D02*
Y58400D01*
X51328Y57203D02*
X51528D01*
X51428Y57103D02*
Y57303D01*
X52250Y56350D02*
X52450D01*
X52350Y56250D02*
Y56450D01*
X49775Y54550D02*
X49975D01*
X49875Y54450D02*
Y54650D01*
X52275Y54150D02*
X52475D01*
X52375Y54050D02*
Y54250D01*
X48027Y43327D02*
X48227D01*
X48127Y43227D02*
Y43427D01*
X48487Y43787D02*
X48687D01*
X48587Y43687D02*
Y43887D01*
X49027Y43402D02*
X49227D01*
X49127Y43302D02*
Y43502D01*
X48925Y42650D02*
X49125D01*
X49025Y42550D02*
Y42750D01*
X49129Y44629D02*
X49329D01*
X49229Y44529D02*
Y44729D01*
X48975Y45675D02*
X49175D01*
X49075Y45575D02*
Y45775D01*
X52299Y38099D02*
X52499D01*
X52399Y37999D02*
Y38199D01*
X52275Y40675D02*
X52475D01*
X52375Y40575D02*
Y40775D01*
X59475Y16600D02*
X59675D01*
X59575Y16500D02*
Y16700D01*
X15325Y37850D02*
X15525D01*
X15425Y37750D02*
Y37950D01*
X17125Y17750D02*
X17325D01*
X17225Y17650D02*
Y17850D01*
X16300Y37850D02*
X16500D01*
X16400Y37750D02*
Y37950D01*
X16429Y61646D02*
X16629D01*
X16529Y61546D02*
Y61746D01*
X19127Y49427D02*
X19327D01*
X19227Y49327D02*
Y49527D01*
X24025Y51450D02*
X24225D01*
X24125Y51350D02*
Y51550D01*
X18800Y45875D02*
X19000D01*
X18900Y45775D02*
Y45975D01*
X17825Y45875D02*
X18025D01*
X17925Y45775D02*
Y45975D01*
X23525Y54150D02*
X23725D01*
X23625Y54050D02*
Y54250D01*
X50850Y85125D02*
X51050D01*
X50950Y85025D02*
Y85225D01*
X54125Y93950D02*
X54325D01*
X54225Y93850D02*
Y94050D01*
X54650Y89925D02*
X54850D01*
X54750Y89825D02*
Y90025D01*
X54853Y84829D02*
X55053D01*
X54953Y84729D02*
Y84929D01*
X54675Y85650D02*
X54875D01*
X54775Y85550D02*
Y85750D01*
X54475Y86337D02*
X54675D01*
X54575Y86237D02*
Y86437D01*
X54675Y87775D02*
X54875D01*
X54775Y87675D02*
Y87875D01*
X54650Y88425D02*
X54850D01*
X54750Y88325D02*
Y88525D01*
X53475Y86940D02*
X53675D01*
X53575Y86840D02*
Y87040D01*
X53725Y90325D02*
X53925D01*
X53825Y90225D02*
Y90425D01*
X53200Y92375D02*
X53400D01*
X53300Y92275D02*
Y92475D01*
X50875Y91600D02*
X51075D01*
X50975Y91500D02*
Y91700D01*
M02*
