M48
;Layer_Color=9474304
;FILE_FORMAT=4:3
METRIC,LZ
;TYPE=PLATED
T1F00S00C0.200
T2F00S00C0.300
T5F00S00C0.700
T7F00S00C0.900
T8F00S00C1.000
T9F00S00C1.100
%
T01
X0000917Y0001375
X0001418Y0000876
X0002091Y0000629
X0001918Y0001876
X0001418Y0002876
X0002418
X0000641Y0002616
Y0004354
X0001418Y0004876
X0001918Y0005876
X0002918
X0000641Y0006079
X0003417Y0006376
X0003918Y0005876
X0004918
X0005918
X0005917Y0006376
X0006918Y0005876
X0007918
X0008417Y0006376
X0008918Y0005876
X0009918
X0010918
X0010917Y0006376
X0011918Y0005876
X0012918
X0013417Y0006376
X0015917
X0015918Y0005876
X0015641Y0005029
X0016418Y0004876
X0017418
X0017167Y0003875
X0015918Y0003876
X0015418Y0002876
X0014566Y0002679
X0014918Y0001876
X0013918
X0012918
X0013417Y0001375
X0013418Y0000876
X0012591Y0000629
X0010866
X0009104
X0007366
X0005641
X0003829
X0005418Y0004876
X0006418
X0007418
X0008418
X0009418
X0010418
X0012418Y0002876
X0013418
X0011918Y0001876
X0014328Y0000629
X0015418Y0000876
X0018327Y0002579
X0017766Y0005879
X0018941Y0006479
X0026641Y0006429
X0027166Y0006004
X0027418Y0004876
X0026418
X0025491Y0005264
X0025918Y0003876
X0026918
X0026418Y0002876
X0026918Y0001876
X0027418Y0000876
X0028079Y0000629
X0029816
X0029991Y0002879
X0029091Y0003779
X0028216Y0005129
X0026266Y0000629
X0023341Y0002579
X0034316Y0002879
X0033466Y0003779
X0057653Y000274
X0057918Y0001876
X0058417Y0001375
X0058918Y0001876
X0059918
X0060918
X0060917Y0001375
X0060679Y0000625
X0061418Y0000876
X0062491Y0000625
X0063418Y0000876
X0063417Y0001375
X0062918Y0001876
X0061918
X0061418Y0002876
X0060418
X0059418
X0059145Y0004023
X0059918Y0003876
X0060918
X0061918
X0062918
X0063918
X0064667Y0003875
X0065616Y0003979
X0065418Y0004876
X0064418
X0063418
X0062418
X0061418
X0060418
X0059418
X0059918Y0005876
X0058918
X0058417Y0006376
X0057653Y0005305
X0056918Y0005876
Y0001876
X0057216Y0000625
X0058941
X0064216
X0065953
X0067716
X0068418Y0000876
X0067918Y0001876
X0066918
X0067153Y000274
Y0005305
X0067918Y0005876
X0069366Y0005515
Y0003778
X0068602Y0003979
X0069366Y0002053
X0063418Y0002876
X0062418
X0062918Y0005876
X0063417Y0006376
X0063918Y0005876
X0064918
X0065918
X0065917Y0006376
X0061918Y0005876
X0060918
X0060917Y0006376
X0060418Y0006876
X0059418
X0058418
X0057418
X0057918Y0009876
X0056918
X0057418Y0010876
X0058418
X0058417Y0011375
X0057918Y0011876
X0056918
X0057418Y0012876
X0058418
X0059418
X0059667Y0013875
X0058918Y0013876
X0057918
X0057167Y0013875
X0057418Y0014876
X0058418
X0059418
X0058918Y0015876
X0057918
X0058417Y0016375
X0058418Y0016876
X0057418
X0057918Y0017876
X0056918
X0057418Y0018876
X0058418
X0058918Y0019876
X0057918
X0056918
X0056418Y0020876
X0055418
X0054418
X0053418
X0052418
X0051418
X0051625Y0021575
X0050918Y0021876
X00504Y002085
X0049418Y0022876
X004965Y00244
X0050918Y0023876
Y0025876
Y0027876
X005235Y0027775
X0052325Y0028525
Y00292
X00523Y002995
X0050918Y0029876
X00498Y0032455
X0048175Y003205
X004765Y00316
X0048375Y0031125
X0048766Y0028129
X0047896Y0027429
X0046029Y0029009
X0044841Y0029654
X0044091Y0029604
X0044516Y0028504
X004405Y0031725
X00459Y00334
X004745Y0035575
X00484Y0037325
X004735Y00395
X0045966Y0039604
Y0038729
X0045266Y0037929
X0043666
X004405Y0036754
X0045266Y0040279
X0044766Y0041154
X0044041Y0041829
X004455Y004255
X00457Y0043275
X0048127Y0043327
X0048587Y0043787
X0049127Y0043402
X0049025Y004265
X0049229Y0044629
X0049075Y0045675
X0046425Y0046275
X0053634Y0044284
X0052375Y0040675
X0052399Y0038099
X005535Y00391
X0055625Y00367
X0054525Y0035975
X0055625Y0034625
X0055075Y0034
X0054418Y0032876
X0053418
X0055418Y0030876
X0056418
X0055918Y0029876
X0054918
X0055418Y0028876
X0055918Y0027876
X0054918
Y0025876
X0053918
X0052918
X0052418Y0024876
X0053418
X0054418
X0055418
X0056418
X0057418
X0058418
X0059418
X0059918Y0023876
X0059418Y0022876
X00587Y002345
X0057918Y0023876
X0056918
X0055918
X0054918
X0053918
X0053418Y0022876
X0052418
X0052875Y00234
X0054418Y0022876
X0055418
X0056418
X0057418
Y0020876
X0058418
X0059418
X005995Y0021575
X0061918Y0021876
X0061418Y0022876
X0062418
X0061918Y0023876
X0061418Y0024876
X0062418
X0061918Y0025876
X0059918
X0058918
X0057918
X0056918
X0055918
X0059918Y0027876
X0060225Y0031325
X0059803Y0031852
X0061418Y0030876
X0062418
X0061918Y0029876
X0062418Y0032876
X0061918Y0033876
X0060975Y0034325
X0061418Y0034876
X0062418
X0061918Y0035876
X0060918
X006095Y0038825
X0062418Y0038876
Y0040876
X0068418
X0069366Y0040404
Y0038679
X0068418Y0038876
X0067918Y0039876
X0067418Y0036876
X0068418
X0069366Y0036916
Y0035179
X0068418Y0034876
X0067918Y0033876
X0068418Y0032876
X0069366Y0033454
Y0031641
X0068418Y0030876
X0067918Y0029876
X00673Y00292
X0068418Y0028876
X0069366Y0028179
Y0029904
Y0026441
X0068918Y0025876
X0069366Y0024704
X0068918Y0023876
X0069366Y0022979
X0068418Y0022876
X0068918Y0021876
X0067918
X0068418Y0020876
X0069366Y0021215
Y0019478
X0068418Y0018876
X0067418
X0068418Y0016876
X0067918Y0015876
X0068418Y0014876
X0067918Y0013876
X0068418Y0012876
X0069366Y0012528
X0068918Y0011876
X0068418Y0010876
X0067418
X0066418
X0065418
X0065917Y0011375
X0065918Y0009876
X0064918
X0063918
X0062918
X0061918
X0062418Y0010876
X0063418
X0064418
X0064918Y0007876
X0063918
X0062918
X0061918
X0060918
X00606Y0008523
X0059918Y0007876
Y0009876
X0058918
X0059418Y0010876
X0058918Y0011876
X0061918
X0061418Y0012876
X0062418
X0061918Y0013876
X0061418Y0014876
X0062418
X0063417Y0016375
X0063418Y0018876
X0062418
X0062918Y0019876
X0061918
X0062418Y0020876
X0059575Y00166
X0056918Y0015876
X0048566Y0018154
X0047791Y0018929
X0047716Y0019829
X0044516Y0017029
X0065918Y0013876
X0069366Y0014253
Y001599
Y0017753
Y0010715
X0068918Y0009876
X0067918
X0066918
X0069366Y0008978
X0068918Y0007876
X0069366Y0007253
X0068418Y0006876
X0067418
X0066418
X0065418
X0064418
X0063418
X0062418
X0061418
X006585Y0044275
X0069366Y0043954
X00687Y0043175
X0069366Y0042141
Y0045679
X0068703Y0045702
X0043Y00442
X004285Y0043075
X0042591Y0041716
X0042366Y0040179
X0040666Y0039904
X0041591Y0037929
X0040216Y0036704
X0038766Y0035554
X0038116
X0037266
X0036616
X0035116Y0035479
X0034941Y0033879
X0034291Y0031479
X0032941
X0031565Y0032875
X0029966Y0032854
X002865Y0032325
X0027475Y0031775
X0025918Y0031876
X0025917Y0031375
X0024918Y0031876
X0023918
X0024418Y0032876
X0025418
X0026418
X0025918Y0033876
X0024918
X0023918
X0024418Y0034876
X0025418
X0026418
X002625Y0035675
X0026418Y0036876
X0025418
X0024918Y0035876
X0023775Y003555
X0023825Y00374
X002455Y004065
X0024723Y0042075
X00239Y0042775
Y0044175
X0024125Y0045675
X0025686Y0044614
X0022475Y00438
X002295Y00433
X002175Y00426
X001965Y0042625
Y0043675
X0019675Y0045175
X00189Y0045875
X0017925
X001635Y0041325
X0016475Y0039225
X00164Y003785
X0015425
X0016475Y0036825
X00194Y0036375
X001965Y00398
X0019625Y00413
X0021918Y0039876
X0025918
X002625Y0039175
X00294Y003925
X0028475Y0037325
X0029725Y0036425
X0029966Y0034854
X0031566
X0031775Y0036
X0032416Y0035479
X0033925Y003645
X0034841Y0038879
X0035741Y0040604
X0034616Y0041479
X0032016
Y0040429
X0031741Y0043304
X00303Y00435
X0028925Y0043
X0028125Y004085
X0028966Y0033854
X0029975Y00298
X0025918Y0029876
X0024918
X0024418Y0028876
X0025418
X0026418
X0025918Y0027876
X0024918
X0024418Y0026876
X0025418
X0025917Y0026375
X0025918Y0025876
X0024918
X0024418Y0024876
X0025418
X0026418
X0025918Y0023876
X0024918
X0024418Y0022876
X0025418
X0026418
X0025918Y0021876
X0025917Y0021375
X0025418Y0020876
X0024418
X0024918Y0019876
X0025918
X0025418Y0018876
X0024418
X0024918Y0017876
X0025918
X0026918
X0026418Y0016876
X0025418
X0025917Y0016375
X0025918Y0015876
X0024918
X0024418Y0014876
Y0016876
X0022418
X0021918Y0015876
X002265Y0015225
X0021918Y0017876
X0022418Y0018876
X0021918Y0019876
X0022418Y0020876
X0022775Y0022425
X0021918Y0023876
Y0025876
X0023275Y00254
X0021918Y0027876
Y0029876
X0022875Y00307
X0021918Y0031876
Y0033876
X00195Y003255
X001745Y003225
X0015418Y0032876
X0014918Y0031876
X0014418Y0030876
X0013418
X0015675Y00311
X0014918Y0029876
X0014667Y0028875
X0014918Y0027876
X0013918
X0013418Y0026876
X0013417Y0026375
X0012918Y0025876
X0011918
X0010918
X0010917Y0026375
X0010418Y0026876
X0009418
X0009918Y0025876
X0008918
X0008417Y0026375
X0008918Y0027876
X0009918
X0009418Y0028876
X0009918Y0029876
X0008918
X0009418Y0030876
X0010418
X0010917Y0031375
X0008417
X00073Y0035113
X0007375Y0038275
X0008175Y0043
X0007591Y0044729
X0004125Y0041602
X0011918Y0033876
X0014667Y0033875
X0014418Y0026876
X0014918Y0025876
X0013918
X0013418Y0024876
X0012418
X0011418
X0010418
X0009418
X0009918Y0023876
X0008918
X0009418Y0022876
X0010418
X0011418
X0012418
X0013418
X0014418
X0014667Y0023875
X0013918Y0023876
X0012918
X0011918
X0010918
Y0021876
X0010917Y0021375
X0010418Y0020876
X0009418
X0009918Y0019876
X0008918
X0009275Y00186
X0010418Y0018876
X0011418
X0012418
X0013418
X0014418
X0014918Y0019876
X0013918
X0012918
X0011918
X0010918
X0011418Y0020876
X0011918Y0021876
X0012918
X0013417Y0021375
X0013418Y0020876
X0014418
X0014918Y0021876
X0013918
X0014418Y0024876
X0017625Y00242
X001955Y002435
X00196Y0023375
X0019575Y0022375
Y0021175
X001955Y002035
X00196Y0017825
X0017225Y001775
X00175Y0019175
X0018025Y0015175
X0019625Y001445
X0020841Y0011979
X0021491
X0023191Y0011479
X0024418Y0010876
X0023918Y0009876
X0024418Y0008876
X0021166Y0008404
X0018918Y0007876
X0017918
X0016918
X0015918
X0014918
X0014541Y0007229
X0013418Y0006876
X0016418
X0017418
X0018418
Y0008876
X0017418
X0016418
X0015418
X0016918Y0009876
X0017918
X0018918
X0018418Y0010876
X0018417Y0011375
X0017418Y0010876
X0019418
X0025966Y0013229
X0026666
Y0013929
X0026066
X002815Y0014525
X00293Y0014425
X0028974Y0013224
X0028666Y0012054
X0031841Y0011804
X0031941Y0009954
X0030391Y0008629
X0031066Y0014779
X0033816Y0013429
X0034191Y0012504
X0034216Y0017954
X0034966Y0018954
X0035016Y0019804
X0033825Y00215
X003385Y00242
X0034866Y0027404
X0035821Y0028591
X00359Y003005
X0036466Y0029604
X0037216Y0029129
X0038166Y0028629
X0037691Y0032229
X004095Y00326
X0040041Y0033929
X0042316Y0034879
X0042991Y0036079
X0041441Y0044029
X003935Y004405
X0038291Y0044029
X0035566
X0036466Y0043104
X003935Y004625
X0029875Y0025725
X002995Y0021525
X0026418Y0020876
Y0018876
X0026918Y0015876
X0024918Y0021876
X0026418Y0026876
X0019625Y0026925
X00175Y0026425
X0012418Y0026876
X0011418
X0009918Y0021876
X0008918
X0008417Y0021375
X0009418Y0016876
X0010418
X0011418
X0012418
X0013418
X0012918Y0015876
X0011918
X0010918
X0009918
X000875Y00159
X0009418Y0014876
X0010418
X0011418
X00135Y0015325
X00107Y00127
X0009418Y0012876
X0009741Y0008523
X0010366
X0008991
X0007418Y0006876
X0006418
X0005418
X0004418
X0003418
X0038166Y0017004
X0000641Y0016491
Y0014766
Y0013029
Y0011266
X0001366Y0011204
Y0010529
X0002116
X0002141Y0011204
X0000641Y0009541
Y0007804
X0001418Y0006876
X0002418
X0000641Y0018304
Y0020041
Y0021766
Y0023504
Y0025241
Y0026966
Y0028654
Y0030391
Y0032116
Y0033879
Y0035616
Y0037341
Y0039154
Y0040891
Y0042616
Y0044354
Y0046091
X0001991Y0036804
X0000641Y0047816
Y0049566
Y0051304
Y0053029
Y0054791
X0001975Y0054878
Y0054228
X000245Y00519
X00023Y0057475
X0000641Y0058254
Y0056529
Y0060066
X0001991Y0059979
X0002486Y0062064
X0000641Y0061804
Y0063529
Y0065266
Y0067004
Y0068729
Y0070404
Y0072141
Y0073866
Y0075629
Y0077366
Y0079091
Y0080904
Y0082641
Y0084366
X0001975Y0073175
X0002025Y00725
X0002425Y0064503
X00048Y0062125
X0006516Y0062429
X0006991Y0062879
X0008566Y0061904
X0009775Y0060175
X0011975Y006025
X0016704Y0060475
X0016529Y0061646
X00152Y0064062
Y00646
Y0065183
X0015275Y0066325
X0017325Y00665
X0017775Y0066025
X00175Y006845
X001865Y0069075
X001875Y00712
X0020525Y0069975
X0022025Y00711
X0022525Y00706
X0023Y0069575
X002285Y0067975
X0022175Y0068025
X0022475Y00671
X0019325Y0067225
X0019475Y00629
X0021975Y0063175
X00261Y00629
X0025954Y0064054
X0027525Y0063775
X00276Y006525
X0027925Y00617
X0029866Y0061734
X0030866
X0031866
X0032866
X0032375Y006225
X0031375
X0030366Y0062241
X0031675Y00637
X003335Y0064499
X0033225Y0065325
X0032975Y006665
X00318Y0066325
X0031225Y0066725
X0030125Y0067075
X002975Y0069925
X0029025Y0070125
X0029575Y00707
X002945Y007355
X003Y0074325
X00296Y0076925
X00272Y007715
X0027275Y007785
X0027225Y007635
X0025866Y0075651
X0026Y0073575
X0025975Y0072775
X0028125Y0072375
X00334Y0072675
X00336Y0073775
X0033425Y0071275
X0034225Y0070054
X0032975Y0068825
X00349Y00682
X0034225Y006635
X003765Y006625
X0038327Y0066503
X0038475Y00682
X003955Y00707
X0038225Y0071625
X00368Y0071275
X0036825Y0072675
X0036925Y0074175
X003695Y00758
X0038825Y0075725
X0039525Y007665
X003785Y007705
X0036925Y00795
X003965Y007955
X0041402Y0079504
X0043Y007945
X0042925Y007715
Y00757
X0042875Y00735
X004205Y0072675
X0041Y007415
X0038675Y00733
X00415Y0069475
X0042725Y0068275
X0042453Y006652
X0042375Y0062025
X0041575Y006215
X004055Y006225
X003965Y0062625
X0038925Y006265
X003905Y0063575
X0039575Y00644
X00384Y0064525
X00382Y0062075
X00375
X0036475Y0062225
X003575Y0061775
X003495Y0062125
X003385Y00617
X0033375Y006225
X0032675Y0059225
X0031525Y0058375
Y0057075
X0032175Y0056425
Y005485
Y005335
X0031475Y005265
X0029925
X0028375
X0027675Y005335
Y0054862
Y0056375
X002842Y005712
X0027925Y00579
X0029375Y0059
X0030775Y0058975
X0032975Y0057525
X0033875
X00348Y00578
X0034875Y005845
X0034852Y0059103
X0036725Y0059
X003815Y00589
X0039213Y0058625
X0039725Y0059275
X0040866Y0059134
X004065Y0057525
X00391Y005705
Y00558
X0039975Y005615
X0041325
Y005275
X0040625Y0051675
X0039825Y005405
X003915Y00534
X0038075Y005305
X0036725Y0053075
X0035125Y0053175
X00349Y00548
X003555Y005545
X0035537Y0056963
X00347Y0056825
X0034675Y005175
X00373Y005185
X00375Y004715
X00394Y0048725
X004195Y0047625
X003405Y0048825
X0033875Y00464
X0031475Y0048375
X003155Y0050125
X0027201Y0049427
X00278Y0048225
X00259Y004715
X002405Y0048575
X0024125Y005145
X0023625Y005415
X0025425Y0055625
X0025726Y0057028
X002515Y00574
X002445Y005725
X0024508Y0057909
X0023851Y0057978
X0023825Y005865
X002525Y006105
X0025825Y00683
X00222Y007235
X002235Y0073
X0022032Y0073618
X002105Y0075975
X00196Y007605
X0019
X0018375
X00177
X001695
X0018Y00755
X0018675
X00193
X00203Y007815
X001875Y00793
X00172Y0078175
X0014876Y0081154
X0014925Y0081825
X00155Y00833
X0018566Y0085379
X0019166Y0085379
X0019841
X00199Y00844
X0022375Y0083775
X0024025Y0084225
X002405Y0085125
X00256Y008565
X0026775Y0085775
X002825Y008335
X0028975
X0031175
X00306Y0084475
X00332Y0084975
X00339Y0083375
X0035275Y008445
X003635Y0083325
X0037025
X0039025Y0084325
X003835Y0085825
X0041075Y00857
X0033677Y0080804
X003225Y0080575
X003095Y008055
X0031575Y0079825
X0032975Y0079575
X0034227Y0077723
X0035302Y0078129
X002995Y0079725
X0027Y0079675
X002625Y00799
Y0080475
Y0079225
X0014576Y0074404
X0014725Y007375
X0014101Y0072554
X0012418Y0074876
X0009418
X0009125Y0075475
X0007666Y0075905
Y0076555
X0007725Y008045
X0007916Y0082354
X0009526Y0082474
X0008466Y0085704
X00095Y007275
X0008906Y0070975
X0007825Y0071575
X000775Y006995
X00067Y0070225
X000825Y006895
X0008066Y0065304
X0007216Y0065554
X00096Y0064078
X0011875Y0067225
X0015325Y006955
X0004925Y0067603
X0008616Y0057579
X0007341Y0055404
X0007841Y0054729
X0007566Y0053329
X0008875Y0052325
X0008281Y0051637
X0006991Y0051429
X0007425Y0050477
X0006766Y0049704
X0007591Y0048259
X0007391Y004715
X000845Y0049
X0004625Y0049475
X0004475Y00469
X0016275Y004785
X0017275Y00492
X0019227Y0049427
X001885Y005095
X0017875
Y005255
X001885
X0018925Y005415
X001795
X001885Y005685
X00189Y0058475
X001795Y0058487
X0019675Y0047875
X0029475Y0046525
X0026225Y0053125
X0047425Y00532
X0048049Y0052905
X0049686Y0053875
X0049875Y005455
X0048425Y0055575
X0049025Y0057075
X0048675Y00583
X00514Y0057875
X0051428Y0057203
X005235Y005635
X0052375Y005415
X005235Y0059275
X0051278Y0060603
X0049725Y00614
X0049375Y0062075
X0048825Y0063025
X0049035Y006439
X0049595Y0064976
X004925Y006555
X0051278Y0065378
X0052325Y0066175
X005165Y006765
X00507Y0067675
Y0067025
X0050777Y0069278
X0048575Y0068975
X00479Y006895
X0047325Y006855
X00478Y006805
X00473Y006955
X004735Y0070575
X0047827Y0071053
X004895Y0071725
X0049052Y0070428
X004905Y007335
X0048175Y0074
X0051327Y0073829
X0051925Y0072
X005483Y0071675
X005505Y0072725
X0055325Y0075525
X0055334Y0077179
X0055275Y0078554
X0055328Y0079204
X005305Y007985
X005335Y00815
X0051275Y0081525
X0049475Y0081625
X0048625Y0081675
X00488Y008325
X0049575Y0083275
X00476Y008315
X0046375Y008415
X0047027Y0085004
X00446Y00851
X004505Y008165
X0044752Y0079329
X004475Y0077125
Y007595
X0043886Y0072736
X00432Y006955
X004355Y0068075
X0044227Y0068528
X0044625Y0069075
X0044602Y0067927
X00444Y0066475
X00443Y0064575
X0044125Y00638
X00442Y006285
X0043275Y00627
X0043366Y0061916
X004405Y00619
X00447Y006175
X004465Y0060475
X004595Y006165
X00482Y0061525
X00473Y0063925
X0051278Y0063503
X0052375Y0062675
X00539Y0063925
X0054578Y0068028
X005385Y00701
X00578Y00673
X0061Y006785
X006145Y006855
X0061428Y0069203
X0061225Y0072675
X0060418Y0074876
X0061Y0076075
X0061Y00769
X006Y0076575
X0058178Y0076829
X005825Y0075275
X0061475Y00783
X0061703Y0079254
X00611Y008035
X0060418Y0082876
Y0084876
X0062696Y0086043
X0069366Y0085654
X00687Y00849
X0069366Y0083929
Y0082191
X0068112Y0082362
X006855Y0082875
X0069366Y0080466
Y0078704
Y0076966
Y0075241
Y0073429
Y0071691
Y0069966
Y0068229
X0068303Y0068828
X0067653Y0067353
X0065725Y0067575
X0065728Y0064878
X006785Y0064725
X0069366Y0064766
Y0063116
X0068553Y0063478
X00676Y0061975
X0069366Y0061379
Y0059654
Y0057891
Y0056154
Y0054429
X006855Y005465
X0069366Y0052616
Y0050879
Y0049154
Y0047416
X0065418Y0046876
Y0048876
X0065703Y0051628
X00659Y00523
X0060556Y00508
X0061Y0047525
X0061125Y0046824
X00558Y0049325
X0046177Y0050327
X0045725Y0050825
X004485Y00499
X004425Y004785
X0045925Y00563
X006095Y005925
X00626Y006055
X0062866Y0061579
X0061578Y0062828
X0061496Y0063478
X0061253Y0064278
X0062925Y00665
X0068775Y0066025
X0069366Y0066491
X0067578Y0072529
X0067418Y0074876
X0066418
X0065775Y00771
X0067575Y0077725
X00514Y0078625
X005065Y0079875
X0048225Y0078875
X0048675Y0078425
X0050225Y0085125
X005095
X0054953Y0084829
X0055481Y0084431
X0054775Y008565
X0054575Y0086337
X0053575Y008694
X0054775Y0087775
X005475Y0088425
Y0089925
X0053825Y0090325
X0053628Y0091229
X0053125Y00908
X00533Y0092375
X0054225Y009395
X0052975Y009495
X0052941Y0097154
X0052966Y0098154
X0053918Y0097876
X0055075Y0098025
X0054418Y0096876
X0051866Y0097154
X0050816
X0049375Y0098475
X0049418Y0100876
X0048418
X0050136Y0101979
X0050918Y0101876
X0051418Y0100876
X0054418
X0055053Y0100605
X00553Y0101325
X0055418Y0102876
X0055918Y0103876
X0054918
X0053918
X0054418Y0104876
X0055418
X0055918Y0105876
X0055917Y0106376
X0055418Y0106876
X0054418
X0054918Y0105876
X0053918
X0052941Y0106054
Y0106779
X0051418Y0106876
X0050418
X0050917Y0106376
X0050918Y0105876
X0049918
X0048918
X0048417Y0106376
X0048418Y0106876
X0049418
Y0104876
X0048418
X0048918Y0103876
X0049918
X0050918
X0050418Y0104876
X0051418
X0052941Y0105129
Y0104504
X0053918Y0101876
X0057418Y0102876
X0056918Y0103876
Y0105876
X0057918
X0058417Y0106376
X0058418Y0106876
X0057418
X0059418
X0059341Y0108779
X0059348Y0109376
X0059341Y0109979
X0060341
Y0109379
Y0108779
X0058341
Y0109379
Y0109979
X0058417Y0111376
X0058918Y0111876
X0059918
X0061816Y0111104
X0057418Y0110876
X00564Y011075
X0055917Y0111376
X0056091Y0109479
X0056866Y0110079
X0054918Y0109876
X0052918
X0051918
X0050918
X0049918
X0048918
X0049418Y0108876
X0045918Y0107876
X0044918
X0044418Y0106876
X0045418
X0045917Y0106376
X0045918Y0105876
X0046418Y0106876
X0045918Y0109876
X004735Y011295
X0047975Y0112425
X0050691Y0114299
Y0114904
Y0115504
X0048916Y0116529
X0047793Y011702
X0043641Y0117879
X00438Y0121275
X00459Y012125
X0045466Y0123329
X0043891
Y0124954
X0045466
X0047016
X0048366
X0050091Y0125029
X0049791Y0124004
X0048566Y0123329
X0047066
X0049025Y0121225
X0052125Y0123325
X0051899Y0125446
X0051399
X0055516Y0125179
X00601Y0125175
X0065418Y0124876
X0066418
X0067418
X0068418
X0067918Y0123876
X0067167Y0123876
X0067418Y0122876
X0068418
X0069366Y0122254
Y0123979
Y0125716
Y0120491
X0068918Y0119876
X0068418Y0118876
X0069366Y0118754
X0068918Y0117876
X0069366Y0117029
Y0115216
Y0113479
Y0111754
Y0110016
Y0108279
Y0106554
Y0104816
Y0103079
Y0101354
Y0099591
Y0097854
Y0096129
Y0094316
Y0092579
X0068918Y0091876
X0069366Y0090854
X0068418Y0090876
X0068918Y0089876
X0069366Y0089116
X0068418Y0088876
X006875Y008795
X0068703Y0087279
X0069366Y0087379
X0068418Y0092876
X0067925Y0093325
X006585Y00951
X0065918Y0097876
X0064918
X0062918
X0061918
X0062167Y0098876
X0061418Y0098876
X0060418
X0060918Y0099876
X0062418Y0100876
Y0102876
X0061418
X0062167Y0103876
X0062918Y0103876
X0063918
X0064918
X0064418Y0102876
X0063418
Y0104876
X0062418
X0061418
X0061918Y0105876
X0060918
X0060917Y0106376
X0063417
X0062918Y0105876
X0063918
X0064918
X0064418Y0104876
X0065418
Y0102876
X0066418
X0067418
X0061418Y0096876
X0060917Y0096376
X0060418Y0094876
X0061418
X0062418
X0062918Y0093876
X0061918
X0060918
X0060418Y0090876
X0061418
X0060918Y0089876
X0062475Y0089725
X0062925Y0089225
X0062696Y0088575
X0061875Y0088575
X0062628Y0087272
X0065825Y009035
X00581Y0094725
X00489Y0095025
X004735Y0095225
X0044975Y009525
X00444Y009845
X004345Y00987
X00434Y009935
X00437Y0100325
X00431Y0089175
X0044575
X004765Y0089875
X0049702Y0089379
X0050238Y0088988
X004955Y00911
X004945Y0092475
X0050975Y00916
X00523Y0088225
X00469Y00875
X0043275Y0113475
X0053417Y0111376
X0068418Y0120876
X0041841Y0121204
X0042241Y0123329
Y0124954
X0040391
X0038816
X0037241
X0035791
X0034191
X0033141Y0124979
X0032341Y0125004
X0030766Y0125104
X0031141Y0121854
Y0121204
X0031066Y0120554
Y0119904
X0030966Y0119254
Y0118604
X0030366Y0118004
X0029716
X0029066
X0028416
X0027766
X0027066Y0117954
X0027166Y0118604
X0027066Y0119254
Y0119904
Y0120554
X0027166Y0121204
X0027766Y0121904
X0028416
X0029066
X0029716Y0121804
X0030366
X0034266Y0123329
X0035741
X0037241
X0038816
X0040416
X0040541Y0122504
X0040541Y0119904
X0038166Y0119804
X0037891Y0119054
X0036666Y0119629
Y0120879
X0036416Y0121754
X0035595Y0120258
Y0119008
Y0117758
X0036666Y0118379
Y0116279
Y0115229
X0036041Y0114604
X0036012Y0113425
X0034762
X0034166Y0112329
X0033191
X0031866
X0030616
X0031091Y0111729
X0031541Y0110979
X0032041Y0110129
X0030791Y0109154
X0029016
X0027741
X0026591
X0026616Y0110079
Y0110979
X0027241Y0111604
X0026491Y0112329
X0025241
X0025837Y0113425
X0027087
X0027591Y0112929
X0029116Y0112954
Y0114854
X0029716Y0114479
X0031341Y0114854
X0031991Y0114904
X0032462Y0113425
X0031212
X0027591Y0114729
X0024016Y0114429
X0022566
X0022562Y0116083
X0021466Y0116679
X0019875Y0116225
X0018616Y0116179
X0018166Y0116679
X0017416Y0117679
X001735Y01203
X0019216Y0119679
X0019375Y01212
X0021466Y0121454
Y0120204
X0021541Y0119204
X0022562Y0119225
Y01208
Y012205
X0018166Y0122879
X0018591Y0124154
X0018186Y0124874
X0016825Y012445
X0016425Y012205
X0014916Y0120679
X0014841Y0118504
X0014316Y0117704
X0013566Y0118404
X0012441Y0118004
X0012691Y0119354
X0012616Y0120004
X0012641Y0120654
X0012616Y0121354
X0012216Y0123329
X0012418Y0124876
X0013175Y0124425
X0010418Y0124876
X0008418
X0008918Y0123876
X0009616Y0123504
X0006418Y0122876
X0006466Y0120729
X0006401Y0120014
X0006491Y0117529
X00103Y0117474
X0010441Y0116204
X0012266Y0116179
X0013041Y0115429
X0013141Y0114454
X0013791Y0113604
X0015191
X0016141
X0017541
X0018391Y0114454
X0019975Y011475
X0019216Y0112329
X0019025Y011135
X0021425Y011015
X0022566Y0111729
X0024016
X0023241Y0107529
X0023266Y0105879
X0023166Y0104054
X0021841Y0104079
X0020691Y0104054
X0019641
Y0101754
X0019641Y0100629
X0020641Y0100579
X0020666Y0102129
X0023216
X0023291Y0100579
X0025566Y0100629
X0027418Y0100876
X0028418
X0028417Y0101376
X0027918Y0101876
X0026918
X0027418Y0102876
X0028418
X0029418
X0030418
X0031418
X003215Y0103392
X0030918Y0103876
X0029918
X0028918
X0027918
X0026918
X0027418Y0104876
X0028418
X0029418
X0030418
X0030918Y0105876
X0030917Y0106376
X0030418Y0106876
X0029418
X0028418
X0028417Y0106376
X0027918Y0105876
X0026918
X0027418Y0106876
X0028918Y0105876
X0029918
X0031418Y0106876
X0032258Y0106165
X0034166Y0107254
X0034918Y0107876
X0035418Y0106876
X0035666Y0106165
X0035566Y0103629
X0034966Y0103179
Y0102529
X0035391Y0101979
X00355Y0100425
X0033427Y010198
X0030918Y0101876
X0029918
X0028918
X0029418Y0100876
X0030418
X0027366Y0097179
X0026866
X0026241
X0023091Y0095879
X0021266Y0095929
X0020066
X0020666Y0094929
X0021241Y0093929
X0020066
X0020975Y0092325
X002415Y0093175
X0027875Y0090625
X003005Y009105
X0032052Y0091179
X0032795Y0090045
X0033725Y0090625
X0034375Y009185
X00355Y009255
X00379Y009195
X0038702Y0091204
X00375Y009045
X0037875Y00895
X0037475Y00889
X003895Y0087775
X00411Y0088575
X004155Y00895
X004195Y00944
Y009575
X0042625Y0095275
X0040505Y0096205
X0037918Y0095876
X0038Y0094725
X00402Y01005
X0038939Y0101967
X0038366Y0102529
Y0103179
X003905Y0103392
X0039191Y0106165
X0037574Y0107254
X0037918Y0107876
X0039291Y0109104
X0040066
X0041099Y0107254
X0042918Y0107876
X0042891Y0103104
X0042943Y0102406
X0041891Y0103079
Y0103729
X0042475Y0099349
X0042875Y0112829
X0042791Y0115129
X0041666Y0114629
X0040816Y0115479
Y0116879
X0041666Y0117729
X0038075Y01151
X00397Y0112625
X0035416Y0112329
X003655Y01093
X0034216Y0116204
X0025466Y0107529
X0020666Y0107479
Y0105904
X0019641Y0106354
X0018266Y0107579
X0016418Y0106876
X0016916Y0106354
X0014418Y0106876
X0013418
X0013417Y0106376
X0013918Y0105876
X0013418Y0104876
X0013916Y0104079
X0012991Y0103204
X0014841Y0103044
Y0105104
X0013916Y0101779
X0014841Y0100744
X0016541Y0100629
X0018266
X0019816Y0097504
X0016825Y0094725
X0013418Y0094876
X0012418
X0011418
X0010418
X0010918Y0093876
X0011918
X0012918
X0013918
X0013418Y0092876
X0012418
X0011418
X0010418
X0010918Y0095876
X0011918
X0012918
X0013918
Y0097876
X0012918
X0011918
Y0099876
X0009418Y0098876
X0006418Y0102876
X0006Y01058
X0006418Y0106876
Y0108876
X0007541Y0108904
X0008741
X0008918Y0109876
X0007918
X0006918
X0006418Y0110876
X0007418
X0008418
X0008417Y0111376
X0008341Y0113529
X0008991
X0009641Y0113229
X0010917Y0111376
X0011418Y0110876
X0010918Y0109876
X0012918
Y0111876
X001605Y0110525
X0013566Y0116679
X00095Y010795
X0003425Y010845
X000375Y011095
X0003918Y0123876
X0004918
X0004418Y0124876
X0003418
X0005418
X0025541Y0125279
X0027425Y00884
X002775Y0086575
X00293Y00866
X002975Y0087475
X003115Y00895
X0033525Y00875
X0034375Y0086525
X0035Y00887
X002635Y00862
X0022475
X0019841Y0086879
X0019166
X0018566Y0086879
Y0088379
X0019166Y0088379
X0019841
X0014918Y0087876
X0011918
X0008366Y0086904
X0015418Y0090876
X0016116Y0090179
X0014918Y0091876
X0000641Y0091279
Y0089566
Y0087841
Y0086104
Y0093016
Y0094741
Y0096504
Y0098241
Y0099966
Y0101779
Y0103516
Y0105241
Y0106979
Y0108716
Y0110441
Y0112179
Y0113916
Y0115641
X0001941Y0115579
Y0117779
X0002381Y0118744
Y0120014
X0002436Y0121284
X0001966Y0121754
Y0122479
X0001918Y0123876
X0002918
X0002418Y0124876
X0001291Y0125454
X0000641Y0124416
Y0122679
Y0120866
Y0119141
Y0117404
X0002966Y0114204
X0002541Y0113779
X0002966Y0113229
X0001941Y0113179
X0003Y01058
X0002541Y0103406
X0001418Y0126876
X0001918Y0127876
X0000641Y0127879
Y0129616
X0001418Y0128876
Y0130876
X0000641Y0131341
X0001918Y0131876
X0002918
X0002178Y0132716
X0000641Y0126141
X0005917Y0126376
X0005418Y0126876
X0006418
X0007816Y0126954
X0008391Y0128179
X0008418Y0128876
X0007418
X0007918Y0129876
X0008918
X0009616Y0130529
X0010918Y0129876
X0011741Y0130354
X0011741Y0129104
X0013866Y0128179
X0013418Y0126876
X0013417Y0126376
X0012491Y0126779
X001635Y0126875
X0020375Y0126975
X001905Y012875
X0021866Y0129204
X0022691Y0129179
X0023791Y0127729
X0023791Y0126879
Y0125979
X0026195Y0126408
X002747
X0028041Y0127579
X0029016
X0030216Y0128154
X0031691Y0127579
X0032566Y0127179
X0031095Y0126408
X0026791Y0127579
X0025341Y0128529
X002725Y012975
X00273Y01318
X0026928Y0132716
X0028653
X0030416
X0032153
X0033879
X0035691
X0035918Y0131876
X0035917Y0131376
X0035418Y0130876
X0036498Y0130724
Y0129324
X003733Y0128502
X003475Y012835
X0038166Y0126454
X0041166
X0042401Y0127401
X0042391Y0130454
X0042041Y0131304
Y0131829
X0042629Y0132716
X0040891
X0039153
X0038923Y0131804
X0038417Y0131376
X0037918Y0131876
X003732Y0131555
X0037429Y0132716
X0025191
X0023441
X0021716
X0019979
X0018241
X0016516
X0014778
X0012966
X0011241
X0009503
X0007741
X0007918Y0131876
X0006918
X0005918
X0005917Y0131376
X0005418Y0130876
X0004918Y0129876
X0004667Y0128876
X0004918Y0131876
X0003918
X0003417Y0131376
X0004279Y0132716
X0006016
X0007418Y0130876
X0008391Y0131279
X0013866Y0131279
X0014625Y012935
X0043223Y0129632
Y0128232
X0043918Y0131876
X0044354Y0132716
X0048441Y0127879
X0048341Y0126504
X0050616Y0125854
X0050216Y0127854
X005283Y0127593
X0053366Y0126304
X00545Y0127275
X0055391Y0129604
X0056541
X0054918Y0131876
X0053918
X0053729Y0132704
X0055712
X0057449
X0058066Y0132054
X0059174Y0132704
X0059091Y0131029
X0061066Y0131429
X0060937Y0132704
X0062674
X0062918Y0131876
X0063918
X0064918
X0065918
X0065917Y0131376
X0066918Y0131876
X0067918
X0067949Y0132704
X0066212
X0064399
X0064918Y0129876
X0064418Y0128876
X0064918Y0127876
X0064418Y0126876
X0064918Y0125876
X0067918
X0068418Y0126876
X0067918Y0127876
X0068418Y0128876
X0069366Y0129179
X0068918Y0129876
X0069366Y0130916
X0068418Y0130876
X0068918Y0131876
X0069366Y0127454
X0063116Y0127279
X0061066
X0062091Y0126254
X005985Y0128875
T02
X0036691Y0037629
X0037691
Y0038629
X0038691
Y0037629
Y0039629
X0037691
X0036691
Y0038629
T05
X0043859Y00106
X0045899
X0047939
X0046919Y00117
X0044879
X0049139Y000952
X0051429
X0041819Y00106
X0042839Y00117
X0040799
X0039599Y000952
X0037309
T07
X0046466Y0129158
X0051466
T08
X0064206Y0012674
X0066746
Y0015214
X0064206
Y0017754
X0066746
Y0020294
Y0022834
Y0025374
Y0027914
X0064206
Y0030454
X0066746
Y0032994
X0064206
Y0035534
Y0038074
X0066746
Y0035534
Y0040614
Y0043154
Y0045694
X0064206
Y0043154
Y0040614
Y0025374
Y0022834
Y0020294
X0005786Y0020319
Y0017779
Y0015239
Y0012699
Y0022859
Y0025399
Y0027939
Y0030479
Y0033019
Y0035559
Y0038099
Y0040639
Y0043179
Y0045719
X0003246
Y0043179
Y0040639
Y0038099
Y0035559
Y0033019
Y0030479
Y0027939
Y0025399
Y0022859
Y0020319
Y0017779
Y0015239
Y0012699
Y0048259
Y0050799
Y0053339
Y0055879
Y0058419
Y0060959
Y0063499
Y0066039
Y0068579
Y0071119
Y0073659
Y0076199
Y0078739
Y0081279
Y0083819
X0005786
Y0081279
Y0078739
Y0076199
Y0073659
Y0071119
Y0068579
Y0066039
Y0063499
Y0060959
Y0058419
Y0055879
Y0053339
Y0050799
Y0048259
X0064206Y0048234
Y0050774
X0066746
Y0053314
Y0055854
X0064206
Y0058394
X0066746
Y0060934
X0064206
Y0063474
Y0066014
X0066746
Y0063474
Y0068554
Y0071094
Y0073634
X0064206
Y0076174
Y0078714
X0066746
Y0076174
Y0081254
Y0083794
X0064206
Y0081254
Y0071094
Y0068554
Y0053314
X0066746Y0048234
Y0086334
Y0088874
Y0091414
Y0093954
X0064206
Y0096494
Y0099034
Y0101574
X0066746
Y0099034
Y0096494
X0064206Y0091414
Y0088874
Y0086334
X0046426Y0092074
X0043886
X0059126Y0114299
Y0116839
X0061666
Y0119379
Y0121919
X0059126
Y0119379
X0061666Y0114299
X0037536Y0097154
X0034996
Y0093979
X0032456
X0029916
X0010866Y0099059
Y0101599
X0005786
Y0099059
Y0096519
Y0093979
Y0091439
Y0088899
Y0086359
X0003246
Y0088899
Y0091439
Y0093979
Y0096519
Y0099059
Y0101599
X0003246Y0126999
Y0129539
X0017216Y0130809
X0019756
X0022296
X0024836
X0029916
X0032456
X0066746Y0129539
Y0126999
T09
X0056586Y0033019
Y0035559
X0059126
Y0038099
X0056586
Y0040639
Y0043179
Y0045719
X0059126
Y0043179
Y0040639
Y0033019
X0013406
X0010866
Y0035559
Y0038099
Y0040639
Y0043179
Y0045719
X0013406
Y0043179
Y0040639
Y0038099
Y0035559
Y0048259
X0010866
Y0050799
Y0053339
Y0055879
Y0058419
Y0060959
Y0063499
Y0066039
X0013406
Y0068579
X0010866
Y0073659
Y0076199
Y0078739
Y0081279
Y0083819
X0013406
Y0081279
Y0078739
Y0076199
Y0073659
Y0063499
Y0060959
Y0058419
Y0055879
Y0053339
Y0050799
X0056586
Y0048259
X0059126
Y0050799
Y0053339
X0056586
Y0055879
Y0058419
Y0060959
Y0063499
Y0066039
Y0068579
Y0071119
X0059126
Y0073659
X0056586
Y0077723
X0059126
Y0080263
Y0082803
Y0085343
X0056586
Y0082803
Y0080263
X0059126Y0068579
Y0066039
Y0063499
Y0060959
Y0058419
Y0055879
Y0087883
Y0090423
Y0092963
Y0095503
Y0098043
X0056586
Y0100583
X0059126
X0056586Y0095503
Y0092963
Y0090423
Y0087883
X0013406Y0088899
Y0091439
X0010866
Y0088899
Y0086359
X0013406
M30
