G04 Layer_Color=16711935*
%FSLAX43Y43*%
%MOMM*%
G71*
G01*
G75*
%ADD83C,0.100*%
%ADD84C,0.100*%
%ADD108R,2.000X8.500*%
%ADD140C,1.100*%
%ADD142R,0.800X0.610*%
%ADD143R,1.100X0.740*%
%ADD144R,0.610X0.800*%
%ADD145R,0.740X1.100*%
%ADD162C,1.200*%
%ADD163C,1.600*%
%ADD164C,1.950*%
%ADD165R,1.950X1.950*%
%ADD166R,1.950X1.950*%
%ADD167O,1.400X2.900*%
%ADD168R,1.100X1.100*%
%ADD169O,1.150X1.350*%
%ADD170O,1.050X2.625*%
G04:AMPARAMS|DCode=171|XSize=2mm|YSize=1.475mm|CornerRadius=0.394mm|HoleSize=0mm|Usage=FLASHONLY|Rotation=90.000|XOffset=0mm|YOffset=0mm|HoleType=Round|Shape=RoundedRectangle|*
%AMROUNDEDRECTD171*
21,1,2.000,0.688,0,0,90.0*
21,1,1.212,1.475,0,0,90.0*
1,1,0.787,0.344,0.606*
1,1,0.787,0.344,-0.606*
1,1,0.787,-0.344,-0.606*
1,1,0.787,-0.344,0.606*
%
%ADD171ROUNDEDRECTD171*%
%ADD172C,1.070*%
%ADD173C,1.290*%
%ADD174O,1.300X2.000*%
%ADD175C,3.403*%
%ADD176R,0.500X1.300*%
%ADD177R,1.100X1.500*%
%ADD178R,1.160X0.640*%
%ADD179C,0.653*%
G36*
X46575Y56925D02*
X45475D01*
Y58275D01*
X46025Y57725D01*
Y57725D01*
X46575Y58275D01*
Y56925D01*
D02*
G37*
G36*
X44975Y58375D02*
X44425Y57825D01*
X43875Y58375D01*
Y59075D01*
X44975D01*
Y58375D01*
D02*
G37*
G36*
Y56925D02*
X43875D01*
Y58275D01*
X44425Y57725D01*
Y57725D01*
X44975Y58275D01*
Y56925D01*
D02*
G37*
G36*
X19150Y57225D02*
X18562D01*
X18362Y57625D01*
X18562Y58025D01*
X19150D01*
Y57225D01*
D02*
G37*
G36*
X43425Y57725D02*
X42875Y58275D01*
Y58275D01*
X42325Y57725D01*
Y59075D01*
X43425D01*
Y57725D01*
D02*
G37*
G36*
X27075Y59450D02*
Y58750D01*
X25975D01*
Y59450D01*
X26525Y60000D01*
X27075Y59450D01*
D02*
G37*
G36*
X28475D02*
Y58750D01*
X27375D01*
Y59450D01*
X27925Y60000D01*
X28475Y59450D01*
D02*
G37*
G36*
X51875Y58300D02*
X51287D01*
X51088Y58700D01*
X51287Y59100D01*
X51875D01*
Y58300D01*
D02*
G37*
G36*
X46575Y58375D02*
X46025Y57825D01*
X45475Y58375D01*
Y59075D01*
X46575D01*
Y58375D01*
D02*
G37*
G36*
X50987Y58700D02*
X51188Y58300D01*
X50375D01*
Y59100D01*
X51188D01*
X50987Y58700D01*
D02*
G37*
G36*
X18263Y57625D02*
X18462Y57225D01*
X17650D01*
Y58025D01*
X18462D01*
X18263Y57625D01*
D02*
G37*
G36*
X51162Y55275D02*
X50963Y54875D01*
X50375D01*
Y55675D01*
X50963D01*
X51162Y55275D01*
D02*
G37*
G36*
X51875Y54875D02*
X51062D01*
X51263Y55275D01*
X51062Y55675D01*
X51875D01*
Y54875D01*
D02*
G37*
G36*
X19150Y54500D02*
X18337D01*
X18538Y54900D01*
X18337Y55300D01*
X19150D01*
Y54500D01*
D02*
G37*
G36*
X41775Y54225D02*
X41225Y54775D01*
Y54775D01*
X40675Y54225D01*
Y55575D01*
X41775D01*
Y54225D01*
D02*
G37*
G36*
X18438Y54900D02*
X18237Y54500D01*
X17650D01*
Y55300D01*
X18237D01*
X18438Y54900D01*
D02*
G37*
G36*
X51875Y55975D02*
X51062D01*
X51263Y56375D01*
X51062Y56775D01*
X51875D01*
Y55975D01*
D02*
G37*
G36*
X43425Y57625D02*
Y56925D01*
X42325D01*
Y57625D01*
X42875Y58175D01*
X43425Y57625D01*
D02*
G37*
G36*
X51162Y56375D02*
X50963Y55975D01*
X50375D01*
Y56775D01*
X50963D01*
X51162Y56375D01*
D02*
G37*
G36*
X18263Y56000D02*
X18462Y55600D01*
X17650D01*
Y56400D01*
X18462D01*
X18263Y56000D01*
D02*
G37*
G36*
X19150Y55600D02*
X18562D01*
X18362Y56000D01*
X18562Y56400D01*
X19150D01*
Y55600D01*
D02*
G37*
G36*
X34900Y63525D02*
Y62825D01*
X33800D01*
Y63525D01*
X34350Y64075D01*
X34900Y63525D01*
D02*
G37*
G36*
X36300D02*
Y62825D01*
X35200D01*
Y63525D01*
X35750Y64075D01*
X36300Y63525D01*
D02*
G37*
G36*
X51875Y62275D02*
X51062D01*
X51263Y62675D01*
X51062Y63075D01*
X51875D01*
Y62275D01*
D02*
G37*
G36*
X19150Y61650D02*
X18337D01*
X18538Y62050D01*
X18337Y62450D01*
X19150D01*
Y61650D01*
D02*
G37*
G36*
X51162Y62675D02*
X50963Y62275D01*
X50375D01*
Y63075D01*
X50963D01*
X51162Y62675D01*
D02*
G37*
G36*
X34900Y63625D02*
X34350Y64175D01*
Y64175D01*
X33800Y63625D01*
Y64975D01*
X34900D01*
Y63625D01*
D02*
G37*
G36*
X36300D02*
X35750Y64175D01*
Y64175D01*
X35200Y63625D01*
Y64975D01*
X36300D01*
Y63625D01*
D02*
G37*
G36*
X46800Y63125D02*
X45450D01*
X46000Y63675D01*
X46000D01*
X45450Y64225D01*
X46800D01*
Y63125D01*
D02*
G37*
G36*
X37700Y63525D02*
Y62825D01*
X36600D01*
Y63525D01*
X37150Y64075D01*
X37700Y63525D01*
D02*
G37*
G36*
X45900Y63675D02*
X45350Y63125D01*
X44650D01*
Y64225D01*
X45350D01*
X45900Y63675D01*
D02*
G37*
G36*
X18438Y62050D02*
X18237Y61650D01*
X17650D01*
Y62450D01*
X18237D01*
X18438Y62050D01*
D02*
G37*
G36*
X51875Y59375D02*
X51287D01*
X51088Y59775D01*
X51287Y60175D01*
X51875D01*
Y59375D01*
D02*
G37*
G36*
X27075Y59550D02*
X26525Y60100D01*
Y60100D01*
X25975Y59550D01*
Y60900D01*
X27075D01*
Y59550D01*
D02*
G37*
G36*
X50987Y59775D02*
X51188Y59375D01*
X50375D01*
Y60175D01*
X51188D01*
X50987Y59775D01*
D02*
G37*
G36*
X18263Y59350D02*
X18462Y58950D01*
X17650D01*
Y59750D01*
X18462D01*
X18263Y59350D01*
D02*
G37*
G36*
X19150Y58950D02*
X18562D01*
X18362Y59350D01*
X18562Y59750D01*
X19150D01*
Y58950D01*
D02*
G37*
G36*
X51162Y61575D02*
X50963Y61175D01*
X50375D01*
Y61975D01*
X50963D01*
X51162Y61575D01*
D02*
G37*
G36*
X51875Y61175D02*
X51062D01*
X51263Y61575D01*
X51062Y61975D01*
X51875D01*
Y61175D01*
D02*
G37*
G36*
X19150Y60550D02*
X18337D01*
X18538Y60950D01*
X18337Y61350D01*
X19150D01*
Y60550D01*
D02*
G37*
G36*
X28475Y59550D02*
X27925Y60100D01*
Y60100D01*
X27375Y59550D01*
Y60900D01*
X28475D01*
Y59550D01*
D02*
G37*
G36*
X18438Y60950D02*
X18237Y60550D01*
X17650D01*
Y61350D01*
X18237D01*
X18438Y60950D01*
D02*
G37*
G36*
X51875Y53775D02*
X51287D01*
X51088Y54175D01*
X51287Y54575D01*
X51875D01*
Y53775D01*
D02*
G37*
G36*
X34635Y-16899D02*
X34365D01*
Y-16630D01*
X34635D01*
Y-16899D01*
D02*
G37*
G36*
X33133Y-14950D02*
X33230Y-14964D01*
X33274Y-14972D01*
X33316Y-14983D01*
X33355Y-14992D01*
X33391Y-15003D01*
X33424Y-15014D01*
X33452Y-15025D01*
X33477Y-15036D01*
X33499Y-15044D01*
X33516Y-15053D01*
X33527Y-15058D01*
X33535Y-15061D01*
X33538Y-15064D01*
X33577Y-15089D01*
X33616Y-15114D01*
X33683Y-15172D01*
X33741Y-15230D01*
X33788Y-15292D01*
X33827Y-15344D01*
X33841Y-15367D01*
X33852Y-15389D01*
X33863Y-15405D01*
X33869Y-15417D01*
X33871Y-15425D01*
X33874Y-15428D01*
X33913Y-15519D01*
X33941Y-15611D01*
X33963Y-15700D01*
X33968Y-15741D01*
X33977Y-15780D01*
X33980Y-15816D01*
X33985Y-15847D01*
X33988Y-15877D01*
Y-15902D01*
X33991Y-15922D01*
Y-15936D01*
Y-15947D01*
Y-15950D01*
X33985Y-16052D01*
X33971Y-16149D01*
X33963Y-16194D01*
X33955Y-16235D01*
X33944Y-16277D01*
X33932Y-16313D01*
X33921Y-16347D01*
X33910Y-16374D01*
X33902Y-16402D01*
X33894Y-16421D01*
X33885Y-16441D01*
X33880Y-16452D01*
X33874Y-16460D01*
Y-16463D01*
X33824Y-16544D01*
X33769Y-16613D01*
X33710Y-16674D01*
X33655Y-16724D01*
X33602Y-16763D01*
X33583Y-16777D01*
X33563Y-16791D01*
X33547Y-16799D01*
X33535Y-16807D01*
X33527Y-16810D01*
X33524Y-16813D01*
X33480Y-16835D01*
X33435Y-16852D01*
X33347Y-16882D01*
X33261Y-16902D01*
X33180Y-16918D01*
X33144Y-16921D01*
X33111Y-16927D01*
X33080Y-16930D01*
X33055D01*
X33036Y-16932D01*
X33008D01*
X32930Y-16930D01*
X32855Y-16921D01*
X32786Y-16907D01*
X32725Y-16893D01*
X32700Y-16888D01*
X32675Y-16882D01*
X32653Y-16874D01*
X32633Y-16868D01*
X32619Y-16863D01*
X32608Y-16860D01*
X32603Y-16857D01*
X32600D01*
X32525Y-16827D01*
X32455Y-16791D01*
X32389Y-16752D01*
X32331Y-16716D01*
X32306Y-16699D01*
X32281Y-16682D01*
X32261Y-16669D01*
X32244Y-16657D01*
X32231Y-16646D01*
X32219Y-16638D01*
X32214Y-16635D01*
X32211Y-16632D01*
Y-15919D01*
X33027D01*
Y-16147D01*
X32461D01*
Y-16508D01*
X32494Y-16535D01*
X32533Y-16560D01*
X32575Y-16583D01*
X32614Y-16602D01*
X32647Y-16619D01*
X32678Y-16632D01*
X32689Y-16638D01*
X32694Y-16641D01*
X32700Y-16644D01*
X32703D01*
X32761Y-16663D01*
X32819Y-16680D01*
X32872Y-16691D01*
X32922Y-16696D01*
X32963Y-16702D01*
X32980D01*
X32997Y-16705D01*
X33025D01*
X33094Y-16702D01*
X33161Y-16691D01*
X33222Y-16677D01*
X33277Y-16663D01*
X33322Y-16646D01*
X33341Y-16641D01*
X33355Y-16635D01*
X33369Y-16630D01*
X33377Y-16624D01*
X33383Y-16621D01*
X33385D01*
X33444Y-16585D01*
X33497Y-16546D01*
X33541Y-16505D01*
X33577Y-16463D01*
X33608Y-16424D01*
X33627Y-16394D01*
X33635Y-16383D01*
X33638Y-16374D01*
X33644Y-16369D01*
Y-16366D01*
X33671Y-16297D01*
X33694Y-16224D01*
X33708Y-16152D01*
X33719Y-16083D01*
X33721Y-16052D01*
X33724Y-16024D01*
X33727Y-15997D01*
Y-15975D01*
X33730Y-15958D01*
Y-15944D01*
Y-15936D01*
Y-15933D01*
X33727Y-15855D01*
X33719Y-15786D01*
X33708Y-15719D01*
X33694Y-15661D01*
X33688Y-15636D01*
X33680Y-15614D01*
X33674Y-15594D01*
X33669Y-15578D01*
X33663Y-15564D01*
X33660Y-15555D01*
X33658Y-15550D01*
Y-15547D01*
X33638Y-15508D01*
X33619Y-15472D01*
X33599Y-15439D01*
X33580Y-15411D01*
X33563Y-15389D01*
X33549Y-15369D01*
X33538Y-15358D01*
X33535Y-15355D01*
X33505Y-15325D01*
X33472Y-15297D01*
X33435Y-15275D01*
X33402Y-15253D01*
X33374Y-15239D01*
X33352Y-15225D01*
X33336Y-15219D01*
X33330Y-15217D01*
X33280Y-15197D01*
X33230Y-15183D01*
X33177Y-15175D01*
X33130Y-15167D01*
X33088Y-15164D01*
X33072D01*
X33058Y-15161D01*
X33027D01*
X32975Y-15164D01*
X32925Y-15169D01*
X32880Y-15178D01*
X32841Y-15186D01*
X32808Y-15197D01*
X32783Y-15206D01*
X32769Y-15211D01*
X32764Y-15214D01*
X32722Y-15233D01*
X32686Y-15255D01*
X32653Y-15278D01*
X32628Y-15300D01*
X32608Y-15319D01*
X32591Y-15333D01*
X32583Y-15344D01*
X32580Y-15347D01*
X32555Y-15380D01*
X32536Y-15419D01*
X32517Y-15455D01*
X32500Y-15494D01*
X32489Y-15528D01*
X32480Y-15553D01*
X32478Y-15564D01*
X32475Y-15572D01*
X32472Y-15575D01*
Y-15578D01*
X32242Y-15516D01*
X32261Y-15447D01*
X32286Y-15386D01*
X32311Y-15330D01*
X32333Y-15286D01*
X32355Y-15250D01*
X32372Y-15225D01*
X32383Y-15208D01*
X32389Y-15203D01*
X32428Y-15158D01*
X32469Y-15122D01*
X32514Y-15089D01*
X32555Y-15061D01*
X32594Y-15042D01*
X32625Y-15025D01*
X32636Y-15019D01*
X32644Y-15017D01*
X32650Y-15014D01*
X32653D01*
X32716Y-14992D01*
X32783Y-14975D01*
X32844Y-14961D01*
X32902Y-14953D01*
X32955Y-14947D01*
X32977D01*
X32994Y-14945D01*
X33083D01*
X33133Y-14950D01*
D02*
G37*
G36*
X31847Y-16899D02*
X31115D01*
X31048Y-16896D01*
X30990Y-16893D01*
X30937Y-16888D01*
X30892Y-16882D01*
X30856Y-16877D01*
X30829Y-16874D01*
X30812Y-16868D01*
X30806D01*
X30759Y-16855D01*
X30720Y-16841D01*
X30684Y-16824D01*
X30654Y-16807D01*
X30629Y-16796D01*
X30609Y-16785D01*
X30598Y-16777D01*
X30595Y-16774D01*
X30565Y-16749D01*
X30537Y-16719D01*
X30515Y-16688D01*
X30493Y-16660D01*
X30476Y-16632D01*
X30465Y-16613D01*
X30457Y-16599D01*
X30454Y-16594D01*
X30434Y-16549D01*
X30420Y-16505D01*
X30409Y-16463D01*
X30404Y-16424D01*
X30398Y-16391D01*
X30395Y-16363D01*
Y-16347D01*
Y-16344D01*
Y-16341D01*
X30398Y-16280D01*
X30409Y-16224D01*
X30426Y-16177D01*
X30443Y-16133D01*
X30459Y-16099D01*
X30476Y-16074D01*
X30487Y-16058D01*
X30490Y-16052D01*
X30529Y-16008D01*
X30570Y-15972D01*
X30618Y-15941D01*
X30659Y-15916D01*
X30698Y-15897D01*
X30731Y-15886D01*
X30743Y-15880D01*
X30751Y-15877D01*
X30756Y-15875D01*
X30759D01*
X30712Y-15847D01*
X30670Y-15819D01*
X30637Y-15789D01*
X30609Y-15761D01*
X30587Y-15739D01*
X30570Y-15716D01*
X30562Y-15705D01*
X30559Y-15700D01*
X30537Y-15658D01*
X30520Y-15619D01*
X30507Y-15580D01*
X30498Y-15544D01*
X30493Y-15514D01*
X30490Y-15489D01*
Y-15475D01*
Y-15469D01*
X30493Y-15422D01*
X30501Y-15375D01*
X30515Y-15333D01*
X30529Y-15294D01*
X30543Y-15261D01*
X30557Y-15239D01*
X30565Y-15222D01*
X30568Y-15217D01*
X30598Y-15175D01*
X30631Y-15136D01*
X30668Y-15106D01*
X30701Y-15081D01*
X30729Y-15061D01*
X30754Y-15047D01*
X30770Y-15039D01*
X30773Y-15036D01*
X30776D01*
X30829Y-15017D01*
X30887Y-15003D01*
X30945Y-14992D01*
X31001Y-14986D01*
X31051Y-14981D01*
X31073D01*
X31092Y-14978D01*
X31847D01*
Y-16899D01*
D02*
G37*
G36*
X69117Y-15478D02*
X69164Y-15486D01*
X69205Y-15494D01*
X69241Y-15505D01*
X69272Y-15519D01*
X69294Y-15528D01*
X69308Y-15536D01*
X69314Y-15539D01*
X69352Y-15564D01*
X69386Y-15591D01*
X69416Y-15619D01*
X69441Y-15647D01*
X69461Y-15669D01*
X69477Y-15689D01*
X69486Y-15700D01*
X69489Y-15705D01*
Y-15505D01*
X69700D01*
Y-16899D01*
X69464D01*
Y-16177D01*
X69461Y-16111D01*
X69458Y-16052D01*
X69452Y-16002D01*
X69444Y-15961D01*
X69436Y-15930D01*
X69430Y-15908D01*
X69427Y-15894D01*
X69425Y-15888D01*
X69408Y-15852D01*
X69389Y-15822D01*
X69369Y-15794D01*
X69350Y-15772D01*
X69330Y-15755D01*
X69316Y-15744D01*
X69305Y-15736D01*
X69303Y-15733D01*
X69269Y-15716D01*
X69239Y-15702D01*
X69205Y-15694D01*
X69178Y-15686D01*
X69155Y-15683D01*
X69136Y-15680D01*
X69119D01*
X69072Y-15683D01*
X69033Y-15691D01*
X69000Y-15705D01*
X68975Y-15719D01*
X68955Y-15736D01*
X68942Y-15747D01*
X68933Y-15758D01*
X68930Y-15761D01*
X68911Y-15794D01*
X68897Y-15830D01*
X68886Y-15869D01*
X68881Y-15908D01*
X68875Y-15941D01*
X68872Y-15972D01*
Y-15983D01*
Y-15988D01*
Y-15994D01*
Y-15997D01*
Y-16899D01*
X68636D01*
Y-16091D01*
X68631Y-16016D01*
X68620Y-15952D01*
X68606Y-15900D01*
X68586Y-15855D01*
X68570Y-15822D01*
X68553Y-15800D01*
X68542Y-15786D01*
X68539Y-15780D01*
X68500Y-15747D01*
X68459Y-15722D01*
X68417Y-15705D01*
X68378Y-15691D01*
X68345Y-15686D01*
X68317Y-15683D01*
X68306Y-15680D01*
X68292D01*
X68261Y-15683D01*
X68236Y-15686D01*
X68211Y-15691D01*
X68192Y-15700D01*
X68173Y-15708D01*
X68161Y-15714D01*
X68153Y-15716D01*
X68150Y-15719D01*
X68128Y-15736D01*
X68112Y-15752D01*
X68098Y-15769D01*
X68087Y-15786D01*
X68078Y-15800D01*
X68073Y-15811D01*
X68067Y-15819D01*
Y-15822D01*
X68059Y-15847D01*
X68053Y-15880D01*
X68050Y-15913D01*
X68048Y-15947D01*
X68045Y-15977D01*
Y-16002D01*
Y-16019D01*
Y-16022D01*
Y-16024D01*
Y-16899D01*
X67809D01*
Y-15944D01*
Y-15900D01*
X67814Y-15861D01*
X67820Y-15822D01*
X67826Y-15789D01*
X67834Y-15755D01*
X67845Y-15727D01*
X67853Y-15702D01*
X67864Y-15677D01*
X67876Y-15658D01*
X67884Y-15639D01*
X67903Y-15614D01*
X67914Y-15597D01*
X67920Y-15591D01*
X67964Y-15553D01*
X68017Y-15525D01*
X68070Y-15503D01*
X68120Y-15489D01*
X68167Y-15480D01*
X68186Y-15478D01*
X68206D01*
X68220Y-15475D01*
X68239D01*
X68289Y-15478D01*
X68334Y-15486D01*
X68378Y-15497D01*
X68420Y-15514D01*
X68459Y-15533D01*
X68495Y-15553D01*
X68525Y-15575D01*
X68556Y-15597D01*
X68583Y-15622D01*
X68606Y-15644D01*
X68625Y-15664D01*
X68642Y-15683D01*
X68656Y-15700D01*
X68664Y-15711D01*
X68670Y-15719D01*
X68672Y-15722D01*
X68689Y-15680D01*
X68711Y-15644D01*
X68736Y-15614D01*
X68758Y-15589D01*
X68781Y-15566D01*
X68797Y-15553D01*
X68808Y-15544D01*
X68814Y-15541D01*
X68853Y-15519D01*
X68894Y-15503D01*
X68936Y-15491D01*
X68978Y-15483D01*
X69011Y-15478D01*
X69042Y-15475D01*
X69067D01*
X69117Y-15478D01*
D02*
G37*
G36*
X29457Y-14947D02*
X29521Y-14956D01*
X29582Y-14967D01*
X29635Y-14978D01*
X29676Y-14989D01*
X29696Y-14995D01*
X29710Y-15000D01*
X29721Y-15006D01*
X29729Y-15008D01*
X29735Y-15011D01*
X29738D01*
X29793Y-15039D01*
X29843Y-15069D01*
X29885Y-15103D01*
X29918Y-15133D01*
X29943Y-15161D01*
X29962Y-15183D01*
X29976Y-15200D01*
X29979Y-15203D01*
Y-15206D01*
X30007Y-15253D01*
X30026Y-15300D01*
X30040Y-15347D01*
X30048Y-15389D01*
X30054Y-15425D01*
X30060Y-15453D01*
Y-15464D01*
Y-15472D01*
Y-15475D01*
Y-15478D01*
X30057Y-15525D01*
X30048Y-15569D01*
X30037Y-15611D01*
X30026Y-15647D01*
X30015Y-15675D01*
X30004Y-15697D01*
X29996Y-15711D01*
X29993Y-15716D01*
X29965Y-15755D01*
X29932Y-15791D01*
X29899Y-15822D01*
X29865Y-15847D01*
X29837Y-15869D01*
X29812Y-15883D01*
X29796Y-15894D01*
X29793Y-15897D01*
X29790D01*
X29768Y-15908D01*
X29743Y-15919D01*
X29688Y-15938D01*
X29624Y-15958D01*
X29563Y-15977D01*
X29507Y-15994D01*
X29482Y-16000D01*
X29460Y-16005D01*
X29443Y-16011D01*
X29429Y-16013D01*
X29421Y-16016D01*
X29418D01*
X29371Y-16027D01*
X29327Y-16038D01*
X29288Y-16049D01*
X29254Y-16058D01*
X29221Y-16066D01*
X29193Y-16074D01*
X29168Y-16080D01*
X29149Y-16088D01*
X29130Y-16094D01*
X29116Y-16097D01*
X29093Y-16105D01*
X29080Y-16108D01*
X29077Y-16111D01*
X29035Y-16127D01*
X28999Y-16147D01*
X28969Y-16166D01*
X28946Y-16183D01*
X28927Y-16199D01*
X28916Y-16211D01*
X28907Y-16219D01*
X28905Y-16222D01*
X28885Y-16247D01*
X28871Y-16274D01*
X28863Y-16302D01*
X28855Y-16324D01*
X28852Y-16347D01*
X28849Y-16363D01*
Y-16377D01*
Y-16380D01*
X28852Y-16413D01*
X28857Y-16444D01*
X28866Y-16471D01*
X28877Y-16494D01*
X28888Y-16516D01*
X28896Y-16530D01*
X28902Y-16541D01*
X28905Y-16544D01*
X28927Y-16571D01*
X28955Y-16594D01*
X28982Y-16613D01*
X29007Y-16632D01*
X29032Y-16644D01*
X29052Y-16655D01*
X29066Y-16660D01*
X29071Y-16663D01*
X29113Y-16677D01*
X29157Y-16688D01*
X29202Y-16694D01*
X29241Y-16699D01*
X29274Y-16702D01*
X29302Y-16705D01*
X29327D01*
X29388Y-16702D01*
X29443Y-16696D01*
X29493Y-16688D01*
X29538Y-16677D01*
X29574Y-16666D01*
X29601Y-16657D01*
X29610Y-16655D01*
X29618Y-16652D01*
X29621Y-16649D01*
X29624D01*
X29668Y-16627D01*
X29710Y-16602D01*
X29740Y-16577D01*
X29768Y-16552D01*
X29790Y-16533D01*
X29804Y-16513D01*
X29812Y-16502D01*
X29815Y-16499D01*
X29835Y-16463D01*
X29854Y-16424D01*
X29865Y-16383D01*
X29876Y-16347D01*
X29885Y-16310D01*
X29890Y-16285D01*
Y-16274D01*
X29893Y-16266D01*
Y-16263D01*
Y-16260D01*
X30132Y-16283D01*
X30126Y-16352D01*
X30115Y-16419D01*
X30098Y-16477D01*
X30079Y-16530D01*
X30060Y-16571D01*
X30051Y-16588D01*
X30046Y-16602D01*
X30037Y-16613D01*
X30035Y-16621D01*
X30029Y-16627D01*
Y-16630D01*
X29987Y-16682D01*
X29943Y-16730D01*
X29896Y-16769D01*
X29851Y-16802D01*
X29812Y-16827D01*
X29779Y-16843D01*
X29768Y-16849D01*
X29760Y-16855D01*
X29754Y-16857D01*
X29751D01*
X29682Y-16882D01*
X29610Y-16902D01*
X29538Y-16913D01*
X29468Y-16924D01*
X29435Y-16927D01*
X29407Y-16930D01*
X29382D01*
X29360Y-16932D01*
X29316D01*
X29241Y-16930D01*
X29171Y-16921D01*
X29107Y-16907D01*
X29055Y-16893D01*
X29010Y-16882D01*
X28991Y-16874D01*
X28974Y-16868D01*
X28963Y-16863D01*
X28955Y-16860D01*
X28949Y-16857D01*
X28946D01*
X28888Y-16827D01*
X28838Y-16794D01*
X28794Y-16757D01*
X28758Y-16724D01*
X28730Y-16696D01*
X28710Y-16671D01*
X28696Y-16655D01*
X28694Y-16652D01*
Y-16649D01*
X28663Y-16596D01*
X28641Y-16546D01*
X28627Y-16499D01*
X28616Y-16455D01*
X28610Y-16416D01*
X28605Y-16385D01*
Y-16374D01*
Y-16366D01*
Y-16363D01*
Y-16360D01*
X28608Y-16305D01*
X28616Y-16252D01*
X28630Y-16205D01*
X28644Y-16166D01*
X28660Y-16133D01*
X28671Y-16108D01*
X28683Y-16094D01*
X28685Y-16088D01*
X28719Y-16047D01*
X28758Y-16008D01*
X28799Y-15975D01*
X28841Y-15944D01*
X28877Y-15922D01*
X28907Y-15905D01*
X28919Y-15900D01*
X28927Y-15894D01*
X28932Y-15891D01*
X28935D01*
X28957Y-15880D01*
X28985Y-15872D01*
X29016Y-15861D01*
X29049Y-15850D01*
X29118Y-15830D01*
X29191Y-15811D01*
X29224Y-15802D01*
X29254Y-15794D01*
X29285Y-15786D01*
X29310Y-15780D01*
X29329Y-15775D01*
X29346Y-15772D01*
X29357Y-15769D01*
X29360D01*
X29415Y-15755D01*
X29465Y-15744D01*
X29510Y-15730D01*
X29549Y-15719D01*
X29585Y-15705D01*
X29615Y-15694D01*
X29643Y-15683D01*
X29668Y-15675D01*
X29688Y-15664D01*
X29704Y-15655D01*
X29715Y-15650D01*
X29726Y-15641D01*
X29740Y-15633D01*
X29743Y-15630D01*
X29768Y-15603D01*
X29785Y-15575D01*
X29799Y-15547D01*
X29807Y-15519D01*
X29812Y-15497D01*
X29815Y-15478D01*
Y-15466D01*
Y-15461D01*
X29810Y-15417D01*
X29799Y-15378D01*
X29782Y-15344D01*
X29763Y-15314D01*
X29746Y-15292D01*
X29729Y-15272D01*
X29718Y-15261D01*
X29713Y-15258D01*
X29690Y-15244D01*
X29668Y-15230D01*
X29615Y-15208D01*
X29560Y-15194D01*
X29504Y-15183D01*
X29454Y-15178D01*
X29432Y-15175D01*
X29415Y-15172D01*
X29377D01*
X29299Y-15175D01*
X29229Y-15186D01*
X29174Y-15203D01*
X29127Y-15219D01*
X29091Y-15236D01*
X29063Y-15253D01*
X29049Y-15264D01*
X29043Y-15267D01*
X29005Y-15305D01*
X28974Y-15347D01*
X28949Y-15392D01*
X28932Y-15436D01*
X28921Y-15478D01*
X28913Y-15508D01*
X28910Y-15522D01*
X28907Y-15530D01*
Y-15536D01*
Y-15539D01*
X28663Y-15519D01*
X28669Y-15458D01*
X28683Y-15403D01*
X28696Y-15350D01*
X28716Y-15305D01*
X28733Y-15269D01*
X28746Y-15242D01*
X28752Y-15233D01*
X28758Y-15225D01*
X28760Y-15222D01*
Y-15219D01*
X28796Y-15172D01*
X28835Y-15131D01*
X28877Y-15094D01*
X28919Y-15067D01*
X28955Y-15042D01*
X28982Y-15028D01*
X28993Y-15022D01*
X29002Y-15017D01*
X29007Y-15014D01*
X29010D01*
X29071Y-14992D01*
X29138Y-14975D01*
X29199Y-14961D01*
X29257Y-14953D01*
X29310Y-14947D01*
X29329D01*
X29349Y-14945D01*
X29385D01*
X29457Y-14947D01*
D02*
G37*
G36*
X55900Y5800D02*
X54550D01*
X55100Y6350D01*
X55100D01*
X54550Y6900D01*
X55900D01*
Y5800D01*
D02*
G37*
G36*
X11312Y14125D02*
X11512Y13725D01*
X10700D01*
Y14525D01*
X11512D01*
X11312Y14125D01*
D02*
G37*
G36*
X55000Y6350D02*
X54450Y5800D01*
X53750D01*
Y6900D01*
X54450D01*
X55000Y6350D01*
D02*
G37*
G36*
X33775D02*
X33775D01*
X34325Y5800D01*
X32975D01*
Y6900D01*
X34325D01*
X33775Y6350D01*
D02*
G37*
G36*
X35125Y5800D02*
X34425D01*
X33875Y6350D01*
X34425Y6900D01*
X35125D01*
Y5800D01*
D02*
G37*
G36*
X72645Y-15161D02*
Y-15505D01*
X72820D01*
Y-15689D01*
X72645D01*
Y-16494D01*
Y-16533D01*
Y-16566D01*
X72642Y-16596D01*
X72640Y-16627D01*
Y-16652D01*
X72637Y-16674D01*
X72631Y-16710D01*
X72626Y-16738D01*
X72623Y-16757D01*
X72617Y-16769D01*
Y-16771D01*
X72606Y-16796D01*
X72590Y-16816D01*
X72573Y-16835D01*
X72559Y-16849D01*
X72542Y-16863D01*
X72531Y-16871D01*
X72523Y-16877D01*
X72520Y-16880D01*
X72490Y-16893D01*
X72459Y-16902D01*
X72426Y-16910D01*
X72392Y-16913D01*
X72365Y-16916D01*
X72342Y-16918D01*
X72320D01*
X72259Y-16916D01*
X72229Y-16913D01*
X72201Y-16907D01*
X72176Y-16905D01*
X72156Y-16902D01*
X72145Y-16899D01*
X72140D01*
X72170Y-16691D01*
X72193Y-16694D01*
X72215Y-16696D01*
X72234D01*
X72248Y-16699D01*
X72276D01*
X72312Y-16696D01*
X72337Y-16691D01*
X72351Y-16685D01*
X72356Y-16682D01*
X72376Y-16669D01*
X72387Y-16655D01*
X72395Y-16644D01*
X72398Y-16638D01*
X72401Y-16624D01*
X72404Y-16605D01*
X72406Y-16560D01*
X72409Y-16541D01*
Y-16524D01*
Y-16513D01*
Y-16508D01*
Y-15689D01*
X72170D01*
Y-15505D01*
X72409D01*
Y-15019D01*
X72645Y-15161D01*
D02*
G37*
G36*
X70674Y-15478D02*
X70718Y-15480D01*
X70804Y-15500D01*
X70879Y-15525D01*
X70913Y-15539D01*
X70943Y-15553D01*
X70971Y-15566D01*
X70993Y-15580D01*
X71015Y-15594D01*
X71032Y-15605D01*
X71046Y-15616D01*
X71057Y-15625D01*
X71063Y-15627D01*
X71065Y-15630D01*
X71104Y-15666D01*
X71135Y-15708D01*
X71165Y-15752D01*
X71188Y-15797D01*
X71210Y-15844D01*
X71226Y-15894D01*
X71240Y-15941D01*
X71251Y-15986D01*
X71263Y-16030D01*
X71268Y-16069D01*
X71274Y-16108D01*
X71276Y-16138D01*
Y-16166D01*
X71279Y-16186D01*
Y-16197D01*
Y-16202D01*
X71276Y-16266D01*
X71271Y-16327D01*
X71263Y-16383D01*
X71251Y-16435D01*
X71238Y-16483D01*
X71224Y-16527D01*
X71207Y-16569D01*
X71190Y-16605D01*
X71174Y-16638D01*
X71157Y-16666D01*
X71143Y-16688D01*
X71129Y-16707D01*
X71118Y-16724D01*
X71110Y-16735D01*
X71104Y-16741D01*
X71102Y-16744D01*
X71065Y-16777D01*
X71029Y-16805D01*
X70990Y-16830D01*
X70952Y-16852D01*
X70913Y-16868D01*
X70871Y-16885D01*
X70796Y-16907D01*
X70763Y-16913D01*
X70729Y-16918D01*
X70702Y-16924D01*
X70677Y-16927D01*
X70655Y-16930D01*
X70627D01*
X70560Y-16927D01*
X70499Y-16916D01*
X70441Y-16902D01*
X70394Y-16888D01*
X70352Y-16871D01*
X70335Y-16866D01*
X70321Y-16860D01*
X70308Y-16855D01*
X70299Y-16849D01*
X70296Y-16846D01*
X70294D01*
X70238Y-16810D01*
X70191Y-16771D01*
X70149Y-16732D01*
X70116Y-16694D01*
X70091Y-16660D01*
X70072Y-16632D01*
X70066Y-16621D01*
X70060Y-16613D01*
X70058Y-16610D01*
Y-16608D01*
X70030Y-16544D01*
X70010Y-16474D01*
X69994Y-16405D01*
X69985Y-16335D01*
X69980Y-16305D01*
Y-16277D01*
X69977Y-16249D01*
X69974Y-16227D01*
Y-16208D01*
Y-16194D01*
Y-16186D01*
Y-16183D01*
X69977Y-16122D01*
X69983Y-16066D01*
X69991Y-16013D01*
X70002Y-15963D01*
X70016Y-15916D01*
X70033Y-15875D01*
X70049Y-15833D01*
X70066Y-15800D01*
X70083Y-15769D01*
X70099Y-15741D01*
X70116Y-15716D01*
X70130Y-15697D01*
X70141Y-15683D01*
X70149Y-15672D01*
X70155Y-15666D01*
X70158Y-15664D01*
X70194Y-15630D01*
X70230Y-15603D01*
X70269Y-15575D01*
X70308Y-15555D01*
X70346Y-15536D01*
X70385Y-15522D01*
X70460Y-15497D01*
X70496Y-15491D01*
X70527Y-15486D01*
X70555Y-15480D01*
X70580Y-15478D01*
X70599Y-15475D01*
X70627D01*
X70674Y-15478D01*
D02*
G37*
G36*
X73661D02*
X73706Y-15480D01*
X73792Y-15500D01*
X73867Y-15525D01*
X73900Y-15539D01*
X73930Y-15553D01*
X73958Y-15566D01*
X73980Y-15580D01*
X74003Y-15594D01*
X74019Y-15605D01*
X74033Y-15616D01*
X74044Y-15625D01*
X74050Y-15627D01*
X74053Y-15630D01*
X74091Y-15666D01*
X74122Y-15708D01*
X74153Y-15752D01*
X74175Y-15797D01*
X74197Y-15844D01*
X74214Y-15894D01*
X74228Y-15941D01*
X74239Y-15986D01*
X74250Y-16030D01*
X74255Y-16069D01*
X74261Y-16108D01*
X74264Y-16138D01*
Y-16166D01*
X74266Y-16186D01*
Y-16197D01*
Y-16202D01*
X74264Y-16266D01*
X74258Y-16327D01*
X74250Y-16383D01*
X74239Y-16435D01*
X74225Y-16483D01*
X74211Y-16527D01*
X74194Y-16569D01*
X74178Y-16605D01*
X74161Y-16638D01*
X74144Y-16666D01*
X74130Y-16688D01*
X74116Y-16707D01*
X74105Y-16724D01*
X74097Y-16735D01*
X74091Y-16741D01*
X74089Y-16744D01*
X74053Y-16777D01*
X74017Y-16805D01*
X73978Y-16830D01*
X73939Y-16852D01*
X73900Y-16868D01*
X73858Y-16885D01*
X73783Y-16907D01*
X73750Y-16913D01*
X73717Y-16918D01*
X73689Y-16924D01*
X73664Y-16927D01*
X73642Y-16930D01*
X73614D01*
X73547Y-16927D01*
X73486Y-16916D01*
X73428Y-16902D01*
X73381Y-16888D01*
X73339Y-16871D01*
X73322Y-16866D01*
X73309Y-16860D01*
X73295Y-16855D01*
X73286Y-16849D01*
X73284Y-16846D01*
X73281D01*
X73225Y-16810D01*
X73178Y-16771D01*
X73136Y-16732D01*
X73103Y-16694D01*
X73078Y-16660D01*
X73059Y-16632D01*
X73053Y-16621D01*
X73048Y-16613D01*
X73045Y-16610D01*
Y-16608D01*
X73017Y-16544D01*
X72998Y-16474D01*
X72981Y-16405D01*
X72973Y-16335D01*
X72967Y-16305D01*
Y-16277D01*
X72964Y-16249D01*
X72962Y-16227D01*
Y-16208D01*
Y-16194D01*
Y-16186D01*
Y-16183D01*
X72964Y-16122D01*
X72970Y-16066D01*
X72978Y-16013D01*
X72989Y-15963D01*
X73003Y-15916D01*
X73020Y-15875D01*
X73037Y-15833D01*
X73053Y-15800D01*
X73070Y-15769D01*
X73087Y-15741D01*
X73103Y-15716D01*
X73117Y-15697D01*
X73128Y-15683D01*
X73136Y-15672D01*
X73142Y-15666D01*
X73145Y-15664D01*
X73181Y-15630D01*
X73217Y-15603D01*
X73256Y-15575D01*
X73295Y-15555D01*
X73334Y-15536D01*
X73372Y-15522D01*
X73447Y-15497D01*
X73483Y-15491D01*
X73514Y-15486D01*
X73542Y-15480D01*
X73567Y-15478D01*
X73586Y-15475D01*
X73614D01*
X73661Y-15478D01*
D02*
G37*
G36*
X64405D02*
X64450Y-15480D01*
X64536Y-15500D01*
X64611Y-15525D01*
X64644Y-15539D01*
X64675Y-15553D01*
X64702Y-15566D01*
X64725Y-15580D01*
X64747Y-15594D01*
X64763Y-15605D01*
X64777Y-15616D01*
X64788Y-15625D01*
X64794Y-15627D01*
X64797Y-15630D01*
X64836Y-15666D01*
X64866Y-15708D01*
X64897Y-15752D01*
X64919Y-15797D01*
X64941Y-15844D01*
X64958Y-15894D01*
X64972Y-15941D01*
X64983Y-15986D01*
X64994Y-16030D01*
X64999Y-16069D01*
X65005Y-16108D01*
X65008Y-16138D01*
Y-16166D01*
X65010Y-16186D01*
Y-16197D01*
Y-16202D01*
X65008Y-16266D01*
X65002Y-16327D01*
X64994Y-16383D01*
X64983Y-16435D01*
X64969Y-16483D01*
X64955Y-16527D01*
X64938Y-16569D01*
X64922Y-16605D01*
X64905Y-16638D01*
X64888Y-16666D01*
X64874Y-16688D01*
X64861Y-16707D01*
X64849Y-16724D01*
X64841Y-16735D01*
X64836Y-16741D01*
X64833Y-16744D01*
X64797Y-16777D01*
X64761Y-16805D01*
X64722Y-16830D01*
X64683Y-16852D01*
X64644Y-16868D01*
X64602Y-16885D01*
X64527Y-16907D01*
X64494Y-16913D01*
X64461Y-16918D01*
X64433Y-16924D01*
X64408Y-16927D01*
X64386Y-16930D01*
X64358D01*
X64291Y-16927D01*
X64230Y-16916D01*
X64172Y-16902D01*
X64125Y-16888D01*
X64083Y-16871D01*
X64067Y-16866D01*
X64053Y-16860D01*
X64039Y-16855D01*
X64030Y-16849D01*
X64028Y-16846D01*
X64025D01*
X63969Y-16810D01*
X63922Y-16771D01*
X63881Y-16732D01*
X63847Y-16694D01*
X63822Y-16660D01*
X63803Y-16632D01*
X63797Y-16621D01*
X63792Y-16613D01*
X63789Y-16610D01*
Y-16608D01*
X63761Y-16544D01*
X63742Y-16474D01*
X63725Y-16405D01*
X63717Y-16335D01*
X63711Y-16305D01*
Y-16277D01*
X63708Y-16249D01*
X63706Y-16227D01*
Y-16208D01*
Y-16194D01*
Y-16186D01*
Y-16183D01*
X63708Y-16122D01*
X63714Y-16066D01*
X63722Y-16013D01*
X63733Y-15963D01*
X63747Y-15916D01*
X63764Y-15875D01*
X63781Y-15833D01*
X63797Y-15800D01*
X63814Y-15769D01*
X63831Y-15741D01*
X63847Y-15716D01*
X63861Y-15697D01*
X63872Y-15683D01*
X63881Y-15672D01*
X63886Y-15666D01*
X63889Y-15664D01*
X63925Y-15630D01*
X63961Y-15603D01*
X64000Y-15575D01*
X64039Y-15555D01*
X64078Y-15536D01*
X64117Y-15522D01*
X64191Y-15497D01*
X64228Y-15491D01*
X64258Y-15486D01*
X64286Y-15480D01*
X64311Y-15478D01*
X64330Y-15475D01*
X64358D01*
X64405Y-15478D01*
D02*
G37*
G36*
X66093Y-14947D02*
X66157Y-14956D01*
X66218Y-14967D01*
X66271Y-14978D01*
X66313Y-14989D01*
X66332Y-14995D01*
X66346Y-15000D01*
X66357Y-15006D01*
X66365Y-15008D01*
X66371Y-15011D01*
X66374D01*
X66429Y-15039D01*
X66479Y-15069D01*
X66521Y-15103D01*
X66554Y-15133D01*
X66579Y-15161D01*
X66598Y-15183D01*
X66612Y-15200D01*
X66615Y-15203D01*
Y-15206D01*
X66643Y-15253D01*
X66662Y-15300D01*
X66676Y-15347D01*
X66685Y-15389D01*
X66690Y-15425D01*
X66696Y-15453D01*
Y-15464D01*
Y-15472D01*
Y-15475D01*
Y-15478D01*
X66693Y-15525D01*
X66685Y-15569D01*
X66673Y-15611D01*
X66662Y-15647D01*
X66651Y-15675D01*
X66640Y-15697D01*
X66632Y-15711D01*
X66629Y-15716D01*
X66601Y-15755D01*
X66568Y-15791D01*
X66535Y-15822D01*
X66501Y-15847D01*
X66474Y-15869D01*
X66449Y-15883D01*
X66432Y-15894D01*
X66429Y-15897D01*
X66426D01*
X66404Y-15908D01*
X66379Y-15919D01*
X66324Y-15938D01*
X66260Y-15958D01*
X66199Y-15977D01*
X66143Y-15994D01*
X66118Y-16000D01*
X66096Y-16005D01*
X66079Y-16011D01*
X66065Y-16013D01*
X66057Y-16016D01*
X66054D01*
X66007Y-16027D01*
X65963Y-16038D01*
X65924Y-16049D01*
X65891Y-16058D01*
X65857Y-16066D01*
X65829Y-16074D01*
X65804Y-16080D01*
X65785Y-16088D01*
X65766Y-16094D01*
X65752Y-16097D01*
X65730Y-16105D01*
X65716Y-16108D01*
X65713Y-16111D01*
X65671Y-16127D01*
X65635Y-16147D01*
X65605Y-16166D01*
X65582Y-16183D01*
X65563Y-16199D01*
X65552Y-16211D01*
X65544Y-16219D01*
X65541Y-16222D01*
X65521Y-16247D01*
X65507Y-16274D01*
X65499Y-16302D01*
X65491Y-16324D01*
X65488Y-16347D01*
X65485Y-16363D01*
Y-16377D01*
Y-16380D01*
X65488Y-16413D01*
X65494Y-16444D01*
X65502Y-16471D01*
X65513Y-16494D01*
X65524Y-16516D01*
X65532Y-16530D01*
X65538Y-16541D01*
X65541Y-16544D01*
X65563Y-16571D01*
X65591Y-16594D01*
X65618Y-16613D01*
X65643Y-16632D01*
X65668Y-16644D01*
X65688Y-16655D01*
X65702Y-16660D01*
X65707Y-16663D01*
X65749Y-16677D01*
X65793Y-16688D01*
X65838Y-16694D01*
X65877Y-16699D01*
X65910Y-16702D01*
X65938Y-16705D01*
X65963D01*
X66024Y-16702D01*
X66079Y-16696D01*
X66129Y-16688D01*
X66174Y-16677D01*
X66210Y-16666D01*
X66238Y-16657D01*
X66246Y-16655D01*
X66254Y-16652D01*
X66257Y-16649D01*
X66260D01*
X66304Y-16627D01*
X66346Y-16602D01*
X66376Y-16577D01*
X66404Y-16552D01*
X66426Y-16533D01*
X66440Y-16513D01*
X66449Y-16502D01*
X66451Y-16499D01*
X66471Y-16463D01*
X66490Y-16424D01*
X66501Y-16383D01*
X66512Y-16347D01*
X66521Y-16310D01*
X66526Y-16285D01*
Y-16274D01*
X66529Y-16266D01*
Y-16263D01*
Y-16260D01*
X66768Y-16283D01*
X66762Y-16352D01*
X66751Y-16419D01*
X66734Y-16477D01*
X66715Y-16530D01*
X66696Y-16571D01*
X66687Y-16588D01*
X66682Y-16602D01*
X66673Y-16613D01*
X66671Y-16621D01*
X66665Y-16627D01*
Y-16630D01*
X66623Y-16682D01*
X66579Y-16730D01*
X66532Y-16769D01*
X66487Y-16802D01*
X66449Y-16827D01*
X66415Y-16843D01*
X66404Y-16849D01*
X66396Y-16855D01*
X66390Y-16857D01*
X66387D01*
X66318Y-16882D01*
X66246Y-16902D01*
X66174Y-16913D01*
X66104Y-16924D01*
X66071Y-16927D01*
X66043Y-16930D01*
X66018D01*
X65996Y-16932D01*
X65952D01*
X65877Y-16930D01*
X65807Y-16921D01*
X65743Y-16907D01*
X65691Y-16893D01*
X65646Y-16882D01*
X65627Y-16874D01*
X65610Y-16868D01*
X65599Y-16863D01*
X65591Y-16860D01*
X65585Y-16857D01*
X65582D01*
X65524Y-16827D01*
X65474Y-16794D01*
X65430Y-16757D01*
X65394Y-16724D01*
X65366Y-16696D01*
X65346Y-16671D01*
X65333Y-16655D01*
X65330Y-16652D01*
Y-16649D01*
X65299Y-16596D01*
X65277Y-16546D01*
X65263Y-16499D01*
X65252Y-16455D01*
X65246Y-16416D01*
X65241Y-16385D01*
Y-16374D01*
Y-16366D01*
Y-16363D01*
Y-16360D01*
X65244Y-16305D01*
X65252Y-16252D01*
X65266Y-16205D01*
X65280Y-16166D01*
X65296Y-16133D01*
X65308Y-16108D01*
X65319Y-16094D01*
X65321Y-16088D01*
X65355Y-16047D01*
X65394Y-16008D01*
X65435Y-15975D01*
X65477Y-15944D01*
X65513Y-15922D01*
X65544Y-15905D01*
X65555Y-15900D01*
X65563Y-15894D01*
X65568Y-15891D01*
X65571D01*
X65593Y-15880D01*
X65621Y-15872D01*
X65652Y-15861D01*
X65685Y-15850D01*
X65755Y-15830D01*
X65827Y-15811D01*
X65860Y-15802D01*
X65891Y-15794D01*
X65921Y-15786D01*
X65946Y-15780D01*
X65965Y-15775D01*
X65982Y-15772D01*
X65993Y-15769D01*
X65996D01*
X66052Y-15755D01*
X66102Y-15744D01*
X66146Y-15730D01*
X66185Y-15719D01*
X66221Y-15705D01*
X66251Y-15694D01*
X66279Y-15683D01*
X66304Y-15675D01*
X66324Y-15664D01*
X66340Y-15655D01*
X66351Y-15650D01*
X66362Y-15641D01*
X66376Y-15633D01*
X66379Y-15630D01*
X66404Y-15603D01*
X66421Y-15575D01*
X66435Y-15547D01*
X66443Y-15519D01*
X66449Y-15497D01*
X66451Y-15478D01*
Y-15466D01*
Y-15461D01*
X66446Y-15417D01*
X66435Y-15378D01*
X66418Y-15344D01*
X66399Y-15314D01*
X66382Y-15292D01*
X66365Y-15272D01*
X66354Y-15261D01*
X66349Y-15258D01*
X66326Y-15244D01*
X66304Y-15230D01*
X66251Y-15208D01*
X66196Y-15194D01*
X66140Y-15183D01*
X66090Y-15178D01*
X66068Y-15175D01*
X66052Y-15172D01*
X66013D01*
X65935Y-15175D01*
X65866Y-15186D01*
X65810Y-15203D01*
X65763Y-15219D01*
X65727Y-15236D01*
X65699Y-15253D01*
X65685Y-15264D01*
X65680Y-15267D01*
X65641Y-15305D01*
X65610Y-15347D01*
X65585Y-15392D01*
X65568Y-15436D01*
X65557Y-15478D01*
X65549Y-15508D01*
X65546Y-15522D01*
X65544Y-15530D01*
Y-15536D01*
Y-15539D01*
X65299Y-15519D01*
X65305Y-15458D01*
X65319Y-15403D01*
X65333Y-15350D01*
X65352Y-15305D01*
X65369Y-15269D01*
X65382Y-15242D01*
X65388Y-15233D01*
X65394Y-15225D01*
X65396Y-15222D01*
Y-15219D01*
X65432Y-15172D01*
X65471Y-15131D01*
X65513Y-15094D01*
X65555Y-15067D01*
X65591Y-15042D01*
X65618Y-15028D01*
X65630Y-15022D01*
X65638Y-15017D01*
X65643Y-15014D01*
X65646D01*
X65707Y-14992D01*
X65774Y-14975D01*
X65835Y-14961D01*
X65893Y-14953D01*
X65946Y-14947D01*
X65965D01*
X65985Y-14945D01*
X66021D01*
X66093Y-14947D01*
D02*
G37*
G36*
X61948Y-15666D02*
X61973Y-15636D01*
X62001Y-15611D01*
X62026Y-15586D01*
X62054Y-15566D01*
X62076Y-15553D01*
X62093Y-15539D01*
X62104Y-15533D01*
X62109Y-15530D01*
X62145Y-15511D01*
X62184Y-15497D01*
X62223Y-15489D01*
X62259Y-15480D01*
X62290Y-15478D01*
X62312Y-15475D01*
X62334D01*
X62395Y-15478D01*
X62454Y-15489D01*
X62506Y-15503D01*
X62551Y-15519D01*
X62590Y-15539D01*
X62617Y-15553D01*
X62628Y-15558D01*
X62637Y-15564D01*
X62640Y-15566D01*
X62642D01*
X62692Y-15603D01*
X62734Y-15647D01*
X62770Y-15689D01*
X62798Y-15730D01*
X62820Y-15769D01*
X62837Y-15800D01*
X62842Y-15811D01*
X62848Y-15819D01*
X62851Y-15825D01*
Y-15827D01*
X62873Y-15891D01*
X62889Y-15958D01*
X62903Y-16022D01*
X62912Y-16080D01*
X62917Y-16130D01*
Y-16152D01*
X62920Y-16169D01*
Y-16186D01*
Y-16197D01*
Y-16202D01*
Y-16205D01*
X62917Y-16283D01*
X62909Y-16355D01*
X62895Y-16419D01*
X62881Y-16474D01*
X62876Y-16499D01*
X62870Y-16519D01*
X62862Y-16538D01*
X62856Y-16555D01*
X62851Y-16566D01*
X62848Y-16574D01*
X62845Y-16580D01*
Y-16583D01*
X62814Y-16641D01*
X62778Y-16691D01*
X62742Y-16735D01*
X62706Y-16771D01*
X62676Y-16799D01*
X62651Y-16821D01*
X62634Y-16832D01*
X62631Y-16838D01*
X62628D01*
X62576Y-16868D01*
X62523Y-16891D01*
X62470Y-16907D01*
X62423Y-16918D01*
X62384Y-16924D01*
X62351Y-16927D01*
X62340Y-16930D01*
X62323D01*
X62276Y-16927D01*
X62231Y-16921D01*
X62190Y-16910D01*
X62154Y-16896D01*
X62118Y-16882D01*
X62084Y-16866D01*
X62057Y-16846D01*
X62032Y-16827D01*
X62007Y-16807D01*
X61987Y-16788D01*
X61971Y-16771D01*
X61957Y-16757D01*
X61946Y-16744D01*
X61937Y-16732D01*
X61934Y-16727D01*
X61932Y-16724D01*
Y-16899D01*
X61712D01*
Y-14978D01*
X61948D01*
Y-15666D01*
D02*
G37*
G36*
X60821Y-15478D02*
X60871Y-15483D01*
X60918Y-15491D01*
X60963Y-15505D01*
X61004Y-15519D01*
X61043Y-15536D01*
X61079Y-15553D01*
X61110Y-15572D01*
X61140Y-15589D01*
X61165Y-15608D01*
X61188Y-15625D01*
X61204Y-15639D01*
X61218Y-15652D01*
X61229Y-15661D01*
X61235Y-15666D01*
X61238Y-15669D01*
X61268Y-15708D01*
X61296Y-15750D01*
X61321Y-15791D01*
X61343Y-15836D01*
X61360Y-15883D01*
X61374Y-15927D01*
X61396Y-16016D01*
X61404Y-16055D01*
X61410Y-16094D01*
X61412Y-16127D01*
X61415Y-16158D01*
X61418Y-16183D01*
Y-16199D01*
Y-16213D01*
Y-16216D01*
X61415Y-16277D01*
X61410Y-16335D01*
X61401Y-16391D01*
X61390Y-16441D01*
X61376Y-16488D01*
X61363Y-16533D01*
X61346Y-16571D01*
X61329Y-16608D01*
X61313Y-16638D01*
X61296Y-16666D01*
X61282Y-16688D01*
X61268Y-16707D01*
X61257Y-16724D01*
X61249Y-16735D01*
X61243Y-16741D01*
X61240Y-16744D01*
X61204Y-16777D01*
X61168Y-16805D01*
X61129Y-16830D01*
X61088Y-16852D01*
X61049Y-16868D01*
X61007Y-16885D01*
X60929Y-16907D01*
X60893Y-16913D01*
X60860Y-16918D01*
X60829Y-16924D01*
X60805Y-16927D01*
X60785Y-16930D01*
X60755D01*
X60668Y-16924D01*
X60591Y-16910D01*
X60521Y-16893D01*
X60494Y-16882D01*
X60466Y-16871D01*
X60441Y-16860D01*
X60419Y-16849D01*
X60402Y-16841D01*
X60385Y-16832D01*
X60374Y-16824D01*
X60366Y-16818D01*
X60360Y-16813D01*
X60358D01*
X60302Y-16763D01*
X60258Y-16710D01*
X60219Y-16655D01*
X60191Y-16602D01*
X60169Y-16555D01*
X60160Y-16533D01*
X60152Y-16516D01*
X60147Y-16499D01*
X60144Y-16488D01*
X60141Y-16483D01*
Y-16480D01*
X60385Y-16449D01*
X60408Y-16502D01*
X60432Y-16546D01*
X60457Y-16585D01*
X60480Y-16616D01*
X60499Y-16638D01*
X60516Y-16655D01*
X60530Y-16666D01*
X60532Y-16669D01*
X60569Y-16691D01*
X60605Y-16707D01*
X60643Y-16719D01*
X60677Y-16727D01*
X60707Y-16732D01*
X60732Y-16735D01*
X60755D01*
X60788Y-16732D01*
X60818Y-16730D01*
X60874Y-16716D01*
X60924Y-16696D01*
X60968Y-16674D01*
X61002Y-16655D01*
X61027Y-16635D01*
X61043Y-16621D01*
X61046Y-16616D01*
X61049D01*
X61088Y-16566D01*
X61118Y-16510D01*
X61140Y-16449D01*
X61157Y-16394D01*
X61165Y-16344D01*
X61171Y-16322D01*
X61174Y-16302D01*
Y-16285D01*
X61177Y-16274D01*
Y-16266D01*
Y-16263D01*
X60135D01*
X60133Y-16235D01*
Y-16216D01*
Y-16205D01*
Y-16202D01*
X60135Y-16138D01*
X60141Y-16080D01*
X60149Y-16024D01*
X60160Y-15972D01*
X60174Y-15925D01*
X60188Y-15880D01*
X60205Y-15841D01*
X60221Y-15805D01*
X60238Y-15772D01*
X60255Y-15744D01*
X60269Y-15722D01*
X60283Y-15702D01*
X60294Y-15686D01*
X60302Y-15675D01*
X60308Y-15669D01*
X60310Y-15666D01*
X60344Y-15633D01*
X60380Y-15603D01*
X60419Y-15578D01*
X60457Y-15555D01*
X60496Y-15536D01*
X60532Y-15522D01*
X60571Y-15508D01*
X60605Y-15500D01*
X60641Y-15491D01*
X60671Y-15486D01*
X60699Y-15480D01*
X60721Y-15478D01*
X60741Y-15475D01*
X60768D01*
X60821Y-15478D01*
D02*
G37*
G36*
X71898Y-15161D02*
Y-15505D01*
X72073D01*
Y-15689D01*
X71898D01*
Y-16494D01*
Y-16533D01*
Y-16566D01*
X71896Y-16596D01*
X71893Y-16627D01*
Y-16652D01*
X71890Y-16674D01*
X71884Y-16710D01*
X71879Y-16738D01*
X71876Y-16757D01*
X71871Y-16769D01*
Y-16771D01*
X71859Y-16796D01*
X71843Y-16816D01*
X71826Y-16835D01*
X71812Y-16849D01*
X71796Y-16863D01*
X71784Y-16871D01*
X71776Y-16877D01*
X71773Y-16880D01*
X71743Y-16893D01*
X71712Y-16902D01*
X71679Y-16910D01*
X71646Y-16913D01*
X71618Y-16916D01*
X71596Y-16918D01*
X71573D01*
X71512Y-16916D01*
X71482Y-16913D01*
X71454Y-16907D01*
X71429Y-16905D01*
X71410Y-16902D01*
X71399Y-16899D01*
X71393D01*
X71424Y-16691D01*
X71446Y-16694D01*
X71468Y-16696D01*
X71487D01*
X71501Y-16699D01*
X71529D01*
X71565Y-16696D01*
X71590Y-16691D01*
X71604Y-16685D01*
X71610Y-16682D01*
X71629Y-16669D01*
X71640Y-16655D01*
X71648Y-16644D01*
X71651Y-16638D01*
X71654Y-16624D01*
X71657Y-16605D01*
X71660Y-16560D01*
X71662Y-16541D01*
Y-16524D01*
Y-16513D01*
Y-16508D01*
Y-15689D01*
X71424D01*
Y-15505D01*
X71662D01*
Y-15019D01*
X71898Y-15161D01*
D02*
G37*
G36*
X75949Y-16899D02*
X75216D01*
X75149Y-16896D01*
X75091Y-16893D01*
X75038Y-16888D01*
X74994Y-16882D01*
X74958Y-16877D01*
X74930Y-16874D01*
X74913Y-16868D01*
X74908D01*
X74860Y-16855D01*
X74822Y-16841D01*
X74786Y-16824D01*
X74755Y-16807D01*
X74730Y-16796D01*
X74711Y-16785D01*
X74699Y-16777D01*
X74697Y-16774D01*
X74666Y-16749D01*
X74638Y-16719D01*
X74616Y-16688D01*
X74594Y-16660D01*
X74577Y-16632D01*
X74566Y-16613D01*
X74558Y-16599D01*
X74555Y-16594D01*
X74536Y-16549D01*
X74522Y-16505D01*
X74511Y-16463D01*
X74505Y-16424D01*
X74500Y-16391D01*
X74497Y-16363D01*
Y-16347D01*
Y-16344D01*
Y-16341D01*
X74500Y-16280D01*
X74511Y-16224D01*
X74527Y-16177D01*
X74544Y-16133D01*
X74561Y-16099D01*
X74577Y-16074D01*
X74588Y-16058D01*
X74591Y-16052D01*
X74630Y-16008D01*
X74672Y-15972D01*
X74719Y-15941D01*
X74761Y-15916D01*
X74799Y-15897D01*
X74833Y-15886D01*
X74844Y-15880D01*
X74852Y-15877D01*
X74858Y-15875D01*
X74860D01*
X74813Y-15847D01*
X74772Y-15819D01*
X74738Y-15789D01*
X74711Y-15761D01*
X74688Y-15739D01*
X74672Y-15716D01*
X74663Y-15705D01*
X74661Y-15700D01*
X74638Y-15658D01*
X74622Y-15619D01*
X74608Y-15580D01*
X74600Y-15544D01*
X74594Y-15514D01*
X74591Y-15489D01*
Y-15475D01*
Y-15469D01*
X74594Y-15422D01*
X74602Y-15375D01*
X74616Y-15333D01*
X74630Y-15294D01*
X74644Y-15261D01*
X74658Y-15239D01*
X74666Y-15222D01*
X74669Y-15217D01*
X74699Y-15175D01*
X74733Y-15136D01*
X74769Y-15106D01*
X74802Y-15081D01*
X74830Y-15061D01*
X74855Y-15047D01*
X74872Y-15039D01*
X74874Y-15036D01*
X74877D01*
X74930Y-15017D01*
X74988Y-15003D01*
X75047Y-14992D01*
X75102Y-14986D01*
X75152Y-14981D01*
X75174D01*
X75194Y-14978D01*
X75949D01*
Y-16899D01*
D02*
G37*
G36*
X59364Y-15478D02*
X59391Y-15483D01*
X59419Y-15491D01*
X59441Y-15500D01*
X59458Y-15508D01*
X59475Y-15516D01*
X59483Y-15522D01*
X59486Y-15525D01*
X59511Y-15547D01*
X59536Y-15575D01*
X59561Y-15608D01*
X59583Y-15639D01*
X59605Y-15669D01*
X59619Y-15694D01*
X59630Y-15714D01*
X59633Y-15716D01*
Y-15505D01*
X59847D01*
Y-16899D01*
X59611D01*
Y-16172D01*
X59608Y-16116D01*
X59605Y-16066D01*
X59600Y-16019D01*
X59591Y-15977D01*
X59583Y-15944D01*
X59577Y-15919D01*
X59575Y-15902D01*
X59572Y-15897D01*
X59561Y-15866D01*
X59547Y-15841D01*
X59533Y-15819D01*
X59519Y-15800D01*
X59505Y-15786D01*
X59497Y-15775D01*
X59489Y-15769D01*
X59486Y-15766D01*
X59464Y-15750D01*
X59439Y-15739D01*
X59414Y-15730D01*
X59394Y-15725D01*
X59375Y-15722D01*
X59361Y-15719D01*
X59347D01*
X59316Y-15722D01*
X59286Y-15727D01*
X59255Y-15736D01*
X59230Y-15744D01*
X59208Y-15752D01*
X59192Y-15761D01*
X59180Y-15766D01*
X59178Y-15769D01*
X59092Y-15553D01*
X59139Y-15528D01*
X59183Y-15508D01*
X59222Y-15494D01*
X59258Y-15483D01*
X59289Y-15478D01*
X59314Y-15475D01*
X59333D01*
X59364Y-15478D01*
D02*
G37*
G36*
X63434Y-16899D02*
X63198D01*
Y-14978D01*
X63434D01*
Y-16899D01*
D02*
G37*
G36*
X19150Y46225D02*
X18337D01*
X18538Y46625D01*
X18337Y47025D01*
X19150D01*
Y46225D01*
D02*
G37*
G36*
X18263Y51700D02*
X18462Y51300D01*
X17650D01*
Y52100D01*
X18462D01*
X18263Y51700D01*
D02*
G37*
G36*
X18438Y46625D02*
X18237Y46225D01*
X17650D01*
Y47025D01*
X18237D01*
X18438Y46625D01*
D02*
G37*
G36*
X44881Y45156D02*
X44881D01*
X45431Y44606D01*
X44081D01*
Y45706D01*
X45431D01*
X44881Y45156D01*
D02*
G37*
G36*
X46231Y44606D02*
X45531D01*
X44981Y45156D01*
X45531Y45706D01*
X46231D01*
Y44606D01*
D02*
G37*
G36*
X41775Y54125D02*
Y53425D01*
X40675D01*
Y54125D01*
X41225Y54675D01*
X41775Y54125D01*
D02*
G37*
G36*
X50987Y54175D02*
X51188Y53775D01*
X50375D01*
Y54575D01*
X51188D01*
X50987Y54175D01*
D02*
G37*
G36*
X19150Y52900D02*
X18562D01*
X18362Y53300D01*
X18562Y53700D01*
X19150D01*
Y52900D01*
D02*
G37*
G36*
Y51300D02*
X18562D01*
X18362Y51700D01*
X18562Y52100D01*
X19150D01*
Y51300D01*
D02*
G37*
G36*
X18263Y53300D02*
X18462Y52900D01*
X17650D01*
Y53700D01*
X18462D01*
X18263Y53300D01*
D02*
G37*
G36*
X51875Y40275D02*
X51287D01*
X51088Y40675D01*
X51287Y41075D01*
X51875D01*
Y40275D01*
D02*
G37*
G36*
X60100Y17275D02*
X59000D01*
Y18625D01*
X59550Y18075D01*
Y18075D01*
X60100Y18625D01*
Y17275D01*
D02*
G37*
G36*
Y18725D02*
X59550Y18175D01*
X59000Y18725D01*
Y19425D01*
X60100D01*
Y18725D01*
D02*
G37*
G36*
X29196Y17519D02*
X28646Y16969D01*
X28096Y17519D01*
Y18219D01*
X29196D01*
Y17519D01*
D02*
G37*
G36*
X12200Y13725D02*
X11613D01*
X11413Y14125D01*
X11613Y14525D01*
X12200D01*
Y13725D01*
D02*
G37*
G36*
X29196Y16069D02*
X28096D01*
Y17419D01*
X28646Y16869D01*
Y16869D01*
X29196Y17419D01*
Y16069D01*
D02*
G37*
G36*
X33766Y38329D02*
X32416D01*
X32966Y38879D01*
X32966D01*
X32416Y39429D01*
X33766D01*
Y38329D01*
D02*
G37*
G36*
X50987Y40675D02*
X51188Y40275D01*
X50375D01*
Y41075D01*
X51188D01*
X50987Y40675D01*
D02*
G37*
G36*
X32866Y38879D02*
X32316Y38329D01*
X31616D01*
Y39429D01*
X32316D01*
X32866Y38879D01*
D02*
G37*
G36*
X51162Y38100D02*
X50963Y37700D01*
X50375D01*
Y38500D01*
X50963D01*
X51162Y38100D01*
D02*
G37*
G36*
X51875Y37700D02*
X51062D01*
X51263Y38100D01*
X51062Y38500D01*
X51875D01*
Y37700D01*
D02*
G37*
G36*
X28300Y83875D02*
X27200D01*
Y85225D01*
X27750Y84675D01*
Y84675D01*
X28300Y85225D01*
Y83875D01*
D02*
G37*
G36*
X29825D02*
X28725D01*
Y85225D01*
X29275Y84675D01*
Y84675D01*
X29825Y85225D01*
Y83875D01*
D02*
G37*
G36*
X49825Y84675D02*
X49275Y85225D01*
Y85225D01*
X48725Y84675D01*
Y86025D01*
X49825D01*
Y84675D01*
D02*
G37*
G36*
X46025Y84575D02*
Y83875D01*
X44925D01*
Y84575D01*
X45475Y85125D01*
X46025Y84575D01*
D02*
G37*
G36*
X48425Y84675D02*
X47875Y85225D01*
Y85225D01*
X47325Y84675D01*
Y86025D01*
X48425D01*
Y84675D01*
D02*
G37*
G36*
X46025Y84675D02*
X45475Y85225D01*
Y85225D01*
X44925Y84675D01*
Y86025D01*
X46025D01*
Y84675D01*
D02*
G37*
G36*
X28300Y85325D02*
X27750Y84775D01*
X27200Y85325D01*
Y86025D01*
X28300D01*
Y85325D01*
D02*
G37*
G36*
X37075Y83875D02*
X35975D01*
Y85225D01*
X36525Y84675D01*
Y84675D01*
X37075Y85225D01*
Y83875D01*
D02*
G37*
G36*
X32600Y84675D02*
X32050Y85225D01*
Y85225D01*
X31500Y84675D01*
Y86025D01*
X32600D01*
Y84675D01*
D02*
G37*
G36*
X34925Y83875D02*
X33825D01*
Y85225D01*
X34375Y84675D01*
Y84675D01*
X34925Y85225D01*
Y83875D01*
D02*
G37*
G36*
X32600Y84575D02*
Y83875D01*
X31500D01*
Y84575D01*
X32050Y85125D01*
X32600Y84575D01*
D02*
G37*
G36*
X32850Y77950D02*
X32300Y77400D01*
X31750Y77950D01*
Y78650D01*
X32850D01*
Y77950D01*
D02*
G37*
G36*
X28316Y80654D02*
X27216D01*
Y82004D01*
X27766Y81454D01*
Y81454D01*
X28316Y82004D01*
Y80654D01*
D02*
G37*
G36*
X31450Y77950D02*
X30900Y77400D01*
X30350Y77950D01*
Y78650D01*
X31450D01*
Y77950D01*
D02*
G37*
G36*
X32850Y76500D02*
X31750D01*
Y77850D01*
X32300Y77300D01*
Y77300D01*
X32850Y77850D01*
Y76500D01*
D02*
G37*
G36*
X26800Y77950D02*
X26250Y77400D01*
X25700Y77950D01*
Y78650D01*
X26800D01*
Y77950D01*
D02*
G37*
G36*
X48425Y84575D02*
Y83875D01*
X47325D01*
Y84575D01*
X47875Y85125D01*
X48425Y84575D01*
D02*
G37*
G36*
X49825D02*
Y83875D01*
X48725D01*
Y84575D01*
X49275Y85125D01*
X49825Y84575D01*
D02*
G37*
G36*
X29816Y82104D02*
X29266Y81554D01*
X28716Y82104D01*
Y82804D01*
X29816D01*
Y82104D01*
D02*
G37*
G36*
Y80654D02*
X28716D01*
Y82004D01*
X29266Y81454D01*
Y81454D01*
X29816Y82004D01*
Y80654D01*
D02*
G37*
G36*
X28316Y82104D02*
X27766Y81554D01*
X27216Y82104D01*
Y82804D01*
X28316D01*
Y82104D01*
D02*
G37*
G36*
X52250Y91975D02*
X51662D01*
X51463Y92375D01*
X51662Y92775D01*
X52250D01*
Y91975D01*
D02*
G37*
G36*
X47000Y94325D02*
Y93625D01*
X45900D01*
Y94325D01*
X46450Y94875D01*
X47000Y94325D01*
D02*
G37*
G36*
X51362Y92375D02*
X51562Y91975D01*
X50750D01*
Y92775D01*
X51562D01*
X51362Y92375D01*
D02*
G37*
G36*
X22650Y90300D02*
X22100Y89750D01*
X21400D01*
Y90850D01*
X22100D01*
X22650Y90300D01*
D02*
G37*
G36*
X23550Y89750D02*
X22200D01*
X22750Y90300D01*
X22750D01*
X22200Y90850D01*
X23550D01*
Y89750D01*
D02*
G37*
G36*
X15616Y116679D02*
X15616D01*
X16166Y116129D01*
X14816D01*
Y117229D01*
X16166D01*
X15616Y116679D01*
D02*
G37*
G36*
X16966Y116129D02*
X16266D01*
X15716Y116679D01*
X16266Y117229D01*
X16966D01*
Y116129D01*
D02*
G37*
G36*
X26516Y95329D02*
X25816D01*
X25266Y95879D01*
X25816Y96429D01*
X26516D01*
Y95329D01*
D02*
G37*
G36*
X47000Y94425D02*
X46450Y94975D01*
Y94975D01*
X45900Y94425D01*
Y95775D01*
X47000D01*
Y94425D01*
D02*
G37*
G36*
X25166Y95879D02*
X25166D01*
X25716Y95329D01*
X24366D01*
Y96429D01*
X25716D01*
X25166Y95879D01*
D02*
G37*
G36*
X23550Y88250D02*
X22200D01*
X22750Y88800D01*
X22750D01*
X22200Y89350D01*
X23550D01*
Y88250D01*
D02*
G37*
G36*
X48425Y87375D02*
Y86675D01*
X47325D01*
Y87375D01*
X47875Y87925D01*
X48425Y87375D01*
D02*
G37*
G36*
X49825D02*
Y86675D01*
X48725D01*
Y87375D01*
X49275Y87925D01*
X49825Y87375D01*
D02*
G37*
G36*
X37075Y85325D02*
X36525Y84775D01*
X35975Y85325D01*
Y86025D01*
X37075D01*
Y85325D01*
D02*
G37*
G36*
X29825D02*
X29275Y84775D01*
X28725Y85325D01*
Y86025D01*
X29825D01*
Y85325D01*
D02*
G37*
G36*
X34925D02*
X34375Y84775D01*
X33825Y85325D01*
Y86025D01*
X34925D01*
Y85325D01*
D02*
G37*
G36*
X49825Y87475D02*
X49275Y88025D01*
Y88025D01*
X48725Y87475D01*
Y88825D01*
X49825D01*
Y87475D01*
D02*
G37*
G36*
X22650Y88800D02*
X22100Y88250D01*
X21400D01*
Y89350D01*
X22100D01*
X22650Y88800D01*
D02*
G37*
G36*
X48425Y87475D02*
X47875Y88025D01*
Y88025D01*
X47325Y87475D01*
Y88825D01*
X48425D01*
Y87475D01*
D02*
G37*
G36*
X22650Y87300D02*
X22100Y86750D01*
X21400D01*
Y87850D01*
X22100D01*
X22650Y87300D01*
D02*
G37*
G36*
X23550Y86750D02*
X22200D01*
X22750Y87300D01*
X22750D01*
X22200Y87850D01*
X23550D01*
Y86750D01*
D02*
G37*
G36*
X31450Y76500D02*
X30350D01*
Y77850D01*
X30900Y77300D01*
Y77300D01*
X31450Y77850D01*
Y76500D01*
D02*
G37*
G36*
X51875Y65775D02*
X51062D01*
X51263Y66175D01*
X51062Y66575D01*
X51875D01*
Y65775D01*
D02*
G37*
G36*
X45775Y66475D02*
X45775D01*
X46325Y65925D01*
X44975D01*
Y67025D01*
X46325D01*
X45775Y66475D01*
D02*
G37*
G36*
X51162Y66175D02*
X50963Y65775D01*
X50375D01*
Y66575D01*
X50963D01*
X51162Y66175D01*
D02*
G37*
G36*
X46075Y65075D02*
X45525Y64525D01*
X44825D01*
Y65625D01*
X45525D01*
X46075Y65075D01*
D02*
G37*
G36*
X46975Y64525D02*
X45625D01*
X46175Y65075D01*
X46175D01*
X45625Y65625D01*
X46975D01*
Y64525D01*
D02*
G37*
G36*
X51162Y68400D02*
X50963Y68000D01*
X50375D01*
Y68800D01*
X50963D01*
X51162Y68400D01*
D02*
G37*
G36*
X51875Y68000D02*
X51062D01*
X51263Y68400D01*
X51062Y68800D01*
X51875D01*
Y68000D01*
D02*
G37*
G36*
X31850Y67925D02*
X31150D01*
X30600Y68475D01*
X31150Y69025D01*
X31850D01*
Y67925D01*
D02*
G37*
G36*
X47125Y65925D02*
X46425D01*
X45875Y66475D01*
X46425Y67025D01*
X47125D01*
Y65925D01*
D02*
G37*
G36*
X30500Y68475D02*
X30500D01*
X31050Y67925D01*
X29700D01*
Y69025D01*
X31050D01*
X30500Y68475D01*
D02*
G37*
G36*
X51875Y64175D02*
X51062D01*
X51263Y64575D01*
X51062Y64975D01*
X51875D01*
Y64175D01*
D02*
G37*
G36*
X41100Y64275D02*
X40550Y63725D01*
X40000Y64275D01*
Y64975D01*
X41100D01*
Y64275D01*
D02*
G37*
G36*
X42500D02*
X41950Y63725D01*
X41400Y64275D01*
Y64975D01*
X42500D01*
Y64275D01*
D02*
G37*
G36*
Y62825D02*
X41400D01*
Y64175D01*
X41950Y63625D01*
Y63625D01*
X42500Y64175D01*
Y62825D01*
D02*
G37*
G36*
X37700Y63625D02*
X37150Y64175D01*
Y64175D01*
X36600Y63625D01*
Y64975D01*
X37700D01*
Y63625D01*
D02*
G37*
G36*
X41100Y62825D02*
X40000D01*
Y64175D01*
X40550Y63625D01*
Y63625D01*
X41100Y64175D01*
Y62825D01*
D02*
G37*
G36*
X30925Y64475D02*
X30375Y63925D01*
X29825Y64475D01*
Y65175D01*
X30925D01*
Y64475D01*
D02*
G37*
G36*
X51162Y64575D02*
X50963Y64175D01*
X50375D01*
Y64975D01*
X50963D01*
X51162Y64575D01*
D02*
G37*
G36*
X29525Y64475D02*
X28975Y63925D01*
X28425Y64475D01*
Y65175D01*
X29525D01*
Y64475D01*
D02*
G37*
G36*
Y63025D02*
X28425D01*
Y64375D01*
X28975Y63825D01*
Y63825D01*
X29525Y64375D01*
Y63025D01*
D02*
G37*
G36*
X30925D02*
X29825D01*
Y64375D01*
X30375Y63825D01*
Y63825D01*
X30925Y64375D01*
Y63025D01*
D02*
G37*
G36*
X20575Y74000D02*
X20025Y73450D01*
X19325D01*
Y74550D01*
X20025D01*
X20575Y74000D01*
D02*
G37*
G36*
Y72600D02*
X20025Y72050D01*
X19325D01*
Y73150D01*
X20025D01*
X20575Y72600D01*
D02*
G37*
G36*
X21475Y73450D02*
X20125D01*
X20675Y74000D01*
X20675D01*
X20125Y74550D01*
X21475D01*
Y73450D01*
D02*
G37*
G36*
X32850Y70725D02*
X32150D01*
X31600Y71275D01*
X32150Y71825D01*
X32850D01*
Y70725D01*
D02*
G37*
G36*
X31950Y74325D02*
X31400Y73775D01*
X30700D01*
Y74875D01*
X31400D01*
X31950Y74325D01*
D02*
G37*
G36*
X32850Y72125D02*
X31500D01*
X32050Y72675D01*
X32050D01*
X31500Y73225D01*
X32850D01*
Y72125D01*
D02*
G37*
G36*
X31950Y72675D02*
X31400Y72125D01*
X30700D01*
Y73225D01*
X31400D01*
X31950Y72675D01*
D02*
G37*
G36*
X50987Y72944D02*
X51188Y72544D01*
X50375D01*
Y73344D01*
X51188D01*
X50987Y72944D01*
D02*
G37*
G36*
X21475Y72050D02*
X20125D01*
X20675Y72600D01*
X20675D01*
X20125Y73150D01*
X21475D01*
Y72050D01*
D02*
G37*
G36*
X51875Y72544D02*
X51287D01*
X51088Y72944D01*
X51287Y73344D01*
X51875D01*
Y72544D01*
D02*
G37*
G36*
X31500Y71275D02*
X31500D01*
X32050Y70725D01*
X30700D01*
Y71825D01*
X32050D01*
X31500Y71275D01*
D02*
G37*
G36*
X32850Y69325D02*
X31500D01*
X32050Y69875D01*
X32050D01*
X31500Y70425D01*
X32850D01*
Y69325D01*
D02*
G37*
G36*
X51162Y70175D02*
X50963Y69775D01*
X50375D01*
Y70575D01*
X50963D01*
X51162Y70175D01*
D02*
G37*
G36*
X31950Y69875D02*
X31400Y69325D01*
X30700D01*
Y70425D01*
X31400D01*
X31950Y69875D01*
D02*
G37*
G36*
X20575Y69075D02*
X20025Y68525D01*
X19325D01*
Y69625D01*
X20025D01*
X20575Y69075D01*
D02*
G37*
G36*
X21475Y68525D02*
X20125D01*
X20675Y69075D01*
X20675D01*
X20125Y69625D01*
X21475D01*
Y68525D01*
D02*
G37*
G36*
X20575Y71200D02*
X20025Y70650D01*
X19325D01*
Y71750D01*
X20025D01*
X20575Y71200D01*
D02*
G37*
G36*
X21475Y70650D02*
X20125D01*
X20675Y71200D01*
X20675D01*
X20125Y71750D01*
X21475D01*
Y70650D01*
D02*
G37*
G36*
X51875Y69775D02*
X51062D01*
X51263Y70175D01*
X51062Y70575D01*
X51875D01*
Y69775D01*
D02*
G37*
G36*
X26800Y76500D02*
X25700D01*
Y77850D01*
X26250Y77300D01*
Y77300D01*
X26800Y77850D01*
Y76500D01*
D02*
G37*
G36*
X32850Y73775D02*
X31500D01*
X32050Y74325D01*
X32050D01*
X31500Y74875D01*
X32850D01*
Y73775D01*
D02*
G37*
%LPC*%
G36*
X31592Y-15206D02*
X31137D01*
X31076Y-15211D01*
X31028Y-15214D01*
X30987Y-15219D01*
X30956Y-15225D01*
X30937Y-15228D01*
X30923Y-15233D01*
X30920D01*
X30890Y-15244D01*
X30862Y-15261D01*
X30840Y-15278D01*
X30820Y-15294D01*
X30806Y-15308D01*
X30795Y-15322D01*
X30790Y-15330D01*
X30787Y-15333D01*
X30770Y-15361D01*
X30759Y-15389D01*
X30751Y-15417D01*
X30745Y-15444D01*
X30743Y-15466D01*
X30740Y-15483D01*
Y-15494D01*
Y-15500D01*
X30743Y-15536D01*
X30748Y-15569D01*
X30756Y-15597D01*
X30765Y-15619D01*
X30773Y-15639D01*
X30781Y-15655D01*
X30787Y-15664D01*
X30790Y-15666D01*
X30809Y-15689D01*
X30834Y-15711D01*
X30859Y-15727D01*
X30881Y-15739D01*
X30904Y-15750D01*
X30920Y-15758D01*
X30931Y-15761D01*
X30937Y-15764D01*
X30967Y-15769D01*
X31006Y-15775D01*
X31045Y-15777D01*
X31084Y-15780D01*
X31120Y-15783D01*
X31592D01*
Y-15206D01*
D02*
G37*
G36*
Y-16011D02*
X31087D01*
X31028Y-16016D01*
X30981Y-16022D01*
X30942Y-16027D01*
X30912Y-16033D01*
X30887Y-16038D01*
X30876Y-16041D01*
X30870Y-16044D01*
X30834Y-16058D01*
X30804Y-16074D01*
X30776Y-16094D01*
X30754Y-16113D01*
X30737Y-16130D01*
X30726Y-16144D01*
X30718Y-16155D01*
X30715Y-16158D01*
X30695Y-16188D01*
X30681Y-16219D01*
X30670Y-16249D01*
X30665Y-16277D01*
X30659Y-16302D01*
X30656Y-16324D01*
Y-16335D01*
Y-16341D01*
X30659Y-16374D01*
X30662Y-16408D01*
X30668Y-16435D01*
X30676Y-16458D01*
X30684Y-16477D01*
X30690Y-16494D01*
X30693Y-16502D01*
X30695Y-16505D01*
X30712Y-16530D01*
X30726Y-16552D01*
X30745Y-16569D01*
X30759Y-16585D01*
X30773Y-16596D01*
X30784Y-16605D01*
X30792Y-16610D01*
X30795Y-16613D01*
X30842Y-16635D01*
X30890Y-16652D01*
X30909Y-16657D01*
X30926Y-16660D01*
X30937Y-16663D01*
X30940D01*
X30962Y-16666D01*
X30987Y-16669D01*
X31045Y-16671D01*
X31592D01*
Y-16011D01*
D02*
G37*
G36*
X70643Y-15669D02*
X70627D01*
X70593Y-15672D01*
X70563Y-15675D01*
X70507Y-15689D01*
X70457Y-15711D01*
X70416Y-15736D01*
X70382Y-15761D01*
X70357Y-15780D01*
X70341Y-15797D01*
X70335Y-15800D01*
Y-15802D01*
X70313Y-15827D01*
X70296Y-15858D01*
X70266Y-15919D01*
X70244Y-15986D01*
X70230Y-16047D01*
X70221Y-16105D01*
X70219Y-16130D01*
Y-16152D01*
X70216Y-16169D01*
Y-16183D01*
Y-16191D01*
Y-16194D01*
Y-16244D01*
X70221Y-16291D01*
X70227Y-16333D01*
X70235Y-16374D01*
X70244Y-16410D01*
X70255Y-16444D01*
X70263Y-16474D01*
X70274Y-16502D01*
X70285Y-16524D01*
X70296Y-16546D01*
X70308Y-16563D01*
X70316Y-16577D01*
X70324Y-16588D01*
X70330Y-16596D01*
X70332Y-16599D01*
X70335Y-16602D01*
X70357Y-16624D01*
X70382Y-16646D01*
X70430Y-16680D01*
X70480Y-16702D01*
X70524Y-16719D01*
X70566Y-16727D01*
X70596Y-16732D01*
X70610Y-16735D01*
X70627D01*
X70660Y-16732D01*
X70691Y-16730D01*
X70749Y-16716D01*
X70799Y-16694D01*
X70841Y-16669D01*
X70874Y-16646D01*
X70899Y-16624D01*
X70915Y-16610D01*
X70918Y-16605D01*
X70921D01*
X70940Y-16577D01*
X70960Y-16549D01*
X70988Y-16485D01*
X71010Y-16419D01*
X71024Y-16352D01*
X71032Y-16294D01*
X71035Y-16269D01*
Y-16247D01*
X71038Y-16227D01*
Y-16213D01*
Y-16205D01*
Y-16202D01*
X71035Y-16155D01*
X71032Y-16108D01*
X71027Y-16066D01*
X71018Y-16027D01*
X71010Y-15991D01*
X71002Y-15958D01*
X70990Y-15930D01*
X70979Y-15902D01*
X70968Y-15880D01*
X70957Y-15858D01*
X70949Y-15841D01*
X70940Y-15827D01*
X70932Y-15816D01*
X70927Y-15808D01*
X70921Y-15805D01*
Y-15802D01*
X70899Y-15780D01*
X70874Y-15758D01*
X70827Y-15725D01*
X70777Y-15702D01*
X70729Y-15686D01*
X70688Y-15675D01*
X70657Y-15672D01*
X70643Y-15669D01*
D02*
G37*
G36*
X73631D02*
X73614D01*
X73581Y-15672D01*
X73550Y-15675D01*
X73495Y-15689D01*
X73445Y-15711D01*
X73403Y-15736D01*
X73370Y-15761D01*
X73345Y-15780D01*
X73328Y-15797D01*
X73322Y-15800D01*
Y-15802D01*
X73300Y-15827D01*
X73284Y-15858D01*
X73253Y-15919D01*
X73231Y-15986D01*
X73217Y-16047D01*
X73209Y-16105D01*
X73206Y-16130D01*
Y-16152D01*
X73203Y-16169D01*
Y-16183D01*
Y-16191D01*
Y-16194D01*
Y-16244D01*
X73209Y-16291D01*
X73214Y-16333D01*
X73223Y-16374D01*
X73231Y-16410D01*
X73242Y-16444D01*
X73250Y-16474D01*
X73261Y-16502D01*
X73272Y-16524D01*
X73284Y-16546D01*
X73295Y-16563D01*
X73303Y-16577D01*
X73311Y-16588D01*
X73317Y-16596D01*
X73320Y-16599D01*
X73322Y-16602D01*
X73345Y-16624D01*
X73370Y-16646D01*
X73417Y-16680D01*
X73467Y-16702D01*
X73511Y-16719D01*
X73553Y-16727D01*
X73583Y-16732D01*
X73597Y-16735D01*
X73614D01*
X73647Y-16732D01*
X73678Y-16730D01*
X73736Y-16716D01*
X73786Y-16694D01*
X73828Y-16669D01*
X73861Y-16646D01*
X73886Y-16624D01*
X73903Y-16610D01*
X73905Y-16605D01*
X73908D01*
X73928Y-16577D01*
X73947Y-16549D01*
X73975Y-16485D01*
X73997Y-16419D01*
X74011Y-16352D01*
X74019Y-16294D01*
X74022Y-16269D01*
Y-16247D01*
X74025Y-16227D01*
Y-16213D01*
Y-16205D01*
Y-16202D01*
X74022Y-16155D01*
X74019Y-16108D01*
X74014Y-16066D01*
X74005Y-16027D01*
X73997Y-15991D01*
X73989Y-15958D01*
X73978Y-15930D01*
X73967Y-15902D01*
X73955Y-15880D01*
X73944Y-15858D01*
X73936Y-15841D01*
X73928Y-15827D01*
X73919Y-15816D01*
X73914Y-15808D01*
X73908Y-15805D01*
Y-15802D01*
X73886Y-15780D01*
X73861Y-15758D01*
X73814Y-15725D01*
X73764Y-15702D01*
X73717Y-15686D01*
X73675Y-15675D01*
X73645Y-15672D01*
X73631Y-15669D01*
D02*
G37*
G36*
X64375D02*
X64358D01*
X64325Y-15672D01*
X64294Y-15675D01*
X64239Y-15689D01*
X64189Y-15711D01*
X64147Y-15736D01*
X64114Y-15761D01*
X64089Y-15780D01*
X64072Y-15797D01*
X64067Y-15800D01*
Y-15802D01*
X64044Y-15827D01*
X64028Y-15858D01*
X63997Y-15919D01*
X63975Y-15986D01*
X63961Y-16047D01*
X63953Y-16105D01*
X63950Y-16130D01*
Y-16152D01*
X63947Y-16169D01*
Y-16183D01*
Y-16191D01*
Y-16194D01*
Y-16244D01*
X63953Y-16291D01*
X63958Y-16333D01*
X63967Y-16374D01*
X63975Y-16410D01*
X63986Y-16444D01*
X63994Y-16474D01*
X64005Y-16502D01*
X64017Y-16524D01*
X64028Y-16546D01*
X64039Y-16563D01*
X64047Y-16577D01*
X64055Y-16588D01*
X64061Y-16596D01*
X64064Y-16599D01*
X64067Y-16602D01*
X64089Y-16624D01*
X64114Y-16646D01*
X64161Y-16680D01*
X64211Y-16702D01*
X64255Y-16719D01*
X64297Y-16727D01*
X64328Y-16732D01*
X64341Y-16735D01*
X64358D01*
X64391Y-16732D01*
X64422Y-16730D01*
X64480Y-16716D01*
X64530Y-16694D01*
X64572Y-16669D01*
X64605Y-16646D01*
X64630Y-16624D01*
X64647Y-16610D01*
X64650Y-16605D01*
X64652D01*
X64672Y-16577D01*
X64691Y-16549D01*
X64719Y-16485D01*
X64741Y-16419D01*
X64755Y-16352D01*
X64763Y-16294D01*
X64766Y-16269D01*
Y-16247D01*
X64769Y-16227D01*
Y-16213D01*
Y-16205D01*
Y-16202D01*
X64766Y-16155D01*
X64763Y-16108D01*
X64758Y-16066D01*
X64750Y-16027D01*
X64741Y-15991D01*
X64733Y-15958D01*
X64722Y-15930D01*
X64711Y-15902D01*
X64700Y-15880D01*
X64688Y-15858D01*
X64680Y-15841D01*
X64672Y-15827D01*
X64663Y-15816D01*
X64658Y-15808D01*
X64652Y-15805D01*
Y-15802D01*
X64630Y-15780D01*
X64605Y-15758D01*
X64558Y-15725D01*
X64508Y-15702D01*
X64461Y-15686D01*
X64419Y-15675D01*
X64389Y-15672D01*
X64375Y-15669D01*
D02*
G37*
G36*
X62323D02*
X62309D01*
X62279Y-15672D01*
X62251Y-15675D01*
X62198Y-15691D01*
X62151Y-15711D01*
X62112Y-15736D01*
X62082Y-15761D01*
X62057Y-15783D01*
X62043Y-15800D01*
X62037Y-15802D01*
Y-15805D01*
X62018Y-15833D01*
X62001Y-15861D01*
X61973Y-15927D01*
X61954Y-15997D01*
X61940Y-16063D01*
X61934Y-16097D01*
X61932Y-16127D01*
X61929Y-16155D01*
Y-16177D01*
X61926Y-16197D01*
Y-16211D01*
Y-16222D01*
Y-16224D01*
Y-16272D01*
X61932Y-16316D01*
X61937Y-16355D01*
X61943Y-16394D01*
X61951Y-16427D01*
X61962Y-16460D01*
X61971Y-16488D01*
X61982Y-16513D01*
X61993Y-16535D01*
X62001Y-16558D01*
X62012Y-16571D01*
X62020Y-16585D01*
X62026Y-16596D01*
X62032Y-16605D01*
X62037Y-16608D01*
Y-16610D01*
X62057Y-16632D01*
X62079Y-16652D01*
X62123Y-16682D01*
X62168Y-16705D01*
X62209Y-16719D01*
X62245Y-16730D01*
X62276Y-16732D01*
X62287Y-16735D01*
X62301D01*
X62329Y-16732D01*
X62356Y-16730D01*
X62406Y-16716D01*
X62454Y-16694D01*
X62492Y-16669D01*
X62523Y-16646D01*
X62548Y-16624D01*
X62562Y-16610D01*
X62565Y-16605D01*
X62567D01*
X62587Y-16577D01*
X62603Y-16549D01*
X62631Y-16485D01*
X62651Y-16419D01*
X62665Y-16355D01*
X62673Y-16297D01*
X62676Y-16272D01*
Y-16249D01*
X62678Y-16230D01*
Y-16216D01*
Y-16208D01*
Y-16205D01*
Y-16155D01*
X62673Y-16108D01*
X62667Y-16063D01*
X62662Y-16024D01*
X62653Y-15988D01*
X62645Y-15955D01*
X62637Y-15925D01*
X62626Y-15897D01*
X62615Y-15875D01*
X62606Y-15855D01*
X62598Y-15838D01*
X62590Y-15825D01*
X62581Y-15814D01*
X62578Y-15805D01*
X62573Y-15802D01*
Y-15800D01*
X62554Y-15777D01*
X62531Y-15755D01*
X62487Y-15725D01*
X62442Y-15700D01*
X62401Y-15686D01*
X62365Y-15675D01*
X62334Y-15672D01*
X62323Y-15669D01*
D02*
G37*
G36*
X60782D02*
X60766D01*
X60732Y-15672D01*
X60702Y-15675D01*
X60643Y-15691D01*
X60594Y-15714D01*
X60552Y-15739D01*
X60519Y-15764D01*
X60494Y-15786D01*
X60480Y-15802D01*
X60474Y-15805D01*
Y-15808D01*
X60449Y-15844D01*
X60427Y-15886D01*
X60413Y-15927D01*
X60399Y-15972D01*
X60391Y-16008D01*
X60385Y-16041D01*
Y-16052D01*
X60383Y-16061D01*
Y-16066D01*
Y-16069D01*
X61163D01*
X61154Y-16005D01*
X61138Y-15947D01*
X61118Y-15897D01*
X61096Y-15858D01*
X61077Y-15825D01*
X61057Y-15800D01*
X61046Y-15786D01*
X61040Y-15780D01*
X60996Y-15744D01*
X60952Y-15716D01*
X60904Y-15697D01*
X60860Y-15683D01*
X60824Y-15675D01*
X60793Y-15672D01*
X60782Y-15669D01*
D02*
G37*
G36*
X75693Y-15206D02*
X75238D01*
X75177Y-15211D01*
X75130Y-15214D01*
X75088Y-15219D01*
X75058Y-15225D01*
X75038Y-15228D01*
X75024Y-15233D01*
X75022D01*
X74991Y-15244D01*
X74963Y-15261D01*
X74941Y-15278D01*
X74922Y-15294D01*
X74908Y-15308D01*
X74897Y-15322D01*
X74891Y-15330D01*
X74888Y-15333D01*
X74872Y-15361D01*
X74860Y-15389D01*
X74852Y-15417D01*
X74847Y-15444D01*
X74844Y-15466D01*
X74841Y-15483D01*
Y-15494D01*
Y-15500D01*
X74844Y-15536D01*
X74849Y-15569D01*
X74858Y-15597D01*
X74866Y-15619D01*
X74874Y-15639D01*
X74883Y-15655D01*
X74888Y-15664D01*
X74891Y-15666D01*
X74910Y-15689D01*
X74935Y-15711D01*
X74960Y-15727D01*
X74983Y-15739D01*
X75005Y-15750D01*
X75022Y-15758D01*
X75033Y-15761D01*
X75038Y-15764D01*
X75069Y-15769D01*
X75108Y-15775D01*
X75146Y-15777D01*
X75185Y-15780D01*
X75221Y-15783D01*
X75693D01*
Y-15206D01*
D02*
G37*
G36*
Y-16011D02*
X75188D01*
X75130Y-16016D01*
X75083Y-16022D01*
X75044Y-16027D01*
X75013Y-16033D01*
X74988Y-16038D01*
X74977Y-16041D01*
X74972Y-16044D01*
X74935Y-16058D01*
X74905Y-16074D01*
X74877Y-16094D01*
X74855Y-16113D01*
X74838Y-16130D01*
X74827Y-16144D01*
X74819Y-16155D01*
X74816Y-16158D01*
X74797Y-16188D01*
X74783Y-16219D01*
X74772Y-16249D01*
X74766Y-16277D01*
X74761Y-16302D01*
X74758Y-16324D01*
Y-16335D01*
Y-16341D01*
X74761Y-16374D01*
X74763Y-16408D01*
X74769Y-16435D01*
X74777Y-16458D01*
X74786Y-16477D01*
X74791Y-16494D01*
X74794Y-16502D01*
X74797Y-16505D01*
X74813Y-16530D01*
X74827Y-16552D01*
X74847Y-16569D01*
X74860Y-16585D01*
X74874Y-16596D01*
X74885Y-16605D01*
X74894Y-16610D01*
X74897Y-16613D01*
X74944Y-16635D01*
X74991Y-16652D01*
X75010Y-16657D01*
X75027Y-16660D01*
X75038Y-16663D01*
X75041D01*
X75063Y-16666D01*
X75088Y-16669D01*
X75146Y-16671D01*
X75693D01*
Y-16011D01*
D02*
G37*
%LPD*%
D83*
X-0Y2000D02*
G03*
X2000Y0I2000J0D01*
G01*
Y133340D02*
G03*
X-0Y131340I0J-2000D01*
G01*
X70000D02*
G03*
X68000Y133340I-2000J0D01*
G01*
Y0D02*
G03*
X70000Y2000I0J2000D01*
G01*
X36469Y7300D02*
G03*
X37369Y6400I900J0D01*
G01*
Y8200D02*
G03*
X36469Y7300I0J-900D01*
G01*
X52269Y7300D02*
G03*
X51369Y8200I-900J0D01*
G01*
X51369Y6400D02*
G03*
X52269Y7300I0J900D01*
G01*
X-0Y2000D02*
Y131340D01*
X70000Y2000D02*
Y131340D01*
X2000Y133340D02*
X68000D01*
X2000Y0D02*
X37369D01*
Y-0D02*
Y6400D01*
Y8200D02*
X51369D01*
X52269Y7300D02*
Y7300D01*
X51369Y-0D02*
Y6400D01*
Y-0D02*
X68000D01*
Y0D01*
D84*
X51369Y6400D02*
D03*
D108*
X66750Y108100D02*
D03*
D140*
X37309Y9520D02*
D03*
X39599D02*
D03*
X51429D02*
D03*
X46919Y11700D02*
D03*
X45899Y10600D02*
D03*
X44879Y11700D02*
D03*
X43859Y10600D02*
D03*
X42839Y11700D02*
D03*
X41819Y10600D02*
D03*
X40799Y11700D02*
D03*
X49139Y9520D02*
D03*
D142*
X36191Y33929D02*
D03*
Y34829D02*
D03*
X37191Y33929D02*
D03*
Y34829D02*
D03*
X38191Y33929D02*
D03*
Y34829D02*
D03*
X39191Y33929D02*
D03*
Y34829D02*
D03*
D143*
X26825Y55625D02*
D03*
Y57025D02*
D03*
D144*
X16316Y115454D02*
D03*
X15416D02*
D03*
D145*
X41114Y101967D02*
D03*
X39714D02*
D03*
X34166Y101979D02*
D03*
X32766D02*
D03*
X37566D02*
D03*
X36166D02*
D03*
X34166Y103379D02*
D03*
X32766D02*
D03*
X37566D02*
D03*
X36166D02*
D03*
X41111Y103385D02*
D03*
X39711D02*
D03*
D162*
X5841Y128029D02*
D03*
X63891Y130654D02*
D03*
X65016Y2029D02*
D03*
D163*
X27116Y71304D02*
D03*
X43116D02*
D03*
X46466Y129158D02*
D03*
X51466D02*
D03*
D164*
X43886Y92074D02*
D03*
X32456Y93979D02*
D03*
X29916D02*
D03*
X34996Y97154D02*
D03*
X10866Y99059D02*
D03*
X61666Y121919D02*
D03*
Y119379D02*
D03*
Y116839D02*
D03*
X59126D02*
D03*
Y119379D02*
D03*
Y114299D02*
D03*
X61666D02*
D03*
X29916Y130809D02*
D03*
X5786Y12699D02*
D03*
X66746Y12674D02*
D03*
X64206Y99034D02*
D03*
Y96494D02*
D03*
Y93954D02*
D03*
X66746Y96494D02*
D03*
Y99034D02*
D03*
Y101574D02*
D03*
Y93954D02*
D03*
Y86334D02*
D03*
Y91414D02*
D03*
Y88874D02*
D03*
X64206Y86334D02*
D03*
Y88874D02*
D03*
Y91414D02*
D03*
Y78714D02*
D03*
Y76174D02*
D03*
Y73634D02*
D03*
X66746Y76174D02*
D03*
Y78714D02*
D03*
Y73634D02*
D03*
Y81254D02*
D03*
Y83794D02*
D03*
X64206Y81254D02*
D03*
Y83794D02*
D03*
Y58394D02*
D03*
Y55854D02*
D03*
X66746Y58394D02*
D03*
Y55854D02*
D03*
Y53314D02*
D03*
Y50774D02*
D03*
X64206D02*
D03*
Y53314D02*
D03*
Y66014D02*
D03*
Y63474D02*
D03*
Y60934D02*
D03*
X66746Y63474D02*
D03*
Y66014D02*
D03*
Y60934D02*
D03*
Y68554D02*
D03*
Y71094D02*
D03*
X64206Y68554D02*
D03*
Y71094D02*
D03*
Y48234D02*
D03*
X66746D02*
D03*
X64206Y17754D02*
D03*
Y15214D02*
D03*
X66746Y17754D02*
D03*
Y15214D02*
D03*
X64206Y30454D02*
D03*
Y27914D02*
D03*
X66746Y30454D02*
D03*
Y27914D02*
D03*
Y20294D02*
D03*
Y25374D02*
D03*
Y22834D02*
D03*
X64206Y20294D02*
D03*
Y22834D02*
D03*
Y25374D02*
D03*
Y38074D02*
D03*
Y35534D02*
D03*
Y32994D02*
D03*
X66746Y35534D02*
D03*
Y38074D02*
D03*
Y32994D02*
D03*
Y40614D02*
D03*
Y45694D02*
D03*
Y43154D02*
D03*
X64206Y40614D02*
D03*
Y43154D02*
D03*
Y45694D02*
D03*
X3246Y99059D02*
D03*
Y96519D02*
D03*
Y93979D02*
D03*
X5786Y96519D02*
D03*
Y99059D02*
D03*
Y101599D02*
D03*
Y93979D02*
D03*
Y86359D02*
D03*
Y91439D02*
D03*
Y88899D02*
D03*
X3246Y86359D02*
D03*
Y88899D02*
D03*
Y91439D02*
D03*
Y78739D02*
D03*
Y76199D02*
D03*
Y73659D02*
D03*
X5786Y76199D02*
D03*
Y78739D02*
D03*
Y73659D02*
D03*
Y81279D02*
D03*
Y83819D02*
D03*
X3246Y81279D02*
D03*
Y83819D02*
D03*
Y58419D02*
D03*
Y55879D02*
D03*
X5786Y58419D02*
D03*
Y55879D02*
D03*
Y53339D02*
D03*
Y50799D02*
D03*
X3246D02*
D03*
Y53339D02*
D03*
Y66039D02*
D03*
Y63499D02*
D03*
Y60959D02*
D03*
X5786Y63499D02*
D03*
Y66039D02*
D03*
Y60959D02*
D03*
Y68579D02*
D03*
Y71119D02*
D03*
X3246Y68579D02*
D03*
Y71119D02*
D03*
Y48259D02*
D03*
X5786D02*
D03*
X3246Y17779D02*
D03*
Y15239D02*
D03*
X5786Y17779D02*
D03*
Y15239D02*
D03*
X3246Y30479D02*
D03*
Y27939D02*
D03*
X5786Y30479D02*
D03*
Y27939D02*
D03*
Y20319D02*
D03*
Y25399D02*
D03*
Y22859D02*
D03*
X3246Y20319D02*
D03*
Y22859D02*
D03*
Y25399D02*
D03*
Y38099D02*
D03*
Y35559D02*
D03*
Y33019D02*
D03*
X5786Y35559D02*
D03*
Y38099D02*
D03*
Y33019D02*
D03*
Y40639D02*
D03*
Y45719D02*
D03*
Y43179D02*
D03*
X3246Y40639D02*
D03*
Y43179D02*
D03*
Y45719D02*
D03*
X59126Y35559D02*
D03*
X56586Y48259D02*
D03*
Y45719D02*
D03*
Y43179D02*
D03*
Y40639D02*
D03*
Y38099D02*
D03*
Y60959D02*
D03*
Y58419D02*
D03*
Y55879D02*
D03*
Y53339D02*
D03*
Y50799D02*
D03*
X59126Y73659D02*
D03*
X56586Y71119D02*
D03*
Y68579D02*
D03*
Y66039D02*
D03*
Y63499D02*
D03*
X59126Y38099D02*
D03*
Y40639D02*
D03*
Y43179D02*
D03*
Y45719D02*
D03*
Y48259D02*
D03*
Y55879D02*
D03*
Y58419D02*
D03*
Y66039D02*
D03*
Y68579D02*
D03*
Y71119D02*
D03*
Y63499D02*
D03*
Y60959D02*
D03*
Y53339D02*
D03*
Y50799D02*
D03*
X56586Y35559D02*
D03*
X59126Y33019D02*
D03*
X56586D02*
D03*
X10866Y43179D02*
D03*
Y40639D02*
D03*
Y38099D02*
D03*
Y35559D02*
D03*
Y33019D02*
D03*
Y55879D02*
D03*
Y53339D02*
D03*
Y50799D02*
D03*
Y48259D02*
D03*
Y45719D02*
D03*
X13406Y68579D02*
D03*
X10866Y66039D02*
D03*
Y63499D02*
D03*
Y60959D02*
D03*
Y58419D02*
D03*
X13406Y33019D02*
D03*
Y35559D02*
D03*
Y38099D02*
D03*
Y40639D02*
D03*
Y43179D02*
D03*
Y50799D02*
D03*
Y53339D02*
D03*
Y60959D02*
D03*
Y63499D02*
D03*
Y66039D02*
D03*
Y58419D02*
D03*
Y55879D02*
D03*
Y48259D02*
D03*
Y45719D02*
D03*
X10866Y78739D02*
D03*
Y76199D02*
D03*
Y73659D02*
D03*
X13406Y91439D02*
D03*
X10866Y88899D02*
D03*
Y86359D02*
D03*
Y83819D02*
D03*
Y81279D02*
D03*
X13406Y73659D02*
D03*
Y76199D02*
D03*
Y83819D02*
D03*
Y86359D02*
D03*
Y88899D02*
D03*
Y81279D02*
D03*
Y78739D02*
D03*
X59126Y77723D02*
D03*
Y80263D02*
D03*
Y87883D02*
D03*
Y90423D02*
D03*
Y98043D02*
D03*
Y95503D02*
D03*
Y92963D02*
D03*
Y85343D02*
D03*
Y82803D02*
D03*
X56586Y90423D02*
D03*
Y92963D02*
D03*
Y95503D02*
D03*
Y98043D02*
D03*
X59126Y100583D02*
D03*
X56586Y77723D02*
D03*
Y80263D02*
D03*
Y82803D02*
D03*
Y85343D02*
D03*
Y87883D02*
D03*
X66746Y126999D02*
D03*
X3246D02*
D03*
X19756Y130809D02*
D03*
X22296D02*
D03*
X24836D02*
D03*
D165*
X46426Y92074D02*
D03*
X34996Y93979D02*
D03*
X37536Y97154D02*
D03*
X32456Y130809D02*
D03*
X3246Y12699D02*
D03*
X64206Y12674D02*
D03*
X17216Y130809D02*
D03*
D166*
X10866Y101599D02*
D03*
X59126Y121919D02*
D03*
X64206Y101574D02*
D03*
X3246Y101599D02*
D03*
X56586Y73659D02*
D03*
X10866Y68579D02*
D03*
Y91439D02*
D03*
X56586Y100583D02*
D03*
X66746Y129539D02*
D03*
X3246D02*
D03*
D167*
X36329Y4200D02*
D03*
X52409D02*
D03*
D168*
X47939Y10600D02*
D03*
D169*
X18598Y4464D02*
D03*
X23048D02*
D03*
D170*
X23198Y814D02*
D03*
X18448D02*
D03*
D171*
X24810Y1464D02*
D03*
X16835D02*
D03*
D172*
X6421Y121919D02*
D03*
Y115569D02*
D03*
D173*
Y124189D02*
D03*
Y113299D02*
D03*
D174*
X45466Y131858D02*
D03*
X52466D02*
D03*
D175*
X43886Y53339D02*
D03*
X59126Y104139D02*
D03*
X10866Y105409D02*
D03*
X12136Y29209D02*
D03*
X57856D02*
D03*
D176*
X9641Y116204D02*
D03*
X8341D02*
D03*
Y114504D02*
D03*
X8991D02*
D03*
X9641D02*
D03*
D177*
X34158Y105047D02*
D03*
X32258D02*
D03*
X33208Y107247D02*
D03*
X37566Y105047D02*
D03*
X35666D02*
D03*
X36616Y107247D02*
D03*
X41091Y105047D02*
D03*
X39191D02*
D03*
X40141Y107247D02*
D03*
D178*
X54481Y114299D02*
D03*
X52341D02*
D03*
X54481Y116839D02*
D03*
X52341D02*
D03*
X54481Y119379D02*
D03*
X52341D02*
D03*
D179*
X917Y1375D02*
D03*
X3417Y6376D02*
D03*
X4667Y128876D02*
D03*
X3417Y131376D02*
D03*
X5917Y6376D02*
D03*
Y126376D02*
D03*
Y131376D02*
D03*
X8417Y6376D02*
D03*
Y21375D02*
D03*
Y26375D02*
D03*
Y31375D02*
D03*
Y111376D02*
D03*
X10917Y6376D02*
D03*
Y21375D02*
D03*
Y26375D02*
D03*
Y31375D02*
D03*
Y111376D02*
D03*
X13417Y1375D02*
D03*
Y6376D02*
D03*
Y21375D02*
D03*
X14667Y23875D02*
D03*
X13417Y26375D02*
D03*
X14667Y28875D02*
D03*
Y33875D02*
D03*
X13417Y106376D02*
D03*
Y126376D02*
D03*
X17167Y3875D02*
D03*
X15917Y6376D02*
D03*
X18417Y11375D02*
D03*
X25917Y16375D02*
D03*
Y21375D02*
D03*
Y26375D02*
D03*
Y31375D02*
D03*
X28417Y101376D02*
D03*
Y106376D02*
D03*
X30917D02*
D03*
X35917Y131376D02*
D03*
X38417D02*
D03*
X45917Y106376D02*
D03*
X48417D02*
D03*
X50917D02*
D03*
X53417Y111376D02*
D03*
X57167Y13875D02*
D03*
X55917Y106376D02*
D03*
Y111376D02*
D03*
X58417Y1375D02*
D03*
Y6376D02*
D03*
Y11375D02*
D03*
X59667Y13875D02*
D03*
X58417Y16375D02*
D03*
Y106376D02*
D03*
Y111376D02*
D03*
X60917Y1375D02*
D03*
Y6376D02*
D03*
Y96376D02*
D03*
X62167Y98876D02*
D03*
Y103876D02*
D03*
X60917Y106376D02*
D03*
X63417Y1375D02*
D03*
X64667Y3875D02*
D03*
X63417Y6376D02*
D03*
Y16375D02*
D03*
Y106376D02*
D03*
X65917Y6376D02*
D03*
Y11375D02*
D03*
X67167Y123876D02*
D03*
X65917Y131376D02*
D03*
M02*
