G04 Layer_Color=8388736*
%FSLAX25Y25*%
%MOIN*%
G70*
G01*
G75*
%ADD75R,0.02769X0.08674*%
%ADD76R,0.04343X0.10249*%
%ADD77R,0.03556X0.03950*%
%ADD78R,0.10800X0.03320*%
%ADD79R,0.19304X0.03320*%
%ADD80R,0.01981X0.06509*%
%ADD81R,0.03162X0.09461*%
%ADD82R,0.03162X0.09461*%
%ADD83R,0.04737X0.04343*%
%ADD84R,0.03950X0.03162*%
%ADD85R,0.03162X0.03950*%
%ADD86R,0.07887X0.05918*%
%ADD87C,0.07874*%
%ADD88R,0.04737X0.04934*%
%ADD89R,0.04934X0.09461*%
%ADD90R,0.06706X0.06706*%
%ADD91C,0.06509*%
%ADD92C,0.06115*%
%ADD93R,0.08674X0.08674*%
%ADD94C,0.06902*%
%ADD95C,0.10642*%
%ADD96C,0.20485*%
%ADD97C,0.04816*%
%ADD98C,0.05918*%
%ADD99R,0.05918X0.05918*%
%ADD100C,0.10800*%
%ADD101R,0.05918X0.05918*%
%ADD102C,0.09658*%
%ADD103C,0.28359*%
D75*
X567992Y272441D02*
D03*
X564843D02*
D03*
X561693D02*
D03*
X558543D02*
D03*
X555394D02*
D03*
X552244D02*
D03*
X549094D02*
D03*
X545945D02*
D03*
X542795D02*
D03*
X539646D02*
D03*
X541221Y240158D02*
D03*
X544370D02*
D03*
X547520D02*
D03*
X550669D02*
D03*
X553819D02*
D03*
X556968D02*
D03*
X560118D02*
D03*
X563268D02*
D03*
X566417D02*
D03*
X569567D02*
D03*
X644370Y240158D02*
D03*
X641221D02*
D03*
X638071D02*
D03*
X634921D02*
D03*
X631772D02*
D03*
X628622D02*
D03*
X625472D02*
D03*
X622323D02*
D03*
X619173D02*
D03*
X616024D02*
D03*
X614449Y272441D02*
D03*
X617598D02*
D03*
X620748D02*
D03*
X623898D02*
D03*
X627047D02*
D03*
X630197D02*
D03*
X633347D02*
D03*
X636496D02*
D03*
X639646D02*
D03*
X642795D02*
D03*
D76*
X536752Y21850D02*
D03*
X541752D02*
D03*
X546752D02*
D03*
X551752D02*
D03*
X556752D02*
D03*
X561752D02*
D03*
X566752D02*
D03*
X488012D02*
D03*
X483012D02*
D03*
X478012D02*
D03*
X473012D02*
D03*
X468012D02*
D03*
X463012D02*
D03*
X458012D02*
D03*
X615492D02*
D03*
X620492D02*
D03*
X625492D02*
D03*
X630492D02*
D03*
X635492D02*
D03*
X640492D02*
D03*
X645492D02*
D03*
D77*
X513779Y328346D02*
D03*
Y333071D02*
D03*
X496063Y333071D02*
D03*
Y328346D02*
D03*
X484252Y333071D02*
D03*
Y328346D02*
D03*
X507874Y333071D02*
D03*
Y328346D02*
D03*
X501968Y328346D02*
D03*
Y333071D02*
D03*
X490158Y328346D02*
D03*
Y333071D02*
D03*
X309600Y127462D02*
D03*
Y122738D02*
D03*
X330400Y127462D02*
D03*
Y122738D02*
D03*
X299200Y122738D02*
D03*
Y127462D02*
D03*
X304400Y122738D02*
D03*
Y127462D02*
D03*
X314800Y122738D02*
D03*
Y127462D02*
D03*
X320000Y122738D02*
D03*
Y127462D02*
D03*
X325200Y122738D02*
D03*
Y127462D02*
D03*
X230700Y127462D02*
D03*
Y122738D02*
D03*
X251500Y127462D02*
D03*
Y122738D02*
D03*
X220300Y127462D02*
D03*
Y122738D02*
D03*
X225500Y127462D02*
D03*
Y122738D02*
D03*
X235900Y127462D02*
D03*
Y122738D02*
D03*
X241100Y127462D02*
D03*
Y122738D02*
D03*
X246300Y127462D02*
D03*
Y122738D02*
D03*
D78*
X202972Y312992D02*
D03*
X269468D02*
D03*
X360453D02*
D03*
X426949D02*
D03*
X348209D02*
D03*
X281713D02*
D03*
X281713Y84646D02*
D03*
X348209D02*
D03*
X426949D02*
D03*
X360453D02*
D03*
X269469D02*
D03*
X202973D02*
D03*
D79*
X223721Y312992D02*
D03*
X248721D02*
D03*
X381201D02*
D03*
X406201D02*
D03*
X327461D02*
D03*
X302461D02*
D03*
X302461Y84646D02*
D03*
X327461D02*
D03*
X406201D02*
D03*
X381201D02*
D03*
X248721D02*
D03*
X223721D02*
D03*
D80*
X422244Y300827D02*
D03*
X422244Y325157D02*
D03*
X420276D02*
D03*
X418307D02*
D03*
X416339D02*
D03*
X414370D02*
D03*
X412402D02*
D03*
X410433D02*
D03*
X408465D02*
D03*
X406496D02*
D03*
X404528D02*
D03*
X402559D02*
D03*
X400591D02*
D03*
X398622D02*
D03*
X396654D02*
D03*
X394685D02*
D03*
X392717D02*
D03*
X390748D02*
D03*
X388779D02*
D03*
X386811D02*
D03*
X384842D02*
D03*
X382874D02*
D03*
X380906D02*
D03*
X378937D02*
D03*
X376969D02*
D03*
X375000D02*
D03*
X373031D02*
D03*
X371063D02*
D03*
X369094D02*
D03*
X367126D02*
D03*
X365158D02*
D03*
X343504D02*
D03*
X341535D02*
D03*
X339567D02*
D03*
X337598D02*
D03*
X335630D02*
D03*
X333661D02*
D03*
X331693D02*
D03*
X329724D02*
D03*
X327756D02*
D03*
X325787D02*
D03*
X323819D02*
D03*
X321850D02*
D03*
X319882D02*
D03*
X317913D02*
D03*
X315945D02*
D03*
X313976D02*
D03*
X312008D02*
D03*
X310039D02*
D03*
X308071D02*
D03*
X306102D02*
D03*
X304134D02*
D03*
X302165D02*
D03*
X300197D02*
D03*
X298228D02*
D03*
X296260D02*
D03*
X294291D02*
D03*
X292323D02*
D03*
X290354D02*
D03*
X288386D02*
D03*
X286417D02*
D03*
X264764D02*
D03*
X262795D02*
D03*
X260827D02*
D03*
X258858D02*
D03*
X256890D02*
D03*
X254921D02*
D03*
X252953D02*
D03*
X250984D02*
D03*
X249016D02*
D03*
X247047D02*
D03*
X245079D02*
D03*
X243110D02*
D03*
X241142D02*
D03*
X239173D02*
D03*
X237205D02*
D03*
X235236D02*
D03*
X233268D02*
D03*
X231299D02*
D03*
X229331D02*
D03*
X227362D02*
D03*
X225394D02*
D03*
X223425D02*
D03*
X221457D02*
D03*
X219488D02*
D03*
X217520D02*
D03*
X215551D02*
D03*
X213583D02*
D03*
X211614D02*
D03*
X209646D02*
D03*
X207677D02*
D03*
X420276Y300827D02*
D03*
X418307D02*
D03*
X416339D02*
D03*
X414370D02*
D03*
X412402D02*
D03*
X410433D02*
D03*
X408465D02*
D03*
X406496D02*
D03*
X404528D02*
D03*
X402559D02*
D03*
X400591D02*
D03*
X398622D02*
D03*
X396654D02*
D03*
X394685D02*
D03*
X392717D02*
D03*
X390748D02*
D03*
X388779D02*
D03*
X386811D02*
D03*
X384842D02*
D03*
X382874D02*
D03*
X380906D02*
D03*
X378937D02*
D03*
X376969D02*
D03*
X375000D02*
D03*
X373031D02*
D03*
X371063D02*
D03*
X369094D02*
D03*
X367126D02*
D03*
X365158D02*
D03*
X343504D02*
D03*
X341535D02*
D03*
X339567D02*
D03*
X337598D02*
D03*
X335630D02*
D03*
X333661D02*
D03*
X331693D02*
D03*
X329724D02*
D03*
X327756D02*
D03*
X325787D02*
D03*
X323819D02*
D03*
X321850D02*
D03*
X319882D02*
D03*
X317913D02*
D03*
X315945D02*
D03*
X313976D02*
D03*
X312008D02*
D03*
X310039D02*
D03*
X308071D02*
D03*
X306102D02*
D03*
X304134D02*
D03*
X302165D02*
D03*
X300197D02*
D03*
X298228D02*
D03*
X296260D02*
D03*
X294291D02*
D03*
X292323D02*
D03*
X290354D02*
D03*
X288386D02*
D03*
X286417D02*
D03*
X264764D02*
D03*
X262795D02*
D03*
X260827D02*
D03*
X258858D02*
D03*
X256890D02*
D03*
X254921D02*
D03*
X252953D02*
D03*
X250984D02*
D03*
X249016D02*
D03*
X247047D02*
D03*
X245079D02*
D03*
X243110D02*
D03*
X241142D02*
D03*
X239173D02*
D03*
X237205D02*
D03*
X235236D02*
D03*
X233268D02*
D03*
X231299D02*
D03*
X229331D02*
D03*
X227362D02*
D03*
X225394D02*
D03*
X223425D02*
D03*
X221457D02*
D03*
X219488D02*
D03*
X217520D02*
D03*
X215551D02*
D03*
X213583D02*
D03*
X211614D02*
D03*
X209646D02*
D03*
X207677D02*
D03*
X207677Y72480D02*
D03*
X209646D02*
D03*
X211614D02*
D03*
X213583D02*
D03*
X215551D02*
D03*
X217520D02*
D03*
X219488D02*
D03*
X221457D02*
D03*
X223425D02*
D03*
X225394D02*
D03*
X227362D02*
D03*
X229331D02*
D03*
X231299D02*
D03*
X233268D02*
D03*
X235236D02*
D03*
X237205D02*
D03*
X239173D02*
D03*
X241142D02*
D03*
X243110D02*
D03*
X245079D02*
D03*
X247047D02*
D03*
X249016D02*
D03*
X250984D02*
D03*
X252953D02*
D03*
X254921D02*
D03*
X256890D02*
D03*
X258858D02*
D03*
X260827D02*
D03*
X262795D02*
D03*
X264764D02*
D03*
X286417D02*
D03*
X288386D02*
D03*
X290354D02*
D03*
X292323D02*
D03*
X294291D02*
D03*
X296260D02*
D03*
X298228D02*
D03*
X300197D02*
D03*
X302165D02*
D03*
X304134D02*
D03*
X306102D02*
D03*
X308071D02*
D03*
X310039D02*
D03*
X312008D02*
D03*
X313976D02*
D03*
X315945D02*
D03*
X317914D02*
D03*
X319882D02*
D03*
X321850D02*
D03*
X323819D02*
D03*
X325787D02*
D03*
X327756D02*
D03*
X329725D02*
D03*
X331693D02*
D03*
X333662D02*
D03*
X335630D02*
D03*
X337598D02*
D03*
X339567D02*
D03*
X341535D02*
D03*
X343504D02*
D03*
X365158D02*
D03*
X367126D02*
D03*
X369094D02*
D03*
X371063D02*
D03*
X373032D02*
D03*
X375000D02*
D03*
X376969D02*
D03*
X378937D02*
D03*
X380906D02*
D03*
X382874D02*
D03*
X384843D02*
D03*
X386811D02*
D03*
X388780D02*
D03*
X390748D02*
D03*
X392717D02*
D03*
X394685D02*
D03*
X396654D02*
D03*
X398622D02*
D03*
X400591D02*
D03*
X402559D02*
D03*
X404528D02*
D03*
X406496D02*
D03*
X408465D02*
D03*
X410433D02*
D03*
X412402D02*
D03*
X414370D02*
D03*
X416339D02*
D03*
X418307D02*
D03*
X420276D02*
D03*
X207677Y96811D02*
D03*
X209646D02*
D03*
X211614D02*
D03*
X213583D02*
D03*
X215551D02*
D03*
X217520D02*
D03*
X219488D02*
D03*
X221457D02*
D03*
X223425D02*
D03*
X225394D02*
D03*
X227362D02*
D03*
X229331D02*
D03*
X231299D02*
D03*
X233268D02*
D03*
X235236D02*
D03*
X237205D02*
D03*
X239173D02*
D03*
X241142D02*
D03*
X243110D02*
D03*
X245079D02*
D03*
X247047D02*
D03*
X249016D02*
D03*
X250984D02*
D03*
X252953D02*
D03*
X254921D02*
D03*
X256890D02*
D03*
X258858D02*
D03*
X260827D02*
D03*
X262795D02*
D03*
X264764D02*
D03*
X286417D02*
D03*
X288386D02*
D03*
X290354D02*
D03*
X292323D02*
D03*
X294291D02*
D03*
X296260D02*
D03*
X298228D02*
D03*
X300197D02*
D03*
X302165D02*
D03*
X304134D02*
D03*
X306102D02*
D03*
X308071D02*
D03*
X310039D02*
D03*
X312008D02*
D03*
X313976D02*
D03*
X315945D02*
D03*
X317913D02*
D03*
X319882D02*
D03*
X321850D02*
D03*
X323819D02*
D03*
X325787D02*
D03*
X327756D02*
D03*
X329725D02*
D03*
X331693D02*
D03*
X333662D02*
D03*
X335630D02*
D03*
X337598D02*
D03*
X339567D02*
D03*
X341535D02*
D03*
X343504D02*
D03*
X365158D02*
D03*
X367126D02*
D03*
X369094D02*
D03*
X371063D02*
D03*
X373031D02*
D03*
X375000D02*
D03*
X376969D02*
D03*
X378937D02*
D03*
X380906D02*
D03*
X382874D02*
D03*
X384843D02*
D03*
X386811D02*
D03*
X388780D02*
D03*
X390748D02*
D03*
X392717D02*
D03*
X394685D02*
D03*
X396654D02*
D03*
X398622D02*
D03*
X400591D02*
D03*
X402559D02*
D03*
X404528D02*
D03*
X406496D02*
D03*
X408465D02*
D03*
X410433D02*
D03*
X412402D02*
D03*
X414370D02*
D03*
X416339D02*
D03*
X418307D02*
D03*
X420276D02*
D03*
X422244D02*
D03*
X422244Y72480D02*
D03*
D81*
X498563Y313386D02*
D03*
X493563D02*
D03*
X488563D02*
D03*
X503563Y292913D02*
D03*
X498563D02*
D03*
X493563D02*
D03*
X488563D02*
D03*
D82*
X503563Y313386D02*
D03*
D83*
X479500Y316000D02*
D03*
Y309307D02*
D03*
X478600Y230946D02*
D03*
Y224254D02*
D03*
D84*
X679200Y157000D02*
D03*
X683924D02*
D03*
X679200Y161300D02*
D03*
X683924D02*
D03*
X679138Y78200D02*
D03*
X683862D02*
D03*
X679138Y82500D02*
D03*
X683862D02*
D03*
X679134Y314173D02*
D03*
X683858D02*
D03*
X679134Y318504D02*
D03*
X683858D02*
D03*
X679200Y235800D02*
D03*
X683924D02*
D03*
X679200Y240100D02*
D03*
X683924D02*
D03*
X566535Y122700D02*
D03*
X571260D02*
D03*
X566535Y127000D02*
D03*
X571260D02*
D03*
X626238Y122700D02*
D03*
X630962D02*
D03*
X626238Y127000D02*
D03*
X630962D02*
D03*
D85*
X512200Y297462D02*
D03*
Y292738D02*
D03*
X620800Y41562D02*
D03*
Y36838D02*
D03*
X625100Y41562D02*
D03*
Y36838D02*
D03*
X635800Y41562D02*
D03*
Y36838D02*
D03*
X640100Y41562D02*
D03*
Y36838D02*
D03*
X542000Y41562D02*
D03*
Y36838D02*
D03*
X546300Y41562D02*
D03*
Y36838D02*
D03*
X556700Y41500D02*
D03*
Y36776D02*
D03*
X561700Y41500D02*
D03*
Y36776D02*
D03*
X463300Y41562D02*
D03*
Y36838D02*
D03*
X467600Y41562D02*
D03*
Y36838D02*
D03*
X478400Y41562D02*
D03*
Y36838D02*
D03*
X482700Y41562D02*
D03*
Y36838D02*
D03*
X483200Y212562D02*
D03*
Y207838D02*
D03*
D86*
X51600Y70809D02*
D03*
Y59391D02*
D03*
D87*
X37402Y362205D02*
D03*
X47244Y33465D02*
D03*
X675197Y35433D02*
D03*
X671260Y362205D02*
D03*
X189100Y124700D02*
D03*
X198819Y287402D02*
D03*
D88*
X687008Y169193D02*
D03*
Y149705D02*
D03*
Y90453D02*
D03*
Y70965D02*
D03*
Y228445D02*
D03*
Y247933D02*
D03*
X687008Y307185D02*
D03*
X687008Y325689D02*
D03*
D89*
X692815Y175197D02*
D03*
X681201D02*
D03*
X681201Y143701D02*
D03*
X692815D02*
D03*
X692815Y96457D02*
D03*
X681201D02*
D03*
X681201Y64961D02*
D03*
X692815D02*
D03*
X681201Y222441D02*
D03*
X692815D02*
D03*
X692815Y253937D02*
D03*
X681201D02*
D03*
Y301181D02*
D03*
X692815D02*
D03*
Y331693D02*
D03*
X681201D02*
D03*
D90*
X506525Y232595D02*
D03*
Y212595D02*
D03*
Y222595D02*
D03*
X491761D02*
D03*
Y212595D02*
D03*
Y232595D02*
D03*
D91*
X526575Y288189D02*
D03*
X601378Y288189D02*
D03*
D92*
X526575Y250000D02*
D03*
Y269685D02*
D03*
X582677Y288189D02*
D03*
Y250000D02*
D03*
Y269685D02*
D03*
X573504Y231890D02*
D03*
X554606D02*
D03*
X535709D02*
D03*
X610512Y231890D02*
D03*
X629410D02*
D03*
X648307D02*
D03*
X657480Y269685D02*
D03*
Y250000D02*
D03*
Y288189D02*
D03*
X601378Y269685D02*
D03*
Y250000D02*
D03*
D93*
X539055Y299213D02*
D03*
X560315D02*
D03*
X548898Y377953D02*
D03*
X526575Y358268D02*
D03*
Y318898D02*
D03*
Y279528D02*
D03*
Y240158D02*
D03*
X582677Y377953D02*
D03*
Y338583D02*
D03*
Y299213D02*
D03*
Y259842D02*
D03*
X657480Y259842D02*
D03*
Y299213D02*
D03*
Y338583D02*
D03*
Y377953D02*
D03*
X601378Y240158D02*
D03*
Y279528D02*
D03*
Y318898D02*
D03*
Y358268D02*
D03*
X623701Y377953D02*
D03*
X635118Y299213D02*
D03*
X613858D02*
D03*
D94*
X573504Y256299D02*
D03*
X535709D02*
D03*
X610512Y256299D02*
D03*
X648307D02*
D03*
D95*
X525925Y21457D02*
D03*
X576437Y17520D02*
D03*
X497697D02*
D03*
X447185Y21457D02*
D03*
X604665D02*
D03*
X655177Y17520D02*
D03*
D96*
X460630Y324803D02*
D03*
Y72835D02*
D03*
X90551Y324803D02*
D03*
Y72835D02*
D03*
D97*
X430079Y320984D02*
D03*
X199843D02*
D03*
X199843Y92638D02*
D03*
X430079D02*
D03*
D98*
X468504Y379921D02*
D03*
Y387795D02*
D03*
X476378Y379921D02*
D03*
Y387795D02*
D03*
X429134D02*
D03*
X437008Y379921D02*
D03*
Y387795D02*
D03*
X444882Y379921D02*
D03*
Y387795D02*
D03*
X460630D02*
D03*
Y379921D02*
D03*
X452756Y387795D02*
D03*
Y379921D02*
D03*
X484252D02*
D03*
Y387795D02*
D03*
X492126Y379921D02*
D03*
Y387795D02*
D03*
X500000Y379921D02*
D03*
Y387795D02*
D03*
X82677Y27559D02*
D03*
X90551D02*
D03*
X98425D02*
D03*
X106299D02*
D03*
X114173D02*
D03*
X122047D02*
D03*
X129921D02*
D03*
X137795D02*
D03*
X200787D02*
D03*
X192913D02*
D03*
X185039D02*
D03*
X177165D02*
D03*
X169291D02*
D03*
X161417D02*
D03*
X153543D02*
D03*
X145669D02*
D03*
X208661D02*
D03*
X216535D02*
D03*
X224410D02*
D03*
X401575D02*
D03*
X393701D02*
D03*
X385827D02*
D03*
X322835D02*
D03*
X330709D02*
D03*
X338583D02*
D03*
X346457D02*
D03*
X354331D02*
D03*
X362205D02*
D03*
X370079D02*
D03*
X377953D02*
D03*
X314961D02*
D03*
X307087D02*
D03*
X299213D02*
D03*
X291339D02*
D03*
X283465D02*
D03*
X275590D02*
D03*
X267717D02*
D03*
X259842D02*
D03*
X82677Y368110D02*
D03*
X90551D02*
D03*
X98425D02*
D03*
X106299D02*
D03*
X114173D02*
D03*
X122047D02*
D03*
X129921D02*
D03*
X137795D02*
D03*
X200787D02*
D03*
X192913D02*
D03*
X185039D02*
D03*
X177165D02*
D03*
X169291D02*
D03*
X161417D02*
D03*
X153543D02*
D03*
X145669D02*
D03*
X208661D02*
D03*
X216535D02*
D03*
X224410D02*
D03*
X401575Y368110D02*
D03*
X393701D02*
D03*
X385827D02*
D03*
X322835D02*
D03*
X330709D02*
D03*
X338583D02*
D03*
X346457D02*
D03*
X354331D02*
D03*
X362205D02*
D03*
X370079D02*
D03*
X377953D02*
D03*
X314961D02*
D03*
X307087D02*
D03*
X299213D02*
D03*
X291339D02*
D03*
X283465D02*
D03*
X275590D02*
D03*
X267717D02*
D03*
X259842D02*
D03*
X114173Y7874D02*
D03*
Y15748D02*
D03*
X122047Y7874D02*
D03*
Y15748D02*
D03*
X74803D02*
D03*
X82677Y7874D02*
D03*
Y15748D02*
D03*
X90551Y7874D02*
D03*
Y15748D02*
D03*
X106299D02*
D03*
Y7874D02*
D03*
X98425Y15748D02*
D03*
Y7874D02*
D03*
X129921D02*
D03*
Y15748D02*
D03*
X137795Y7874D02*
D03*
Y15748D02*
D03*
X145669Y7874D02*
D03*
Y15748D02*
D03*
X153543Y7874D02*
D03*
Y15748D02*
D03*
X161417Y7874D02*
D03*
Y15748D02*
D03*
X169291Y7874D02*
D03*
Y15748D02*
D03*
X177165Y7874D02*
D03*
Y15748D02*
D03*
X185039Y7874D02*
D03*
Y15748D02*
D03*
X192913Y7874D02*
D03*
Y15748D02*
D03*
X200787Y7874D02*
D03*
Y15748D02*
D03*
X208661Y7874D02*
D03*
Y15748D02*
D03*
X216535Y7874D02*
D03*
Y15748D02*
D03*
X224410Y7874D02*
D03*
Y15748D02*
D03*
X401575D02*
D03*
Y7874D02*
D03*
X393701Y15748D02*
D03*
Y7874D02*
D03*
X385827Y15748D02*
D03*
Y7874D02*
D03*
X377953Y15748D02*
D03*
Y7874D02*
D03*
X370079Y15748D02*
D03*
Y7874D02*
D03*
X362205Y15748D02*
D03*
Y7874D02*
D03*
X354331Y15748D02*
D03*
Y7874D02*
D03*
X346457Y15748D02*
D03*
Y7874D02*
D03*
X338583Y15748D02*
D03*
Y7874D02*
D03*
X330709Y15748D02*
D03*
Y7874D02*
D03*
X322835Y15748D02*
D03*
Y7874D02*
D03*
X314961Y15748D02*
D03*
Y7874D02*
D03*
X307087Y15748D02*
D03*
Y7874D02*
D03*
X275591D02*
D03*
Y15748D02*
D03*
X283465Y7874D02*
D03*
Y15748D02*
D03*
X267717D02*
D03*
Y7874D02*
D03*
X259842Y15748D02*
D03*
Y7874D02*
D03*
X251969Y15748D02*
D03*
X299213D02*
D03*
Y7874D02*
D03*
X291339Y15748D02*
D03*
Y7874D02*
D03*
X114173Y379921D02*
D03*
Y387795D02*
D03*
X122047Y379921D02*
D03*
Y387795D02*
D03*
X74803D02*
D03*
X82677Y379921D02*
D03*
Y387795D02*
D03*
X90551Y379921D02*
D03*
Y387795D02*
D03*
X106299D02*
D03*
Y379921D02*
D03*
X98425Y387795D02*
D03*
Y379921D02*
D03*
X129921D02*
D03*
Y387795D02*
D03*
X137795Y379921D02*
D03*
Y387795D02*
D03*
X145669Y379921D02*
D03*
Y387795D02*
D03*
X153543Y379921D02*
D03*
Y387795D02*
D03*
X161417Y379921D02*
D03*
Y387795D02*
D03*
X169291Y379921D02*
D03*
Y387795D02*
D03*
X177165Y379921D02*
D03*
Y387795D02*
D03*
X185039Y379921D02*
D03*
Y387795D02*
D03*
X192913Y379921D02*
D03*
Y387795D02*
D03*
X200787Y379921D02*
D03*
Y387795D02*
D03*
X208661Y379921D02*
D03*
Y387795D02*
D03*
X216535Y379921D02*
D03*
Y387795D02*
D03*
X224410Y379921D02*
D03*
Y387795D02*
D03*
X401575Y387795D02*
D03*
Y379921D02*
D03*
X393701Y387795D02*
D03*
Y379921D02*
D03*
X385827Y387795D02*
D03*
Y379921D02*
D03*
X377953Y387795D02*
D03*
Y379921D02*
D03*
X370079Y387795D02*
D03*
Y379921D02*
D03*
X362205Y387795D02*
D03*
Y379921D02*
D03*
X354331Y387795D02*
D03*
Y379921D02*
D03*
X346457Y387795D02*
D03*
Y379921D02*
D03*
X338583Y387795D02*
D03*
Y379921D02*
D03*
X330709Y387795D02*
D03*
Y379921D02*
D03*
X322835Y387795D02*
D03*
Y379921D02*
D03*
X314961Y387795D02*
D03*
Y379921D02*
D03*
X307087Y387795D02*
D03*
Y379921D02*
D03*
X275591D02*
D03*
Y387795D02*
D03*
X283465Y379921D02*
D03*
Y387795D02*
D03*
X267717D02*
D03*
Y379921D02*
D03*
X259842Y387795D02*
D03*
Y379921D02*
D03*
X251969Y387795D02*
D03*
X299213D02*
D03*
Y379921D02*
D03*
X291339Y387795D02*
D03*
Y379921D02*
D03*
X37402Y316929D02*
D03*
X29528D02*
D03*
X37402Y324803D02*
D03*
X29528D02*
D03*
Y277559D02*
D03*
X37402Y285433D02*
D03*
X29528D02*
D03*
X37402Y293307D02*
D03*
X29528D02*
D03*
Y309055D02*
D03*
X37402D02*
D03*
X29528Y301181D02*
D03*
X37402D02*
D03*
D99*
X429134Y379921D02*
D03*
X74803Y27559D02*
D03*
X251969D02*
D03*
X74803Y368110D02*
D03*
X251969Y368110D02*
D03*
X74803Y7874D02*
D03*
X251969D02*
D03*
X74803Y379921D02*
D03*
X251969Y379921D02*
D03*
D100*
X517874Y96614D02*
D03*
X527874Y106614D02*
D03*
Y86614D02*
D03*
X507874D02*
D03*
Y106614D02*
D03*
Y165669D02*
D03*
Y145669D02*
D03*
X527874D02*
D03*
Y165669D02*
D03*
X517874Y155669D02*
D03*
X635827Y155512D02*
D03*
X645827Y165512D02*
D03*
Y145512D02*
D03*
X625827D02*
D03*
Y165512D02*
D03*
X566772D02*
D03*
Y145512D02*
D03*
X586772D02*
D03*
Y165512D02*
D03*
X576772Y155512D02*
D03*
X635827Y96457D02*
D03*
X645827Y106457D02*
D03*
Y86457D02*
D03*
X625827D02*
D03*
Y106457D02*
D03*
X566772D02*
D03*
Y86457D02*
D03*
X586772D02*
D03*
Y106457D02*
D03*
X576772Y96457D02*
D03*
X43307Y240158D02*
D03*
X413386Y45276D02*
D03*
X263779Y348425D02*
D03*
X494095Y263779D02*
D03*
X379921Y348425D02*
D03*
X43307Y196850D02*
D03*
X444882Y358268D02*
D03*
X43307Y118110D02*
D03*
X659449Y64961D02*
D03*
X43307Y157480D02*
D03*
X57087Y354331D02*
D03*
X657480Y204724D02*
D03*
D101*
X37402Y277559D02*
D03*
D102*
X24409Y52362D02*
D03*
X12598Y70866D02*
D03*
X36220D02*
D03*
D103*
X688976Y19685D02*
D03*
Y375984D02*
D03*
X19685Y375984D02*
D03*
Y19685D02*
D03*
M02*
