G04 Layer_Physical_Order=3*
G04 Layer_Color=128*
%FSLAX25Y25*%
%MOIN*%
G70*
G01*
G75*
%ADD49C,0.04000*%
%ADD50C,0.06740*%
%ADD51C,0.07134*%
%ADD52C,0.09102*%
%ADD53C,0.06347*%
%ADD54C,0.08315*%
%ADD55C,0.13630*%
%ADD56C,0.07016*%
%ADD57C,0.06150*%
%ADD58C,0.08900*%
%ADD59C,0.08906*%
%ADD60C,0.16780*%
%ADD61C,0.09500*%
%ADD62C,0.03800*%
%ADD63C,0.01500*%
D49*
X0Y0D02*
X708661Y0D01*
X708661Y395669D02*
X708661Y0D01*
X0Y395669D02*
X708661Y395669D01*
X0Y395669D02*
X0Y0D01*
D50*
X526575Y288189D02*
D03*
Y250000D02*
D03*
Y269685D02*
D03*
X582677Y288189D02*
D03*
Y250000D02*
D03*
Y269685D02*
D03*
X573504Y231890D02*
D03*
X554606D02*
D03*
X535709D02*
D03*
X610512Y231890D02*
D03*
X629410D02*
D03*
X648307D02*
D03*
X657480Y269685D02*
D03*
Y250000D02*
D03*
Y288189D02*
D03*
X601378Y269685D02*
D03*
Y250000D02*
D03*
Y288189D02*
D03*
D51*
X539055Y299213D02*
D03*
X560315D02*
D03*
X548898Y377953D02*
D03*
X526575Y358268D02*
D03*
Y318898D02*
D03*
Y279528D02*
D03*
Y240158D02*
D03*
X582677Y377953D02*
D03*
Y338583D02*
D03*
Y299213D02*
D03*
X657480Y299213D02*
D03*
Y338583D02*
D03*
Y377953D02*
D03*
X601378Y240158D02*
D03*
Y279528D02*
D03*
Y318898D02*
D03*
Y358268D02*
D03*
X623701Y377953D02*
D03*
X635118Y299213D02*
D03*
X613858D02*
D03*
D52*
X573504Y256299D02*
D03*
X535709D02*
D03*
X610512Y256299D02*
D03*
X648307D02*
D03*
D53*
X582677Y259842D02*
D03*
X657480Y259842D02*
D03*
D54*
X525925Y21457D02*
D03*
X576437Y17520D02*
D03*
X497697D02*
D03*
X447185Y21457D02*
D03*
X604665D02*
D03*
X655177Y17520D02*
D03*
D55*
X460630Y324803D02*
D03*
Y72835D02*
D03*
X90551Y324803D02*
D03*
Y72835D02*
D03*
D56*
X430079Y320984D02*
D03*
X199843D02*
D03*
X199843Y92638D02*
D03*
X430079D02*
D03*
D57*
X468504Y387795D02*
D03*
X476378Y379921D02*
D03*
Y387795D02*
D03*
X429134D02*
D03*
X437008D02*
D03*
X444882D02*
D03*
X460630D02*
D03*
X452756D02*
D03*
X484252Y379921D02*
D03*
Y387795D02*
D03*
X492126Y379921D02*
D03*
X500000D02*
D03*
X137795Y27559D02*
D03*
X192913D02*
D03*
X185039D02*
D03*
X177165D02*
D03*
X169291D02*
D03*
X161417D02*
D03*
X153543D02*
D03*
X145669D02*
D03*
X385827D02*
D03*
X322835D02*
D03*
X330709D02*
D03*
X338583D02*
D03*
X346457D02*
D03*
X354331D02*
D03*
X362205D02*
D03*
X370079D02*
D03*
X314961D02*
D03*
X122047Y368110D02*
D03*
X129921D02*
D03*
X137795D02*
D03*
X192913D02*
D03*
X185039D02*
D03*
X177165D02*
D03*
X169291D02*
D03*
X161417D02*
D03*
X153543D02*
D03*
X145669D02*
D03*
X385827Y368110D02*
D03*
X322835D02*
D03*
X330709D02*
D03*
X338583D02*
D03*
X346457D02*
D03*
X354331D02*
D03*
X362205D02*
D03*
X370079D02*
D03*
X114173Y7874D02*
D03*
Y15748D02*
D03*
X122047Y7874D02*
D03*
Y15748D02*
D03*
X74803Y7874D02*
D03*
Y15748D02*
D03*
X82677Y7874D02*
D03*
Y15748D02*
D03*
X90551Y7874D02*
D03*
Y15748D02*
D03*
X106299D02*
D03*
Y7874D02*
D03*
X98425Y15748D02*
D03*
Y7874D02*
D03*
X129921D02*
D03*
Y15748D02*
D03*
X137795Y7874D02*
D03*
Y15748D02*
D03*
X145669Y7874D02*
D03*
Y15748D02*
D03*
X153543Y7874D02*
D03*
Y15748D02*
D03*
X161417Y7874D02*
D03*
Y15748D02*
D03*
X169291Y7874D02*
D03*
Y15748D02*
D03*
X177165Y7874D02*
D03*
Y15748D02*
D03*
X185039Y7874D02*
D03*
Y15748D02*
D03*
X192913Y7874D02*
D03*
Y15748D02*
D03*
X200787Y7874D02*
D03*
Y15748D02*
D03*
X208661Y7874D02*
D03*
Y15748D02*
D03*
X216535Y7874D02*
D03*
Y15748D02*
D03*
X224410Y7874D02*
D03*
Y15748D02*
D03*
X401575D02*
D03*
Y7874D02*
D03*
X393701Y15748D02*
D03*
Y7874D02*
D03*
X385827Y15748D02*
D03*
Y7874D02*
D03*
X377953Y15748D02*
D03*
Y7874D02*
D03*
X370079Y15748D02*
D03*
Y7874D02*
D03*
X362205Y15748D02*
D03*
Y7874D02*
D03*
X354331Y15748D02*
D03*
Y7874D02*
D03*
X346457Y15748D02*
D03*
Y7874D02*
D03*
X338583Y15748D02*
D03*
Y7874D02*
D03*
X330709Y15748D02*
D03*
Y7874D02*
D03*
X322835Y15748D02*
D03*
Y7874D02*
D03*
X314961Y15748D02*
D03*
Y7874D02*
D03*
X307087Y15748D02*
D03*
Y7874D02*
D03*
X275591D02*
D03*
Y15748D02*
D03*
X283465Y7874D02*
D03*
Y15748D02*
D03*
X267717D02*
D03*
Y7874D02*
D03*
X259842Y15748D02*
D03*
Y7874D02*
D03*
X251969Y15748D02*
D03*
Y7874D02*
D03*
X299213Y15748D02*
D03*
Y7874D02*
D03*
X291339Y15748D02*
D03*
Y7874D02*
D03*
X114173Y379921D02*
D03*
Y387795D02*
D03*
X122047Y379921D02*
D03*
Y387795D02*
D03*
X74803Y379921D02*
D03*
Y387795D02*
D03*
X82677Y379921D02*
D03*
Y387795D02*
D03*
X90551Y379921D02*
D03*
Y387795D02*
D03*
X106299D02*
D03*
Y379921D02*
D03*
X98425Y387795D02*
D03*
Y379921D02*
D03*
X129921D02*
D03*
Y387795D02*
D03*
X137795Y379921D02*
D03*
Y387795D02*
D03*
X145669Y379921D02*
D03*
Y387795D02*
D03*
X153543Y379921D02*
D03*
Y387795D02*
D03*
X161417Y379921D02*
D03*
Y387795D02*
D03*
X169291Y379921D02*
D03*
Y387795D02*
D03*
X177165Y379921D02*
D03*
Y387795D02*
D03*
X185039Y379921D02*
D03*
Y387795D02*
D03*
X192913Y379921D02*
D03*
Y387795D02*
D03*
X200787Y379921D02*
D03*
Y387795D02*
D03*
X208661Y379921D02*
D03*
Y387795D02*
D03*
X216535Y379921D02*
D03*
Y387795D02*
D03*
X224410Y379921D02*
D03*
Y387795D02*
D03*
X401575Y387795D02*
D03*
Y379921D02*
D03*
X393701Y387795D02*
D03*
Y379921D02*
D03*
X385827Y387795D02*
D03*
Y379921D02*
D03*
X377953Y387795D02*
D03*
Y379921D02*
D03*
X370079Y387795D02*
D03*
Y379921D02*
D03*
X362205Y387795D02*
D03*
Y379921D02*
D03*
X354331Y387795D02*
D03*
Y379921D02*
D03*
X346457Y387795D02*
D03*
Y379921D02*
D03*
X338583Y387795D02*
D03*
Y379921D02*
D03*
X330709Y387795D02*
D03*
Y379921D02*
D03*
X322835Y387795D02*
D03*
Y379921D02*
D03*
X314961Y387795D02*
D03*
Y379921D02*
D03*
X307087Y387795D02*
D03*
Y379921D02*
D03*
X275591D02*
D03*
Y387795D02*
D03*
X283465Y379921D02*
D03*
Y387795D02*
D03*
X267717D02*
D03*
Y379921D02*
D03*
X259842Y387795D02*
D03*
Y379921D02*
D03*
X251969Y387795D02*
D03*
Y379921D02*
D03*
X299213Y387795D02*
D03*
Y379921D02*
D03*
X291339Y387795D02*
D03*
Y379921D02*
D03*
X29528Y316929D02*
D03*
Y324803D02*
D03*
Y277559D02*
D03*
Y285433D02*
D03*
Y293307D02*
D03*
Y309055D02*
D03*
Y301181D02*
D03*
D58*
X517874Y96614D02*
D03*
Y155669D02*
D03*
X635827Y155512D02*
D03*
X576772D02*
D03*
X635827Y96457D02*
D03*
X576772D02*
D03*
D59*
X24409Y52362D02*
D03*
X36220Y70866D02*
D03*
D60*
X688976Y19685D02*
D03*
Y375984D02*
D03*
X19685Y375984D02*
D03*
Y19685D02*
D03*
D61*
X43307Y240158D02*
D03*
X413386Y45276D02*
D03*
X494095Y263779D02*
D03*
X444882Y358268D02*
D03*
X43307Y118110D02*
D03*
D62*
X370800Y68300D02*
D03*
X560400Y45000D02*
D03*
X373200Y68300D02*
D03*
X558000Y45000D02*
D03*
X481700D02*
D03*
X364900Y68300D02*
D03*
X479300Y45000D02*
D03*
X367300Y68300D02*
D03*
X498600Y287100D02*
D03*
X360200Y130400D02*
D03*
X325200D02*
D03*
X549700Y201200D02*
D03*
X364900Y101200D02*
D03*
X552100Y201200D02*
D03*
X367300Y101200D02*
D03*
X269300Y130400D02*
D03*
X330400Y119400D02*
D03*
X309600D02*
D03*
X251500D02*
D03*
X230700D02*
D03*
X220300Y130400D02*
D03*
X299200D02*
D03*
X309600D02*
D03*
X314800D02*
D03*
X320000D02*
D03*
X330400D02*
D03*
X251500D02*
D03*
X246300D02*
D03*
X241100D02*
D03*
X235900D02*
D03*
X230700D02*
D03*
X510900Y232600D02*
D03*
X480400Y209000D02*
D03*
X550700Y245500D02*
D03*
X560100D02*
D03*
X634900Y245400D02*
D03*
X625500D02*
D03*
X614400Y277700D02*
D03*
X617600D02*
D03*
X620700D02*
D03*
X623900D02*
D03*
X627000D02*
D03*
X630200D02*
D03*
X633300D02*
D03*
X636500D02*
D03*
X639600D02*
D03*
X642800D02*
D03*
X539600D02*
D03*
X568000D02*
D03*
X564800D02*
D03*
X561700D02*
D03*
X558500D02*
D03*
X555400D02*
D03*
X552200D02*
D03*
X549100D02*
D03*
X545900D02*
D03*
X542800D02*
D03*
X382600Y68300D02*
D03*
X385000D02*
D03*
X621100Y126100D02*
D03*
Y123700D02*
D03*
X640900Y224200D02*
D03*
X373200Y101200D02*
D03*
X638500Y224200D02*
D03*
X370800Y101200D02*
D03*
X379100Y68300D02*
D03*
X376700D02*
D03*
X636800Y45000D02*
D03*
X639200D02*
D03*
X418300Y296500D02*
D03*
X479500Y305800D02*
D03*
X515100Y296400D02*
D03*
X493600Y287100D02*
D03*
X488500D02*
D03*
Y319200D02*
D03*
X513800Y336300D02*
D03*
X502000D02*
D03*
X490200D02*
D03*
X479554Y319541D02*
D03*
X433600Y313000D02*
D03*
X366900D02*
D03*
X263000D02*
D03*
X341700D02*
D03*
X354300D02*
D03*
X370500D02*
D03*
X391900D02*
D03*
X395500D02*
D03*
X416900D02*
D03*
X420500D02*
D03*
X288300Y294400D02*
D03*
X319800D02*
D03*
X315900D02*
D03*
X312000D02*
D03*
X292300D02*
D03*
X304100D02*
D03*
X300200D02*
D03*
X323800D02*
D03*
X339500D02*
D03*
X335600D02*
D03*
X327700D02*
D03*
X286400Y296500D02*
D03*
X306100D02*
D03*
X317900D02*
D03*
X314000D02*
D03*
X310100D02*
D03*
X294300D02*
D03*
X298300D02*
D03*
X321900D02*
D03*
X341600D02*
D03*
X337600D02*
D03*
X333700D02*
D03*
X329800D02*
D03*
X325800D02*
D03*
X209600Y294400D02*
D03*
X241100D02*
D03*
X237200D02*
D03*
X233300D02*
D03*
X213600D02*
D03*
X225400D02*
D03*
X229400D02*
D03*
X221500D02*
D03*
X245100D02*
D03*
X260800D02*
D03*
X256900D02*
D03*
X253000D02*
D03*
X249000D02*
D03*
X207700Y296400D02*
D03*
X239100D02*
D03*
X235200D02*
D03*
X231300D02*
D03*
X215500D02*
D03*
X227400D02*
D03*
X219500D02*
D03*
X243100D02*
D03*
X262800D02*
D03*
X254900D02*
D03*
X251000D02*
D03*
X247000D02*
D03*
X250989Y101200D02*
D03*
X248989Y103300D02*
D03*
X252989D02*
D03*
X254889Y101200D02*
D03*
X256889Y103300D02*
D03*
X260789D02*
D03*
X262789Y101200D02*
D03*
X245089Y103300D02*
D03*
X247089Y101200D02*
D03*
X243089D02*
D03*
X239189D02*
D03*
X221489Y103300D02*
D03*
X227389Y101200D02*
D03*
X225389Y103300D02*
D03*
X215589Y101200D02*
D03*
X219489D02*
D03*
X306089D02*
D03*
X341489D02*
D03*
X339589Y103300D02*
D03*
X335589D02*
D03*
X333689Y101200D02*
D03*
X331689Y103300D02*
D03*
X329689Y101200D02*
D03*
X327789Y103300D02*
D03*
X325789Y101200D02*
D03*
X323789Y103300D02*
D03*
X321889Y101200D02*
D03*
X319889Y103300D02*
D03*
X317889Y101200D02*
D03*
X315889Y103300D02*
D03*
X313989Y101200D02*
D03*
X311989Y103300D02*
D03*
X309989Y101200D02*
D03*
X304089Y103300D02*
D03*
X300189D02*
D03*
X298189Y101200D02*
D03*
X294289D02*
D03*
X292289Y103300D02*
D03*
X286389Y101200D02*
D03*
X288389Y103300D02*
D03*
X207689Y101200D02*
D03*
X209689Y103300D02*
D03*
X213589D02*
D03*
X231289Y101200D02*
D03*
X233289Y103300D02*
D03*
X235289Y101200D02*
D03*
X237189Y103300D02*
D03*
X241089D02*
D03*
X365100Y294400D02*
D03*
X367100Y296500D02*
D03*
X369100Y294400D02*
D03*
X371000Y296500D02*
D03*
X418300Y329500D02*
D03*
X422300D02*
D03*
X420300Y331600D02*
D03*
X377000Y329500D02*
D03*
X378900Y331600D02*
D03*
X331700Y294400D02*
D03*
X672900Y79100D02*
D03*
X385100Y101200D02*
D03*
X672900Y81500D02*
D03*
X382700Y101200D02*
D03*
X376700D02*
D03*
X672900Y239200D02*
D03*
Y236800D02*
D03*
X379100Y101200D02*
D03*
D63*
X263100Y294700D02*
Y326900D01*
Y292200D02*
X268900D01*
X342900Y292100D02*
X347650D01*
Y327750D01*
X212800Y372200D02*
X226000D01*
X242500Y355700D01*
X263600D01*
X268900Y350400D01*
Y329700D02*
Y350400D01*
X263100Y326900D02*
Y331300D01*
X248500Y345900D02*
X263100Y331300D01*
X233000Y345900D02*
X248500D01*
X212800Y366100D02*
X233000Y345900D01*
X212800Y366100D02*
Y372200D01*
X405300Y367500D02*
Y372000D01*
X401000D02*
X405300D01*
X389700D02*
X401000D01*
X389700Y364700D02*
Y372000D01*
X380000Y355000D02*
X389700Y364700D01*
X363700Y355000D02*
X380000D01*
X342491Y333791D02*
X363700Y355000D01*
X347650Y327750D02*
X360800Y340900D01*
X381500D01*
X405300Y364700D01*
Y367500D01*
X375197Y52362D02*
X394459Y33100D01*
X405600D01*
Y23700D02*
Y33100D01*
X351181Y76378D02*
X375197Y52362D01*
X351181Y76378D02*
Y100394D01*
X346457Y105118D02*
X351181Y100394D01*
X341700Y105118D02*
X346457D01*
X341700Y102855D02*
Y105118D01*
Y102855D02*
X345276Y99279D01*
Y73176D02*
Y99279D01*
X335879Y63779D02*
X345276Y73176D01*
X286221Y63779D02*
X335879D01*
X272441Y77559D02*
X286221Y63779D01*
X272441Y77559D02*
Y100000D01*
X267717Y104724D02*
X272441Y100000D01*
X263300Y104724D02*
X267717D01*
X263300Y102800D02*
Y104724D01*
Y102800D02*
X266535Y99565D01*
Y72535D02*
Y99565D01*
X261811Y67811D02*
X266535Y72535D01*
X261811Y64567D02*
Y67811D01*
X248425Y51181D02*
X261811Y64567D01*
X231496Y51181D02*
X248425D01*
X212800Y32485D02*
X231496Y51181D01*
X212800Y23200D02*
Y32485D01*
Y23200D02*
X228252D01*
X230315Y25263D01*
X238123Y33071D01*
X386129D01*
X390000Y29200D01*
Y23700D02*
Y29200D01*
Y23700D02*
X405600D01*
X373100Y325500D02*
X395400Y303200D01*
X408600D01*
X418300Y292500D02*
X422200D01*
X441100Y311400D01*
Y334700D01*
X472700Y366300D01*
Y383700D01*
X456800D02*
X472700D01*
X456800Y362200D02*
Y383700D01*
X428300Y333700D02*
X456800Y362200D01*
X374700Y333700D02*
X428300D01*
X408600Y303200D02*
X415000D01*
X418300Y299900D01*
Y292500D02*
Y299900D01*
X371600Y330600D02*
X374700Y333700D01*
X371600Y327000D02*
Y330600D01*
Y327000D02*
X373100Y325500D01*
X341535Y332835D02*
X342491Y333791D01*
X341000Y292100D02*
X342900D01*
X341000D02*
Y332300D01*
X341535Y332835D01*
X31100Y189500D02*
Y207800D01*
Y189500D02*
X106300Y114300D01*
X330400D01*
X458200Y242100D01*
X493600D01*
X498400Y237300D01*
Y218600D02*
Y237300D01*
X494700Y214900D02*
X498400Y218600D01*
X478100Y214900D02*
X494700D01*
X478100Y209300D02*
Y214900D01*
Y209300D02*
X502100D01*
X541100Y248300D01*
X547500D01*
X552200Y243600D01*
X558200D01*
X562700Y248100D01*
X621200D01*
X625900Y243400D01*
X633700D01*
X648400Y258100D01*
Y304300D01*
X610600Y342100D02*
X648400Y304300D01*
X498700Y342100D02*
X610600D01*
X428100Y383700D02*
X456800D01*
X409100Y364700D02*
X428100Y383700D01*
X405300Y364700D02*
X409100D01*
X285200Y236300D02*
X341000Y292100D01*
X59600Y236300D02*
X285200D01*
X31100Y207800D02*
X59600Y236300D01*
X263100Y292200D02*
Y294700D01*
X268900Y293400D02*
Y329700D01*
Y292200D02*
Y293400D01*
X441100Y311400D02*
X464400D01*
X473700Y320700D01*
Y330700D01*
X485100Y342100D01*
X498700D01*
M02*
