M48
;Layer_Color=9474304
;FILE_FORMAT=2:5
INCH,LZ
;TYPE=PLATED
T1F00S00C0.00800
T2F00S00C0.03150
T3F00S00C0.03346
T4F00S00C0.03740
T5F00S00C0.04134
T6F00S00C0.05315
T7F00S00C0.05900
T8F00S00C0.05906
T9F00S00C0.06500
T10F00S00C0.06700
T11F00S00C0.10630
T12F00S00C0.13780
%
T01
X0590551Y0031496
X0606299
X06155Y00279
X06305
X06456
X0653543Y0031496
X0574803
X05668Y00279
X05517
X05367
X0527559Y0031496
X0511811
X04881Y00279
X0473
X0458
X00563Y00594
X00516Y00556
X00469Y00593
X0211589Y00681
X0217489
X0223389
X0229289
X0234489Y00847
X0237989
X0239189Y01012
X0243089
X0247089
X0250989
X0254889
X0252989Y01033
X0256889
X0260789
X0258889Y01012
X0262789
X0264789Y01033
X0248989
X0245089
X0241089
X0237189
X0233289
X0229389
X0225389
X0221489
X0223389Y01012
X0219489
X0215589
X0211589
X0207689
X0209689Y01033
X0213589
X0217489
X0227389Y01012
X0231289
X0235289
X02359Y01194
X02411
X02463
X02515
Y01304
X02463
X02411
X02359
X02307
X02203
Y01194
X02255
X02307
X0212989Y00846
X0209589
X0196489Y00847
X0259489Y00846
X0262989
X0264789Y00681
X0258889
X0290289
X02963
X03022
X03081
X0313289Y00847
X03168
X0317889Y01012
X0313989
X0315889Y01033
X0311989
X0308089
X0309989Y01012
X0306089
X0302189
X0304089Y01033
X0300189
X0296189
X0292289
X0288389
X0286389Y01012
X0290389
X0294289
X0298189
X02992Y01194
X03044
X03096
X03148
X032
X03252
X03304
Y01304
X03252
X032
X03148
X03096
X02992
X02693
X0275589Y00846
X0288189Y00847
X0291689
X0338189Y00846
X0341689
X0354289
X0366889
X0370489
X03691Y00766
X0375
X03809
X03826Y00683
X0385
X03868Y00661
X0392689Y00683
X0398589
X0404489
X0410489
X04163
X04203
X04183Y00661
X04223
X0420489Y00846
X0416889
X04163Y01012
X04203
X04223Y01033
X04183
X04104Y01012
X04045
X03986
X03927Y01033
X03851Y01012
X03827
X03791
X03767
X03732
X03708
X03673
X03649
X03691Y01033
X0375
X03809Y00926
X03868
X0391889Y00846
X0395489
X03791Y00683
X03767
X03732
X03708
X03673
X03649
X0343489Y00681
X0341489Y01012
X0337589
X0333689
X0335589Y01033
X0331689
X0327789
X0329689Y01012
X0325789
X0321889
X0323789Y01033
X0319889
X0339589
X0343489
X03602Y01304
X0374016Y0149606
X0385827Y0161417
X0397638Y0149606
X0409449Y0161417
X042126Y0173228
X0397638
X0409449Y0185039
X0433071
X0440945Y0122047
X0429134Y0110236
X0433389Y00847
X0452756Y0133858
X0464567Y0145669
X0476378Y015748
X0488189Y0169291
X0496063Y0062992
X0511811
X0527559
X0543307
X0559055
X0574803
Y0047244
X05604Y0045
X0558
X0511811Y0047244
X0496063
X04817Y0045
X04793
X0480315Y0062992
X0590551
X0606299
X0622047
X0637795
X06368Y0045
X06392
X0653543Y0047244
X06812Y00592
X06778Y0065
X06813Y00706
X06929Y00707
X06962Y0065
X06928Y00592
Y00907
X06962Y00964
X06928Y01022
X06811
X06778Y00964
X06811Y00907
X06729Y00815
Y00791
X06811Y0138
X06778Y01437
X06812Y01494
X06929
X06962Y01437
X06928Y0138
X06929Y01695
X06962Y01752
X06928Y01809
X06813
X06778Y01752
X06811Y01695
X06211Y01261
Y01237
X0606299Y0043307
X0590551Y0047244
X0606299Y0200787
X061811Y0212598
X06385Y02242
X06409
X06444Y02454
X06349
X06318
X06286
X06255
X0616
X06144Y02777
X06176
X06207
X06239
X0627
X06302
X06333
X06365
X06396
X06428
X06812Y02954
X06778Y03012
X06812Y03069
X0693
X06962Y03012
X06927Y02954
X06929Y0326
Y03374
X06812
X06778Y03317
X06812Y0326
Y02597
X06778Y02539
X06812Y02482
X06929
X06962Y02539
X06929Y02597
Y02282
X06962Y02224
X06929Y02167
X06812
X06778Y02224
X06812Y02282
X06729Y02368
Y02392
X05696Y02455
X05601
X0557
X05538
X05507
X05412
X05396Y02777
X05428
X05459
X05491
X05522
X05554
X05585
X05617
X05648
X0568
X05151Y02938
Y02964
X04986Y02871
X04936
X04885
X04795Y03058
X0479554Y0319541
X04885Y03192
X04902Y03363
X04961
X0502
X05079
X05138
X04843
X04336Y0313
X0437008Y0212598
X0448819Y022441
X0464567Y0216535
X04804Y02114
Y0209
X05109Y02326
X05497Y02012
X05521
X0562992Y0200787
X057874
X04203Y02945
X04183Y02965
X04163Y02945
X04169Y0313
X04205
X04223Y03295
X04183
X04203Y03316
X03789
X0375
X0373Y03295
X03691
X03652
X03672Y03332
X03711
X0377Y03295
X03705Y0313
X03669
X03543
X03417
X03382
X03376Y03295
X03435
X0314
X0308
X03021
X02962
X02904
X02917Y03131
X02882
X02756Y0313
X02864Y02965
X02883Y02944
X02923
X02962
X03002
X03041
X03081
X0312
X03159
X03198
X03238
X03277
X03258Y02965
X03219
X03179
X0314
X03101
X03061
X03022
X02983
X02943
X02904
X03133Y0313
X03165
X03298Y02965
X03337
X03376
X03395Y02944
X03356
X03317
X03435
X03416Y02965
X03671
X0371
X03691Y02944
X03651
X03919Y0313
X03955
X0263
X02595
X02588Y03295
X02648
Y02944
X02608
X02569
X0253
X02549Y02964
X02588
X02628
X0251
X0249Y02944
X02451
X0247Y02964
X02431
X02411Y02944
X02372
X02333
X02294
X02313Y02964
X02352
X02391
X02274
X02254Y02944
X02215
X02234Y02964
X02195
X02175Y02944
X02136
X02155Y02964
X02116
X02077
X02096Y02944
Y0313
X0213
X01965Y03131
X02116Y03295
X02175
X02234
X02345Y03131
X0238
T02
X0275591Y0007874
X0283465
Y0015748
X0275591
X027559Y0027559
X0283465
X0291339
X0299213
X0307087
X0314961
X0322835
X0330709
X0338583
X0346457
X0354331
X0362205
X0370079
X0377953
X0385827
X0393701
X0401575
Y0015748
Y0007874
X0393701
Y0015748
X0385827
Y0007874
X0377953
Y0015748
X0370079
Y0007874
X0362205
Y0015748
X0354331
Y0007874
X0346457
Y0015748
X0338583
Y0007874
X0330709
Y0015748
X0322835
Y0007874
X0314961
Y0015748
X0307087
Y0007874
X0299213
X0291339
Y0015748
X0299213
X0267717
X0259842
Y0007874
X0267717
X0251969
Y0015748
X0251969Y0027559
X0259842
X0267717
X022441
X0216535
X0208661
X0200787
X0192913
X0185039
X0177165
X0169291
X0161417
X0153543
X0145669
X0137795
X0129921
X0122047
X0114173
Y0015748
X0122047
Y0007874
X0114173
X0129921
Y0015748
X0137795
Y0007874
X0145669
Y0015748
X0153543
Y0007874
X0161417
Y0015748
X0169291
Y0007874
X0177165
Y0015748
X0185039
Y0007874
X0192913
Y0015748
X0200787
Y0007874
X0208661
Y0015748
X0216535
Y0007874
X022441
Y0015748
X0106299Y0015748
X0098425
X0090551
X0082677
X0074803
Y0007874
X0082677
X0090551
X0098425
X0106299
Y0027559
X0098425
X0090551
X0082677
X0074803
X0037402Y0277559
X0029528
Y0285433
Y0293307
X0037402
Y0285433
Y0301181
Y0309055
Y0316929
Y0324803
X0029528
Y0316929
Y0309055
Y0301181
X0074803Y036811
X0082677
X0090551
X0098425
X0106299
Y0379921
X0098425
X0090551
X0082677
X0074803
Y0387795
X0082677
X0090551
X0098425
X0106299
X0114173
X0122047
Y0379921
X0114173
Y036811
X0122047
X0129921
X0137795
X0145669
X0153543
X0161417
X0169291
X0177165
X0185039
X0192913
X0200787
X0208661
X0216535
X022441
X022441Y0379921
Y0387795
X0216535
Y0379921
X0208661
X0200787
Y0387795
X0208661
X0192913
X0185039
Y0379921
X0192913
X0177165
X0169291
Y0387795
X0177165
X0161417
Y0379921
X0153543
X0145669
Y0387795
X0153543
X0137795
X0129921
Y0379921
X0137795
X0251969Y0379921
X0259842
X0267717
Y0387795
X0259842
X0251969
X0251969Y036811
X0259842
X0267717
X027559
X0283465
X0291339
X0299213
X0307087
X0314961
X0322835
X0330709
X0338583
X0346457
X0354331
X0362205
X0370079
X0377953
X0385827
X0393701
X0401575
Y0379921
Y0387795
X0393701
Y0379921
X0385827
Y0387795
X0377953
Y0379921
X0370079
Y0387795
X0362205
Y0379921
X0354331
Y0387795
X0346457
Y0379921
X0338583
Y0387795
X0330709
Y0379921
X0322835
Y0387795
X0314961
Y0379921
X0307087
Y0387795
X0299213Y0387795
X0291339
X0283465
X0275591
Y0379921
X0283465
X0291339
X0299213
X0429134
Y0387795
X0437008
X0444882
Y0379921
X0437008
X0452756
X046063
X0468504
X0476378
Y0387795
X0468504
X046063
X0452756
X0484252Y0387795
Y0379921
X0492126
Y0387795
X05
Y0379921
T03
X0582677Y0259842
X065748Y0259842
T04
X0582677Y025
X0601378Y025
Y0269685
Y0288189
X0582677Y0288189
Y0269685
X0610512Y023189
X062941
X0648307
X065748Y025
Y0269685
Y0288189
X0526575Y0288189
Y0269685
Y025
X0535709Y023189
X0554606
X0573504
T05
X0601378Y0240158
Y0279528
X0613858Y0299213
X0635118
X065748
Y0338583
X0582677Y0338583
X0601378Y0318898
X0582677Y0299213
X0560315
X0539055
X0526575Y0318898
Y0279528
Y0240158
Y0358268
X0548898Y0377953
X0582677
X0601378Y0358268
X0623701Y0377953
X065748
T06
X0604665Y0021457
X0655177Y001752
X0576437
X0525925Y0021457
X0497697Y001752
X0447185Y0021457
T07
X0517874Y0096614
X0576772Y0096457
Y0155512
X0517874Y0155669
X0635827Y0155512
Y0096457
T08
X0024409Y0052362
X0012598Y0070866
X003622
T09
X0043307Y011811
Y015748
X0413386Y0045276
X0659449Y0064961
X065748Y0204724
X0494095Y0263779
X0043307Y0240158
Y019685
X0057087Y0354331
X0263779Y0348425
X0379921
X0444882Y0358268
T10
X0507874Y0086614
X0527874
Y0106614
X0507874
Y0145669
Y0165669
X0527874
Y0145669
X0566772Y0145512
Y0165512
Y0106457
Y0086457
X0586772
Y0106457
Y0145512
Y0165512
X0625827
X0645827
Y0145512
X0625827
Y0106457
X0645827
Y0086457
X0625827
T11
X0090551Y0072835
X046063
Y0324803
X0090551
T12
X0688976Y0019685
X0019685Y0019685
Y0375984
X0688976Y0375984
M30
