G04 Layer_Color=16711935*
%FSLAX25Y25*%
%MOIN*%
G70*
G01*
G75*
%ADD31C,0.01000*%
%ADD104C,0.00600*%
D31*
X522638Y395669D02*
X586614D01*
X597441Y395669D02*
X661417D01*
X-43969Y0D02*
X-1000D01*
X-43969Y395669D02*
X-1000D01*
X-42969Y0D02*
Y165144D01*
Y227325D02*
Y395669D01*
Y0D02*
X-40969Y6000D01*
X-44969D02*
X-42969Y0D01*
X-44969Y389669D02*
X-42969Y395669D01*
X-40969Y389669D01*
X708661Y-24622D02*
Y-1000D01*
X0Y-24622D02*
Y-1000D01*
X383821Y-23622D02*
X708661D01*
X0D02*
X321640D01*
X702661Y-21622D02*
X708661Y-23622D01*
X702661Y-25622D02*
X708661Y-23622D01*
X0D02*
X6000Y-25622D01*
X0Y-23622D02*
X6000Y-21622D01*
D104*
X-39370Y166744D02*
Y168744D01*
Y167744D01*
X-45368D01*
X-44368Y166744D01*
Y171743D02*
X-45368Y172742D01*
Y174742D01*
X-44368Y175741D01*
X-40370D01*
X-39370Y174742D01*
Y172742D01*
X-40370Y171743D01*
X-44368D01*
Y177741D02*
X-45368Y178740D01*
Y180740D01*
X-44368Y181739D01*
X-40370D01*
X-39370Y180740D01*
Y178740D01*
X-40370Y177741D01*
X-44368D01*
X-39370Y183739D02*
X-40370D01*
Y184738D01*
X-39370D01*
Y183739D01*
X-45368Y192736D02*
Y188737D01*
X-42369D01*
X-43369Y190736D01*
Y191736D01*
X-42369Y192736D01*
X-40370D01*
X-39370Y191736D01*
Y189737D01*
X-40370Y188737D01*
X-44368Y194735D02*
X-45368Y195735D01*
Y197734D01*
X-44368Y198734D01*
X-40370D01*
X-39370Y197734D01*
Y195735D01*
X-40370Y194735D01*
X-44368D01*
X-39370Y208731D02*
X-41369Y206731D01*
X-43369D01*
X-45368Y208731D01*
X-39370Y211730D02*
X-43369D01*
Y212729D01*
X-42369Y213729D01*
X-39370D01*
X-42369D01*
X-43369Y214729D01*
X-42369Y215728D01*
X-39370D01*
Y217728D02*
X-43369D01*
Y218727D01*
X-42369Y219727D01*
X-39370D01*
X-42369D01*
X-43369Y220727D01*
X-42369Y221726D01*
X-39370D01*
Y223726D02*
X-41369Y225725D01*
X-43369D01*
X-45368Y223726D01*
X323240Y-27221D02*
X325240D01*
X324240D01*
Y-21223D01*
X323240Y-22223D01*
X328239D02*
X329238Y-21223D01*
X331238D01*
X332237Y-22223D01*
Y-23222D01*
X331238Y-24222D01*
X332237Y-25222D01*
Y-26221D01*
X331238Y-27221D01*
X329238D01*
X328239Y-26221D01*
Y-25222D01*
X329238Y-24222D01*
X328239Y-23222D01*
Y-22223D01*
X329238Y-24222D02*
X331238D01*
X334237Y-22223D02*
X335236Y-21223D01*
X337236D01*
X338235Y-22223D01*
Y-26221D01*
X337236Y-27221D01*
X335236D01*
X334237Y-26221D01*
Y-22223D01*
X340235Y-27221D02*
Y-26221D01*
X341234D01*
Y-27221D01*
X340235D01*
X345233Y-22223D02*
X346233Y-21223D01*
X348232D01*
X349232Y-22223D01*
Y-26221D01*
X348232Y-27221D01*
X346233D01*
X345233Y-26221D01*
Y-22223D01*
X351231D02*
X352231Y-21223D01*
X354230D01*
X355230Y-22223D01*
Y-26221D01*
X354230Y-27221D01*
X352231D01*
X351231Y-26221D01*
Y-22223D01*
X365227Y-27221D02*
X363227Y-25222D01*
Y-23222D01*
X365227Y-21223D01*
X368226Y-27221D02*
Y-23222D01*
X369225D01*
X370225Y-24222D01*
Y-27221D01*
Y-24222D01*
X371225Y-23222D01*
X372224Y-24222D01*
Y-27221D01*
X374224D02*
Y-23222D01*
X375223D01*
X376223Y-24222D01*
Y-27221D01*
Y-24222D01*
X377223Y-23222D01*
X378222Y-24222D01*
Y-27221D01*
X380222D02*
X382221Y-25222D01*
Y-23222D01*
X380222Y-21223D01*
M02*
