G04 Layer_Color=65535*
%FSLAX25Y25*%
%MOIN*%
G70*
G01*
G75*
%ADD12C,0.00800*%
%ADD29C,0.00500*%
%ADD31C,0.01000*%
%ADD32C,0.01200*%
%ADD63C,0.01500*%
%ADD66C,0.00825*%
%ADD67C,0.00675*%
%ADD68C,0.00700*%
%ADD69C,0.00472*%
%ADD70C,0.00787*%
%ADD71C,0.02000*%
%ADD72C,0.00799*%
%ADD73C,0.00799*%
D12*
X681890Y180315D02*
X692126D01*
X681890Y170079D02*
X684252D01*
X689764D02*
X692126D01*
X681890Y138583D02*
X692126D01*
X689764Y148819D02*
X692126D01*
X681890D02*
X684252D01*
X681890Y101575D02*
X692126D01*
X681890Y91339D02*
X684252D01*
X689764D02*
X692126D01*
X681890Y59842D02*
X692126D01*
X689764Y70079D02*
X692126D01*
X681890D02*
X684252D01*
X681890Y217323D02*
X692126D01*
X689764Y227559D02*
X692126D01*
X681890D02*
X684252D01*
X681890Y259055D02*
X692126D01*
X681890Y248819D02*
X684252D01*
X689764D02*
X692126D01*
X681890Y296063D02*
X692126D01*
X689764Y306299D02*
X692126D01*
X681890D02*
X684252D01*
X681890Y336811D02*
X692126D01*
X681890Y326575D02*
X684252D01*
X689764D02*
X692126D01*
X685070Y136857D02*
X684070D01*
X684570D01*
Y134358D01*
X684070Y133858D01*
X683571D01*
X683071Y134358D01*
X686070Y133858D02*
X687070D01*
X686570D01*
Y136857D01*
X686070Y136357D01*
X690568Y136857D02*
X688569D01*
Y135358D01*
X689569Y135858D01*
X690069D01*
X690568Y135358D01*
Y134358D01*
X690069Y133858D01*
X689069D01*
X688569Y134358D01*
X685070Y185086D02*
X684070D01*
X684570D01*
Y182586D01*
X684070Y182087D01*
X683571D01*
X683071Y182586D01*
X686070Y182087D02*
X687070D01*
X686570D01*
Y185086D01*
X686070Y184586D01*
X690069Y182087D02*
Y185086D01*
X688569Y183586D01*
X690568D01*
X685070Y58117D02*
X684070D01*
X684570D01*
Y55618D01*
X684070Y55118D01*
X683571D01*
X683071Y55618D01*
X686070Y55118D02*
X687070D01*
X686570D01*
Y58117D01*
X686070Y57617D01*
X688569D02*
X689069Y58117D01*
X690069D01*
X690568Y57617D01*
Y57117D01*
X690069Y56618D01*
X689569D01*
X690069D01*
X690568Y56118D01*
Y55618D01*
X690069Y55118D01*
X689069D01*
X688569Y55618D01*
X685070Y106345D02*
X684070D01*
X684570D01*
Y103846D01*
X684070Y103347D01*
X683571D01*
X683071Y103846D01*
X686070Y103347D02*
X687070D01*
X686570D01*
Y106345D01*
X686070Y105846D01*
X690568Y103347D02*
X688569D01*
X690568Y105346D01*
Y105846D01*
X690069Y106345D01*
X689069D01*
X688569Y105846D01*
X686055Y294338D02*
X685055D01*
X685555D01*
Y291838D01*
X685055Y291339D01*
X684555D01*
X684055Y291838D01*
X687054Y291339D02*
X688054D01*
X687554D01*
Y294338D01*
X687054Y293838D01*
X689553Y291339D02*
X690553D01*
X690053D01*
Y294338D01*
X689553Y293838D01*
X685070Y341582D02*
X684071D01*
X684570D01*
Y339083D01*
X684071Y338583D01*
X683571D01*
X683071Y339083D01*
X686070Y338583D02*
X687070D01*
X686570D01*
Y341582D01*
X686070Y341082D01*
X688569D02*
X689069Y341582D01*
X690069D01*
X690568Y341082D01*
Y339083D01*
X690069Y338583D01*
X689069D01*
X688569Y339083D01*
Y341082D01*
X686055Y215597D02*
X685055D01*
X685555D01*
Y213098D01*
X685055Y212598D01*
X684555D01*
X684055Y213098D01*
X687054D02*
X687554Y212598D01*
X688554D01*
X689053Y213098D01*
Y215098D01*
X688554Y215597D01*
X687554D01*
X687054Y215098D01*
Y214598D01*
X687554Y214098D01*
X689053D01*
X686055Y263826D02*
X685055D01*
X685555D01*
Y261327D01*
X685055Y260827D01*
X684555D01*
X684055Y261327D01*
X687054Y263326D02*
X687554Y263826D01*
X688554D01*
X689053Y263326D01*
Y262826D01*
X688554Y262326D01*
X689053Y261826D01*
Y261327D01*
X688554Y260827D01*
X687554D01*
X687054Y261327D01*
Y261826D01*
X687554Y262326D01*
X687054Y262826D01*
Y263326D01*
X687554Y262326D02*
X688554D01*
X690188Y157617D02*
X689688Y158117D01*
X688689D01*
X688189Y157617D01*
Y155618D01*
X688689Y155118D01*
X689688D01*
X690188Y155618D01*
X691188Y157617D02*
X691688Y158117D01*
X692688D01*
X693187Y157617D01*
Y157117D01*
X692688Y156618D01*
X692188D01*
X692688D01*
X693187Y156118D01*
Y155618D01*
X692688Y155118D01*
X691688D01*
X691188Y155618D01*
X694187Y155118D02*
X695187D01*
X694687D01*
Y158117D01*
X694187Y157617D01*
X690188Y162342D02*
X689688Y162842D01*
X688689D01*
X688189Y162342D01*
Y160342D01*
X688689Y159843D01*
X689688D01*
X690188Y160342D01*
X691188Y162342D02*
X691688Y162842D01*
X692688D01*
X693187Y162342D01*
Y161842D01*
X692688Y161342D01*
X692188D01*
X692688D01*
X693187Y160842D01*
Y160342D01*
X692688Y159843D01*
X691688D01*
X691188Y160342D01*
X694187Y162342D02*
X694687Y162842D01*
X695687D01*
X696186Y162342D01*
Y160342D01*
X695687Y159843D01*
X694687D01*
X694187Y160342D01*
Y162342D01*
X689795Y79271D02*
X689295Y79771D01*
X688295D01*
X687795Y79271D01*
Y77271D01*
X688295Y76772D01*
X689295D01*
X689795Y77271D01*
X692794Y76772D02*
X690794D01*
X692794Y78771D01*
Y79271D01*
X692294Y79771D01*
X691294D01*
X690794Y79271D01*
X693793Y77271D02*
X694293Y76772D01*
X695293D01*
X695793Y77271D01*
Y79271D01*
X695293Y79771D01*
X694293D01*
X693793Y79271D01*
Y78771D01*
X694293Y78271D01*
X695793D01*
X689795Y83601D02*
X689295Y84101D01*
X688295D01*
X687795Y83601D01*
Y81602D01*
X688295Y81102D01*
X689295D01*
X689795Y81602D01*
X692794Y81102D02*
X690794D01*
X692794Y83102D01*
Y83601D01*
X692294Y84101D01*
X691294D01*
X690794Y83601D01*
X693793D02*
X694293Y84101D01*
X695293D01*
X695793Y83601D01*
Y83102D01*
X695293Y82602D01*
X695793Y82102D01*
Y81602D01*
X695293Y81102D01*
X694293D01*
X693793Y81602D01*
Y82102D01*
X694293Y82602D01*
X693793Y83102D01*
Y83601D01*
X694293Y82602D02*
X695293D01*
X690188Y315098D02*
X689688Y315598D01*
X688689D01*
X688189Y315098D01*
Y313098D01*
X688689Y312598D01*
X689688D01*
X690188Y313098D01*
X693187Y312598D02*
X691188D01*
X693187Y314598D01*
Y315098D01*
X692688Y315598D01*
X691688D01*
X691188Y315098D01*
X694187Y315598D02*
X696186D01*
Y315098D01*
X694187Y313098D01*
Y312598D01*
X690188Y319428D02*
X689688Y319928D01*
X688689D01*
X688189Y319428D01*
Y317429D01*
X688689Y316929D01*
X689688D01*
X690188Y317429D01*
X693187Y316929D02*
X691188D01*
X693187Y318929D01*
Y319428D01*
X692688Y319928D01*
X691688D01*
X691188Y319428D01*
X696186Y319928D02*
X695187Y319428D01*
X694187Y318429D01*
Y317429D01*
X694687Y316929D01*
X695687D01*
X696186Y317429D01*
Y317929D01*
X695687Y318429D01*
X694187D01*
X690188Y241082D02*
X689688Y241582D01*
X688689D01*
X688189Y241082D01*
Y239083D01*
X688689Y238583D01*
X689688D01*
X690188Y239083D01*
X693187Y238583D02*
X691188D01*
X693187Y240582D01*
Y241082D01*
X692688Y241582D01*
X691688D01*
X691188Y241082D01*
X696186Y241582D02*
X694187D01*
Y240082D01*
X695187Y240582D01*
X695687D01*
X696186Y240082D01*
Y239083D01*
X695687Y238583D01*
X694687D01*
X694187Y239083D01*
X690188Y236751D02*
X689688Y237251D01*
X688689D01*
X688189Y236751D01*
Y234752D01*
X688689Y234252D01*
X689688D01*
X690188Y234752D01*
X693187Y234252D02*
X691188D01*
X693187Y236251D01*
Y236751D01*
X692688Y237251D01*
X691688D01*
X691188Y236751D01*
X695687Y234252D02*
Y237251D01*
X694187Y235752D01*
X696186D01*
X577590Y128546D02*
X577090Y129045D01*
X576090D01*
X575591Y128546D01*
Y126546D01*
X576090Y126047D01*
X577090D01*
X577590Y126546D01*
X580589Y126047D02*
X578590D01*
X580589Y128046D01*
Y128546D01*
X580089Y129045D01*
X579089D01*
X578590Y128546D01*
X581589D02*
X582089Y129045D01*
X583088D01*
X583588Y128546D01*
Y128046D01*
X583088Y127546D01*
X582588D01*
X583088D01*
X583588Y127046D01*
Y126546D01*
X583088Y126047D01*
X582089D01*
X581589Y126546D01*
X577590Y123200D02*
X577090Y123700D01*
X576090D01*
X575591Y123200D01*
Y121201D01*
X576090Y120701D01*
X577090D01*
X577590Y121201D01*
X580589Y120701D02*
X578590D01*
X580589Y122700D01*
Y123200D01*
X580089Y123700D01*
X579089D01*
X578590Y123200D01*
X583588Y120701D02*
X581589D01*
X583588Y122700D01*
Y123200D01*
X583088Y123700D01*
X582089D01*
X581589Y123200D01*
X637292Y123427D02*
X636792Y123927D01*
X635793D01*
X635293Y123427D01*
Y121428D01*
X635793Y120928D01*
X636792D01*
X637292Y121428D01*
X640291Y120928D02*
X638292D01*
X640291Y122928D01*
Y123427D01*
X639791Y123927D01*
X638792D01*
X638292Y123427D01*
X641291Y120928D02*
X642291D01*
X641791D01*
Y123927D01*
X641291Y123427D01*
X637292Y128318D02*
X636792Y128818D01*
X635793D01*
X635293Y128318D01*
Y126319D01*
X635793Y125819D01*
X636792D01*
X637292Y126319D01*
X640291Y125819D02*
X638292D01*
X640291Y127818D01*
Y128318D01*
X639791Y128818D01*
X638792D01*
X638292Y128318D01*
X641291D02*
X641791Y128818D01*
X642791D01*
X643290Y128318D01*
Y126319D01*
X642791Y125819D01*
X641791D01*
X641291Y126319D01*
Y128318D01*
X479399Y48301D02*
X479899Y48801D01*
Y49800D01*
X479399Y50300D01*
X477400D01*
X476900Y49800D01*
Y48801D01*
X477400Y48301D01*
X479399Y47301D02*
X479899Y46801D01*
Y45801D01*
X479399Y45302D01*
X478899D01*
X478400Y45801D01*
Y46301D01*
Y45801D01*
X477900Y45302D01*
X477400D01*
X476900Y45801D01*
Y46801D01*
X477400Y47301D01*
X518299Y296701D02*
X518799Y297200D01*
Y298200D01*
X518299Y298700D01*
X516300D01*
X515800Y298200D01*
Y297200D01*
X516300Y296701D01*
X515800Y295701D02*
Y294701D01*
Y295201D01*
X518799D01*
X518299Y295701D01*
X518799Y291202D02*
Y293202D01*
X517300D01*
X517799Y292202D01*
Y291702D01*
X517300Y291202D01*
X516300D01*
X515800Y291702D01*
Y292702D01*
X516300Y293202D01*
X621799Y50801D02*
X622299Y51301D01*
Y52300D01*
X621799Y52800D01*
X619800D01*
X619300Y52300D01*
Y51301D01*
X619800Y50801D01*
X619300Y49801D02*
Y48801D01*
Y49301D01*
X622299D01*
X621799Y49801D01*
Y47302D02*
X622299Y46802D01*
Y45802D01*
X621799Y45302D01*
X621299D01*
X620799Y45802D01*
Y46302D01*
Y45802D01*
X620300Y45302D01*
X619800D01*
X619300Y45802D01*
Y46802D01*
X619800Y47302D01*
X626099Y50801D02*
X626599Y51301D01*
Y52300D01*
X626099Y52800D01*
X624100D01*
X623600Y52300D01*
Y51301D01*
X624100Y50801D01*
X623600Y49801D02*
Y48801D01*
Y49301D01*
X626599D01*
X626099Y49801D01*
X623600Y45302D02*
Y47302D01*
X625599Y45302D01*
X626099D01*
X626599Y45802D01*
Y46802D01*
X626099Y47302D01*
X636799Y49801D02*
X637299Y50301D01*
Y51300D01*
X636799Y51800D01*
X634800D01*
X634300Y51300D01*
Y50301D01*
X634800Y49801D01*
X634300Y48801D02*
Y47801D01*
Y48301D01*
X637299D01*
X636799Y48801D01*
X634300Y46302D02*
Y45302D01*
Y45802D01*
X637299D01*
X636799Y46302D01*
X641599Y50801D02*
X642099Y51301D01*
Y52300D01*
X641599Y52800D01*
X639600D01*
X639100Y52300D01*
Y51301D01*
X639600Y50801D01*
X639100Y49801D02*
Y48801D01*
Y49301D01*
X642099D01*
X641599Y49801D01*
Y47302D02*
X642099Y46802D01*
Y45802D01*
X641599Y45302D01*
X639600D01*
X639100Y45802D01*
Y46802D01*
X639600Y47302D01*
X641599D01*
X542799Y48301D02*
X543299Y48801D01*
Y49800D01*
X542799Y50300D01*
X540800D01*
X540300Y49800D01*
Y48801D01*
X540800Y48301D01*
Y47301D02*
X540300Y46801D01*
Y45801D01*
X540800Y45302D01*
X542799D01*
X543299Y45801D01*
Y46801D01*
X542799Y47301D01*
X542299D01*
X541799Y46801D01*
Y45302D01*
X547599Y48301D02*
X548099Y48801D01*
Y49800D01*
X547599Y50300D01*
X545600D01*
X545100Y49800D01*
Y48801D01*
X545600Y48301D01*
X547599Y47301D02*
X548099Y46801D01*
Y45801D01*
X547599Y45302D01*
X547099D01*
X546599Y45801D01*
X546100Y45302D01*
X545600D01*
X545100Y45801D01*
Y46801D01*
X545600Y47301D01*
X546100D01*
X546599Y46801D01*
X547099Y47301D01*
X547599D01*
X546599Y46801D02*
Y45801D01*
X557499Y48238D02*
X557999Y48738D01*
Y49738D01*
X557499Y50238D01*
X555500D01*
X555000Y49738D01*
Y48738D01*
X555500Y48238D01*
X557999Y47239D02*
Y45239D01*
X557499D01*
X555500Y47239D01*
X555000D01*
X562999Y48238D02*
X563499Y48738D01*
Y49738D01*
X562999Y50238D01*
X561000D01*
X560500Y49738D01*
Y48738D01*
X561000Y48238D01*
X563499Y45239D02*
X562999Y46239D01*
X562000Y47239D01*
X561000D01*
X560500Y46739D01*
Y45739D01*
X561000Y45239D01*
X561500D01*
X562000Y45739D01*
Y47239D01*
X464299Y48301D02*
X464799Y48801D01*
Y49800D01*
X464299Y50300D01*
X462300D01*
X461800Y49800D01*
Y48801D01*
X462300Y48301D01*
X464799Y45302D02*
Y47301D01*
X463300D01*
X463799Y46301D01*
Y45801D01*
X463300Y45302D01*
X462300D01*
X461800Y45801D01*
Y46801D01*
X462300Y47301D01*
X468599Y48301D02*
X469099Y48801D01*
Y49800D01*
X468599Y50300D01*
X466600D01*
X466100Y49800D01*
Y48801D01*
X466600Y48301D01*
X466100Y45801D02*
X469099D01*
X467599Y47301D01*
Y45302D01*
X483699Y48301D02*
X484199Y48801D01*
Y49800D01*
X483699Y50300D01*
X481700D01*
X481200Y49800D01*
Y48801D01*
X481700Y48301D01*
X481200Y45302D02*
Y47301D01*
X483199Y45302D01*
X483699D01*
X484199Y45801D01*
Y46801D01*
X483699Y47301D01*
X598850Y227409D02*
X597850D01*
X598350D01*
Y224909D01*
X597850Y224410D01*
X597350D01*
X596850Y224909D01*
X599849Y226909D02*
X600349Y227409D01*
X601349D01*
X601849Y226909D01*
Y226409D01*
X601349Y225909D01*
X600849D01*
X601349D01*
X601849Y225409D01*
Y224909D01*
X601349Y224410D01*
X600349D01*
X599849Y224909D01*
X506299Y345669D02*
X509298D01*
Y344170D01*
X508798Y343670D01*
X507799D01*
X507299Y344170D01*
Y345669D01*
Y344670D02*
X506299Y343670D01*
Y340671D02*
Y342670D01*
X508299Y340671D01*
X508798D01*
X509298Y341171D01*
Y342170D01*
X508798Y342670D01*
X509298Y337672D02*
X508798Y338671D01*
X507799Y339671D01*
X506799D01*
X506299Y339171D01*
Y338172D01*
X506799Y337672D01*
X507299D01*
X507799Y338172D01*
Y339671D01*
X488583Y345669D02*
X491582D01*
Y344170D01*
X491082Y343670D01*
X490082D01*
X489582Y344170D01*
Y345669D01*
Y344670D02*
X488583Y343670D01*
Y340671D02*
Y342670D01*
X490582Y340671D01*
X491082D01*
X491582Y341171D01*
Y342170D01*
X491082Y342670D01*
Y339671D02*
X491582Y339171D01*
Y338172D01*
X491082Y337672D01*
X490582D01*
X490082Y338172D01*
Y338671D01*
Y338172D01*
X489582Y337672D01*
X489082D01*
X488583Y338172D01*
Y339171D01*
X489082Y339671D01*
X482677Y345669D02*
X485676D01*
Y344170D01*
X485176Y343670D01*
X484177D01*
X483677Y344170D01*
Y345669D01*
Y344670D02*
X482677Y343670D01*
Y340671D02*
Y342670D01*
X484677Y340671D01*
X485176D01*
X485676Y341171D01*
Y342170D01*
X485176Y342670D01*
X482677Y337672D02*
Y339671D01*
X484677Y337672D01*
X485176D01*
X485676Y338172D01*
Y339171D01*
X485176Y339671D01*
X510873Y309055D02*
X508374D01*
X507874Y308555D01*
Y307556D01*
X508374Y307056D01*
X510873D01*
Y304057D02*
Y306056D01*
X509374D01*
X509873Y305056D01*
Y304557D01*
X509374Y304057D01*
X508374D01*
X507874Y304557D01*
Y305556D01*
X508374Y306056D01*
X478000Y304600D02*
X480999D01*
Y303100D01*
X480499Y302601D01*
X479499D01*
X479000Y303100D01*
Y304600D01*
Y303600D02*
X478000Y302601D01*
Y299602D02*
Y301601D01*
X479999Y299602D01*
X480499D01*
X480999Y300101D01*
Y301101D01*
X480499Y301601D01*
Y298602D02*
X480999Y298102D01*
Y297102D01*
X480499Y296603D01*
X479999D01*
X479499Y297102D01*
X479000Y296603D01*
X478500D01*
X478000Y297102D01*
Y298102D01*
X478500Y298602D01*
X479000D01*
X479499Y298102D01*
X479999Y298602D01*
X480499D01*
X479499Y298102D02*
Y297102D01*
X512205Y345669D02*
X515204D01*
Y344170D01*
X514704Y343670D01*
X513704D01*
X513204Y344170D01*
Y345669D01*
Y344670D02*
X512205Y343670D01*
Y340671D02*
Y342670D01*
X514204Y340671D01*
X514704D01*
X515204Y341171D01*
Y342170D01*
X514704Y342670D01*
X515204Y339671D02*
Y337672D01*
X514704D01*
X512705Y339671D01*
X512205D01*
X500394Y345669D02*
X503393D01*
Y344170D01*
X502893Y343670D01*
X501893D01*
X501393Y344170D01*
Y345669D01*
Y344670D02*
X500394Y343670D01*
Y340671D02*
Y342670D01*
X502393Y340671D01*
X502893D01*
X503393Y341171D01*
Y342170D01*
X502893Y342670D01*
X503393Y337672D02*
Y339671D01*
X501893D01*
X502393Y338671D01*
Y338172D01*
X501893Y337672D01*
X500893D01*
X500394Y338172D01*
Y339171D01*
X500893Y339671D01*
X494488Y345669D02*
X497487D01*
Y344170D01*
X496987Y343670D01*
X495988D01*
X495488Y344170D01*
Y345669D01*
Y344670D02*
X494488Y343670D01*
Y340671D02*
Y342670D01*
X496488Y340671D01*
X496987D01*
X497487Y341171D01*
Y342170D01*
X496987Y342670D01*
X494488Y338172D02*
X497487D01*
X495988Y339671D01*
Y337672D01*
X229134Y137008D02*
X232133D01*
Y135508D01*
X231633Y135009D01*
X230633D01*
X230134Y135508D01*
Y137008D01*
Y136008D02*
X229134Y135009D01*
X232133Y134009D02*
Y132009D01*
X231633D01*
X229634Y134009D01*
X229134D01*
X250000Y137008D02*
X252999D01*
Y135508D01*
X252499Y135009D01*
X251500D01*
X251000Y135508D01*
Y137008D01*
Y136008D02*
X250000Y135009D01*
X252999Y132009D02*
X252499Y133009D01*
X251500Y134009D01*
X250500D01*
X250000Y133509D01*
Y132509D01*
X250500Y132009D01*
X251000D01*
X251500Y132509D01*
Y134009D01*
X218898Y137008D02*
X221897D01*
Y135508D01*
X221397Y135009D01*
X220397D01*
X219897Y135508D01*
Y137008D01*
Y136008D02*
X218898Y135009D01*
X221897Y132009D02*
Y134009D01*
X220397D01*
X220897Y133009D01*
Y132509D01*
X220397Y132009D01*
X219397D01*
X218898Y132509D01*
Y133509D01*
X219397Y134009D01*
X598456Y35479D02*
X597456D01*
X597956D01*
Y32980D01*
X597456Y32480D01*
X596956D01*
X596457Y32980D01*
X599456Y32480D02*
X600455D01*
X599956D01*
Y35479D01*
X599456Y34980D01*
X601955D02*
X602455Y35479D01*
X603454D01*
X603954Y34980D01*
Y34480D01*
X603454Y33980D01*
X603954Y33480D01*
Y32980D01*
X603454Y32480D01*
X602455D01*
X601955Y32980D01*
Y33480D01*
X602455Y33980D01*
X601955Y34480D01*
Y34980D01*
X602455Y33980D02*
X603454D01*
X440976Y35479D02*
X439976D01*
X440476D01*
Y32980D01*
X439976Y32480D01*
X439476D01*
X438976Y32980D01*
X441975Y32480D02*
X442975D01*
X442475D01*
Y35479D01*
X441975Y34980D01*
X446474Y35479D02*
X445474Y34980D01*
X444475Y33980D01*
Y32980D01*
X444974Y32480D01*
X445974D01*
X446474Y32980D01*
Y33480D01*
X445974Y33980D01*
X444475D01*
X562039Y118157D02*
X561039D01*
X561539D01*
Y115657D01*
X561039Y115157D01*
X560539D01*
X560039Y115657D01*
X563038Y118157D02*
X565038D01*
Y117657D01*
X563038Y115657D01*
Y115157D01*
X621094Y118157D02*
X620094D01*
X620594D01*
Y115657D01*
X620094Y115157D01*
X619594D01*
X619095Y115657D01*
X624093Y118157D02*
X622093D01*
Y116657D01*
X623093Y117157D01*
X623593D01*
X624093Y116657D01*
Y115657D01*
X623593Y115157D01*
X622593D01*
X622093Y115657D01*
X562039Y136857D02*
X561039D01*
X561539D01*
Y134358D01*
X561039Y133858D01*
X560539D01*
X560039Y134358D01*
X565038Y136857D02*
X564038Y136357D01*
X563038Y135358D01*
Y134358D01*
X563538Y133858D01*
X564538D01*
X565038Y134358D01*
Y134858D01*
X564538Y135358D01*
X563038D01*
X621094Y136857D02*
X620094D01*
X620594D01*
Y134358D01*
X620094Y133858D01*
X619594D01*
X619095Y134358D01*
X623593Y133858D02*
Y136857D01*
X622093Y135358D01*
X624093D01*
X524047Y227409D02*
X523047D01*
X523547D01*
Y224909D01*
X523047Y224410D01*
X522547D01*
X522047Y224909D01*
X527046Y224410D02*
X525046D01*
X527046Y226409D01*
Y226909D01*
X526546Y227409D01*
X525546D01*
X525046Y226909D01*
X462629Y375046D02*
X461630D01*
X462129D01*
Y372547D01*
X461630Y372047D01*
X461130D01*
X460630Y372547D01*
X465628Y372047D02*
X463629D01*
X465628Y374047D01*
Y374546D01*
X465129Y375046D01*
X464129D01*
X463629Y374546D01*
X468627Y375046D02*
X466628D01*
Y372047D01*
X468627D01*
X466628Y373547D02*
X467628D01*
X324834Y359298D02*
X323834D01*
X324334D01*
Y356799D01*
X323834Y356299D01*
X323335D01*
X322835Y356799D01*
X327833Y356299D02*
X325834D01*
X327833Y358299D01*
Y358798D01*
X327333Y359298D01*
X326333D01*
X325834Y358798D01*
X328833Y359298D02*
Y356299D01*
X330332D01*
X330832Y356799D01*
Y358798D01*
X330332Y359298D01*
X328833D01*
X324834Y363235D02*
X323834D01*
X324334D01*
Y360736D01*
X323834Y360236D01*
X323335D01*
X322835Y360736D01*
X327833Y360236D02*
X325834D01*
X327833Y362236D01*
Y362735D01*
X327333Y363235D01*
X326333D01*
X325834Y362735D01*
X330832D02*
X330332Y363235D01*
X329332D01*
X328833Y362735D01*
Y360736D01*
X329332Y360236D01*
X330332D01*
X330832Y360736D01*
X147669Y359298D02*
X146669D01*
X147169D01*
Y356799D01*
X146669Y356299D01*
X146169D01*
X145669Y356799D01*
X150668Y356299D02*
X148668D01*
X150668Y358299D01*
Y358798D01*
X150168Y359298D01*
X149168D01*
X148668Y358798D01*
X151667Y359298D02*
Y356299D01*
X153167D01*
X153667Y356799D01*
Y357299D01*
X153167Y357799D01*
X151667D01*
X153167D01*
X153667Y358299D01*
Y358798D01*
X153167Y359298D01*
X151667D01*
X147669Y363235D02*
X146669D01*
X147169D01*
Y360736D01*
X146669Y360236D01*
X146169D01*
X145669Y360736D01*
X150668Y360236D02*
X148668D01*
X150668Y362236D01*
Y362735D01*
X150168Y363235D01*
X149168D01*
X148668Y362735D01*
X151667Y360236D02*
Y362236D01*
X152667Y363235D01*
X153667Y362236D01*
Y360236D01*
Y361736D01*
X151667D01*
X324834Y39416D02*
X323834D01*
X324334D01*
Y36917D01*
X323834Y36417D01*
X323335D01*
X322835Y36917D01*
X325834Y36417D02*
X326833D01*
X326333D01*
Y39416D01*
X325834Y38917D01*
X328333Y39416D02*
Y36417D01*
X329832D01*
X330332Y36917D01*
Y38917D01*
X329832Y39416D01*
X328333D01*
X324834Y35479D02*
X323834D01*
X324334D01*
Y32980D01*
X323834Y32480D01*
X323335D01*
X322835Y32980D01*
X325834Y32480D02*
X326833D01*
X326333D01*
Y35479D01*
X325834Y34980D01*
X330332D02*
X329832Y35479D01*
X328833D01*
X328333Y34980D01*
Y32980D01*
X328833Y32480D01*
X329832D01*
X330332Y32980D01*
X147669Y39416D02*
X146669D01*
X147169D01*
Y36917D01*
X146669Y36417D01*
X146169D01*
X145669Y36917D01*
X148668Y36417D02*
X149668D01*
X149168D01*
Y39416D01*
X148668Y38917D01*
X151168Y39416D02*
Y36417D01*
X152667D01*
X153167Y36917D01*
Y37417D01*
X152667Y37917D01*
X151168D01*
X152667D01*
X153167Y38417D01*
Y38917D01*
X152667Y39416D01*
X151168D01*
X147669Y35479D02*
X146669D01*
X147169D01*
Y32980D01*
X146669Y32480D01*
X146169D01*
X145669Y32980D01*
X148668Y32480D02*
X149668D01*
X149168D01*
Y35479D01*
X148668Y34980D01*
X151168Y32480D02*
Y34480D01*
X152167Y35479D01*
X153167Y34480D01*
Y32480D01*
Y33980D01*
X151168D01*
X224016Y137008D02*
X227015D01*
Y135508D01*
X226515Y135009D01*
X225515D01*
X225015Y135508D01*
Y137008D01*
Y136008D02*
X224016Y135009D01*
Y132509D02*
X227015D01*
X225515Y134009D01*
Y132009D01*
X234252Y137008D02*
X237251D01*
Y135508D01*
X236751Y135009D01*
X235752D01*
X235252Y135508D01*
Y137008D01*
Y136008D02*
X234252Y135009D01*
X236751Y134009D02*
X237251Y133509D01*
Y132509D01*
X236751Y132009D01*
X236251D01*
X235752Y132509D01*
Y133009D01*
Y132509D01*
X235252Y132009D01*
X234752D01*
X234252Y132509D01*
Y133509D01*
X234752Y134009D01*
X239764Y137008D02*
X242763D01*
Y135508D01*
X242263Y135009D01*
X241263D01*
X240763Y135508D01*
Y137008D01*
Y136008D02*
X239764Y135009D01*
Y132009D02*
Y134009D01*
X241763Y132009D01*
X242263D01*
X242763Y132509D01*
Y133509D01*
X242263Y134009D01*
X471900Y231200D02*
X474899D01*
Y229700D01*
X474399Y229201D01*
X473399D01*
X472900Y229700D01*
Y231200D01*
Y230200D02*
X471900Y229201D01*
Y228201D02*
Y227201D01*
Y227701D01*
X474899D01*
X474399Y228201D01*
X474899Y223702D02*
X474399Y224702D01*
X473399Y225702D01*
X472400D01*
X471900Y225202D01*
Y224202D01*
X472400Y223702D01*
X472900D01*
X473399Y224202D01*
Y225702D01*
X244882Y137008D02*
X247881D01*
Y135508D01*
X247381Y135009D01*
X246381D01*
X245882Y135508D01*
Y137008D01*
Y136008D02*
X244882Y135009D01*
Y134009D02*
Y133009D01*
Y133509D01*
X247881D01*
X247381Y134009D01*
X496500Y240599D02*
Y238100D01*
X497000Y237600D01*
X497999D01*
X498499Y238100D01*
Y240599D01*
X499499Y240099D02*
X499999Y240599D01*
X500998D01*
X501498Y240099D01*
Y239599D01*
X500998Y239100D01*
X500499D01*
X500998D01*
X501498Y238600D01*
Y238100D01*
X500998Y237600D01*
X499999D01*
X499499Y238100D01*
X308268Y139370D02*
X311267D01*
Y137871D01*
X310767Y137371D01*
X309767D01*
X309267Y137871D01*
Y139370D01*
Y138370D02*
X308268Y137371D01*
Y136371D02*
Y135371D01*
Y135871D01*
X311267D01*
X310767Y136371D01*
X308268Y132372D02*
X311267D01*
X309767Y133872D01*
Y131872D01*
X328740Y139370D02*
X331739D01*
Y137871D01*
X331239Y137371D01*
X330240D01*
X329740Y137871D01*
Y139370D01*
Y138370D02*
X328740Y137371D01*
Y136371D02*
Y135371D01*
Y135871D01*
X331739D01*
X331239Y136371D01*
Y133872D02*
X331739Y133372D01*
Y132372D01*
X331239Y131872D01*
X330739D01*
X330240Y132372D01*
Y132872D01*
Y132372D01*
X329740Y131872D01*
X329240D01*
X328740Y132372D01*
Y133372D01*
X329240Y133872D01*
X297638Y139370D02*
X300637D01*
Y137871D01*
X300137Y137371D01*
X299137D01*
X298638Y137871D01*
Y139370D01*
Y138370D02*
X297638Y137371D01*
Y136371D02*
Y135371D01*
Y135871D01*
X300637D01*
X300137Y136371D01*
X297638Y131872D02*
Y133872D01*
X299637Y131872D01*
X300137D01*
X300637Y132372D01*
Y133372D01*
X300137Y133872D01*
X303150Y139370D02*
X306149D01*
Y137871D01*
X305649Y137371D01*
X304649D01*
X304149Y137871D01*
Y139370D01*
Y138370D02*
X303150Y137371D01*
Y136371D02*
Y135371D01*
Y135871D01*
X306149D01*
X305649Y136371D01*
X303150Y133872D02*
Y132872D01*
Y133372D01*
X306149D01*
X305649Y133872D01*
X313386Y139370D02*
X316385D01*
Y137871D01*
X315885Y137371D01*
X314885D01*
X314386Y137871D01*
Y139370D01*
Y138370D02*
X313386Y137371D01*
Y136371D02*
Y135371D01*
Y135871D01*
X316385D01*
X315885Y136371D01*
Y133872D02*
X316385Y133372D01*
Y132372D01*
X315885Y131872D01*
X313886D01*
X313386Y132372D01*
Y133372D01*
X313886Y133872D01*
X315885D01*
X318504Y139370D02*
X321503D01*
Y137871D01*
X321003Y137371D01*
X320004D01*
X319504Y137871D01*
Y139370D01*
Y138370D02*
X318504Y137371D01*
X319004Y136371D02*
X318504Y135871D01*
Y134871D01*
X319004Y134372D01*
X321003D01*
X321503Y134871D01*
Y135871D01*
X321003Y136371D01*
X320503D01*
X320004Y135871D01*
Y134372D01*
X323622Y139370D02*
X326621D01*
Y137871D01*
X326121Y137371D01*
X325122D01*
X324622Y137871D01*
Y139370D01*
Y138370D02*
X323622Y137371D01*
X326121Y136371D02*
X326621Y135871D01*
Y134871D01*
X326121Y134372D01*
X325621D01*
X325122Y134871D01*
X324622Y134372D01*
X324122D01*
X323622Y134871D01*
Y135871D01*
X324122Y136371D01*
X324622D01*
X325122Y135871D01*
X325621Y136371D01*
X326121D01*
X325122Y135871D02*
Y134871D01*
X478699Y210201D02*
X479199Y210700D01*
Y211700D01*
X478699Y212200D01*
X476700D01*
X476200Y211700D01*
Y210700D01*
X476700Y210201D01*
X476200Y209201D02*
Y208201D01*
Y208701D01*
X479199D01*
X478699Y209201D01*
X59699Y65901D02*
X60199Y66400D01*
Y67400D01*
X59699Y67900D01*
X57700D01*
X57200Y67400D01*
Y66400D01*
X57700Y65901D01*
X57200Y64901D02*
Y63901D01*
Y64401D01*
X60199D01*
X59699Y64901D01*
X57200Y60902D02*
X60199D01*
X58700Y62402D01*
Y60402D01*
X37039Y93550D02*
X36039D01*
X36539D01*
Y91051D01*
X36039Y90551D01*
X35539D01*
X35039Y91051D01*
X38038Y90551D02*
X39038D01*
X38538D01*
Y93550D01*
X38038Y93050D01*
X519716Y35479D02*
X518716D01*
X519216D01*
Y32980D01*
X518716Y32480D01*
X518216D01*
X517717Y32980D01*
X520716Y32480D02*
X521715D01*
X521215D01*
Y35479D01*
X520716Y34980D01*
X523215Y35479D02*
X525214D01*
Y34980D01*
X523215Y32980D01*
Y32480D01*
X503141Y137015D02*
X502141D01*
X502641D01*
Y134516D01*
X502141Y134016D01*
X501642D01*
X501142Y134516D01*
X504141Y134016D02*
X505140D01*
X504641D01*
Y137015D01*
X504141Y136515D01*
X506640Y134516D02*
X507140Y134016D01*
X508140D01*
X508639Y134516D01*
Y136515D01*
X508140Y137015D01*
X507140D01*
X506640Y136515D01*
Y136015D01*
X507140Y135515D01*
X508639D01*
X503141Y118314D02*
X502141D01*
X502641D01*
Y115815D01*
X502141Y115315D01*
X501642D01*
X501142Y115815D01*
X506140Y115315D02*
X504141D01*
X506140Y117314D01*
Y117814D01*
X505640Y118314D01*
X504641D01*
X504141Y117814D01*
X507140D02*
X507640Y118314D01*
X508639D01*
X509139Y117814D01*
Y115815D01*
X508639Y115315D01*
X507640D01*
X507140Y115815D01*
Y117814D01*
X20399Y326701D02*
Y327700D01*
Y327201D01*
X17900D01*
X17400Y327700D01*
Y328200D01*
X17900Y328700D01*
X17400Y323702D02*
Y325701D01*
X19399Y323702D01*
X19899D01*
X20399Y324201D01*
Y325201D01*
X19899Y325701D01*
X17400Y322702D02*
Y321702D01*
Y322202D01*
X20399D01*
X19899Y322702D01*
X423228Y386614D02*
X421260D01*
X423228Y388582D01*
Y389074D01*
X422736Y389566D01*
X421752D01*
X421260Y389074D01*
X422047Y378740D02*
X423031D01*
X422539D01*
Y381692D01*
X422047Y381200D01*
X68897Y14567D02*
X66929D01*
X68897Y16535D01*
Y17027D01*
X68405Y17519D01*
X67421D01*
X66929Y17027D01*
X67716Y6693D02*
X68700D01*
X68208D01*
Y9645D01*
X67716Y9153D01*
X244882Y6693D02*
X245866D01*
X245374D01*
Y9645D01*
X244882Y9153D01*
X246062Y14567D02*
X244094D01*
X246062Y16535D01*
Y17027D01*
X245570Y17519D01*
X244586D01*
X244094Y17027D01*
X68897Y386614D02*
X66929D01*
X68897Y388582D01*
Y389074D01*
X68405Y389566D01*
X67421D01*
X66929Y389074D01*
X67716Y378740D02*
X68700D01*
X68208D01*
Y381692D01*
X67716Y381200D01*
X244882Y378740D02*
X245866D01*
X245374D01*
Y381692D01*
X244882Y381200D01*
X246062Y386614D02*
X244094D01*
X246062Y388582D01*
Y389074D01*
X245570Y389566D01*
X244586D01*
X244094Y389074D01*
X30709Y271653D02*
Y269685D01*
X28741Y271653D01*
X28249D01*
X27757Y271161D01*
Y270177D01*
X28249Y269685D01*
X38583Y270472D02*
Y271456D01*
Y270964D01*
X35631D01*
X36123Y270472D01*
X67716Y366142D02*
X68716D01*
X68216D01*
Y369141D01*
X67716Y368641D01*
X231921Y366929D02*
X229921D01*
X231921Y368929D01*
Y369428D01*
X231421Y369928D01*
X230421D01*
X229921Y369428D01*
X232920D02*
X233420Y369928D01*
X234420D01*
X234920Y369428D01*
Y367429D01*
X234420Y366929D01*
X233420D01*
X232920Y367429D01*
Y369428D01*
X244882Y366929D02*
X245882D01*
X245382D01*
Y369928D01*
X244882Y369428D01*
X409086Y366929D02*
X407087D01*
X409086Y368929D01*
Y369428D01*
X408586Y369928D01*
X407586D01*
X407087Y369428D01*
X410086D02*
X410585Y369928D01*
X411585D01*
X412085Y369428D01*
Y367429D01*
X411585Y366929D01*
X410585D01*
X410086Y367429D01*
Y369428D01*
X231921Y26378D02*
X229921D01*
X231921Y28377D01*
Y28877D01*
X231421Y29377D01*
X230421D01*
X229921Y28877D01*
X232920D02*
X233420Y29377D01*
X234420D01*
X234920Y28877D01*
Y26878D01*
X234420Y26378D01*
X233420D01*
X232920Y26878D01*
Y28877D01*
X67716Y25591D02*
X68716D01*
X68216D01*
Y28590D01*
X67716Y28090D01*
X409086Y26378D02*
X407087D01*
X409086Y28377D01*
Y28877D01*
X408586Y29377D01*
X407586D01*
X407087Y28877D01*
X410086D02*
X410585Y29377D01*
X411585D01*
X412085Y28877D01*
Y26878D01*
X411585Y26378D01*
X410585D01*
X410086Y26878D01*
Y28877D01*
X244882Y25591D02*
X245882D01*
X245382D01*
Y28590D01*
X244882Y28090D01*
D29*
X196850Y328740D02*
X204724D01*
X196850Y305118D02*
Y328740D01*
Y297244D02*
Y305118D01*
Y297244D02*
X204724D01*
X196850Y305118D02*
X204724Y297244D01*
X425197Y328740D02*
X433071D01*
Y297244D02*
Y328740D01*
X425197Y297244D02*
X433071D01*
X425197D02*
X433071Y305118D01*
X425197Y68898D02*
X433071Y76772D01*
X425197Y68898D02*
X433071D01*
Y100394D01*
X425197D02*
X433071D01*
X196851Y76772D02*
X204725Y68898D01*
X196850D02*
X204725D01*
X196850D02*
Y76772D01*
Y100394D01*
X204725D01*
D31*
X550000Y229134D02*
X560236D01*
X522638Y248031D02*
Y271654D01*
Y287402D02*
Y311024D01*
Y326772D02*
Y350394D01*
X586614Y267717D02*
Y291339D01*
Y307087D02*
Y330709D01*
Y346457D02*
Y370079D01*
X522638Y229134D02*
Y232283D01*
Y229134D02*
X532480D01*
X576772D02*
X586614D01*
Y251969D01*
X522638Y366142D02*
Y395669D01*
X586614Y385827D02*
Y395669D01*
X532606Y238299D02*
Y253299D01*
Y238299D02*
X538606D01*
X532606Y259299D02*
Y274299D01*
X536606D01*
X570606D02*
X576606D01*
Y259299D02*
Y274299D01*
Y238299D02*
Y253299D01*
X571606Y238299D02*
X576606D01*
X646410Y238299D02*
X651409D01*
Y253299D01*
Y259299D02*
Y274299D01*
X645409D02*
X651409D01*
X607409D02*
X611410D01*
X607409Y259299D02*
Y274299D01*
Y238299D02*
X613410D01*
X607409D02*
Y253299D01*
X661417Y385827D02*
Y395669D01*
X597441Y366142D02*
Y395669D01*
X661417Y229134D02*
Y251969D01*
X651575Y229134D02*
X661417D01*
X597441D02*
X607283D01*
X597441D02*
Y232283D01*
X661417Y346457D02*
Y370079D01*
Y307087D02*
Y330709D01*
Y267717D02*
Y291339D01*
X597441Y326772D02*
Y350394D01*
Y287402D02*
Y311024D01*
Y248031D02*
Y271654D01*
X624803Y229134D02*
X635039D01*
X585055Y4331D02*
Y30921D01*
X517126Y4331D02*
X585055D01*
X517126Y30921D02*
X585055D01*
X517126Y4331D02*
Y30921D01*
X438386Y4331D02*
Y30921D01*
X506315D01*
X438386Y4331D02*
X506315D01*
Y30921D01*
X663795Y4331D02*
Y30921D01*
X595866Y4331D02*
X663795D01*
X595866Y30921D02*
X663795D01*
X595866Y4331D02*
Y30921D01*
X472441Y61024D02*
Y139764D01*
X393701Y61024D02*
X472441D01*
X393701Y336614D02*
X472441D01*
Y257874D02*
Y336614D01*
X78740Y257874D02*
Y336614D01*
X157480D01*
X78740Y61024D02*
X157480D01*
X78740D02*
Y139764D01*
X648033Y36661D02*
X647200Y37494D01*
X645534D01*
X644701Y36661D01*
Y33329D01*
X645534Y32496D01*
X647200D01*
X648033Y33329D01*
X649699Y37494D02*
Y32496D01*
Y34995D01*
X653031D01*
Y37494D01*
Y32496D01*
X654698D02*
X656364D01*
X655531D01*
Y37494D01*
X654698Y36661D01*
X648033Y45976D02*
X647200Y46809D01*
X645534D01*
X644701Y45976D01*
Y42643D01*
X645534Y41811D01*
X647200D01*
X648033Y42643D01*
Y44310D01*
X646367D01*
X649699Y46809D02*
X653031D01*
X651365D01*
Y41811D01*
X654698Y46809D02*
X658030Y41811D01*
Y46809D02*
X654698Y41811D01*
X659696Y40977D02*
X663028D01*
X664694Y41811D02*
X666360D01*
X665527D01*
Y46809D01*
X664694Y45976D01*
X668860Y41811D02*
X670526D01*
X669693D01*
Y46809D01*
X668860Y45976D01*
X676357Y46809D02*
X674691Y45976D01*
X673025Y44310D01*
Y42643D01*
X673858Y41811D01*
X675524D01*
X676357Y42643D01*
Y43477D01*
X675524Y44310D01*
X673025D01*
X569293Y36661D02*
X568460Y37494D01*
X566794D01*
X565961Y36661D01*
Y33329D01*
X566794Y32496D01*
X568460D01*
X569293Y33329D01*
X570959Y37494D02*
Y32496D01*
Y34995D01*
X574291D01*
Y37494D01*
Y32496D01*
X579290D02*
X575957D01*
X579290Y35828D01*
Y36661D01*
X578457Y37494D01*
X576790D01*
X575957Y36661D01*
X569293Y45976D02*
X568460Y46809D01*
X566794D01*
X565961Y45976D01*
Y42643D01*
X566794Y41811D01*
X568460D01*
X569293Y42643D01*
Y44310D01*
X567627D01*
X570959Y46809D02*
X574291D01*
X572625D01*
Y41811D01*
X575957Y46809D02*
X579290Y41811D01*
Y46809D02*
X575957Y41811D01*
X580956Y40977D02*
X584288D01*
X585954Y41811D02*
X587620D01*
X586787D01*
Y46809D01*
X585954Y45976D01*
X590120Y41811D02*
X591786D01*
X590952D01*
Y46809D01*
X590120Y45976D01*
X597617Y46809D02*
X595951Y45976D01*
X594285Y44310D01*
Y42643D01*
X595118Y41811D01*
X596784D01*
X597617Y42643D01*
Y43477D01*
X596784Y44310D01*
X594285D01*
X490553Y36661D02*
X489720Y37494D01*
X488054D01*
X487220Y36661D01*
Y33329D01*
X488054Y32496D01*
X489720D01*
X490553Y33329D01*
X492219Y37494D02*
Y32496D01*
Y34995D01*
X495551D01*
Y37494D01*
Y32496D01*
X497217Y36661D02*
X498050Y37494D01*
X499716D01*
X500550Y36661D01*
Y35828D01*
X499716Y34995D01*
X498883D01*
X499716D01*
X500550Y34162D01*
Y33329D01*
X499716Y32496D01*
X498050D01*
X497217Y33329D01*
X490553Y45976D02*
X489720Y46809D01*
X488054D01*
X487220Y45976D01*
Y42643D01*
X488054Y41811D01*
X489720D01*
X490553Y42643D01*
Y44310D01*
X488887D01*
X492219Y46809D02*
X495551D01*
X493885D01*
Y41811D01*
X497217Y46809D02*
X500550Y41811D01*
Y46809D02*
X497217Y41811D01*
X502216Y40977D02*
X505548D01*
X507214Y41811D02*
X508880D01*
X508047D01*
Y46809D01*
X507214Y45976D01*
X511379Y41811D02*
X513045D01*
X512212D01*
Y46809D01*
X511379Y45976D01*
X518877Y46809D02*
X517211Y45976D01*
X515545Y44310D01*
Y42643D01*
X516378Y41811D01*
X518044D01*
X518877Y42643D01*
Y43477D01*
X518044Y44310D01*
X515545D01*
X701772Y133858D02*
X696773D01*
Y136357D01*
X697606Y137190D01*
X699272D01*
X700105Y136357D01*
Y133858D01*
Y135524D02*
X701772Y137190D01*
X696773Y138857D02*
X701772Y142189D01*
X696773D02*
X701772Y138857D01*
Y143855D02*
X696773D01*
X701772Y147187D01*
X696773D01*
X697606Y148853D02*
X696773Y149687D01*
Y151353D01*
X697606Y152186D01*
X700939D01*
X701772Y151353D01*
Y149687D01*
X700939Y148853D01*
X697606D01*
X701772Y164370D02*
X696773D01*
Y166869D01*
X697606Y167702D01*
X699272D01*
X700105Y166869D01*
Y164370D01*
Y166036D02*
X701772Y167702D01*
X696773Y169369D02*
X701772Y172701D01*
X696773D02*
X701772Y169369D01*
Y174367D02*
X696773D01*
Y176866D01*
X697606Y177699D01*
X699272D01*
X700105Y176866D01*
Y174367D01*
X697606Y179365D02*
X696773Y180198D01*
Y181864D01*
X697606Y182697D01*
X700939D01*
X701772Y181864D01*
Y180198D01*
X700939Y179365D01*
X697606D01*
X696645Y56676D02*
Y60008D01*
Y58342D01*
X701643D01*
X696645Y61674D02*
X701643Y65006D01*
X696645D02*
X701643Y61674D01*
Y66672D02*
X696645D01*
X701643Y70005D01*
X696645D01*
X697478Y71671D02*
X696645Y72504D01*
Y74170D01*
X697478Y75003D01*
X700810D01*
X701643Y74170D01*
Y72504D01*
X700810Y71671D01*
X697478D01*
X696773Y86614D02*
Y89946D01*
Y88280D01*
X701772D01*
X696773Y91612D02*
X701772Y94945D01*
X696773D02*
X701772Y91612D01*
Y96611D02*
X696773D01*
Y99110D01*
X697606Y99943D01*
X699272D01*
X700105Y99110D01*
Y96611D01*
X697606Y101609D02*
X696773Y102442D01*
Y104109D01*
X697606Y104942D01*
X700939D01*
X701772Y104109D01*
Y102442D01*
X700939Y101609D01*
X697606D01*
X701772Y293307D02*
X696773D01*
Y295806D01*
X697606Y296639D01*
X699272D01*
X700105Y295806D01*
Y293307D01*
Y294973D02*
X701772Y296639D01*
X696773Y298306D02*
X701772Y301638D01*
X696773D02*
X701772Y298306D01*
Y303304D02*
X696773D01*
X701772Y306636D01*
X696773D01*
X701772Y308302D02*
Y309968D01*
Y309135D01*
X696773D01*
X697606Y308302D01*
X701772Y322835D02*
X696773D01*
Y325334D01*
X697606Y326167D01*
X699272D01*
X700105Y325334D01*
Y322835D01*
Y324501D02*
X701772Y326167D01*
X696773Y327833D02*
X701772Y331165D01*
X696773D02*
X701772Y327833D01*
Y332831D02*
X696773D01*
Y335331D01*
X697606Y336164D01*
X699272D01*
X700105Y335331D01*
Y332831D01*
X701772Y337830D02*
Y339496D01*
Y338663D01*
X696773D01*
X697606Y337830D01*
X696773Y215551D02*
Y218883D01*
Y217217D01*
X701772D01*
X696773Y220550D02*
X701772Y223882D01*
X696773D02*
X701772Y220550D01*
Y225548D02*
X696773D01*
X701772Y228880D01*
X696773D01*
X701772Y230546D02*
Y232212D01*
Y231379D01*
X696773D01*
X697606Y230546D01*
X696773Y246063D02*
Y249395D01*
Y247729D01*
X701772D01*
X696773Y251061D02*
X701772Y254394D01*
X696773D02*
X701772Y251061D01*
Y256060D02*
X696773D01*
Y258559D01*
X697606Y259392D01*
X699272D01*
X700105Y258559D01*
Y256060D01*
X701772Y261058D02*
Y262724D01*
Y261891D01*
X696773D01*
X697606Y261058D01*
X387795Y351455D02*
Y348123D01*
X389461Y346457D01*
X391127Y348123D01*
Y351455D01*
X392794Y346457D02*
Y349789D01*
X394460Y351455D01*
X396126Y349789D01*
Y346457D01*
Y348956D01*
X392794D01*
X397792Y351455D02*
Y346457D01*
X400291D01*
X401124Y347290D01*
Y350622D01*
X400291Y351455D01*
X397792D01*
X406123D02*
X404457D01*
X405290D01*
Y347290D01*
X404457Y346457D01*
X403623D01*
X402790Y347290D01*
X407789Y350622D02*
X408622Y351455D01*
X410288D01*
X411121Y350622D01*
Y349789D01*
X410288Y348956D01*
X409455D01*
X410288D01*
X411121Y348123D01*
Y347290D01*
X410288Y346457D01*
X408622D01*
X407789Y347290D01*
X429134Y348956D02*
X432466D01*
X430800Y350622D02*
Y347290D01*
X434132Y346457D02*
X435798D01*
X434965D01*
Y351455D01*
X434132Y350622D01*
X438298Y346457D02*
Y347290D01*
X439131D01*
Y346457D01*
X438298D01*
X442463Y350622D02*
X443296Y351455D01*
X444962D01*
X445795Y350622D01*
Y347290D01*
X444962Y346457D01*
X443296D01*
X442463Y347290D01*
Y350622D01*
X447461Y351455D02*
Y348123D01*
X449127Y346457D01*
X450794Y348123D01*
Y351455D01*
X452460D02*
Y346457D01*
X454959D01*
X455792Y347290D01*
Y350622D01*
X454959Y351455D01*
X452460D01*
X457458D02*
Y346457D01*
X459957D01*
X460790Y347290D01*
Y350622D01*
X459957Y351455D01*
X457458D01*
X33601Y255118D02*
Y251786D01*
X35268Y253452D02*
X31935D01*
X31102Y250120D02*
Y248454D01*
Y249287D01*
X36101D01*
X35268Y250120D01*
X31102Y245954D02*
X31935D01*
Y245121D01*
X31102D01*
Y245954D01*
X35268Y241789D02*
X36101Y240956D01*
Y239290D01*
X35268Y238457D01*
X34435D01*
X33601Y239290D01*
X32768Y238457D01*
X31935D01*
X31102Y239290D01*
Y240956D01*
X31935Y241789D01*
X32768D01*
X33601Y240956D01*
X34435Y241789D01*
X35268D01*
X33601Y240956D02*
Y239290D01*
X36101Y236791D02*
X32768D01*
X31102Y235125D01*
X32768Y233458D01*
X36101D01*
Y231792D02*
X31102D01*
Y229293D01*
X31935Y228460D01*
X35268D01*
X36101Y229293D01*
Y231792D01*
Y226794D02*
X31102D01*
Y224295D01*
X31935Y223462D01*
X35268D01*
X36101Y224295D01*
Y226794D01*
X600787Y87008D02*
X595789D01*
Y89507D01*
X596622Y90340D01*
X598288D01*
X599121Y89507D01*
Y87008D01*
Y88674D02*
X600787Y90340D01*
X595789Y92006D02*
X600787Y95338D01*
X595789D02*
X600787Y92006D01*
Y97005D02*
X595789D01*
X600787Y100337D01*
X595789D01*
X596622Y102003D02*
X595789Y102836D01*
Y104502D01*
X596622Y105335D01*
X599954D01*
X600787Y104502D01*
Y102836D01*
X599954Y102003D01*
X596622D01*
X654502Y86300D02*
Y89632D01*
Y87966D01*
X659500D01*
X654502Y91298D02*
X659500Y94631D01*
X654502D02*
X659500Y91298D01*
Y96297D02*
X654502D01*
X659500Y99629D01*
X654502D01*
X655335Y101295D02*
X654502Y102128D01*
Y103794D01*
X655335Y104627D01*
X658667D01*
X659500Y103794D01*
Y102128D01*
X658667Y101295D01*
X655335D01*
X600787Y146457D02*
X595789D01*
Y148956D01*
X596622Y149789D01*
X598288D01*
X599121Y148956D01*
Y146457D01*
Y148123D02*
X600787Y149789D01*
X595789Y151455D02*
X600787Y154787D01*
X595789D02*
X600787Y151455D01*
Y156453D02*
X595789D01*
Y158953D01*
X596622Y159786D01*
X598288D01*
X599121Y158953D01*
Y156453D01*
X596622Y161452D02*
X595789Y162285D01*
Y163951D01*
X596622Y164784D01*
X599954D01*
X600787Y163951D01*
Y162285D01*
X599954Y161452D01*
X596622D01*
X654450Y147638D02*
Y150970D01*
Y149304D01*
X659449D01*
X654450Y152636D02*
X659449Y155968D01*
X654450D02*
X659449Y152636D01*
Y157635D02*
X654450D01*
Y160134D01*
X655283Y160967D01*
X656950D01*
X657783Y160134D01*
Y157635D01*
X655283Y162633D02*
X654450Y163466D01*
Y165132D01*
X655283Y165965D01*
X658616D01*
X659449Y165132D01*
Y163466D01*
X658616Y162633D01*
X655283D01*
X33601Y214567D02*
Y211235D01*
X35268Y212901D02*
X31935D01*
X35268Y209569D02*
X36101Y208735D01*
Y207069D01*
X35268Y206236D01*
X34435D01*
X33601Y207069D01*
Y207902D01*
Y207069D01*
X32768Y206236D01*
X31935D01*
X31102Y207069D01*
Y208735D01*
X31935Y209569D01*
X31102Y204570D02*
X31935D01*
Y203737D01*
X31102D01*
Y204570D01*
X35268Y200405D02*
X36101Y199572D01*
Y197906D01*
X35268Y197073D01*
X34435D01*
X33601Y197906D01*
Y198739D01*
Y197906D01*
X32768Y197073D01*
X31935D01*
X31102Y197906D01*
Y199572D01*
X31935Y200405D01*
X36101Y195406D02*
X32768D01*
X31102Y193740D01*
X32768Y192074D01*
X36101D01*
Y190408D02*
X31102D01*
Y187909D01*
X31935Y187076D01*
X35268D01*
X36101Y187909D01*
Y190408D01*
Y185410D02*
X31102D01*
Y182911D01*
X31935Y182077D01*
X35268D01*
X36101Y182911D01*
Y185410D01*
X478346Y256967D02*
Y253635D01*
X480013Y251969D01*
X481679Y253635D01*
Y256967D01*
X486677Y256134D02*
X485844Y256967D01*
X484178D01*
X483345Y256134D01*
Y252802D01*
X484178Y251969D01*
X485844D01*
X486677Y252802D01*
X491676Y256134D02*
X490842Y256967D01*
X489176D01*
X488343Y256134D01*
Y252802D01*
X489176Y251969D01*
X490842D01*
X491676Y252802D01*
X493342Y256967D02*
Y251969D01*
X495841D01*
X496674Y252802D01*
Y253635D01*
X495841Y254468D01*
X493342D01*
X495841D01*
X496674Y255301D01*
Y256134D01*
X495841Y256967D01*
X493342D01*
X498340Y251969D02*
Y255301D01*
X500006Y256967D01*
X501672Y255301D01*
Y251969D01*
Y254468D01*
X498340D01*
X503338Y256967D02*
X506671D01*
X505005D01*
Y251969D01*
X508337Y256967D02*
X511669D01*
X510003D01*
Y251969D01*
X33601Y129528D02*
Y126195D01*
X35268Y127861D02*
X31935D01*
X36101Y121197D02*
Y124529D01*
X33601D01*
X34435Y122863D01*
Y122030D01*
X33601Y121197D01*
X31935D01*
X31102Y122030D01*
Y123696D01*
X31935Y124529D01*
X36101Y119531D02*
X32768D01*
X31102Y117865D01*
X32768Y116199D01*
X36101D01*
Y114532D02*
X31102D01*
Y112033D01*
X31935Y111200D01*
X35268D01*
X36101Y112033D01*
Y114532D01*
X35268Y106202D02*
X36101Y107035D01*
Y108701D01*
X35268Y109534D01*
X31935D01*
X31102Y108701D01*
Y107035D01*
X31935Y106202D01*
X421260Y48305D02*
Y44973D01*
X422926Y43307D01*
X424592Y44973D01*
Y48305D01*
X426258Y43307D02*
Y46639D01*
X427924Y48305D01*
X429591Y46639D01*
Y43307D01*
Y45806D01*
X426258D01*
X431257Y48305D02*
Y43307D01*
X433756D01*
X434589Y44140D01*
Y47472D01*
X433756Y48305D01*
X431257D01*
X439587D02*
X437921D01*
X438754D01*
Y44140D01*
X437921Y43307D01*
X437088D01*
X436255Y44140D01*
X441253Y43307D02*
X442919D01*
X442086D01*
Y48305D01*
X441253Y47472D01*
X271654Y351455D02*
Y348123D01*
X273320Y346457D01*
X274986Y348123D01*
Y351455D01*
X276652Y346457D02*
Y349789D01*
X278318Y351455D01*
X279984Y349789D01*
Y346457D01*
Y348956D01*
X276652D01*
X281650Y351455D02*
Y346457D01*
X284150D01*
X284983Y347290D01*
Y350622D01*
X284150Y351455D01*
X281650D01*
X289981D02*
X288315D01*
X289148D01*
Y347290D01*
X288315Y346457D01*
X287482D01*
X286649Y347290D01*
X294979Y346457D02*
X291647D01*
X294979Y349789D01*
Y350622D01*
X294146Y351455D01*
X292480D01*
X291647Y350622D01*
X309055Y61024D02*
Y66022D01*
X310721Y64356D01*
X312387Y66022D01*
Y61024D01*
X317386Y65189D02*
X316553Y66022D01*
X314886D01*
X314054Y65189D01*
Y61857D01*
X314886Y61024D01*
X316553D01*
X317386Y61857D01*
X319052Y61024D02*
X320718D01*
X319885D01*
Y66022D01*
X319052Y65189D01*
X309055Y332677D02*
Y337676D01*
X310721Y336009D01*
X312387Y337676D01*
Y332677D01*
X317386Y336842D02*
X316553Y337676D01*
X314886D01*
X314053Y336842D01*
Y333510D01*
X314886Y332677D01*
X316553D01*
X317386Y333510D01*
X322384Y332677D02*
X319052D01*
X322384Y336009D01*
Y336842D01*
X321551Y337676D01*
X319885D01*
X319052Y336842D01*
X649606Y58148D02*
Y53150D01*
X652106D01*
X652939Y53983D01*
Y57315D01*
X652106Y58148D01*
X649606D01*
X657937Y57315D02*
X657104Y58148D01*
X655438D01*
X654605Y57315D01*
Y53983D01*
X655438Y53150D01*
X657104D01*
X657937Y53983D01*
Y55649D01*
X656271D01*
X659603Y53150D02*
Y58148D01*
X662935Y53150D01*
Y58148D01*
X664601D02*
Y53150D01*
X667101D01*
X667934Y53983D01*
Y57315D01*
X667101Y58148D01*
X664601D01*
X36101Y166142D02*
X31102D01*
Y163643D01*
X31935Y162810D01*
X35268D01*
X36101Y163643D01*
Y166142D01*
X35268Y157811D02*
X36101Y158644D01*
Y160310D01*
X35268Y161143D01*
X31935D01*
X31102Y160310D01*
Y158644D01*
X31935Y157811D01*
X33601D01*
Y159477D01*
X31102Y156145D02*
X36101D01*
X31102Y152813D01*
X36101D01*
Y151147D02*
X31102D01*
Y148647D01*
X31935Y147814D01*
X35268D01*
X36101Y148647D01*
Y151147D01*
X647638Y197912D02*
Y192913D01*
X650137D01*
X650970Y193746D01*
Y197079D01*
X650137Y197912D01*
X647638D01*
X655968Y197079D02*
X655135Y197912D01*
X653469D01*
X652636Y197079D01*
Y193746D01*
X653469Y192913D01*
X655135D01*
X655968Y193746D01*
Y195413D01*
X654302D01*
X657635Y192913D02*
Y197912D01*
X660967Y192913D01*
Y197912D01*
X662633D02*
Y192913D01*
X665132D01*
X665965Y193746D01*
Y197079D01*
X665132Y197912D01*
X662633D01*
X48228Y346534D02*
Y341535D01*
X50727D01*
X51561Y342369D01*
Y345701D01*
X50727Y346534D01*
X48228D01*
X56559Y345701D02*
X55726Y346534D01*
X54060D01*
X53227Y345701D01*
Y342369D01*
X54060Y341535D01*
X55726D01*
X56559Y342369D01*
Y344035D01*
X54893D01*
X58225Y341535D02*
Y346534D01*
X61557Y341535D01*
Y346534D01*
X63223D02*
Y341535D01*
X65723D01*
X66556Y342369D01*
Y345701D01*
X65723Y346534D01*
X63223D01*
X53598Y327100D02*
X48600Y323768D01*
X53598D02*
X48600Y327100D01*
X53598Y322102D02*
Y320436D01*
Y321269D01*
X48600D01*
Y322102D01*
Y320436D01*
X53598Y317936D02*
X48600D01*
Y314604D01*
X53598Y312938D02*
Y311272D01*
Y312105D01*
X48600D01*
Y312938D01*
Y311272D01*
Y308773D02*
X53598D01*
X48600Y305440D01*
X53598D01*
Y303774D02*
X48600Y300442D01*
X53598D02*
X48600Y303774D01*
X53598Y290445D02*
Y292111D01*
Y291278D01*
X49433D01*
X48600Y292111D01*
Y292944D01*
X49433Y293777D01*
X53598Y288779D02*
Y285447D01*
Y287113D01*
X48600D01*
Y283781D02*
X51932D01*
X53598Y282115D01*
X51932Y280448D01*
X48600D01*
X51099D01*
Y283781D01*
X52765Y275450D02*
X53598Y276283D01*
Y277949D01*
X52765Y278782D01*
X49433D01*
X48600Y277949D01*
Y276283D01*
X49433Y275450D01*
X51099D01*
Y277116D01*
X2737Y280589D02*
Y277257D01*
X4403Y275590D01*
X6069Y277257D01*
Y280589D01*
X7735Y275590D02*
Y280589D01*
X10235D01*
X11068Y279756D01*
Y278090D01*
X10235Y277257D01*
X7735D01*
X9402D02*
X11068Y275590D01*
X16066Y280589D02*
X12734D01*
Y275590D01*
X16066D01*
X12734Y278090D02*
X14400D01*
X21064Y280589D02*
X17732D01*
Y278090D01*
X19398D01*
X17732D01*
Y275590D01*
X6674Y304211D02*
X10006D01*
X8340D01*
Y299213D01*
X11672Y304211D02*
Y299213D01*
X14172D01*
X15005Y300046D01*
Y303378D01*
X14172Y304211D01*
X11672D01*
X19170D02*
X17504D01*
X16671Y303378D01*
Y300046D01*
X17504Y299213D01*
X19170D01*
X20003Y300046D01*
Y303378D01*
X19170Y304211D01*
X8642Y312085D02*
X11975D01*
X10309D01*
Y307087D01*
X13641Y312085D02*
Y307087D01*
X16140D01*
X16973Y307920D01*
Y311252D01*
X16140Y312085D01*
X13641D01*
X18639D02*
X20305D01*
X19472D01*
Y307087D01*
X18639D01*
X20305D01*
X6674Y288463D02*
X10006D01*
X8340D01*
Y283465D01*
X11672D02*
Y288463D01*
X13339Y286797D01*
X15005Y288463D01*
Y283465D01*
X20003Y287630D02*
X19170Y288463D01*
X17504D01*
X16671Y287630D01*
Y286797D01*
X17504Y285964D01*
X19170D01*
X20003Y285131D01*
Y284298D01*
X19170Y283465D01*
X17504D01*
X16671Y284298D01*
X6674Y296337D02*
X10006D01*
X8340D01*
Y291339D01*
X15005Y295504D02*
X14172Y296337D01*
X12506D01*
X11672Y295504D01*
Y292172D01*
X12506Y291339D01*
X14172D01*
X15005Y292172D01*
X16671Y296337D02*
Y291339D01*
Y293005D01*
X20003Y296337D01*
X17504Y293838D01*
X20003Y291339D01*
X549213Y96457D02*
X544214D01*
X545880Y98123D01*
X544214Y99789D01*
X549213D01*
X545047Y104787D02*
X544214Y103954D01*
Y102288D01*
X545047Y101455D01*
X548380D01*
X549213Y102288D01*
Y103954D01*
X548380Y104787D01*
X546713D01*
Y103121D01*
X544214Y106453D02*
Y109786D01*
Y108120D01*
X549213D01*
Y111452D02*
X544214D01*
Y113951D01*
X545047Y114784D01*
X546713D01*
X547546Y113951D01*
Y111452D01*
Y113118D02*
X549213Y114784D01*
X544214Y119782D02*
Y116450D01*
X549213D01*
Y119782D01*
X546713Y116450D02*
Y118116D01*
X544214Y124781D02*
Y121449D01*
X546713D01*
Y123115D01*
Y121449D01*
X549213D01*
X545047Y129779D02*
X544214Y128946D01*
Y127280D01*
X545047Y126447D01*
X548380D01*
X549213Y127280D01*
Y128946D01*
X548380Y129779D01*
X544214Y131445D02*
X549213D01*
Y134778D01*
X544214Y136444D02*
X549213D01*
X547546D01*
X544214Y139776D01*
X546713Y137277D01*
X549213Y139776D01*
X550046Y141442D02*
Y144774D01*
X549213Y146440D02*
Y148107D01*
Y147274D01*
X544214D01*
X545047Y146440D01*
X549213Y150606D02*
Y152272D01*
Y151439D01*
X544214D01*
X545047Y150606D01*
X544214Y158103D02*
X545047Y156437D01*
X546713Y154771D01*
X548380D01*
X549213Y155604D01*
Y157270D01*
X548380Y158103D01*
X547546D01*
X546713Y157270D01*
Y154771D01*
X663158Y103726D02*
X662324Y102893D01*
Y101227D01*
X663158Y100394D01*
X666490D01*
X667323Y101227D01*
Y102893D01*
X666490Y103726D01*
X664824D01*
Y102060D01*
X662324Y105392D02*
Y108724D01*
Y107058D01*
X667323D01*
X662324Y110390D02*
X667323Y113723D01*
X662324D02*
X667323Y110390D01*
X668156Y115389D02*
Y118721D01*
X667323Y120387D02*
Y122053D01*
Y121220D01*
X662324D01*
X663158Y120387D01*
X667323Y124553D02*
Y126219D01*
Y125386D01*
X662324D01*
X663158Y124553D01*
X662324Y132050D02*
X663158Y130384D01*
X664824Y128718D01*
X666490D01*
X667323Y129551D01*
Y131217D01*
X666490Y132050D01*
X665657D01*
X664824Y131217D01*
Y128718D01*
X663158Y142047D02*
X662324Y141214D01*
Y139548D01*
X663158Y138715D01*
X666490D01*
X667323Y139548D01*
Y141214D01*
X666490Y142047D01*
X662324Y143713D02*
X667323D01*
X664824D01*
Y147045D01*
X662324D01*
X667323D01*
X663158Y148711D02*
X662324Y149544D01*
Y151211D01*
X663158Y152044D01*
X666490D01*
X667323Y151211D01*
Y149544D01*
X666490Y148711D01*
X663158D01*
X672016Y256285D02*
X671183Y255452D01*
Y253786D01*
X672016Y252953D01*
X675348D01*
X676181Y253786D01*
Y255452D01*
X675348Y256285D01*
X673682D01*
Y254619D01*
X671183Y257951D02*
Y261283D01*
Y259617D01*
X676181D01*
X671183Y262949D02*
X676181Y266282D01*
X671183D02*
X676181Y262949D01*
X677014Y267948D02*
Y271280D01*
X676181Y272946D02*
Y274612D01*
Y273779D01*
X671183D01*
X672016Y272946D01*
X676181Y277112D02*
Y278778D01*
Y277945D01*
X671183D01*
X672016Y277112D01*
X671183Y284609D02*
Y281277D01*
X673682D01*
X672849Y282943D01*
Y283776D01*
X673682Y284609D01*
X675348D01*
X676181Y283776D01*
Y282110D01*
X675348Y281277D01*
X672016Y294606D02*
X671183Y293773D01*
Y292107D01*
X672016Y291274D01*
X675348D01*
X676181Y292107D01*
Y293773D01*
X675348Y294606D01*
X671183Y296272D02*
X676181D01*
X673682D01*
Y299604D01*
X671183D01*
X676181D01*
Y301270D02*
Y302937D01*
Y302103D01*
X671183D01*
X672016Y301270D01*
Y97821D02*
X671183Y96987D01*
Y95321D01*
X672016Y94488D01*
X675348D01*
X676181Y95321D01*
Y96987D01*
X675348Y97821D01*
X673682D01*
Y96154D01*
X671183Y99487D02*
Y102819D01*
Y101153D01*
X676181D01*
X671183Y104485D02*
X676181Y107817D01*
X671183D02*
X676181Y104485D01*
X677014Y109483D02*
Y112816D01*
X676181Y114482D02*
Y116148D01*
Y115315D01*
X671183D01*
X672016Y114482D01*
X676181Y118647D02*
Y120313D01*
Y119480D01*
X671183D01*
X672016Y118647D01*
X671183Y126145D02*
Y122812D01*
X673682D01*
X672849Y124478D01*
Y125312D01*
X673682Y126145D01*
X675348D01*
X676181Y125312D01*
Y123645D01*
X675348Y122812D01*
X672016Y136141D02*
X671183Y135308D01*
Y133642D01*
X672016Y132809D01*
X675348D01*
X676181Y133642D01*
Y135308D01*
X675348Y136141D01*
X671183Y137808D02*
X676181D01*
X673682D01*
Y141140D01*
X671183D01*
X676181D01*
X672016Y142806D02*
X671183Y143639D01*
Y145305D01*
X672016Y146138D01*
X675348D01*
X676181Y145305D01*
Y143639D01*
X675348Y142806D01*
X672016D01*
X537173Y87978D02*
X536340Y87145D01*
Y85479D01*
X537173Y84646D01*
X540506D01*
X541339Y85479D01*
Y87145D01*
X540506Y87978D01*
X536340Y89644D02*
X541339D01*
Y92976D01*
X536340Y94642D02*
X541339D01*
X539673D01*
X536340Y97975D01*
X538839Y95476D01*
X541339Y97975D01*
X537173Y99641D02*
X536340Y100474D01*
Y102140D01*
X537173Y102973D01*
X540506D01*
X541339Y102140D01*
Y100474D01*
X540506Y99641D01*
X537173D01*
X541339Y104639D02*
X536340D01*
X541339Y107972D01*
X536340D01*
X537173Y149002D02*
X536340Y148169D01*
Y146502D01*
X537173Y145669D01*
X540506D01*
X541339Y146502D01*
Y148169D01*
X540506Y149002D01*
X536340Y150668D02*
X541339D01*
Y154000D01*
X536340Y155666D02*
X541339D01*
X539673D01*
X536340Y158998D01*
X538839Y156499D01*
X541339Y158998D01*
X537173Y160664D02*
X536340Y161497D01*
Y163164D01*
X537173Y163997D01*
X540506D01*
X541339Y163164D01*
Y161497D01*
X540506Y160664D01*
X537173D01*
X541339Y165663D02*
X536340D01*
Y168162D01*
X537173Y168995D01*
X538839D01*
X539673Y168162D01*
Y165663D01*
X612584Y225622D02*
X611751Y226455D01*
X610085D01*
X609252Y225622D01*
Y222290D01*
X610085Y221457D01*
X611751D01*
X612584Y222290D01*
Y223956D01*
X610918D01*
X614250Y226455D02*
X617583D01*
X615916D01*
Y221457D01*
X619249Y226455D02*
X622581Y221457D01*
Y226455D02*
X619249Y221457D01*
X624247Y220624D02*
X627579D01*
X629246Y221457D02*
X630912D01*
X630079D01*
Y226455D01*
X629246Y225622D01*
X633411Y221457D02*
X635077D01*
X634244D01*
Y226455D01*
X633411Y225622D01*
X640908Y226455D02*
X637576D01*
Y223956D01*
X639242Y224789D01*
X640075D01*
X640908Y223956D01*
Y222290D01*
X640075Y221457D01*
X638409D01*
X637576Y222290D01*
X650905Y225622D02*
X650072Y226455D01*
X648406D01*
X647573Y225622D01*
Y222290D01*
X648406Y221457D01*
X650072D01*
X650905Y222290D01*
X652571Y226455D02*
Y221457D01*
Y223956D01*
X655903D01*
Y226455D01*
Y221457D01*
X660902D02*
X657570D01*
X660902Y224789D01*
Y225622D01*
X660069Y226455D01*
X658403D01*
X657570Y225622D01*
X537781D02*
X536948Y226455D01*
X535282D01*
X534449Y225622D01*
Y222290D01*
X535282Y221457D01*
X536948D01*
X537781Y222290D01*
Y223956D01*
X536115D01*
X539447Y226455D02*
X542779D01*
X541113D01*
Y221457D01*
X544446Y226455D02*
X547778Y221457D01*
Y226455D02*
X544446Y221457D01*
X549444Y220624D02*
X552776D01*
X554442Y221457D02*
X556109D01*
X555275D01*
Y226455D01*
X554442Y225622D01*
X558608Y221457D02*
X560274D01*
X559441D01*
Y226455D01*
X558608Y225622D01*
X566105Y226455D02*
X562773D01*
Y223956D01*
X564439Y224789D01*
X565272D01*
X566105Y223956D01*
Y222290D01*
X565272Y221457D01*
X563606D01*
X562773Y222290D01*
X576102Y225622D02*
X575269Y226455D01*
X573603D01*
X572770Y225622D01*
Y222290D01*
X573603Y221457D01*
X575269D01*
X576102Y222290D01*
X577768Y226455D02*
Y221457D01*
Y223956D01*
X581100D01*
Y226455D01*
Y221457D01*
X582766Y225622D02*
X583600Y226455D01*
X585266D01*
X586099Y225622D01*
Y224789D01*
X585266Y223956D01*
X584433D01*
X585266D01*
X586099Y223123D01*
Y222290D01*
X585266Y221457D01*
X583600D01*
X582766Y222290D01*
X16308Y204081D02*
X15951Y205152D01*
X15237Y205866D01*
X14523Y206223D01*
X13095Y206580D01*
X12024D01*
X10595Y206223D01*
X9881Y205866D01*
X9167Y205152D01*
X8810Y204081D01*
Y203366D01*
X9167Y202295D01*
X9881Y201581D01*
X10595Y201224D01*
X12024Y200867D01*
X13095D01*
X14523Y201224D01*
X15237Y201581D01*
X15951Y202295D01*
X16308Y203366D01*
Y204081D01*
X15951Y204795D01*
X15237Y205509D01*
X14523Y205866D01*
X13095Y206223D01*
X12024D01*
X10595Y205866D01*
X9881Y205509D01*
X9167Y204795D01*
X8810Y204081D01*
Y203366D02*
X9167Y202652D01*
X9881Y201938D01*
X10595Y201581D01*
X12024Y201224D01*
X13095D01*
X14523Y201581D01*
X15237Y201938D01*
X15951Y202652D01*
X16308Y203366D01*
X13809Y198760D02*
X6311D01*
X13809Y198403D02*
X6311D01*
X12738D02*
X13452Y197689D01*
X13809Y196975D01*
Y196261D01*
X13452Y195190D01*
X12738Y194475D01*
X11666Y194118D01*
X10952D01*
X9881Y194475D01*
X9167Y195190D01*
X8810Y196261D01*
Y196975D01*
X9167Y197689D01*
X9881Y198403D01*
X13809Y196261D02*
X13452Y195547D01*
X12738Y194833D01*
X11666Y194475D01*
X10952D01*
X9881Y194833D01*
X9167Y195547D01*
X8810Y196261D01*
X13809Y199831D02*
Y198403D01*
X6311Y199831D02*
Y197332D01*
X13095Y192369D02*
X12738D01*
Y192726D01*
X13095D01*
X13452Y192369D01*
X13809Y191655D01*
Y190226D01*
X13452Y189512D01*
X13095Y189155D01*
X12381Y188798D01*
X9881D01*
X9167Y188441D01*
X8810Y188084D01*
X13095Y189155D02*
X9881D01*
X9167Y188798D01*
X8810Y188084D01*
Y187727D01*
X12381Y189155D02*
X12024Y189512D01*
X11666Y191655D01*
X11310Y192726D01*
X10595Y193083D01*
X9881D01*
X9167Y192726D01*
X8810Y191655D01*
Y190583D01*
X9167Y189869D01*
X9881Y189155D01*
X11666Y191655D02*
X11310Y192369D01*
X10595Y192726D01*
X9881D01*
X9167Y192369D01*
X8810Y191655D01*
X16308Y185584D02*
X8810D01*
X16308Y185227D02*
X8810D01*
X16308Y186656D02*
Y185227D01*
X8810Y186656D02*
Y184156D01*
X16308Y174980D02*
X8810D01*
X16308Y174623D02*
X8810D01*
X16308Y169981D02*
X11666Y174623D01*
X13095Y172837D02*
X8810Y169981D01*
X13095Y173194D02*
X8810Y170338D01*
X16308Y176051D02*
Y173551D01*
Y171409D02*
Y169267D01*
X8810Y176051D02*
Y173551D01*
Y171409D02*
Y169267D01*
X11666Y167981D02*
Y163696D01*
X12381D01*
X13095Y164053D01*
X13452Y164410D01*
X13809Y165125D01*
Y166196D01*
X13452Y167267D01*
X12738Y167981D01*
X11666Y168338D01*
X10952D01*
X9881Y167981D01*
X9167Y167267D01*
X8810Y166196D01*
Y165482D01*
X9167Y164410D01*
X9881Y163696D01*
X11666Y164053D02*
X12738D01*
X13452Y164410D01*
X13809Y166196D02*
X13452Y166910D01*
X12738Y167624D01*
X11666Y167981D01*
X10952D01*
X9881Y167624D01*
X9167Y166910D01*
X8810Y166196D01*
X16308Y161483D02*
X8810D01*
X16308Y161126D02*
X8810D01*
X16308Y162554D02*
Y161126D01*
X8810Y162554D02*
Y160054D01*
X16308Y157626D02*
X8810D01*
X16308Y157269D02*
X8810D01*
X16308Y158697D02*
Y157269D01*
X8810Y158697D02*
Y156198D01*
X13809Y154127D02*
X8810Y151985D01*
X13809Y153770D02*
X9524Y151985D01*
X13809Y149842D02*
X8810Y151985D01*
X7382Y152699D01*
X6668Y153413D01*
X6311Y154127D01*
Y154484D01*
X6668Y154841D01*
X7025Y154484D01*
X6668Y154127D01*
X13809Y154841D02*
Y152699D01*
Y151270D02*
Y149128D01*
D32*
X7835Y212111D02*
G03*
X7835Y212111I-600J0D01*
G01*
Y218674D02*
G03*
X7835Y218674I-600J0D01*
G01*
X18485Y225236D02*
G03*
X18485Y225236I-600J0D01*
G01*
Y231799D02*
G03*
X18485Y231799I-600J0D01*
G01*
D63*
X5810Y215392D02*
G03*
X5810Y215392I-750J0D01*
G01*
X20810Y228518D02*
G03*
X20810Y228518I-750J0D01*
G01*
D66*
X10423Y210274D02*
G03*
X10423Y210274I-412J0D01*
G01*
Y220511D02*
G03*
X10423Y220511I-412J0D01*
G01*
X15522Y223399D02*
G03*
X15522Y223399I-412J0D01*
G01*
Y233636D02*
G03*
X15522Y233636I-412J0D01*
G01*
D67*
X12898Y208830D02*
G03*
X12898Y208830I-338J0D01*
G01*
Y221955D02*
G03*
X12898Y221955I-338J0D01*
G01*
Y235080D02*
G03*
X12898Y235080I-338J0D01*
G01*
D68*
X511742Y210390D02*
G03*
X511742Y210390I-394J0D01*
G01*
D69*
X515866Y328740D02*
Y332677D01*
X511693Y328740D02*
Y332677D01*
X493976Y328740D02*
Y332677D01*
X498150Y328740D02*
Y332677D01*
X482165Y328740D02*
Y332677D01*
X486339Y328740D02*
Y332677D01*
X505709Y295472D02*
Y317717D01*
X486417Y295472D02*
Y310827D01*
X476823Y309622D02*
Y315724D01*
X482177Y309622D02*
Y315724D01*
X505787Y328740D02*
Y332677D01*
X509961Y328740D02*
Y332677D01*
X504055Y328740D02*
Y332677D01*
X499882Y328740D02*
Y332677D01*
X492244Y328740D02*
Y332677D01*
X488071Y328740D02*
Y332677D01*
X475923Y224569D02*
Y230671D01*
X481277Y224569D02*
Y230671D01*
X307513Y123132D02*
Y127068D01*
X311687Y123132D02*
Y127068D01*
X328313Y123132D02*
Y127068D01*
X332487Y123132D02*
Y127068D01*
X301287Y123132D02*
Y127068D01*
X297113Y123132D02*
Y127068D01*
X306487Y123132D02*
Y127068D01*
X302313Y123132D02*
Y127068D01*
X316887Y123132D02*
Y127068D01*
X312713Y123132D02*
Y127068D01*
X322087Y123132D02*
Y127068D01*
X317913Y123132D02*
Y127068D01*
X327287Y123132D02*
Y127068D01*
X323113Y123132D02*
Y127068D01*
X228613Y123132D02*
Y127068D01*
X232787Y123132D02*
Y127068D01*
X249413Y123132D02*
Y127068D01*
X253587Y123132D02*
Y127068D01*
X218213Y123132D02*
Y127068D01*
X222387Y123132D02*
Y127068D01*
X223413Y123132D02*
Y127068D01*
X227587Y123132D02*
Y127068D01*
X233813Y123132D02*
Y127068D01*
X237987Y123132D02*
Y127068D01*
X239013Y123132D02*
Y127068D01*
X243187Y123132D02*
Y127068D01*
X244213Y123132D02*
Y127068D01*
X248387Y123132D02*
Y127068D01*
X29685Y53150D02*
X39370D01*
Y66535D01*
Y75197D02*
Y88583D01*
X-17717Y53150D02*
X19016D01*
X-17717Y88583D02*
X39370D01*
X-17717Y53150D02*
Y88583D01*
X679594Y158890D02*
X683531D01*
X679594Y155110D02*
X683531D01*
X679594Y163190D02*
X683531D01*
X679594Y159410D02*
X683531D01*
X679531Y80090D02*
X683468D01*
X679531Y76310D02*
X683468D01*
X679531Y84390D02*
X683468D01*
X679531Y80610D02*
X683468D01*
X679528Y316063D02*
X683465D01*
X679528Y312283D02*
X683465D01*
X679528Y320394D02*
X683465D01*
X679528Y316614D02*
X683465D01*
X679594Y237690D02*
X683531D01*
X679594Y233910D02*
X683531D01*
X679594Y241990D02*
X683531D01*
X679594Y238210D02*
X683531D01*
X566929Y124590D02*
X570866D01*
X566929Y120810D02*
X570866D01*
X566929Y128890D02*
X570866D01*
X566929Y125110D02*
X570866D01*
X626631Y124590D02*
X630569D01*
X626631Y120810D02*
X630569D01*
X626631Y128890D02*
X630569D01*
X626631Y125110D02*
X630569D01*
X514090Y293131D02*
Y297069D01*
X510310Y293131D02*
Y297069D01*
X55852Y69824D02*
X55852Y60376D01*
X47348Y69824D02*
X47348Y60376D01*
X622690Y37231D02*
Y41168D01*
X618910Y37231D02*
Y41168D01*
X626990Y37231D02*
Y41168D01*
X623210Y37231D02*
Y41168D01*
X637690Y37231D02*
Y41168D01*
X633910Y37231D02*
Y41168D01*
X641990Y37231D02*
Y41168D01*
X638210Y37231D02*
Y41168D01*
X543890Y37231D02*
Y41168D01*
X540110Y37231D02*
Y41168D01*
X548190Y37231D02*
Y41168D01*
X544410Y37231D02*
Y41168D01*
X558590Y37169D02*
Y41106D01*
X554810Y37169D02*
Y41106D01*
X563590Y37169D02*
Y41106D01*
X559810Y37169D02*
Y41106D01*
X465190Y37231D02*
Y41168D01*
X461410Y37231D02*
Y41168D01*
X469490Y37231D02*
Y41168D01*
X465710Y37231D02*
Y41168D01*
X480290Y37231D02*
Y41168D01*
X476510Y37231D02*
Y41168D01*
X484590Y37231D02*
Y41168D01*
X480810Y37231D02*
Y41168D01*
X485090Y208231D02*
Y212169D01*
X481310Y208231D02*
Y212169D01*
D70*
X503937Y375984D02*
Y391732D01*
X425197Y375984D02*
Y391732D01*
X503937D01*
X425197Y375984D02*
X503937D01*
X70866Y31496D02*
X228346D01*
X70866Y23622D02*
Y31496D01*
Y23622D02*
X228346D01*
Y31496D01*
X405512Y23622D02*
Y31496D01*
X248031Y23622D02*
X405512D01*
X248031D02*
Y31496D01*
X405512D01*
X70866Y372047D02*
X228346D01*
X70866Y364173D02*
Y372047D01*
Y364173D02*
X228346D01*
Y372047D01*
X405512Y364173D02*
Y372047D01*
X248031Y364173D02*
X405512D01*
X248031D02*
Y372047D01*
X405512D01*
X228346Y3937D02*
Y19685D01*
X70866Y3937D02*
Y19685D01*
X228346D01*
X70866Y3937D02*
X228346D01*
X248031D02*
X405512D01*
X248031Y19685D02*
X405512D01*
X248031Y3937D02*
Y19685D01*
X405512Y3937D02*
Y19685D01*
X228346Y375984D02*
Y391732D01*
X70866Y375984D02*
Y391732D01*
X228346D01*
X70866Y375984D02*
X228346D01*
X248031Y375984D02*
X405512D01*
X248031Y391732D02*
X405512D01*
X248031Y375984D02*
Y391732D01*
X405512Y375984D02*
Y391732D01*
X25591Y328740D02*
X41339D01*
X25591Y273622D02*
X41339D01*
X25591D02*
Y328740D01*
X41339Y273622D02*
Y328740D01*
D71*
X664370Y74961D02*
Y97441D01*
X555118Y74961D02*
X664370D01*
Y155512D02*
Y177323D01*
X555118D02*
X664370D01*
X555118Y74961D02*
Y177323D01*
X674213Y53150D02*
X704724D01*
Y187008D01*
X674213D02*
X704724D01*
X674213Y344488D02*
X704724D01*
Y210630D02*
Y344488D01*
X674213Y210630D02*
X704724D01*
X674213D02*
Y250000D01*
Y305118D02*
Y344488D01*
Y53150D02*
Y91535D01*
Y149606D02*
Y187008D01*
X547244Y161417D02*
Y177165D01*
X496063D02*
X547244D01*
X496063Y74803D02*
Y177165D01*
Y74803D02*
X547244D01*
Y92520D01*
D72*
X495994Y236375D02*
X502293D01*
X495994Y208816D02*
X502293D01*
X507480Y386614D02*
X505512D01*
X507480Y388582D01*
Y389074D01*
X506988Y389566D01*
X506004D01*
X505512Y389074D01*
X508464D02*
X508956Y389566D01*
X509939D01*
X510431Y389074D01*
Y387106D01*
X509939Y386614D01*
X508956D01*
X508464Y387106D01*
Y389074D01*
X505512Y378740D02*
X506496D01*
X506004D01*
Y381692D01*
X505512Y381200D01*
X507972Y379232D02*
X508464Y378740D01*
X509448D01*
X509939Y379232D01*
Y381200D01*
X509448Y381692D01*
X508464D01*
X507972Y381200D01*
Y380708D01*
X508464Y380216D01*
X509939D01*
X231397Y14567D02*
Y17519D01*
X229921Y16043D01*
X231889D01*
X232873Y17027D02*
X233365Y17519D01*
X234349D01*
X234841Y17027D01*
Y15059D01*
X234349Y14567D01*
X233365D01*
X232873Y15059D01*
Y17027D01*
X229921Y9153D02*
X230413Y9645D01*
X231397D01*
X231889Y9153D01*
Y8661D01*
X231397Y8169D01*
X230905D01*
X231397D01*
X231889Y7677D01*
Y7185D01*
X231397Y6693D01*
X230413D01*
X229921Y7185D01*
X232873D02*
X233365Y6693D01*
X234349D01*
X234841Y7185D01*
Y9153D01*
X234349Y9645D01*
X233365D01*
X232873Y9153D01*
Y8661D01*
X233365Y8169D01*
X234841D01*
X407087Y9153D02*
X407579Y9645D01*
X408563D01*
X409055Y9153D01*
Y8661D01*
X408563Y8169D01*
X408071D01*
X408563D01*
X409055Y7677D01*
Y7185D01*
X408563Y6693D01*
X407579D01*
X407087Y7185D01*
X410038D02*
X410530Y6693D01*
X411514D01*
X412006Y7185D01*
Y9153D01*
X411514Y9645D01*
X410530D01*
X410038Y9153D01*
Y8661D01*
X410530Y8169D01*
X412006D01*
X408563Y14567D02*
Y17519D01*
X407087Y16043D01*
X409055D01*
X410038Y17027D02*
X410530Y17519D01*
X411514D01*
X412006Y17027D01*
Y15059D01*
X411514Y14567D01*
X410530D01*
X410038Y15059D01*
Y17027D01*
X231397Y386614D02*
Y389566D01*
X229921Y388090D01*
X231889D01*
X232873Y389074D02*
X233365Y389566D01*
X234349D01*
X234841Y389074D01*
Y387106D01*
X234349Y386614D01*
X233365D01*
X232873Y387106D01*
Y389074D01*
X229921Y381200D02*
X230413Y381692D01*
X231397D01*
X231889Y381200D01*
Y380708D01*
X231397Y380216D01*
X230905D01*
X231397D01*
X231889Y379724D01*
Y379232D01*
X231397Y378740D01*
X230413D01*
X229921Y379232D01*
X232873D02*
X233365Y378740D01*
X234349D01*
X234841Y379232D01*
Y381200D01*
X234349Y381692D01*
X233365D01*
X232873Y381200D01*
Y380708D01*
X233365Y380216D01*
X234841D01*
X407087Y381200D02*
X407579Y381692D01*
X408563D01*
X409055Y381200D01*
Y380708D01*
X408563Y380216D01*
X408071D01*
X408563D01*
X409055Y379724D01*
Y379232D01*
X408563Y378740D01*
X407579D01*
X407087Y379232D01*
X410038D02*
X410530Y378740D01*
X411514D01*
X412006Y379232D01*
Y381200D01*
X411514Y381692D01*
X410530D01*
X410038Y381200D01*
Y380708D01*
X410530Y380216D01*
X412006D01*
X408563Y386614D02*
Y389566D01*
X407087Y388090D01*
X409055D01*
X410038Y389074D02*
X410530Y389566D01*
X411514D01*
X412006Y389074D01*
Y387106D01*
X411514Y386614D01*
X410530D01*
X410038Y387106D01*
Y389074D01*
X30709Y330945D02*
Y331929D01*
Y331437D01*
X27757D01*
X28249Y330945D01*
X30709Y334881D02*
X27757D01*
X29233Y333405D01*
Y335373D01*
X38583Y330551D02*
Y331535D01*
Y331043D01*
X35631D01*
X36123Y330551D01*
Y333011D02*
X35631Y333503D01*
Y334487D01*
X36123Y334979D01*
X36615D01*
X37107Y334487D01*
Y333995D01*
Y334487D01*
X37599Y334979D01*
X38091D01*
X38583Y334487D01*
Y333503D01*
X38091Y333011D01*
D73*
X18008Y143582D02*
X14009D01*
Y141583D01*
X14676Y140917D01*
X15342D01*
X16009Y141583D01*
Y143582D01*
Y141583D01*
X16675Y140917D01*
X17342D01*
X18008Y141583D01*
Y143582D01*
X14009Y139584D02*
X18008D01*
Y137584D01*
X17342Y136918D01*
X16009D01*
X15342Y137584D01*
Y139584D01*
Y138251D02*
X14009Y136918D01*
X18008Y135585D02*
X14009D01*
X15342D01*
X18008Y132919D01*
X16009Y134919D01*
X14009Y132919D01*
X18008Y131586D02*
Y128921D01*
X17342D01*
X14676Y131586D01*
X14009D01*
X17342Y127588D02*
X18008Y126921D01*
Y125588D01*
X17342Y124922D01*
X16675D01*
X16009Y125588D01*
Y126255D01*
Y125588D01*
X15342Y124922D01*
X14676D01*
X14009Y125588D01*
Y126921D01*
X14676Y127588D01*
X18008Y120923D02*
X17342Y122256D01*
X16009Y123589D01*
X14676D01*
X14009Y122923D01*
Y121590D01*
X14676Y120923D01*
X15342D01*
X16009Y121590D01*
Y123589D01*
X17342Y119590D02*
X18008Y118924D01*
Y117591D01*
X17342Y116925D01*
X14676D01*
X14009Y117591D01*
Y118924D01*
X14676Y119590D01*
X17342D01*
X6135Y140917D02*
Y143582D01*
X8801Y140917D01*
X9468D01*
X10134Y141583D01*
Y142916D01*
X9468Y143582D01*
Y139584D02*
X10134Y138917D01*
Y137584D01*
X9468Y136918D01*
X6802D01*
X6135Y137584D01*
Y138917D01*
X6802Y139584D01*
X9468D01*
X6135Y135585D02*
Y134252D01*
Y134919D01*
X10134D01*
X9468Y135585D01*
X10134Y129587D02*
Y132253D01*
X8135D01*
X8801Y130920D01*
Y130254D01*
X8135Y129587D01*
X6802D01*
X6135Y130254D01*
Y131586D01*
X6802Y132253D01*
X6135Y128254D02*
Y126921D01*
Y127588D01*
X10134D01*
X9468Y128254D01*
Y124922D02*
X10134Y124255D01*
Y122923D01*
X9468Y122256D01*
X6802D01*
X6135Y122923D01*
Y124255D01*
X6802Y124922D01*
X9468D01*
X6135Y118257D02*
Y120923D01*
X8801Y118257D01*
X9468D01*
X10134Y118924D01*
Y120257D01*
X9468Y120923D01*
X6135Y114259D02*
Y116925D01*
X8801Y114259D01*
X9468D01*
X10134Y114925D01*
Y116258D01*
X9468Y116925D01*
M02*
