G04*
G04 #@! TF.GenerationSoftware,Altium Limited,Altium Designer,20.0.14 (345)*
G04*
G04 Layer_Color=8421504*
%FSLAX43Y43*%
%MOMM*%
G71*
G01*
G75*
%ADD12R,1.050X0.950*%
%ADD13R,0.950X1.050*%
%ADD14R,0.950X0.950*%
%ADD15R,0.900X1.050*%
%ADD16R,0.250X0.900*%
%ADD17R,0.900X0.250*%
%ADD18R,4.100X4.100*%
D12*
X3302Y11012D02*
D03*
Y9562D02*
D03*
Y6895D02*
D03*
Y8345D02*
D03*
X13716Y6276D02*
D03*
Y4826D02*
D03*
D13*
X15494Y9017D02*
D03*
X14044D02*
D03*
D14*
X1905Y10705D02*
D03*
Y12155D02*
D03*
X15494Y4572D02*
D03*
Y6022D02*
D03*
Y6023D02*
D03*
Y7473D02*
D03*
D15*
X8698Y2667D02*
D03*
X10098D02*
D03*
X11365D02*
D03*
X12765D02*
D03*
X6031D02*
D03*
X7431D02*
D03*
D16*
X6311Y12567D02*
D03*
X6811D02*
D03*
X7311D02*
D03*
X7811D02*
D03*
X8311D02*
D03*
X8811D02*
D03*
X9311D02*
D03*
X9811D02*
D03*
X10311D02*
D03*
X10811D02*
D03*
X11311D02*
D03*
Y5467D02*
D03*
X10811D02*
D03*
X10311D02*
D03*
X9811D02*
D03*
X9311D02*
D03*
X8811D02*
D03*
X8311D02*
D03*
X7811D02*
D03*
X7311D02*
D03*
X6811D02*
D03*
X6311D02*
D03*
D17*
X12361Y11517D02*
D03*
Y11017D02*
D03*
Y10517D02*
D03*
Y10017D02*
D03*
Y9517D02*
D03*
Y9017D02*
D03*
Y8517D02*
D03*
Y8017D02*
D03*
Y7517D02*
D03*
Y7017D02*
D03*
Y6517D02*
D03*
X5261D02*
D03*
Y11517D02*
D03*
Y7017D02*
D03*
Y7517D02*
D03*
Y8017D02*
D03*
Y8517D02*
D03*
Y9017D02*
D03*
Y11017D02*
D03*
Y10517D02*
D03*
Y10017D02*
D03*
Y9517D02*
D03*
D18*
X8811Y9017D02*
D03*
M02*
