G04*
G04 #@! TF.GenerationSoftware,Altium Limited,Altium Designer,20.0.14 (345)*
G04*
G04 Layer_Physical_Order=1*
G04 Layer_Color=255*
%FSLAX43Y43*%
%MOMM*%
G71*
G01*
G75*
%ADD12R,1.050X0.950*%
%ADD13R,0.950X1.050*%
%ADD14R,0.950X0.950*%
%ADD15R,0.900X1.050*%
%ADD16R,0.250X0.900*%
%ADD17R,0.900X0.250*%
%ADD18R,4.100X4.100*%
%ADD30C,0.254*%
%ADD31C,0.381*%
%ADD32C,0.850*%
%ADD33R,0.850X0.850*%
%ADD34C,0.550*%
%ADD35C,0.600*%
D12*
X3302Y11012D02*
D03*
Y9562D02*
D03*
Y6895D02*
D03*
Y8345D02*
D03*
X13716Y6276D02*
D03*
Y4826D02*
D03*
D13*
X15494Y9017D02*
D03*
X14044D02*
D03*
D14*
X1905Y10705D02*
D03*
Y12155D02*
D03*
X15494Y4572D02*
D03*
Y6022D02*
D03*
Y6023D02*
D03*
Y7473D02*
D03*
D15*
X8698Y2667D02*
D03*
X10098D02*
D03*
X11365D02*
D03*
X12765D02*
D03*
X6031D02*
D03*
X7431D02*
D03*
D16*
X6311Y12567D02*
D03*
X6811D02*
D03*
X7311D02*
D03*
X7811D02*
D03*
X8311D02*
D03*
X8811D02*
D03*
X9311D02*
D03*
X9811D02*
D03*
X10311D02*
D03*
X10811D02*
D03*
X11311D02*
D03*
Y5467D02*
D03*
X10811D02*
D03*
X10311D02*
D03*
X9811D02*
D03*
X9311D02*
D03*
X8811D02*
D03*
X8311D02*
D03*
X7811D02*
D03*
X7311D02*
D03*
X6811D02*
D03*
X6311D02*
D03*
D17*
X12361Y11517D02*
D03*
Y11017D02*
D03*
Y10517D02*
D03*
Y10017D02*
D03*
Y9517D02*
D03*
Y9017D02*
D03*
Y8517D02*
D03*
Y8017D02*
D03*
Y7517D02*
D03*
Y7017D02*
D03*
Y6517D02*
D03*
X5261D02*
D03*
Y11517D02*
D03*
Y7017D02*
D03*
Y7517D02*
D03*
Y8017D02*
D03*
Y8517D02*
D03*
Y9017D02*
D03*
Y11017D02*
D03*
Y10517D02*
D03*
Y10017D02*
D03*
Y9517D02*
D03*
D18*
X8811Y9017D02*
D03*
D30*
X4191Y5461D02*
Y6985D01*
X4723Y7517D01*
X12361Y9517D02*
X13152D01*
X17764Y14128D01*
Y14859D01*
X12996Y10519D02*
X15752Y13275D01*
X12363Y10519D02*
X12996D01*
X13163Y10115D02*
X16764Y13715D01*
X15752Y13275D02*
Y14859D01*
X16764Y13715D02*
Y14859D01*
X13088Y10115D02*
X13163D01*
X12992Y10019D02*
X13088Y10115D01*
X12363Y10019D02*
X12992D01*
X14732Y12827D02*
Y14839D01*
X12924Y11019D02*
X14732Y12827D01*
X12363Y11019D02*
X12924D01*
X14732Y14839D02*
X14752Y14859D01*
X12361Y11517D02*
Y13377D01*
X13752Y14768D02*
Y14859D01*
X12361Y13377D02*
X13752Y14768D01*
X10313Y14250D02*
X10521Y14458D01*
Y14467D01*
X10752Y14698D01*
X10313Y12569D02*
Y14250D01*
X10752Y14698D02*
Y14859D01*
X9309Y12890D02*
Y14059D01*
X8775Y14859D02*
X8889Y14745D01*
Y14479D02*
Y14745D01*
Y14479D02*
X9309Y14059D01*
X15146Y7821D02*
Y7821D01*
X14044Y9017D02*
X14392Y8669D01*
Y8575D02*
X15146Y7821D01*
X14392Y8575D02*
Y8669D01*
X15146Y7821D02*
X15494Y7473D01*
X13666Y6276D02*
Y7289D01*
X12361Y9017D02*
X14044D01*
X13803Y910D02*
Y3215D01*
X13549Y3469D02*
X13803Y3215D01*
X12821Y3469D02*
X13549D01*
X13759Y3977D02*
X14803Y2933D01*
X13032Y3977D02*
X13759D01*
X14803Y910D02*
Y2933D01*
X12361Y11017D02*
X12363Y11019D01*
X11311Y12567D02*
Y13418D01*
X12752Y14859D01*
X10813Y13920D02*
X11752Y14859D01*
X10813Y12569D02*
Y13920D01*
X9811Y12567D02*
Y14859D01*
X7775D02*
X8811Y13823D01*
X6817Y14901D02*
X8309Y13408D01*
X1905Y12155D02*
X2066Y12316D01*
X4318D01*
X4178Y10143D02*
Y10186D01*
X4318Y10994D02*
Y12316D01*
X4792Y10519D02*
X4938D01*
X4318Y10994D02*
X4792Y10519D01*
X4178Y10143D02*
X4252Y10069D01*
X3352Y11012D02*
X4178Y10186D01*
X1775Y14859D02*
X4318Y12316D01*
X2822Y14819D02*
X4745Y12896D01*
X6303D01*
X5330Y13304D02*
X6541D01*
X3775Y14859D02*
X5330Y13304D01*
X4775Y14859D02*
X5895Y13739D01*
X5775Y14859D02*
X6477Y14157D01*
X6830D01*
X5895Y13739D02*
X6677D01*
X6541Y13304D02*
X6809Y13035D01*
X7311Y12567D02*
Y13105D01*
X6677Y13739D02*
X7311Y13105D01*
X12361Y8017D02*
X14081D01*
X14605Y7493D01*
Y6912D02*
Y7493D01*
X675Y12192D02*
X1868D01*
X7809Y12569D02*
Y13178D01*
X6830Y14157D02*
X7809Y13178D01*
X6809Y12890D02*
Y13035D01*
X2212Y11012D02*
X3302D01*
X1905Y10705D02*
X2212Y11012D01*
X3302D02*
X3352D01*
X5255Y11519D02*
Y12271D01*
X5207Y12319D02*
X5255Y12271D01*
X6303Y12896D02*
X6311Y12888D01*
X2069Y8345D02*
X3302D01*
X1135Y9517D02*
X5261D01*
X3302Y5842D02*
Y6895D01*
Y8345D02*
X3474Y8517D01*
X4471Y8015D02*
X5259D01*
X5261Y8017D01*
X3352Y6895D02*
X4471Y8014D01*
X3302Y6895D02*
X3352D01*
X12361Y7017D02*
X12925D01*
X13318Y6624D02*
Y6624D01*
X12925Y7017D02*
X13318Y6624D01*
X3474Y8517D02*
X5261D01*
X4723Y7517D02*
X5261D01*
X15493Y6023D02*
X15494D01*
X15146Y6370D02*
X15493Y6023D01*
X14605Y6912D02*
X15146Y6371D01*
Y6370D02*
Y6371D01*
X15494Y9017D02*
X16383Y9906D01*
X13716Y6276D02*
X13766D01*
X15122Y4920D01*
X15146D01*
X15494Y4572D01*
X12361Y8517D02*
Y8890D01*
X14742Y9931D02*
X14799Y9988D01*
X14632Y9931D02*
X14742D01*
X14392Y9691D02*
X14632Y9931D01*
X14392Y9365D02*
Y9691D01*
X14044Y9017D02*
X14392Y9365D01*
X15493Y6023D02*
X15494Y6022D01*
X13318Y6624D02*
X13666Y6276D01*
X12665Y5827D02*
Y6515D01*
X12663Y6517D02*
X12665Y6515D01*
X12361Y6517D02*
X12663D01*
X12361Y7017D02*
Y7517D01*
X13318Y5174D02*
Y5174D01*
X12665Y5827D02*
X13318Y5174D01*
Y5174D02*
X13572Y4920D01*
X12675Y3604D02*
X12687D01*
X12821Y3469D01*
X12287Y4722D02*
X13032Y3977D01*
X11950Y4330D02*
X12675Y3604D01*
X10811Y5001D02*
Y5144D01*
X11090Y4722D02*
X12287D01*
X10932Y4341D02*
X11950D01*
X6158Y2667D02*
Y2869D01*
X9775Y3065D02*
X10173Y2667D01*
X7809Y12569D02*
X7811Y12567D01*
X5257Y11517D02*
X5261D01*
X5255Y11519D02*
X5257Y11517D01*
X12361Y10517D02*
X12363Y10519D01*
X10311Y12567D02*
X10313Y12569D01*
X8309Y12890D02*
Y13408D01*
X8811Y12567D02*
Y13823D01*
X6158Y2869D02*
X7311Y4022D01*
Y5467D01*
X8811Y4071D02*
X9775Y3107D01*
X8811Y4071D02*
Y5467D01*
X9313Y4849D02*
Y5144D01*
Y4849D02*
X11042Y3121D01*
X6311Y5146D02*
Y5467D01*
X6309Y5144D02*
X6311Y5146D01*
X5609Y4466D02*
X6287Y5144D01*
X6309D01*
X6811Y4652D02*
Y5467D01*
X6477Y4318D02*
X6811Y4652D01*
X8311Y3129D02*
X8698Y2742D01*
X8311Y3129D02*
Y5144D01*
X9775Y3065D02*
Y3107D01*
X7558Y2667D02*
X7754Y2863D01*
Y3157D01*
X7811Y3214D01*
Y5467D01*
X11042Y2990D02*
Y3121D01*
Y2990D02*
X11365Y2667D01*
X10787Y3914D02*
X11593D01*
X12442Y3065D02*
Y3065D01*
Y3065D02*
X12776Y2730D01*
X11593Y3914D02*
X12442Y3065D01*
X10313Y4960D02*
Y5465D01*
X9811Y4890D02*
X10787Y3914D01*
X10313Y4960D02*
X10932Y4341D01*
X9811Y4890D02*
Y5467D01*
X10811Y5001D02*
X11090Y4722D01*
X10311Y5467D02*
X10313Y5465D01*
X10811Y12567D02*
X10813Y12569D01*
X5261Y8517D02*
Y9017D01*
Y9517D02*
Y10017D01*
X11311Y5467D02*
X12107D01*
X5261Y11017D02*
Y11517D01*
X6311Y12567D02*
Y12888D01*
X12361Y10017D02*
X12363Y10019D01*
D31*
X6822Y1718D02*
X7100D01*
X6291Y2250D02*
X6822Y1718D01*
X6291Y2250D02*
Y2534D01*
X6158Y2667D02*
X6291Y2534D01*
X7100Y1718D02*
X7826Y993D01*
Y910D02*
Y993D01*
X10736Y1000D02*
Y1837D01*
X10358Y2216D02*
X10736Y1837D01*
X10358Y2216D02*
Y2483D01*
X10173Y2667D02*
X10358Y2483D01*
X9736Y1000D02*
X9826Y910D01*
X7690Y2128D02*
Y2534D01*
X8698Y2592D02*
Y2742D01*
X9736Y1000D02*
Y1554D01*
X8826Y910D02*
Y993D01*
X10736Y1000D02*
X10826Y910D01*
X8698Y2592D02*
X9736Y1554D01*
X7690Y2128D02*
X8826Y993D01*
X7558Y2667D02*
X7690Y2534D01*
X11826Y910D02*
Y2131D01*
X11365Y2592D02*
X11826Y2131D01*
X11365Y2592D02*
Y2667D01*
X12765D02*
X12796Y2636D01*
Y941D02*
Y2636D01*
Y941D02*
X12826Y910D01*
D32*
X12781D02*
D03*
X11781D02*
D03*
X10781D02*
D03*
X9781D02*
D03*
X8781D02*
D03*
X7781D02*
D03*
X6781D02*
D03*
X5781D02*
D03*
X4781D02*
D03*
X14758D02*
D03*
X13758D02*
D03*
X9775Y14859D02*
D03*
X8775D02*
D03*
X7775D02*
D03*
X6775D02*
D03*
X5775D02*
D03*
X4775D02*
D03*
X3775D02*
D03*
X2775D02*
D03*
X1775D02*
D03*
X11752D02*
D03*
X10752D02*
D03*
X12752D02*
D03*
X13752D02*
D03*
X14752D02*
D03*
X15752D02*
D03*
X16764D02*
D03*
X17764D02*
D03*
D33*
X3781Y910D02*
D03*
X775Y14859D02*
D03*
D34*
X4191Y5461D02*
D03*
X13666Y7289D02*
D03*
X4252Y10069D02*
D03*
X675Y12192D02*
D03*
X2069Y8345D02*
D03*
X1135Y9517D02*
D03*
X3302Y5842D02*
D03*
X16383Y9906D02*
D03*
X14799Y9988D02*
D03*
X6477Y4318D02*
D03*
X12107Y5467D02*
D03*
D35*
X5207Y12319D02*
D03*
X5461Y4318D02*
D03*
M02*
