G04*
G04 #@! TF.GenerationSoftware,Altium Limited,Altium Designer,20.0.14 (345)*
G04*
G04 Layer_Color=16711935*
%FSLAX43Y43*%
%MOMM*%
G71*
G01*
G75*
%ADD39C,0.100*%
D39*
X3281Y275D02*
Y1545D01*
Y275D02*
X15281D01*
X3281Y1545D02*
X15281D01*
Y275D02*
Y1545D01*
X275Y14224D02*
Y15494D01*
Y14224D02*
X18275D01*
X275Y15494D02*
X18275D01*
Y14224D02*
Y15494D01*
X2852Y11137D02*
X3752D01*
X2852Y9437D02*
X3752D01*
Y11137D01*
X2852Y9437D02*
Y11137D01*
Y6770D02*
X3752D01*
X2852Y8470D02*
X3752D01*
X2852Y6770D02*
Y8470D01*
X3752Y6770D02*
Y8470D01*
X13266Y6401D02*
X14166D01*
X13266Y4701D02*
X14166D01*
Y6401D01*
X13266Y4701D02*
Y6401D01*
X15619Y8567D02*
Y9467D01*
X13919Y8567D02*
Y9467D01*
Y8567D02*
X15619D01*
X13919Y9467D02*
X15619D01*
X1430Y10580D02*
X2380D01*
X1430Y12280D02*
X2380D01*
X1430Y10580D02*
Y12280D01*
X2380Y10580D02*
Y12280D01*
X15019Y4447D02*
X15969D01*
X15019Y6147D02*
X15969D01*
X15019Y4447D02*
Y6147D01*
X15969Y4447D02*
Y6147D01*
X15019Y5898D02*
X15969D01*
X15019Y7598D02*
X15969D01*
X15019Y5898D02*
Y7598D01*
X15969Y5898D02*
Y7598D01*
X8573Y2192D02*
Y3142D01*
X10223Y2192D02*
Y3142D01*
X8573D02*
X10223D01*
X8573Y2192D02*
X10223D01*
X11240D02*
Y3142D01*
X12890Y2192D02*
Y3142D01*
X11240D02*
X12890D01*
X11240Y2192D02*
X12890D01*
X5906D02*
Y3142D01*
X7556Y2192D02*
Y3142D01*
X5906D02*
X7556D01*
X5906Y2192D02*
X7556D01*
M02*
