G04*
G04 #@! TF.GenerationSoftware,Altium Limited,Altium Designer,20.0.14 (345)*
G04*
G04 Layer_Physical_Order=2*
G04 Layer_Color=36540*
%FSLAX43Y43*%
%MOMM*%
G71*
G01*
G75*
%ADD32C,0.850*%
%ADD33R,0.850X0.850*%
%ADD34C,0.550*%
%ADD36C,0.762*%
%ADD37C,0.635*%
G36*
X13970Y9017D02*
D01*
D02*
G37*
D32*
X6781Y910D02*
D03*
X5781D02*
D03*
X4781D02*
D03*
D33*
X3781D02*
D03*
D34*
X4191Y5461D02*
D03*
X2069Y8345D02*
D03*
X1135Y9517D02*
D03*
X14799Y9988D02*
D03*
X12107Y5467D02*
D03*
D36*
X4191Y5461D02*
X12101D01*
X4191Y4413D02*
Y5461D01*
Y4413D02*
X6809Y1795D01*
X12101Y5461D02*
X12107Y5467D01*
X12553Y9988D02*
X14799D01*
X12107Y9541D02*
X12553Y9988D01*
X12107Y5467D02*
Y9541D01*
X6809Y927D02*
X6826Y910D01*
X6809Y927D02*
Y1795D01*
D37*
X3763Y2588D02*
X4770D01*
X2032Y4318D02*
X3763Y2588D01*
X2032Y4318D02*
Y8308D01*
X4770Y2588D02*
X5719Y1639D01*
X1135Y4105D02*
Y9517D01*
Y4105D02*
X3437Y1803D01*
X4785Y951D02*
Y1462D01*
X3437Y1803D02*
X4445D01*
X4785Y951D02*
X4826Y910D01*
X4445Y1803D02*
X4785Y1462D01*
X2032Y8308D02*
X2069Y8345D01*
X5719Y1076D02*
X5826Y968D01*
Y910D02*
Y968D01*
X5719Y1076D02*
Y1639D01*
X3719Y1018D02*
X3826Y910D01*
M02*
