G04*
G04 #@! TF.GenerationSoftware,Altium Limited,Altium Designer,20.0.14 (345)*
G04*
G04 Layer_Color=32768*
%FSLAX43Y43*%
%MOMM*%
G71*
G01*
G75*
%ADD39C,0.100*%
%ADD40C,0.050*%
D39*
X3302Y9837D02*
Y10737D01*
X2852Y10287D02*
X3752D01*
X3302Y7170D02*
Y8070D01*
X2852Y7620D02*
X3752D01*
X13716Y5101D02*
Y6001D01*
X13266Y5551D02*
X14166D01*
X14319Y9017D02*
X15219D01*
X14769Y8567D02*
Y9467D01*
X1905Y10955D02*
Y11905D01*
X1430Y11430D02*
X2380D01*
X15494Y4822D02*
Y5772D01*
X15019Y5297D02*
X15969D01*
X15494Y6273D02*
Y7223D01*
X15019Y6748D02*
X15969D01*
X8923Y2667D02*
X9873D01*
X9398Y2192D02*
Y3142D01*
X11590Y2667D02*
X12540D01*
X12065Y2192D02*
Y3142D01*
X6256Y2667D02*
X7206D01*
X6731Y2192D02*
Y3142D01*
D40*
X3031Y25D02*
Y1795D01*
Y25D02*
X15531D01*
Y1795D01*
X3031D02*
X15531D01*
Y25D02*
Y1795D01*
X25Y13974D02*
Y15744D01*
Y13974D02*
X18524D01*
Y15744D01*
X25D02*
X18524D01*
X2252Y11987D02*
X4352D01*
X2252Y8587D02*
X4352D01*
Y11987D01*
X2252Y8587D02*
Y11987D01*
Y5920D02*
X4352D01*
X2252Y9320D02*
X4352D01*
X2252Y5920D02*
Y9320D01*
X4352Y5920D02*
Y9320D01*
X12666Y7251D02*
X14766D01*
X12666Y3851D02*
X14766D01*
Y7251D01*
X12666Y3851D02*
Y7251D01*
X16469Y7967D02*
Y10067D01*
X13069Y7967D02*
Y10067D01*
Y7967D02*
X16469D01*
X13069Y10067D02*
X16469D01*
X1155Y9980D02*
X2655D01*
X1155Y12880D02*
X2655D01*
X1155Y9980D02*
Y12880D01*
X2655Y9980D02*
Y12880D01*
X14744Y3847D02*
X16244D01*
X14744Y6747D02*
X16244D01*
X14744Y3847D02*
Y6747D01*
X16244Y3847D02*
Y6747D01*
X14744Y5298D02*
X16244D01*
X14744Y8198D02*
X16244D01*
X14744Y5298D02*
Y8198D01*
X16244Y5298D02*
Y8198D01*
X7748Y1617D02*
Y3717D01*
X11048Y1617D02*
Y3717D01*
X7748D02*
X11048D01*
X7748Y1617D02*
X11048D01*
X10415D02*
Y3717D01*
X13715Y1617D02*
Y3717D01*
X10415D02*
X13715D01*
X10415Y1617D02*
X13715D01*
X5081D02*
Y3717D01*
X8381Y1617D02*
Y3717D01*
X5081D02*
X8381D01*
X5081Y1617D02*
X8381D01*
M02*
