G04*
G04 #@! TF.GenerationSoftware,Altium Limited,Altium Designer,20.0.14 (345)*
G04*
G04 Layer_Color=8388736*
%FSLAX43Y43*%
%MOMM*%
G71*
G01*
G75*
%ADD19R,1.350X1.250*%
%ADD20R,1.250X1.350*%
%ADD21R,1.250X1.250*%
%ADD22R,1.200X1.350*%
%ADD23R,0.550X1.200*%
%ADD24R,1.200X0.550*%
%ADD25R,4.400X4.400*%
%ADD26C,1.150*%
%ADD27R,1.150X1.150*%
%ADD28C,0.850*%
%ADD29C,0.900*%
D19*
X3302Y11012D02*
D03*
Y9562D02*
D03*
Y6895D02*
D03*
Y8345D02*
D03*
X13716Y6276D02*
D03*
Y4826D02*
D03*
D20*
X15494Y9017D02*
D03*
X14044D02*
D03*
D21*
X1905Y10705D02*
D03*
Y12155D02*
D03*
X15494Y4572D02*
D03*
Y6022D02*
D03*
Y6023D02*
D03*
Y7473D02*
D03*
D22*
X8698Y2667D02*
D03*
X10098D02*
D03*
X11365D02*
D03*
X12765D02*
D03*
X6031D02*
D03*
X7431D02*
D03*
D23*
X6311Y12567D02*
D03*
X6811D02*
D03*
X7311D02*
D03*
X7811D02*
D03*
X8311D02*
D03*
X8811D02*
D03*
X9311D02*
D03*
X9811D02*
D03*
X10311D02*
D03*
X10811D02*
D03*
X11311D02*
D03*
Y5467D02*
D03*
X10811D02*
D03*
X10311D02*
D03*
X9811D02*
D03*
X9311D02*
D03*
X8811D02*
D03*
X8311D02*
D03*
X7811D02*
D03*
X7311D02*
D03*
X6811D02*
D03*
X6311D02*
D03*
D24*
X12361Y11517D02*
D03*
Y11017D02*
D03*
Y10517D02*
D03*
Y10017D02*
D03*
Y9517D02*
D03*
Y9017D02*
D03*
Y8517D02*
D03*
Y8017D02*
D03*
Y7517D02*
D03*
Y7017D02*
D03*
Y6517D02*
D03*
X5261D02*
D03*
Y11517D02*
D03*
Y7017D02*
D03*
Y7517D02*
D03*
Y8017D02*
D03*
Y8517D02*
D03*
Y9017D02*
D03*
Y11017D02*
D03*
Y10517D02*
D03*
Y10017D02*
D03*
Y9517D02*
D03*
D25*
X8811Y9017D02*
D03*
D26*
X12781Y910D02*
D03*
X11781D02*
D03*
X10781D02*
D03*
X9781D02*
D03*
X8781D02*
D03*
X7781D02*
D03*
X6781D02*
D03*
X5781D02*
D03*
X4781D02*
D03*
X14758D02*
D03*
X13758D02*
D03*
X9775Y14859D02*
D03*
X8775D02*
D03*
X7775D02*
D03*
X6775D02*
D03*
X5775D02*
D03*
X4775D02*
D03*
X3775D02*
D03*
X2775D02*
D03*
X1775D02*
D03*
X11752D02*
D03*
X10752D02*
D03*
X12752D02*
D03*
X13752D02*
D03*
X14752D02*
D03*
X15752D02*
D03*
X16764D02*
D03*
X17764D02*
D03*
D27*
X3781Y910D02*
D03*
X775Y14859D02*
D03*
D28*
X4191Y5461D02*
D03*
X13666Y7289D02*
D03*
X4252Y10069D02*
D03*
X675Y12192D02*
D03*
X2069Y8345D02*
D03*
X1135Y9517D02*
D03*
X3302Y5842D02*
D03*
X16383Y9906D02*
D03*
X14799Y9988D02*
D03*
X6477Y4318D02*
D03*
X12107Y5467D02*
D03*
D29*
X5207Y12319D02*
D03*
X5461Y4318D02*
D03*
M02*
