G04*
G04 #@! TF.GenerationSoftware,Altium Limited,Altium Designer,20.0.14 (345)*
G04*
G04 Layer_Physical_Order=2*
G04 Layer_Color=36540*
%FSLAX43Y43*%
%MOMM*%
G71*
G01*
G75*
%ADD11C,0.508*%
%ADD12C,0.762*%
%ADD13C,1.524*%
%ADD14C,0.635*%
%ADD16C,0.254*%
%ADD17C,1.270*%
%ADD19C,2.032*%
%ADD30C,0.850*%
%ADD31R,0.850X0.850*%
%ADD32C,1.550*%
%ADD34C,1.650*%
%ADD35R,1.650X1.650*%
%ADD37C,5.100*%
%ADD38C,1.308*%
%ADD39C,0.550*%
%ADD40C,1.600*%
%ADD42C,1.800*%
%ADD46C,0.600*%
%ADD49R,0.850X0.850*%
%ADD54C,2.540*%
G36*
X65495Y41412D02*
X65485Y41365D01*
X65491Y41308D01*
X65512Y41243D01*
X65550Y41168D01*
X65603Y41084D01*
X65672Y40992D01*
X65756Y40890D01*
X65973Y40659D01*
X65524Y40210D01*
X65405Y40327D01*
X65192Y40512D01*
X65099Y40581D01*
X65016Y40634D01*
X64941Y40671D01*
X64876Y40693D01*
X64819Y40699D01*
X64772Y40688D01*
X64733Y40662D01*
X65521Y41451D01*
X65495Y41412D01*
D02*
G37*
G36*
X70223Y40849D02*
X70139Y40835D01*
X70047Y40806D01*
X69948Y40763D01*
X69841Y40704D01*
X69727Y40631D01*
X69605Y40542D01*
X69339Y40321D01*
X69043Y40039D01*
X68594Y40488D01*
X68742Y40640D01*
X69097Y41050D01*
X69186Y41172D01*
X69259Y41286D01*
X69318Y41393D01*
X69361Y41492D01*
X69390Y41584D01*
X69404Y41668D01*
X70223Y40849D01*
D02*
G37*
G36*
X33282Y29148D02*
X32155Y28021D01*
X31277Y28021D01*
X31270Y28060D01*
X31176Y28200D01*
X31102Y28249D01*
X31152Y28369D01*
X31175Y28364D01*
Y29201D01*
X31084Y29183D01*
X30944Y29089D01*
X30869Y28978D01*
X30742Y29009D01*
X30742Y36276D01*
X27440Y36276D01*
Y37927D01*
X26510Y38857D01*
X26591Y38956D01*
X26639Y38923D01*
X26730Y38905D01*
Y39249D01*
X26387D01*
X26405Y39158D01*
X26438Y39109D01*
X26339Y39028D01*
X24392Y40975D01*
Y42726D01*
X33282D01*
Y29148D01*
D02*
G37*
G36*
X12534D02*
X11407Y28021D01*
X10529Y28021D01*
X10522Y28060D01*
X10428Y28200D01*
X10354Y28249D01*
X10404Y28369D01*
X10427Y28364D01*
Y29201D01*
X10336Y29183D01*
X10196Y29089D01*
X10121Y28978D01*
X9994Y29009D01*
X9994Y36276D01*
X6692Y36276D01*
Y37927D01*
X5762Y38857D01*
X5843Y38956D01*
X5891Y38923D01*
X5982Y38905D01*
Y39249D01*
X5639D01*
X5657Y39158D01*
X5690Y39109D01*
X5591Y39028D01*
X3644Y40975D01*
Y42726D01*
X12534D01*
Y29148D01*
D02*
G37*
G36*
X64694Y38116D02*
X64604Y38113D01*
X64516Y38103D01*
X64429Y38084D01*
X64343Y38058D01*
X64259Y38025D01*
X64176Y37983D01*
X64095Y37934D01*
X64015Y37877D01*
X63937Y37812D01*
X63860Y37740D01*
X63501Y38099D01*
X63573Y38176D01*
X63638Y38254D01*
X63695Y38334D01*
X63744Y38415D01*
X63786Y38498D01*
X63819Y38582D01*
X63845Y38668D01*
X63864Y38755D01*
X63874Y38843D01*
X63877Y38933D01*
X64694Y38116D01*
D02*
G37*
G36*
X56376Y36216D02*
X56380Y36192D01*
X56388Y36167D01*
X56398Y36141D01*
X56412Y36114D01*
X56429Y36087D01*
X56448Y36059D01*
X56471Y36030D01*
X56526Y35971D01*
X56347Y35791D01*
X56317Y35820D01*
X56258Y35869D01*
X56230Y35889D01*
X56203Y35905D01*
X56176Y35919D01*
X56151Y35929D01*
X56126Y35937D01*
X56101Y35941D01*
X56078Y35943D01*
X56375Y36240D01*
X56376Y36216D01*
D02*
G37*
G36*
X80157Y38052D02*
X78633Y35766D01*
X78622Y36056D01*
X78589Y36315D01*
X78534Y36544D01*
X78456Y36742D01*
X78357Y36909D01*
X78236Y37047D01*
X78092Y37153D01*
X77927Y37229D01*
X77739Y37275D01*
X77529Y37290D01*
Y38814D01*
X77739Y38830D01*
X77927Y38875D01*
X78092Y38952D01*
X78236Y39058D01*
X78357Y39195D01*
X78456Y39363D01*
X78534Y39561D01*
X78589Y39790D01*
X78622Y40049D01*
X78633Y40338D01*
X80157Y38052D01*
D02*
G37*
G36*
X65532Y36481D02*
X65559Y36391D01*
X65592Y36304D01*
X65631Y36218D01*
X65674Y36134D01*
X65723Y36052D01*
X65777Y35972D01*
X65837Y35895D01*
X65902Y35819D01*
X65972Y35745D01*
X65697Y35301D01*
X65619Y35375D01*
X65539Y35439D01*
X65459Y35493D01*
X65379Y35537D01*
X65299Y35572D01*
X65218Y35597D01*
X65136Y35612D01*
X65055Y35617D01*
X64973Y35612D01*
X64890Y35598D01*
X65509Y36573D01*
X65532Y36481D01*
D02*
G37*
G36*
X56503Y34437D02*
X56507Y34413D01*
X56515Y34388D01*
X56525Y34363D01*
X56539Y34336D01*
X56555Y34309D01*
X56575Y34281D01*
X56598Y34252D01*
X56653Y34193D01*
X56474Y34013D01*
X56443Y34042D01*
X56385Y34091D01*
X56357Y34111D01*
X56330Y34128D01*
X56304Y34141D01*
X56278Y34152D01*
X56253Y34159D01*
X56229Y34163D01*
X56206Y34165D01*
X56502Y34460D01*
X56503Y34437D01*
D02*
G37*
G36*
X55233D02*
X55237Y34413D01*
X55245Y34388D01*
X55255Y34363D01*
X55269Y34336D01*
X55285Y34309D01*
X55305Y34281D01*
X55328Y34252D01*
X55383Y34193D01*
X55204Y34013D01*
X55173Y34042D01*
X55115Y34091D01*
X55087Y34111D01*
X55060Y34128D01*
X55034Y34141D01*
X55008Y34152D01*
X54983Y34159D01*
X54959Y34163D01*
X54936Y34165D01*
X55232Y34460D01*
X55233Y34437D01*
D02*
G37*
G36*
X54999Y32836D02*
X54985Y32815D01*
X54972Y32792D01*
X54962Y32767D01*
X54952Y32738D01*
X54945Y32707D01*
X54939Y32673D01*
X54935Y32637D01*
X54932Y32556D01*
X54678D01*
X54677Y32598D01*
X54670Y32673D01*
X54664Y32707D01*
X54657Y32738D01*
X54648Y32767D01*
X54637Y32792D01*
X54625Y32815D01*
X54610Y32836D01*
X54595Y32853D01*
X55015D01*
X54999Y32836D01*
D02*
G37*
G36*
X95310Y31923D02*
X95282Y31914D01*
X95239Y31888D01*
X95215Y31870D01*
X95302Y31783D01*
X95255Y31780D01*
X95204Y31768D01*
X95149Y31747D01*
X95091Y31719D01*
X95029Y31682D01*
X94963Y31637D01*
X94894Y31583D01*
X94887Y31577D01*
X94322Y31032D01*
X93783Y31571D01*
X94456Y32317D01*
X94470Y32340D01*
X94498Y32398D01*
X94519Y32453D01*
X94531Y32504D01*
X94534Y32551D01*
X94604Y32481D01*
X94674Y32559D01*
X95310Y31923D01*
D02*
G37*
G36*
X45367Y28268D02*
X45401Y28234D01*
X45439Y28204D01*
X45482Y28178D01*
X45531Y28156D01*
X45585Y28138D01*
X45644Y28124D01*
X45707Y28114D01*
X45777Y28108D01*
X45851Y28106D01*
Y27852D01*
X45784Y27850D01*
X45722Y27843D01*
X45667Y27832D01*
X45617Y27817D01*
X45572Y27797D01*
X45534Y27773D01*
X45501Y27744D01*
X45474Y27711D01*
X45453Y27673D01*
X45437Y27631D01*
X45339Y28306D01*
X45367Y28268D01*
D02*
G37*
G36*
X34368Y29785D02*
X34425Y29663D01*
Y28220D01*
X32409Y26204D01*
X28676D01*
X28637Y26331D01*
X28673Y26354D01*
X28767Y26495D01*
X28785Y26586D01*
X28366D01*
Y26661D01*
X28291D01*
Y27079D01*
X28200Y27061D01*
X28060Y26967D01*
X27966Y26827D01*
X27948Y26738D01*
X27821Y26750D01*
Y29037D01*
X29599D01*
X30512Y28124D01*
X30469Y28060D01*
X30436Y27894D01*
X30469Y27728D01*
X30563Y27587D01*
X30703Y27493D01*
X30869Y27460D01*
X31035Y27493D01*
X31176Y27587D01*
X31270Y27728D01*
X31277Y27767D01*
X32266D01*
X34288Y29789D01*
X34368Y29785D01*
D02*
G37*
G36*
X13620D02*
X13677Y29663D01*
Y28220D01*
X11661Y26204D01*
X7928D01*
X7889Y26331D01*
X7925Y26354D01*
X8019Y26495D01*
X8037Y26586D01*
X7618D01*
Y26661D01*
X7543D01*
Y27079D01*
X7452Y27061D01*
X7312Y26967D01*
X7218Y26827D01*
X7200Y26738D01*
X7073Y26750D01*
Y29037D01*
X8851D01*
X9764Y28124D01*
X9721Y28060D01*
X9688Y27894D01*
X9721Y27728D01*
X9815Y27587D01*
X9955Y27493D01*
X10121Y27460D01*
X10287Y27493D01*
X10428Y27587D01*
X10522Y27728D01*
X10529Y27767D01*
X11518D01*
X13540Y29789D01*
X13620Y29785D01*
D02*
G37*
G36*
X47862Y28353D02*
X47951Y28276D01*
X48039Y28208D01*
X48128Y28150D01*
X48216Y28100D01*
X48305Y28060D01*
X48393Y28028D01*
X48482Y28006D01*
X48571Y27992D01*
X48660Y27988D01*
Y27734D01*
X48571Y27729D01*
X48482Y27716D01*
X48393Y27693D01*
X48305Y27662D01*
X48216Y27621D01*
X48128Y27571D01*
X48039Y27513D01*
X47951Y27445D01*
X47862Y27369D01*
X47774Y27283D01*
Y28438D01*
X47862Y28353D01*
D02*
G37*
G36*
X48318Y26274D02*
X48258Y26208D01*
X48205Y26136D01*
X48158Y26057D01*
X48117Y25972D01*
X48083Y25881D01*
X48056Y25783D01*
X48035Y25679D01*
X48020Y25569D01*
X48012Y25452D01*
X48010Y25329D01*
X47193Y26146D01*
X47316Y26148D01*
X47433Y26156D01*
X47543Y26171D01*
X47647Y26192D01*
X47745Y26219D01*
X47836Y26253D01*
X47921Y26294D01*
X48000Y26341D01*
X48072Y26394D01*
X48138Y26454D01*
X48318Y26274D01*
D02*
G37*
G36*
X45367Y25728D02*
X45401Y25694D01*
X45439Y25664D01*
X45482Y25638D01*
X45531Y25616D01*
X45585Y25598D01*
X45644Y25584D01*
X45707Y25574D01*
X45777Y25568D01*
X45851Y25566D01*
Y25312D01*
X45784Y25310D01*
X45722Y25303D01*
X45667Y25292D01*
X45617Y25277D01*
X45572Y25257D01*
X45534Y25233D01*
X45501Y25204D01*
X45474Y25171D01*
X45453Y25133D01*
X45437Y25091D01*
X45339Y25766D01*
X45367Y25728D01*
D02*
G37*
G36*
X27659Y26750D02*
X27680Y26700D01*
X27696Y26647D01*
X27703Y26643D01*
X27707Y26635D01*
X27757Y26615D01*
X27805Y26589D01*
X27821Y26587D01*
Y25862D01*
X32139D01*
X32319Y26041D01*
X32409D01*
X32524Y26089D01*
X32705Y26270D01*
X32730Y26287D01*
X34461Y28017D01*
X34478Y28043D01*
X34540Y28105D01*
X34588Y28220D01*
Y28275D01*
X35187D01*
Y25000D01*
X26551D01*
Y28336D01*
X26642Y28410D01*
X26808Y28443D01*
X26949Y28537D01*
X27043Y28678D01*
X27076Y28844D01*
X27062Y28910D01*
X27165Y29037D01*
X27659D01*
Y26750D01*
D02*
G37*
G36*
X6911D02*
X6932Y26700D01*
X6948Y26647D01*
X6955Y26643D01*
X6959Y26635D01*
X7009Y26615D01*
X7057Y26589D01*
X7073Y26587D01*
Y25862D01*
X11391D01*
X11571Y26041D01*
X11661D01*
X11776Y26089D01*
X11957Y26270D01*
X11982Y26287D01*
X13713Y28017D01*
X13730Y28043D01*
X13792Y28105D01*
X13840Y28220D01*
Y28275D01*
X14439D01*
Y25000D01*
X5803D01*
Y28336D01*
X5894Y28410D01*
X6060Y28443D01*
X6201Y28537D01*
X6295Y28678D01*
X6328Y28844D01*
X6314Y28910D01*
X6417Y29037D01*
X6911D01*
Y26750D01*
D02*
G37*
G36*
X89482Y25798D02*
X89525Y25525D01*
X89595Y25251D01*
X89693Y24978D01*
X89819Y24704D01*
X89974Y24429D01*
X90156Y24155D01*
X90367Y23880D01*
X90606Y23606D01*
X90872Y23330D01*
X87302D01*
X87569Y23606D01*
X87808Y23880D01*
X88018Y24155D01*
X88201Y24429D01*
X88355Y24704D01*
X88482Y24978D01*
X88580Y25251D01*
X88650Y25525D01*
X88692Y25798D01*
X88706Y26071D01*
X89468D01*
X89482Y25798D01*
D02*
G37*
G36*
X97531Y23880D02*
X97518Y23852D01*
X97506Y23815D01*
X97496Y23770D01*
X97488Y23715D01*
X97475Y23580D01*
X97469Y23410D01*
X97468Y23312D01*
X96706D01*
X96706Y23410D01*
X96687Y23715D01*
X96679Y23770D01*
X96669Y23815D01*
X96657Y23852D01*
X96644Y23880D01*
X96630Y23900D01*
X97545D01*
X97531Y23880D01*
D02*
G37*
G36*
X146170Y23921D02*
X145015Y23114D01*
X145019Y23130D01*
X145011Y23157D01*
X144991Y23193D01*
X144959Y23239D01*
X144915Y23295D01*
X144792Y23435D01*
X144517Y23719D01*
X145415Y24617D01*
X146170Y23921D01*
D02*
G37*
G36*
X74246Y23953D02*
X74324Y23888D01*
X74404Y23831D01*
X74485Y23781D01*
X74568Y23738D01*
X74652Y23703D01*
X74738Y23676D01*
X74825Y23655D01*
X74914Y23643D01*
X75005Y23637D01*
X74165Y22844D01*
X74164Y22933D01*
X74156Y23021D01*
X74139Y23108D01*
X74115Y23193D01*
X74082Y23277D01*
X74042Y23359D01*
X73993Y23441D01*
X73937Y23520D01*
X73872Y23599D01*
X73800Y23676D01*
X74170Y24025D01*
X74246Y23953D01*
D02*
G37*
G36*
X76764Y23941D02*
X76842Y23877D01*
X76922Y23820D01*
X77004Y23771D01*
X77086Y23729D01*
X77170Y23695D01*
X77256Y23669D01*
X77343Y23651D01*
X77431Y23640D01*
X77521Y23637D01*
X76704Y22821D01*
X76701Y22910D01*
X76691Y22999D01*
X76672Y23086D01*
X76646Y23171D01*
X76613Y23256D01*
X76571Y23338D01*
X76522Y23419D01*
X76465Y23499D01*
X76400Y23578D01*
X76328Y23654D01*
X76687Y24014D01*
X76764Y23941D01*
D02*
G37*
G36*
X43547Y25603D02*
X43566Y25344D01*
X43598Y25115D01*
X43643Y24917D01*
X43700Y24749D01*
X43770Y24612D01*
X43852Y24505D01*
X43947Y24429D01*
X43992Y24410D01*
X44233Y24388D01*
X44717Y24370D01*
X44996Y24368D01*
Y23733D01*
X44717Y23731D01*
X43980Y23686D01*
X43947Y23672D01*
X43852Y23596D01*
X43770Y23489D01*
X43700Y23352D01*
X43643Y23185D01*
X43598Y22986D01*
X43547Y22499D01*
X43541Y22209D01*
X42017Y24051D01*
X43541Y25892D01*
X43547Y25603D01*
D02*
G37*
G36*
X54900Y23011D02*
X54987Y22938D01*
X55074Y22873D01*
X55161Y22817D01*
X55248Y22770D01*
X55335Y22731D01*
X55422Y22701D01*
X55510Y22680D01*
X55597Y22668D01*
X55685Y22665D01*
X54794Y21774D01*
X54790Y21861D01*
X54778Y21949D01*
X54757Y22036D01*
X54727Y22123D01*
X54689Y22210D01*
X54641Y22297D01*
X54585Y22384D01*
X54520Y22471D01*
X54447Y22558D01*
X54365Y22645D01*
X54814Y23094D01*
X54900Y23011D01*
D02*
G37*
G36*
X71221Y22736D02*
X71232Y22666D01*
X71252Y22595D01*
X71279Y22523D01*
X71315Y22450D01*
X71358Y22375D01*
X71410Y22299D01*
X71470Y22223D01*
X71538Y22144D01*
X71614Y22065D01*
X71165Y21616D01*
X71085Y21692D01*
X70930Y21820D01*
X70854Y21871D01*
X70780Y21915D01*
X70707Y21951D01*
X70635Y21978D01*
X70564Y21998D01*
X70494Y22009D01*
X70425Y22012D01*
X71217Y22804D01*
X71221Y22736D01*
D02*
G37*
G36*
X146564Y21045D02*
X146535Y21061D01*
X146482Y21075D01*
X146406Y21088D01*
X146306Y21098D01*
X145868Y21121D01*
X145220Y21128D01*
Y21890D01*
X145460Y21891D01*
X146535Y21958D01*
X146564Y21974D01*
Y21045D01*
D02*
G37*
G36*
X97469Y21514D02*
X97488Y21208D01*
X97496Y21154D01*
X97506Y21108D01*
X97518Y21072D01*
X97531Y21043D01*
X97545Y21024D01*
X96630D01*
X96644Y21043D01*
X96657Y21072D01*
X96669Y21108D01*
X96679Y21154D01*
X96687Y21208D01*
X96699Y21344D01*
X96706Y21514D01*
X96706Y21612D01*
X97468D01*
X97469Y21514D01*
D02*
G37*
G36*
X96620Y20099D02*
X96601Y20114D01*
X96573Y20127D01*
X96536Y20138D01*
X96490Y20148D01*
X96436Y20157D01*
X96301Y20169D01*
X96131Y20175D01*
X96033Y20176D01*
Y20938D01*
X96131Y20939D01*
X96436Y20957D01*
X96490Y20965D01*
X96536Y20975D01*
X96573Y20987D01*
X96601Y21000D01*
X96620Y21015D01*
Y20099D01*
D02*
G37*
G36*
X91580Y22191D02*
X91735Y21928D01*
X91908Y21696D01*
X92098Y21495D01*
X92306Y21325D01*
X92532Y21185D01*
X92775Y21077D01*
X93037Y21000D01*
X93316Y20953D01*
X93613Y20938D01*
X93301Y20176D01*
X93087Y20166D01*
X92850Y20137D01*
X92592Y20087D01*
X92007Y19930D01*
X91681Y19822D01*
X90570Y19380D01*
X90155Y19193D01*
X91443Y22485D01*
X91580Y22191D01*
D02*
G37*
G36*
X146170Y19097D02*
X146155Y19093D01*
X146126Y19074D01*
X146084Y19041D01*
X145960Y18931D01*
X145415Y18401D01*
X144517Y19299D01*
X144621Y19404D01*
X144991Y19826D01*
X145011Y19862D01*
X145019Y19888D01*
X145015Y19905D01*
X146170Y19097D01*
D02*
G37*
G36*
X76764Y18861D02*
X76842Y18797D01*
X76922Y18740D01*
X77004Y18691D01*
X77086Y18649D01*
X77170Y18615D01*
X77256Y18589D01*
X77343Y18571D01*
X77431Y18560D01*
X77521Y18557D01*
X76704Y17741D01*
X76701Y17830D01*
X76691Y17919D01*
X76672Y18006D01*
X76646Y18091D01*
X76613Y18176D01*
X76571Y18258D01*
X76522Y18339D01*
X76465Y18419D01*
X76400Y18498D01*
X76328Y18574D01*
X76687Y18934D01*
X76764Y18861D01*
D02*
G37*
G36*
X74245Y17377D02*
X74235Y17388D01*
X74218Y17398D01*
X74193Y17407D01*
X74161Y17414D01*
X74121Y17421D01*
X74017Y17430D01*
X73882Y17435D01*
X73804Y17436D01*
Y17944D01*
X73877Y17944D01*
X74098Y17960D01*
X74136Y17967D01*
X74166Y17976D01*
X74188Y17986D01*
X74204Y17997D01*
X74212Y18009D01*
X74245Y17377D01*
D02*
G37*
G36*
X47654Y15856D02*
X48114Y15686D01*
X48212Y15659D01*
X48388Y15623D01*
X48465Y15614D01*
X48536Y15611D01*
X48646Y15357D01*
X48549Y15352D01*
X48459Y15337D01*
X48374Y15312D01*
X48296Y15277D01*
X48223Y15232D01*
X48157Y15178D01*
X48097Y15113D01*
X48043Y15039D01*
X47995Y14954D01*
X47953Y14860D01*
X47522Y15914D01*
X47654Y15856D01*
D02*
G37*
G36*
X45453Y15348D02*
X45474Y15311D01*
X45501Y15277D01*
X45534Y15249D01*
X45572Y15224D01*
X45617Y15205D01*
X45667Y15189D01*
X45722Y15178D01*
X45784Y15171D01*
X45851Y15169D01*
Y14915D01*
X45777Y14913D01*
X45707Y14907D01*
X45644Y14897D01*
X45585Y14883D01*
X45531Y14865D01*
X45482Y14843D01*
X45439Y14817D01*
X45401Y14787D01*
X45367Y14753D01*
X45339Y14716D01*
X45437Y15390D01*
X45453Y15348D01*
D02*
G37*
G36*
X33282Y4506D02*
X32155Y3379D01*
X31277Y3379D01*
X31270Y3418D01*
X31176Y3558D01*
X31102Y3607D01*
X31152Y3727D01*
X31175Y3722D01*
Y4559D01*
X31084Y4541D01*
X30944Y4447D01*
X30869Y4336D01*
X30742Y4367D01*
X30742Y11634D01*
X27440Y11634D01*
Y13285D01*
X26510Y14215D01*
X26591Y14314D01*
X26639Y14281D01*
X26730Y14263D01*
Y14607D01*
X26387D01*
X26405Y14516D01*
X26438Y14467D01*
X26339Y14386D01*
X24392Y16333D01*
Y18084D01*
X33282D01*
Y4506D01*
D02*
G37*
G36*
X12534D02*
X11407Y3379D01*
X10529Y3379D01*
X10522Y3418D01*
X10428Y3558D01*
X10354Y3607D01*
X10404Y3727D01*
X10427Y3722D01*
Y4559D01*
X10336Y4541D01*
X10196Y4447D01*
X10121Y4336D01*
X9994Y4367D01*
X9994Y11634D01*
X6692Y11634D01*
Y13285D01*
X5762Y14215D01*
X5843Y14314D01*
X5891Y14281D01*
X5982Y14263D01*
Y14607D01*
X5639D01*
X5657Y14516D01*
X5690Y14467D01*
X5591Y14386D01*
X3644Y16333D01*
Y18084D01*
X12534D01*
Y4506D01*
D02*
G37*
G36*
X54724Y14617D02*
X54728Y14596D01*
X54735Y14573D01*
X54745Y14549D01*
X54759Y14523D01*
X54776Y14497D01*
X54796Y14470D01*
X54819Y14441D01*
X54875Y14381D01*
X54696Y14201D01*
X54665Y14231D01*
X54607Y14281D01*
X54579Y14301D01*
X54553Y14317D01*
X54528Y14331D01*
X54504Y14341D01*
X54481Y14348D01*
X54459Y14352D01*
X54438Y14353D01*
X54723Y14638D01*
X54724Y14617D01*
D02*
G37*
G36*
X54237Y13278D02*
X54223Y13257D01*
X54210Y13234D01*
X54200Y13209D01*
X54190Y13180D01*
X54183Y13149D01*
X54177Y13115D01*
X54173Y13079D01*
X54170Y12998D01*
X53916D01*
X53915Y13040D01*
X53908Y13115D01*
X53902Y13149D01*
X53895Y13180D01*
X53886Y13209D01*
X53875Y13234D01*
X53863Y13257D01*
X53848Y13278D01*
X53833Y13295D01*
X54253D01*
X54237Y13278D01*
D02*
G37*
G36*
X121592Y11608D02*
X121554Y11632D01*
X121506Y11652D01*
X121446Y11671D01*
X121374Y11686D01*
X121291Y11700D01*
X121091Y11719D01*
X120846Y11729D01*
X120706Y11730D01*
Y12492D01*
X120846Y12494D01*
X121291Y12523D01*
X121374Y12536D01*
X121446Y12552D01*
X121506Y12570D01*
X121554Y12591D01*
X121592Y12614D01*
Y11608D01*
D02*
G37*
G36*
X121466Y10083D02*
X121429Y10107D01*
X121380Y10128D01*
X121321Y10146D01*
X121251Y10162D01*
X121170Y10176D01*
X120975Y10195D01*
X120737Y10205D01*
X120602Y10206D01*
Y10968D01*
X120737Y10970D01*
X121170Y10999D01*
X121251Y11013D01*
X121321Y11029D01*
X121380Y11047D01*
X121429Y11068D01*
X121466Y11091D01*
Y10083D01*
D02*
G37*
G36*
X45482Y10118D02*
X45589Y9766D01*
X45630Y9665D01*
X45673Y9573D01*
X45718Y9490D01*
X45766Y9414D01*
X45817Y9348D01*
X45870Y9289D01*
X45731Y9069D01*
X45661Y9132D01*
X45586Y9186D01*
X45507Y9230D01*
X45424Y9265D01*
X45337Y9291D01*
X45245Y9307D01*
X45148Y9313D01*
X45047Y9311D01*
X44942Y9299D01*
X44832Y9277D01*
X45452Y10252D01*
X45482Y10118D01*
D02*
G37*
G36*
X48012Y9949D02*
X48020Y9833D01*
X48035Y9722D01*
X48056Y9618D01*
X48083Y9521D01*
X48117Y9429D01*
X48158Y9344D01*
X48205Y9266D01*
X48258Y9193D01*
X48318Y9127D01*
X48138Y8948D01*
X48072Y9007D01*
X48000Y9061D01*
X47921Y9107D01*
X47836Y9148D01*
X47745Y9182D01*
X47647Y9209D01*
X47543Y9231D01*
X47433Y9245D01*
X47316Y9254D01*
X47193Y9256D01*
X48010Y10072D01*
X48012Y9949D01*
D02*
G37*
G36*
X57161Y8067D02*
X57132Y8037D01*
X57083Y7978D01*
X57064Y7950D01*
X57047Y7923D01*
X57033Y7896D01*
X57023Y7871D01*
X57015Y7846D01*
X57011Y7821D01*
X57010Y7798D01*
X56713Y8095D01*
X56736Y8096D01*
X56761Y8100D01*
X56786Y8108D01*
X56811Y8118D01*
X56838Y8132D01*
X56865Y8149D01*
X56893Y8168D01*
X56922Y8191D01*
X56982Y8246D01*
X57161Y8067D01*
D02*
G37*
G36*
X57636Y7526D02*
X57611Y7500D01*
X57515Y7392D01*
X57509Y7383D01*
X57506Y7375D01*
X57506Y7370D01*
X57301Y7575D01*
X57306Y7575D01*
X57314Y7578D01*
X57323Y7584D01*
X57335Y7593D01*
X57367Y7619D01*
X57431Y7680D01*
X57457Y7705D01*
X57636Y7526D01*
D02*
G37*
G36*
X120960Y7034D02*
X120922Y7058D01*
X120875Y7079D01*
X120817Y7097D01*
X120749Y7114D01*
X120672Y7127D01*
X120486Y7147D01*
X120261Y7157D01*
X120134Y7158D01*
Y7920D01*
X120261Y7922D01*
X120672Y7951D01*
X120749Y7965D01*
X120817Y7981D01*
X120875Y8000D01*
X120922Y8021D01*
X120960Y8045D01*
Y7034D01*
D02*
G37*
G36*
X68444Y7525D02*
X68371Y7449D01*
X68307Y7370D01*
X68250Y7290D01*
X68201Y7209D01*
X68159Y7127D01*
X68125Y7042D01*
X68099Y6957D01*
X68081Y6870D01*
X68070Y6781D01*
X68067Y6692D01*
X67251Y7508D01*
X67340Y7511D01*
X67429Y7522D01*
X67516Y7540D01*
X67601Y7566D01*
X67686Y7600D01*
X67768Y7642D01*
X67849Y7691D01*
X67929Y7748D01*
X68008Y7812D01*
X68084Y7885D01*
X68444Y7525D01*
D02*
G37*
G36*
X68397Y5066D02*
X68324Y4988D01*
X68259Y4909D01*
X68204Y4829D01*
X68157Y4748D01*
X68119Y4666D01*
X68090Y4583D01*
X68070Y4499D01*
X68058Y4414D01*
X68055Y4328D01*
X68062Y4241D01*
X67161Y4964D01*
X67252Y4977D01*
X67342Y4996D01*
X67430Y5021D01*
X67516Y5053D01*
X67601Y5092D01*
X67683Y5137D01*
X67764Y5189D01*
X67843Y5247D01*
X67921Y5312D01*
X67996Y5383D01*
X68397Y5066D01*
D02*
G37*
G36*
X34368Y5143D02*
X34425Y5021D01*
Y3578D01*
X32409Y1562D01*
X28676D01*
X28637Y1689D01*
X28673Y1712D01*
X28767Y1853D01*
X28785Y1944D01*
X28366D01*
Y2019D01*
X28291D01*
Y2437D01*
X28200Y2419D01*
X28060Y2325D01*
X27966Y2185D01*
X27948Y2096D01*
X27821Y2108D01*
Y4395D01*
X29599D01*
X30512Y3482D01*
X30469Y3418D01*
X30436Y3252D01*
X30469Y3086D01*
X30563Y2945D01*
X30703Y2851D01*
X30869Y2818D01*
X31035Y2851D01*
X31176Y2945D01*
X31270Y3086D01*
X31277Y3125D01*
X32266D01*
X34288Y5147D01*
X34368Y5143D01*
D02*
G37*
G36*
X13620D02*
X13677Y5021D01*
Y3578D01*
X11661Y1562D01*
X7928D01*
X7889Y1689D01*
X7925Y1712D01*
X8019Y1853D01*
X8037Y1944D01*
X7618D01*
Y2019D01*
X7543D01*
Y2437D01*
X7452Y2419D01*
X7312Y2325D01*
X7218Y2185D01*
X7200Y2096D01*
X7073Y2108D01*
Y4395D01*
X8851D01*
X9764Y3482D01*
X9721Y3418D01*
X9688Y3252D01*
X9721Y3086D01*
X9815Y2945D01*
X9955Y2851D01*
X10121Y2818D01*
X10287Y2851D01*
X10428Y2945D01*
X10522Y3086D01*
X10529Y3125D01*
X11518D01*
X13540Y5147D01*
X13620Y5143D01*
D02*
G37*
G36*
X43552Y6997D02*
X43585Y6738D01*
X43640Y6509D01*
X43718Y6311D01*
X43817Y6144D01*
X43938Y6006D01*
X44082Y5900D01*
X44247Y5824D01*
X44435Y5778D01*
X44645Y5763D01*
Y4239D01*
X44435Y4223D01*
X44247Y4178D01*
X44082Y4101D01*
X43938Y3995D01*
X43817Y3858D01*
X43718Y3690D01*
X43640Y3492D01*
X43585Y3263D01*
X43552Y3004D01*
X43541Y2715D01*
X42017Y5001D01*
X43541Y7287D01*
X43552Y6997D01*
D02*
G37*
G36*
X78856Y1064D02*
X78800Y1106D01*
X78718Y1144D01*
X78612Y1177D01*
X78481Y1206D01*
X78326Y1230D01*
X77941Y1266D01*
X77457Y1284D01*
X77178Y1286D01*
Y1921D01*
X77457Y1923D01*
X78326Y1976D01*
X78481Y2001D01*
X78612Y2029D01*
X78718Y2063D01*
X78800Y2100D01*
X78856Y2143D01*
Y1064D01*
D02*
G37*
G36*
X68068Y2178D02*
X68087Y2124D01*
X68119Y2076D01*
X68163Y2035D01*
X68221Y2000D01*
X68291Y1972D01*
X68374Y1949D01*
X68470Y1934D01*
X68578Y1924D01*
X68699Y1921D01*
Y1286D01*
X68578Y1283D01*
X68470Y1273D01*
X68374Y1257D01*
X68291Y1235D01*
X68221Y1206D01*
X68163Y1172D01*
X68119Y1130D01*
X68087Y1083D01*
X68068Y1029D01*
X68061Y968D01*
Y2238D01*
X68068Y2178D01*
D02*
G37*
G36*
X114840Y1707D02*
X114685Y1547D01*
X114444Y1262D01*
X114356Y1137D01*
X114291Y1024D01*
X114248Y922D01*
X114227Y831D01*
X114228Y752D01*
X114252Y685D01*
X114298Y629D01*
X113457Y1368D01*
X113459Y1376D01*
X113477Y1400D01*
X113512Y1441D01*
X114078Y2022D01*
X114232Y2176D01*
X114840Y1707D01*
D02*
G37*
G36*
X44176Y473D02*
X44159Y488D01*
X44138Y503D01*
X44115Y515D01*
X44090Y526D01*
X44061Y535D01*
X44030Y542D01*
X43996Y548D01*
X43960Y552D01*
X43879Y556D01*
Y810D01*
X43921Y810D01*
X43996Y817D01*
X44030Y823D01*
X44061Y830D01*
X44090Y840D01*
X44115Y850D01*
X44138Y863D01*
X44159Y877D01*
X44176Y893D01*
Y473D01*
D02*
G37*
G36*
X27659Y2108D02*
X27680Y2058D01*
X27696Y2005D01*
X27703Y2001D01*
X27707Y1993D01*
X27757Y1973D01*
X27805Y1947D01*
X27821Y1945D01*
Y1220D01*
X32139D01*
X32319Y1399D01*
X32409D01*
X32524Y1447D01*
X32705Y1628D01*
X32730Y1645D01*
X34461Y3375D01*
X34478Y3401D01*
X34540Y3463D01*
X34588Y3578D01*
Y3633D01*
X35187D01*
Y358D01*
X26551D01*
Y3694D01*
X26642Y3768D01*
X26808Y3801D01*
X26949Y3895D01*
X27043Y4036D01*
X27076Y4202D01*
X27062Y4268D01*
X27165Y4395D01*
X27659D01*
Y2108D01*
D02*
G37*
G36*
X6911D02*
X6932Y2058D01*
X6948Y2005D01*
X6955Y2001D01*
X6959Y1993D01*
X7009Y1973D01*
X7057Y1947D01*
X7073Y1945D01*
Y1220D01*
X11391D01*
X11571Y1399D01*
X11661D01*
X11776Y1447D01*
X11957Y1628D01*
X11982Y1645D01*
X13713Y3375D01*
X13730Y3401D01*
X13792Y3463D01*
X13840Y3578D01*
Y3633D01*
X14439D01*
Y358D01*
X5803D01*
Y3694D01*
X5894Y3768D01*
X6060Y3801D01*
X6201Y3895D01*
X6295Y4036D01*
X6328Y4202D01*
X6314Y4268D01*
X6417Y4395D01*
X6911D01*
Y2108D01*
D02*
G37*
%LPC*%
G36*
X27694Y41789D02*
X27528Y41756D01*
X27388Y41662D01*
X27294Y41522D01*
X27261Y41356D01*
X27294Y41190D01*
X27388Y41049D01*
X27528Y40955D01*
X27694Y40922D01*
X27860Y40955D01*
X28001Y41049D01*
X28095Y41190D01*
X28128Y41356D01*
X28095Y41522D01*
X28001Y41662D01*
X27860Y41756D01*
X27694Y41789D01*
D02*
G37*
G36*
X26880Y39742D02*
Y39399D01*
X27224D01*
X27206Y39490D01*
X27112Y39630D01*
X26971Y39724D01*
X26880Y39742D01*
D02*
G37*
G36*
X26730D02*
X26639Y39724D01*
X26499Y39630D01*
X26405Y39490D01*
X26387Y39399D01*
X26730D01*
Y39742D01*
D02*
G37*
G36*
X27224Y39249D02*
X26880D01*
Y38905D01*
X26971Y38923D01*
X27112Y39017D01*
X27206Y39158D01*
X27224Y39249D01*
D02*
G37*
G36*
X29422Y38691D02*
X29256Y38658D01*
X29116Y38564D01*
X29022Y38424D01*
X28989Y38258D01*
X29022Y38092D01*
X29116Y37951D01*
X29256Y37857D01*
X29422Y37824D01*
X29588Y37857D01*
X29729Y37951D01*
X29823Y38092D01*
X29856Y38258D01*
X29823Y38424D01*
X29729Y38564D01*
X29588Y38658D01*
X29422Y38691D01*
D02*
G37*
G36*
X31319Y37117D02*
Y36774D01*
X31663D01*
X31645Y36864D01*
X31551Y37005D01*
X31410Y37099D01*
X31319Y37117D01*
D02*
G37*
G36*
X31169D02*
X31078Y37099D01*
X30938Y37005D01*
X30844Y36864D01*
X30826Y36774D01*
X31169D01*
Y37117D01*
D02*
G37*
G36*
X31663Y36624D02*
X31319D01*
Y36280D01*
X31410Y36298D01*
X31551Y36392D01*
X31645Y36533D01*
X31663Y36624D01*
D02*
G37*
G36*
X31169D02*
X30826D01*
X30844Y36533D01*
X30938Y36392D01*
X31078Y36298D01*
X31169Y36280D01*
Y36624D01*
D02*
G37*
G36*
X32393Y31502D02*
X32227Y31469D01*
X32087Y31375D01*
X31993Y31235D01*
X31960Y31069D01*
X31993Y30903D01*
X32087Y30762D01*
X32227Y30668D01*
X32393Y30635D01*
X32559Y30668D01*
X32700Y30762D01*
X32794Y30903D01*
X32827Y31069D01*
X32794Y31235D01*
X32700Y31375D01*
X32559Y31469D01*
X32393Y31502D01*
D02*
G37*
G36*
Y30512D02*
X32218Y30477D01*
X32069Y30377D01*
X31969Y30228D01*
X31935Y30053D01*
X31969Y29877D01*
X32069Y29728D01*
X32218Y29629D01*
X32393Y29594D01*
X32569Y29629D01*
X32718Y29728D01*
X32817Y29877D01*
X32852Y30053D01*
X32817Y30228D01*
X32718Y30377D01*
X32569Y30477D01*
X32393Y30512D01*
D02*
G37*
G36*
X31325Y29201D02*
Y28858D01*
X31669D01*
X31651Y28949D01*
X31557Y29089D01*
X31416Y29183D01*
X31325Y29201D01*
D02*
G37*
G36*
X31669Y28708D02*
X31325D01*
Y28364D01*
X31416Y28382D01*
X31557Y28476D01*
X31651Y28617D01*
X31669Y28708D01*
D02*
G37*
G36*
X6946Y41789D02*
X6780Y41756D01*
X6640Y41662D01*
X6546Y41522D01*
X6513Y41356D01*
X6546Y41190D01*
X6640Y41049D01*
X6780Y40955D01*
X6946Y40922D01*
X7112Y40955D01*
X7253Y41049D01*
X7347Y41190D01*
X7380Y41356D01*
X7347Y41522D01*
X7253Y41662D01*
X7112Y41756D01*
X6946Y41789D01*
D02*
G37*
G36*
X6132Y39742D02*
Y39399D01*
X6476D01*
X6458Y39490D01*
X6364Y39630D01*
X6223Y39724D01*
X6132Y39742D01*
D02*
G37*
G36*
X5982D02*
X5891Y39724D01*
X5751Y39630D01*
X5657Y39490D01*
X5639Y39399D01*
X5982D01*
Y39742D01*
D02*
G37*
G36*
X6476Y39249D02*
X6132D01*
Y38905D01*
X6223Y38923D01*
X6364Y39017D01*
X6458Y39158D01*
X6476Y39249D01*
D02*
G37*
G36*
X8674Y38691D02*
X8508Y38658D01*
X8368Y38564D01*
X8274Y38424D01*
X8241Y38258D01*
X8274Y38092D01*
X8368Y37951D01*
X8508Y37857D01*
X8674Y37824D01*
X8840Y37857D01*
X8981Y37951D01*
X9075Y38092D01*
X9108Y38258D01*
X9075Y38424D01*
X8981Y38564D01*
X8840Y38658D01*
X8674Y38691D01*
D02*
G37*
G36*
X10571Y37117D02*
Y36774D01*
X10915D01*
X10897Y36864D01*
X10803Y37005D01*
X10662Y37099D01*
X10571Y37117D01*
D02*
G37*
G36*
X10421D02*
X10330Y37099D01*
X10190Y37005D01*
X10096Y36864D01*
X10078Y36774D01*
X10421D01*
Y37117D01*
D02*
G37*
G36*
X10915Y36624D02*
X10571D01*
Y36280D01*
X10662Y36298D01*
X10803Y36392D01*
X10897Y36533D01*
X10915Y36624D01*
D02*
G37*
G36*
X10421D02*
X10078D01*
X10096Y36533D01*
X10190Y36392D01*
X10330Y36298D01*
X10421Y36280D01*
Y36624D01*
D02*
G37*
G36*
X11645Y31502D02*
X11479Y31469D01*
X11339Y31375D01*
X11245Y31235D01*
X11212Y31069D01*
X11245Y30903D01*
X11339Y30762D01*
X11479Y30668D01*
X11645Y30635D01*
X11811Y30668D01*
X11952Y30762D01*
X12046Y30903D01*
X12079Y31069D01*
X12046Y31235D01*
X11952Y31375D01*
X11811Y31469D01*
X11645Y31502D01*
D02*
G37*
G36*
Y30512D02*
X11470Y30477D01*
X11321Y30377D01*
X11221Y30228D01*
X11187Y30053D01*
X11221Y29877D01*
X11321Y29728D01*
X11470Y29629D01*
X11645Y29594D01*
X11821Y29629D01*
X11970Y29728D01*
X12069Y29877D01*
X12104Y30053D01*
X12069Y30228D01*
X11970Y30377D01*
X11821Y30477D01*
X11645Y30512D01*
D02*
G37*
G36*
X10577Y29201D02*
Y28858D01*
X10921D01*
X10903Y28949D01*
X10809Y29089D01*
X10668Y29183D01*
X10577Y29201D01*
D02*
G37*
G36*
X10921Y28708D02*
X10577D01*
Y28364D01*
X10668Y28382D01*
X10809Y28476D01*
X10903Y28617D01*
X10921Y28708D01*
D02*
G37*
G36*
X28441Y27079D02*
Y26736D01*
X28785D01*
X28767Y26827D01*
X28673Y26967D01*
X28532Y27061D01*
X28441Y27079D01*
D02*
G37*
G36*
X7693D02*
Y26736D01*
X8037D01*
X8019Y26827D01*
X7925Y26967D01*
X7784Y27061D01*
X7693Y27079D01*
D02*
G37*
G36*
X27269Y26145D02*
Y25802D01*
X27613D01*
X27595Y25893D01*
X27501Y26033D01*
X27360Y26127D01*
X27269Y26145D01*
D02*
G37*
G36*
X27119D02*
X27028Y26127D01*
X26888Y26033D01*
X26794Y25893D01*
X26776Y25802D01*
X27119D01*
Y26145D01*
D02*
G37*
G36*
X27613Y25652D02*
X27269D01*
Y25308D01*
X27360Y25327D01*
X27501Y25420D01*
X27595Y25561D01*
X27613Y25652D01*
D02*
G37*
G36*
X27119D02*
X26776D01*
X26794Y25561D01*
X26888Y25420D01*
X27028Y25327D01*
X27119Y25308D01*
Y25652D01*
D02*
G37*
G36*
X6521Y26145D02*
Y25802D01*
X6865D01*
X6847Y25893D01*
X6753Y26033D01*
X6612Y26127D01*
X6521Y26145D01*
D02*
G37*
G36*
X6371D02*
X6280Y26127D01*
X6140Y26033D01*
X6046Y25893D01*
X6028Y25802D01*
X6371D01*
Y26145D01*
D02*
G37*
G36*
X6865Y25652D02*
X6521D01*
Y25308D01*
X6612Y25327D01*
X6753Y25420D01*
X6847Y25561D01*
X6865Y25652D01*
D02*
G37*
G36*
X6371D02*
X6028D01*
X6046Y25561D01*
X6140Y25420D01*
X6280Y25327D01*
X6371Y25308D01*
Y25652D01*
D02*
G37*
G36*
X27694Y17147D02*
X27528Y17114D01*
X27388Y17020D01*
X27294Y16880D01*
X27261Y16714D01*
X27294Y16548D01*
X27388Y16407D01*
X27528Y16313D01*
X27694Y16280D01*
X27860Y16313D01*
X28001Y16407D01*
X28095Y16548D01*
X28128Y16714D01*
X28095Y16880D01*
X28001Y17020D01*
X27860Y17114D01*
X27694Y17147D01*
D02*
G37*
G36*
X26880Y15100D02*
Y14757D01*
X27224D01*
X27206Y14848D01*
X27112Y14988D01*
X26971Y15082D01*
X26880Y15100D01*
D02*
G37*
G36*
X26730D02*
X26639Y15082D01*
X26499Y14988D01*
X26405Y14848D01*
X26387Y14757D01*
X26730D01*
Y15100D01*
D02*
G37*
G36*
X27224Y14607D02*
X26880D01*
Y14263D01*
X26971Y14281D01*
X27112Y14375D01*
X27206Y14516D01*
X27224Y14607D01*
D02*
G37*
G36*
X29422Y14049D02*
X29256Y14016D01*
X29116Y13922D01*
X29022Y13782D01*
X28989Y13616D01*
X29022Y13450D01*
X29116Y13309D01*
X29256Y13215D01*
X29422Y13182D01*
X29588Y13215D01*
X29729Y13309D01*
X29823Y13450D01*
X29856Y13616D01*
X29823Y13782D01*
X29729Y13922D01*
X29588Y14016D01*
X29422Y14049D01*
D02*
G37*
G36*
X31319Y12475D02*
Y12132D01*
X31663D01*
X31645Y12222D01*
X31551Y12363D01*
X31410Y12457D01*
X31319Y12475D01*
D02*
G37*
G36*
X31169D02*
X31078Y12457D01*
X30938Y12363D01*
X30844Y12222D01*
X30826Y12132D01*
X31169D01*
Y12475D01*
D02*
G37*
G36*
X31663Y11982D02*
X31319D01*
Y11638D01*
X31410Y11656D01*
X31551Y11750D01*
X31645Y11891D01*
X31663Y11982D01*
D02*
G37*
G36*
X31169D02*
X30826D01*
X30844Y11891D01*
X30938Y11750D01*
X31078Y11656D01*
X31169Y11638D01*
Y11982D01*
D02*
G37*
G36*
X32393Y6860D02*
X32227Y6827D01*
X32087Y6733D01*
X31993Y6593D01*
X31960Y6427D01*
X31993Y6261D01*
X32087Y6120D01*
X32227Y6026D01*
X32393Y5993D01*
X32559Y6026D01*
X32700Y6120D01*
X32794Y6261D01*
X32827Y6427D01*
X32794Y6593D01*
X32700Y6733D01*
X32559Y6827D01*
X32393Y6860D01*
D02*
G37*
G36*
Y5870D02*
X32218Y5835D01*
X32069Y5735D01*
X31969Y5586D01*
X31935Y5411D01*
X31969Y5235D01*
X32069Y5086D01*
X32218Y4987D01*
X32393Y4952D01*
X32569Y4987D01*
X32718Y5086D01*
X32817Y5235D01*
X32852Y5411D01*
X32817Y5586D01*
X32718Y5735D01*
X32569Y5835D01*
X32393Y5870D01*
D02*
G37*
G36*
X31325Y4559D02*
Y4216D01*
X31669D01*
X31651Y4307D01*
X31557Y4447D01*
X31416Y4541D01*
X31325Y4559D01*
D02*
G37*
G36*
X31669Y4066D02*
X31325D01*
Y3722D01*
X31416Y3740D01*
X31557Y3834D01*
X31651Y3975D01*
X31669Y4066D01*
D02*
G37*
G36*
X6946Y17147D02*
X6780Y17114D01*
X6640Y17020D01*
X6546Y16880D01*
X6513Y16714D01*
X6546Y16548D01*
X6640Y16407D01*
X6780Y16313D01*
X6946Y16280D01*
X7112Y16313D01*
X7253Y16407D01*
X7347Y16548D01*
X7380Y16714D01*
X7347Y16880D01*
X7253Y17020D01*
X7112Y17114D01*
X6946Y17147D01*
D02*
G37*
G36*
X6132Y15100D02*
Y14757D01*
X6476D01*
X6458Y14848D01*
X6364Y14988D01*
X6223Y15082D01*
X6132Y15100D01*
D02*
G37*
G36*
X5982D02*
X5891Y15082D01*
X5751Y14988D01*
X5657Y14848D01*
X5639Y14757D01*
X5982D01*
Y15100D01*
D02*
G37*
G36*
X6476Y14607D02*
X6132D01*
Y14263D01*
X6223Y14281D01*
X6364Y14375D01*
X6458Y14516D01*
X6476Y14607D01*
D02*
G37*
G36*
X8674Y14049D02*
X8508Y14016D01*
X8368Y13922D01*
X8274Y13782D01*
X8241Y13616D01*
X8274Y13450D01*
X8368Y13309D01*
X8508Y13215D01*
X8674Y13182D01*
X8840Y13215D01*
X8981Y13309D01*
X9075Y13450D01*
X9108Y13616D01*
X9075Y13782D01*
X8981Y13922D01*
X8840Y14016D01*
X8674Y14049D01*
D02*
G37*
G36*
X10571Y12475D02*
Y12132D01*
X10915D01*
X10897Y12222D01*
X10803Y12363D01*
X10662Y12457D01*
X10571Y12475D01*
D02*
G37*
G36*
X10421D02*
X10330Y12457D01*
X10190Y12363D01*
X10096Y12222D01*
X10078Y12132D01*
X10421D01*
Y12475D01*
D02*
G37*
G36*
X10915Y11982D02*
X10571D01*
Y11638D01*
X10662Y11656D01*
X10803Y11750D01*
X10897Y11891D01*
X10915Y11982D01*
D02*
G37*
G36*
X10421D02*
X10078D01*
X10096Y11891D01*
X10190Y11750D01*
X10330Y11656D01*
X10421Y11638D01*
Y11982D01*
D02*
G37*
G36*
X11645Y6860D02*
X11479Y6827D01*
X11339Y6733D01*
X11245Y6593D01*
X11212Y6427D01*
X11245Y6261D01*
X11339Y6120D01*
X11479Y6026D01*
X11645Y5993D01*
X11811Y6026D01*
X11952Y6120D01*
X12046Y6261D01*
X12079Y6427D01*
X12046Y6593D01*
X11952Y6733D01*
X11811Y6827D01*
X11645Y6860D01*
D02*
G37*
G36*
Y5870D02*
X11470Y5835D01*
X11321Y5735D01*
X11221Y5586D01*
X11187Y5411D01*
X11221Y5235D01*
X11321Y5086D01*
X11470Y4987D01*
X11645Y4952D01*
X11821Y4987D01*
X11970Y5086D01*
X12069Y5235D01*
X12104Y5411D01*
X12069Y5586D01*
X11970Y5735D01*
X11821Y5835D01*
X11645Y5870D01*
D02*
G37*
G36*
X10577Y4559D02*
Y4216D01*
X10921D01*
X10903Y4307D01*
X10809Y4447D01*
X10668Y4541D01*
X10577Y4559D01*
D02*
G37*
G36*
X10921Y4066D02*
X10577D01*
Y3722D01*
X10668Y3740D01*
X10809Y3834D01*
X10903Y3975D01*
X10921Y4066D01*
D02*
G37*
G36*
X28441Y2437D02*
Y2094D01*
X28785D01*
X28767Y2185D01*
X28673Y2325D01*
X28532Y2419D01*
X28441Y2437D01*
D02*
G37*
G36*
X7693D02*
Y2094D01*
X8037D01*
X8019Y2185D01*
X7925Y2325D01*
X7784Y2419D01*
X7693Y2437D01*
D02*
G37*
G36*
X27269Y1503D02*
Y1160D01*
X27613D01*
X27595Y1251D01*
X27501Y1391D01*
X27360Y1485D01*
X27269Y1503D01*
D02*
G37*
G36*
X27119D02*
X27028Y1485D01*
X26888Y1391D01*
X26794Y1251D01*
X26776Y1160D01*
X27119D01*
Y1503D01*
D02*
G37*
G36*
X27613Y1010D02*
X27269D01*
Y666D01*
X27360Y685D01*
X27501Y778D01*
X27595Y919D01*
X27613Y1010D01*
D02*
G37*
G36*
X27119D02*
X26776D01*
X26794Y919D01*
X26888Y778D01*
X27028Y685D01*
X27119Y666D01*
Y1010D01*
D02*
G37*
G36*
X6521Y1503D02*
Y1160D01*
X6865D01*
X6847Y1251D01*
X6753Y1391D01*
X6612Y1485D01*
X6521Y1503D01*
D02*
G37*
G36*
X6371D02*
X6280Y1485D01*
X6140Y1391D01*
X6046Y1251D01*
X6028Y1160D01*
X6371D01*
Y1503D01*
D02*
G37*
G36*
X6865Y1010D02*
X6521D01*
Y666D01*
X6612Y685D01*
X6753Y778D01*
X6847Y919D01*
X6865Y1010D01*
D02*
G37*
G36*
X6371D02*
X6028D01*
X6046Y919D01*
X6140Y778D01*
X6280Y685D01*
X6371Y666D01*
Y1010D01*
D02*
G37*
%LPD*%
D11*
X71433Y27257D02*
X74724Y23966D01*
X76375D02*
X77529Y22812D01*
X74724Y23966D02*
X76375D01*
X70850Y26985D02*
X74989Y22846D01*
Y22812D01*
X70850Y31396D02*
Y26985D01*
X71433Y31638D02*
Y27257D01*
X69771Y32475D02*
X70850Y31396D01*
X67824Y35247D02*
X71433Y31638D01*
X63548Y37787D02*
Y35821D01*
X64354Y35015D01*
X64702Y36401D02*
X64956D01*
X66110Y35247D02*
X67824D01*
X64956Y36401D02*
X66110Y35247D01*
X65972Y34369D02*
Y33499D01*
X65326Y35015D02*
X65972Y34369D01*
Y33499D02*
X66996Y32475D01*
X64354Y35015D02*
X65326D01*
X66996Y32475D02*
X69771D01*
X70163Y9604D02*
X67242Y6683D01*
X74176Y18886D02*
X70163Y14874D01*
Y9604D01*
X73804Y17690D02*
X70746Y14632D01*
Y7774D01*
X67242Y4270D01*
X73804Y17690D02*
X74947D01*
X74989Y17732D02*
X74947Y17690D01*
X74176Y18886D02*
X76375D01*
X67242Y4270D02*
Y4143D01*
X76375Y18886D02*
X77529Y17732D01*
X64702Y38941D02*
X63548Y37787D01*
D12*
X104025Y42056D02*
X104042Y42073D01*
X132043Y956D02*
X132059Y973D01*
X125234Y42056D02*
X125251Y42073D01*
X110834Y946D02*
X110850Y963D01*
X144966Y21636D02*
X146870D01*
X145220Y21509D02*
X146997D01*
X145093Y21382D02*
X145220Y21509D01*
X146870Y21636D02*
X146997Y21509D01*
X89087D02*
Y26336D01*
X95309Y32558D01*
X91214Y20557D02*
X97087D01*
X90261Y21509D02*
X91214Y20557D01*
X89087Y21509D02*
X90261D01*
X97087Y20557D02*
Y24367D01*
X132012Y12238D02*
X132088Y12163D01*
X133028Y10714D02*
X133088Y10655D01*
X134088Y9020D02*
X134171Y8936D01*
X135160Y7512D02*
X135187Y7539D01*
X111923Y1908D02*
X120602Y10587D01*
X121852D01*
X110896Y2301D02*
X120706Y12111D01*
X121979D01*
X120368Y9063D02*
X121598D01*
X121630Y9032D01*
X120134Y7539D02*
X121344D01*
X113879Y946D02*
X113923Y990D01*
Y1329D01*
X120134Y7539D01*
X112896Y963D02*
Y1591D01*
X120368Y9063D01*
X111879Y970D02*
X111923Y1014D01*
Y1908D01*
X111879Y946D02*
Y970D01*
X110896Y963D02*
Y2301D01*
X110879Y946D02*
X110896Y963D01*
X112879Y946D02*
X112896Y963D01*
X92004Y157463D02*
X92021Y157446D01*
X44503Y114849D02*
X44487Y114832D01*
X134636Y109945D02*
X134619Y109929D01*
X87101Y67331D02*
X87118Y67314D01*
X32299Y4141D02*
X31250D01*
X32299D02*
X34917Y6759D01*
X31250Y12051D02*
X31244Y12057D01*
X35784Y6759D02*
X34917D01*
X32299Y28783D02*
X31250D01*
X32299D02*
X34917Y31401D01*
X31250Y36693D02*
X31244Y36699D01*
X35784Y31401D02*
X34917D01*
X11551Y4141D02*
X10502D01*
X11551D02*
X14169Y6759D01*
X10502Y12051D02*
X10496Y12057D01*
X15036Y6759D02*
X14169D01*
X11551Y28783D02*
X10502D01*
X11551D02*
X14169Y31401D01*
X10502Y36693D02*
X10496Y36699D01*
X15036Y31401D02*
X14169D01*
D13*
X79395Y21288D02*
Y1603D01*
Y38052D02*
Y21288D01*
X70163Y41608D02*
X78502D01*
X79395Y40716D01*
Y38052D01*
X77529D02*
X79395D01*
X42779Y24051D02*
Y26337D01*
Y5001D02*
Y24051D01*
Y770D02*
Y5001D01*
X44645D02*
X42779D01*
D14*
X102001Y42032D02*
X102042Y42073D01*
X103042Y42015D02*
Y42073D01*
X100935Y41965D02*
X101042Y42073D01*
X135043Y956D02*
X135150Y1064D01*
X133043Y956D02*
Y1015D01*
X134043Y956D02*
X134084Y997D01*
X123210Y42032D02*
X123251Y42073D01*
X124251Y42015D02*
Y42073D01*
X122144Y41965D02*
X122251Y42073D01*
X113834Y946D02*
X113941Y1053D01*
X111834Y946D02*
Y1004D01*
X112834Y946D02*
X112875Y987D01*
X71687Y21542D02*
X79141D01*
X79395Y21288D01*
X70417Y22812D02*
X71687Y21542D01*
X64702Y41481D02*
X65920Y40264D01*
X68819D01*
X70163Y41608D02*
X68819Y40264D01*
X67242Y1603D02*
X79395D01*
X53408Y24051D02*
X42779D01*
X55694Y21765D02*
X53408Y24051D01*
X94004Y157463D02*
X94045Y157422D01*
X93004Y157463D02*
Y157405D01*
X95004Y157463D02*
X95112Y157356D01*
X44594Y117939D02*
X44487Y117832D01*
Y115832D02*
X44545D01*
X44528Y116873D02*
X44487Y116832D01*
X134636Y107945D02*
X134594Y107904D01*
X134577Y108945D02*
X134636D01*
Y106945D02*
X134528Y106838D01*
X84010Y67422D02*
X84118Y67314D01*
X86118Y67372D02*
Y67314D01*
X85077Y67355D02*
X85118Y67314D01*
X34124Y3712D02*
Y4720D01*
X32393Y1982D02*
X34124Y3712D01*
X32393Y1982D02*
X28403D01*
X34124Y4720D02*
X35073Y5668D01*
X32607Y1085D02*
X27194D01*
X32607D02*
X34909Y3387D01*
X35760Y4735D02*
X35249D01*
X34909Y3387D02*
Y4394D01*
X35760Y4735D02*
X35801Y4776D01*
X34909Y4394D02*
X35249Y4735D01*
X28403Y1982D02*
X28366Y2019D01*
X35636Y5668D02*
X35743Y5776D01*
X35801D02*
X35743D01*
X35636Y5668D02*
X35073D01*
X35694Y3668D02*
X35801Y3776D01*
X34124Y28354D02*
Y29362D01*
X32393Y26624D02*
X34124Y28354D01*
X32393Y26624D02*
X28403D01*
X34124Y29362D02*
X35073Y30310D01*
X32607Y25727D02*
X27194D01*
X32607D02*
X34909Y28029D01*
X35760Y29377D02*
X35249D01*
X34909Y28029D02*
Y29036D01*
X35760Y29377D02*
X35801Y29418D01*
X34909Y29036D02*
X35249Y29377D01*
X28403Y26624D02*
X28366Y26661D01*
X35636Y30310D02*
X35743Y30418D01*
X35801D02*
X35743D01*
X35636Y30310D02*
X35073D01*
X35694Y28310D02*
X35801Y28418D01*
X13376Y3712D02*
Y4720D01*
X11645Y1982D02*
X13376Y3712D01*
X11645Y1982D02*
X7655D01*
X13376Y4720D02*
X14325Y5668D01*
X11859Y1085D02*
X6446D01*
X11859D02*
X14161Y3387D01*
X15012Y4735D02*
X14501D01*
X14161Y3387D02*
Y4394D01*
X15012Y4735D02*
X15053Y4776D01*
X14161Y4394D02*
X14501Y4735D01*
X7655Y1982D02*
X7618Y2019D01*
X14888Y5668D02*
X14995Y5776D01*
X15053D02*
X14995D01*
X14888Y5668D02*
X14325D01*
X14946Y3668D02*
X15053Y3776D01*
X13376Y28354D02*
Y29362D01*
X11645Y26624D02*
X13376Y28354D01*
X11645Y26624D02*
X7655D01*
X13376Y29362D02*
X14325Y30310D01*
X11859Y25727D02*
X6446D01*
X11859D02*
X14161Y28029D01*
X15012Y29377D02*
X14501D01*
X14161Y28029D02*
Y29036D01*
X15012Y29377D02*
X15053Y29418D01*
X14161Y29036D02*
X14501Y29377D01*
X7655Y26624D02*
X7618Y26661D01*
X14888Y30310D02*
X14995Y30418D01*
X15053D02*
X14995D01*
X14888Y30310D02*
X14325D01*
X14946Y28310D02*
X15053Y28418D01*
D16*
X44391Y683D02*
X42867D01*
X42779Y770D01*
X44899Y10081D02*
X44645D01*
X46169Y8811D02*
X44899Y10081D01*
X48455Y7723D02*
X47367Y8811D01*
X46169D01*
X48455Y5001D02*
Y7723D01*
X49090Y8176D02*
X47185Y10081D01*
X49090Y5255D02*
Y8176D01*
X49598Y4747D02*
X49090Y5255D01*
X51291Y4747D02*
X49598D01*
X53365Y4366D02*
X49090D01*
X48455Y5001D01*
X53365Y4366D02*
X54799Y5799D01*
X51291Y4747D02*
X54043Y7498D01*
Y13510D01*
X54805Y32052D02*
Y33068D01*
X55313Y34084D02*
X54932Y34465D01*
X51079Y27861D02*
X55313Y32094D01*
Y34084D01*
X51641Y28888D02*
X46759D01*
X51641D02*
X54805Y32052D01*
X51079Y27861D02*
X47185D01*
X56964Y31798D02*
Y35354D01*
X51809Y26643D02*
X56964Y31798D01*
Y35354D02*
X56075Y36243D01*
X56583Y34084D02*
X56202Y34465D01*
X56583Y31882D02*
Y34084D01*
X51672Y26972D02*
X56583Y31882D01*
X56075Y36243D02*
Y36243D01*
X54424Y14653D02*
Y14653D01*
X54799Y5799D02*
Y14278D01*
X54424Y14653D01*
X47610Y14134D02*
X48631Y15155D01*
X54853D02*
X48631D01*
X57218Y12790D02*
X54853Y15155D01*
X47185Y15161D02*
X47508Y15484D01*
X54990D02*
X47508D01*
X57547Y12927D02*
X54990Y15484D01*
X57547Y7616D02*
Y12927D01*
X57218Y7287D02*
X57547Y7616D01*
X57218Y8303D02*
Y12790D01*
X56710Y7795D02*
X57218Y8303D01*
X46759Y14134D02*
X45851Y15042D01*
X47610Y14134D02*
X46759D01*
X44763Y15042D02*
X44645Y15161D01*
X45851Y15042D02*
X44763D01*
X51672Y26972D02*
X48370D01*
X47826Y26428D02*
X48370Y26972D01*
X47185Y25321D02*
X48507Y26643D01*
X51809D02*
X48507D01*
X44645Y25321D02*
X44763Y25439D01*
X45851D02*
X44763D01*
X45851D02*
X46839Y26428D01*
X47826D02*
X46839D01*
X45851Y27979D02*
X46759Y28888D01*
X45851Y27979D02*
X44763D01*
X44645Y27861D02*
X44763Y27979D01*
D17*
X144585Y30145D02*
X144966Y29764D01*
X146997Y21509D02*
Y22137D01*
X144966Y24168D02*
X146997Y22137D01*
X144966Y24168D02*
Y29764D01*
X143488Y11903D02*
Y26981D01*
X141156Y7539D02*
X144966Y11349D01*
X146997Y20881D02*
Y21509D01*
X144966Y18850D02*
X146997Y20881D01*
X144966Y11349D02*
Y18850D01*
X140617Y9032D02*
X143488Y11903D01*
X133088Y10587D02*
X140164D01*
X142068Y12492D02*
Y23691D01*
X139632Y12111D02*
X140648Y13127D01*
X135187Y7539D02*
X141156D01*
X140164Y10587D02*
X142068Y12492D01*
X140648Y13127D02*
Y20239D01*
X134171Y9032D02*
X140617D01*
X132088Y12111D02*
X139632D01*
X138720Y31565D02*
X150785D01*
X139309Y32985D02*
X151905D01*
X139862Y34440D02*
X150810D01*
X140450Y35860D02*
X149792D01*
X95309Y32558D02*
X100389Y37638D01*
X104072D01*
X121979Y12111D02*
X132012D01*
X121852Y10587D02*
X133028D01*
X121630Y9032D02*
X134088D01*
X121344Y7539D02*
X135187D01*
X109534Y34772D02*
X137522D01*
X138060Y36242D02*
X139862Y34440D01*
X150810D02*
X151849Y35479D01*
X138614Y37696D02*
X140450Y35860D01*
X149792D02*
X151951Y38019D01*
X150785Y31565D02*
X151951Y30399D01*
X136934Y33352D02*
X138720Y31565D01*
X151905Y32985D02*
X151951Y32939D01*
X137522Y34772D02*
X139309Y32985D01*
X104072Y37638D02*
X122118D01*
X122176Y37696D01*
X106866Y36202D02*
X123210D01*
X123250Y36242D01*
X109533Y34771D02*
X109534Y34772D01*
X112327Y33320D02*
X125218D01*
X125250Y33352D01*
X136934D01*
X122176Y37696D02*
X138614D01*
X123250Y36242D02*
X138060D01*
X151849Y35479D02*
X151951D01*
D19*
X4471Y163824D02*
X18314D01*
X4923Y158621D02*
X4927Y158617D01*
X20715D01*
X4471Y163824D02*
X2383Y161736D01*
Y161161D01*
X4923D02*
X4927Y161157D01*
X19451D01*
D30*
X101997Y42073D02*
D03*
X102997D02*
D03*
X103997D02*
D03*
X132088Y956D02*
D03*
X133088D02*
D03*
X134088D02*
D03*
X123206Y42073D02*
D03*
X124206D02*
D03*
X125206D02*
D03*
X110879Y946D02*
D03*
X111879D02*
D03*
X112879D02*
D03*
X94050Y157463D02*
D03*
X93050D02*
D03*
X92050D02*
D03*
X44487Y114877D02*
D03*
Y115877D02*
D03*
Y116877D02*
D03*
X134636Y107900D02*
D03*
Y108900D02*
D03*
Y109900D02*
D03*
X87073Y67314D02*
D03*
X86073D02*
D03*
X85073D02*
D03*
X35801Y4730D02*
D03*
Y5730D02*
D03*
Y6730D02*
D03*
Y29372D02*
D03*
Y30372D02*
D03*
Y31372D02*
D03*
X15053Y4730D02*
D03*
Y5730D02*
D03*
Y6730D02*
D03*
Y29372D02*
D03*
Y30372D02*
D03*
Y31372D02*
D03*
D31*
X100997Y42073D02*
D03*
X135088Y956D02*
D03*
X122206Y42073D02*
D03*
X113879Y946D02*
D03*
X95050Y157463D02*
D03*
X84073Y67314D02*
D03*
D32*
X95309Y32558D02*
D03*
D34*
X151951Y30399D02*
D03*
Y32939D02*
D03*
Y38019D02*
D03*
Y35479D02*
D03*
X67242Y6683D02*
D03*
Y4143D02*
D03*
X77529Y17732D02*
D03*
X74989D02*
D03*
X77529Y22812D02*
D03*
X74989D02*
D03*
X77529Y38052D02*
D03*
X64702Y38941D02*
D03*
Y36401D02*
D03*
X44645Y25321D02*
D03*
X47185D02*
D03*
X44645Y10081D02*
D03*
X47185D02*
D03*
X44645Y5001D02*
D03*
X47185Y15161D02*
D03*
X44645D02*
D03*
X47185Y27861D02*
D03*
X44645D02*
D03*
X4923Y161161D02*
D03*
Y158621D02*
D03*
D35*
X67242Y1603D02*
D03*
X64702Y41481D02*
D03*
X2383Y161161D02*
D03*
D37*
X146997Y21509D02*
D03*
X89087D02*
D03*
D38*
X97087Y20557D02*
D03*
Y24367D02*
D03*
D39*
X144585Y30145D02*
D03*
X143488Y26981D02*
D03*
X140648Y20239D02*
D03*
X142068Y23691D02*
D03*
X132088Y12163D02*
D03*
X133088Y10655D02*
D03*
X134088Y9020D02*
D03*
X135160Y7512D02*
D03*
X104072Y37638D02*
D03*
X106866Y36202D02*
D03*
X109533Y34771D02*
D03*
X112327Y33320D02*
D03*
X122176Y37696D02*
D03*
X124207Y34798D02*
D03*
X123250Y36242D02*
D03*
X125250Y33352D02*
D03*
X29998Y88894D02*
D03*
X33046Y83814D02*
D03*
X35840Y78861D02*
D03*
X35078Y114877D02*
D03*
X33808Y115818D02*
D03*
X30887Y116834D02*
D03*
X85116Y53842D02*
D03*
X86132Y56509D02*
D03*
X87021Y59430D02*
D03*
X148200Y107945D02*
D03*
X145366Y108797D02*
D03*
X142520Y109849D02*
D03*
X92990Y168015D02*
D03*
X93013Y167126D02*
D03*
X94007Y170047D02*
D03*
X92112Y164691D02*
D03*
X92101Y165475D02*
D03*
X48159Y164840D02*
D03*
X45873Y170301D02*
D03*
X47016Y167507D02*
D03*
X34778Y165302D02*
D03*
X35081Y170681D02*
D03*
X34951Y168015D02*
D03*
X35892Y114877D02*
D03*
X30125Y116834D02*
D03*
X32919Y115818D02*
D03*
X87025Y58709D02*
D03*
X148870Y107944D02*
D03*
X146076Y108960D02*
D03*
X85062Y53026D02*
D03*
X86132Y55874D02*
D03*
X34316Y167992D02*
D03*
X34143Y165302D02*
D03*
X34316Y170682D02*
D03*
X46520D02*
D03*
X47634Y167992D02*
D03*
X48748Y165302D02*
D03*
X143282Y109849D02*
D03*
X94006Y170809D02*
D03*
X26805Y14682D02*
D03*
X31250Y4141D02*
D03*
X28366Y2019D02*
D03*
X27194Y1085D02*
D03*
X31244Y12057D02*
D03*
X26805Y39324D02*
D03*
X31250Y28783D02*
D03*
X28366Y26661D02*
D03*
X27194Y25727D02*
D03*
X31244Y36699D02*
D03*
X6057Y14682D02*
D03*
X10502Y4141D02*
D03*
X7618Y2019D02*
D03*
X6446Y1085D02*
D03*
X10496Y12057D02*
D03*
X6057Y39324D02*
D03*
X10502Y28783D02*
D03*
X7618Y26661D02*
D03*
X6446Y25727D02*
D03*
X10496Y36699D02*
D03*
D40*
X70417Y22812D02*
D03*
D42*
X55694Y21765D02*
D03*
D46*
X44391Y683D02*
D03*
X54805Y33068D02*
D03*
X56075Y36243D02*
D03*
X56202Y34465D02*
D03*
X54043Y13510D02*
D03*
X54424Y14653D02*
D03*
X57218Y7287D02*
D03*
X56710Y7795D02*
D03*
X54932Y34465D02*
D03*
D49*
X44487Y117877D02*
D03*
X134636Y106900D02*
D03*
X35801Y3730D02*
D03*
Y28372D02*
D03*
X15053Y3730D02*
D03*
Y28372D02*
D03*
D54*
X30125Y116834D02*
Y71125D01*
X46520Y170682D02*
X103150D01*
X32919Y115818D02*
Y72135D01*
X35736Y133003D02*
Y73123D01*
X25172Y170682D02*
X18314Y163824D01*
X25172Y170682D02*
X34316D01*
X26286Y167992D02*
X19451Y161157D01*
X26286Y167992D02*
X34316D01*
X27400Y165302D02*
X20715Y158617D01*
X27400Y165302D02*
X34143D01*
X50150Y58709D02*
X87025D01*
X143282Y122803D02*
Y109849D01*
X48748Y165302D02*
X100783D01*
X48748D02*
X35713Y152267D01*
Y133026D02*
X35736Y133003D01*
X30125Y154287D02*
Y116834D01*
X46520Y170682D02*
X30125Y154287D01*
X86132Y55874D02*
X86177D01*
X47634Y167992D02*
X101897D01*
X32919Y153277D02*
Y115818D01*
X47634Y167992D02*
X32919Y153277D01*
X35713Y152267D02*
Y133026D01*
X30125Y71125D02*
X48224Y53026D01*
X32919Y72135D02*
X49181Y55874D01*
X35736Y73123D02*
X50150Y58709D01*
X48224Y53026D02*
X85062D01*
X49181Y55874D02*
X86132D01*
X148766Y125066D02*
Y108048D01*
X103150Y170682D02*
X148766Y125066D01*
X146076Y123813D02*
Y108960D01*
X101897Y167992D02*
X146076Y123813D01*
X100783Y165302D02*
X143282Y122803D01*
M02*
