G04*
G04 #@! TF.GenerationSoftware,Altium Limited,Altium Designer,20.0.14 (345)*
G04*
G04 Layer_Color=32896*
%FSLAX43Y43*%
%MOMM*%
G71*
G01*
G75*
%ADD57C,0.200*%
%ADD58C,0.152*%
%ADD59C,0.127*%
%ADD60C,0.250*%
D57*
X97491Y28899D02*
X115492D01*
X97491Y27349D02*
X115492D01*
X100497Y42848D02*
X112497D01*
X100497Y41298D02*
X112497D01*
X123588Y1731D02*
X135588D01*
X123588Y181D02*
X135588D01*
X120593Y15680D02*
X138594D01*
X120593Y14130D02*
X138594D01*
X118700Y28899D02*
X136701D01*
X118700Y27349D02*
X136701D01*
X121706Y42848D02*
X133706D01*
X121706Y41298D02*
X133706D01*
X102379Y1721D02*
X114379D01*
X102379Y171D02*
X114379D01*
X99384Y15670D02*
X117385D01*
X99384Y14120D02*
X117385D01*
X94039Y33828D02*
X96579D01*
X94039Y28748D02*
Y33828D01*
Y28748D02*
X96579D01*
Y33828D01*
X94039Y14524D02*
X96579D01*
X94039Y9444D02*
Y14524D01*
Y9444D02*
X96579D01*
Y14524D01*
X150606Y3579D02*
X155836D01*
X150606D02*
Y39439D01*
X155836Y3579D02*
Y39439D01*
X150606D02*
X155836D01*
D58*
X152321Y2592D02*
Y3269D01*
X151644Y2592D01*
X151475D01*
X151306Y2762D01*
Y3100D01*
X151475Y3269D01*
Y2254D02*
X151306Y2084D01*
Y1746D01*
X151475Y1577D01*
X151644D01*
X151814Y1746D01*
X151983Y1577D01*
X152152D01*
X152321Y1746D01*
Y2084D01*
X152152Y2254D01*
X151983D01*
X151814Y2084D01*
X151644Y2254D01*
X151475D01*
X151814Y2084D02*
Y1746D01*
X155021Y2592D02*
Y3269D01*
X154344Y2592D01*
X154175D01*
X154006Y2762D01*
Y3100D01*
X154175Y3269D01*
X154006Y2254D02*
Y1577D01*
X154175D01*
X154852Y2254D01*
X155021D01*
X152321Y39772D02*
Y40449D01*
X151644Y39772D01*
X151475D01*
X151306Y39942D01*
Y40280D01*
X151475Y40449D01*
X155021Y40149D02*
Y39811D01*
Y39980D01*
X154006D01*
X154175Y40149D01*
D59*
X97216Y42983D02*
X115758D01*
X97216Y27235D02*
Y42983D01*
Y27235D02*
X115758D01*
Y42983D01*
X120327Y46D02*
Y15794D01*
X138869D01*
Y46D02*
Y15794D01*
X120327Y46D02*
X138869D01*
X118425Y42983D02*
X136967D01*
X118425Y27235D02*
Y42983D01*
Y27235D02*
X136967D01*
Y42983D01*
X99118Y36D02*
Y15784D01*
X117660D01*
Y36D02*
Y15784D01*
X99118Y36D02*
X117660D01*
X90000Y808D02*
X89365D01*
X89238Y935D01*
Y1189D01*
X89365Y1316D01*
X90000D01*
X89238Y1570D02*
X90000D01*
X89238Y2078D01*
X90000D01*
Y2332D02*
Y2586D01*
Y2459D01*
X89238D01*
Y2332D01*
Y2586D01*
X90000Y2967D02*
Y3474D01*
Y3221D01*
X89238D01*
X90000Y4490D02*
X89492D01*
X89238Y4744D01*
X89492Y4998D01*
X90000D01*
X89238Y5633D02*
X90000D01*
X89619Y5252D01*
Y5760D01*
X88527Y1316D02*
X88654Y1189D01*
Y935D01*
X88527Y808D01*
X88019D01*
X87892Y935D01*
Y1189D01*
X88019Y1316D01*
X88273D01*
Y1062D01*
X87892Y1570D02*
X88019D01*
Y1697D01*
X87892D01*
Y1570D01*
X88654Y3348D02*
Y3094D01*
X88527Y2967D01*
X88019D01*
X87892Y3094D01*
Y3348D01*
X88019Y3474D01*
X88527D01*
X88654Y3348D01*
X88781Y3855D02*
X88527D01*
X88400Y3728D01*
X88654Y4236D02*
X87892D01*
Y4744D01*
Y5379D02*
Y5125D01*
X88019Y4998D01*
X88273D01*
X88400Y5125D01*
Y5379D01*
X88273Y5506D01*
X88146D01*
Y4998D01*
X88400Y5887D02*
Y6141D01*
X88273Y6268D01*
X87892D01*
Y5887D01*
X88019Y5760D01*
X88146Y5887D01*
Y6268D01*
X88400Y6522D02*
X87892D01*
X88146D01*
X88273Y6648D01*
X88400Y6775D01*
Y6902D01*
Y7283D02*
X88019D01*
X87892Y7410D01*
Y7791D01*
X87765D01*
X87638Y7664D01*
Y7537D01*
X87892Y7791D02*
X88400D01*
X86419Y808D02*
X87181D01*
X86419Y1316D01*
X87181D01*
X86419Y2078D02*
Y1570D01*
X86927Y2078D01*
X87054D01*
X87181Y1951D01*
Y1697D01*
X87054Y1570D01*
X87181Y2332D02*
X86419D01*
Y2713D01*
X86546Y2840D01*
X86673D01*
X86800Y2713D01*
Y2332D01*
Y2713D01*
X86927Y2840D01*
X87054D01*
X87181Y2713D01*
Y2332D01*
Y3094D02*
X86419D01*
Y3601D01*
Y5125D02*
Y4617D01*
X86927Y5125D01*
X87054D01*
X87181Y4998D01*
Y4744D01*
X87054Y4617D01*
Y5379D02*
X87181Y5506D01*
Y5760D01*
X87054Y5887D01*
X86546D01*
X86419Y5760D01*
Y5506D01*
X86546Y5379D01*
X87054D01*
X86419Y6648D02*
Y6141D01*
X86927Y6648D01*
X87054D01*
X87181Y6522D01*
Y6268D01*
X87054Y6141D01*
Y6902D02*
X87181Y7029D01*
Y7283D01*
X87054Y7410D01*
X86546D01*
X86419Y7283D01*
Y7029D01*
X86546Y6902D01*
X87054D01*
X98611Y15159D02*
X97849D01*
X98103Y14905D01*
X97849Y14651D01*
X98611D01*
X97976Y14397D02*
X97849Y14270D01*
Y14017D01*
X97976Y13890D01*
X98103D01*
X98230Y14017D01*
Y14143D01*
Y14017D01*
X98357Y13890D01*
X98484D01*
X98611Y14017D01*
Y14270D01*
X98484Y14397D01*
X138235Y27860D02*
X138997D01*
X138743Y28113D01*
X138997Y28367D01*
X138235D01*
Y28621D02*
Y28875D01*
Y28748D01*
X138997D01*
X138870Y28621D01*
X92706Y9826D02*
X93468D01*
Y10207D01*
X93341Y10334D01*
X93087D01*
X92960Y10207D01*
Y9826D01*
X92579Y10588D02*
Y11096D01*
X93468Y11350D02*
X92960D01*
X92706Y11603D01*
X92960Y11857D01*
X93468D01*
X92706Y12111D02*
X93468D01*
Y12492D01*
X93341Y12619D01*
X93087D01*
X92960Y12492D01*
Y12111D01*
Y12365D02*
X92706Y12619D01*
X93468Y13381D02*
Y12873D01*
X92706D01*
Y13381D01*
X93087Y12873D02*
Y13127D01*
X93468Y14143D02*
Y13635D01*
X93087D01*
Y13889D01*
Y13635D01*
X92706D01*
X92706Y27607D02*
X93468D01*
Y27987D01*
X93341Y28114D01*
X93087D01*
X92960Y27987D01*
Y27607D01*
X92579Y28368D02*
Y28876D01*
X93468Y29130D02*
X92960D01*
X92706Y29384D01*
X92960Y29638D01*
X93468D01*
X92706Y29892D02*
X93468D01*
Y30273D01*
X93341Y30400D01*
X93087D01*
X92960Y30273D01*
Y29892D01*
Y30146D02*
X92706Y30400D01*
X93468Y31161D02*
Y30654D01*
X92706D01*
Y31161D01*
X93087Y30654D02*
Y30907D01*
X93468Y31923D02*
Y31415D01*
X93087D01*
Y31669D01*
Y31415D01*
X92706D01*
X92579Y32177D02*
Y32685D01*
X93341Y33447D02*
X93468Y33320D01*
Y33066D01*
X93341Y32939D01*
X92833D01*
X92706Y33066D01*
Y33320D01*
X92833Y33447D01*
X93087D01*
Y33193D01*
X92706Y33701D02*
X93468D01*
X92706Y34208D01*
X93468D01*
Y34462D02*
X92706D01*
Y34843D01*
X92833Y34970D01*
X93341D01*
X93468Y34843D01*
Y34462D01*
X140521Y14397D02*
Y15159D01*
X140267Y14905D01*
X140013Y15159D01*
Y14397D01*
X139252D02*
X139759D01*
X139252Y14905D01*
Y15032D01*
X139379Y15159D01*
X139632D01*
X139759Y15032D01*
X116963Y28050D02*
X117725D01*
X117471Y28304D01*
X117725Y28557D01*
X116963D01*
Y29192D02*
X117725D01*
X117344Y28811D01*
Y29319D01*
X154300Y41893D02*
X154554D01*
X154427D01*
Y41258D01*
X154554Y41131D01*
X154681D01*
X154808Y41258D01*
X154047Y41004D02*
X153539D01*
X153285Y41893D02*
Y41131D01*
X152904D01*
X152777Y41258D01*
Y41766D01*
X152904Y41893D01*
X153285D01*
X152523D02*
X152269D01*
X152396D01*
Y41131D01*
X152523D01*
X152269D01*
X151380Y41766D02*
X151507Y41893D01*
X151761D01*
X151888Y41766D01*
Y41258D01*
X151761Y41131D01*
X151507D01*
X151380Y41258D01*
Y41512D01*
X151634D01*
D60*
X97354Y30018D02*
G03*
X97354Y30018I-125J0D01*
G01*
Y10714D02*
G03*
X97354Y10714I-125J0D01*
G01*
M02*
