G04*
G04 #@! TF.GenerationSoftware,Altium Limited,Altium Designer,20.0.14 (345)*
G04*
G04 Layer_Color=16711935*
%FSLAX43Y43*%
%MOMM*%
G71*
G01*
G75*
%ADD47C,1.950*%
%ADD73C,0.550*%
%ADD74C,1.725*%
%ADD75C,1.150*%
%ADD76R,1.150X1.150*%
%ADD77C,1.850*%
%ADD78R,1.850X1.850*%
%ADD79C,1.950*%
%ADD80R,1.950X1.950*%
%ADD81R,1.608X1.608*%
%ADD82C,5.400*%
%ADD83C,1.608*%
%ADD84C,0.850*%
%ADD85C,1.750*%
%ADD86R,1.750X1.750*%
%ADD87C,1.800*%
%ADD88R,1.800X1.800*%
%ADD89R,1.950X1.950*%
%ADD90O,3.450X1.650*%
%ADD91O,2.850X1.650*%
%ADD92C,0.750*%
%ADD93C,2.250*%
%ADD94R,2.250X2.250*%
%ADD95R,1.150X1.150*%
%ADD96C,2.078*%
%ADD97R,1.700X1.700*%
%ADD98C,1.700*%
%ADD99C,8.800*%
%ADD100C,0.900*%
D47*
X60774Y21765D02*
D03*
X58234D02*
D03*
X55694D02*
D03*
D73*
X62484Y2773D02*
D03*
Y1923D02*
D03*
Y1073D02*
D03*
Y223D02*
D03*
Y42723D02*
D03*
Y41873D02*
D03*
Y41023D02*
D03*
Y40173D02*
D03*
Y39323D02*
D03*
Y38473D02*
D03*
Y37623D02*
D03*
Y36773D02*
D03*
Y35923D02*
D03*
Y35073D02*
D03*
Y34223D02*
D03*
D03*
D03*
Y33373D02*
D03*
Y32523D02*
D03*
Y18923D02*
D03*
Y19773D02*
D03*
Y20623D02*
D03*
Y21473D02*
D03*
Y22323D02*
D03*
Y23173D02*
D03*
Y24023D02*
D03*
Y24873D02*
D03*
Y25723D02*
D03*
Y26573D02*
D03*
Y27423D02*
D03*
Y28273D02*
D03*
Y29123D02*
D03*
Y29973D02*
D03*
Y30823D02*
D03*
Y31673D02*
D03*
Y7873D02*
D03*
Y7023D02*
D03*
Y6173D02*
D03*
Y5323D02*
D03*
Y4473D02*
D03*
Y3623D02*
D03*
Y2773D02*
D03*
Y8723D02*
D03*
Y9573D02*
D03*
Y10423D02*
D03*
D03*
D03*
Y11273D02*
D03*
Y12123D02*
D03*
Y12973D02*
D03*
Y13823D02*
D03*
Y14673D02*
D03*
Y15523D02*
D03*
Y16373D02*
D03*
Y17223D02*
D03*
Y18073D02*
D03*
Y18923D02*
D03*
D74*
X40572Y10290D02*
D03*
Y27003D02*
D03*
Y36554D02*
D03*
Y3127D02*
D03*
Y12678D02*
D03*
Y19841D02*
D03*
X38185Y3127D02*
D03*
X40572Y38941D02*
D03*
Y29391D02*
D03*
Y31779D02*
D03*
Y34166D02*
D03*
Y22228D02*
D03*
Y24616D02*
D03*
Y15065D02*
D03*
Y17453D02*
D03*
Y5515D02*
D03*
Y7903D02*
D03*
X38185Y38941D02*
D03*
X82000Y38433D02*
D03*
X84387Y7395D02*
D03*
Y5007D02*
D03*
Y16945D02*
D03*
Y14557D02*
D03*
Y24108D02*
D03*
Y21720D02*
D03*
Y33658D02*
D03*
Y31271D02*
D03*
Y28883D02*
D03*
Y38433D02*
D03*
X82000Y2619D02*
D03*
X84387Y19333D02*
D03*
Y12170D02*
D03*
Y2619D02*
D03*
Y36046D02*
D03*
Y26495D02*
D03*
Y9782D02*
D03*
D75*
X114980Y28124D02*
D03*
X113980D02*
D03*
X112968D02*
D03*
X111968D02*
D03*
X110968D02*
D03*
X109968D02*
D03*
X107968D02*
D03*
X108968D02*
D03*
X98991D02*
D03*
X99991D02*
D03*
X100991D02*
D03*
X101991D02*
D03*
X102991D02*
D03*
X103991D02*
D03*
X104991D02*
D03*
X105991D02*
D03*
X106991D02*
D03*
X110974Y42073D02*
D03*
X111974D02*
D03*
X101997D02*
D03*
X102997D02*
D03*
X103997D02*
D03*
X104997D02*
D03*
X105997D02*
D03*
X106997D02*
D03*
X107997D02*
D03*
X108997D02*
D03*
X109997D02*
D03*
X126088Y956D02*
D03*
X127088D02*
D03*
X128088D02*
D03*
X129088D02*
D03*
X130088D02*
D03*
X131088D02*
D03*
X132088D02*
D03*
X133088D02*
D03*
X134088D02*
D03*
X124111D02*
D03*
X125111D02*
D03*
X129094Y14905D02*
D03*
X130094D02*
D03*
X131094D02*
D03*
X132094D02*
D03*
X133094D02*
D03*
X134094D02*
D03*
X135094D02*
D03*
X136094D02*
D03*
X137094D02*
D03*
X127117D02*
D03*
X128117D02*
D03*
X126117D02*
D03*
X125117D02*
D03*
X124117D02*
D03*
X123117D02*
D03*
X122105D02*
D03*
X121105D02*
D03*
X136189Y28124D02*
D03*
X135189D02*
D03*
X134177D02*
D03*
X133177D02*
D03*
X132177D02*
D03*
X131177D02*
D03*
X129177D02*
D03*
X130177D02*
D03*
X120200D02*
D03*
X121200D02*
D03*
X122200D02*
D03*
X123200D02*
D03*
X124200D02*
D03*
X125200D02*
D03*
X126200D02*
D03*
X127200D02*
D03*
X128200D02*
D03*
X132183Y42073D02*
D03*
X133183D02*
D03*
X123206D02*
D03*
X124206D02*
D03*
X125206D02*
D03*
X126206D02*
D03*
X127206D02*
D03*
X128206D02*
D03*
X129206D02*
D03*
X130206D02*
D03*
X131206D02*
D03*
X104879Y946D02*
D03*
X105879D02*
D03*
X106879D02*
D03*
X107879D02*
D03*
X108879D02*
D03*
X109879D02*
D03*
X110879D02*
D03*
X111879D02*
D03*
X112879D02*
D03*
X102902D02*
D03*
X103902D02*
D03*
X107885Y14895D02*
D03*
X108885D02*
D03*
X109885D02*
D03*
X110885D02*
D03*
X111885D02*
D03*
X112885D02*
D03*
X113885D02*
D03*
X114885D02*
D03*
X115885D02*
D03*
X105908D02*
D03*
X106908D02*
D03*
X104908D02*
D03*
X103908D02*
D03*
X102908D02*
D03*
X101908D02*
D03*
X100896D02*
D03*
X99896D02*
D03*
X81067Y143514D02*
D03*
X82067D02*
D03*
X83078D02*
D03*
X84078D02*
D03*
X85078D02*
D03*
X86078D02*
D03*
X88078D02*
D03*
X87078D02*
D03*
X97055D02*
D03*
X96055D02*
D03*
X95055D02*
D03*
X94055D02*
D03*
X93055D02*
D03*
X92055D02*
D03*
X91055D02*
D03*
X90055D02*
D03*
X89055D02*
D03*
X85073Y157463D02*
D03*
X84073D02*
D03*
X94050D02*
D03*
X93050D02*
D03*
X92050D02*
D03*
X91050D02*
D03*
X90050D02*
D03*
X89050D02*
D03*
X88050D02*
D03*
X87050D02*
D03*
X86050D02*
D03*
X44487Y108877D02*
D03*
Y109877D02*
D03*
Y110877D02*
D03*
Y111877D02*
D03*
Y112877D02*
D03*
Y113877D02*
D03*
Y114877D02*
D03*
Y115877D02*
D03*
Y116877D02*
D03*
Y106900D02*
D03*
Y107900D02*
D03*
X58436Y111883D02*
D03*
Y112883D02*
D03*
Y113883D02*
D03*
Y114883D02*
D03*
Y115883D02*
D03*
Y116883D02*
D03*
Y117883D02*
D03*
Y118883D02*
D03*
Y119883D02*
D03*
Y109906D02*
D03*
Y110906D02*
D03*
Y108906D02*
D03*
Y107906D02*
D03*
Y106906D02*
D03*
Y105906D02*
D03*
Y104894D02*
D03*
Y103894D02*
D03*
X120687Y120883D02*
D03*
Y119883D02*
D03*
Y118871D02*
D03*
Y117871D02*
D03*
Y116871D02*
D03*
Y115871D02*
D03*
Y113871D02*
D03*
Y114871D02*
D03*
Y104894D02*
D03*
Y105894D02*
D03*
Y106894D02*
D03*
Y107894D02*
D03*
Y108894D02*
D03*
Y109894D02*
D03*
Y110894D02*
D03*
Y111894D02*
D03*
Y112894D02*
D03*
X134636Y116877D02*
D03*
Y117877D02*
D03*
Y107900D02*
D03*
Y108900D02*
D03*
Y109900D02*
D03*
Y110900D02*
D03*
Y111900D02*
D03*
Y112900D02*
D03*
Y113900D02*
D03*
Y114900D02*
D03*
Y115900D02*
D03*
X93073Y67314D02*
D03*
X92073D02*
D03*
X91073D02*
D03*
X90073D02*
D03*
X89073D02*
D03*
X88073D02*
D03*
X87073D02*
D03*
X86073D02*
D03*
X85073D02*
D03*
X95050D02*
D03*
X94050D02*
D03*
X90067Y81263D02*
D03*
X89067D02*
D03*
X88067D02*
D03*
X87067D02*
D03*
X86067D02*
D03*
X85067D02*
D03*
X84067D02*
D03*
X83067D02*
D03*
X82067D02*
D03*
X92044D02*
D03*
X91044D02*
D03*
X93044D02*
D03*
X94044D02*
D03*
X95044D02*
D03*
X96044D02*
D03*
X97055D02*
D03*
X98055D02*
D03*
X21852Y17713D02*
D03*
Y16713D02*
D03*
Y15702D02*
D03*
Y14702D02*
D03*
Y13702D02*
D03*
Y12702D02*
D03*
Y10702D02*
D03*
Y11702D02*
D03*
Y1725D02*
D03*
Y2725D02*
D03*
Y3725D02*
D03*
Y4725D02*
D03*
Y5725D02*
D03*
Y6725D02*
D03*
Y7725D02*
D03*
Y8725D02*
D03*
Y9725D02*
D03*
X35801Y13707D02*
D03*
Y14707D02*
D03*
Y4730D02*
D03*
Y5730D02*
D03*
Y6730D02*
D03*
Y7730D02*
D03*
Y8730D02*
D03*
Y9730D02*
D03*
Y10730D02*
D03*
Y11730D02*
D03*
Y12730D02*
D03*
X21852Y42355D02*
D03*
Y41355D02*
D03*
Y40344D02*
D03*
Y39344D02*
D03*
Y38344D02*
D03*
Y37344D02*
D03*
Y35344D02*
D03*
Y36344D02*
D03*
Y26367D02*
D03*
Y27367D02*
D03*
Y28367D02*
D03*
Y29367D02*
D03*
Y30367D02*
D03*
Y31367D02*
D03*
Y32367D02*
D03*
Y33367D02*
D03*
Y34367D02*
D03*
X35801Y38349D02*
D03*
Y39349D02*
D03*
Y29372D02*
D03*
Y30372D02*
D03*
Y31372D02*
D03*
Y32372D02*
D03*
Y33372D02*
D03*
Y34372D02*
D03*
Y35372D02*
D03*
Y36372D02*
D03*
Y37372D02*
D03*
X1104Y17713D02*
D03*
Y16713D02*
D03*
Y15702D02*
D03*
Y14702D02*
D03*
Y13702D02*
D03*
Y12702D02*
D03*
Y10702D02*
D03*
Y11702D02*
D03*
Y1725D02*
D03*
Y2725D02*
D03*
Y3725D02*
D03*
Y4725D02*
D03*
Y5725D02*
D03*
Y6725D02*
D03*
Y7725D02*
D03*
Y8725D02*
D03*
Y9725D02*
D03*
X15053Y13707D02*
D03*
Y14707D02*
D03*
Y4730D02*
D03*
Y5730D02*
D03*
Y6730D02*
D03*
Y7730D02*
D03*
Y8730D02*
D03*
Y9730D02*
D03*
Y10730D02*
D03*
Y11730D02*
D03*
Y12730D02*
D03*
X1104Y42355D02*
D03*
Y41355D02*
D03*
Y40344D02*
D03*
Y39344D02*
D03*
Y38344D02*
D03*
Y37344D02*
D03*
Y35344D02*
D03*
Y36344D02*
D03*
Y26367D02*
D03*
Y27367D02*
D03*
Y28367D02*
D03*
Y29367D02*
D03*
Y30367D02*
D03*
Y31367D02*
D03*
Y32367D02*
D03*
Y33367D02*
D03*
Y34367D02*
D03*
X15053Y38349D02*
D03*
Y39349D02*
D03*
Y29372D02*
D03*
Y30372D02*
D03*
Y31372D02*
D03*
Y32372D02*
D03*
Y33372D02*
D03*
Y34372D02*
D03*
Y35372D02*
D03*
Y36372D02*
D03*
Y37372D02*
D03*
D76*
X97991Y28124D02*
D03*
X100997Y42073D02*
D03*
X135088Y956D02*
D03*
X138094Y14905D02*
D03*
X119200Y28124D02*
D03*
X122206Y42073D02*
D03*
X113879Y946D02*
D03*
X116885Y14895D02*
D03*
X98055Y143514D02*
D03*
X95050Y157463D02*
D03*
X84073Y67314D02*
D03*
X81067Y81263D02*
D03*
D77*
X95309Y32558D02*
D03*
Y13254D02*
D03*
X102007Y147568D02*
D03*
X104801Y142488D02*
D03*
D78*
X95309Y30018D02*
D03*
Y10714D02*
D03*
X102007Y145028D02*
D03*
X104801D02*
D03*
D79*
X151951Y10079D02*
D03*
X154491D02*
D03*
X151951Y12619D02*
D03*
X154491D02*
D03*
X151951Y17699D02*
D03*
X154491D02*
D03*
X151951Y22779D02*
D03*
X154491D02*
D03*
X151951Y30399D02*
D03*
X154491D02*
D03*
X151951Y32939D02*
D03*
X154491D02*
D03*
X151951Y38019D02*
D03*
X154491Y35479D02*
D03*
X151951D02*
D03*
X154491Y27859D02*
D03*
X151951D02*
D03*
X154491Y25319D02*
D03*
X151951D02*
D03*
X154491Y20239D02*
D03*
X151951D02*
D03*
X154491Y15159D02*
D03*
X151951D02*
D03*
X154491Y7539D02*
D03*
Y4999D02*
D03*
X151951Y7539D02*
D03*
Y4999D02*
D03*
X4923Y133221D02*
D03*
X2383D02*
D03*
X4923Y135761D02*
D03*
X2383D02*
D03*
X4923Y140841D02*
D03*
X2383D02*
D03*
X4923Y145921D02*
D03*
X2383D02*
D03*
X4923Y153541D02*
D03*
X2383D02*
D03*
X4923Y156081D02*
D03*
X2383D02*
D03*
X4923Y161161D02*
D03*
X2383Y158621D02*
D03*
X4923D02*
D03*
X2383Y151001D02*
D03*
X4923D02*
D03*
X2383Y148461D02*
D03*
X4923D02*
D03*
X2383Y143381D02*
D03*
X4923D02*
D03*
X2383Y138301D02*
D03*
X4923D02*
D03*
X2383Y130681D02*
D03*
Y128141D02*
D03*
X4923Y130681D02*
D03*
Y128141D02*
D03*
D80*
X154491Y38019D02*
D03*
X2383Y161161D02*
D03*
D81*
X138997Y18652D02*
D03*
Y22462D02*
D03*
D82*
X146997Y21509D02*
D03*
X89087D02*
D03*
D83*
X136457Y18652D02*
D03*
X133917D02*
D03*
X131377D02*
D03*
X128837D02*
D03*
X126297D02*
D03*
X123757D02*
D03*
X121217D02*
D03*
X118677D02*
D03*
X116137D02*
D03*
X113597D02*
D03*
X111057D02*
D03*
X108517D02*
D03*
X105977D02*
D03*
X103437D02*
D03*
X100897D02*
D03*
X98357D02*
D03*
X137727Y20557D02*
D03*
X135187D02*
D03*
X132647D02*
D03*
X130107D02*
D03*
X127567D02*
D03*
X125027D02*
D03*
X122487D02*
D03*
X119947D02*
D03*
X117407D02*
D03*
X114867D02*
D03*
X112327D02*
D03*
X109787D02*
D03*
X107247D02*
D03*
X104707D02*
D03*
X102167D02*
D03*
X99627D02*
D03*
X97087D02*
D03*
X136457Y22462D02*
D03*
X133917D02*
D03*
X131377D02*
D03*
X128837D02*
D03*
X126297D02*
D03*
X123757D02*
D03*
X121217D02*
D03*
X118677D02*
D03*
X116137D02*
D03*
X113597D02*
D03*
X111057D02*
D03*
X108517D02*
D03*
X105977D02*
D03*
X103437D02*
D03*
X100897D02*
D03*
X98357D02*
D03*
X137727Y24367D02*
D03*
X135187D02*
D03*
X132647D02*
D03*
X130107D02*
D03*
X127567D02*
D03*
X125027D02*
D03*
X122487D02*
D03*
X119947D02*
D03*
X117407D02*
D03*
X114867D02*
D03*
X112327D02*
D03*
X109787D02*
D03*
X107247D02*
D03*
X104707D02*
D03*
X102167D02*
D03*
X99627D02*
D03*
X97087D02*
D03*
D84*
X144585Y30145D02*
D03*
X143488Y26981D02*
D03*
X140648Y20239D02*
D03*
X142068Y23691D02*
D03*
X132088Y12163D02*
D03*
X133088Y10655D02*
D03*
X134088Y9020D02*
D03*
X135160Y7512D02*
D03*
X141918Y38527D02*
D03*
X143315Y37003D02*
D03*
X142573Y37746D02*
D03*
X140972Y39164D02*
D03*
X104072Y37638D02*
D03*
X106866Y36202D02*
D03*
X109533Y34771D02*
D03*
X112327Y33320D02*
D03*
X122176Y37696D02*
D03*
X124207Y34798D02*
D03*
X123250Y36242D02*
D03*
X125250Y33352D02*
D03*
X110676Y3729D02*
D03*
X111819Y4364D02*
D03*
X109533Y3094D02*
D03*
X108252Y2451D02*
D03*
X105977Y40813D02*
D03*
X107733Y40142D02*
D03*
X111157Y38740D02*
D03*
X109398Y39424D02*
D03*
X29998Y88894D02*
D03*
X33046Y83814D02*
D03*
X35840Y78861D02*
D03*
X21362Y154680D02*
D03*
X18949Y153156D02*
D03*
X35078Y114877D02*
D03*
X33808Y115818D02*
D03*
X30887Y116834D02*
D03*
X85116Y53842D02*
D03*
X86132Y56509D02*
D03*
X87021Y59430D02*
D03*
X148200Y107945D02*
D03*
X145366Y108797D02*
D03*
X142520Y109849D02*
D03*
X92990Y168015D02*
D03*
X93013Y167126D02*
D03*
X94007Y170047D02*
D03*
X92112Y164691D02*
D03*
X92101Y165475D02*
D03*
X48159Y164840D02*
D03*
X45873Y170301D02*
D03*
X47016Y167507D02*
D03*
X34778Y165302D02*
D03*
X35081Y170681D02*
D03*
X34951Y168015D02*
D03*
X35892Y114877D02*
D03*
X30125Y116834D02*
D03*
X90030Y162769D02*
D03*
X25107Y157855D02*
D03*
X27712Y159379D02*
D03*
X39233Y112897D02*
D03*
X40031Y113913D02*
D03*
X38567Y111881D02*
D03*
X37872Y110865D02*
D03*
X32919Y115818D02*
D03*
X88037Y161284D02*
D03*
X89031Y162068D02*
D03*
X90958Y163443D02*
D03*
X87025Y58709D02*
D03*
X148870Y107944D02*
D03*
X146076Y108960D02*
D03*
X85062Y53026D02*
D03*
X86132Y55874D02*
D03*
X34316Y167992D02*
D03*
X34143Y165302D02*
D03*
X34316Y170682D02*
D03*
X46520D02*
D03*
X47634Y167992D02*
D03*
X48748Y165302D02*
D03*
X143282Y109849D02*
D03*
X94006Y170809D02*
D03*
X26805Y14682D02*
D03*
X27694Y16714D02*
D03*
X31250Y4141D02*
D03*
X29422Y13616D02*
D03*
X26642Y4202D02*
D03*
X24519Y625D02*
D03*
X28366Y2019D02*
D03*
X27194Y1085D02*
D03*
X30869Y3252D02*
D03*
X32393Y6427D02*
D03*
X31244Y12057D02*
D03*
X26805Y39324D02*
D03*
X27694Y41356D02*
D03*
X31250Y28783D02*
D03*
X29422Y38258D02*
D03*
X26642Y28844D02*
D03*
X24519Y25267D02*
D03*
X28366Y26661D02*
D03*
X27194Y25727D02*
D03*
X30869Y27894D02*
D03*
X32393Y31069D02*
D03*
X31244Y36699D02*
D03*
X6057Y14682D02*
D03*
X6946Y16714D02*
D03*
X10502Y4141D02*
D03*
X8674Y13616D02*
D03*
X5894Y4202D02*
D03*
X3771Y625D02*
D03*
X7618Y2019D02*
D03*
X6446Y1085D02*
D03*
X10121Y3252D02*
D03*
X11645Y6427D02*
D03*
X10496Y12057D02*
D03*
X6057Y39324D02*
D03*
X6946Y41356D02*
D03*
X10502Y28783D02*
D03*
X8674Y38258D02*
D03*
X5894Y28844D02*
D03*
X3771Y25267D02*
D03*
X7618Y26661D02*
D03*
X6446Y25727D02*
D03*
X10121Y27894D02*
D03*
X11645Y31069D02*
D03*
X10496Y36699D02*
D03*
D85*
X70417Y17732D02*
D03*
Y20272D02*
D03*
Y22812D02*
D03*
D86*
Y25352D02*
D03*
D87*
X64702Y19383D02*
D03*
Y16843D02*
D03*
X67242Y19383D02*
D03*
Y16843D02*
D03*
X64702Y9223D02*
D03*
X67242D02*
D03*
X64702Y6683D02*
D03*
X67242D02*
D03*
X64702Y1603D02*
D03*
X67242Y4143D02*
D03*
X64702D02*
D03*
X67242Y11763D02*
D03*
X64702D02*
D03*
X67242Y14303D02*
D03*
X64702D02*
D03*
X77529Y10112D02*
D03*
X74989D02*
D03*
X77529Y12652D02*
D03*
X74989D02*
D03*
X77529Y17732D02*
D03*
X74989D02*
D03*
X77529Y22812D02*
D03*
X74989D02*
D03*
X77529Y30432D02*
D03*
X74989D02*
D03*
X77529Y32972D02*
D03*
X74989D02*
D03*
X77529Y38052D02*
D03*
X74989Y35512D02*
D03*
X77529D02*
D03*
X74989Y27892D02*
D03*
X77529D02*
D03*
X74989Y25352D02*
D03*
X77529D02*
D03*
X74989Y20272D02*
D03*
X77529D02*
D03*
X74989Y15192D02*
D03*
X77529D02*
D03*
X74989Y7572D02*
D03*
Y5032D02*
D03*
X77529Y7572D02*
D03*
Y5032D02*
D03*
X67242Y28781D02*
D03*
X64702D02*
D03*
X67242Y31321D02*
D03*
X64702D02*
D03*
X67242Y38941D02*
D03*
X64702D02*
D03*
X67242Y41481D02*
D03*
X64702Y36401D02*
D03*
X67242D02*
D03*
X64702Y33861D02*
D03*
X67242D02*
D03*
X64702Y26241D02*
D03*
Y23701D02*
D03*
X67242Y26241D02*
D03*
Y23701D02*
D03*
X44645Y32941D02*
D03*
X47185D02*
D03*
X44645Y30401D02*
D03*
X47185D02*
D03*
X44645Y25321D02*
D03*
X47185D02*
D03*
X44645Y20241D02*
D03*
X47185D02*
D03*
X44645Y12621D02*
D03*
X47185D02*
D03*
X44645Y10081D02*
D03*
X47185D02*
D03*
X44645Y5001D02*
D03*
X47185Y7541D02*
D03*
X44645D02*
D03*
X47185Y15161D02*
D03*
X44645D02*
D03*
X47185Y17701D02*
D03*
X44645D02*
D03*
X47185Y22781D02*
D03*
X44645D02*
D03*
X47185Y27861D02*
D03*
X44645D02*
D03*
X47185Y35481D02*
D03*
Y38021D02*
D03*
X44645Y35481D02*
D03*
Y38021D02*
D03*
D88*
X67242Y1603D02*
D03*
X74989Y38052D02*
D03*
X64702Y41481D02*
D03*
X47185Y5001D02*
D03*
D89*
X53154Y21765D02*
D03*
D90*
X52782Y2831D02*
D03*
Y17331D02*
D03*
Y25691D02*
D03*
Y40191D02*
D03*
D91*
X58742Y2831D02*
D03*
Y17331D02*
D03*
Y25691D02*
D03*
Y40191D02*
D03*
D92*
X44391Y683D02*
D03*
Y1445D02*
D03*
X54805Y33068D02*
D03*
X56075Y36243D02*
D03*
X56202Y34465D02*
D03*
X54043Y13510D02*
D03*
X54424Y14653D02*
D03*
X45788Y26850D02*
D03*
X57218Y7287D02*
D03*
X56710Y7795D02*
D03*
X55948Y8176D02*
D03*
X55385Y8629D02*
D03*
X58107Y13129D02*
D03*
X58488Y12113D02*
D03*
X54932Y34465D02*
D03*
D93*
X8408Y73861D02*
D03*
Y83861D02*
D03*
Y78861D02*
D03*
D94*
Y88861D02*
D03*
D95*
X44487Y117877D02*
D03*
X58436Y120883D02*
D03*
X120687Y103894D02*
D03*
X134636Y106900D02*
D03*
X21852Y725D02*
D03*
X35801Y3730D02*
D03*
X21852Y25367D02*
D03*
X35801Y28372D02*
D03*
X1104Y725D02*
D03*
X15053Y3730D02*
D03*
X1104Y25367D02*
D03*
X15053Y28372D02*
D03*
D96*
X71654Y106420D02*
D03*
Y96869D02*
D03*
X95530Y130296D02*
D03*
X105080D02*
D03*
X71654D02*
D03*
Y120745D02*
D03*
Y113582D02*
D03*
X81204Y130296D02*
D03*
X88367D02*
D03*
X107468Y106420D02*
D03*
Y96869D02*
D03*
Y130296D02*
D03*
Y120745D02*
D03*
Y113582D02*
D03*
X97918Y130296D02*
D03*
X100305D02*
D03*
X102693D02*
D03*
X90755D02*
D03*
X93142D02*
D03*
X83592D02*
D03*
X85980D02*
D03*
X74042D02*
D03*
X76429D02*
D03*
X78817D02*
D03*
X95530Y94482D02*
D03*
X105080D02*
D03*
X71654D02*
D03*
X81204D02*
D03*
X88367D02*
D03*
X71654Y104032D02*
D03*
Y101644D02*
D03*
Y99257D02*
D03*
Y111195D02*
D03*
Y108807D02*
D03*
Y118358D02*
D03*
Y115970D02*
D03*
Y127908D02*
D03*
Y125520D02*
D03*
Y123133D02*
D03*
X107468Y94482D02*
D03*
X97918D02*
D03*
X100305D02*
D03*
X102693D02*
D03*
X90755D02*
D03*
X93142D02*
D03*
X83592D02*
D03*
X85980D02*
D03*
X74042D02*
D03*
X76429D02*
D03*
X78817D02*
D03*
X107468Y104032D02*
D03*
Y101644D02*
D03*
Y99257D02*
D03*
Y111195D02*
D03*
Y108807D02*
D03*
Y118358D02*
D03*
Y115970D02*
D03*
Y127908D02*
D03*
Y125520D02*
D03*
Y123133D02*
D03*
D97*
X18822Y130550D02*
D03*
X21574D02*
D03*
X24325D02*
D03*
X27077D02*
D03*
D98*
X18822Y128010D02*
D03*
Y125470D02*
D03*
X21574Y128010D02*
D03*
Y125470D02*
D03*
X24325Y128010D02*
D03*
Y125470D02*
D03*
X27077Y128010D02*
D03*
Y125470D02*
D03*
D99*
X145472Y53251D02*
D03*
X17148D02*
D03*
Y112451D02*
D03*
Y171651D02*
D03*
X145472D02*
D03*
D100*
X24392Y5157D02*
D03*
X32393Y5411D02*
D03*
X24392Y29799D02*
D03*
X32393Y30053D02*
D03*
X3644Y5157D02*
D03*
X11645Y5411D02*
D03*
X3644Y29799D02*
D03*
X11645Y30053D02*
D03*
M02*
