G04*
G04 #@! TF.GenerationSoftware,Altium Limited,Altium Designer,20.0.14 (345)*
G04*
G04 Layer_Color=8388736*
%FSLAX43Y43*%
%MOMM*%
G71*
G01*
G75*
%ADD59C,0.127*%
D59*
X23894Y5184D02*
G03*
X23894Y5184I0J-224D01*
G01*
X24494Y5661D02*
G03*
X24494Y5661I0J-100D01*
G01*
X31194Y11911D02*
Y12261D01*
X30844D01*
X31194Y5261D02*
Y5611D01*
Y5261D02*
X30844D01*
X24544Y12261D02*
X24194D01*
Y11911D02*
Y12261D01*
X24544Y5261D02*
X24194D01*
Y5611D01*
X23894Y29826D02*
G03*
X23894Y29826I0J-224D01*
G01*
X24494Y30303D02*
G03*
X24494Y30303I0J-100D01*
G01*
X31194Y36553D02*
Y36903D01*
X30844D01*
X31194Y29903D02*
Y30253D01*
Y29903D02*
X30844D01*
X24544Y36903D02*
X24194D01*
Y36553D02*
Y36903D01*
X24544Y29903D02*
X24194D01*
Y30253D01*
X3146Y5184D02*
G03*
X3146Y5184I0J-224D01*
G01*
X3746Y5661D02*
G03*
X3746Y5661I0J-100D01*
G01*
X10446Y11911D02*
Y12261D01*
X10096D01*
X10446Y5261D02*
Y5611D01*
Y5261D02*
X10096D01*
X3796Y12261D02*
X3446D01*
Y11911D02*
Y12261D01*
X3796Y5261D02*
X3446D01*
Y5611D01*
X3146Y29826D02*
G03*
X3146Y29826I0J-224D01*
G01*
X3746Y30303D02*
G03*
X3746Y30303I0J-100D01*
G01*
X10446Y36553D02*
Y36903D01*
X10096D01*
X10446Y29903D02*
Y30253D01*
Y29903D02*
X10096D01*
X3796Y36903D02*
X3446D01*
Y36553D02*
Y36903D01*
X3796Y29903D02*
X3446D01*
Y30253D01*
M02*
