G04*
G04 #@! TF.GenerationSoftware,Altium Limited,Altium Designer,20.0.14 (345)*
G04*
G04 Layer_Color=16711935*
%FSLAX43Y43*%
%MOMM*%
G71*
G01*
G75*
%ADD59C,0.127*%
%ADD61C,0.240*%
%ADD102C,0.100*%
D59*
X51282Y2581D02*
Y17581D01*
X62832D02*
X51282D01*
X62832Y2581D02*
Y17581D01*
Y2581D02*
X51282D01*
Y17581D01*
X62832D02*
X51282D01*
X62832Y2581D02*
Y17581D01*
Y2581D02*
X51282D01*
Y25441D02*
Y40441D01*
X62832D02*
X51282D01*
X62832Y25441D02*
Y40441D01*
Y25441D02*
X51282D01*
Y40441D01*
X62832D02*
X51282D01*
X62832Y25441D02*
Y40441D01*
Y25441D02*
X51282D01*
D61*
X50832Y15451D02*
G03*
X50832Y15451I0J-120D01*
G01*
D02*
G03*
X50832Y15451I0J-120D01*
G01*
Y38311D02*
G03*
X50832Y38311I0J-120D01*
G01*
D02*
G03*
X50832Y38311I0J-120D01*
G01*
D102*
X94039Y33828D02*
X96579D01*
X94039Y28748D02*
Y33828D01*
Y28748D02*
X96579D01*
Y33828D01*
X94039Y14524D02*
X96579D01*
X94039Y9444D02*
Y14524D01*
Y9444D02*
X96579D01*
Y14524D01*
X146904Y35542D02*
X147854D01*
X146904Y33892D02*
X147854D01*
Y35542D01*
X146904Y33892D02*
Y35542D01*
X147031Y39225D02*
X147981D01*
X147031Y37575D02*
X147981D01*
Y39225D01*
X147031Y37575D02*
Y39225D01*
X148428Y6014D02*
X149378D01*
X148428Y7664D02*
X149378D01*
X148428Y6014D02*
Y7664D01*
X149378Y6014D02*
Y7664D01*
X148428Y2396D02*
X149378D01*
X148428Y4046D02*
X149378D01*
X148428Y2396D02*
Y4046D01*
X149378Y2396D02*
Y4046D01*
X150681Y3729D02*
Y39289D01*
Y3729D02*
X155761D01*
Y39289D01*
X150681D02*
X155761D01*
X71687Y26622D02*
Y16462D01*
X69147Y26622D02*
Y16462D01*
Y26622D02*
X71687D01*
X69147Y16462D02*
X71687D01*
X63432Y20653D02*
Y333D01*
Y20653D02*
X68512D01*
Y333D01*
X63432D02*
X68512D01*
X78799Y39322D02*
Y3762D01*
X73719D02*
X78799D01*
X73719Y39322D02*
Y3762D01*
Y39322D02*
X78799D01*
X63432Y42751D02*
X68512D01*
X63432D02*
Y22431D01*
X68512D01*
Y42751D02*
Y22431D01*
X62044Y18585D02*
Y24305D01*
X51884D01*
Y18585D02*
Y24305D01*
X62044Y18585D02*
X51884D01*
X43375Y3731D02*
Y39291D01*
X48455D02*
X43375D01*
X48455Y3731D02*
Y39291D01*
Y3731D02*
X43375D01*
X4408Y91361D02*
Y71361D01*
X11908Y91361D02*
Y71361D01*
X4408D02*
X11908D01*
X4408Y91361D02*
X11908D01*
X4408Y81361D02*
X5208D01*
X4408Y86361D02*
X5208D01*
Y91361D02*
Y71361D01*
X4408Y76361D02*
X5208D01*
X17654Y131616D02*
X19990D01*
X17654D02*
Y124403D01*
X19990D01*
Y131616D02*
Y124403D01*
X20405Y131616D02*
X22742D01*
X20405D02*
Y124403D01*
X22742D01*
Y131616D02*
Y124403D01*
X23157Y131616D02*
X25494D01*
X23157D02*
Y124403D01*
X25494D01*
Y131616D02*
Y124403D01*
X25909Y131616D02*
X28245D01*
X25909D02*
Y124403D01*
X28245D01*
Y131616D02*
Y124403D01*
X14029Y123248D02*
X14979D01*
X14029Y124898D02*
X14979D01*
X14029D02*
Y123248D01*
X14979Y124898D02*
Y123248D01*
X14029Y119946D02*
X14979D01*
X14029Y121596D02*
X14979D01*
X14029D02*
Y119946D01*
X14979Y121596D02*
Y119946D01*
X6193Y162431D02*
Y126871D01*
X1113D02*
X6193D01*
X1113Y162431D02*
Y126871D01*
Y162431D02*
X6193D01*
X100737Y148838D02*
X103277D01*
Y143758D01*
X100737D02*
X103277D01*
X100737Y148838D02*
Y143758D01*
X20474Y155155D02*
Y154205D01*
X18824Y155155D02*
Y154205D01*
X20474D01*
X18824Y155155D02*
X20474D01*
X26632Y159854D02*
Y158904D01*
X24982Y159854D02*
Y158904D01*
X26632D01*
X24982Y159854D02*
X26632D01*
X103531Y141218D02*
X106071D01*
X103531Y146298D02*
Y141218D01*
Y146298D02*
X106071D01*
Y141218D01*
X25974Y15483D02*
Y17183D01*
X26874Y15483D02*
Y17183D01*
Y15483D02*
X25974D01*
X26874Y17183D02*
X25974D01*
X22487Y18225D02*
X21217D01*
Y225D02*
Y18225D01*
X22487Y225D02*
Y18225D01*
Y225D02*
X21217D01*
X36436Y15230D02*
X35166D01*
Y3230D02*
Y15230D01*
X36436Y3230D02*
Y15230D01*
Y3230D02*
X35166D01*
X25574Y2802D02*
Y3702D01*
X27274Y2802D02*
Y3702D01*
X25574D01*
X27274Y2802D02*
X25574D01*
X29941D02*
Y3702D01*
X28241Y2802D02*
Y3702D01*
X29941Y2802D02*
X28241D01*
X29941Y3702D02*
X28241D01*
X30310Y13216D02*
Y14116D01*
X32010Y13216D02*
Y14116D01*
X30310D01*
X32010Y13216D02*
X30310D01*
X28144Y15569D02*
X27244D01*
X28144Y13869D02*
X27244D01*
X28144D02*
Y15569D01*
X27244Y13869D02*
Y15569D01*
X26131Y1380D02*
Y2330D01*
X24431Y1380D02*
Y2330D01*
X26131Y1380D02*
X24431D01*
X26131Y2330D02*
X24431D01*
X32264Y14969D02*
Y15919D01*
X30564Y14969D02*
Y15919D01*
X32264Y14969D02*
X30564D01*
X32264Y15919D02*
X30564D01*
X30813Y14969D02*
Y15919D01*
X29113Y14969D02*
Y15919D01*
X30813Y14969D02*
X29113D01*
X30813Y15919D02*
X29113D01*
X34519Y8523D02*
X33569D01*
X34519Y10173D02*
X33569D01*
Y8523D02*
Y10173D01*
X34519Y8523D02*
Y10173D01*
Y11190D02*
X33569D01*
X34519Y12840D02*
X33569D01*
Y11190D02*
Y12840D01*
X34519Y11190D02*
Y12840D01*
Y5856D02*
X33569D01*
X34519Y7506D02*
X33569D01*
Y5856D02*
Y7506D01*
X34519Y5856D02*
Y7506D01*
X25974Y40125D02*
Y41825D01*
X26874Y40125D02*
Y41825D01*
Y40125D02*
X25974D01*
X26874Y41825D02*
X25974D01*
X22487Y42867D02*
X21217D01*
Y24867D02*
Y42867D01*
X22487Y24867D02*
Y42867D01*
Y24867D02*
X21217D01*
X36436Y39872D02*
X35166D01*
Y27872D02*
Y39872D01*
X36436Y27872D02*
Y39872D01*
Y27872D02*
X35166D01*
X25574Y27444D02*
Y28344D01*
X27274Y27444D02*
Y28344D01*
X25574D01*
X27274Y27444D02*
X25574D01*
X29941D02*
Y28344D01*
X28241Y27444D02*
Y28344D01*
X29941Y27444D02*
X28241D01*
X29941Y28344D02*
X28241D01*
X30310Y37858D02*
Y38758D01*
X32010Y37858D02*
Y38758D01*
X30310D01*
X32010Y37858D02*
X30310D01*
X28144Y40211D02*
X27244D01*
X28144Y38511D02*
X27244D01*
X28144D02*
Y40211D01*
X27244Y38511D02*
Y40211D01*
X26131Y26022D02*
Y26972D01*
X24431Y26022D02*
Y26972D01*
X26131Y26022D02*
X24431D01*
X26131Y26972D02*
X24431D01*
X32264Y39611D02*
Y40561D01*
X30564Y39611D02*
Y40561D01*
X32264Y39611D02*
X30564D01*
X32264Y40561D02*
X30564D01*
X30813Y39611D02*
Y40561D01*
X29113Y39611D02*
Y40561D01*
X30813Y39611D02*
X29113D01*
X30813Y40561D02*
X29113D01*
X34519Y33165D02*
X33569D01*
X34519Y34815D02*
X33569D01*
Y33165D02*
Y34815D01*
X34519Y33165D02*
Y34815D01*
Y35832D02*
X33569D01*
X34519Y37482D02*
X33569D01*
Y35832D02*
Y37482D01*
X34519Y35832D02*
Y37482D01*
Y30498D02*
X33569D01*
X34519Y32148D02*
X33569D01*
Y30498D02*
Y32148D01*
X34519Y30498D02*
Y32148D01*
X5226Y15483D02*
Y17183D01*
X6126Y15483D02*
Y17183D01*
Y15483D02*
X5226D01*
X6126Y17183D02*
X5226D01*
X1739Y18225D02*
X469D01*
Y225D02*
Y18225D01*
X1739Y225D02*
Y18225D01*
Y225D02*
X469D01*
X15688Y15230D02*
X14418D01*
Y3230D02*
Y15230D01*
X15688Y3230D02*
Y15230D01*
Y3230D02*
X14418D01*
X4826Y2802D02*
Y3702D01*
X6526Y2802D02*
Y3702D01*
X4826D01*
X6526Y2802D02*
X4826D01*
X9193D02*
Y3702D01*
X7493Y2802D02*
Y3702D01*
X9193Y2802D02*
X7493D01*
X9193Y3702D02*
X7493D01*
X9562Y13216D02*
Y14116D01*
X11262Y13216D02*
Y14116D01*
X9562D01*
X11262Y13216D02*
X9562D01*
X7396Y15569D02*
X6496D01*
X7396Y13869D02*
X6496D01*
X7396D02*
Y15569D01*
X6496Y13869D02*
Y15569D01*
X5383Y1380D02*
Y2330D01*
X3683Y1380D02*
Y2330D01*
X5383Y1380D02*
X3683D01*
X5383Y2330D02*
X3683D01*
X11516Y14969D02*
Y15919D01*
X9816Y14969D02*
Y15919D01*
X11516Y14969D02*
X9816D01*
X11516Y15919D02*
X9816D01*
X10065Y14969D02*
Y15919D01*
X8365Y14969D02*
Y15919D01*
X10065Y14969D02*
X8365D01*
X10065Y15919D02*
X8365D01*
X13771Y8523D02*
X12821D01*
X13771Y10173D02*
X12821D01*
Y8523D02*
Y10173D01*
X13771Y8523D02*
Y10173D01*
Y11190D02*
X12821D01*
X13771Y12840D02*
X12821D01*
Y11190D02*
Y12840D01*
X13771Y11190D02*
Y12840D01*
Y5856D02*
X12821D01*
X13771Y7506D02*
X12821D01*
Y5856D02*
Y7506D01*
X13771Y5856D02*
Y7506D01*
X5226Y40125D02*
Y41825D01*
X6126Y40125D02*
Y41825D01*
Y40125D02*
X5226D01*
X6126Y41825D02*
X5226D01*
X1739Y42867D02*
X469D01*
Y24867D02*
Y42867D01*
X1739Y24867D02*
Y42867D01*
Y24867D02*
X469D01*
X15688Y39872D02*
X14418D01*
Y27872D02*
Y39872D01*
X15688Y27872D02*
Y39872D01*
Y27872D02*
X14418D01*
X4826Y27444D02*
Y28344D01*
X6526Y27444D02*
Y28344D01*
X4826D01*
X6526Y27444D02*
X4826D01*
X9193D02*
Y28344D01*
X7493Y27444D02*
Y28344D01*
X9193Y27444D02*
X7493D01*
X9193Y28344D02*
X7493D01*
X9562Y37858D02*
Y38758D01*
X11262Y37858D02*
Y38758D01*
X9562D01*
X11262Y37858D02*
X9562D01*
X7396Y40211D02*
X6496D01*
X7396Y38511D02*
X6496D01*
X7396D02*
Y40211D01*
X6496Y38511D02*
Y40211D01*
X5383Y26022D02*
Y26972D01*
X3683Y26022D02*
Y26972D01*
X5383Y26022D02*
X3683D01*
X5383Y26972D02*
X3683D01*
X11516Y39611D02*
Y40561D01*
X9816Y39611D02*
Y40561D01*
X11516Y39611D02*
X9816D01*
X11516Y40561D02*
X9816D01*
X10065Y39611D02*
Y40561D01*
X8365Y39611D02*
Y40561D01*
X10065Y39611D02*
X8365D01*
X10065Y40561D02*
X8365D01*
X13771Y33165D02*
X12821D01*
X13771Y34815D02*
X12821D01*
Y33165D02*
Y34815D01*
X13771Y33165D02*
Y34815D01*
Y35832D02*
X12821D01*
X13771Y37482D02*
X12821D01*
Y35832D02*
Y37482D01*
X13771Y35832D02*
Y37482D01*
Y30498D02*
X12821D01*
X13771Y32148D02*
X12821D01*
Y30498D02*
Y32148D01*
X13771Y30498D02*
Y32148D01*
M02*
