G04 Layer_Color=128*
%FSLAX43Y43*%
%MOMM*%
G71*
G01*
G75*
%ADD11R,0.640X1.000*%
%ADD12R,1.000X0.640*%
%ADD13C,0.100*%
%ADD14C,0.100*%
%ADD46R,0.700X0.510*%
%ADD47R,1.000X0.640*%
%ADD48R,0.510X0.700*%
%ADD49R,0.640X1.000*%
%ADD66R,0.487X0.700*%
%ADD67R,1.000X0.640*%
%ADD68R,0.400X1.200*%
%ADD69R,1.000X1.400*%
%ADD70R,1.060X0.540*%
G36*
X64400Y-15478D02*
X64458Y-15483D01*
X64514Y-15491D01*
X64558Y-15500D01*
X64597Y-15508D01*
X64625Y-15516D01*
X64636Y-15519D01*
X64644Y-15522D01*
X64647Y-15525D01*
X64650D01*
X64697Y-15544D01*
X64738Y-15569D01*
X64774Y-15591D01*
X64805Y-15614D01*
X64827Y-15636D01*
X64844Y-15652D01*
X64855Y-15664D01*
X64858Y-15666D01*
X64883Y-15702D01*
X64905Y-15741D01*
X64922Y-15780D01*
X64936Y-15816D01*
X64947Y-15852D01*
X64955Y-15877D01*
X64958Y-15888D01*
Y-15897D01*
X64961Y-15900D01*
Y-15902D01*
X64730Y-15933D01*
X64713Y-15883D01*
X64697Y-15838D01*
X64677Y-15802D01*
X64661Y-15775D01*
X64644Y-15752D01*
X64630Y-15739D01*
X64619Y-15730D01*
X64616Y-15727D01*
X64583Y-15708D01*
X64544Y-15694D01*
X64502Y-15683D01*
X64464Y-15677D01*
X64425Y-15672D01*
X64397Y-15669D01*
X64369D01*
X64305Y-15672D01*
X64250Y-15680D01*
X64205Y-15694D01*
X64166Y-15708D01*
X64139Y-15725D01*
X64117Y-15736D01*
X64103Y-15747D01*
X64100Y-15750D01*
X64078Y-15775D01*
X64061Y-15805D01*
X64047Y-15838D01*
X64039Y-15872D01*
X64033Y-15902D01*
X64030Y-15930D01*
Y-15947D01*
Y-15950D01*
Y-15952D01*
Y-15958D01*
Y-15969D01*
Y-15988D01*
X64033Y-16005D01*
Y-16011D01*
Y-16013D01*
X64061Y-16022D01*
X64092Y-16030D01*
X64155Y-16047D01*
X64228Y-16061D01*
X64294Y-16074D01*
X64328Y-16080D01*
X64358Y-16083D01*
X64386Y-16088D01*
X64408Y-16091D01*
X64427Y-16094D01*
X64441D01*
X64452Y-16097D01*
X64455D01*
X64505Y-16102D01*
X64547Y-16111D01*
X64583Y-16116D01*
X64611Y-16122D01*
X64633Y-16124D01*
X64650Y-16130D01*
X64661Y-16133D01*
X64663D01*
X64700Y-16144D01*
X64730Y-16155D01*
X64761Y-16169D01*
X64786Y-16180D01*
X64808Y-16191D01*
X64822Y-16202D01*
X64833Y-16208D01*
X64836Y-16211D01*
X64863Y-16230D01*
X64886Y-16252D01*
X64908Y-16274D01*
X64924Y-16297D01*
X64938Y-16316D01*
X64949Y-16333D01*
X64955Y-16344D01*
X64958Y-16347D01*
X64972Y-16377D01*
X64983Y-16410D01*
X64991Y-16441D01*
X64997Y-16471D01*
X64999Y-16496D01*
X65002Y-16516D01*
Y-16527D01*
Y-16533D01*
X64999Y-16566D01*
X64997Y-16594D01*
X64983Y-16652D01*
X64963Y-16699D01*
X64941Y-16741D01*
X64919Y-16774D01*
X64899Y-16799D01*
X64886Y-16813D01*
X64880Y-16818D01*
X64830Y-16855D01*
X64774Y-16882D01*
X64713Y-16902D01*
X64658Y-16916D01*
X64608Y-16924D01*
X64586Y-16927D01*
X64566D01*
X64550Y-16930D01*
X64527D01*
X64477Y-16927D01*
X64427Y-16921D01*
X64383Y-16916D01*
X64344Y-16907D01*
X64314Y-16899D01*
X64289Y-16891D01*
X64272Y-16888D01*
X64266Y-16885D01*
X64219Y-16866D01*
X64175Y-16841D01*
X64133Y-16813D01*
X64092Y-16788D01*
X64058Y-16763D01*
X64033Y-16744D01*
X64017Y-16730D01*
X64014Y-16724D01*
X64011D01*
X64005Y-16760D01*
X64000Y-16794D01*
X63994Y-16824D01*
X63986Y-16849D01*
X63978Y-16871D01*
X63972Y-16885D01*
X63969Y-16896D01*
X63967Y-16899D01*
X63720D01*
X63733Y-16868D01*
X63747Y-16838D01*
X63758Y-16810D01*
X63764Y-16785D01*
X63772Y-16763D01*
X63775Y-16746D01*
X63778Y-16735D01*
Y-16732D01*
X63781Y-16713D01*
X63783Y-16688D01*
Y-16660D01*
X63786Y-16630D01*
X63789Y-16560D01*
Y-16491D01*
X63792Y-16424D01*
Y-16394D01*
Y-16369D01*
Y-16347D01*
Y-16330D01*
Y-16319D01*
Y-16316D01*
Y-16000D01*
Y-15947D01*
X63794Y-15900D01*
X63797Y-15863D01*
Y-15833D01*
X63800Y-15811D01*
X63803Y-15794D01*
X63806Y-15786D01*
Y-15783D01*
X63814Y-15747D01*
X63825Y-15716D01*
X63836Y-15691D01*
X63850Y-15666D01*
X63861Y-15650D01*
X63869Y-15636D01*
X63875Y-15627D01*
X63878Y-15625D01*
X63900Y-15603D01*
X63925Y-15580D01*
X63953Y-15564D01*
X63980Y-15547D01*
X64005Y-15536D01*
X64025Y-15528D01*
X64039Y-15522D01*
X64044Y-15519D01*
X64089Y-15505D01*
X64136Y-15494D01*
X64183Y-15486D01*
X64230Y-15480D01*
X64272Y-15478D01*
X64303Y-15475D01*
X64333D01*
X64400Y-15478D01*
D02*
G37*
G36*
X75949Y-16899D02*
X75216D01*
X75149Y-16896D01*
X75091Y-16893D01*
X75038Y-16888D01*
X74994Y-16882D01*
X74958Y-16877D01*
X74930Y-16874D01*
X74913Y-16868D01*
X74908D01*
X74860Y-16855D01*
X74822Y-16841D01*
X74786Y-16824D01*
X74755Y-16807D01*
X74730Y-16796D01*
X74711Y-16785D01*
X74699Y-16777D01*
X74697Y-16774D01*
X74666Y-16749D01*
X74638Y-16719D01*
X74616Y-16688D01*
X74594Y-16660D01*
X74577Y-16632D01*
X74566Y-16613D01*
X74558Y-16599D01*
X74555Y-16594D01*
X74536Y-16549D01*
X74522Y-16505D01*
X74511Y-16463D01*
X74505Y-16424D01*
X74500Y-16391D01*
X74497Y-16363D01*
Y-16347D01*
Y-16344D01*
Y-16341D01*
X74500Y-16280D01*
X74511Y-16224D01*
X74527Y-16177D01*
X74544Y-16133D01*
X74561Y-16099D01*
X74577Y-16074D01*
X74588Y-16058D01*
X74591Y-16052D01*
X74630Y-16008D01*
X74672Y-15972D01*
X74719Y-15941D01*
X74761Y-15916D01*
X74799Y-15897D01*
X74833Y-15886D01*
X74844Y-15880D01*
X74852Y-15877D01*
X74858Y-15875D01*
X74860D01*
X74813Y-15847D01*
X74772Y-15819D01*
X74738Y-15789D01*
X74711Y-15761D01*
X74688Y-15739D01*
X74672Y-15716D01*
X74663Y-15705D01*
X74661Y-15700D01*
X74638Y-15658D01*
X74622Y-15619D01*
X74608Y-15580D01*
X74600Y-15544D01*
X74594Y-15514D01*
X74591Y-15489D01*
Y-15475D01*
Y-15469D01*
X74594Y-15422D01*
X74602Y-15375D01*
X74616Y-15333D01*
X74630Y-15294D01*
X74644Y-15261D01*
X74658Y-15239D01*
X74666Y-15222D01*
X74669Y-15217D01*
X74699Y-15175D01*
X74733Y-15136D01*
X74769Y-15106D01*
X74802Y-15081D01*
X74830Y-15061D01*
X74855Y-15047D01*
X74872Y-15039D01*
X74874Y-15036D01*
X74877D01*
X74930Y-15017D01*
X74988Y-15003D01*
X75047Y-14992D01*
X75102Y-14986D01*
X75152Y-14981D01*
X75174D01*
X75194Y-14978D01*
X75949D01*
Y-16899D01*
D02*
G37*
G36*
X66682D02*
X66426D01*
Y-16119D01*
X65935D01*
X65863Y-16116D01*
X65793Y-16111D01*
X65732Y-16102D01*
X65677Y-16091D01*
X65624Y-16080D01*
X65580Y-16066D01*
X65538Y-16049D01*
X65502Y-16033D01*
X65471Y-16019D01*
X65444Y-16002D01*
X65421Y-15988D01*
X65405Y-15975D01*
X65391Y-15966D01*
X65382Y-15958D01*
X65377Y-15952D01*
X65374Y-15950D01*
X65346Y-15916D01*
X65321Y-15883D01*
X65302Y-15850D01*
X65283Y-15814D01*
X65266Y-15777D01*
X65255Y-15744D01*
X65235Y-15680D01*
X65230Y-15650D01*
X65224Y-15622D01*
X65221Y-15597D01*
X65219Y-15578D01*
X65216Y-15558D01*
Y-15547D01*
Y-15539D01*
Y-15536D01*
X65219Y-15483D01*
X65224Y-15433D01*
X65235Y-15389D01*
X65244Y-15350D01*
X65255Y-15317D01*
X65266Y-15292D01*
X65271Y-15278D01*
X65274Y-15272D01*
X65296Y-15230D01*
X65324Y-15194D01*
X65349Y-15161D01*
X65374Y-15136D01*
X65396Y-15117D01*
X65413Y-15100D01*
X65424Y-15092D01*
X65430Y-15089D01*
X65466Y-15067D01*
X65507Y-15047D01*
X65546Y-15031D01*
X65582Y-15017D01*
X65616Y-15008D01*
X65641Y-15003D01*
X65660Y-14997D01*
X65666D01*
X65707Y-14992D01*
X65755Y-14986D01*
X65804Y-14983D01*
X65852Y-14981D01*
X65893Y-14978D01*
X66682D01*
Y-16899D01*
D02*
G37*
G36*
X60821Y-15478D02*
X60871Y-15483D01*
X60918Y-15491D01*
X60963Y-15505D01*
X61004Y-15519D01*
X61043Y-15536D01*
X61079Y-15553D01*
X61110Y-15572D01*
X61140Y-15589D01*
X61165Y-15608D01*
X61188Y-15625D01*
X61204Y-15639D01*
X61218Y-15652D01*
X61229Y-15661D01*
X61235Y-15666D01*
X61238Y-15669D01*
X61268Y-15708D01*
X61296Y-15750D01*
X61321Y-15791D01*
X61343Y-15836D01*
X61360Y-15883D01*
X61374Y-15927D01*
X61396Y-16016D01*
X61404Y-16055D01*
X61410Y-16094D01*
X61412Y-16127D01*
X61415Y-16158D01*
X61418Y-16183D01*
Y-16199D01*
Y-16213D01*
Y-16216D01*
X61415Y-16277D01*
X61410Y-16335D01*
X61401Y-16391D01*
X61390Y-16441D01*
X61376Y-16488D01*
X61363Y-16533D01*
X61346Y-16571D01*
X61329Y-16608D01*
X61313Y-16638D01*
X61296Y-16666D01*
X61282Y-16688D01*
X61268Y-16707D01*
X61257Y-16724D01*
X61249Y-16735D01*
X61243Y-16741D01*
X61240Y-16744D01*
X61204Y-16777D01*
X61168Y-16805D01*
X61129Y-16830D01*
X61088Y-16852D01*
X61049Y-16868D01*
X61007Y-16885D01*
X60929Y-16907D01*
X60893Y-16913D01*
X60860Y-16918D01*
X60829Y-16924D01*
X60805Y-16927D01*
X60785Y-16930D01*
X60755D01*
X60668Y-16924D01*
X60591Y-16910D01*
X60521Y-16893D01*
X60494Y-16882D01*
X60466Y-16871D01*
X60441Y-16860D01*
X60419Y-16849D01*
X60402Y-16841D01*
X60385Y-16832D01*
X60374Y-16824D01*
X60366Y-16818D01*
X60360Y-16813D01*
X60358D01*
X60302Y-16763D01*
X60258Y-16710D01*
X60219Y-16655D01*
X60191Y-16602D01*
X60169Y-16555D01*
X60160Y-16533D01*
X60152Y-16516D01*
X60147Y-16499D01*
X60144Y-16488D01*
X60141Y-16483D01*
Y-16480D01*
X60385Y-16449D01*
X60408Y-16502D01*
X60432Y-16546D01*
X60457Y-16585D01*
X60480Y-16616D01*
X60499Y-16638D01*
X60516Y-16655D01*
X60530Y-16666D01*
X60532Y-16669D01*
X60569Y-16691D01*
X60605Y-16707D01*
X60643Y-16719D01*
X60677Y-16727D01*
X60707Y-16732D01*
X60732Y-16735D01*
X60755D01*
X60788Y-16732D01*
X60818Y-16730D01*
X60874Y-16716D01*
X60924Y-16696D01*
X60968Y-16674D01*
X61002Y-16655D01*
X61027Y-16635D01*
X61043Y-16621D01*
X61046Y-16616D01*
X61049D01*
X61088Y-16566D01*
X61118Y-16510D01*
X61140Y-16449D01*
X61157Y-16394D01*
X61165Y-16344D01*
X61171Y-16322D01*
X61174Y-16302D01*
Y-16285D01*
X61177Y-16274D01*
Y-16266D01*
Y-16263D01*
X60135D01*
X60133Y-16235D01*
Y-16216D01*
Y-16205D01*
Y-16202D01*
X60135Y-16138D01*
X60141Y-16080D01*
X60149Y-16024D01*
X60160Y-15972D01*
X60174Y-15925D01*
X60188Y-15880D01*
X60205Y-15841D01*
X60221Y-15805D01*
X60238Y-15772D01*
X60255Y-15744D01*
X60269Y-15722D01*
X60283Y-15702D01*
X60294Y-15686D01*
X60302Y-15675D01*
X60308Y-15669D01*
X60310Y-15666D01*
X60344Y-15633D01*
X60380Y-15603D01*
X60419Y-15578D01*
X60457Y-15555D01*
X60496Y-15536D01*
X60532Y-15522D01*
X60571Y-15508D01*
X60605Y-15500D01*
X60641Y-15491D01*
X60671Y-15486D01*
X60699Y-15480D01*
X60721Y-15478D01*
X60741Y-15475D01*
X60768D01*
X60821Y-15478D01*
D02*
G37*
G36*
X62045Y-15161D02*
Y-15505D01*
X62220D01*
Y-15689D01*
X62045D01*
Y-16494D01*
Y-16533D01*
Y-16566D01*
X62043Y-16596D01*
X62040Y-16627D01*
Y-16652D01*
X62037Y-16674D01*
X62032Y-16710D01*
X62026Y-16738D01*
X62023Y-16757D01*
X62018Y-16769D01*
Y-16771D01*
X62007Y-16796D01*
X61990Y-16816D01*
X61973Y-16835D01*
X61959Y-16849D01*
X61943Y-16863D01*
X61932Y-16871D01*
X61923Y-16877D01*
X61921Y-16880D01*
X61890Y-16893D01*
X61859Y-16902D01*
X61826Y-16910D01*
X61793Y-16913D01*
X61765Y-16916D01*
X61743Y-16918D01*
X61721D01*
X61660Y-16916D01*
X61629Y-16913D01*
X61601Y-16907D01*
X61576Y-16905D01*
X61557Y-16902D01*
X61546Y-16899D01*
X61540D01*
X61571Y-16691D01*
X61593Y-16694D01*
X61615Y-16696D01*
X61635D01*
X61648Y-16699D01*
X61676D01*
X61712Y-16696D01*
X61737Y-16691D01*
X61751Y-16685D01*
X61757Y-16682D01*
X61776Y-16669D01*
X61787Y-16655D01*
X61796Y-16644D01*
X61798Y-16638D01*
X61801Y-16624D01*
X61804Y-16605D01*
X61807Y-16560D01*
X61809Y-16541D01*
Y-16524D01*
Y-16513D01*
Y-16508D01*
Y-15689D01*
X61571D01*
Y-15505D01*
X61809D01*
Y-15019D01*
X62045Y-15161D01*
D02*
G37*
G36*
X71898D02*
Y-15505D01*
X72073D01*
Y-15689D01*
X71898D01*
Y-16494D01*
Y-16533D01*
Y-16566D01*
X71896Y-16596D01*
X71893Y-16627D01*
Y-16652D01*
X71890Y-16674D01*
X71884Y-16710D01*
X71879Y-16738D01*
X71876Y-16757D01*
X71871Y-16769D01*
Y-16771D01*
X71859Y-16796D01*
X71843Y-16816D01*
X71826Y-16835D01*
X71812Y-16849D01*
X71796Y-16863D01*
X71784Y-16871D01*
X71776Y-16877D01*
X71773Y-16880D01*
X71743Y-16893D01*
X71712Y-16902D01*
X71679Y-16910D01*
X71646Y-16913D01*
X71618Y-16916D01*
X71596Y-16918D01*
X71573D01*
X71512Y-16916D01*
X71482Y-16913D01*
X71454Y-16907D01*
X71429Y-16905D01*
X71410Y-16902D01*
X71399Y-16899D01*
X71393D01*
X71424Y-16691D01*
X71446Y-16694D01*
X71468Y-16696D01*
X71487D01*
X71501Y-16699D01*
X71529D01*
X71565Y-16696D01*
X71590Y-16691D01*
X71604Y-16685D01*
X71610Y-16682D01*
X71629Y-16669D01*
X71640Y-16655D01*
X71648Y-16644D01*
X71651Y-16638D01*
X71654Y-16624D01*
X71657Y-16605D01*
X71660Y-16560D01*
X71662Y-16541D01*
Y-16524D01*
Y-16513D01*
Y-16508D01*
Y-15689D01*
X71424D01*
Y-15505D01*
X71662D01*
Y-15019D01*
X71898Y-15161D01*
D02*
G37*
G36*
X72645D02*
Y-15505D01*
X72820D01*
Y-15689D01*
X72645D01*
Y-16494D01*
Y-16533D01*
Y-16566D01*
X72642Y-16596D01*
X72640Y-16627D01*
Y-16652D01*
X72637Y-16674D01*
X72631Y-16710D01*
X72626Y-16738D01*
X72623Y-16757D01*
X72617Y-16769D01*
Y-16771D01*
X72606Y-16796D01*
X72590Y-16816D01*
X72573Y-16835D01*
X72559Y-16849D01*
X72542Y-16863D01*
X72531Y-16871D01*
X72523Y-16877D01*
X72520Y-16880D01*
X72490Y-16893D01*
X72459Y-16902D01*
X72426Y-16910D01*
X72392Y-16913D01*
X72365Y-16916D01*
X72342Y-16918D01*
X72320D01*
X72259Y-16916D01*
X72229Y-16913D01*
X72201Y-16907D01*
X72176Y-16905D01*
X72156Y-16902D01*
X72145Y-16899D01*
X72140D01*
X72170Y-16691D01*
X72193Y-16694D01*
X72215Y-16696D01*
X72234D01*
X72248Y-16699D01*
X72276D01*
X72312Y-16696D01*
X72337Y-16691D01*
X72351Y-16685D01*
X72356Y-16682D01*
X72376Y-16669D01*
X72387Y-16655D01*
X72395Y-16644D01*
X72398Y-16638D01*
X72401Y-16624D01*
X72404Y-16605D01*
X72406Y-16560D01*
X72409Y-16541D01*
Y-16524D01*
Y-16513D01*
Y-16508D01*
Y-15689D01*
X72170D01*
Y-15505D01*
X72409D01*
Y-15019D01*
X72645Y-15161D01*
D02*
G37*
G36*
X69117Y-15478D02*
X69164Y-15486D01*
X69205Y-15494D01*
X69241Y-15505D01*
X69272Y-15519D01*
X69294Y-15528D01*
X69308Y-15536D01*
X69314Y-15539D01*
X69352Y-15564D01*
X69386Y-15591D01*
X69416Y-15619D01*
X69441Y-15647D01*
X69461Y-15669D01*
X69477Y-15689D01*
X69486Y-15700D01*
X69489Y-15705D01*
Y-15505D01*
X69700D01*
Y-16899D01*
X69464D01*
Y-16177D01*
X69461Y-16111D01*
X69458Y-16052D01*
X69452Y-16002D01*
X69444Y-15961D01*
X69436Y-15930D01*
X69430Y-15908D01*
X69427Y-15894D01*
X69425Y-15888D01*
X69408Y-15852D01*
X69389Y-15822D01*
X69369Y-15794D01*
X69350Y-15772D01*
X69330Y-15755D01*
X69316Y-15744D01*
X69305Y-15736D01*
X69303Y-15733D01*
X69269Y-15716D01*
X69239Y-15702D01*
X69205Y-15694D01*
X69178Y-15686D01*
X69155Y-15683D01*
X69136Y-15680D01*
X69119D01*
X69072Y-15683D01*
X69033Y-15691D01*
X69000Y-15705D01*
X68975Y-15719D01*
X68955Y-15736D01*
X68942Y-15747D01*
X68933Y-15758D01*
X68930Y-15761D01*
X68911Y-15794D01*
X68897Y-15830D01*
X68886Y-15869D01*
X68881Y-15908D01*
X68875Y-15941D01*
X68872Y-15972D01*
Y-15983D01*
Y-15988D01*
Y-15994D01*
Y-15997D01*
Y-16899D01*
X68636D01*
Y-16091D01*
X68631Y-16016D01*
X68620Y-15952D01*
X68606Y-15900D01*
X68586Y-15855D01*
X68570Y-15822D01*
X68553Y-15800D01*
X68542Y-15786D01*
X68539Y-15780D01*
X68500Y-15747D01*
X68459Y-15722D01*
X68417Y-15705D01*
X68378Y-15691D01*
X68345Y-15686D01*
X68317Y-15683D01*
X68306Y-15680D01*
X68292D01*
X68261Y-15683D01*
X68236Y-15686D01*
X68211Y-15691D01*
X68192Y-15700D01*
X68173Y-15708D01*
X68161Y-15714D01*
X68153Y-15716D01*
X68150Y-15719D01*
X68128Y-15736D01*
X68112Y-15752D01*
X68098Y-15769D01*
X68087Y-15786D01*
X68078Y-15800D01*
X68073Y-15811D01*
X68067Y-15819D01*
Y-15822D01*
X68059Y-15847D01*
X68053Y-15880D01*
X68050Y-15913D01*
X68048Y-15947D01*
X68045Y-15977D01*
Y-16002D01*
Y-16019D01*
Y-16022D01*
Y-16024D01*
Y-16899D01*
X67809D01*
Y-15944D01*
Y-15900D01*
X67814Y-15861D01*
X67820Y-15822D01*
X67826Y-15789D01*
X67834Y-15755D01*
X67845Y-15727D01*
X67853Y-15702D01*
X67864Y-15677D01*
X67876Y-15658D01*
X67884Y-15639D01*
X67903Y-15614D01*
X67914Y-15597D01*
X67920Y-15591D01*
X67964Y-15553D01*
X68017Y-15525D01*
X68070Y-15503D01*
X68120Y-15489D01*
X68167Y-15480D01*
X68186Y-15478D01*
X68206D01*
X68220Y-15475D01*
X68239D01*
X68289Y-15478D01*
X68334Y-15486D01*
X68378Y-15497D01*
X68420Y-15514D01*
X68459Y-15533D01*
X68495Y-15553D01*
X68525Y-15575D01*
X68556Y-15597D01*
X68583Y-15622D01*
X68606Y-15644D01*
X68625Y-15664D01*
X68642Y-15683D01*
X68656Y-15700D01*
X68664Y-15711D01*
X68670Y-15719D01*
X68672Y-15722D01*
X68689Y-15680D01*
X68711Y-15644D01*
X68736Y-15614D01*
X68758Y-15589D01*
X68781Y-15566D01*
X68797Y-15553D01*
X68808Y-15544D01*
X68814Y-15541D01*
X68853Y-15519D01*
X68894Y-15503D01*
X68936Y-15491D01*
X68978Y-15483D01*
X69011Y-15478D01*
X69042Y-15475D01*
X69067D01*
X69117Y-15478D01*
D02*
G37*
G36*
X73661D02*
X73706Y-15480D01*
X73792Y-15500D01*
X73867Y-15525D01*
X73900Y-15539D01*
X73930Y-15553D01*
X73958Y-15566D01*
X73980Y-15580D01*
X74003Y-15594D01*
X74019Y-15605D01*
X74033Y-15616D01*
X74044Y-15625D01*
X74050Y-15627D01*
X74053Y-15630D01*
X74091Y-15666D01*
X74122Y-15708D01*
X74153Y-15752D01*
X74175Y-15797D01*
X74197Y-15844D01*
X74214Y-15894D01*
X74228Y-15941D01*
X74239Y-15986D01*
X74250Y-16030D01*
X74255Y-16069D01*
X74261Y-16108D01*
X74264Y-16138D01*
Y-16166D01*
X74266Y-16186D01*
Y-16197D01*
Y-16202D01*
X74264Y-16266D01*
X74258Y-16327D01*
X74250Y-16383D01*
X74239Y-16435D01*
X74225Y-16483D01*
X74211Y-16527D01*
X74194Y-16569D01*
X74178Y-16605D01*
X74161Y-16638D01*
X74144Y-16666D01*
X74130Y-16688D01*
X74116Y-16707D01*
X74105Y-16724D01*
X74097Y-16735D01*
X74091Y-16741D01*
X74089Y-16744D01*
X74053Y-16777D01*
X74017Y-16805D01*
X73978Y-16830D01*
X73939Y-16852D01*
X73900Y-16868D01*
X73858Y-16885D01*
X73783Y-16907D01*
X73750Y-16913D01*
X73717Y-16918D01*
X73689Y-16924D01*
X73664Y-16927D01*
X73642Y-16930D01*
X73614D01*
X73547Y-16927D01*
X73486Y-16916D01*
X73428Y-16902D01*
X73381Y-16888D01*
X73339Y-16871D01*
X73322Y-16866D01*
X73309Y-16860D01*
X73295Y-16855D01*
X73286Y-16849D01*
X73284Y-16846D01*
X73281D01*
X73225Y-16810D01*
X73178Y-16771D01*
X73136Y-16732D01*
X73103Y-16694D01*
X73078Y-16660D01*
X73059Y-16632D01*
X73053Y-16621D01*
X73048Y-16613D01*
X73045Y-16610D01*
Y-16608D01*
X73017Y-16544D01*
X72998Y-16474D01*
X72981Y-16405D01*
X72973Y-16335D01*
X72967Y-16305D01*
Y-16277D01*
X72964Y-16249D01*
X72962Y-16227D01*
Y-16208D01*
Y-16194D01*
Y-16186D01*
Y-16183D01*
X72964Y-16122D01*
X72970Y-16066D01*
X72978Y-16013D01*
X72989Y-15963D01*
X73003Y-15916D01*
X73020Y-15875D01*
X73037Y-15833D01*
X73053Y-15800D01*
X73070Y-15769D01*
X73087Y-15741D01*
X73103Y-15716D01*
X73117Y-15697D01*
X73128Y-15683D01*
X73136Y-15672D01*
X73142Y-15666D01*
X73145Y-15664D01*
X73181Y-15630D01*
X73217Y-15603D01*
X73256Y-15575D01*
X73295Y-15555D01*
X73334Y-15536D01*
X73372Y-15522D01*
X73447Y-15497D01*
X73483Y-15491D01*
X73514Y-15486D01*
X73542Y-15480D01*
X73567Y-15478D01*
X73586Y-15475D01*
X73614D01*
X73661Y-15478D01*
D02*
G37*
G36*
X33133Y-14950D02*
X33230Y-14964D01*
X33274Y-14972D01*
X33316Y-14983D01*
X33355Y-14992D01*
X33391Y-15003D01*
X33424Y-15014D01*
X33452Y-15025D01*
X33477Y-15036D01*
X33499Y-15044D01*
X33516Y-15053D01*
X33527Y-15058D01*
X33535Y-15061D01*
X33538Y-15064D01*
X33577Y-15089D01*
X33616Y-15114D01*
X33683Y-15172D01*
X33741Y-15230D01*
X33788Y-15292D01*
X33827Y-15344D01*
X33841Y-15367D01*
X33852Y-15389D01*
X33863Y-15405D01*
X33869Y-15417D01*
X33871Y-15425D01*
X33874Y-15428D01*
X33913Y-15519D01*
X33941Y-15611D01*
X33963Y-15700D01*
X33968Y-15741D01*
X33977Y-15780D01*
X33980Y-15816D01*
X33985Y-15847D01*
X33988Y-15877D01*
Y-15902D01*
X33991Y-15922D01*
Y-15936D01*
Y-15947D01*
Y-15950D01*
X33985Y-16052D01*
X33971Y-16149D01*
X33963Y-16194D01*
X33955Y-16235D01*
X33944Y-16277D01*
X33932Y-16313D01*
X33921Y-16347D01*
X33910Y-16374D01*
X33902Y-16402D01*
X33894Y-16421D01*
X33885Y-16441D01*
X33880Y-16452D01*
X33874Y-16460D01*
Y-16463D01*
X33824Y-16544D01*
X33769Y-16613D01*
X33710Y-16674D01*
X33655Y-16724D01*
X33602Y-16763D01*
X33583Y-16777D01*
X33563Y-16791D01*
X33547Y-16799D01*
X33535Y-16807D01*
X33527Y-16810D01*
X33524Y-16813D01*
X33480Y-16835D01*
X33435Y-16852D01*
X33347Y-16882D01*
X33261Y-16902D01*
X33180Y-16918D01*
X33144Y-16921D01*
X33111Y-16927D01*
X33080Y-16930D01*
X33055D01*
X33036Y-16932D01*
X33008D01*
X32930Y-16930D01*
X32855Y-16921D01*
X32786Y-16907D01*
X32725Y-16893D01*
X32700Y-16888D01*
X32675Y-16882D01*
X32653Y-16874D01*
X32633Y-16868D01*
X32619Y-16863D01*
X32608Y-16860D01*
X32603Y-16857D01*
X32600D01*
X32525Y-16827D01*
X32455Y-16791D01*
X32389Y-16752D01*
X32331Y-16716D01*
X32306Y-16699D01*
X32281Y-16682D01*
X32261Y-16669D01*
X32244Y-16657D01*
X32231Y-16646D01*
X32219Y-16638D01*
X32214Y-16635D01*
X32211Y-16632D01*
Y-15919D01*
X33027D01*
Y-16147D01*
X32461D01*
Y-16508D01*
X32494Y-16535D01*
X32533Y-16560D01*
X32575Y-16583D01*
X32614Y-16602D01*
X32647Y-16619D01*
X32678Y-16632D01*
X32689Y-16638D01*
X32694Y-16641D01*
X32700Y-16644D01*
X32703D01*
X32761Y-16663D01*
X32819Y-16680D01*
X32872Y-16691D01*
X32922Y-16696D01*
X32963Y-16702D01*
X32980D01*
X32997Y-16705D01*
X33025D01*
X33094Y-16702D01*
X33161Y-16691D01*
X33222Y-16677D01*
X33277Y-16663D01*
X33322Y-16646D01*
X33341Y-16641D01*
X33355Y-16635D01*
X33369Y-16630D01*
X33377Y-16624D01*
X33383Y-16621D01*
X33385D01*
X33444Y-16585D01*
X33497Y-16546D01*
X33541Y-16505D01*
X33577Y-16463D01*
X33608Y-16424D01*
X33627Y-16394D01*
X33635Y-16383D01*
X33638Y-16374D01*
X33644Y-16369D01*
Y-16366D01*
X33671Y-16297D01*
X33694Y-16224D01*
X33708Y-16152D01*
X33719Y-16083D01*
X33721Y-16052D01*
X33724Y-16024D01*
X33727Y-15997D01*
Y-15975D01*
X33730Y-15958D01*
Y-15944D01*
Y-15936D01*
Y-15933D01*
X33727Y-15855D01*
X33719Y-15786D01*
X33708Y-15719D01*
X33694Y-15661D01*
X33688Y-15636D01*
X33680Y-15614D01*
X33674Y-15594D01*
X33669Y-15578D01*
X33663Y-15564D01*
X33660Y-15555D01*
X33658Y-15550D01*
Y-15547D01*
X33638Y-15508D01*
X33619Y-15472D01*
X33599Y-15439D01*
X33580Y-15411D01*
X33563Y-15389D01*
X33549Y-15369D01*
X33538Y-15358D01*
X33535Y-15355D01*
X33505Y-15325D01*
X33472Y-15297D01*
X33435Y-15275D01*
X33402Y-15253D01*
X33374Y-15239D01*
X33352Y-15225D01*
X33336Y-15219D01*
X33330Y-15217D01*
X33280Y-15197D01*
X33230Y-15183D01*
X33177Y-15175D01*
X33130Y-15167D01*
X33088Y-15164D01*
X33072D01*
X33058Y-15161D01*
X33027D01*
X32975Y-15164D01*
X32925Y-15169D01*
X32880Y-15178D01*
X32841Y-15186D01*
X32808Y-15197D01*
X32783Y-15206D01*
X32769Y-15211D01*
X32764Y-15214D01*
X32722Y-15233D01*
X32686Y-15255D01*
X32653Y-15278D01*
X32628Y-15300D01*
X32608Y-15319D01*
X32591Y-15333D01*
X32583Y-15344D01*
X32580Y-15347D01*
X32555Y-15380D01*
X32536Y-15419D01*
X32517Y-15455D01*
X32500Y-15494D01*
X32489Y-15528D01*
X32480Y-15553D01*
X32478Y-15564D01*
X32475Y-15572D01*
X32472Y-15575D01*
Y-15578D01*
X32242Y-15516D01*
X32261Y-15447D01*
X32286Y-15386D01*
X32311Y-15330D01*
X32333Y-15286D01*
X32355Y-15250D01*
X32372Y-15225D01*
X32383Y-15208D01*
X32389Y-15203D01*
X32428Y-15158D01*
X32469Y-15122D01*
X32514Y-15089D01*
X32555Y-15061D01*
X32594Y-15042D01*
X32625Y-15025D01*
X32636Y-15019D01*
X32644Y-15017D01*
X32650Y-15014D01*
X32653D01*
X32716Y-14992D01*
X32783Y-14975D01*
X32844Y-14961D01*
X32902Y-14953D01*
X32955Y-14947D01*
X32977D01*
X32994Y-14945D01*
X33083D01*
X33133Y-14950D01*
D02*
G37*
G36*
X63050Y-15480D02*
X63084Y-15483D01*
X63114Y-15489D01*
X63139Y-15494D01*
X63159Y-15500D01*
X63170Y-15503D01*
X63175Y-15505D01*
X63209Y-15516D01*
X63239Y-15528D01*
X63264Y-15539D01*
X63286Y-15550D01*
X63303Y-15558D01*
X63314Y-15566D01*
X63323Y-15569D01*
X63325Y-15572D01*
X63353Y-15591D01*
X63375Y-15614D01*
X63395Y-15639D01*
X63411Y-15658D01*
X63425Y-15677D01*
X63434Y-15691D01*
X63439Y-15702D01*
X63442Y-15705D01*
X63456Y-15736D01*
X63467Y-15764D01*
X63472Y-15794D01*
X63478Y-15819D01*
X63481Y-15844D01*
X63484Y-15861D01*
Y-15872D01*
Y-15877D01*
X63481Y-15916D01*
X63475Y-15950D01*
X63467Y-15983D01*
X63459Y-16011D01*
X63450Y-16033D01*
X63442Y-16052D01*
X63436Y-16063D01*
X63434Y-16066D01*
X63411Y-16097D01*
X63386Y-16122D01*
X63361Y-16144D01*
X63336Y-16163D01*
X63314Y-16177D01*
X63298Y-16188D01*
X63286Y-16194D01*
X63281Y-16197D01*
X63261Y-16205D01*
X63236Y-16216D01*
X63181Y-16235D01*
X63123Y-16252D01*
X63062Y-16272D01*
X63009Y-16285D01*
X62984Y-16294D01*
X62962Y-16299D01*
X62945Y-16305D01*
X62931Y-16308D01*
X62923Y-16310D01*
X62920D01*
X62884Y-16319D01*
X62853Y-16327D01*
X62826Y-16335D01*
X62801Y-16344D01*
X62778Y-16349D01*
X62759Y-16358D01*
X62726Y-16369D01*
X62703Y-16377D01*
X62690Y-16385D01*
X62681Y-16388D01*
X62678Y-16391D01*
X62653Y-16408D01*
X62637Y-16430D01*
X62623Y-16449D01*
X62615Y-16469D01*
X62609Y-16488D01*
X62606Y-16502D01*
Y-16513D01*
Y-16516D01*
X62609Y-16549D01*
X62617Y-16577D01*
X62631Y-16605D01*
X62645Y-16627D01*
X62662Y-16646D01*
X62673Y-16660D01*
X62684Y-16669D01*
X62687Y-16671D01*
X62720Y-16694D01*
X62756Y-16707D01*
X62798Y-16719D01*
X62837Y-16727D01*
X62873Y-16732D01*
X62901Y-16735D01*
X62928D01*
X62987Y-16732D01*
X63037Y-16724D01*
X63078Y-16713D01*
X63114Y-16699D01*
X63142Y-16685D01*
X63164Y-16674D01*
X63175Y-16666D01*
X63181Y-16663D01*
X63211Y-16632D01*
X63236Y-16596D01*
X63253Y-16560D01*
X63267Y-16527D01*
X63278Y-16496D01*
X63284Y-16469D01*
X63289Y-16452D01*
Y-16449D01*
Y-16446D01*
X63522Y-16483D01*
X63503Y-16560D01*
X63478Y-16630D01*
X63447Y-16685D01*
X63417Y-16732D01*
X63389Y-16771D01*
X63364Y-16796D01*
X63348Y-16813D01*
X63345Y-16816D01*
X63342Y-16818D01*
X63314Y-16838D01*
X63284Y-16855D01*
X63217Y-16882D01*
X63148Y-16902D01*
X63081Y-16916D01*
X63050Y-16921D01*
X63023Y-16924D01*
X62995Y-16927D01*
X62973D01*
X62953Y-16930D01*
X62928D01*
X62867Y-16927D01*
X62814Y-16921D01*
X62765Y-16913D01*
X62720Y-16902D01*
X62684Y-16891D01*
X62656Y-16882D01*
X62640Y-16877D01*
X62637Y-16874D01*
X62634D01*
X62587Y-16849D01*
X62548Y-16824D01*
X62515Y-16796D01*
X62484Y-16771D01*
X62462Y-16749D01*
X62448Y-16730D01*
X62437Y-16719D01*
X62434Y-16713D01*
X62412Y-16674D01*
X62395Y-16632D01*
X62381Y-16596D01*
X62373Y-16563D01*
X62368Y-16533D01*
X62365Y-16510D01*
Y-16496D01*
Y-16491D01*
X62368Y-16446D01*
X62373Y-16408D01*
X62384Y-16374D01*
X62393Y-16344D01*
X62404Y-16319D01*
X62415Y-16302D01*
X62420Y-16291D01*
X62423Y-16288D01*
X62445Y-16260D01*
X62470Y-16235D01*
X62495Y-16213D01*
X62520Y-16197D01*
X62545Y-16183D01*
X62562Y-16174D01*
X62573Y-16169D01*
X62578Y-16166D01*
X62598Y-16158D01*
X62620Y-16149D01*
X62673Y-16130D01*
X62731Y-16111D01*
X62790Y-16094D01*
X62842Y-16077D01*
X62867Y-16072D01*
X62887Y-16066D01*
X62903Y-16061D01*
X62917Y-16058D01*
X62926Y-16055D01*
X62928D01*
X62959Y-16047D01*
X62987Y-16038D01*
X63012Y-16033D01*
X63034Y-16024D01*
X63070Y-16016D01*
X63098Y-16008D01*
X63117Y-16000D01*
X63128Y-15997D01*
X63134Y-15994D01*
X63137D01*
X63159Y-15983D01*
X63178Y-15975D01*
X63195Y-15963D01*
X63206Y-15955D01*
X63217Y-15947D01*
X63223Y-15938D01*
X63225Y-15936D01*
X63228Y-15933D01*
X63245Y-15905D01*
X63253Y-15877D01*
Y-15866D01*
X63256Y-15858D01*
Y-15852D01*
Y-15850D01*
X63253Y-15825D01*
X63245Y-15800D01*
X63234Y-15777D01*
X63220Y-15761D01*
X63209Y-15744D01*
X63198Y-15733D01*
X63189Y-15727D01*
X63187Y-15725D01*
X63156Y-15705D01*
X63120Y-15691D01*
X63081Y-15683D01*
X63045Y-15675D01*
X63009Y-15672D01*
X62981Y-15669D01*
X62953D01*
X62906Y-15672D01*
X62862Y-15677D01*
X62826Y-15689D01*
X62798Y-15700D01*
X62773Y-15711D01*
X62756Y-15722D01*
X62745Y-15727D01*
X62742Y-15730D01*
X62715Y-15755D01*
X62695Y-15783D01*
X62678Y-15811D01*
X62665Y-15836D01*
X62656Y-15861D01*
X62651Y-15880D01*
X62648Y-15891D01*
Y-15897D01*
X62417Y-15866D01*
X62429Y-15819D01*
X62440Y-15777D01*
X62454Y-15741D01*
X62467Y-15708D01*
X62481Y-15686D01*
X62492Y-15666D01*
X62498Y-15655D01*
X62501Y-15652D01*
X62526Y-15625D01*
X62554Y-15600D01*
X62584Y-15578D01*
X62615Y-15558D01*
X62642Y-15544D01*
X62665Y-15533D01*
X62678Y-15528D01*
X62681Y-15525D01*
X62684D01*
X62731Y-15508D01*
X62781Y-15497D01*
X62828Y-15486D01*
X62873Y-15480D01*
X62914Y-15478D01*
X62945Y-15475D01*
X63012D01*
X63050Y-15480D01*
D02*
G37*
G36*
X70674Y-15478D02*
X70718Y-15480D01*
X70804Y-15500D01*
X70879Y-15525D01*
X70913Y-15539D01*
X70943Y-15553D01*
X70971Y-15566D01*
X70993Y-15580D01*
X71015Y-15594D01*
X71032Y-15605D01*
X71046Y-15616D01*
X71057Y-15625D01*
X71063Y-15627D01*
X71065Y-15630D01*
X71104Y-15666D01*
X71135Y-15708D01*
X71165Y-15752D01*
X71188Y-15797D01*
X71210Y-15844D01*
X71226Y-15894D01*
X71240Y-15941D01*
X71251Y-15986D01*
X71263Y-16030D01*
X71268Y-16069D01*
X71274Y-16108D01*
X71276Y-16138D01*
Y-16166D01*
X71279Y-16186D01*
Y-16197D01*
Y-16202D01*
X71276Y-16266D01*
X71271Y-16327D01*
X71263Y-16383D01*
X71251Y-16435D01*
X71238Y-16483D01*
X71224Y-16527D01*
X71207Y-16569D01*
X71190Y-16605D01*
X71174Y-16638D01*
X71157Y-16666D01*
X71143Y-16688D01*
X71129Y-16707D01*
X71118Y-16724D01*
X71110Y-16735D01*
X71104Y-16741D01*
X71102Y-16744D01*
X71065Y-16777D01*
X71029Y-16805D01*
X70990Y-16830D01*
X70952Y-16852D01*
X70913Y-16868D01*
X70871Y-16885D01*
X70796Y-16907D01*
X70763Y-16913D01*
X70729Y-16918D01*
X70702Y-16924D01*
X70677Y-16927D01*
X70655Y-16930D01*
X70627D01*
X70560Y-16927D01*
X70499Y-16916D01*
X70441Y-16902D01*
X70394Y-16888D01*
X70352Y-16871D01*
X70335Y-16866D01*
X70321Y-16860D01*
X70308Y-16855D01*
X70299Y-16849D01*
X70296Y-16846D01*
X70294D01*
X70238Y-16810D01*
X70191Y-16771D01*
X70149Y-16732D01*
X70116Y-16694D01*
X70091Y-16660D01*
X70072Y-16632D01*
X70066Y-16621D01*
X70060Y-16613D01*
X70058Y-16610D01*
Y-16608D01*
X70030Y-16544D01*
X70010Y-16474D01*
X69994Y-16405D01*
X69985Y-16335D01*
X69980Y-16305D01*
Y-16277D01*
X69977Y-16249D01*
X69974Y-16227D01*
Y-16208D01*
Y-16194D01*
Y-16186D01*
Y-16183D01*
X69977Y-16122D01*
X69983Y-16066D01*
X69991Y-16013D01*
X70002Y-15963D01*
X70016Y-15916D01*
X70033Y-15875D01*
X70049Y-15833D01*
X70066Y-15800D01*
X70083Y-15769D01*
X70099Y-15741D01*
X70116Y-15716D01*
X70130Y-15697D01*
X70141Y-15683D01*
X70149Y-15672D01*
X70155Y-15666D01*
X70158Y-15664D01*
X70194Y-15630D01*
X70230Y-15603D01*
X70269Y-15575D01*
X70308Y-15555D01*
X70346Y-15536D01*
X70385Y-15522D01*
X70460Y-15497D01*
X70496Y-15491D01*
X70527Y-15486D01*
X70555Y-15480D01*
X70580Y-15478D01*
X70599Y-15475D01*
X70627D01*
X70674Y-15478D01*
D02*
G37*
G36*
X31847Y-16899D02*
X31115D01*
X31048Y-16896D01*
X30990Y-16893D01*
X30937Y-16888D01*
X30892Y-16882D01*
X30856Y-16877D01*
X30829Y-16874D01*
X30812Y-16868D01*
X30806D01*
X30759Y-16855D01*
X30720Y-16841D01*
X30684Y-16824D01*
X30654Y-16807D01*
X30629Y-16796D01*
X30609Y-16785D01*
X30598Y-16777D01*
X30595Y-16774D01*
X30565Y-16749D01*
X30537Y-16719D01*
X30515Y-16688D01*
X30493Y-16660D01*
X30476Y-16632D01*
X30465Y-16613D01*
X30457Y-16599D01*
X30454Y-16594D01*
X30434Y-16549D01*
X30420Y-16505D01*
X30409Y-16463D01*
X30404Y-16424D01*
X30398Y-16391D01*
X30395Y-16363D01*
Y-16347D01*
Y-16344D01*
Y-16341D01*
X30398Y-16280D01*
X30409Y-16224D01*
X30426Y-16177D01*
X30443Y-16133D01*
X30459Y-16099D01*
X30476Y-16074D01*
X30487Y-16058D01*
X30490Y-16052D01*
X30529Y-16008D01*
X30570Y-15972D01*
X30618Y-15941D01*
X30659Y-15916D01*
X30698Y-15897D01*
X30731Y-15886D01*
X30743Y-15880D01*
X30751Y-15877D01*
X30756Y-15875D01*
X30759D01*
X30712Y-15847D01*
X30670Y-15819D01*
X30637Y-15789D01*
X30609Y-15761D01*
X30587Y-15739D01*
X30570Y-15716D01*
X30562Y-15705D01*
X30559Y-15700D01*
X30537Y-15658D01*
X30520Y-15619D01*
X30507Y-15580D01*
X30498Y-15544D01*
X30493Y-15514D01*
X30490Y-15489D01*
Y-15475D01*
Y-15469D01*
X30493Y-15422D01*
X30501Y-15375D01*
X30515Y-15333D01*
X30529Y-15294D01*
X30543Y-15261D01*
X30557Y-15239D01*
X30565Y-15222D01*
X30568Y-15217D01*
X30598Y-15175D01*
X30631Y-15136D01*
X30668Y-15106D01*
X30701Y-15081D01*
X30729Y-15061D01*
X30754Y-15047D01*
X30770Y-15039D01*
X30773Y-15036D01*
X30776D01*
X30829Y-15017D01*
X30887Y-15003D01*
X30945Y-14992D01*
X31001Y-14986D01*
X31051Y-14981D01*
X31073D01*
X31092Y-14978D01*
X31847D01*
Y-16899D01*
D02*
G37*
G36*
X30046D02*
X29790D01*
Y-16119D01*
X29299D01*
X29227Y-16116D01*
X29157Y-16111D01*
X29096Y-16102D01*
X29041Y-16091D01*
X28988Y-16080D01*
X28944Y-16066D01*
X28902Y-16049D01*
X28866Y-16033D01*
X28835Y-16019D01*
X28807Y-16002D01*
X28785Y-15988D01*
X28769Y-15975D01*
X28755Y-15966D01*
X28746Y-15958D01*
X28741Y-15952D01*
X28738Y-15950D01*
X28710Y-15916D01*
X28685Y-15883D01*
X28666Y-15850D01*
X28646Y-15814D01*
X28630Y-15777D01*
X28619Y-15744D01*
X28599Y-15680D01*
X28594Y-15650D01*
X28588Y-15622D01*
X28585Y-15597D01*
X28583Y-15578D01*
X28580Y-15558D01*
Y-15547D01*
Y-15539D01*
Y-15536D01*
X28583Y-15483D01*
X28588Y-15433D01*
X28599Y-15389D01*
X28608Y-15350D01*
X28619Y-15317D01*
X28630Y-15292D01*
X28635Y-15278D01*
X28638Y-15272D01*
X28660Y-15230D01*
X28688Y-15194D01*
X28713Y-15161D01*
X28738Y-15136D01*
X28760Y-15117D01*
X28777Y-15100D01*
X28788Y-15092D01*
X28794Y-15089D01*
X28830Y-15067D01*
X28871Y-15047D01*
X28910Y-15031D01*
X28946Y-15017D01*
X28980Y-15008D01*
X29005Y-15003D01*
X29024Y-14997D01*
X29030D01*
X29071Y-14992D01*
X29118Y-14986D01*
X29168Y-14983D01*
X29216Y-14981D01*
X29257Y-14978D01*
X30046D01*
Y-16899D01*
D02*
G37*
G36*
X34635D02*
X34365D01*
Y-16630D01*
X34635D01*
Y-16899D01*
D02*
G37*
%LPC*%
G36*
X64033Y-16199D02*
X64030D01*
X64033Y-16288D01*
X64036Y-16344D01*
X64039Y-16391D01*
X64044Y-16430D01*
X64053Y-16463D01*
X64061Y-16488D01*
X64067Y-16508D01*
X64069Y-16519D01*
X64072Y-16521D01*
X64094Y-16558D01*
X64117Y-16591D01*
X64144Y-16619D01*
X64169Y-16641D01*
X64191Y-16660D01*
X64211Y-16674D01*
X64222Y-16682D01*
X64228Y-16685D01*
X64269Y-16705D01*
X64311Y-16719D01*
X64350Y-16730D01*
X64389Y-16735D01*
X64419Y-16741D01*
X64447Y-16744D01*
X64469D01*
X64519Y-16741D01*
X64561Y-16735D01*
X64597Y-16724D01*
X64627Y-16713D01*
X64650Y-16702D01*
X64666Y-16691D01*
X64677Y-16685D01*
X64680Y-16682D01*
X64702Y-16657D01*
X64719Y-16630D01*
X64733Y-16605D01*
X64741Y-16580D01*
X64747Y-16558D01*
X64750Y-16541D01*
Y-16527D01*
Y-16524D01*
X64747Y-16502D01*
X64744Y-16480D01*
X64738Y-16463D01*
X64733Y-16446D01*
X64727Y-16433D01*
X64725Y-16421D01*
X64719Y-16416D01*
Y-16413D01*
X64691Y-16380D01*
X64658Y-16358D01*
X64647Y-16349D01*
X64636Y-16344D01*
X64627Y-16338D01*
X64625D01*
X64597Y-16327D01*
X64566Y-16319D01*
X64533Y-16310D01*
X64500Y-16305D01*
X64469Y-16299D01*
X64441Y-16294D01*
X64425Y-16291D01*
X64419D01*
X64372Y-16283D01*
X64328Y-16277D01*
X64289Y-16269D01*
X64250Y-16260D01*
X64214Y-16252D01*
X64183Y-16244D01*
X64153Y-16238D01*
X64128Y-16230D01*
X64105Y-16224D01*
X64086Y-16219D01*
X64069Y-16213D01*
X64055Y-16208D01*
X64044Y-16205D01*
X64036Y-16202D01*
X64033Y-16199D01*
D02*
G37*
G36*
X75693Y-15206D02*
X75238D01*
X75177Y-15211D01*
X75130Y-15214D01*
X75088Y-15219D01*
X75058Y-15225D01*
X75038Y-15228D01*
X75024Y-15233D01*
X75022D01*
X74991Y-15244D01*
X74963Y-15261D01*
X74941Y-15278D01*
X74922Y-15294D01*
X74908Y-15308D01*
X74897Y-15322D01*
X74891Y-15330D01*
X74888Y-15333D01*
X74872Y-15361D01*
X74860Y-15389D01*
X74852Y-15417D01*
X74847Y-15444D01*
X74844Y-15466D01*
X74841Y-15483D01*
Y-15494D01*
Y-15500D01*
X74844Y-15536D01*
X74849Y-15569D01*
X74858Y-15597D01*
X74866Y-15619D01*
X74874Y-15639D01*
X74883Y-15655D01*
X74888Y-15664D01*
X74891Y-15666D01*
X74910Y-15689D01*
X74935Y-15711D01*
X74960Y-15727D01*
X74983Y-15739D01*
X75005Y-15750D01*
X75022Y-15758D01*
X75033Y-15761D01*
X75038Y-15764D01*
X75069Y-15769D01*
X75108Y-15775D01*
X75146Y-15777D01*
X75185Y-15780D01*
X75221Y-15783D01*
X75693D01*
Y-15206D01*
D02*
G37*
G36*
Y-16011D02*
X75188D01*
X75130Y-16016D01*
X75083Y-16022D01*
X75044Y-16027D01*
X75013Y-16033D01*
X74988Y-16038D01*
X74977Y-16041D01*
X74972Y-16044D01*
X74935Y-16058D01*
X74905Y-16074D01*
X74877Y-16094D01*
X74855Y-16113D01*
X74838Y-16130D01*
X74827Y-16144D01*
X74819Y-16155D01*
X74816Y-16158D01*
X74797Y-16188D01*
X74783Y-16219D01*
X74772Y-16249D01*
X74766Y-16277D01*
X74761Y-16302D01*
X74758Y-16324D01*
Y-16335D01*
Y-16341D01*
X74761Y-16374D01*
X74763Y-16408D01*
X74769Y-16435D01*
X74777Y-16458D01*
X74786Y-16477D01*
X74791Y-16494D01*
X74794Y-16502D01*
X74797Y-16505D01*
X74813Y-16530D01*
X74827Y-16552D01*
X74847Y-16569D01*
X74860Y-16585D01*
X74874Y-16596D01*
X74885Y-16605D01*
X74894Y-16610D01*
X74897Y-16613D01*
X74944Y-16635D01*
X74991Y-16652D01*
X75010Y-16657D01*
X75027Y-16660D01*
X75038Y-16663D01*
X75041D01*
X75063Y-16666D01*
X75088Y-16669D01*
X75146Y-16671D01*
X75693D01*
Y-16011D01*
D02*
G37*
G36*
X66426Y-15206D02*
X65877D01*
X65827Y-15208D01*
X65785Y-15211D01*
X65752Y-15214D01*
X65730Y-15219D01*
X65713Y-15222D01*
X65702Y-15225D01*
X65699D01*
X65663Y-15239D01*
X65632Y-15255D01*
X65605Y-15272D01*
X65580Y-15292D01*
X65563Y-15311D01*
X65549Y-15325D01*
X65541Y-15336D01*
X65538Y-15339D01*
X65519Y-15372D01*
X65502Y-15405D01*
X65491Y-15441D01*
X65485Y-15472D01*
X65480Y-15500D01*
X65477Y-15525D01*
Y-15539D01*
Y-15541D01*
Y-15544D01*
X65482Y-15603D01*
X65494Y-15652D01*
X65510Y-15697D01*
X65530Y-15733D01*
X65549Y-15761D01*
X65566Y-15783D01*
X65577Y-15794D01*
X65582Y-15800D01*
X65602Y-15816D01*
X65627Y-15830D01*
X65680Y-15852D01*
X65738Y-15869D01*
X65796Y-15880D01*
X65849Y-15886D01*
X65871Y-15888D01*
X65891D01*
X65910Y-15891D01*
X66426D01*
Y-15206D01*
D02*
G37*
G36*
X60782Y-15669D02*
X60766D01*
X60732Y-15672D01*
X60702Y-15675D01*
X60643Y-15691D01*
X60594Y-15714D01*
X60552Y-15739D01*
X60519Y-15764D01*
X60494Y-15786D01*
X60480Y-15802D01*
X60474Y-15805D01*
Y-15808D01*
X60449Y-15844D01*
X60427Y-15886D01*
X60413Y-15927D01*
X60399Y-15972D01*
X60391Y-16008D01*
X60385Y-16041D01*
Y-16052D01*
X60383Y-16061D01*
Y-16066D01*
Y-16069D01*
X61163D01*
X61154Y-16005D01*
X61138Y-15947D01*
X61118Y-15897D01*
X61096Y-15858D01*
X61077Y-15825D01*
X61057Y-15800D01*
X61046Y-15786D01*
X61040Y-15780D01*
X60996Y-15744D01*
X60952Y-15716D01*
X60904Y-15697D01*
X60860Y-15683D01*
X60824Y-15675D01*
X60793Y-15672D01*
X60782Y-15669D01*
D02*
G37*
G36*
X73631D02*
X73614D01*
X73581Y-15672D01*
X73550Y-15675D01*
X73495Y-15689D01*
X73445Y-15711D01*
X73403Y-15736D01*
X73370Y-15761D01*
X73345Y-15780D01*
X73328Y-15797D01*
X73322Y-15800D01*
Y-15802D01*
X73300Y-15827D01*
X73284Y-15858D01*
X73253Y-15919D01*
X73231Y-15986D01*
X73217Y-16047D01*
X73209Y-16105D01*
X73206Y-16130D01*
Y-16152D01*
X73203Y-16169D01*
Y-16183D01*
Y-16191D01*
Y-16194D01*
Y-16244D01*
X73209Y-16291D01*
X73214Y-16333D01*
X73223Y-16374D01*
X73231Y-16410D01*
X73242Y-16444D01*
X73250Y-16474D01*
X73261Y-16502D01*
X73272Y-16524D01*
X73284Y-16546D01*
X73295Y-16563D01*
X73303Y-16577D01*
X73311Y-16588D01*
X73317Y-16596D01*
X73320Y-16599D01*
X73322Y-16602D01*
X73345Y-16624D01*
X73370Y-16646D01*
X73417Y-16680D01*
X73467Y-16702D01*
X73511Y-16719D01*
X73553Y-16727D01*
X73583Y-16732D01*
X73597Y-16735D01*
X73614D01*
X73647Y-16732D01*
X73678Y-16730D01*
X73736Y-16716D01*
X73786Y-16694D01*
X73828Y-16669D01*
X73861Y-16646D01*
X73886Y-16624D01*
X73903Y-16610D01*
X73905Y-16605D01*
X73908D01*
X73928Y-16577D01*
X73947Y-16549D01*
X73975Y-16485D01*
X73997Y-16419D01*
X74011Y-16352D01*
X74019Y-16294D01*
X74022Y-16269D01*
Y-16247D01*
X74025Y-16227D01*
Y-16213D01*
Y-16205D01*
Y-16202D01*
X74022Y-16155D01*
X74019Y-16108D01*
X74014Y-16066D01*
X74005Y-16027D01*
X73997Y-15991D01*
X73989Y-15958D01*
X73978Y-15930D01*
X73967Y-15902D01*
X73955Y-15880D01*
X73944Y-15858D01*
X73936Y-15841D01*
X73928Y-15827D01*
X73919Y-15816D01*
X73914Y-15808D01*
X73908Y-15805D01*
Y-15802D01*
X73886Y-15780D01*
X73861Y-15758D01*
X73814Y-15725D01*
X73764Y-15702D01*
X73717Y-15686D01*
X73675Y-15675D01*
X73645Y-15672D01*
X73631Y-15669D01*
D02*
G37*
G36*
X70643D02*
X70627D01*
X70593Y-15672D01*
X70563Y-15675D01*
X70507Y-15689D01*
X70457Y-15711D01*
X70416Y-15736D01*
X70382Y-15761D01*
X70357Y-15780D01*
X70341Y-15797D01*
X70335Y-15800D01*
Y-15802D01*
X70313Y-15827D01*
X70296Y-15858D01*
X70266Y-15919D01*
X70244Y-15986D01*
X70230Y-16047D01*
X70221Y-16105D01*
X70219Y-16130D01*
Y-16152D01*
X70216Y-16169D01*
Y-16183D01*
Y-16191D01*
Y-16194D01*
Y-16244D01*
X70221Y-16291D01*
X70227Y-16333D01*
X70235Y-16374D01*
X70244Y-16410D01*
X70255Y-16444D01*
X70263Y-16474D01*
X70274Y-16502D01*
X70285Y-16524D01*
X70296Y-16546D01*
X70308Y-16563D01*
X70316Y-16577D01*
X70324Y-16588D01*
X70330Y-16596D01*
X70332Y-16599D01*
X70335Y-16602D01*
X70357Y-16624D01*
X70382Y-16646D01*
X70430Y-16680D01*
X70480Y-16702D01*
X70524Y-16719D01*
X70566Y-16727D01*
X70596Y-16732D01*
X70610Y-16735D01*
X70627D01*
X70660Y-16732D01*
X70691Y-16730D01*
X70749Y-16716D01*
X70799Y-16694D01*
X70841Y-16669D01*
X70874Y-16646D01*
X70899Y-16624D01*
X70915Y-16610D01*
X70918Y-16605D01*
X70921D01*
X70940Y-16577D01*
X70960Y-16549D01*
X70988Y-16485D01*
X71010Y-16419D01*
X71024Y-16352D01*
X71032Y-16294D01*
X71035Y-16269D01*
Y-16247D01*
X71038Y-16227D01*
Y-16213D01*
Y-16205D01*
Y-16202D01*
X71035Y-16155D01*
X71032Y-16108D01*
X71027Y-16066D01*
X71018Y-16027D01*
X71010Y-15991D01*
X71002Y-15958D01*
X70990Y-15930D01*
X70979Y-15902D01*
X70968Y-15880D01*
X70957Y-15858D01*
X70949Y-15841D01*
X70940Y-15827D01*
X70932Y-15816D01*
X70927Y-15808D01*
X70921Y-15805D01*
Y-15802D01*
X70899Y-15780D01*
X70874Y-15758D01*
X70827Y-15725D01*
X70777Y-15702D01*
X70729Y-15686D01*
X70688Y-15675D01*
X70657Y-15672D01*
X70643Y-15669D01*
D02*
G37*
G36*
X31592Y-16011D02*
X31087D01*
X31028Y-16016D01*
X30981Y-16022D01*
X30942Y-16027D01*
X30912Y-16033D01*
X30887Y-16038D01*
X30876Y-16041D01*
X30870Y-16044D01*
X30834Y-16058D01*
X30804Y-16074D01*
X30776Y-16094D01*
X30754Y-16113D01*
X30737Y-16130D01*
X30726Y-16144D01*
X30718Y-16155D01*
X30715Y-16158D01*
X30695Y-16188D01*
X30681Y-16219D01*
X30670Y-16249D01*
X30665Y-16277D01*
X30659Y-16302D01*
X30656Y-16324D01*
Y-16335D01*
Y-16341D01*
X30659Y-16374D01*
X30662Y-16408D01*
X30668Y-16435D01*
X30676Y-16458D01*
X30684Y-16477D01*
X30690Y-16494D01*
X30693Y-16502D01*
X30695Y-16505D01*
X30712Y-16530D01*
X30726Y-16552D01*
X30745Y-16569D01*
X30759Y-16585D01*
X30773Y-16596D01*
X30784Y-16605D01*
X30792Y-16610D01*
X30795Y-16613D01*
X30842Y-16635D01*
X30890Y-16652D01*
X30909Y-16657D01*
X30926Y-16660D01*
X30937Y-16663D01*
X30940D01*
X30962Y-16666D01*
X30987Y-16669D01*
X31045Y-16671D01*
X31592D01*
Y-16011D01*
D02*
G37*
G36*
Y-15206D02*
X31137D01*
X31076Y-15211D01*
X31028Y-15214D01*
X30987Y-15219D01*
X30956Y-15225D01*
X30937Y-15228D01*
X30923Y-15233D01*
X30920D01*
X30890Y-15244D01*
X30862Y-15261D01*
X30840Y-15278D01*
X30820Y-15294D01*
X30806Y-15308D01*
X30795Y-15322D01*
X30790Y-15330D01*
X30787Y-15333D01*
X30770Y-15361D01*
X30759Y-15389D01*
X30751Y-15417D01*
X30745Y-15444D01*
X30743Y-15466D01*
X30740Y-15483D01*
Y-15494D01*
Y-15500D01*
X30743Y-15536D01*
X30748Y-15569D01*
X30756Y-15597D01*
X30765Y-15619D01*
X30773Y-15639D01*
X30781Y-15655D01*
X30787Y-15664D01*
X30790Y-15666D01*
X30809Y-15689D01*
X30834Y-15711D01*
X30859Y-15727D01*
X30881Y-15739D01*
X30904Y-15750D01*
X30920Y-15758D01*
X30931Y-15761D01*
X30937Y-15764D01*
X30967Y-15769D01*
X31006Y-15775D01*
X31045Y-15777D01*
X31084Y-15780D01*
X31120Y-15783D01*
X31592D01*
Y-15206D01*
D02*
G37*
G36*
X29790D02*
X29241D01*
X29191Y-15208D01*
X29149Y-15211D01*
X29116Y-15214D01*
X29093Y-15219D01*
X29077Y-15222D01*
X29066Y-15225D01*
X29063D01*
X29027Y-15239D01*
X28996Y-15255D01*
X28969Y-15272D01*
X28944Y-15292D01*
X28927Y-15311D01*
X28913Y-15325D01*
X28905Y-15336D01*
X28902Y-15339D01*
X28882Y-15372D01*
X28866Y-15405D01*
X28855Y-15441D01*
X28849Y-15472D01*
X28844Y-15500D01*
X28841Y-15525D01*
Y-15539D01*
Y-15541D01*
Y-15544D01*
X28846Y-15603D01*
X28857Y-15652D01*
X28874Y-15697D01*
X28894Y-15733D01*
X28913Y-15761D01*
X28930Y-15783D01*
X28941Y-15794D01*
X28946Y-15800D01*
X28966Y-15816D01*
X28991Y-15830D01*
X29043Y-15852D01*
X29102Y-15869D01*
X29160Y-15880D01*
X29213Y-15886D01*
X29235Y-15888D01*
X29254D01*
X29274Y-15891D01*
X29790D01*
Y-15206D01*
D02*
G37*
%LPD*%
D11*
X34750Y6350D02*
D03*
X33350D02*
D03*
X54125D02*
D03*
X55525D02*
D03*
X31991Y38879D02*
D03*
X33391D02*
D03*
X45856Y45156D02*
D03*
X44456D02*
D03*
X45025Y63675D02*
D03*
X46425D02*
D03*
X45200Y65075D02*
D03*
X46600D02*
D03*
X46750Y66475D02*
D03*
X45350D02*
D03*
X31475Y68475D02*
D03*
X30075D02*
D03*
X19700Y69075D02*
D03*
X21100D02*
D03*
X31075Y69875D02*
D03*
X32475D02*
D03*
X19700Y71200D02*
D03*
X21100D02*
D03*
X32475Y71275D02*
D03*
X31075D02*
D03*
X19700Y72600D02*
D03*
X21100D02*
D03*
X31075Y72675D02*
D03*
X32475D02*
D03*
X19700Y74000D02*
D03*
X21100D02*
D03*
X31075Y74325D02*
D03*
X32475D02*
D03*
X21775Y87300D02*
D03*
X23175D02*
D03*
X21775Y88800D02*
D03*
X23175D02*
D03*
X21775Y90300D02*
D03*
X23175D02*
D03*
X26141Y95879D02*
D03*
X24741D02*
D03*
X16591Y116679D02*
D03*
X15191D02*
D03*
X41114Y101967D02*
D03*
X39714D02*
D03*
X34166Y101979D02*
D03*
X32766D02*
D03*
X37566D02*
D03*
X36166D02*
D03*
X34166Y103379D02*
D03*
X32766D02*
D03*
X37566D02*
D03*
X36166D02*
D03*
X41111Y103385D02*
D03*
X39711D02*
D03*
D12*
X28646Y17844D02*
D03*
Y16444D02*
D03*
X59550Y19050D02*
D03*
Y17650D02*
D03*
X44425Y58700D02*
D03*
Y57300D02*
D03*
X46025Y58700D02*
D03*
Y57300D02*
D03*
X40550Y64600D02*
D03*
Y63200D02*
D03*
X41950Y64600D02*
D03*
Y63200D02*
D03*
X28975Y64800D02*
D03*
Y63400D02*
D03*
X30375Y64800D02*
D03*
Y63400D02*
D03*
X26250Y78275D02*
D03*
Y76875D02*
D03*
X30900Y78275D02*
D03*
Y76875D02*
D03*
X32300Y78275D02*
D03*
Y76875D02*
D03*
X27766Y82429D02*
D03*
Y81029D02*
D03*
X29266Y82429D02*
D03*
Y81029D02*
D03*
X27750Y85650D02*
D03*
Y84250D02*
D03*
X29275Y85650D02*
D03*
Y84250D02*
D03*
X34375Y85650D02*
D03*
Y84250D02*
D03*
X36525Y85650D02*
D03*
Y84250D02*
D03*
X26825Y55625D02*
D03*
Y57025D02*
D03*
D13*
X-0Y2000D02*
G03*
X2000Y0I2000J0D01*
G01*
Y133340D02*
G03*
X-0Y131340I0J-2000D01*
G01*
X70000D02*
G03*
X68000Y133340I-2000J0D01*
G01*
Y0D02*
G03*
X70000Y2000I0J2000D01*
G01*
X36469Y7300D02*
G03*
X37369Y6400I900J0D01*
G01*
Y8200D02*
G03*
X36469Y7300I0J-900D01*
G01*
X52269Y7300D02*
G03*
X51369Y8200I-900J0D01*
G01*
X51369Y6400D02*
G03*
X52269Y7300I0J900D01*
G01*
X-0Y2000D02*
Y131340D01*
X70000Y2000D02*
Y131340D01*
X2000Y133340D02*
X68000D01*
X2000Y0D02*
X37369D01*
Y-0D02*
Y6400D01*
Y8200D02*
X51369D01*
X52269Y7300D02*
Y7300D01*
X51369Y-0D02*
Y6400D01*
Y-0D02*
X68000D01*
Y0D01*
D14*
X51369Y6400D02*
D03*
D46*
X36191Y33929D02*
D03*
Y34829D02*
D03*
X37191Y33929D02*
D03*
Y34829D02*
D03*
X38191Y33929D02*
D03*
Y34829D02*
D03*
X39191Y33929D02*
D03*
Y34829D02*
D03*
D47*
X26825Y55625D02*
D03*
Y57025D02*
D03*
D48*
X16316Y115454D02*
D03*
X15416D02*
D03*
D49*
X41114Y101967D02*
D03*
X39714D02*
D03*
X34166Y101979D02*
D03*
X32766D02*
D03*
X37566D02*
D03*
X36166D02*
D03*
X34166Y103379D02*
D03*
X32766D02*
D03*
X37566D02*
D03*
X36166D02*
D03*
X41111Y103385D02*
D03*
X39711D02*
D03*
D66*
X11906Y14125D02*
D03*
X10994D02*
D03*
X51581Y54175D02*
D03*
X50669D02*
D03*
X50669Y55275D02*
D03*
X51581D02*
D03*
X51956Y92375D02*
D03*
X51044D02*
D03*
X50669Y38100D02*
D03*
X51581D02*
D03*
X51581Y40675D02*
D03*
X50669D02*
D03*
X17944Y46625D02*
D03*
X18856D02*
D03*
X18856Y51700D02*
D03*
X17944D02*
D03*
X18856Y53300D02*
D03*
X17944D02*
D03*
X17944Y54900D02*
D03*
X18856D02*
D03*
X18856Y57625D02*
D03*
X17944D02*
D03*
X50669Y56375D02*
D03*
X51581D02*
D03*
X18856Y59350D02*
D03*
X17944D02*
D03*
X51581Y58700D02*
D03*
X50669D02*
D03*
X18856Y56000D02*
D03*
X17944D02*
D03*
X51581Y59775D02*
D03*
X50669D02*
D03*
X17944Y62050D02*
D03*
X18856D02*
D03*
X50669Y61575D02*
D03*
X51581D02*
D03*
X17944Y60950D02*
D03*
X18856D02*
D03*
X50669Y62675D02*
D03*
X51581D02*
D03*
X50669Y64575D02*
D03*
X51581D02*
D03*
X50669Y66175D02*
D03*
X51581D02*
D03*
X50669Y68400D02*
D03*
X51581D02*
D03*
X50669Y70175D02*
D03*
X51581D02*
D03*
X51581Y72944D02*
D03*
X50669D02*
D03*
D67*
X41225Y53800D02*
D03*
X41225Y55200D02*
D03*
X42875Y57300D02*
D03*
X42875Y58700D02*
D03*
X26525Y59125D02*
D03*
X26525Y60525D02*
D03*
X27925Y59125D02*
D03*
X27925Y60525D02*
D03*
X34350Y63200D02*
D03*
X34350Y64600D02*
D03*
X35750Y63200D02*
D03*
X35750Y64600D02*
D03*
X37150Y63200D02*
D03*
X37150Y64600D02*
D03*
X47875Y84250D02*
D03*
X47875Y85650D02*
D03*
X49275Y84250D02*
D03*
X49275Y85650D02*
D03*
X32050Y84250D02*
D03*
X32050Y85650D02*
D03*
X45475Y84250D02*
D03*
X45475Y85650D02*
D03*
X47875Y87050D02*
D03*
X47875Y88450D02*
D03*
X49275Y87050D02*
D03*
X49275Y88450D02*
D03*
X46450Y94000D02*
D03*
X46450Y95400D02*
D03*
D68*
X9641Y116204D02*
D03*
X8341D02*
D03*
Y114504D02*
D03*
X8991D02*
D03*
X9641D02*
D03*
D69*
X34158Y105047D02*
D03*
X32258D02*
D03*
X33208Y107247D02*
D03*
X37566Y105047D02*
D03*
X35666D02*
D03*
X36616Y107247D02*
D03*
X41091Y105047D02*
D03*
X39191D02*
D03*
X40141Y107247D02*
D03*
D70*
X54481Y114299D02*
D03*
X52341D02*
D03*
X54481Y116839D02*
D03*
X52341D02*
D03*
X54481Y119379D02*
D03*
X52341D02*
D03*
M02*
