M48
;Layer_Color=9474304
;FILE_FORMAT=4:3
METRIC,LZ
;TYPE=PLATED
T3F00S00C0.650
T9F00S00C0.900
T12F00S00C1.194
;TYPE=NON_PLATED
%
G90
G05
T03
G00X018393Y0039825
M15
G01Y0039075
M16
G00X018393Y0044225
M15
G01Y0043675
M16
G00X017308Y0044225
M15
G01Y0043675
M16
G00X017308Y0039825
M15
G01Y0039075
M16
G00X017308Y0081325
M15
G01Y0080575
M16
G00X017308Y0085725
M15
G01Y0085175
M16
G00X018393Y0085725
M15
G01Y0085175
M16
G00X018393Y0081325
M15
G01Y0080575
M16
T09
G00X0003727Y0008752
M15
G01X0004927
M16
G00X0009387Y0008752
M15
G01X0011187
M16
G00X011675Y00086
M15
G01Y00104
M16
G00X011675Y000294
M15
G01Y000414
M16
G00X013125Y000294
M15
G01Y000414
M16
G00X013125Y00086
M15
G01Y00104
M16
G00X013825Y00086
M15
G01Y00104
M16
G00X013825Y000294
M15
G01Y000414
M16
G00X015275Y000294
M15
G01Y000414
M16
G00X015275Y00086
M15
G01Y00104
M16
G00X0009387Y0023252
M15
G01X0011187
M16
G00X0009387Y0028733
M15
G01X0011187
M16
G00X0003727Y0028733
M15
G01X0004927
M16
G00X0003727Y0023252
M15
G01X0004927
M16
G00X0003727Y0043233
M15
G01X0004927
M16
G00X0003727Y0048715
M15
G01X0004927
M16
G00X0009387Y0048715
M15
G01X0011187
M16
G00X0009387Y0043233
M15
G01X0011187
M16
G00X0009387Y0063215
M15
G01X0011187
M16
G00X0009387Y0068696
M15
G01X0011187
M16
G00X0003727Y0068696
M15
G01X0004927
M16
G00X0003727Y0063215
M15
G01X0004927
M16
G00X0003727Y0083196
M15
G01X0004927
M16
G00X0009387Y0083196
M15
G01X0011187
M16
T12
G00X0061521Y0075276
M15
G01Y0077131
M16
G00X0067163Y0079053
M15
G01X0065309
M16
G00X0067406Y0073003
M15
G01X0065094
M16
M17
M30
