M48
;Layer_Color=9474304
;FILE_FORMAT=4:3
METRIC,LZ
;TYPE=PLATED
T1F00S00C0.250
T2F00S00C0.400
T4F00S00C0.711
T5F00S00C0.800
T6F00S00C0.889
T7F00S00C0.890
T8F00S00C0.900
T10F00S00C1.016
T11F00S00C1.020
T13F00S00C1.300
T14F00S00C1.800
T15F00S00C2.300
T16F00S00C2.700
T17F00S00C3.200
;TYPE=NON_PLATED
T18F00S00C0.400
T19F00S00C1.000
T20F00S00C3.000
%
T01
X00087Y0012002
X0008763Y0015748
X0013081Y0013502
X0013018Y0020002
X0008382Y0020066
X0008911Y0031983
X0008763Y0035687
X0008509Y0040005
X0013335
Y0033528
X0013333Y0053465
X0008636Y0051943
Y0055753
X0008509Y0059944
X0013335
X0013041Y0073446
X0008763Y0071247
X0008636Y0075692
X0008128Y008001
X0013017Y0079946
T02
X012Y000775
X01215
X0123
X01245
X0126
X0128Y0013
X012725Y00155
X012625
X0125492Y0016758
X012475Y00175
X012725Y0018
X012825Y0017
X013075Y00175
X013175Y00135
X014075Y0013
X0141492Y0013742
X01415Y000775
X013875Y00175
X011875
X011925Y00135
X0119992Y0014242
X014625Y00155
X014725
X014925Y001525
X014825Y0017
X014725Y0018
X0145492Y0016758
X014475Y00175
X015075Y00175
X015025Y00135
X0149Y000775
X0146
X01445
X0143
X014875Y00195
X014975Y00215
Y00235
X015375Y00225
Y00245
X015475Y00255
Y00275
X015325Y00265
X0178258Y0029258
X0179Y003
Y00335
X017975Y003475
X017575Y003575
X017451Y003449
X017825Y004025
X017975Y004025
X01809Y004025
X013975Y00235
X013975Y00215
X014075Y001955
X013575Y002025
X013375
Y00225
Y00245
Y0026
X013625
X013575Y00275
Y00245
Y00225
X012975Y00235
Y00215
X012875Y00195
X012075Y001955
X011975Y00215
X011969Y00235
X011575Y00245
Y0026
X011475Y00275
Y00235
X011575Y00225
X008825Y0024003
X007825Y0027503
X007925Y0033003
X007325
X007225Y0030003
X007075Y0030503
X006375
X007125Y0044003
X007075Y0056003
X007225Y0055503
X007325Y0058503
X007925
X007825Y0053003
X008825Y0049503
X006375Y0056003
X005425Y0044003
X005425Y0069503
X007125
X0178258Y0070758
X0179Y00715
Y0075
X017975Y007625
X017575Y007725
X017451Y007599
X017825Y008175
X017975Y008175
X01809Y008175
T04
X0006096Y0014097
X0007848Y001298
X0007747Y0016637
X0006096Y0017573
X0016383Y0015367
Y001143
X0021336Y0018923
X0028765Y0016002
X002794Y0024003
Y0028194
X0030059Y0026583
X0034925Y0022606
Y0020574
X0033179Y0032385
X002921Y0034798
X0031115Y0044577
X0032893
X0032004Y0046228
X0030226
X0027686
X0025781
X0025019Y0044577
X0026797
X0028768Y0047757
X0033909Y0049276
X0015748Y0052578
X0015367Y0055245
X0007747Y0057023
X0006731Y005842
Y0054483
X0007874Y0053213
X0005715Y0041529
X0006606Y0038483
X000762Y0037211
X0006162Y0034483
X0007747Y0033147
X0016256Y003302
X0015336Y0035814
X0016002Y0041529
X0013462Y0042291
X0014224Y0020828
X0016256Y0020955
X0021209Y0021463
X0022225Y002032
X0022352Y002286
X0021336Y0024257
X0022352Y0025527
X0021336Y002667
X0022225Y002794
X0008001Y0021463
Y0061595
X0014605Y0062738
X0016764
X0016129Y0068199
X0013716
X0014478Y0077216
X0016383
X0008001
X0006771Y0078446
X0005588Y0081153
X0006707Y0074446
X0007493Y0073025
X0028448Y0072512
X0033694Y0069088
X0034877Y0066754
X0034869Y0060254
X0030178Y0060754
T05
X0113775Y0063798
X0116315
X0118855
X0121395
X0123935
X0126475
X0129015
X0131555
X0134095
X0136635
X0139175
X0141715
X0140445Y0065703
X0137905
X0135365
X0132825
X0130285
X0127745
X0125205
X0122665
X0120125
X0117585
X0115045
X0113775Y0067608
X0116315
X0118855
X0121395
X0123935
X0126475
X0129015
X0131555
X0134095
X0136635
X0139175
X0141715
X0140445Y0069513
X0137905
X0135365
X0132825
X0130285
X0127745
X0125205
X0122665
X0120125
X0117585
X0115045
X0142985
X0145525
X0148065
X0150605
X0153145
X0155685
X0154415Y0067608
X0151875
X0149335
X0146795
X0144255
X0142985Y0065703
X0145525
X0148065
X0150605
X0153145
X0155685
X0154415Y0063798
X0151875
X0149335
X0146795
X0144255
T06
X007747Y0019003
X008001
X008255
X008509
X008763
X009017
X009271
X009525
X009525Y0044503
X009271
X009017
X008763
X008509
X008255
X008001
X007747
T07
X0023495Y0083185
Y0085725
X0026035
Y0083185
X0028575
X0031115
X0033655
X0036195
X0038735
X0041275
Y0085725
X0038735
X0036195
X0033655
X0031115
X0028575
T08
X014875Y0059003
X015129
T10
X011314Y0073323
X011568
X011822
X012076
X01233
X012584
X012838
X013092
X013346
X0136
X013854
X014108
Y0077133
X013854
X0136
X013346
X013092
X012838
X012584
X01233
X012076
X011822
X011568
X011314
Y0080943
X011568
X011822
X012076
X01233
X012584
X012838
X013092
X013346
X0136
X013854
X014108
Y0084753
X013854
X0136
X013346
X013092
X012838
X012584
X01233
X012076
X011822
X011568
X011314
X014362
X014616
X01487
X015124
X015378
X015632
Y0080943
X015378
X015124
X01487
X014616
X014362
Y0077133
X014616
X01487
X015124
X015378
X015632
Y0073323
X015378
X015124
X01487
X014616
X014362
T11
X018391Y001946
Y0022
X018645
Y001946
X018425Y002775
Y003029
Y003283
Y003537
X018225
Y003283
Y003029
Y002775
X018137Y0022
X017883
X017629
X017375
Y001946
X017629
X017883
X018137
X015632Y003275
X015378
X015124
X01487
X014616
X014362
Y003656
X014616
X01487
X015124
X015378
X015632
Y004037
X015378
X015124
X01487
X014616
X014362
Y004418
X014616
X01487
X015124
X015378
X015632
X014108
X013854
X0136
X013346
X013092
X012838
X012584
X01233
X012076
X011822
X011568
X011314
Y004037
X011568
X011822
X012076
X01233
X012584
X012838
X013092
X013346
X0136
X013854
X014108
Y003656
X013854
X0136
X013346
X013092
X012838
X012584
X01233
X012076
X011822
X011568
X011314
Y003275
X011568
X011822
X012076
X01233
X012584
X012838
X013092
X013346
X0136
X013854
X014108
X010675Y00265
X0043688Y0032639
Y0035179
Y0037719
Y0040259
Y0042799
Y0045339
X0041148
Y0042799
Y0040259
Y0037719
Y0035179
Y0032639
Y0047879
X0043688
Y0050419
Y0052959
Y0055499
Y0058039
X0041148
Y0055499
Y0052959
Y0050419
Y0060579
X0043688
Y0064389
Y0066929
Y0069469
Y0072009
Y0074549
Y0077089
X0041148
Y0074549
Y0072009
Y0069469
Y0066929
Y0064389
X017375Y00635
Y006096
X017629
Y00635
X017883
Y006096
X018137
Y00635
X018225Y006925
Y007179
Y007433
Y007687
X018425
Y007433
Y007179
Y006925
X018391Y00635
Y006096
X018645
Y00635
T13
X0041656Y0004826
Y0007366
Y0011303
Y0013843
Y0016383
Y0018923
X005325Y0016503
X005579
X005833
X006087
X010675Y00155
Y001804
Y002058
Y002312
X009375Y0023423
Y0025963
Y0028503
Y0031043
X009375Y0048923
Y0051463
Y0054003
Y0056543
T14
X007825Y0075103
Y0079303
Y0083503
X008375
Y0079303
Y0075103
T15
X0004318Y0004191
X0054441Y0083182
T16
X0105775Y0066656
X0163685
T17
X010675Y00045
X016275
Y00385
X010675
X010675Y0079003
X016275
T18
X017235Y0011
X01732
X017405
X01749
X017575
X01766
X017745
X01783
X017915
X018
X018085
X01817
X018255
X01834
X018425
X01851
X018595
X01868
X018765
T19
X017475Y004025
X018225
Y008175
X017475
T20
X009105Y0075103
Y0083503
M30
