G04*
G04 #@! TF.GenerationSoftware,Altium Limited,Altium Designer,21.8.1 (53)*
G04*
G04 Layer_Color=16711935*
%FSLAX25Y25*%
%MOIN*%
G70*
G04*
G04 #@! TF.SameCoordinates,1A9603C8-DC4E-418C-A41D-35C8E6E290D8*
G04*
G04*
G04 #@! TF.FilePolarity,Negative*
G04*
G01*
G75*
%ADD12C,0.09055*%
D12*
X166957Y119957D02*
D03*
Y157557D02*
D03*
Y91757D02*
D03*
Y166957D02*
D03*
Y129357D02*
D03*
Y138757D02*
D03*
Y148157D02*
D03*
Y101157D02*
D03*
Y110557D02*
D03*
Y25957D02*
D03*
Y63557D02*
D03*
Y72957D02*
D03*
Y82357D02*
D03*
Y35357D02*
D03*
Y44757D02*
D03*
Y54157D02*
D03*
X25957Y25957D02*
D03*
X72957D02*
D03*
X35357D02*
D03*
X63557D02*
D03*
X54157D02*
D03*
X44757D02*
D03*
X82357D02*
D03*
X91757D02*
D03*
X129357D02*
D03*
X101157D02*
D03*
X119957D02*
D03*
X110557D02*
D03*
X157557D02*
D03*
X148157D02*
D03*
X138757D02*
D03*
X25957Y119957D02*
D03*
Y157557D02*
D03*
Y91757D02*
D03*
Y166957D02*
D03*
Y129357D02*
D03*
Y138757D02*
D03*
Y148157D02*
D03*
Y101157D02*
D03*
Y110557D02*
D03*
Y35357D02*
D03*
Y44757D02*
D03*
Y54157D02*
D03*
Y63557D02*
D03*
Y72957D02*
D03*
Y82357D02*
D03*
X35357Y166957D02*
D03*
X72957D02*
D03*
X63557D02*
D03*
X54157D02*
D03*
X44757D02*
D03*
X82357D02*
D03*
X157557D02*
D03*
X129357D02*
D03*
X101157D02*
D03*
X91757D02*
D03*
X119957D02*
D03*
X110557D02*
D03*
X148157D02*
D03*
X138757D02*
D03*
M02*
