G04*
G04 #@! TF.GenerationSoftware,Altium Limited,Altium Designer,21.8.1 (53)*
G04*
G04 Layer_Color=65535*
%FSLAX25Y25*%
%MOIN*%
G70*
G04*
G04 #@! TF.SameCoordinates,1A9603C8-DC4E-418C-A41D-35C8E6E290D8*
G04*
G04*
G04 #@! TF.FilePolarity,Positive*
G04*
G01*
G75*
%ADD10C,0.00500*%
D10*
X6119Y187100D02*
X5452Y187766D01*
X4119D01*
X3453Y187100D01*
Y184434D01*
X4119Y183768D01*
X5452D01*
X6119Y184434D01*
Y185767D01*
X4786D01*
X9451Y187766D02*
X8118D01*
X7451Y187100D01*
Y184434D01*
X8118Y183768D01*
X9451D01*
X10117Y184434D01*
Y187100D01*
X9451Y187766D01*
X12117Y188433D02*
Y187100D01*
X11450Y186433D01*
X14116Y187766D02*
Y183768D01*
X16782D01*
X24779D02*
X22113D01*
X24779Y186433D01*
Y187100D01*
X24113Y187766D01*
X22780D01*
X22113Y187100D01*
X26112D02*
X26779Y187766D01*
X28111D01*
X28778Y187100D01*
Y184434D01*
X28111Y183768D01*
X26779D01*
X26112Y184434D01*
Y187100D01*
X32777Y183768D02*
X30111D01*
X32777Y186433D01*
Y187100D01*
X32110Y187766D01*
X30777D01*
X30111Y187100D01*
X34110Y183768D02*
X35442D01*
X34776D01*
Y187766D01*
X34110Y187100D01*
X41440Y187766D02*
Y184434D01*
X42107Y183768D01*
X43440D01*
X44106Y184434D01*
Y187766D01*
X45439Y183768D02*
Y187766D01*
X48105Y183768D01*
Y187766D01*
X49438D02*
X50771D01*
X50104D01*
Y183768D01*
X49438D01*
X50771D01*
X52770Y187766D02*
X55436D01*
X54103D01*
Y183768D01*
X60768D02*
Y187766D01*
X62767D01*
X63433Y187100D01*
Y185767D01*
X62767Y185101D01*
X60768D01*
X67432Y187100D02*
X66766Y187766D01*
X65433D01*
X64766Y187100D01*
Y184434D01*
X65433Y183768D01*
X66766D01*
X67432Y184434D01*
X68765Y187766D02*
Y183768D01*
X70764D01*
X71431Y184434D01*
Y185101D01*
X70764Y185767D01*
X68765D01*
X70764D01*
X71431Y186433D01*
Y187100D01*
X70764Y187766D01*
X68765D01*
X72764Y185767D02*
X75429D01*
X76762Y183768D02*
Y187766D01*
X78095Y186433D01*
X79428Y187766D01*
Y183768D01*
X83427Y187766D02*
X80761D01*
Y183768D01*
X83427D01*
X80761Y185767D02*
X82094D01*
X84760Y183768D02*
Y186433D01*
X86093Y187766D01*
X87426Y186433D01*
Y183768D01*
Y185767D01*
X84760D01*
X92757Y187766D02*
Y185101D01*
X94090Y183768D01*
X95423Y185101D01*
Y187766D01*
X96756Y187100D02*
X97422Y187766D01*
X98755D01*
X99422Y187100D01*
Y184434D01*
X98755Y183768D01*
X97422D01*
X96756Y184434D01*
Y187100D01*
X100755D02*
X101421Y187766D01*
X102754D01*
X103420Y187100D01*
Y184434D01*
X102754Y183768D01*
X101421D01*
X100755Y184434D01*
Y187100D01*
X107419Y183768D02*
X104753D01*
X107419Y186433D01*
Y187100D01*
X106753Y187766D01*
X105420D01*
X104753Y187100D01*
X181957Y168456D02*
X181457Y168956D01*
X180457D01*
X179957Y168456D01*
Y167956D01*
X180457Y167456D01*
X180957D01*
X180457D01*
X179957Y166956D01*
Y166456D01*
X180457Y165957D01*
X181457D01*
X181957Y166456D01*
X178958Y168456D02*
X178458Y168956D01*
X177458D01*
X176958Y168456D01*
Y167956D01*
X177458Y167456D01*
X177958D01*
X177458D01*
X176958Y166956D01*
Y166456D01*
X177458Y165957D01*
X178458D01*
X178958Y166456D01*
X179957Y156557D02*
X181957D01*
X179957Y158556D01*
Y159056D01*
X180457Y159556D01*
X181457D01*
X181957Y159056D01*
X176958Y156557D02*
X178958D01*
X176958Y158556D01*
Y159056D01*
X177458Y159556D01*
X178458D01*
X178958Y159056D01*
X181957Y147157D02*
X180957D01*
X181457D01*
Y150156D01*
X181957Y149656D01*
X177458Y147157D02*
X179457D01*
X177458Y149156D01*
Y149656D01*
X177958Y150156D01*
X178958D01*
X179457Y149656D01*
X179957Y137757D02*
X181957D01*
X179957Y139756D01*
Y140256D01*
X180457Y140756D01*
X181457D01*
X181957Y140256D01*
X178958D02*
X178458Y140756D01*
X177458D01*
X176958Y140256D01*
Y139756D01*
X177458Y139256D01*
X177958D01*
X177458D01*
X176958Y138756D01*
Y138257D01*
X177458Y137757D01*
X178458D01*
X178958Y138257D01*
X181957Y128357D02*
X180957D01*
X181457D01*
Y131356D01*
X181957Y130856D01*
X179457D02*
X178958Y131356D01*
X177958D01*
X177458Y130856D01*
Y130356D01*
X177958Y129856D01*
X178458D01*
X177958D01*
X177458Y129356D01*
Y128857D01*
X177958Y128357D01*
X178958D01*
X179457Y128857D01*
X181957Y121456D02*
X181457Y121956D01*
X180457D01*
X179957Y121456D01*
Y120956D01*
X180457Y120456D01*
X180957D01*
X180457D01*
X179957Y119956D01*
Y119457D01*
X180457Y118957D01*
X181457D01*
X181957Y119457D01*
X177458Y118957D02*
Y121956D01*
X178958Y120456D01*
X176958D01*
X179957Y109557D02*
X181957D01*
X179957Y111556D01*
Y112056D01*
X180457Y112556D01*
X181457D01*
X181957Y112056D01*
X177458Y109557D02*
Y112556D01*
X178958Y111056D01*
X176958D01*
X181957Y100157D02*
X180957D01*
X181457D01*
Y103156D01*
X181957Y102656D01*
X177958Y100157D02*
Y103156D01*
X179457Y101656D01*
X177458D01*
X181957Y90757D02*
X180957D01*
X181457D01*
Y93756D01*
X181957Y93256D01*
X177458Y93756D02*
X179457D01*
Y92256D01*
X178458Y92756D01*
X177958D01*
X177458Y92256D01*
Y91256D01*
X177958Y90757D01*
X178958D01*
X179457Y91256D01*
X179957Y81357D02*
X181957D01*
X179957Y83356D01*
Y83856D01*
X180457Y84356D01*
X181457D01*
X181957Y83856D01*
X176958Y84356D02*
X178958D01*
Y82856D01*
X177958Y83356D01*
X177458D01*
X176958Y82856D01*
Y81857D01*
X177458Y81357D01*
X178458D01*
X178958Y81857D01*
X181957Y74456D02*
X181457Y74956D01*
X180457D01*
X179957Y74456D01*
Y73956D01*
X180457Y73456D01*
X180957D01*
X180457D01*
X179957Y72956D01*
Y72457D01*
X180457Y71957D01*
X181457D01*
X181957Y72457D01*
X176958Y74956D02*
X178958D01*
Y73456D01*
X177958Y73956D01*
X177458D01*
X176958Y73456D01*
Y72457D01*
X177458Y71957D01*
X178458D01*
X178958Y72457D01*
X181957Y62557D02*
X180957D01*
X181457D01*
Y65556D01*
X181957Y65056D01*
X177458Y65556D02*
X178458Y65056D01*
X179457Y64056D01*
Y63056D01*
X178958Y62557D01*
X177958D01*
X177458Y63056D01*
Y63556D01*
X177958Y64056D01*
X179457D01*
X179957Y53157D02*
X181957D01*
X179957Y55156D01*
Y55656D01*
X180457Y56156D01*
X181457D01*
X181957Y55656D01*
X176958Y56156D02*
X177958Y55656D01*
X178958Y54656D01*
Y53657D01*
X178458Y53157D01*
X177458D01*
X176958Y53657D01*
Y54156D01*
X177458Y54656D01*
X178958D01*
X181957Y43757D02*
X180957D01*
X181457D01*
Y46756D01*
X181957Y46256D01*
X179457Y46756D02*
X177458D01*
Y46256D01*
X179457Y44256D01*
Y43757D01*
X179957Y34357D02*
X181957D01*
X179957Y36356D01*
Y36856D01*
X180457Y37356D01*
X181457D01*
X181957Y36856D01*
X178958Y37356D02*
X176958D01*
Y36856D01*
X178958Y34857D01*
Y34357D01*
X181957Y27456D02*
X181457Y27956D01*
X180457D01*
X179957Y27456D01*
Y26956D01*
X180457Y26456D01*
X180957D01*
X180457D01*
X179957Y25956D01*
Y25457D01*
X180457Y24957D01*
X181457D01*
X181957Y25457D01*
X176958Y27956D02*
X177958Y27456D01*
X178958Y26456D01*
Y25457D01*
X178458Y24957D01*
X177458D01*
X176958Y25457D01*
Y25956D01*
X177458Y26456D01*
X178958D01*
X16957Y168956D02*
X17957Y168456D01*
X18957Y167456D01*
Y166456D01*
X18457Y165957D01*
X17457D01*
X16957Y166456D01*
Y166956D01*
X17457Y167456D01*
X18957D01*
X15958Y168456D02*
X15458Y168956D01*
X14458D01*
X13958Y168456D01*
Y167956D01*
X14458Y167456D01*
X14958D01*
X14458D01*
X13958Y166956D01*
Y166456D01*
X14458Y165957D01*
X15458D01*
X15958Y166456D01*
X18957Y159556D02*
X16957D01*
Y159056D01*
X18957Y157056D01*
Y156557D01*
X13958D02*
X15958D01*
X13958Y158556D01*
Y159056D01*
X14458Y159556D01*
X15458D01*
X15958Y159056D01*
X18957Y149656D02*
X18457Y150156D01*
X17457D01*
X16957Y149656D01*
Y149156D01*
X17457Y148656D01*
X16957Y148156D01*
Y147657D01*
X17457Y147157D01*
X18457D01*
X18957Y147657D01*
Y148156D01*
X18457Y148656D01*
X18957Y149156D01*
Y149656D01*
X18457Y148656D02*
X17457D01*
X13958Y147157D02*
X15958D01*
X13958Y149156D01*
Y149656D01*
X14458Y150156D01*
X15458D01*
X15958Y149656D01*
X18957Y140756D02*
X16957D01*
Y140256D01*
X18957Y138257D01*
Y137757D01*
X15958Y140256D02*
X15458Y140756D01*
X14458D01*
X13958Y140256D01*
Y139756D01*
X14458Y139256D01*
X14958D01*
X14458D01*
X13958Y138756D01*
Y138257D01*
X14458Y137757D01*
X15458D01*
X15958Y138257D01*
X18957Y130856D02*
X18457Y131356D01*
X17457D01*
X16957Y130856D01*
Y130356D01*
X17457Y129856D01*
X16957Y129356D01*
Y128857D01*
X17457Y128357D01*
X18457D01*
X18957Y128857D01*
Y129356D01*
X18457Y129856D01*
X18957Y130356D01*
Y130856D01*
X18457Y129856D02*
X17457D01*
X15958Y130856D02*
X15458Y131356D01*
X14458D01*
X13958Y130856D01*
Y130356D01*
X14458Y129856D01*
X14958D01*
X14458D01*
X13958Y129356D01*
Y128857D01*
X14458Y128357D01*
X15458D01*
X15958Y128857D01*
X16957Y121956D02*
X17957Y121456D01*
X18957Y120456D01*
Y119457D01*
X18457Y118957D01*
X17457D01*
X16957Y119457D01*
Y119956D01*
X17457Y120456D01*
X18957D01*
X14458Y118957D02*
Y121956D01*
X15958Y120456D01*
X13958D01*
X18957Y112556D02*
X16957D01*
Y112056D01*
X18957Y110056D01*
Y109557D01*
X14458D02*
Y112556D01*
X15958Y111056D01*
X13958D01*
X18957Y102656D02*
X18457Y103156D01*
X17457D01*
X16957Y102656D01*
Y102156D01*
X17457Y101656D01*
X16957Y101156D01*
Y100656D01*
X17457Y100157D01*
X18457D01*
X18957Y100656D01*
Y101156D01*
X18457Y101656D01*
X18957Y102156D01*
Y102656D01*
X18457Y101656D02*
X17457D01*
X14458Y100157D02*
Y103156D01*
X15958Y101656D01*
X13958D01*
X18957Y93256D02*
X18457Y93756D01*
X17457D01*
X16957Y93256D01*
Y92756D01*
X17457Y92256D01*
X16957Y91756D01*
Y91256D01*
X17457Y90757D01*
X18457D01*
X18957Y91256D01*
Y91756D01*
X18457Y92256D01*
X18957Y92756D01*
Y93256D01*
X18457Y92256D02*
X17457D01*
X13958Y93756D02*
X15958D01*
Y92256D01*
X14958Y92756D01*
X14458D01*
X13958Y92256D01*
Y91256D01*
X14458Y90757D01*
X15458D01*
X15958Y91256D01*
X18957Y84356D02*
X16957D01*
Y83856D01*
X18957Y81857D01*
Y81357D01*
X13958Y84356D02*
X15958D01*
Y82856D01*
X14958Y83356D01*
X14458D01*
X13958Y82856D01*
Y81857D01*
X14458Y81357D01*
X15458D01*
X15958Y81857D01*
X16957Y74956D02*
X17957Y74456D01*
X18957Y73456D01*
Y72457D01*
X18457Y71957D01*
X17457D01*
X16957Y72457D01*
Y72956D01*
X17457Y73456D01*
X18957D01*
X13958Y74956D02*
X15958D01*
Y73456D01*
X14958Y73956D01*
X14458D01*
X13958Y73456D01*
Y72457D01*
X14458Y71957D01*
X15458D01*
X15958Y72457D01*
X18957Y65056D02*
X18457Y65556D01*
X17457D01*
X16957Y65056D01*
Y64556D01*
X17457Y64056D01*
X16957Y63556D01*
Y63056D01*
X17457Y62557D01*
X18457D01*
X18957Y63056D01*
Y63556D01*
X18457Y64056D01*
X18957Y64556D01*
Y65056D01*
X18457Y64056D02*
X17457D01*
X13958Y65556D02*
X14958Y65056D01*
X15958Y64056D01*
Y63056D01*
X15458Y62557D01*
X14458D01*
X13958Y63056D01*
Y63556D01*
X14458Y64056D01*
X15958D01*
X18957Y56156D02*
X16957D01*
Y55656D01*
X18957Y53657D01*
Y53157D01*
X13958Y56156D02*
X14958Y55656D01*
X15958Y54656D01*
Y53657D01*
X15458Y53157D01*
X14458D01*
X13958Y53657D01*
Y54156D01*
X14458Y54656D01*
X15958D01*
X18957Y46256D02*
X18457Y46756D01*
X17457D01*
X16957Y46256D01*
Y45756D01*
X17457Y45256D01*
X16957Y44756D01*
Y44256D01*
X17457Y43757D01*
X18457D01*
X18957Y44256D01*
Y44756D01*
X18457Y45256D01*
X18957Y45756D01*
Y46256D01*
X18457Y45256D02*
X17457D01*
X15958Y46756D02*
X13958D01*
Y46256D01*
X15958Y44256D01*
Y43757D01*
X18957Y37356D02*
X16957D01*
Y36856D01*
X18957Y34857D01*
Y34357D01*
X15958Y37356D02*
X13958D01*
Y36856D01*
X15958Y34857D01*
Y34357D01*
X16957Y27956D02*
X17957Y27456D01*
X18957Y26456D01*
Y25457D01*
X18457Y24957D01*
X17457D01*
X16957Y25457D01*
Y25956D01*
X17457Y26456D01*
X18957D01*
X13958Y27956D02*
X14958Y27456D01*
X15958Y26456D01*
Y25457D01*
X15458Y24957D01*
X14458D01*
X13958Y25457D01*
Y25956D01*
X14458Y26456D01*
X15958D01*
X167605Y14441D02*
X168105Y14941D01*
Y15941D01*
X167605Y16441D01*
X167106D01*
X166606Y15941D01*
Y15441D01*
Y15941D01*
X166106Y16441D01*
X165606D01*
X165106Y15941D01*
Y14941D01*
X165606Y14441D01*
X168105Y19440D02*
X167605Y18440D01*
X166606Y17440D01*
X165606D01*
X165106Y17940D01*
Y18940D01*
X165606Y19440D01*
X166106D01*
X166606Y18940D01*
Y17440D01*
X158705Y14441D02*
Y16441D01*
X158205D01*
X156206Y14441D01*
X155706D01*
Y19440D02*
Y17440D01*
X157706Y19440D01*
X158205D01*
X158705Y18940D01*
Y17940D01*
X158205Y17440D01*
X148805Y14441D02*
X149305Y14941D01*
Y15941D01*
X148805Y16441D01*
X148306D01*
X147806Y15941D01*
Y15441D01*
Y15941D01*
X147306Y16441D01*
X146806D01*
X146306Y15941D01*
Y14941D01*
X146806Y14441D01*
X149305Y17440D02*
Y19440D01*
X148805D01*
X146806Y17440D01*
X146306D01*
X139406Y14441D02*
X139905Y14941D01*
Y15941D01*
X139406Y16441D01*
X138906D01*
X138406Y15941D01*
Y15441D01*
Y15941D01*
X137906Y16441D01*
X137406D01*
X136906Y15941D01*
Y14941D01*
X137406Y14441D01*
X139406Y17440D02*
X139905Y17940D01*
Y18940D01*
X139406Y19440D01*
X138906D01*
X138406Y18940D01*
X137906Y19440D01*
X137406D01*
X136906Y18940D01*
Y17940D01*
X137406Y17440D01*
X137906D01*
X138406Y17940D01*
X138906Y17440D01*
X139406D01*
X138406Y17940D02*
Y18940D01*
X127506Y15941D02*
X130505D01*
X129006Y14441D01*
Y16441D01*
X130505Y19440D02*
Y17440D01*
X129006D01*
X129506Y18440D01*
Y18940D01*
X129006Y19440D01*
X128006D01*
X127506Y18940D01*
Y17940D01*
X128006Y17440D01*
X118106Y15941D02*
X121105D01*
X119606Y14441D01*
Y16441D01*
X121105Y19440D02*
X120606Y18440D01*
X119606Y17440D01*
X118606D01*
X118106Y17940D01*
Y18940D01*
X118606Y19440D01*
X119106D01*
X119606Y18940D01*
Y17440D01*
X108706Y15941D02*
X111705D01*
X110206Y14441D01*
Y16441D01*
X111205Y17440D02*
X111705Y17940D01*
Y18940D01*
X111205Y19440D01*
X110706D01*
X110206Y18940D01*
X109706Y19440D01*
X109206D01*
X108706Y18940D01*
Y17940D01*
X109206Y17440D01*
X109706D01*
X110206Y17940D01*
X110706Y17440D01*
X111205D01*
X110206Y17940D02*
Y18940D01*
X99306Y15941D02*
X102305D01*
X100806Y14441D01*
Y16441D01*
X102305Y17440D02*
Y19440D01*
X101806D01*
X99806Y17440D01*
X99306D01*
X92906Y16441D02*
Y14442D01*
X91406D01*
X91906Y15441D01*
Y15941D01*
X91406Y16441D01*
X90407D01*
X89907Y15941D01*
Y14942D01*
X90407Y14442D01*
X92906Y17441D02*
Y19440D01*
X92406D01*
X90407Y17441D01*
X89907D01*
X83506Y16441D02*
Y14442D01*
X82006D01*
X82506Y15441D01*
Y15941D01*
X82006Y16441D01*
X81007D01*
X80507Y15941D01*
Y14942D01*
X81007Y14442D01*
X83006Y17441D02*
X83506Y17941D01*
Y18940D01*
X83006Y19440D01*
X82506D01*
X82006Y18940D01*
X81506Y19440D01*
X81007D01*
X80507Y18940D01*
Y17941D01*
X81007Y17441D01*
X81506D01*
X82006Y17941D01*
X82506Y17441D01*
X83006D01*
X82006Y17941D02*
Y18940D01*
X74106Y16441D02*
Y14442D01*
X72606D01*
X73106Y15441D01*
Y15941D01*
X72606Y16441D01*
X71607D01*
X71107Y15941D01*
Y14942D01*
X71607Y14442D01*
X74106Y19440D02*
X73606Y18440D01*
X72606Y17441D01*
X71607D01*
X71107Y17941D01*
Y18940D01*
X71607Y19440D01*
X72106D01*
X72606Y18940D01*
Y17441D01*
X64706Y16441D02*
Y14442D01*
X63206D01*
X63706Y15441D01*
Y15941D01*
X63206Y16441D01*
X62207D01*
X61707Y15941D01*
Y14942D01*
X62207Y14442D01*
X64706Y19440D02*
Y17441D01*
X63206D01*
X63706Y18440D01*
Y18940D01*
X63206Y19440D01*
X62207D01*
X61707Y18940D01*
Y17941D01*
X62207Y17441D01*
X55306Y16441D02*
X54806Y15441D01*
X53806Y14442D01*
X52807D01*
X52307Y14942D01*
Y15941D01*
X52807Y16441D01*
X53306D01*
X53806Y15941D01*
Y14442D01*
X54806Y17441D02*
X55306Y17941D01*
Y18940D01*
X54806Y19440D01*
X54306D01*
X53806Y18940D01*
X53306Y19440D01*
X52807D01*
X52307Y18940D01*
Y17941D01*
X52807Y17441D01*
X53306D01*
X53806Y17941D01*
X54306Y17441D01*
X54806D01*
X53806Y17941D02*
Y18940D01*
X45906Y16441D02*
X45406Y15441D01*
X44406Y14442D01*
X43407D01*
X42907Y14942D01*
Y15941D01*
X43407Y16441D01*
X43906D01*
X44406Y15941D01*
Y14442D01*
X45906Y17441D02*
Y19440D01*
X45406D01*
X43407Y17441D01*
X42907D01*
X36506Y14442D02*
Y16441D01*
X36006D01*
X34007Y14442D01*
X33507D01*
X36006Y17441D02*
X36506Y17941D01*
Y18940D01*
X36006Y19440D01*
X35506D01*
X35006Y18940D01*
X34506Y19440D01*
X34007D01*
X33507Y18940D01*
Y17941D01*
X34007Y17441D01*
X34506D01*
X35006Y17941D01*
X35506Y17441D01*
X36006D01*
X35006Y17941D02*
Y18940D01*
X27106Y16441D02*
X26606Y15441D01*
X25606Y14442D01*
X24607D01*
X24107Y14942D01*
Y15941D01*
X24607Y16441D01*
X25106D01*
X25606Y15941D01*
Y14442D01*
X27106Y19440D02*
X26606Y18440D01*
X25606Y17441D01*
X24607D01*
X24107Y17941D01*
Y18940D01*
X24607Y19440D01*
X25106D01*
X25606Y18940D01*
Y17441D01*
X167606Y173941D02*
X168106Y174441D01*
Y175441D01*
X167606Y175941D01*
X167106D01*
X166607Y175441D01*
Y174941D01*
Y175441D01*
X166107Y175941D01*
X165607D01*
X165107Y175441D01*
Y174441D01*
X165607Y173941D01*
X167606Y176940D02*
X168106Y177440D01*
Y178440D01*
X167606Y178940D01*
X167106D01*
X166607Y178440D01*
Y177940D01*
Y178440D01*
X166107Y178940D01*
X165607D01*
X165107Y178440D01*
Y177440D01*
X165607Y176940D01*
X155707Y175940D02*
Y173941D01*
X157706Y175940D01*
X158206D01*
X158706Y175441D01*
Y174441D01*
X158206Y173941D01*
X155707Y176940D02*
Y177940D01*
Y177440D01*
X158706D01*
X158206Y176940D01*
X148806Y173941D02*
X149306Y174441D01*
Y175441D01*
X148806Y175941D01*
X148306D01*
X147807Y175441D01*
Y174941D01*
Y175441D01*
X147307Y175941D01*
X146807D01*
X146307Y175441D01*
Y174441D01*
X146807Y173941D01*
X146307Y178940D02*
Y176940D01*
X148306Y178940D01*
X148806D01*
X149306Y178440D01*
Y177440D01*
X148806Y176940D01*
X139406Y173941D02*
X139906Y174441D01*
Y175441D01*
X139406Y175940D01*
X138906D01*
X138406Y175441D01*
Y174941D01*
Y175441D01*
X137906Y175940D01*
X137407D01*
X136907Y175441D01*
Y174441D01*
X137407Y173941D01*
X136907Y176940D02*
Y177940D01*
Y177440D01*
X139906D01*
X139406Y176940D01*
X127507Y175441D02*
X130506D01*
X129007Y173941D01*
Y175941D01*
X127507Y178440D02*
X130506D01*
X129007Y176940D01*
Y178940D01*
X118107Y175441D02*
X121106D01*
X119607Y173941D01*
Y175941D01*
X120606Y176940D02*
X121106Y177440D01*
Y178440D01*
X120606Y178940D01*
X120106D01*
X119607Y178440D01*
Y177940D01*
Y178440D01*
X119107Y178940D01*
X118607D01*
X118107Y178440D01*
Y177440D01*
X118607Y176940D01*
X108707Y175441D02*
X111706D01*
X110206Y173941D01*
Y175940D01*
X108707Y176940D02*
Y177940D01*
Y177440D01*
X111706D01*
X111206Y176940D01*
X99307Y175441D02*
X102306D01*
X100807Y173941D01*
Y175941D01*
X99307Y178940D02*
Y176940D01*
X101306Y178940D01*
X101806D01*
X102306Y178440D01*
Y177440D01*
X101806Y176940D01*
X92906Y175941D02*
Y173941D01*
X91407D01*
X91906Y174941D01*
Y175441D01*
X91407Y175941D01*
X90407D01*
X89907Y175441D01*
Y174441D01*
X90407Y173941D01*
X89907Y178940D02*
Y176940D01*
X91906Y178940D01*
X92406D01*
X92906Y178440D01*
Y177440D01*
X92406Y176940D01*
X83506Y175941D02*
Y173941D01*
X82007D01*
X82506Y174941D01*
Y175441D01*
X82007Y175941D01*
X81007D01*
X80507Y175441D01*
Y174441D01*
X81007Y173941D01*
X80507Y176940D02*
Y177940D01*
Y177440D01*
X83506D01*
X83006Y176940D01*
X74106Y175941D02*
Y173941D01*
X72607D01*
X73106Y174941D01*
Y175441D01*
X72607Y175941D01*
X71607D01*
X71107Y175441D01*
Y174441D01*
X71607Y173941D01*
X73606Y176940D02*
X74106Y177440D01*
Y178440D01*
X73606Y178940D01*
X73106D01*
X72607Y178440D01*
Y177940D01*
Y178440D01*
X72107Y178940D01*
X71607D01*
X71107Y178440D01*
Y177440D01*
X71607Y176940D01*
X64706Y175941D02*
Y173941D01*
X63207D01*
X63706Y174941D01*
Y175441D01*
X63207Y175941D01*
X62207D01*
X61707Y175441D01*
Y174441D01*
X62207Y173941D01*
X61707Y178440D02*
X64706D01*
X63207Y176940D01*
Y178940D01*
X55306Y175941D02*
X54806Y174941D01*
X53807Y173941D01*
X52807D01*
X52307Y174441D01*
Y175441D01*
X52807Y175941D01*
X53307D01*
X53807Y175441D01*
Y173941D01*
X52307Y176940D02*
Y177940D01*
Y177440D01*
X55306D01*
X54806Y176940D01*
X45906Y175941D02*
X45406Y174941D01*
X44407Y173941D01*
X43407D01*
X42907Y174441D01*
Y175441D01*
X43407Y175941D01*
X43907D01*
X44407Y175441D01*
Y173941D01*
X42907Y178940D02*
Y176940D01*
X44906Y178940D01*
X45406D01*
X45906Y178440D01*
Y177440D01*
X45406Y176940D01*
X36506Y173941D02*
Y175941D01*
X36006D01*
X34007Y173941D01*
X33507D01*
Y176940D02*
Y177940D01*
Y177440D01*
X36506D01*
X36006Y176940D01*
X27106Y175941D02*
X26606Y174941D01*
X25607Y173941D01*
X24607D01*
X24107Y174441D01*
Y175441D01*
X24607Y175941D01*
X25107D01*
X25607Y175441D01*
Y173941D01*
X27106Y178940D02*
X26606Y177940D01*
X25607Y176940D01*
X24607D01*
X24107Y177440D01*
Y178440D01*
X24607Y178940D01*
X25107D01*
X25607Y178440D01*
Y176940D01*
M02*
