M48
;Layer_Color=9474304
;FILE_FORMAT=2:5
INCH,LZ
;TYPE=PLATED
T1F00S00C0.02900
%
T01
X0025957Y0025957
X0035357
X0044757
X0054157
X0063557
X0072957
X0082357
X0091757
X0101157
X0110557
X0119957
X0129357
X0138757
X0148157
X0025957Y0035357
Y0044757
Y0054157
Y0063557
Y0072957
Y0082357
Y0091757
Y0101157
Y0110557
Y0119957
Y0129357
Y0138757
Y0148157
X0166957
Y0138757
Y0129357
Y0119957
Y0110557
Y0101157
Y0091757
Y0082357
Y0072957
Y0063557
Y0054157
Y0044757
Y0035357
Y0025957
X0157557
X0166957Y0157557
Y0166957
X0157557
X0148157
X0138757
X0129357
X0119957
X0110557
X0101157
X0091757
X0082357
X0072957
X0063557
X0054157
X0044757
X0035357
X0025957
Y0157557
M30
