G04*
G04 #@! TF.GenerationSoftware,Altium Limited,Altium Designer,21.8.1 (53)*
G04*
G04 Layer_Color=8388736*
%FSLAX25Y25*%
%MOIN*%
G70*
G04*
G04 #@! TF.SameCoordinates,1A9603C8-DC4E-418C-A41D-35C8E6E290D8*
G04*
G04*
G04 #@! TF.FilePolarity,Negative*
G04*
G01*
G75*
%ADD11C,0.00300*%
%ADD12C,0.09055*%
G36*
X155315Y92323D02*
X154528Y91535D01*
X122638Y91535D01*
X119882Y94291D01*
X106890D01*
Y97441D01*
X155315D01*
Y92323D01*
D02*
G37*
D11*
X93757Y95557D02*
D03*
Y97357D02*
D03*
Y93757D02*
D03*
Y91957D02*
D03*
Y90157D02*
D03*
Y100957D02*
D03*
Y99157D02*
D03*
X91957Y93757D02*
D03*
Y90157D02*
D03*
Y91957D02*
D03*
Y100957D02*
D03*
Y99157D02*
D03*
Y95557D02*
D03*
Y97357D02*
D03*
X90157Y100957D02*
D03*
Y99157D02*
D03*
Y97357D02*
D03*
Y95557D02*
D03*
Y93757D02*
D03*
Y91957D02*
D03*
X97357Y97357D02*
D03*
Y95557D02*
D03*
Y90157D02*
D03*
Y91957D02*
D03*
Y93757D02*
D03*
Y99157D02*
D03*
Y100957D02*
D03*
X99157Y93757D02*
D03*
Y95557D02*
D03*
Y97357D02*
D03*
Y90157D02*
D03*
Y91957D02*
D03*
Y100957D02*
D03*
Y99157D02*
D03*
X100957Y97357D02*
D03*
Y93757D02*
D03*
Y95557D02*
D03*
Y91957D02*
D03*
Y90157D02*
D03*
Y99157D02*
D03*
Y100957D02*
D03*
X102757Y95557D02*
D03*
X95557D02*
D03*
Y100957D02*
D03*
X102757D02*
D03*
X95557Y93757D02*
D03*
X102757D02*
D03*
Y91957D02*
D03*
X95557D02*
D03*
Y90157D02*
D03*
Y97357D02*
D03*
X102757D02*
D03*
X95557Y99157D02*
D03*
X102757D02*
D03*
X93757Y102757D02*
D03*
X91957D02*
D03*
X95557D02*
D03*
X97357D02*
D03*
X99157D02*
D03*
X100957D02*
D03*
D12*
X166957Y119957D02*
D03*
Y157557D02*
D03*
Y91757D02*
D03*
Y166957D02*
D03*
Y129357D02*
D03*
Y138757D02*
D03*
Y148157D02*
D03*
Y101157D02*
D03*
Y110557D02*
D03*
Y25957D02*
D03*
Y63557D02*
D03*
Y72957D02*
D03*
Y82357D02*
D03*
Y35357D02*
D03*
Y44757D02*
D03*
Y54157D02*
D03*
X25957Y25957D02*
D03*
X72957D02*
D03*
X35357D02*
D03*
X63557D02*
D03*
X54157D02*
D03*
X44757D02*
D03*
X82357D02*
D03*
X91757D02*
D03*
X129357D02*
D03*
X101157D02*
D03*
X119957D02*
D03*
X110557D02*
D03*
X157557D02*
D03*
X148157D02*
D03*
X138757D02*
D03*
X25957Y119957D02*
D03*
Y157557D02*
D03*
Y91757D02*
D03*
Y166957D02*
D03*
Y129357D02*
D03*
Y138757D02*
D03*
Y148157D02*
D03*
Y101157D02*
D03*
Y110557D02*
D03*
Y35357D02*
D03*
Y44757D02*
D03*
Y54157D02*
D03*
Y63557D02*
D03*
Y72957D02*
D03*
Y82357D02*
D03*
X35357Y166957D02*
D03*
X72957D02*
D03*
X63557D02*
D03*
X54157D02*
D03*
X44757D02*
D03*
X82357D02*
D03*
X157557D02*
D03*
X129357D02*
D03*
X101157D02*
D03*
X91757D02*
D03*
X119957D02*
D03*
X110557D02*
D03*
X148157D02*
D03*
X138757D02*
D03*
M02*
